<svg width="202" height="297" viewBox="0 0 202 297" fill="none" xmlns="http://www.w3.org/2000/svg">
<g clip-path="url(#clip0_5_611)">
<path opacity="0.5" d="M168.063 261.832C149.981 261.832 135.298 269.56 135.298 279.142C135.298 288.724 149.981 296.606 168.063 296.606C186.146 296.606 200.828 288.878 200.828 279.142C200.983 269.56 186.146 261.832 168.063 261.832Z" fill="#93BFCB"/>
<path d="M183.055 154.727C183.055 154.727 188.464 163.846 190.937 167.092C193.41 170.337 192.019 170.801 190.937 174.046C189.855 177.292 185.682 183.938 185.373 184.247C186.919 185.638 187.382 188.574 187.382 191.047C187.382 193.211 189.237 197.229 188.773 197.693C188.155 198.311 185.064 195.993 184.291 195.065C182.9 193.52 181.664 189.811 181.664 186.411C181.664 184.092 185.991 171.883 185.991 171.883C185.991 171.883 181.046 164.464 178.882 160.755C176.718 157.2 183.055 154.727 183.055 154.727Z" fill="white"/>
<path d="M188.464 198.466C187.073 198.466 184.446 196.147 183.828 195.529C182.282 193.829 181.046 189.811 181.046 186.565C181.046 184.401 184.6 174.201 185.373 172.192C184.446 170.955 180.273 164.619 178.418 161.373C177.8 160.446 177.8 159.364 178.109 158.437C179.037 155.964 182.746 154.418 182.9 154.418C183.209 154.264 183.519 154.418 183.673 154.728C183.673 154.882 189.082 163.846 191.401 167.092C193.41 169.874 193.101 170.801 192.173 172.81C192.019 173.274 191.71 173.892 191.401 174.51C190.319 177.447 187.073 182.701 185.991 184.401C187.846 186.411 187.846 190.12 187.846 191.202C187.846 192.284 188.31 193.984 188.773 195.375C189.392 197.075 189.546 197.847 189.082 198.157C189.082 198.311 188.773 198.466 188.464 198.466ZM182.746 155.5C181.818 155.964 179.655 157.046 179.037 158.591C178.882 159.21 178.882 159.828 179.191 160.6C181.355 164.31 186.146 171.574 186.3 171.728C186.455 171.883 186.455 172.037 186.3 172.192C185.064 175.592 181.973 184.711 181.973 186.565C181.973 189.965 183.209 193.52 184.446 194.756C185.219 195.684 187.228 197.075 188.001 197.384C187.846 196.92 187.691 196.302 187.537 195.838C187.073 194.447 186.455 192.593 186.61 191.356C186.61 189.193 186.3 186.256 184.755 185.02C184.6 184.865 184.446 184.556 184.6 184.247C184.6 184.247 184.755 184.092 184.91 183.783C187.691 179.147 189.546 175.901 190.164 174.046C190.473 173.274 190.628 172.656 190.937 172.192C191.71 170.492 192.019 169.874 190.319 167.555C188.31 164.619 183.982 157.355 182.746 155.5Z" fill="#184B7E"/>
<path d="M175.946 270.95C175.946 270.95 171.773 270.95 166.054 270.95C160.799 270.95 160.181 274.505 165.9 277.442C171.309 280.224 174.245 277.905 177.182 278.369C182.282 279.296 184.6 276.514 183.519 272.65C182.282 268.323 175.946 270.95 175.946 270.95Z" fill="#A2E0DC"/>
<path d="M171.309 279.451C169.763 279.451 167.909 279.142 165.591 278.06C162.5 276.514 160.799 274.505 161.263 272.805C161.572 271.414 163.427 270.487 165.9 270.487H175.791C176.409 270.178 179.809 269.096 181.973 270.178C182.9 270.641 183.673 271.569 183.982 272.651C184.6 274.66 184.291 276.36 183.209 277.596C181.973 278.987 179.809 279.451 177.027 278.987C176.1 278.833 175.173 278.987 174.245 279.142C173.318 279.296 172.391 279.451 171.309 279.451ZM166.054 271.569C164.045 271.569 162.654 272.187 162.5 272.96C162.345 273.887 163.118 275.433 166.209 276.978C169.609 278.678 172.082 278.369 174.091 278.06C175.173 277.905 176.255 277.751 177.336 277.905C179.655 278.369 181.509 277.905 182.437 276.823C183.209 275.896 183.519 274.505 183.055 272.96C182.9 272.187 182.437 271.569 181.664 271.26C179.655 270.178 176.255 271.569 176.255 271.569H176.1H166.054Z" fill="#184B7E"/>
<path d="M171.773 245.604C171.773 245.604 174.864 259.823 175.173 264.923C175.482 270.023 172.854 271.105 171.773 271.105C169.918 271.105 169.609 273.732 170.845 274.196C171.618 274.505 173.782 274.66 175.791 274.814C180.428 275.123 181.973 274.969 181.818 270.332C181.818 265.696 182.282 245.758 182.282 245.758H171.773V245.604Z" fill="white"/>
<path d="M177.955 275.278C177.336 275.278 176.564 275.278 175.636 275.123C173.164 274.969 171.309 274.814 170.536 274.505C169.763 274.196 169.3 273.269 169.454 272.187C169.609 271.259 170.382 270.332 171.618 270.332C172.082 270.332 172.7 270.178 173.164 269.559C173.782 268.941 174.555 267.55 174.4 264.768C174.091 259.823 171.154 245.758 171 245.604C171 245.449 171 245.295 171.154 245.14C171.309 244.986 171.464 244.986 171.618 244.986H182.128C182.282 244.986 182.437 244.986 182.591 245.14C182.746 245.295 182.746 245.449 182.746 245.604C182.746 245.758 182.128 265.541 182.282 270.178C182.282 272.341 181.973 273.578 181.2 274.35C180.582 274.969 179.5 275.278 177.955 275.278ZM172.545 246.067C173.164 249.004 175.482 260.286 175.791 264.768C175.946 267.859 175.018 269.559 174.245 270.332C173.164 271.414 172.082 271.568 171.773 271.568C171 271.568 170.691 272.341 170.691 272.496C170.691 272.805 170.691 273.269 171 273.423C171.773 273.732 174.555 273.887 175.791 273.887C178.264 274.041 179.809 274.041 180.582 273.423C181.046 272.959 181.355 271.878 181.355 270.023C181.355 265.85 181.664 249.468 181.818 246.067H172.545Z" fill="#184B7E"/>
<path d="M165.436 277.596C165.436 277.596 161.263 277.596 155.545 277.596C150.29 277.596 149.672 281.151 155.39 284.087C160.799 286.869 163.736 284.551 166.672 285.015C171.773 285.942 174.091 283.16 173.009 279.296C171.773 274.969 165.436 277.596 165.436 277.596Z" fill="#A2E0DC"/>
<path d="M160.799 286.096C159.254 286.096 157.399 285.787 155.081 284.705C151.99 283.16 150.29 281.151 150.754 279.451C151.063 278.06 152.917 277.132 155.39 277.132H165.281C165.9 276.823 169.3 275.741 171.464 276.823C172.391 277.287 173.164 278.214 173.473 279.296C174.091 281.305 173.782 283.005 172.7 284.242C171.464 285.633 169.3 286.096 166.518 285.633C165.591 285.478 164.663 285.633 163.736 285.787C162.809 285.942 161.881 286.096 160.799 286.096ZM155.39 278.06C153.381 278.06 151.99 278.678 151.835 279.451C151.681 280.378 152.454 281.923 155.545 283.469C158.945 285.169 161.418 284.86 163.427 284.551C164.509 284.396 165.591 284.242 166.672 284.396C168.991 284.705 170.845 284.396 171.773 283.314C172.545 282.387 172.854 280.996 172.391 279.451C172.236 278.678 171.773 278.06 171 277.751C168.991 276.823 165.591 278.06 165.591 278.06H165.436H155.39Z" fill="#184B7E"/>
<path d="M161.572 244.677C161.572 244.677 164.2 266.159 164.509 271.259C164.818 276.36 162.19 277.441 161.109 277.441C159.254 277.441 158.945 280.069 160.181 280.532C160.954 280.842 163.118 280.996 165.127 281.151C169.763 281.46 171.309 281.305 171.154 276.669C171.154 272.032 171.618 242.822 171.618 242.822L161.572 244.677Z" fill="white"/>
<path d="M167.445 281.769C166.827 281.769 166.054 281.769 165.127 281.614C162.654 281.46 160.799 281.305 160.027 280.996C159.254 280.687 158.79 279.76 158.945 278.678C159.099 277.751 159.872 276.823 161.109 276.823C161.572 276.823 162.19 276.669 162.654 276.05C163.272 275.432 164.045 274.041 163.891 271.259C163.581 266.159 160.954 244.831 160.954 244.676C160.954 244.367 161.109 244.058 161.418 244.058L171.464 242.049C171.618 242.049 171.773 242.049 171.927 242.204C172.082 242.358 172.082 242.513 172.082 242.667C172.082 242.976 171.464 272.032 171.618 276.514C171.618 278.678 171.309 279.914 170.536 280.687C170.073 281.614 168.991 281.769 167.445 281.769ZM162.345 245.14C162.809 248.54 164.972 266.623 165.281 271.259C165.436 274.35 164.509 276.05 163.736 276.823C162.963 277.751 161.881 278.06 161.263 278.06C160.49 278.06 160.181 278.832 160.181 278.987C160.181 279.296 160.181 279.76 160.49 279.914C161.263 280.223 163.89 280.378 165.281 280.378C167.754 280.532 169.3 280.532 170.073 279.914C170.536 279.451 170.845 278.369 170.845 276.514C170.845 272.341 171.309 247.767 171.309 243.285L162.345 245.14Z" fill="#184B7E"/>
<path d="M184.291 153.955C184.291 158.128 180.891 161.682 176.564 161.682C172.391 161.682 168.836 158.282 168.836 153.955C168.836 149.782 172.236 146.227 176.564 146.227C180.737 146.227 184.291 149.782 184.291 153.955Z" fill="#A2E0DC"/>
<path d="M176.564 162.146C172.082 162.146 168.372 158.437 168.372 153.955C168.372 149.473 172.082 145.764 176.564 145.764C181.046 145.764 184.755 149.473 184.755 153.955C184.755 158.591 181.046 162.146 176.564 162.146ZM176.564 146.845C172.7 146.845 169.454 150.091 169.454 153.955C169.454 157.819 172.7 161.064 176.564 161.064C180.428 161.064 183.673 157.819 183.673 153.955C183.673 150.091 180.428 146.845 176.564 146.845Z" fill="#184B7E"/>
<path d="M159.563 187.956C159.563 187.956 154.617 195.529 150.444 209.593C146.272 223.658 145.035 249.468 145.035 249.468C145.035 249.468 148.744 254.413 154.308 252.713C159.408 251.168 162.19 252.713 164.972 256.577C169.609 262.914 178.418 261.059 178.418 253.177C178.418 248.386 183.209 247.922 188.928 251.322C190.782 252.404 197.428 251.322 197.274 247.149C197.119 243.44 200.674 239.886 200.674 239.886C200.674 239.886 198.046 212.221 192.328 200.011C186.61 187.802 180.118 184.556 180.118 184.556L159.563 187.956Z" fill="#C9E7E8"/>
<path d="M171.773 260.905C169.145 260.905 166.363 259.514 164.509 256.886C162.036 253.486 159.563 251.786 154.463 253.332C148.59 255.186 144.572 249.931 144.572 249.931C144.417 249.777 144.417 249.622 144.417 249.622C144.417 249.313 145.653 223.658 149.826 209.593C153.999 195.529 158.945 187.956 159.099 187.802C159.254 187.647 159.254 187.647 159.408 187.493L179.964 183.783C180.118 183.783 180.273 183.783 180.273 183.783C180.582 183.938 187.073 187.338 192.792 199.548C198.51 211.757 200.983 238.495 201.137 239.576C201.137 239.731 201.137 239.886 200.983 240.04C200.983 240.04 197.737 243.595 197.892 246.995C197.892 248.54 197.119 249.931 195.574 250.859C193.255 252.25 190.01 252.404 188.773 251.632C185.373 249.622 182.282 249.004 180.582 249.931C179.655 250.55 179.191 251.477 179.191 253.022C179.191 256.732 177.336 259.514 174.4 260.441C173.318 260.75 172.545 260.905 171.773 260.905ZM157.863 251.477C161.263 251.477 163.427 253.332 165.436 256.114C167.6 259.05 170.845 260.286 173.782 259.359C176.255 258.586 177.8 256.114 177.8 253.022C177.8 250.704 178.882 249.468 179.809 249.004C181.973 247.768 185.373 248.386 189.237 250.704C190.164 251.168 192.946 251.168 194.801 249.931C196.037 249.159 196.655 248.231 196.655 246.995C196.501 243.595 199.283 240.349 199.901 239.422C199.592 236.64 196.965 211.448 191.71 200.011C186.61 189.193 180.891 185.483 179.964 184.865L159.872 188.42C159.099 189.656 154.772 197.075 150.908 209.593C146.89 222.73 145.653 246.531 145.499 249.004C146.117 249.777 149.363 253.332 153.999 251.786C155.545 251.632 156.781 251.477 157.863 251.477Z" fill="#184B7E"/>
<path d="M161.572 154.418C160.645 155.346 158.481 156.891 156.472 159.673C153.845 163.073 153.536 168.792 155.699 173.428C158.018 178.374 158.172 179.765 159.563 187.956C162.19 193.674 180.273 191.356 181.355 185.174C179.964 172.81 181.664 167.092 181.355 159.673C181.046 152.255 175.791 148.545 172.7 149.936C172.236 153.027 167.291 156.582 161.572 154.418Z" fill="#A2E0DC"/>
<path d="M168.063 191.82C164.045 191.82 160.336 190.738 159.099 188.265V188.111L158.945 187.492C157.708 179.919 157.399 178.528 155.236 173.737C153.072 168.946 153.381 162.919 156.163 159.364C157.708 157.355 159.408 155.809 160.49 154.882C160.799 154.573 161.109 154.264 161.418 154.109C161.572 153.955 161.881 153.955 162.036 153.955C165.436 155.191 168.063 154.264 169.3 153.491C170.845 152.564 172.082 151.173 172.236 149.782C172.236 149.627 172.391 149.473 172.545 149.318C173.936 148.7 175.636 149.009 177.182 149.936C179.964 151.636 181.818 155.346 181.973 159.519C182.128 162.301 181.973 164.773 181.664 167.555C181.355 172.037 181.046 177.292 181.973 185.02V185.174C181.355 188.883 175.946 190.893 171.464 191.511C170.227 191.82 169.145 191.82 168.063 191.82ZM160.027 187.802C161.263 190.12 165.745 191.202 171.154 190.429C175.482 189.811 180.118 187.956 180.737 185.174C179.809 177.292 180.273 172.192 180.428 167.555C180.582 164.928 180.737 162.455 180.582 159.673C180.428 155.037 178.264 152.1 176.255 151.018C175.173 150.246 173.936 150.091 173.009 150.4C172.545 151.946 171.309 153.491 169.454 154.573C167.136 155.964 164.2 156.118 161.572 155.191C161.418 155.346 161.109 155.5 160.954 155.809C159.872 156.737 158.327 158.128 156.781 160.137C154.308 163.382 153.999 168.946 156.008 173.274C158.327 178.065 158.481 179.765 159.718 187.338L160.027 187.802Z" fill="#184B7E"/>
<path d="M161.727 144.527C161.727 144.527 162.963 150.091 161.727 154.418C161.727 154.418 164.354 155.655 166.982 155.5C169.3 155.346 173.318 153.646 172.7 149.936C170.691 144.527 168.836 141.591 168.836 141.591L161.727 144.527Z" fill="white"/>
<path d="M166.209 156.119C163.736 156.119 161.418 155.037 161.418 155.037C161.109 154.882 161.109 154.573 161.109 154.419C162.345 150.4 161.109 144.836 161.109 144.836C161.109 144.527 161.263 144.373 161.418 144.218L168.682 141.282C168.991 141.127 169.3 141.282 169.3 141.436C169.3 141.591 171.154 144.527 173.164 149.937C173.473 151.328 173.164 152.564 172.236 153.646C171 155.191 168.682 156.119 166.827 156.273C166.827 156.119 166.518 156.119 166.209 156.119ZM162.345 154.109C163.118 154.419 164.972 155.037 166.982 154.882C168.527 154.728 170.536 153.955 171.618 152.718C172.236 151.946 172.391 151.018 172.236 150.091C170.691 146.073 169.3 143.291 168.682 142.364L162.345 144.991C162.5 146.382 163.272 150.555 162.345 154.109Z" fill="#184B7E"/>
<path d="M161.418 128.917C153.072 130.308 153.381 142.672 155.39 147.463C157.399 152.409 163.581 149.782 167.6 144.991C171.773 140.354 171.618 127.217 161.418 128.917Z" fill="white"/>
<path d="M159.099 150.709C158.79 150.709 158.481 150.709 158.327 150.709C156.781 150.4 155.545 149.473 154.927 147.773C153.536 144.373 152.763 137.263 155.545 132.627C156.936 130.308 158.945 128.763 161.418 128.299C164.972 127.681 167.909 128.917 169.454 131.699C171.773 135.872 170.691 142.363 168.218 145.454C165.436 148.7 161.881 150.709 159.099 150.709ZM161.572 129.536C159.409 129.845 157.554 131.081 156.472 133.245C154.154 137.418 154.617 144.218 156.008 147.464C156.472 148.7 157.399 149.473 158.481 149.627C160.799 150.091 164.509 148.082 167.291 144.836C169.609 142.209 170.536 136.181 168.372 132.472C167.136 129.845 164.663 128.917 161.572 129.536Z" fill="#184B7E"/>
<path d="M152.454 164.464L141.944 177.292C141.944 177.292 134.989 171.883 131.435 167.401C127.88 162.919 125.253 155.964 123.862 155.964C122.471 155.964 124.48 160.446 124.634 161.528C124.789 162.61 120.307 165.083 123.398 167.864C126.489 170.646 126.025 169.101 128.344 170.028C129.735 172.501 133.444 179.61 137.153 182.701C140.862 185.947 141.326 185.947 145.962 184.092C150.444 182.238 154.926 174.356 157.554 169.719C159.718 166.164 152.454 164.464 152.454 164.464Z" fill="white"/>
<path d="M141.79 186.101C140.244 186.101 139.008 185.329 136.844 183.32C133.444 180.538 130.198 174.665 128.498 171.574C128.344 171.265 128.189 170.955 128.035 170.646C127.416 170.337 126.953 170.337 126.644 170.337C125.716 170.337 125.098 170.183 123.089 168.328C120.616 166.01 122.471 163.846 123.398 162.61C123.707 162.301 124.171 161.837 124.171 161.682C124.171 161.373 124.016 160.91 123.707 160.291C122.934 158.128 122.471 156.582 123.089 155.809C123.243 155.5 123.553 155.346 123.862 155.346C124.943 155.346 125.716 156.737 127.571 160.137C128.807 162.301 130.198 164.928 131.898 166.937C134.835 170.646 140.244 175.128 141.79 176.365L151.99 164.001C152.145 163.846 152.299 163.691 152.608 163.846C152.763 163.846 157.399 165.082 158.327 167.401C158.636 168.328 158.636 169.101 158.172 170.028L157.863 170.646C155.081 175.592 150.908 182.856 146.426 184.711C144.262 185.638 142.871 186.101 141.79 186.101ZM124.016 156.582C124.016 157.2 124.48 159.055 124.789 159.828C124.943 160.446 125.253 161.064 125.253 161.373C125.407 161.991 124.943 162.61 124.325 163.228C123.089 164.773 122.316 165.855 123.862 167.246C125.716 168.946 126.025 168.946 126.798 168.946C127.262 168.946 127.725 168.946 128.807 169.41C128.962 169.41 128.962 169.564 129.116 169.719C129.271 170.028 129.58 170.492 129.735 170.801C131.435 173.892 134.526 179.456 137.771 182.238C141.326 185.329 141.635 185.329 145.963 183.629C150.135 181.929 154.154 174.819 156.936 170.028L157.245 169.41C157.554 168.792 157.554 168.328 157.399 167.864C156.781 166.473 154.154 165.392 152.763 164.928L142.562 177.447C142.408 177.756 141.944 177.756 141.79 177.601C141.481 177.447 134.835 172.037 131.28 167.555C129.58 165.392 128.035 162.764 126.953 160.446C125.716 159.055 124.48 157.046 124.016 156.582Z" fill="#184B7E"/>
<path d="M164.972 165.083C164.972 169.255 161.572 172.81 157.245 172.81C153.072 172.81 149.517 169.41 149.517 165.083C149.517 160.91 152.917 157.355 157.245 157.355C161.572 157.355 164.972 160.755 164.972 165.083Z" fill="#A2E0DC"/>
<path d="M157.399 173.274C152.917 173.274 149.208 169.564 149.208 165.082C149.208 160.6 152.917 156.891 157.399 156.891C161.881 156.891 165.591 160.6 165.591 165.082C165.591 169.564 161.881 173.274 157.399 173.274ZM157.399 157.973C153.536 157.973 150.29 161.219 150.29 165.082C150.29 168.946 153.536 172.192 157.399 172.192C161.263 172.192 164.509 168.946 164.509 165.082C164.509 161.219 161.263 157.973 157.399 157.973Z" fill="#184B7E"/>
<path d="M150.444 134.79C150.444 134.79 156.472 136.181 160.181 133.09C160.336 136.181 160.954 140.045 162.5 142.827C164.972 147.309 165.281 152.255 162.19 154.573C159.718 156.273 158.172 154.418 158.172 154.418C158.172 154.418 156.472 161.528 164.509 160.91C173.009 166.783 185.682 160.137 187.228 150.864C188.928 140.2 180.273 133.554 175.946 128.145C171.464 122.272 160.49 120.881 155.854 126.445C154.463 128.145 153.381 130.154 152.608 131.236C151.372 133.399 150.444 134.79 150.444 134.79Z" fill="#6EB3BC"/>
<path d="M171.618 163.692C168.991 163.692 166.363 162.919 164.2 161.528C161.572 161.682 159.718 161.064 158.481 159.673C156.627 157.51 157.399 154.418 157.399 154.264C157.399 154.109 157.554 153.955 157.863 153.8C158.018 153.8 158.327 153.8 158.481 153.955C158.636 154.109 159.718 155.346 161.727 153.955C164.818 151.791 164.045 146.845 161.881 142.982C160.645 140.818 159.872 137.881 159.563 134.018C155.699 136.336 150.444 135.254 150.29 135.254C150.135 135.254 149.981 135.1 149.826 134.945C149.826 134.79 149.826 134.636 149.826 134.327C149.826 134.327 150.754 132.936 152.145 130.772L152.299 130.463C152.917 129.227 153.999 127.526 155.39 125.826C157.399 123.354 160.799 122.117 164.663 122.117C169.3 122.272 173.936 124.281 176.409 127.526C177.182 128.608 178.264 129.69 179.346 130.927C183.673 135.872 189.237 141.9 187.691 150.709C186.919 155.655 183.209 159.982 177.955 162.146C175.791 163.228 173.627 163.692 171.618 163.692ZM164.354 160.291C164.509 160.291 164.663 160.291 164.663 160.446C168.218 162.919 172.854 163.228 177.491 161.373C182.282 159.364 185.837 155.191 186.61 150.709C188.001 142.363 182.746 136.645 178.573 131.854C177.491 130.618 176.409 129.536 175.636 128.299C173.318 125.363 169.145 123.354 164.818 123.354C161.263 123.354 158.327 124.435 156.472 126.599C155.236 128.145 154.154 129.845 153.536 131.081L153.381 131.39C152.608 132.627 151.99 133.709 151.526 134.327C153.226 134.481 157.245 134.79 159.872 132.627C160.027 132.472 160.336 132.472 160.49 132.472C160.645 132.627 160.799 132.781 160.799 132.936C161.109 136.954 161.727 140.2 162.963 142.363C165.9 147.618 165.591 152.564 162.345 154.882C160.799 155.964 159.408 155.809 158.481 155.346C158.481 156.273 158.481 157.819 159.408 158.9C160.336 159.982 162.036 160.446 164.354 160.291Z" fill="#184B7E"/>
<path d="M165.591 161.991C165.281 161.991 165.127 161.837 164.972 161.528C164.972 161.219 165.127 160.909 165.436 160.909C165.591 160.909 170.691 160.137 171.464 155.346C171.464 155.037 171.773 154.882 172.082 154.882C172.391 154.882 172.545 155.191 172.545 155.5C171.773 161.064 165.745 161.991 165.591 161.991C165.745 161.991 165.591 161.991 165.591 161.991Z" fill="#184B7E"/>
<path d="M168.836 140.354C168.682 140.354 168.682 140.354 168.527 140.2C166.054 138.654 164.972 134.79 164.972 134.636C164.818 134.327 165.127 134.018 165.436 133.863C165.745 133.708 166.054 134.018 166.209 134.327C166.209 134.327 167.291 137.881 169.3 139.272C169.609 139.427 169.609 139.736 169.454 140.045C169.3 140.2 169.145 140.354 168.836 140.354Z" fill="#184B7E"/>
<path d="M158.018 243.285C157.708 243.285 157.399 242.976 157.399 242.667C157.399 222.576 161.727 203.257 161.727 203.102C161.727 202.793 162.036 202.638 162.345 202.638C162.654 202.638 162.809 202.948 162.809 203.257C162.809 203.411 158.481 222.73 158.481 242.513C158.481 243.131 158.327 243.285 158.018 243.285Z" fill="#184B7E"/>
<path d="M181.355 227.367C181.046 227.367 180.737 227.058 180.737 226.749C180.118 215.621 175.946 200.939 175.946 200.784C175.791 200.475 176.1 200.166 176.409 200.011C176.718 199.857 177.027 200.166 177.182 200.475C177.182 200.629 181.355 215.312 181.973 226.594C181.973 227.058 181.664 227.367 181.355 227.367Z" fill="#184B7E"/>
<path d="M188.928 232.776C188.619 232.776 188.31 232.467 188.31 232.158C187.228 212.221 180.891 198.311 180.737 198.157C180.582 197.848 180.737 197.538 181.046 197.384C181.355 197.229 181.664 197.384 181.818 197.693C181.818 197.848 188.31 211.912 189.392 232.158C189.546 232.467 189.237 232.622 188.928 232.776Z" fill="#184B7E"/>
<path d="M181.973 154.418C181.818 154.418 181.664 154.418 181.509 154.264C181.355 153.955 181.355 153.646 181.509 153.491C184.446 150.864 183.364 146.691 183.364 146.691C183.209 146.382 183.519 146.073 183.828 145.918C184.137 145.764 184.446 146.073 184.6 146.382C184.6 146.536 185.837 151.173 182.282 154.264C182.282 154.418 182.128 154.418 181.973 154.418Z" fill="#184B7E"/>
<path d="M168.682 197.075C161.572 197.075 157.09 192.593 156.936 192.438C156.781 192.284 156.781 191.82 156.936 191.665C157.09 191.511 157.554 191.511 157.708 191.665C157.708 191.665 162.963 196.766 170.691 195.838C181.355 194.602 183.673 188.42 183.673 188.42C183.828 188.111 184.137 187.956 184.446 188.111C184.755 188.265 184.91 188.574 184.755 188.883C184.6 189.193 182.282 195.684 170.845 197.075C170.073 196.92 169.454 197.075 168.682 197.075Z" fill="#184B7E"/>
<path d="M164.972 191.665C164.663 191.665 164.354 191.356 164.354 191.047C164.354 191.047 164.509 187.956 163.581 185.638C163.427 185.329 163.581 185.02 163.89 184.865C164.2 184.711 164.509 184.865 164.663 185.174C165.591 187.802 165.436 190.893 165.436 191.047C165.591 191.356 165.281 191.665 164.972 191.665Z" fill="#184B7E"/>
<path d="M175.327 190.738C175.018 190.738 174.864 190.583 174.709 190.274C174.709 190.12 174.245 186.256 176.1 183.629C176.255 183.32 176.718 183.32 176.873 183.474C177.182 183.629 177.182 184.092 177.027 184.247C175.482 186.411 175.791 189.965 175.791 189.965C175.946 190.429 175.636 190.738 175.327 190.738Z" fill="#184B7E"/>
<path opacity="0.5" d="M102.533 241.74L13.3572 293.206L3.77496 287.796L92.7967 236.331L102.533 241.74Z" fill="#93BFCB"/>
<path d="M14.439 270.023L77.6507 226.285C83.9873 222.73 89.0875 212.839 89.0875 204.493L94.9604 7.90321C92.6422 6.04859 88.0056 3.88487 85.6873 2.64846C82.9054 1.10294 80.7417 0.948391 77.6507 2.80301L12.2753 40.5136C6.09323 44.0683 0.993027 53.8051 0.993027 62.1509V255.34C0.993027 259.822 2.53854 263.068 4.85682 264.459C6.71144 265.85 11.5025 268.323 14.439 270.023Z" fill="#6EB3BC"/>
<path d="M14.439 270.641C14.2845 270.641 14.2845 270.641 14.1299 270.641C12.8935 269.868 11.348 269.096 9.95703 268.323C7.7933 267.087 5.62958 265.85 4.39317 265.232C1.92034 263.532 0.374825 259.977 0.374825 255.495V62.3056C0.374825 53.8052 5.62958 43.7594 12.1208 40.0501L77.3416 2.18496C80.5871 0.330342 83.06 0.330342 85.9965 2.03041C86.7692 2.49407 87.6965 2.95772 88.7784 3.57593C91.0967 4.81234 93.724 6.04875 95.2696 7.43972C95.4241 7.59427 95.4241 7.74882 95.4241 7.90337L89.5511 204.648C89.5511 213.148 84.2964 223.194 77.8052 226.903L14.7481 270.641C14.7481 270.641 14.5936 270.641 14.439 270.641ZM81.9781 1.87586C80.7417 1.87586 79.5053 2.33951 77.9598 3.11227L12.5844 40.9774C6.40234 44.5321 1.45669 54.1143 1.45669 62.151V255.341C1.45669 259.359 2.6931 262.605 5.01137 263.996C6.24779 264.768 8.41151 266.005 10.5752 267.087C11.9662 267.859 13.3572 268.632 14.439 269.25L77.3416 225.667C83.5236 222.112 88.4693 212.53 88.4693 204.339L94.3422 8.05793C92.7967 6.82151 90.3239 5.5851 88.1602 4.50324C87.0783 3.88503 85.9965 3.42138 85.3782 2.95772C84.1418 2.33951 83.06 1.87586 81.9781 1.87586Z" fill="#184B7E"/>
<path d="M21.8575 269.559L87.2329 231.849C93.5695 228.294 98.6697 218.403 98.6697 210.057V16.8674C98.6697 8.52161 93.5695 4.65782 87.2329 8.21251L21.8575 45.9231C15.5209 49.4778 10.4207 59.3691 10.4207 67.7149V260.904C10.4207 269.25 15.5209 273.114 21.8575 269.559Z" fill="white"/>
<path d="M17.3755 271.414C16.1391 271.414 15.0572 271.105 14.1299 270.641C11.5025 269.096 9.95703 265.541 9.95703 260.904V67.7148C9.95703 59.2144 15.2118 49.1686 21.703 45.4593L86.9238 7.59419C89.8602 5.89412 92.6422 5.73957 94.9605 6.97598C97.5878 8.5215 99.1334 12.0762 99.1334 16.7127V209.902C99.1334 218.403 93.8786 228.449 87.3874 232.158L22.0121 269.868C20.4665 270.95 18.7665 271.414 17.3755 271.414ZM91.7149 7.43964C90.4785 7.43964 88.9329 7.90329 87.542 8.67605L22.1666 46.3867C15.9845 49.9413 11.0389 59.5235 11.0389 67.5602V260.75C11.0389 264.923 12.4299 268.168 14.7481 269.405C16.6028 270.487 19.0756 270.332 21.5484 268.786L86.9238 231.23C93.1058 227.676 98.0515 218.094 98.0515 209.902V16.7127C98.0515 12.5398 96.6605 9.29426 94.3422 8.05784C93.5695 7.59419 92.6422 7.43964 91.7149 7.43964Z" fill="#184B7E"/>
<path d="M98.5151 198.466V16.7128L10.4207 67.7148V249.313L98.5151 198.466Z" fill="#A2E0DC"/>
<path d="M52.3042 35.7227C52.3042 37.4227 53.2315 38.1955 54.4679 37.4227C55.7043 36.65 56.6317 34.7954 56.6317 33.0953C56.6317 31.3952 55.7043 30.6225 54.4679 31.3952C53.2315 32.168 52.3042 34.0226 52.3042 35.7227Z" fill="#6EB3BC"/>
<path d="M53.5406 38.1957C53.2315 38.1957 52.9224 38.1957 52.6133 38.0411C51.9951 37.5775 51.5314 36.8047 51.5314 35.7228C51.5314 33.8682 52.6133 31.7045 54.0043 30.9317C54.777 30.4681 55.3952 30.4681 56.0134 30.7772C56.6317 31.2408 57.0953 32.0136 57.0953 33.0955C57.0953 34.9501 56.0134 37.1138 54.6225 37.8866C54.3134 38.1957 54.0043 38.1957 53.5406 38.1957ZM55.3952 31.7045C55.2407 31.7045 54.9316 31.8591 54.777 31.8591C53.6952 32.4773 52.7679 34.1773 52.7679 35.5683C52.7679 36.1865 52.9224 36.6502 53.2315 36.8047C53.5406 36.9593 53.8497 36.8047 54.1588 36.6502C55.2407 36.032 56.168 34.3319 56.168 32.9409C56.168 32.3227 56.0134 31.8591 55.7043 31.7045C55.5498 31.7045 55.3952 31.7045 55.3952 31.7045Z" fill="#184B7E"/>
<path d="M51.686 244.058L65.132 236.331C67.4503 234.94 69.3049 231.385 69.3049 228.449C69.3049 225.358 67.4503 223.967 65.132 225.358L51.686 233.085C49.3677 234.476 47.5131 238.031 47.5131 240.967C47.5131 243.904 49.3677 245.449 51.686 244.058Z" fill="#C9E7E8"/>
<path d="M50.1405 245.14C49.6768 245.14 49.2132 244.986 48.7495 244.831C47.6676 244.213 47.0494 242.822 47.0494 240.967C47.0494 237.722 49.0586 234.012 51.5314 232.467L64.9774 224.739C66.2138 224.121 67.2957 223.967 68.223 224.585C69.3049 225.203 69.9231 226.594 69.9231 228.449C69.9231 231.694 67.9139 235.403 65.4411 236.949L51.9951 244.676C51.3769 244.986 50.7587 245.14 50.1405 245.14ZM66.832 225.203C66.3684 225.203 65.9047 225.357 65.4411 225.667L51.9951 233.394C49.8314 234.631 48.1313 238.031 48.1313 240.813C48.1313 242.204 48.5949 243.285 49.2132 243.595C49.9859 244.058 50.7587 243.749 51.3769 243.44L64.8229 235.712C66.9866 234.476 68.6867 231.076 68.6867 228.294C68.6867 226.903 68.223 225.821 67.6048 225.512C67.4503 225.357 67.1411 225.203 66.832 225.203Z" fill="#184B7E"/>
<path d="M5.62958 246.531L10.4207 249.313V67.5604L5.62958 64.7784V246.531Z" fill="#8ED1D3"/>
<path d="M10.4207 249.931C10.2661 249.931 10.2661 249.931 10.1116 249.931L5.32048 247.15C5.16593 246.995 5.01138 246.84 5.01138 246.531V64.7785C5.01138 64.624 5.16593 64.3149 5.32048 64.3149C5.47503 64.1603 5.78414 64.1603 5.93869 64.3149L10.7298 67.0968C10.8843 67.2514 11.0389 67.4059 11.0389 67.5605V249.468C11.0389 249.622 10.8843 249.931 10.7298 249.931C10.5752 249.931 10.5752 249.931 10.4207 249.931ZM6.24779 246.222L9.80248 248.386V67.8696L6.24779 65.7059V246.222Z" fill="#184B7E"/>
<path d="M10.4207 249.931C10.5753 249.931 10.5753 249.931 10.7298 249.777L98.8243 198.929C98.9788 198.775 99.1334 198.62 99.1334 198.466V16.7127C99.1334 16.5582 98.9788 16.2491 98.8243 16.2491C98.6697 16.0945 98.3606 16.0945 98.2061 16.2491L10.1116 67.0966C9.95705 67.2511 9.80249 67.4057 9.80249 67.5602V249.313C9.80249 249.468 9.95705 249.777 10.1116 249.777C10.2661 249.931 10.2661 249.931 10.4207 249.931ZM97.897 198.156L11.0389 248.386V68.0239L97.897 17.7946V198.156Z" fill="#184B7E"/>
<path opacity="0.5" d="M88.6238 162.3L20.312 201.711V195.993L88.6238 156.582V162.3Z" fill="#93BFCB"/>
<path opacity="0.5" d="M88.6238 172.037L20.312 211.448V205.73L88.6238 166.319V172.037Z" fill="#93BFCB"/>
<path opacity="0.5" d="M88.6238 181.774L20.312 221.185V215.466L88.6238 176.056V181.774Z" fill="#93BFCB"/>
<path opacity="0.5" d="M88.6238 191.511L20.312 230.921V225.203L88.6238 185.792V191.511Z" fill="#93BFCB"/>
<path d="M17.0664 167.555C17.3755 170.955 18.1483 175.283 20.7757 177.137C21.703 177.756 26.185 180.383 28.6578 181.465C31.7488 182.856 30.3579 176.519 30.3579 176.519V159.828L77.6507 132.472C80.5872 130.772 83.06 125.981 83.06 121.962L87.8511 42.2138C86.151 40.9774 83.2145 39.5864 81.3599 38.5045C80.4326 38.0409 79.1962 37.8863 77.6507 38.6591L7.32966 79.3062C4.23862 81.1608 1.92035 85.7974 1.92035 89.8157V168.946C1.92035 171.11 2.69311 172.655 3.92952 173.428C5.62959 174.355 8.25697 175.901 10.5752 177.137L17.0664 167.555Z" fill="#6EB3BC"/>
<path d="M28.3487 181.928C25.8759 180.692 21.3939 178.065 20.4666 177.446C18.1483 175.901 17.0664 172.346 16.7573 169.101L11.0389 177.446C10.8844 177.756 10.5753 177.756 10.2662 177.601C8.56608 176.674 6.71146 175.592 5.16595 174.665L3.46588 173.892C2.07491 173.119 1.30215 171.264 1.30215 168.946V89.8156C1.30215 85.6427 3.92953 80.6971 7.02057 78.8425L77.3416 38.1954C78.8871 37.2681 80.4326 37.2681 81.8236 38.0408C82.4418 38.3499 83.2145 38.8136 83.9873 39.2772C85.5328 40.05 87.0783 40.9773 88.3148 41.7501C88.4693 41.9046 88.6239 42.0592 88.6239 42.2137L83.8328 122.117C83.8328 126.29 81.2054 131.235 78.1143 133.09L30.9761 160.291V176.519C31.1306 177.292 31.9034 180.847 30.5124 181.928C30.3579 182.083 30.0488 182.238 29.5851 182.238C29.1215 182.238 28.8124 182.083 28.3487 181.928ZM83.5237 40.3591C82.7509 39.8954 81.9781 39.4318 81.3599 39.1227C80.2781 38.5045 79.1962 38.5045 78.1143 39.2772L7.63877 79.9243C4.85684 81.4698 2.38402 86.1064 2.38402 89.8156V168.946C2.38402 170.801 3.00222 172.346 4.08408 172.81L5.6296 173.737C7.02057 174.51 8.72064 175.437 10.2662 176.365L16.6028 167.091C16.7573 166.937 17.0664 166.782 17.221 166.937C17.5301 166.937 17.6846 167.246 17.6846 167.401C17.9937 172.037 19.2301 175.283 21.0848 176.519C22.0121 177.137 26.4941 179.765 28.8124 180.847C29.1215 181.001 29.4306 181.156 29.5851 181.001C30.2033 180.537 30.0488 178.065 29.7397 176.519V159.828C29.7397 159.673 29.8942 159.364 30.0488 159.364L77.4961 132.008C80.2781 130.463 82.7509 125.826 82.7509 121.962L87.542 42.5228C86.3056 41.9046 84.7601 41.1319 83.5237 40.3591Z" fill="#184B7E"/>
<path d="M23.403 171.11C23.7121 174.51 24.4849 178.837 27.1123 180.692C31.1306 183.474 36.6945 180.228 36.6945 180.228V163.537L84.1418 136.181C87.0783 134.481 89.5511 129.69 89.5511 125.672V46.3867C89.5511 42.3684 87.0783 40.5137 84.1418 42.2138L13.6663 83.0154C10.5752 84.7155 8.10241 89.3521 8.10241 93.3704V172.501C8.10241 176.519 10.5752 178.374 13.5117 176.674L23.403 171.11Z" fill="white"/>
<path d="M26.6486 181.156C24.1758 179.456 23.2485 175.437 22.7848 172.192L13.8208 177.446C12.2753 178.374 10.8844 178.374 9.64794 177.756C8.25698 176.983 7.48422 175.128 7.48422 172.81V93.3703C7.48422 89.1975 10.1116 84.2518 13.2026 82.3972L83.5236 41.7501C85.0692 40.8228 86.4601 40.8228 87.6965 41.441C89.0875 42.2137 89.8603 44.0684 89.8603 46.3866V125.517C89.8603 129.69 87.2329 134.636 84.1418 136.49L37.0036 163.691V180.074C37.0036 180.228 36.849 180.537 36.6945 180.537C36.5399 180.692 33.758 182.238 30.667 182.238C29.4306 182.238 28.0396 181.928 26.6486 181.156ZM36.0763 163.537C36.0763 163.382 36.2308 163.073 36.3854 163.073L83.8327 135.718C86.6147 134.172 89.0875 129.535 89.0875 125.826V46.3866C89.0875 44.532 88.4693 43.1411 87.542 42.5228C86.7692 42.0592 85.6874 42.2137 84.6055 42.832L13.9754 83.479C11.1935 85.0246 8.72063 89.6611 8.72063 93.3703V172.501C8.72063 174.355 9.33884 175.746 10.2661 176.365C11.0389 176.828 12.1208 176.674 13.2026 176.055L22.9394 170.492C23.0939 170.337 23.2485 170.337 23.5576 170.492C23.7121 170.646 23.8667 170.801 23.8667 170.955C24.1758 175.592 25.4122 178.837 27.2668 180.074C30.5124 182.238 34.8399 180.228 35.9217 179.765V163.537H36.0763Z" fill="#184B7E"/>
<path d="M20.7757 125.826C20.9302 125.826 20.9302 125.826 21.0848 125.672L77.187 93.3705C77.4961 93.2159 77.6507 92.7523 77.3416 92.5977C77.187 92.2886 76.7234 92.134 76.5688 92.4431L20.4666 124.59C20.1574 124.744 20.0029 125.208 20.312 125.363C20.4666 125.672 20.6211 125.826 20.7757 125.826Z" fill="#184B7E"/>
<path d="M20.7757 135.872C20.9302 135.872 20.9302 135.872 21.0848 135.718L77.187 103.416C77.4961 103.262 77.6507 102.798 77.3416 102.643C77.187 102.334 76.7234 102.18 76.5688 102.489L20.4666 134.636C20.1574 134.79 20.0029 135.254 20.312 135.408C20.4666 135.718 20.6211 135.872 20.7757 135.872Z" fill="#184B7E"/>
<path d="M20.7757 145.918C20.9302 145.918 20.9302 145.918 21.0848 145.763L77.187 113.462C77.4961 113.308 77.6507 112.844 77.3416 112.689C77.187 112.38 76.7234 112.226 76.5688 112.535L20.4666 144.682C20.1574 144.836 20.0029 145.3 20.312 145.454C20.4666 145.763 20.6211 145.918 20.7757 145.918Z" fill="#184B7E"/>
<path d="M20.7757 155.809C20.9302 155.809 20.9302 155.809 21.0848 155.655L77.187 123.353C77.4961 123.199 77.6507 122.735 77.3416 122.581C77.187 122.272 76.7234 122.117 76.5688 122.426L20.4666 154.727C20.1574 154.882 20.0029 155.346 20.312 155.5C20.4666 155.809 20.6211 155.809 20.7757 155.809Z" fill="#184B7E"/>
<path d="M37.3127 103.88C37.4672 89.3521 45.9676 72.8151 56.168 66.9421C66.5229 60.9146 74.8687 67.7149 75.0233 82.0882L37.3127 103.88Z" fill="#C9E7E8"/>
<path d="M37.0036 104.498C36.849 104.344 36.6945 104.189 36.6945 104.034C37.0036 89.0429 45.3494 72.6604 55.8589 66.6329C60.3409 64.0055 64.8229 63.6964 68.3776 65.7056C72.8596 68.333 75.4869 74.3605 75.6415 82.2427C75.6415 82.3972 75.4869 82.7063 75.3324 82.7063L37.6218 104.498C37.4672 104.498 37.4672 104.653 37.3127 104.653C37.3127 104.498 37.1581 104.498 37.0036 104.498ZM67.9139 66.6329C64.6683 64.7783 60.8045 65.0874 56.6316 67.5602C46.7403 73.1241 38.5491 88.8884 37.9309 102.953L74.5596 81.779C74.4051 74.3605 71.9323 68.9512 67.9139 66.6329Z" fill="#184B7E"/>
<path d="M58.6408 86.8791C58.9499 86.8791 59.259 86.57 59.259 86.2609C59.259 86.1064 59.7227 75.7514 63.741 73.4331C64.3592 73.124 64.8229 72.9695 65.2865 73.2786C66.9866 74.2059 67.7594 78.8424 67.7594 80.6971C67.7594 81.0062 68.0685 81.3153 68.3776 81.3153C68.6867 81.3153 68.9958 81.0062 68.9958 80.6971C68.9958 79.9243 68.5321 73.7422 65.9047 72.3513C65.2865 72.0422 64.3592 71.8876 63.1228 72.5058C58.4863 75.1332 58.0226 85.9518 58.0226 86.2609C58.0226 86.57 58.1772 86.8791 58.6408 86.8791Z" fill="#184B7E"/>
<path d="M44.1129 95.225C44.422 95.225 44.7312 94.9159 44.7312 94.6068C44.7312 94.4522 45.1948 84.0972 49.2132 81.779C49.8314 81.4699 50.295 81.3153 50.7587 81.6244C52.4587 82.5517 53.2315 87.1883 53.2315 89.0429C53.2315 89.352 53.5406 89.6611 53.8497 89.6611C54.1588 89.6611 54.4679 89.352 54.4679 89.0429C54.4679 88.2701 54.0043 82.0881 51.3769 80.6971C50.7587 80.388 49.8314 80.2334 48.5949 80.8517C43.9584 83.479 43.4947 94.2977 43.4947 94.6068C43.4947 94.9159 43.8038 95.225 44.1129 95.225Z" fill="#184B7E"/>
<path d="M37.3127 107.589L75.1778 85.7973V82.088L37.3127 103.88V107.589Z" fill="#A2E0DC"/>
<path d="M37.0036 108.053C36.849 107.898 36.6945 107.744 36.6945 107.589V103.88C36.6945 103.725 36.849 103.416 37.0036 103.416L74.8687 81.6243C75.0233 81.4698 75.3324 81.4698 75.4869 81.6243C75.6415 81.7789 75.796 81.9334 75.796 82.088V85.7972C75.796 85.9518 75.6415 86.2609 75.4869 86.2609L37.6218 108.053C37.4672 108.053 37.4672 108.207 37.3127 108.207C37.3127 108.207 37.1581 108.207 37.0036 108.053ZM74.5596 83.1699L37.9309 104.343V106.662L74.5596 85.4881V83.1699Z" fill="#184B7E"/>
<path d="M28.5032 88.2702C30.5124 87.652 29.7397 89.6612 29.7397 94.1432C29.7397 98.6252 30.9761 99.0889 30.3579 104.035C29.7397 108.826 25.4122 112.689 23.2485 111.762C20.9302 110.835 20.7757 106.353 21.2393 103.88C22.0121 100.325 26.8032 97.5433 26.8032 97.5433C26.8032 97.5433 25.4122 89.3521 28.5032 88.2702Z" fill="#C9E7E8"/>
<path d="M22.7848 112.226C20.1575 111.144 19.8484 106.507 20.4666 103.571C21.2393 100.325 24.794 97.8524 25.8759 97.0796C25.7213 95.225 25.1031 88.5793 28.1941 87.652C28.6578 87.4974 29.276 87.3429 29.7397 87.652C30.3579 88.1156 30.3579 89.1975 30.2033 90.8976C30.2033 91.6703 30.0488 92.7522 30.0488 93.834C30.0488 95.6887 30.2033 96.7705 30.5124 97.8524C30.8215 99.3979 31.1306 100.789 30.667 103.725C30.2033 107.435 27.7305 110.371 25.7213 111.453C24.9486 111.917 24.3303 112.071 23.7121 112.071C23.403 112.38 23.0939 112.38 22.7848 112.226ZM28.6578 88.8884C26.8032 89.5066 26.8032 94.4522 27.1123 97.5433C27.1123 97.8524 26.9577 98.0069 26.8032 98.1615C26.8032 98.1615 22.3212 100.789 21.5484 104.034C20.9302 106.662 21.3939 110.526 23.0939 111.298C23.5576 111.453 24.3303 111.298 25.1031 110.835C26.9577 109.753 28.9669 107.125 29.4306 103.88C29.7397 101.253 29.5851 99.8616 29.276 98.4706C29.1215 97.3887 28.8123 96.1523 28.8123 94.1431C28.8123 92.9067 28.8123 91.9794 28.9669 91.0521C28.9669 90.1248 29.1215 88.8884 28.9669 88.7338C28.9669 88.7338 28.8123 88.7338 28.6578 88.8884Z" fill="#184B7E"/>
<path d="M24.1758 96.1522C25.4122 94.2976 26.6486 95.534 26.4941 99.2433C26.4941 102.953 25.1031 103.571 24.1758 102.025C23.2485 100.325 22.9394 97.8523 24.1758 96.1522Z" fill="#C9E7E8"/>
<path d="M23.7121 102.334C22.6303 100.634 22.3212 98.0069 23.7121 95.8432C24.4849 94.6068 25.2577 94.6068 25.7213 94.7614C26.9577 95.0705 27.2668 97.3887 27.2668 99.2434C27.2668 101.562 26.6486 103.107 25.7213 103.416C25.5668 103.416 25.5668 103.416 25.4122 103.416C24.794 103.416 24.1758 103.107 23.7121 102.334ZM24.6395 96.4614C23.5576 98.1615 23.8667 100.325 24.6395 101.716C24.9486 102.18 25.1031 102.334 25.2577 102.18C25.4122 102.18 26.0304 101.562 26.0304 99.2434C26.0304 96.616 25.4122 95.8432 25.4122 95.8432C25.2577 95.8432 24.9486 95.9978 24.6395 96.4614Z" fill="#184B7E"/>
<path d="M21.5484 99.5525C22.7848 97.5433 24.0212 98.7797 24.0212 102.489C24.0212 106.198 22.6303 106.816 21.703 105.271C20.6211 103.725 20.4666 101.253 21.5484 99.5525Z" fill="#C9E7E8"/>
<path d="M21.2393 105.58C20.1575 104.034 19.8484 101.252 21.0848 99.2432C21.8575 98.0068 22.6303 98.0068 23.0939 98.1614C24.3303 98.4705 24.6395 100.789 24.6395 102.489C24.6395 104.807 24.1758 106.353 23.0939 106.662C22.9394 106.662 22.9394 106.662 22.7848 106.662C22.3212 106.662 21.703 106.353 21.2393 105.58ZM22.0121 99.8614C20.9302 101.562 21.2393 103.725 22.1666 104.962C22.4757 105.425 22.6303 105.425 22.7848 105.425C22.9394 105.425 23.5576 104.653 23.5576 102.489C23.5576 100.016 22.9394 99.2432 22.7848 99.2432C22.6303 99.0887 22.4757 99.2432 22.0121 99.8614Z" fill="#184B7E"/>
<path d="M28.9669 104.962L27.5759 102.643C27.5759 102.643 25.8759 104.962 24.1758 105.425C22.4757 105.889 22.6303 104.498 25.1031 100.943C27.5759 97.3887 28.1941 96.7705 29.8942 99.8615L28.9669 104.962Z" fill="#C9E7E8"/>
<path d="M23.5576 106.044C23.7121 106.044 24.0212 106.044 24.1758 105.889C25.4122 105.58 26.6486 104.344 27.4214 103.571L28.3487 105.271C28.5032 105.58 28.8123 105.58 29.1214 105.425C29.4305 105.271 29.4306 104.962 29.276 104.653L27.885 102.334C27.7305 102.18 27.5759 102.025 27.4214 102.025C27.2668 102.025 27.1123 102.025 26.9577 102.18C26.4941 102.798 25.1031 104.344 23.8667 104.653C23.5576 104.807 23.403 104.653 23.403 104.653C23.403 104.653 23.403 104.034 25.4122 101.098C26.185 100.016 27.2668 98.316 27.885 98.316C28.0396 98.316 28.5032 98.6251 29.276 100.016C29.4306 100.325 29.7397 100.325 30.0488 100.325C30.3579 100.171 30.3579 99.8615 30.2033 99.5524C29.4305 98.1614 28.8123 97.3887 27.885 97.2341C26.8032 97.2341 25.8759 98.4705 24.4849 100.48C22.1666 103.88 22.1666 104.807 22.4757 105.425C22.7848 105.889 23.0939 106.044 23.5576 106.044Z" fill="#184B7E"/>
<path d="M82.1327 76.9881C82.7509 77.2972 83.8327 77.9154 84.6055 78.2245C87.542 73.897 88.1602 65.7058 88.1602 65.7058C88.9329 65.3967 89.7057 65.0876 90.3239 64.6239C98.3606 59.9874 104.852 49.787 104.852 42.0594C104.852 39.8957 105.934 37.7319 104.697 36.6501C103.77 35.8773 102.07 35.1046 101.142 34.6409C98.5151 33.2499 94.6513 33.7136 90.3239 36.1864C82.2872 40.823 75.796 51.0234 75.796 58.751C75.796 61.6875 76.7233 63.8512 78.1143 65.2421C79.1962 66.1695 82.1327 67.5604 82.1327 67.5604V76.9881Z" fill="#6EB3BC"/>
<path d="M84.4509 78.8425H84.2964C83.8327 78.688 83.2145 78.3788 82.7509 78.0697C82.4418 77.9152 82.1327 77.7606 81.8236 77.6061C81.669 77.4515 81.5144 77.297 81.5144 77.1424V68.0239C80.7417 67.7148 78.578 66.6329 77.8052 65.8602C76.1051 64.3146 75.1778 61.9964 75.1778 59.0599C75.1778 51.0232 81.8236 40.6682 90.0148 35.8771C94.3422 33.4043 98.5151 32.7861 101.452 34.3316C101.606 34.4862 101.915 34.4862 102.224 34.6407C103.152 35.1044 104.388 35.7226 105.161 36.3408C106.243 37.2681 105.934 38.6591 105.779 40.2046C105.625 40.8228 105.625 41.5955 105.625 42.2138C105.625 50.2504 98.9788 60.6054 90.7875 65.3965C90.1693 65.7056 89.3966 66.1693 88.7784 66.4784C88.6238 68.1784 87.8511 74.9787 85.0691 78.9971C84.9146 78.6879 84.76 78.8425 84.4509 78.8425ZM82.7509 76.6788C82.9054 76.8333 83.2145 76.8333 83.3691 76.9879C83.6782 77.1424 83.9873 77.297 84.2964 77.4515C86.9238 73.2786 87.542 65.7056 87.542 65.5511C87.542 65.3965 87.6965 65.0874 87.8511 65.0874C88.6238 64.7783 89.242 64.4692 90.0148 64.0055C97.8969 59.5235 104.234 49.4777 104.234 41.9046C104.234 41.1319 104.388 40.3591 104.388 39.7409C104.543 38.5045 104.697 37.4227 104.234 36.959C103.461 36.3408 102.379 35.8771 101.452 35.4135C101.143 35.2589 100.988 35.1044 100.679 35.1044C98.0515 33.868 94.3422 34.3316 90.3239 36.6499C82.4418 41.1319 76.1051 51.1777 76.1051 58.7508C76.1051 61.3782 76.8779 63.3873 78.2689 64.7783C79.0416 65.5511 81.3599 66.6329 82.1327 66.942C82.2872 67.0966 82.4418 67.2511 82.4418 67.4057L82.7509 76.6788Z" fill="#184B7E"/>
<path d="M84.4509 78.2244C88.7784 73.5878 90.4785 66.9421 90.4785 66.9421C91.2512 66.633 92.024 66.3239 92.6422 65.8602C100.679 61.2237 107.17 51.0233 107.17 43.2957C107.17 35.4136 100.679 32.9407 92.6422 37.5773C84.6055 42.2138 78.1143 52.4142 78.1143 60.1418C78.1143 65.0875 80.5872 67.8694 84.4509 68.1785V78.2244Z" fill="white"/>
<path d="M84.4509 78.8426H84.2964C84.1418 78.688 83.9873 78.5335 83.9873 78.3789V68.7967C79.9689 68.1785 77.6507 65.0875 77.6507 60.2964C77.6507 52.2597 84.2964 41.9047 92.4876 37.1136C96.9696 34.4862 101.297 34.0226 104.234 35.7227C106.706 37.1136 107.943 39.8955 107.943 43.4502C107.943 51.4869 101.297 61.8419 93.1058 66.633C92.4876 67.0966 91.7149 67.4057 91.0967 67.7148C90.7876 69.1058 89.0875 74.8242 85.0691 78.9971C84.76 78.688 84.6055 78.8426 84.4509 78.8426ZM100.061 35.7227C97.8969 35.7227 95.4241 36.4954 92.9513 37.8864C85.0692 42.3684 78.7325 52.4142 78.7325 59.9873C78.7325 64.4693 80.8963 67.0966 84.6055 67.4057C84.9146 67.4057 85.0691 67.7149 85.0691 68.024V76.6788C88.4693 72.3514 89.8603 66.7875 89.8603 66.7875C89.8603 66.633 90.0148 66.4784 90.1694 66.3239C90.9421 66.0148 91.5603 65.7057 92.3331 65.242C100.215 60.76 106.552 50.7142 106.552 43.1411C106.552 40.0501 105.47 37.5773 103.461 36.4954C102.533 35.8772 101.452 35.7227 100.061 35.7227Z" fill="#184B7E"/>
<path d="M98.9788 42.2139L91.8694 53.9598L87.0783 52.5688L84.76 56.5872L89.3966 57.9781L92.9513 59.06L102.533 43.2957L98.9788 42.2139Z" fill="#6EB3BC" stroke="#184B7E" stroke-width="0.931947" stroke-miterlimit="10"/>
</g>
<defs>
<clipPath id="clip0_5_611">
<rect width="200.763" height="295.812" fill="white" transform="translate(0.374817 0.794067)"/>
</clipPath>
</defs>
</svg>
