<svg width="291" height="296" viewBox="0 0 291 296" fill="none" xmlns="http://www.w3.org/2000/svg">
<g clip-path="url(#clip0_63_3)">
<path opacity="0.5" d="M140.751 191.733L72.7479 152.477C78.4664 152.013 84.4939 151.704 89.5941 148.922C99.0217 143.513 97.4762 137.794 90.2123 133.622C84.803 130.531 77.3845 129.603 69.8115 130.221L69.5024 136.867C73.5207 136.713 76.9208 136.867 79.3937 138.413C82.1756 139.958 82.3302 142.122 78.93 143.977C72.9025 147.377 58.3746 144.286 48.7924 151.395L53.7381 154.177L49.1015 156.804C48.947 156.65 48.7924 156.65 48.6379 156.495C45.0832 154.486 39.3648 154.795 35.1919 157.268C31.019 159.586 30.4008 162.986 33.9555 164.996C34.11 165.15 34.4191 165.15 34.5737 165.305C31.9463 167.159 31.7918 169.787 34.4191 171.332L79.3937 197.297L65.0204 205.643C65.0204 205.643 70.4297 208.888 78.93 208.734C84.1848 208.579 89.285 206.57 92.6851 205.024L105.358 212.443C108.14 214.143 113.24 213.834 116.486 211.979L139.823 198.533C143.378 196.215 143.687 193.433 140.751 191.733Z" fill="#93BFCB"/>
<path opacity="0.5" d="M85.1121 244.281L14.6365 203.634C7.83627 199.77 8.76358 192.815 16.4912 188.333L189.28 88.8017C197.162 84.3197 209.063 83.856 215.708 87.7198L286.338 128.367C293.139 132.231 292.211 139.185 284.484 143.667L111.54 243.199C103.813 247.681 91.9124 248.144 85.1121 244.281Z" fill="#93BFCB"/>
<path d="M284.175 133.003V121.876L16.8003 183.387V194.515C16.8003 196.833 18.1912 199.152 20.9732 200.852L86.3485 238.562C92.6851 242.117 103.658 241.653 110.922 237.48L278.302 140.886C282.166 138.722 284.175 135.785 284.175 133.003Z" fill="#6EB3BC"/>
<path d="M97.0126 241.653C92.8397 241.653 88.9759 240.881 86.0394 239.18L20.6641 201.315C17.7276 199.615 16.0275 197.142 16.1821 194.515V183.387H17.4185V194.515C17.4185 196.679 18.8094 198.843 21.2823 200.233L86.5031 238.099C92.6852 241.653 103.349 241.19 110.459 237.017L277.838 140.422C281.393 138.413 283.402 135.785 283.556 133.158V133.003V121.876C283.556 121.567 283.866 121.258 284.175 121.258C284.484 121.258 284.793 121.567 284.793 121.876V133.003V133.158C284.793 136.249 282.475 139.34 278.456 141.658L111.077 238.099C107.058 240.417 101.804 241.653 97.0126 241.653Z" fill="#184B7E"/>
<path d="M86.3485 227.744L20.9732 190.033C14.6365 186.478 15.5639 179.987 22.6732 175.814L190.053 79.2195C197.317 75.0467 208.29 74.583 214.626 78.1377L280.002 116.003C286.338 119.558 285.411 126.049 278.302 130.222L110.768 226.816C103.658 230.989 92.5306 231.453 86.3485 227.744Z" fill="white"/>
<path d="M97.0126 230.835C92.8397 230.835 88.9759 230.062 86.0394 228.362L20.664 190.497C17.7276 188.951 16.182 186.478 16.182 183.851C16.182 180.76 18.5003 177.669 22.5187 175.351L189.898 78.7559C197.317 74.4284 208.599 73.9648 214.935 77.674L280.311 115.385C283.247 117.085 284.793 119.403 284.793 122.03C284.793 125.121 282.475 128.212 278.456 130.531L111.077 227.28C107.058 229.598 101.804 230.835 97.0126 230.835ZM203.962 76.4376C199.171 76.4376 194.226 77.5194 190.362 79.8377L22.9823 176.433C19.4276 178.596 17.2639 181.224 17.2639 184.006C17.2639 186.169 18.6549 188.178 21.1277 189.724L86.503 227.28C92.6851 230.835 103.349 230.371 110.459 226.198L277.838 129.603C281.393 127.44 283.556 124.812 283.556 122.03C283.556 119.867 282.165 117.857 279.693 116.312L214.317 78.6013C211.535 77.2103 207.826 76.4376 203.962 76.4376Z" fill="#184B7E"/>
<path d="M32.7191 170.096L190.053 79.2196L278.147 130.067L120.814 220.943L32.7191 170.096Z" fill="#A2E0DC"/>
<path d="M120.814 221.562C120.659 221.562 120.659 221.562 120.504 221.562L32.41 170.714C32.2554 170.56 32.1009 170.405 32.1009 170.251C32.1009 170.096 32.2554 169.787 32.41 169.787L189.744 78.9105C189.898 78.7559 190.207 78.7559 190.362 78.9105L278.456 129.758C278.611 129.913 278.765 130.067 278.765 130.222C278.765 130.376 278.611 130.685 278.456 130.685L121.123 221.562C120.968 221.562 120.968 221.562 120.814 221.562ZM33.8009 170.096L120.814 220.325L277.065 130.067L190.053 79.8378L33.8009 170.096Z" fill="#184B7E"/>
<path d="M120.814 220.944V225.889L278.147 135.013V130.067L120.814 220.944Z" fill="#8ED1D3"/>
<path d="M120.814 226.507C120.659 226.507 120.659 226.507 120.504 226.507C120.35 226.353 120.195 226.198 120.195 226.044V221.098C120.195 220.943 120.35 220.634 120.504 220.634L277.838 129.758C277.993 129.603 278.302 129.603 278.456 129.758C278.611 129.913 278.765 130.067 278.765 130.222V135.167C278.765 135.322 278.611 135.631 278.456 135.631L121.123 226.353C120.968 226.507 120.968 226.507 120.814 226.507ZM121.432 221.407V224.962L277.683 134.704V131.149L121.432 221.407Z" fill="#184B7E"/>
<path d="M243.064 102.093C241.673 102.866 239.509 103.021 238.273 102.248C237.036 101.475 237.191 100.239 238.582 99.4658C239.973 98.6931 242.137 98.5385 243.373 99.3113C244.764 100.084 244.609 101.32 243.064 102.093Z" fill="#6EB3BC"/>
<path d="M240.437 103.329C239.509 103.329 238.736 103.175 238.118 102.711C237.345 102.248 237.036 101.629 237.036 101.011C237.036 100.238 237.5 99.4657 238.582 99.0021C240.127 98.0747 242.6 97.9202 243.991 98.8475C244.764 99.3112 245.073 99.9294 245.073 100.548C245.073 101.32 244.609 102.093 243.528 102.557C242.6 103.175 241.364 103.329 240.437 103.329ZM241.364 99.4657C240.437 99.4657 239.664 99.6203 238.891 100.084C238.273 100.393 237.964 100.857 237.964 101.166C237.964 101.475 238.273 101.784 238.582 101.939C239.664 102.557 241.518 102.402 242.755 101.784C243.373 101.475 243.682 101.011 243.682 100.702C243.682 100.393 243.373 100.084 243.064 99.9294C242.755 99.6203 241.982 99.4657 241.364 99.4657Z" fill="#184B7E"/>
<path d="M68.1114 207.961L55.2836 200.542C53.1199 199.306 53.429 197.142 55.9018 195.751C58.3747 194.36 62.0839 194.206 64.2476 195.442L77.0754 202.861C79.2391 204.097 78.93 206.261 76.4572 207.652C73.9844 209.043 70.2751 209.197 68.1114 207.961Z" fill="#C9E7E8"/>
<path d="M71.6661 209.352C70.2751 209.352 68.7296 209.043 67.8023 208.425L54.9745 201.006C53.8927 200.388 53.2744 199.461 53.2744 198.379C53.2744 197.142 54.0472 196.06 55.5927 195.133C58.2201 193.588 62.2384 193.433 64.5567 194.824L77.3845 202.243C78.4664 202.861 79.0846 203.788 79.0846 204.87C79.0846 206.106 78.3118 207.188 76.7663 208.116C75.2208 209.043 73.5207 209.352 71.6661 209.352ZM68.4205 207.497C70.4297 208.579 73.9844 208.425 76.1481 207.188C77.23 206.57 77.8482 205.797 77.8482 205.024C77.8482 204.252 77.23 203.788 76.7663 203.479L63.9385 196.061C61.9293 194.979 58.3746 195.133 56.2109 196.37C55.1291 196.988 54.5109 197.761 54.5109 198.533C54.5109 199.306 55.1291 199.77 55.5927 200.079L68.4205 207.497Z" fill="#184B7E"/>
<path d="M210.144 106.421L178.616 102.248C178.307 102.248 178.152 101.939 178.152 101.629C178.152 101.32 178.461 101.166 178.77 101.166L210.144 105.339C210.454 105.339 210.608 105.648 210.608 105.957C210.763 106.266 210.454 106.421 210.144 106.421Z" fill="white"/>
<path d="M202.262 110.439L179.698 107.657C179.389 107.657 179.08 107.348 179.234 107.039C179.234 106.73 179.543 106.421 179.852 106.575L202.417 109.357C202.726 109.357 203.035 109.666 202.88 109.975C202.88 110.284 202.571 110.439 202.262 110.439Z" fill="white"/>
<path d="M150.951 103.948C150.024 102.557 150.333 100.702 151.569 99.775L167.952 87.8745C169.343 86.9472 171.197 87.2563 172.125 88.4927C173.052 89.8837 172.743 91.7383 171.506 92.6656L155.279 104.566C153.888 105.493 152.033 105.184 150.951 103.948Z" fill="#A2E0DC"/>
<path d="M153.424 105.802C152.342 105.802 151.26 105.339 150.487 104.257C149.251 102.711 149.715 100.393 151.26 99.1567L167.643 87.2562C168.415 86.638 169.343 86.4835 170.27 86.638C171.197 86.7926 172.125 87.2562 172.588 88.029C173.825 89.5745 173.361 91.8928 171.816 93.1292L155.433 105.03C154.969 105.493 154.197 105.802 153.424 105.802ZM151.415 103.639C152.188 104.721 153.733 105.03 154.815 104.257L171.197 92.3564C172.279 91.5837 172.588 90.0382 171.816 88.9563C171.507 88.4926 170.888 88.029 170.27 88.029C169.652 87.8744 169.034 88.029 168.415 88.4926L152.033 100.393C150.951 101.011 150.642 102.402 151.415 103.639Z" fill="#184B7E"/>
<path d="M135.651 86.3289C136.887 85.0925 138.742 85.0925 139.978 86.3289L154.351 100.548C155.588 101.784 155.588 103.639 154.351 104.875C153.115 106.112 151.26 106.112 150.024 104.875L135.651 90.6564C134.569 89.42 134.569 87.5653 135.651 86.3289Z" fill="#A2E0DC"/>
<path d="M152.188 106.421C151.26 106.421 150.333 106.112 149.715 105.339L135.341 91.1201C133.95 89.7291 133.95 87.4108 135.341 86.0199C135.96 85.4016 136.887 84.938 137.814 84.938C138.742 84.938 139.669 85.2471 140.442 86.0199L154.815 100.239C156.206 101.63 156.206 103.948 154.815 105.339C154.042 105.957 153.115 106.421 152.188 106.421ZM137.814 86.0199C137.196 86.0199 136.578 86.329 136.114 86.7926C135.187 87.7199 135.187 89.2654 136.114 90.1927L150.487 104.412C151.415 105.339 152.96 105.339 153.888 104.412C154.815 103.484 154.815 101.939 153.888 101.011L139.514 86.7926C139.051 86.329 138.432 86.0199 137.814 86.0199Z" fill="#184B7E"/>
<path d="M220.654 82.6196H168.415C155.897 106.73 157.906 128.521 157.906 128.521C157.906 139.186 174.288 147.995 194.535 147.995C214.781 147.995 231.163 139.34 231.163 128.521C231.318 128.521 233.173 106.73 220.654 82.6196Z" fill="#C9E7E8"/>
<path d="M194.689 148.459C174.134 148.459 157.442 139.495 157.442 128.522C157.442 128.367 155.588 106.266 168.106 82.3107C168.261 82.0016 168.57 81.847 168.879 82.0015C169.188 82.1561 169.343 82.4652 169.188 82.7743C156.824 106.421 158.679 128.212 158.679 128.367C158.679 138.722 174.907 147.222 194.689 147.222C214.626 147.222 230.7 138.722 230.7 128.367C230.7 128.058 232.554 106.421 220.19 82.7743C220.036 82.4652 220.19 82.1561 220.499 82.0015C220.808 81.847 221.118 82.0016 221.272 82.3107C233.791 106.266 231.936 128.212 231.936 128.522C231.782 139.495 215.09 148.459 194.689 148.459Z" fill="#184B7E"/>
<path d="M199.171 105.493C190.98 105.493 181.552 104.72 173.207 101.011C166.715 98.0746 163.624 93.5927 163.624 93.5927C163.624 93.5927 161.152 101.32 160.533 103.948C159.761 106.884 158.37 116.157 158.37 116.157C158.37 116.157 160.224 122.648 168.57 126.976C179.543 132.694 190.98 133.776 198.553 133.003C203.344 132.54 203.499 126.667 203.653 119.403C203.653 109.357 204.271 105.493 199.171 105.493Z" fill="white"/>
<path d="M194.071 133.931C188.198 133.931 178.307 133.004 168.415 127.594C159.915 123.112 158.06 116.621 157.906 116.312C157.906 116.157 157.906 116.157 157.906 116.003C157.906 115.694 159.297 106.73 160.07 103.639C160.688 101.011 163.161 93.5928 163.161 93.2837C163.161 93.1292 163.47 92.9746 163.624 92.8201C163.779 92.8201 164.088 92.8201 164.243 93.1292C164.243 93.1292 167.334 97.4566 173.516 100.393C182.325 104.411 192.371 104.875 199.171 104.875C200.871 104.875 201.953 105.184 202.726 106.112C204.426 107.812 204.271 110.903 204.271 116.776C204.271 117.703 204.271 118.63 204.271 119.558C204.271 126.203 204.271 133.158 198.708 133.776C197.626 133.776 196.08 133.931 194.071 133.931ZM158.988 116.157C159.297 117.085 161.461 122.649 168.879 126.512C182.016 133.467 194.844 132.849 198.553 132.54C202.726 132.076 203.035 127.131 203.035 119.403C203.035 118.476 203.035 117.548 203.035 116.621C203.035 111.366 203.19 108.121 201.799 106.884C201.18 106.266 200.408 106.112 199.017 106.112C192.062 106.112 181.861 105.648 172.897 101.63C167.952 99.4658 165.015 96.3748 163.779 94.9838C163.006 97.1475 161.461 102.248 160.997 104.257C160.379 106.884 159.142 115.076 158.988 116.157Z" fill="#184B7E"/>
<path d="M167.488 75.201V78.6012C167.488 86.4833 179.698 92.9745 194.689 92.9745C209.681 92.9745 221.89 86.4833 221.89 78.6012V75.201H167.488Z" fill="#A2E0DC"/>
<path d="M194.689 93.5927C179.389 93.5927 166.87 86.947 166.87 78.6012V75.2011C166.87 74.892 167.179 74.5829 167.488 74.5829C167.797 74.5829 168.106 74.892 168.106 75.2011V78.6012C168.106 86.1743 180.007 92.3563 194.689 92.3563C209.372 92.3563 221.272 86.1743 221.272 78.6012V75.2011C221.272 74.892 221.581 74.5829 221.89 74.5829C222.199 74.5829 222.509 74.892 222.509 75.2011V78.6012C222.354 86.7925 209.99 93.5927 194.689 93.5927Z" fill="#184B7E"/>
<path d="M221.736 75.3556V75.2011C221.736 74.892 221.736 74.7374 221.736 74.4283C220.963 60.055 209.217 48.6182 194.689 48.6182C180.161 48.6182 168.261 60.055 167.643 74.4283C167.643 74.5828 167.643 74.892 167.643 75.0465V75.2011C167.643 75.3556 167.643 75.5102 167.643 75.5102C168.261 83.2377 180.161 89.2653 194.689 89.2653C209.372 89.2653 221.272 83.0832 221.736 75.5102C221.736 75.6647 221.736 75.5102 221.736 75.3556Z" fill="white"/>
<path d="M194.689 90.0381C179.852 90.0381 167.797 83.856 167.025 75.9739C167.025 75.8193 167.025 75.8193 167.025 75.6648C167.025 75.5102 167.025 75.5102 167.025 75.3556C167.025 75.2011 167.025 75.0465 167.025 75.0465C167.025 74.892 167.025 74.7374 167.025 74.5829V74.4283C167.643 59.5914 179.852 48 194.689 48C209.526 48 221.581 59.5914 222.354 74.4283V74.5829C222.354 74.7374 222.354 74.892 222.354 75.2011V75.3556H221.736H222.354V75.5102V75.6648C222.354 75.8193 222.354 75.8193 222.354 75.9739C221.427 83.856 209.372 90.0381 194.689 90.0381ZM168.106 75.5102V75.6648C168.725 82.9287 180.625 88.9562 194.689 88.9562C208.753 88.9562 220.654 82.9287 221.272 75.6648V75.5102V75.3556V75.2011C221.272 75.0465 221.272 74.892 221.272 74.7374V74.4283C220.499 60.2096 208.908 49.0819 194.689 49.0819C180.471 49.0819 168.879 60.2096 168.106 74.4283V74.7374C168.106 74.892 168.106 75.0465 168.106 75.0465C168.106 75.2011 168.106 75.2011 168.106 75.2011V75.5102Z" fill="#184B7E"/>
<path d="M194.689 50.7817C189.744 50.7817 185.725 52.9455 185.725 55.5728C185.725 58.2002 189.744 60.3639 194.689 60.3639C199.635 60.3639 203.653 58.2002 203.653 55.5728C203.653 52.9455 199.635 50.7817 194.689 50.7817Z" fill="#A2E0DC"/>
<path d="M194.689 60.9823C189.28 60.9823 185.107 58.664 185.107 55.7275C185.107 52.7911 189.28 50.4728 194.689 50.4728C200.099 50.4728 204.271 52.7911 204.271 55.7275C204.117 58.5095 199.944 60.9823 194.689 60.9823ZM194.689 51.4001C190.207 51.4001 186.343 53.2547 186.343 55.573C186.343 57.8913 190.207 59.7459 194.689 59.7459C199.171 59.7459 203.035 57.8913 203.035 55.573C203.035 53.2547 199.171 51.4001 194.689 51.4001Z" fill="#184B7E"/>
<path d="M180.007 65.6189C179.08 64.0734 176.761 64.3825 175.37 65.1552C172.897 66.5462 171.816 68.2463 170.579 70.7191C170.116 71.6464 170.888 72.7283 171.661 71.3373C172.434 69.9463 174.443 64.8461 178.307 65.928C179.698 66.3916 178.461 70.41 178.307 70.8736C178.152 71.6464 176.143 77.5194 175.525 78.7558C175.216 79.374 176.143 80.1467 176.607 79.2194C177.07 78.4467 179.08 73.1919 179.698 69.4827C180.161 68.4008 180.625 66.3916 180.007 65.6189Z" fill="#184B7E"/>
<path d="M192.68 72.8827C192.216 71.3372 191.289 69.328 189.28 69.1735C187.116 69.0189 185.88 71.3372 185.107 72.8827C184.025 75.3556 182.789 78.7557 182.325 82.1558C182.171 82.9286 183.098 83.3922 183.407 82.4649C183.871 80.3012 186.034 69.1735 189.898 70.8736C191.753 71.6463 192.062 75.0464 192.216 76.7465C192.525 78.9102 192.525 81.6922 192.371 83.8559C192.216 84.6287 193.298 84.6287 193.453 83.8559C193.916 80.3012 193.762 76.1283 192.68 72.8827Z" fill="#184B7E"/>
<path d="M215.708 77.674C215.708 79.2195 214.781 81.0741 213.545 81.8469C212.308 82.6196 211.381 81.8469 211.381 80.1468C211.381 78.4467 212.308 76.7467 213.545 75.9739C214.781 75.3557 215.708 76.1285 215.708 77.674Z" fill="#6EB3BC"/>
<path d="M212.772 82.7742C212.463 82.7742 212.154 82.7742 211.999 82.6196C211.381 82.3105 210.917 81.3832 210.917 80.3013C210.917 78.4467 211.999 76.4375 213.39 75.6648C214.163 75.2011 214.781 75.2011 215.399 75.5102C216.017 75.8193 216.481 76.7466 216.481 77.8285C216.481 79.6831 215.399 81.6923 214.008 82.4651C213.545 82.6196 213.081 82.7742 212.772 82.7742ZM214.472 76.4375C214.317 76.4375 214.008 76.5921 213.854 76.5921C212.772 77.2103 211.999 78.9104 211.999 80.3013C211.999 80.9195 212.154 81.3832 212.463 81.5377C212.772 81.6923 213.081 81.5377 213.235 81.3832C214.317 80.765 215.09 79.0649 215.09 77.674C215.09 77.0557 214.936 76.5921 214.626 76.4375H214.472Z" fill="#184B7E"/>
<path d="M194.689 143.204C174.134 143.204 157.442 134.24 157.442 123.267C157.442 122.958 157.751 122.649 158.06 122.649C158.37 122.649 158.679 122.958 158.679 123.267C158.679 133.622 174.907 142.122 194.844 142.122C214.781 142.122 230.854 133.622 230.854 123.267C230.854 122.958 231.163 122.649 231.473 122.649C231.782 122.649 232.091 122.958 232.091 123.267C231.782 134.24 215.09 143.204 194.689 143.204Z" fill="#184B7E"/>
<path d="M180.316 127.749C180.161 125.276 180.316 122.803 180.316 122.803C183.252 122.339 185.416 120.794 186.343 118.475C188.044 114.148 184.489 108.893 178.461 106.42C172.434 103.948 166.252 105.493 164.552 109.821C162.852 114.148 166.406 119.403 172.434 121.876C173.516 122.339 174.443 122.648 175.525 122.803C175.37 122.648 177.07 127.285 180.316 127.749Z" fill="#A2E0DC"/>
<path d="M180.316 128.367C177.225 127.903 175.37 124.349 174.907 123.267C173.979 123.112 173.052 122.803 172.125 122.339C169.034 121.103 166.561 119.094 165.015 116.776C163.47 114.303 163.006 111.83 163.933 109.512C164.861 107.348 166.87 105.648 169.652 105.03C172.434 104.411 175.525 104.721 178.616 105.802C184.952 108.275 188.662 113.994 186.807 118.63C185.88 120.949 183.716 122.649 180.78 123.267C180.78 124.04 180.78 125.894 180.934 127.749C180.934 127.903 180.934 128.058 180.78 128.212C180.625 128.212 180.47 128.367 180.316 128.367ZM172.743 105.802C171.816 105.802 170.888 105.957 169.961 106.112C167.488 106.73 165.788 108.121 165.015 109.975C164.243 111.83 164.552 113.994 165.943 116.157C167.334 118.321 169.652 120.176 172.434 121.258C173.361 121.567 174.443 121.876 175.37 122.185C175.525 122.185 175.679 122.339 175.834 122.494C175.834 122.494 177.225 126.049 179.543 126.976C179.389 124.812 179.543 122.803 179.543 122.649C179.543 122.339 179.852 122.03 180.161 122.03C182.943 121.567 184.952 120.176 185.725 118.012C187.271 113.994 183.871 109.048 178.152 106.73C176.452 106.112 174.598 105.802 172.743 105.802Z" fill="#184B7E"/>
<path d="M170.27 111.83C170.27 112.603 169.652 113.221 168.879 113.221C168.106 113.221 167.488 112.603 167.488 111.83C167.488 111.057 168.106 110.439 168.879 110.439C169.652 110.284 170.27 110.902 170.27 111.83Z" fill="#184B7E"/>
<path d="M182.325 116.157C182.325 116.93 181.707 117.548 180.934 117.548C180.161 117.548 179.543 116.93 179.543 116.157C179.543 115.384 180.161 114.766 180.934 114.766C181.707 114.766 182.325 115.23 182.325 116.157Z" fill="#184B7E"/>
<path d="M175.834 114.303C175.834 115.075 175.216 115.694 174.443 115.694C173.67 115.694 173.052 115.075 173.052 114.303C173.052 113.53 173.67 112.912 174.443 112.912C175.216 112.912 175.834 113.53 175.834 114.303Z" fill="#184B7E"/>
<path d="M224.672 109.203C224.672 114.148 221.427 118.167 217.408 118.167C213.39 118.167 210.144 114.148 210.144 109.203C210.144 104.257 213.39 100.239 217.408 100.239C221.427 100.084 224.672 104.102 224.672 109.203Z" fill="white"/>
<path d="M217.408 118.785C213.081 118.785 209.526 114.457 209.526 109.203C209.526 103.948 213.081 99.6204 217.408 99.6204C221.736 99.6204 225.291 103.948 225.291 109.203C225.291 114.457 221.736 118.785 217.408 118.785ZM217.408 100.702C213.699 100.702 210.763 104.411 210.763 109.203C210.763 113.839 213.699 117.703 217.408 117.703C221.118 117.703 224.054 113.994 224.054 109.203C224.209 104.411 221.118 100.702 217.408 100.702Z" fill="#184B7E"/>
<path d="M220.345 130.067C218.645 130.222 217.254 128.985 217.099 127.285L215.554 107.039C215.399 105.339 216.636 103.948 218.336 103.793C220.036 103.639 221.427 104.875 221.581 106.575L223.127 126.821C223.281 128.521 222.045 129.912 220.345 130.067Z" fill="#A2E0DC"/>
<path d="M220.036 130.685C218.181 130.685 216.636 129.294 216.481 127.285L214.936 107.039C214.936 106.111 215.245 105.184 215.863 104.411C216.481 103.639 217.408 103.175 218.336 103.175C219.263 103.175 220.19 103.484 220.963 104.102C221.736 104.72 222.199 105.648 222.199 106.575L223.745 126.821C223.9 128.831 222.354 130.531 220.499 130.685C220.345 130.685 220.19 130.685 220.036 130.685ZM218.645 104.411H218.49C217.872 104.411 217.254 104.72 216.79 105.184C216.327 105.648 216.172 106.266 216.172 106.884L217.717 127.13C217.872 128.521 218.954 129.449 220.345 129.449C221.736 129.294 222.663 128.212 222.663 126.821L221.118 106.575C221.118 105.957 220.809 105.339 220.345 104.875C219.727 104.566 219.108 104.411 218.645 104.411Z" fill="#184B7E"/>
<path d="M199.944 115.848C200.717 114.457 202.571 113.839 204.117 114.766L221.736 124.967C223.127 125.74 223.745 127.594 222.818 129.14C222.045 130.531 220.19 131.149 218.645 130.222L201.026 120.021C199.635 119.094 199.171 117.239 199.944 115.848Z" fill="#A2E0DC"/>
<path d="M220.19 130.994C219.572 130.994 218.954 130.84 218.336 130.531L200.871 120.33C199.171 119.403 198.553 117.085 199.48 115.385C199.944 114.612 200.717 113.994 201.644 113.684C202.571 113.375 203.499 113.53 204.426 113.994L222.045 124.194C222.818 124.658 223.436 125.43 223.745 126.358C224.054 127.285 223.9 128.212 223.436 129.14C222.663 130.376 221.427 130.994 220.19 130.994ZM200.562 116.157C199.944 117.394 200.253 118.785 201.49 119.557L218.954 129.758C220.19 130.376 221.581 130.067 222.354 128.831C222.663 128.212 222.818 127.594 222.663 126.976C222.509 126.358 222.045 125.74 221.581 125.43L203.962 115.23C203.344 114.921 202.726 114.766 202.108 114.921C201.335 115.075 200.871 115.539 200.562 116.157Z" fill="#184B7E"/>
<path d="M203.19 104.72C201.644 102.557 200.408 103.948 200.408 105.802C200.253 107.657 200.562 111.212 200.562 111.212C200.562 111.212 197.935 102.866 194.844 103.484C191.907 104.102 194.844 107.039 195.462 108.43C196.08 109.821 196.698 111.83 196.698 111.83C196.698 111.83 191.598 105.339 189.744 107.193C188.507 108.43 190.516 110.13 191.907 111.366C193.144 112.448 194.071 113.066 194.535 114.148C194.689 114.457 188.507 112.293 188.507 114.303C188.507 115.23 189.434 117.085 192.989 118.63C194.535 119.248 195.617 120.485 195.926 120.794C197.471 122.494 202.108 123.421 203.344 120.794C205.662 116.003 204.89 106.884 203.19 104.72Z" fill="white"/>
<path d="M200.253 122.803C198.553 122.803 196.544 122.03 195.617 120.948C195.307 120.639 194.38 119.557 192.989 118.939C188.507 117.085 188.044 114.921 188.044 114.148C188.044 113.684 188.198 113.375 188.507 113.066C189.435 112.293 191.444 112.757 193.453 113.221C193.144 112.912 192.835 112.603 192.371 112.293C192.062 112.139 191.907 111.83 191.598 111.675L191.444 111.521C190.207 110.439 188.816 109.202 188.816 107.966C188.816 107.502 188.971 107.039 189.435 106.73C189.744 106.42 190.207 106.266 190.825 106.266C192.216 106.42 193.917 107.811 195.307 109.202C195.307 109.048 195.153 108.893 195.153 108.739C194.998 108.43 194.844 108.121 194.535 107.657C193.762 106.575 192.835 105.184 193.298 104.102C193.607 103.484 194.071 103.175 194.998 102.866C197.008 102.402 198.862 105.184 200.099 107.657C200.099 106.884 200.099 106.111 200.099 105.648C200.253 104.257 200.717 103.175 201.644 103.02C202.108 102.866 203.035 103.02 204.117 104.411C205.972 106.884 206.744 116.157 204.271 120.948C203.808 122.03 202.726 122.648 201.335 122.803C200.717 122.803 200.408 122.803 200.253 122.803ZM189.898 113.993C189.589 113.993 189.28 113.993 189.125 114.148C189.125 114.612 189.28 116.312 193.298 118.012C194.844 118.63 195.926 119.866 196.389 120.176C197.317 121.257 199.326 121.876 200.871 121.567C201.49 121.412 202.417 121.103 202.881 120.33C205.199 115.848 204.271 107.039 202.881 105.029C202.262 104.257 201.953 104.102 201.799 104.102C201.49 104.257 201.18 104.875 201.18 105.648C201.026 107.502 201.335 111.057 201.335 111.057C201.335 111.366 201.18 111.675 200.871 111.675C200.562 111.675 200.253 111.521 200.253 111.212C199.48 108.584 197.162 103.484 195.307 103.948C194.998 103.948 194.535 104.102 194.535 104.411C194.38 105.029 195.153 106.111 195.617 106.884C195.926 107.348 196.235 107.657 196.389 108.121C197.008 109.511 197.626 111.521 197.626 111.521C197.78 111.83 197.626 112.139 197.317 112.139C197.008 112.293 196.698 112.139 196.544 111.984C195.153 110.13 192.371 107.348 190.98 107.193C190.671 107.193 190.671 107.193 190.516 107.348C190.362 107.502 190.362 107.657 190.362 107.811C190.362 108.584 191.753 109.821 192.526 110.593L192.68 110.748C192.989 111.057 193.144 111.212 193.453 111.366C194.38 112.139 195.153 112.757 195.462 113.839C195.462 113.993 195.462 114.303 195.307 114.457C194.998 114.766 194.844 114.766 193.762 114.457C192.68 114.303 190.98 113.993 189.898 113.993Z" fill="#184B7E"/>
<path d="M130.087 84.0103C129.623 86.6377 131.014 90.8106 134.105 91.4288C137.041 92.047 138.896 88.6469 139.205 80.9193C139.669 73.1917 140.596 69.1733 137.505 69.9461C134.414 70.5643 135.187 79.5283 135.187 79.5283C135.187 79.5283 130.705 80.9193 130.087 84.0103Z" fill="white"/>
<path d="M134.723 92.0471C134.414 92.0471 134.26 92.0471 133.95 92.0471C130.55 91.4288 129.159 86.7923 129.468 84.0104C129.932 81.0739 133.178 79.6829 134.414 79.2193C134.26 77.2101 134.105 70.1007 137.196 69.4825C138.123 69.328 138.742 69.4825 139.205 69.7916C140.287 70.7189 140.133 73.1917 139.823 77.2101C139.669 78.292 139.669 79.6829 139.514 81.0739C139.205 86.6377 138.278 90.0379 136.423 91.4288C136.114 91.8925 135.496 92.0471 134.723 92.0471ZM138.123 70.4098C137.969 70.4098 137.814 70.4098 137.66 70.4098C135.805 70.8735 135.496 76.1282 135.805 79.3738C135.805 79.6829 135.651 79.8375 135.341 79.992C135.341 79.992 131.169 81.2284 130.859 84.0104C130.55 86.3286 131.787 90.1924 134.414 90.6561C135.187 90.8106 135.651 90.6561 136.269 90.1924C137.351 89.4197 138.587 87.1014 138.896 80.6102C138.896 79.2193 139.051 77.8283 139.205 76.7464C139.514 73.5009 139.669 70.8735 138.896 70.2553C138.587 70.5644 138.432 70.4098 138.123 70.4098Z" fill="#184B7E"/>
<path d="M135.032 75.8193C135.032 75.8193 131.323 75.9739 131.787 80.6104C132.25 85.247 135.496 82.3105 135.187 79.5286C134.723 76.5921 135.032 75.8193 135.032 75.8193Z" fill="white"/>
<path d="M133.023 83.7013C132.869 83.7013 132.559 83.7013 132.405 83.5467C131.632 83.2376 131.169 82.3103 131.014 80.7648C130.859 79.0647 131.169 77.6737 132.096 76.7464C133.178 75.51 134.878 75.3555 134.878 75.3555C135.032 75.3555 135.341 75.51 135.341 75.6646C135.496 75.8191 135.496 75.9737 135.341 76.2828C135.341 76.2828 135.032 77.2101 135.496 79.6829C135.651 81.383 134.878 82.7739 134.105 83.5467C133.796 83.5467 133.487 83.7013 133.023 83.7013ZM134.26 76.5919C133.796 76.7464 133.332 77.0555 133.023 77.3646C132.405 78.1374 132.096 79.2193 132.25 80.6102C132.405 81.8466 132.714 82.3103 132.869 82.4648C133.023 82.6194 133.332 82.4648 133.487 82.3103C134.105 81.8466 134.569 80.7648 134.414 79.5284C134.26 78.1374 134.26 77.2101 134.26 76.5919Z" fill="#184B7E"/>
<path d="M131.632 77.2103C131.632 77.2103 127.923 77.3649 128.387 82.0014C128.85 86.638 132.096 83.7015 131.787 80.9196C131.323 77.9831 131.632 77.2103 131.632 77.2103Z" fill="white"/>
<path d="M129.778 85.0924C129.623 85.0924 129.314 85.0924 129.159 84.9378C128.387 84.6287 127.923 83.7014 127.768 82.1559C127.614 80.4558 127.923 79.0649 128.85 78.1375C129.932 76.9011 131.632 76.7466 131.632 76.7466C131.787 76.7466 132.096 76.9011 132.096 77.0557C132.25 77.2102 132.25 77.3648 132.096 77.6739C132.096 77.6739 131.787 78.6012 132.25 81.074C132.405 82.7741 131.632 84.1651 130.859 84.9378C130.55 84.9378 130.087 85.0924 129.778 85.0924ZM131.014 77.983C130.55 78.1375 130.087 78.4466 129.778 78.7558C129.159 79.5285 128.85 80.6104 129.005 82.0013C129.159 83.2378 129.468 83.7014 129.623 83.856C129.778 84.0105 130.087 83.856 130.241 83.7014C130.859 83.2378 131.323 82.1559 131.169 80.9195C131.014 79.5285 131.014 78.6012 131.014 77.983Z" fill="#184B7E"/>
<path d="M137.042 84.0104C137.042 84.0104 133.023 80.7648 129.623 82.6194C126.068 84.474 130.087 86.1741 130.859 86.3287C132.405 86.6378 133.487 87.1014 134.878 88.0287L137.042 84.0104Z" fill="white"/>
<path d="M134.878 88.6469C134.723 88.6469 134.569 88.6469 134.569 88.4923C133.178 87.565 132.096 87.1014 130.705 86.7923C130.241 86.6377 127.768 85.7104 127.614 84.3194C127.459 83.3921 128.077 82.7739 129.314 82.0012C133.023 80.1465 137.196 83.3921 137.351 83.5467C137.66 83.7012 137.66 84.1649 137.505 84.3194C137.351 84.6285 136.887 84.6285 136.732 84.474C136.732 84.474 133.023 81.5375 129.932 83.083C129.159 83.3921 128.696 83.8558 128.85 84.1649C129.005 84.7831 130.396 85.5558 131.014 85.7104C132.559 86.0195 133.796 86.4831 135.187 87.565C135.496 87.7196 135.496 88.1832 135.341 88.3378C135.187 88.4923 135.032 88.6469 134.878 88.6469Z" fill="#184B7E"/>
<path d="M17.573 153.713C21.7459 151.24 33.3373 149.85 36.7374 151.859C36.7374 153.404 36.7374 154.332 36.7374 155.877C36.7374 157.577 35.8101 159.432 33.1827 160.977C29.0098 163.296 23.2914 163.759 19.7367 161.595C18.1912 160.668 17.4185 159.586 17.4185 158.504C17.4185 156.959 17.573 155.877 17.573 153.713ZM64.8658 140.576C68.1114 138.722 67.9569 136.558 65.3295 135.013C62.8567 133.467 59.4565 133.312 55.4382 133.467V128.985L55.7473 126.821C63.3203 126.203 76.7663 129.758 82.1756 132.849C82.1756 134.394 82.1756 135.013 82.1756 137.485C82.1756 140.113 80.321 142.895 75.5299 145.677C65.6386 151.395 52.3471 147.068 43.6922 153.095L34.7282 147.995C34.7282 146.604 34.7282 144.595 34.7282 143.513C44.1559 138.104 59.302 143.822 64.8658 140.576Z" fill="#6EB3BC"/>
<path d="M25.4552 163.605C23.2914 163.605 21.1277 163.141 19.4276 162.214C17.4185 160.977 16.9548 159.586 16.8003 158.659C16.8003 157.732 16.8003 156.804 16.8003 155.877C16.8003 155.259 16.8003 154.641 16.8003 153.868C16.8003 153.713 16.9548 153.404 17.1094 153.404C21.4368 150.931 33.3373 149.386 36.892 151.549C37.0465 151.704 37.2011 151.859 37.2011 152.013C37.2011 152.786 37.2011 153.404 37.2011 154.022C37.2011 154.641 37.2011 155.259 37.2011 156.031C37.2011 157.577 36.5829 159.741 33.3373 161.595C31.1736 162.832 28.2371 163.605 25.4552 163.605ZM18.0367 154.022C18.0367 154.641 18.0367 155.259 18.0367 155.722C18.0367 156.65 18.0367 157.577 18.0367 158.504C18.0367 159.432 18.8094 160.359 20.0458 161.132C23.446 162.986 28.8553 162.832 32.8736 160.513C35.0374 159.277 36.1192 157.732 36.1192 155.877C36.1192 155.104 36.1192 154.486 36.1192 153.868C36.1192 153.404 36.1192 152.786 36.1192 152.168C32.5645 150.468 22.2096 151.859 18.0367 154.022ZM43.6923 153.713C43.5377 153.713 43.5377 153.713 43.3832 153.713L34.4192 148.458C34.2646 148.304 34.1101 148.149 34.1101 147.995V143.513C34.1101 143.358 34.2646 143.049 34.4192 143.049C39.8285 139.958 47.0924 140.422 53.429 140.885C58.2201 141.195 62.2385 141.504 64.5567 140.113C65.9477 139.34 66.7205 138.413 66.7205 137.64C66.7205 136.713 65.7931 135.94 65.0204 135.476C62.393 133.931 58.8383 133.931 55.4382 134.085C55.2836 134.085 55.1291 134.085 54.9745 133.931C54.82 133.776 54.82 133.621 54.82 133.467V128.985L55.1291 126.821C55.1291 126.512 55.4382 126.358 55.5927 126.358C63.1658 125.739 76.7663 129.294 82.3302 132.385C82.4847 132.54 82.6393 132.694 82.6393 132.849V137.485C82.6393 140.576 80.321 143.513 75.839 146.14C70.8933 149.077 65.0204 149.386 59.4565 149.849C53.7381 150.313 48.3288 150.622 44.0014 153.559C43.8468 153.559 43.6923 153.713 43.6923 153.713ZM35.3465 147.686L43.6923 152.477C48.1743 149.54 53.5836 149.231 59.302 148.768C64.7113 148.458 70.4297 147.995 75.0662 145.213C79.2391 142.74 81.4029 140.267 81.4029 137.64V133.312C75.9936 130.376 63.3203 127.13 56.0564 127.594L55.7473 129.294V133.003C59.1474 132.849 62.7021 133.003 65.3295 134.549C67.3387 135.631 67.6478 136.867 67.6478 137.64C67.6478 138.876 66.7205 140.113 64.8658 141.04C62.2385 142.585 58.0656 142.276 53.1199 141.967C47.0924 141.504 40.2921 141.04 35.1919 143.822V147.686H35.3465Z" fill="#184B7E"/>
<path d="M21.1277 149.386C25.3006 146.913 31.019 146.604 34.5737 148.613C38.1284 150.622 37.5102 154.022 33.3373 156.495C29.1644 158.814 23.446 159.277 19.8913 157.113C16.3366 155.104 16.9548 151.859 21.1277 149.386ZM64.8658 136.094C68.1114 134.24 67.9568 132.076 65.3295 130.531C62.8566 128.985 59.4565 128.831 55.4382 128.985L55.7473 122.339C63.3203 121.721 70.7388 122.648 76.1481 125.739C83.5666 130.067 84.9575 135.631 75.5299 141.04C65.6386 146.759 52.3471 142.431 43.6922 148.459L34.7282 143.513C44.3104 136.404 58.8383 139.649 64.8658 136.094Z" fill="white"/>
<path d="M25.4552 159.123C23.2914 159.123 21.1277 158.659 19.4276 157.732C17.2639 156.495 16.8003 155.104 16.8003 154.022C16.8003 152.168 18.1912 150.468 20.6641 149.077C25.1461 146.449 31.019 146.14 34.7283 148.304C36.4283 149.231 37.3556 150.622 37.3556 152.013C37.3556 153.868 35.9647 155.568 33.4918 157.113C31.1736 158.35 28.2371 159.123 25.4552 159.123ZM21.2823 150.004C19.2731 151.24 18.0367 152.631 18.0367 154.022C18.0367 155.104 18.6549 156.032 20.0458 156.804C23.446 158.659 28.8553 158.504 32.8736 156.186C34.8828 154.95 36.1192 153.559 36.1192 152.168C36.1192 151.086 35.3465 150.159 34.1101 149.386C31.019 147.222 25.4552 147.686 21.2823 150.004ZM43.6923 149.231C43.5377 149.231 43.5377 149.231 43.3832 149.077L34.5737 143.977C34.4192 143.822 34.2646 143.667 34.2646 143.513C34.2646 143.358 34.2646 143.204 34.5737 143.049C40.2921 138.722 47.7106 138.104 54.3563 137.64C58.6838 137.331 62.393 137.022 64.7113 135.631C66.1023 134.858 66.875 133.931 66.875 133.158C66.875 132.231 65.9477 131.458 65.1749 130.994C62.5476 129.449 58.9929 129.449 55.5927 129.603C55.4382 129.603 55.2836 129.603 55.1291 129.449C54.9745 129.294 54.9745 129.14 54.9745 128.985L55.2836 122.339C55.2836 122.03 55.5927 121.876 55.7473 121.721C64.0931 121.103 71.357 122.339 76.4572 125.276C80.6301 127.594 82.7938 130.376 82.7938 133.158C82.7938 136.094 80.4756 138.876 75.9936 141.658C71.0479 144.595 65.1749 144.904 59.6111 145.367C53.8927 145.831 48.4834 146.14 44.1559 149.077C43.8468 149.231 43.6923 149.231 43.6923 149.231ZM35.8101 143.358L43.5377 147.84C48.0197 144.904 53.429 144.595 59.1474 144.131C64.5567 143.822 70.2751 143.358 74.9117 140.576C79.0846 138.258 81.2483 135.631 81.2483 133.158C81.2483 130.84 79.2391 128.367 75.5299 126.203C70.7388 123.421 63.784 122.185 56.0564 122.803L55.7473 128.212C59.1474 128.058 62.7021 128.212 65.3295 129.758C67.3387 130.84 67.6478 132.076 67.6478 132.849C67.6478 134.085 66.7205 135.322 64.8658 136.249C62.393 137.64 58.5292 137.949 54.0472 138.413C48.1743 139.185 41.2194 139.804 35.8101 143.358Z" fill="#184B7E"/>
<path d="M43.6922 153.713C43.3831 153.713 43.074 153.404 43.074 153.095V148.613C43.074 148.304 43.3831 147.995 43.6922 147.995C44.0013 147.995 44.3105 148.304 44.3105 148.613V153.095C44.1559 153.404 44.0013 153.713 43.6922 153.713Z" fill="#184B7E"/>
<path d="M105.204 191.733C110.459 188.642 124.677 186.942 129.005 189.415C129.005 191.424 129.005 192.506 129.005 194.36C129.005 196.524 127.923 198.842 124.677 200.697C119.577 203.633 112.313 204.097 107.986 201.47C106.131 200.388 105.204 198.997 105.204 197.606C105.204 195.751 105.204 194.36 105.204 191.733ZM163.624 175.505C167.643 173.187 167.488 170.559 164.088 168.705C160.997 166.85 156.824 166.696 151.878 166.85V161.286L152.187 158.659C161.461 157.886 178.152 162.214 184.798 166.077C184.798 167.932 184.798 168.705 184.798 171.796C184.798 175.041 182.48 178.441 176.607 181.842C164.397 188.951 148.015 183.542 137.351 190.96L126.377 184.624C126.377 182.923 126.377 180.296 126.377 179.06C138.123 172.569 156.824 179.523 163.624 175.505Z" fill="#6EB3BC"/>
<path d="M115.095 203.788C112.313 203.788 109.84 203.17 107.831 202.088C105.358 200.697 104.74 198.997 104.74 197.76C104.74 196.524 104.74 195.597 104.74 194.36C104.74 193.588 104.74 192.815 104.74 191.887C104.74 191.733 104.895 191.424 105.049 191.424C110.459 188.333 124.986 186.478 129.468 189.106C129.623 189.26 129.778 189.415 129.778 189.569C129.778 190.496 129.778 191.269 129.778 192.042C129.778 192.815 129.778 193.588 129.778 194.515C129.778 196.369 129.005 199.151 125.141 201.315C122.05 202.861 118.341 203.788 115.095 203.788ZM105.822 192.042C105.822 192.815 105.822 193.588 105.822 194.206C105.822 195.442 105.822 196.369 105.822 197.606C105.822 198.842 106.749 200.079 108.295 201.006C112.468 203.479 119.423 203.015 124.368 200.233C126.996 198.688 128.387 196.679 128.387 194.515C128.387 193.588 128.387 192.815 128.387 192.042C128.387 191.424 128.387 190.651 128.387 189.878C124.059 187.56 110.922 189.26 105.822 192.042ZM137.505 191.578C137.351 191.578 137.351 191.578 137.196 191.578L126.223 185.242C126.068 185.087 125.914 184.933 125.914 184.778V179.214C125.914 179.06 126.068 178.751 126.223 178.751C133.023 175.041 141.833 175.505 149.56 176.123C155.433 176.587 160.533 176.896 163.47 175.196C165.324 174.114 166.252 173.032 166.252 172.105C166.252 170.868 165.015 169.941 163.933 169.323C160.688 167.468 156.206 167.314 152.033 167.468C151.878 167.468 151.724 167.468 151.569 167.314C151.415 167.159 151.415 167.005 151.415 166.85V161.286L151.724 158.504C151.724 158.195 152.033 158.041 152.188 158.041C161.461 157.268 178.307 161.595 185.107 165.614C185.262 165.768 185.416 165.923 185.416 166.077V171.796C185.416 175.505 182.634 179.06 176.916 182.305C170.734 185.86 163.624 186.324 156.824 186.787C149.715 187.251 142.914 187.715 137.66 191.424C137.66 191.424 137.505 191.578 137.505 191.578ZM126.996 184.314L137.351 190.342C142.914 186.633 149.56 186.169 156.824 185.705C163.624 185.242 170.579 184.778 176.452 181.378C181.707 178.441 184.334 175.196 184.334 171.796V166.386C177.534 162.677 161.77 158.659 152.806 159.123L152.497 161.286V166.077C156.824 165.923 161.152 166.077 164.552 168.086C166.87 169.477 167.334 170.868 167.334 171.796C167.334 173.341 166.252 174.732 163.933 175.969C160.842 177.823 155.588 177.36 149.406 177.05C141.833 176.587 133.332 175.969 126.996 179.369V184.314V184.314Z" fill="#184B7E"/>
<path d="M109.531 186.478C114.786 183.542 121.895 183.078 126.223 185.551C130.55 188.024 129.932 192.197 124.677 195.288C119.577 198.224 112.313 198.688 107.986 196.06C103.658 193.588 104.431 189.415 109.531 186.478ZM163.624 169.941C167.643 167.623 167.488 164.996 164.088 163.141C160.997 161.286 156.824 161.132 151.878 161.286L152.188 153.095C161.461 152.322 170.734 153.559 177.379 157.268C186.498 162.523 188.198 169.632 176.607 176.278C164.397 183.387 148.015 177.978 137.351 185.396L126.377 179.06C138.278 170.25 156.36 174.269 163.624 169.941Z" fill="white"/>
<path d="M115.095 198.224C112.313 198.224 109.84 197.606 107.831 196.524C105.204 194.979 104.74 193.279 104.74 192.042C104.74 189.878 106.44 187.715 109.377 186.015C114.786 182.924 122.05 182.46 126.532 185.087C128.541 186.324 129.623 187.869 129.623 189.569C129.623 191.733 127.923 193.897 124.986 195.751C122.05 197.451 118.341 198.224 115.095 198.224ZM109.84 186.942C107.213 188.487 105.822 190.342 105.822 192.042C105.822 193.433 106.749 194.515 108.295 195.597C112.468 198.07 119.423 197.606 124.368 194.824C126.996 193.279 128.541 191.424 128.541 189.724C128.541 188.333 127.614 187.096 125.914 186.169C121.895 183.696 114.941 184.005 109.84 186.942ZM137.505 186.015C137.351 186.015 137.351 186.015 137.196 186.015L126.223 179.678C126.068 179.523 125.914 179.369 125.914 179.06C125.914 178.905 125.914 178.751 126.223 178.596C133.332 173.341 142.451 172.569 150.642 171.95C156.051 171.487 160.688 171.178 163.624 169.478C165.479 168.396 166.406 167.314 166.406 166.387C166.406 165.15 165.17 164.223 164.088 163.605C160.842 161.75 156.36 161.595 152.188 161.75C152.033 161.75 151.878 161.75 151.724 161.595C151.569 161.441 151.569 161.286 151.569 161.132L151.878 152.941C151.878 152.631 152.188 152.477 152.342 152.322C162.543 151.55 171.661 153.095 177.843 156.65C182.943 159.586 185.571 162.986 185.571 166.387C185.571 169.941 182.789 173.496 177.07 176.742C170.888 180.296 163.779 180.76 156.979 181.223C149.869 181.687 143.069 182.151 137.814 185.86C137.66 186.015 137.505 186.015 137.505 186.015ZM127.614 179.06L137.505 184.778C143.069 181.069 149.715 180.605 156.979 180.142C163.779 179.678 170.734 179.214 176.607 175.814C181.707 172.878 184.489 169.632 184.489 166.541C184.489 163.605 182.016 160.514 177.379 157.886C171.507 154.486 162.852 152.941 152.96 153.713L152.651 160.823C156.979 160.668 161.306 160.823 164.552 162.832C166.87 164.223 167.334 165.614 167.334 166.541C167.334 168.087 166.252 169.478 163.933 170.714C160.842 172.569 156.051 172.878 150.487 173.341C142.914 173.65 134.26 174.423 127.614 179.06Z" fill="#184B7E"/>
<path d="M137.505 191.579C137.196 191.579 136.887 191.269 136.887 190.96V185.397C136.887 185.087 137.196 184.778 137.505 184.778C137.814 184.778 138.123 185.087 138.123 185.397V190.96C137.969 191.269 137.814 191.579 137.505 191.579Z" fill="#184B7E"/>
<path d="M92.8397 168.241C89.5941 169.787 84.3393 171.796 79.0846 171.95C70.5842 172.105 65.1749 168.859 65.1749 168.859V164.068L79.5482 160.514L34.5737 134.703C33.1827 133.931 32.7191 132.849 32.7191 131.767C32.7191 130.221 32.7191 128.676 32.7191 126.976L58.6837 114.921C61.9293 113.066 67.0295 112.757 69.8115 114.457L142.76 153.095C142.76 154.486 142.76 157.268 142.76 158.35C142.76 159.586 141.833 160.977 139.978 162.059L116.641 175.505C113.395 177.36 108.295 177.669 105.513 175.969L92.8397 168.241Z" fill="#6EB3BC"/>
<path d="M110.459 177.36C108.604 177.36 106.749 176.896 105.358 176.123L92.8397 168.859C89.4395 170.405 84.3393 172.414 79.0846 172.414C70.5842 172.569 65.0204 169.478 64.8658 169.323C64.7113 169.169 64.5567 169.014 64.5567 168.859V164.068C64.5567 163.759 64.7113 163.605 65.0204 163.45L78.0027 160.205L34.2646 135.167C32.41 134.085 32.1009 132.694 32.1009 131.767V126.976C32.1009 126.821 32.2554 126.512 32.41 126.512L58.3746 114.457C61.7748 112.448 67.0295 112.294 70.1206 113.994L143.069 152.632C143.224 152.786 143.378 152.941 143.378 153.095V158.35C143.378 159.895 142.296 161.441 140.442 162.523L117.104 175.969C115.095 176.742 112.777 177.36 110.459 177.36ZM92.8397 167.778C92.9942 167.778 92.9942 167.778 93.1488 167.778L105.822 175.196C108.449 176.742 113.24 176.587 116.332 174.732L139.669 161.286C141.214 160.359 142.142 159.277 142.142 158.195V153.404L69.5024 114.921C66.875 113.375 61.9293 113.53 58.8383 115.385L33.1827 127.285V131.767C33.1827 132.849 33.8009 133.622 34.8828 134.24L79.8573 160.205C80.0119 160.359 80.1664 160.514 80.1664 160.823C80.1664 161.132 80.0119 161.286 79.7028 161.286L65.7931 164.687V168.55C67.0295 169.169 71.9752 171.487 79.0846 171.332C84.1848 171.178 89.285 169.323 92.5306 167.623C92.6851 167.778 92.8397 167.778 92.8397 167.778Z" fill="#184B7E"/>
<path d="M92.8397 163.605C89.5941 165.15 84.3393 167.159 79.0846 167.314C70.5843 167.469 65.1749 164.223 65.1749 164.223L79.5482 155.877L34.5737 129.912C31.7918 128.212 32.1009 125.43 35.3465 123.421L58.6838 109.975C61.9294 108.121 67.0296 107.812 69.8115 109.512L140.751 150.468C143.533 152.168 143.224 154.95 139.978 156.959L116.641 170.405C113.395 172.26 108.295 172.569 105.513 170.869L92.8397 163.605Z" fill="white"/>
<path d="M110.459 172.569C108.604 172.569 106.749 172.105 105.358 171.332L92.8397 164.068C89.4395 165.614 84.3393 167.623 79.0846 167.623C70.5842 167.778 65.0204 164.687 64.8658 164.532C64.7113 164.377 64.5567 164.223 64.5567 164.068C64.5567 163.914 64.7113 163.605 64.8658 163.605L78.4664 155.723L34.2646 130.376C32.8736 129.603 32.1009 128.367 32.1009 127.13C32.1009 125.585 33.1827 124.039 35.0373 122.958L58.3746 109.512C61.7748 107.502 67.0295 107.348 70.1206 109.048L141.06 150.004C142.451 150.777 143.224 152.013 143.224 153.25C143.224 154.795 142.142 156.341 140.287 157.423L116.95 170.869C115.095 172.105 112.777 172.569 110.459 172.569ZM92.8397 162.986C92.9942 162.986 92.9942 162.986 93.1488 162.986L105.822 170.405C108.449 171.95 113.241 171.796 116.332 169.941L139.669 156.495C141.214 155.568 142.142 154.486 142.142 153.404C142.142 152.477 141.523 151.704 140.442 151.086L69.5024 110.13C66.875 108.584 62.0839 108.739 58.9929 110.593L35.6555 124.039C34.11 124.967 33.1827 126.049 33.1827 127.13C33.1827 128.058 33.8009 128.831 34.8828 129.449L79.8573 155.413C80.0119 155.568 80.1664 155.723 80.1664 155.877C80.1664 156.032 80.0119 156.341 79.8573 156.341L66.4113 164.068C68.266 164.996 72.9025 166.696 79.0846 166.541C84.1848 166.387 89.285 164.532 92.5306 162.832C92.6851 162.986 92.8397 162.986 92.8397 162.986Z" fill="#184B7E"/>
<path d="M120.041 154.486C119.886 154.486 119.886 154.486 119.732 154.486L63.784 122.03C63.4749 121.876 63.4749 121.567 63.6294 121.258C63.784 120.948 64.0931 120.948 64.4022 121.103L120.504 153.404C120.814 153.559 120.814 153.868 120.659 154.177C120.504 154.486 120.35 154.486 120.041 154.486Z" fill="#184B7E"/>
<path d="M111.386 159.586C111.231 159.586 111.231 159.586 111.077 159.586L55.1291 127.13C54.82 126.976 54.82 126.667 54.9745 126.358C55.1291 126.049 55.4382 126.049 55.7473 126.203L111.85 158.504C112.159 158.659 112.159 158.968 112.004 159.277C111.85 159.432 111.54 159.586 111.386 159.586Z" fill="#184B7E"/>
<path d="M31.7917 104.721C35.9646 102.248 47.556 100.857 50.9561 102.866C50.9561 104.411 50.9561 105.339 50.9561 106.884C50.9561 108.584 50.0288 110.439 47.4014 111.984C43.2286 114.303 37.5101 114.766 33.9555 112.603C32.4099 111.675 31.6372 110.593 31.6372 109.512C31.7917 107.966 31.7917 106.884 31.7917 104.721ZM79.0845 91.5836C82.3301 89.729 82.1756 87.5653 79.5482 86.0198C77.0754 84.4742 73.6752 84.3197 69.6569 84.4742V79.9922L69.966 77.8285C77.539 77.2103 90.985 80.765 96.3943 83.856C96.3943 85.4015 96.3943 86.0198 96.3943 88.4926C96.3943 91.12 94.5397 93.9019 89.7486 96.6838C79.8573 102.402 66.5659 98.0748 57.911 104.102L49.1015 99.0021C49.1015 97.6111 49.1015 95.602 49.1015 94.5201C58.5292 89.1108 73.5207 94.8292 79.0845 91.5836Z" fill="#6EB3BC"/>
<path d="M39.8284 114.612C37.6647 114.612 35.501 114.148 33.8009 113.221C31.7917 111.984 31.3281 110.593 31.1735 109.666C31.1735 108.739 31.1735 107.811 31.1735 106.884C31.1735 106.266 31.1735 105.648 31.1735 104.875C31.1735 104.72 31.3281 104.411 31.4826 104.411C35.8101 101.938 47.7106 100.393 51.2652 102.557C51.4198 102.711 51.5743 102.866 51.5743 103.02C51.5743 103.793 51.5743 104.411 51.5743 105.03C51.5743 105.648 51.5743 106.266 51.5743 107.039C51.5743 108.584 50.9561 110.748 47.7106 112.603C45.3923 113.839 42.4558 114.612 39.8284 114.612ZM32.4099 105.03C32.4099 105.648 32.4099 106.266 32.4099 106.73C32.4099 107.657 32.4099 108.584 32.4099 109.512C32.4099 110.439 33.1827 111.366 34.4191 112.139C37.8192 113.994 43.2286 113.839 47.2469 111.521C49.4106 110.284 50.4925 108.739 50.4925 106.884C50.4925 106.111 50.4925 105.493 50.4925 104.875C50.4925 104.411 50.4925 103.793 50.4925 103.175C46.9378 101.475 36.5828 102.866 32.4099 105.03ZM57.911 104.72C57.7564 104.72 57.7564 104.72 57.6019 104.566L48.7924 99.4657C48.6379 99.3111 48.4833 99.1566 48.4833 99.002V94.52C48.4833 94.3655 48.6379 94.0563 48.7924 94.0563C54.2017 90.9653 61.4657 91.429 67.8023 91.8926C72.5934 92.2017 76.6117 92.5108 78.93 91.1199C80.321 90.3471 81.0937 89.4198 81.0937 88.647C81.0937 87.7197 80.1664 86.947 79.3936 86.4833C76.7663 84.9378 73.2116 84.9378 69.8114 85.0924C69.6569 85.0924 69.5023 85.0924 69.3478 84.9378C69.1932 84.7832 69.1932 84.6287 69.1932 84.4741V79.9921L69.5023 77.8284C69.5023 77.5193 69.8114 77.3648 69.966 77.3648C77.539 76.7466 91.1396 80.3012 96.7034 83.3923C96.858 83.5468 97.0125 83.7014 97.0125 83.8559V88.4925C97.0125 91.5835 94.6943 94.52 90.2123 97.1474C85.2666 100.084 79.3936 100.393 73.8298 100.857C68.1114 101.32 62.7021 101.629 58.3746 104.566C58.2201 104.566 58.0655 104.72 57.911 104.72ZM49.5652 98.5384L57.911 103.329C62.393 100.393 67.8023 100.084 73.5207 99.6202C78.93 99.3111 84.6484 98.8475 89.2849 96.0655C93.4578 93.5927 95.6216 91.1199 95.6216 88.4925V84.165C90.2123 81.2286 77.539 77.983 70.2751 78.4466L69.966 80.1467V83.8559C73.3661 83.7014 76.9208 83.8559 79.5482 85.4015C81.5574 86.4833 81.8665 87.7197 81.8665 88.4925C81.8665 89.7289 80.9392 90.9653 79.0845 91.8926C76.4572 93.4381 72.2843 93.129 67.3386 92.8199C61.3111 92.3563 54.5108 91.8926 49.4106 94.6746V98.5384H49.5652Z" fill="#184B7E"/>
<path d="M35.3464 100.393C39.5193 97.9204 45.2377 97.6113 48.7924 99.6205C52.3471 101.63 51.7289 105.03 47.556 107.503C43.3831 109.821 37.6647 110.285 34.11 108.121C30.5553 106.112 31.1735 102.866 35.3464 100.393ZM79.0845 87.1018C82.3301 85.2472 82.1756 83.0834 79.5482 81.5379C77.0754 79.9924 73.6752 79.8379 69.6569 79.9924L69.966 73.3467C77.539 72.7285 84.9575 73.6558 90.3668 76.7468C97.7853 81.0743 99.1762 86.6381 89.7486 92.0474C79.8573 97.7658 66.5658 93.4384 57.911 99.4659L49.1015 94.3657C58.5292 87.4109 73.2116 90.5019 79.0845 87.1018Z" fill="white"/>
<path d="M39.8284 110.13C37.6647 110.13 35.501 109.666 33.8009 108.739C31.6372 107.502 31.1735 106.111 31.1735 105.03C31.1735 103.175 32.5645 101.475 35.0373 100.084C39.5193 97.4565 45.3923 97.1474 49.1015 99.3112C50.8016 100.238 51.7289 101.629 51.7289 103.02C51.7289 104.875 50.3379 106.575 47.8651 108.121C45.3923 109.357 42.4558 110.13 39.8284 110.13ZM35.6555 101.011C33.6464 102.248 32.4099 103.639 32.4099 105.03C32.4099 106.111 33.0281 107.039 34.4191 107.812C37.8192 109.666 43.2286 109.512 47.2469 107.193C49.2561 105.957 50.4925 104.566 50.4925 103.175C50.4925 102.093 49.7197 101.166 48.4833 100.393C45.2377 98.2293 39.6739 98.693 35.6555 101.011ZM57.911 100.238C57.7564 100.238 57.7564 100.238 57.6019 100.084L48.7924 94.9837C48.6379 94.8292 48.4833 94.6746 48.4833 94.5201C48.4833 94.3655 48.4833 94.211 48.7924 94.0564C54.5108 89.729 61.9293 89.1107 68.575 88.6471C72.9025 88.338 76.6117 88.0289 78.93 86.6379C80.321 85.8652 81.0937 84.9379 81.0937 84.1651C81.0937 83.2378 80.1664 82.465 79.3936 82.0014C76.7663 80.4559 73.2116 80.4559 69.8114 80.6104C69.6569 80.6104 69.5023 80.6104 69.3478 80.4559C69.1932 80.3013 69.1932 80.1468 69.1932 79.9922L69.5023 73.3465C69.5023 73.0374 69.8114 72.8828 69.966 72.7283C78.3118 72.1101 85.5757 73.3465 90.6759 76.283C94.8488 78.6012 97.0125 81.3832 97.0125 84.1651C97.0125 87.1016 94.6943 89.8835 90.2123 92.5109C85.2666 95.4474 79.3936 95.7565 73.8298 96.2201C68.1114 96.6838 62.7021 96.9929 58.3746 99.9294C58.2201 100.084 58.0655 100.238 57.911 100.238ZM50.0288 94.3655L57.7564 98.8475C62.2384 95.911 67.6477 95.6019 73.3661 95.1383C78.7754 94.8292 84.4939 94.3655 89.1304 91.5836C93.3033 89.2653 95.467 86.6379 95.467 84.1651C95.467 81.8468 93.4578 79.374 89.7486 77.2103C84.9575 74.4283 78.0027 73.1919 70.2751 73.8101L69.966 79.2194C73.3661 79.0649 76.9208 79.2194 79.5482 80.765C81.5574 81.8468 81.8665 83.0832 81.8665 83.856C81.8665 85.0924 80.9392 86.3288 79.0845 87.2561C76.6117 88.6471 72.7479 88.9562 68.2659 89.4199C62.393 90.1926 55.5927 90.8108 50.0288 94.3655Z" fill="#184B7E"/>
<path d="M57.911 104.72C57.6019 104.72 57.2928 104.411 57.2928 104.102V99.6203C57.2928 99.3112 57.6019 99.0021 57.911 99.0021C58.2201 99.0021 58.5292 99.3112 58.5292 99.6203V104.102C58.5292 104.411 58.2201 104.72 57.911 104.72Z" fill="#184B7E"/>
</g>
<defs>
<clipPath id="clip0_63_3">
<rect width="280.82" height="198.908" fill="white" transform="translate(10 48)"/>
</clipPath>
</defs>
</svg>
