<svg width="206" height="296" viewBox="0 0 206 296" fill="none" xmlns="http://www.w3.org/2000/svg">
<g clip-path="url(#clip0_63_2)">
<path opacity="0.5" d="M156.077 250.155L114.348 273.956C108.63 277.201 98.7384 276.738 92.2472 273.029L52.8365 250.309C46.3453 246.6 45.5726 240.727 51.291 237.482L93.0199 213.681C98.7384 210.435 108.63 210.899 115.121 214.608L154.532 237.327C161.023 241.036 161.795 246.909 156.077 250.155Z" fill="#93BFCB"/>
<path d="M151.904 245.673L110.948 269.319C107.393 271.483 100.902 271.174 96.7292 268.701L56.3912 245.518C54.0729 244.127 52.8365 242.427 52.9911 240.882C52.9911 239.645 52.9911 237.636 52.9911 235.318L96.4201 213.526C99.9748 211.362 106.466 211.671 110.639 214.144L154.377 236.709C154.377 238.718 154.377 240.573 154.377 242.118C154.377 243.509 153.604 244.745 151.904 245.673Z" fill="#6EB3BC"/>
<path d="M104.766 271.328C101.829 271.328 98.8929 270.556 96.4201 269.319L56.2366 246.136C53.7638 244.746 52.3728 242.891 52.5274 240.882C52.5274 240.109 52.5274 239.027 52.5274 237.791V235.318C52.5274 235.163 52.6819 234.854 52.8365 234.854L96.2655 213.372C99.9748 211.208 106.62 211.517 110.948 213.99L154.686 236.554C154.841 236.709 154.995 236.863 154.995 237.018C154.995 237.791 154.995 238.409 154.995 239.182C154.995 240.418 154.995 241.5 154.995 242.582C154.995 244.127 153.913 245.518 152.213 246.446L111.257 270.092C109.557 270.865 107.239 271.328 104.766 271.328ZM53.6093 235.472V237.636C53.6093 238.873 53.6093 239.954 53.6093 240.882C53.6093 242.427 54.6911 243.818 56.8548 245.055L97.0383 268.237C101.057 270.556 107.239 270.865 110.639 268.856L151.595 245.209C152.986 244.436 153.759 243.355 153.759 242.273C153.759 241.191 153.759 240.109 153.759 239.027C153.759 238.409 153.759 237.791 153.759 237.172L110.33 214.762C106.311 212.444 100.129 212.135 96.7292 214.144L53.6093 235.472Z" fill="#184B7E"/>
<path d="M151.904 240.263L110.948 263.91C107.393 266.074 100.902 265.765 96.7292 263.292L56.3912 240.109C52.2183 237.636 51.7546 234.081 55.3093 231.918L96.4201 208.271C99.9747 206.108 106.466 206.417 110.639 208.89L150.977 232.072C155.15 234.545 155.613 238.254 151.904 240.263Z" fill="#C9E7E8"/>
<path d="M104.766 265.919C101.829 265.919 98.8929 265.146 96.4201 263.91L56.2366 240.727C53.9184 239.336 52.5274 237.482 52.5274 235.627C52.5274 234.082 53.4547 232.536 55.3093 231.609L96.2655 207.962C100.129 205.799 106.62 206.108 111.102 208.581L151.44 231.763C153.759 233.154 155.15 235.009 155.15 236.863C155.15 238.409 154.222 239.955 152.368 240.882L111.412 264.528C109.557 265.456 107.239 265.919 104.766 265.919ZM102.602 207.499C100.438 207.499 98.2747 207.962 96.7292 208.89L55.773 232.536C54.382 233.309 53.6093 234.391 53.6093 235.627C53.6093 237.018 54.6911 238.564 56.8549 239.8L97.0383 262.983C101.057 265.301 107.239 265.61 110.639 263.601L151.595 239.955C152.986 239.182 153.759 238.1 153.759 236.863C153.759 235.473 152.677 233.927 150.513 232.691L110.175 209.508C108.166 208.117 105.384 207.499 102.602 207.499Z" fill="#184B7E"/>
<path d="M191.315 172.724L14.5077 281.683C14.5077 281.683 7.70742 277.82 6.62556 277.201C5.23459 276.429 4.30728 274.574 4.30728 271.792V132.386C4.30728 127.441 7.24376 121.877 10.953 119.713L191.315 15.5454C193.169 14.4635 195.024 14.309 196.26 15.0817C198.888 16.6272 203.215 19.4092 203.215 19.4092L197.961 160.051C197.961 164.842 195.024 170.561 191.315 172.724Z" fill="#6EB3BC"/>
<path d="M14.5077 282.302C14.3532 282.302 14.3532 282.302 14.1986 282.302C14.1986 282.302 7.39833 278.438 6.31647 277.82C4.6164 276.892 3.68909 274.729 3.68909 271.947V132.387C3.68909 127.286 6.78012 121.413 10.6439 119.25L191.006 15.0819C193.015 13.8455 195.024 13.6909 196.57 14.6182C199.197 16.1637 203.524 18.9457 203.524 18.9457C203.679 19.1002 203.834 19.2548 203.834 19.4093L198.579 160.051C198.579 165.152 195.488 171.025 191.624 173.188L14.8168 282.147C14.6623 282.302 14.6623 282.302 14.5077 282.302ZM194.406 15.2364C193.479 15.2364 192.551 15.5455 191.624 16.0092L11.1076 120.177C7.55288 122.186 4.77095 127.596 4.77095 132.387V271.947C4.77095 274.265 5.54371 276.12 6.78012 276.892C7.86198 277.511 13.1167 280.447 14.3532 281.22L190.851 172.415C194.406 170.406 197.188 164.997 197.188 160.206L202.443 19.873C201.515 19.2548 197.961 16.9365 195.797 15.7001C195.488 15.2364 195.024 15.2364 194.406 15.2364Z" fill="#184B7E"/>
<path d="M198.888 176.897L18.3715 281.065C14.6622 283.229 11.7257 280.911 11.7257 276.119V136.714C11.7257 131.768 14.6622 126.204 18.3715 124.041L198.888 19.8727C202.597 17.709 205.534 20.0273 205.534 24.8184V164.379C205.534 169.17 202.443 174.888 198.888 176.897Z" fill="white"/>
<path d="M15.7441 282.456C14.9714 282.456 14.3532 282.301 13.735 281.992C12.0349 281.065 11.1076 278.901 11.1076 276.119V136.714C11.1076 131.614 14.1986 125.741 18.0624 123.577L198.579 19.2545C200.279 18.1727 202.133 18.1727 203.524 18.9454C205.224 19.8728 206.152 22.0365 206.152 24.8184V164.379C206.152 169.479 203.061 175.352 199.197 177.515L18.6806 281.683C17.7533 282.147 16.6714 282.456 15.7441 282.456ZM201.515 19.5636C200.742 19.5636 199.97 19.8728 199.197 20.3364L18.6806 124.504C15.1259 126.513 12.344 131.923 12.344 136.714V276.274C12.344 278.592 13.1167 280.447 14.3532 281.065C15.435 281.683 16.6714 281.529 18.0624 280.756L198.424 176.588C201.979 174.579 204.761 169.17 204.761 164.379V24.8184C204.761 22.5001 203.988 20.6455 202.752 20.0273C202.443 19.7182 201.979 19.5636 201.515 19.5636Z" fill="#184B7E"/>
<path d="M18.2169 265.147L200.433 160.051V24.0459L18.2169 129.141V265.147Z" fill="#A2E0DC"/>
<path d="M159.786 67.4749C160.095 65.7748 161.95 56.0381 171.069 55.4199C171.841 55.4199 172.614 55.4199 173.232 55.5744C173.696 53.2561 172.923 51.7106 171.223 51.0924C167.978 49.856 162.414 52.4834 159.014 58.82C155.613 65.4657 156.232 68.7113 156.85 69.7932C157.623 69.0204 158.55 68.0931 159.786 67.4749Z" fill="#C9E7E8"/>
<path d="M161.023 67.0112C162.105 66.7021 163.186 66.7021 164.423 67.3203C165.814 67.9385 166.587 68.8658 167.05 70.1022C167.823 72.4205 166.587 75.357 166.123 76.2843C168.905 80.4572 170.141 87.412 169.214 95.2942C169.832 96.8397 170.914 97.9215 172.46 98.2306C174.932 98.6943 178.023 97.3033 180.496 94.5214C184.824 89.5757 186.524 82.6209 185.596 78.6026C185.287 77.3662 184.824 76.4389 184.051 76.1298C179.105 73.966 175.86 80.6118 175.551 81.0754C174.314 84.9392 174.778 86.6393 175.551 86.9484C176.478 87.2575 178.023 86.3302 179.26 84.1664C180.187 82.4664 180.187 81.0754 179.878 80.6117C179.723 80.4572 179.569 80.4572 179.569 80.4572C179.105 80.4572 178.332 81.0754 177.56 82.7755C177.405 83.0846 177.096 83.2391 176.787 83.0846C176.478 82.93 176.323 82.6209 176.478 82.3118C177.405 80.4572 178.332 79.5299 179.414 79.3753C180.033 79.3753 180.496 79.5299 180.805 80.1481C181.424 81.23 181.269 82.93 180.187 84.9392C179.105 87.1029 177.405 88.3393 175.86 88.3393C175.551 88.3393 175.241 88.3393 175.087 88.1848C174.314 87.8757 172.614 86.4847 174.314 80.9209C176.787 73.0387 178.178 62.6838 175.087 58.82C174.16 57.5836 172.614 56.9653 170.759 57.1199C163.65 57.1199 161.486 64.3838 161.023 67.0112Z" fill="#C9E7E8"/>
<path d="M161.95 85.5574C164.423 90.0394 164.732 97.4579 164.732 99.4671C165.196 99.6216 165.659 99.7762 166.123 100.085C166.587 100.394 166.896 100.703 167.205 101.013C169.523 90.3485 168.441 80.6117 164.577 75.9752C162.723 73.8115 160.559 72.8842 157.777 73.0387C152.831 73.3478 147.113 76.748 142.94 80.6117C143.404 80.4572 143.867 80.3026 144.331 79.9935C152.368 76.748 158.241 78.448 161.95 85.5574Z" fill="#C9E7E8"/>
<path d="M159.014 103.485C156.85 106.113 155.15 110.286 154.995 113.995C154.841 117.086 155.613 119.404 157.159 120.331C157.932 120.95 159.014 120.95 160.095 120.486C159.632 120.331 159.014 120.177 158.55 119.713C156.85 118.477 155.922 115.849 156.077 112.449C156.386 109.513 157.468 106.267 159.014 103.485Z" fill="#6EB3BC"/>
<path d="M162.723 120.332C162.568 120.486 162.259 120.641 162.105 120.795C162.105 121.568 162.105 123.268 162.105 125.741C162.568 123.577 162.877 121.413 163.186 119.868C163.186 120.022 163.032 120.177 162.723 120.332C162.877 120.332 162.877 120.332 162.723 120.332Z" fill="#C9E7E8"/>
<path d="M142.013 150.778C141.704 150.778 141.549 150.778 141.24 150.933C139.849 151.396 138.458 152.942 138.304 154.178C138.304 154.487 138.304 154.951 138.613 155.26C138.922 155.569 139.54 155.569 140.158 155.26C141.549 154.797 142.94 153.251 143.095 152.015C143.095 151.706 143.095 151.242 142.786 150.933C142.476 150.933 142.322 150.778 142.013 150.778Z" fill="white"/>
<path d="M137.685 88.494C138.304 88.1849 138.922 87.8758 139.54 87.7213C143.713 86.0212 147.422 85.2484 150.668 85.7121C151.286 85.8666 151.904 86.0212 152.522 86.1757H152.677C158.241 88.6486 159.632 97.7671 159.941 100.858C160.559 100.394 161.023 99.9308 161.641 99.7763C162.259 99.4672 163.032 99.3126 163.65 99.1581C163.65 97.1489 163.341 90.0395 161.023 85.8666C158.704 81.8483 154.686 76.9026 144.64 80.7664C137.531 83.5484 133.976 87.8758 132.276 90.9668C133.667 90.3486 134.903 89.7304 135.985 89.2668C136.604 89.1122 137.222 88.8031 137.685 88.494Z" fill="#6EB3BC"/>
<path d="M165.659 100.858C165.196 100.549 164.577 100.394 164.114 100.394C163.805 100.394 163.341 100.549 162.877 100.549C159.941 103.176 157.623 108.122 157.468 112.604C157.313 115.54 158.086 117.859 159.477 118.786C160.25 119.404 161.332 119.559 162.414 119.25C162.877 118.786 163.495 118.322 163.959 117.704C166.123 115.077 167.668 111.058 167.978 107.195C167.823 104.258 167.05 101.785 165.659 100.858Z" fill="#6EB3BC"/>
<path d="M163.959 68.2476C160.714 66.8566 157.932 70.1022 156.85 71.8023C157.159 71.8023 157.468 71.8023 157.623 71.6477C160.714 71.4932 163.341 72.575 165.35 74.8933C165.814 73.8114 166.432 71.8023 165.968 70.2568C165.659 69.3294 165.041 68.7112 163.959 68.2476Z" fill="white"/>
<path d="M156.232 139.65C159.323 132.85 160.559 124.659 160.868 121.568C160.714 121.722 160.404 121.722 160.25 121.877C160.095 123.732 159.013 131.923 156.386 138.105C152.059 148.305 145.722 150.933 144.177 151.396C144.177 151.705 144.331 152.015 144.177 152.324C144.177 152.478 144.177 152.633 144.022 152.787C146.495 151.551 152.368 148.151 156.232 139.65Z" fill="#6EB3BC"/>
<path d="M150.822 138.723C151.131 138.878 151.131 139.187 150.977 139.496C149.431 142.123 147.731 144.133 146.186 145.833C146.34 146.296 146.495 147.224 146.804 148.614C149.277 146.914 152.677 143.669 155.15 137.641C157.468 132.077 158.704 124.504 158.859 122.186C158.704 122.186 158.704 122.186 158.55 122.186C157.777 122.186 157.004 122.032 156.386 121.568C154.532 120.332 153.604 117.704 153.759 114.149C153.759 113.84 153.759 113.531 153.759 113.222C148.659 110.904 148.504 103.176 148.813 99.158C147.268 101.476 144.486 105.495 141.395 108.586C138.304 111.677 135.367 113.531 132.74 115.231C130.885 116.468 129.185 117.55 127.485 118.941C127.485 119.095 127.64 119.095 127.64 119.25C127.64 120.177 127.64 121.104 127.64 122.032C127.64 135.478 130.267 144.905 134.594 147.842C136.449 149.078 138.458 149.233 140.776 148.151C143.713 146.914 146.804 143.823 149.74 138.878C150.204 138.569 150.513 138.569 150.822 138.723Z" fill="white"/>
<path d="M157.313 140.114C154.222 146.914 149.895 150.624 146.958 152.478C146.958 154.333 146.958 155.878 146.649 158.351C147.422 158.969 150.05 160.515 154.995 156.497C160.868 151.706 162.568 146.296 162.877 145.523C161.795 138.878 161.332 132.232 161.177 127.441C160.404 131.15 159.168 135.941 157.313 140.114Z" fill="white"/>
<path d="M133.822 197.916C132.276 191.271 134.131 185.243 136.14 178.288C136.604 176.897 137.067 175.352 137.376 173.806C138.149 171.179 138.458 168.552 138.767 166.079C139.076 163.142 139.385 160.36 140.313 157.578C136.294 162.215 133.358 167.006 132.585 173.961C131.658 181.379 131.658 186.634 131.658 192.198C131.658 194.516 131.658 196.835 131.658 199.462C132.276 198.844 133.049 198.38 133.822 197.916Z" fill="#C9E7E8"/>
<path d="M184.824 169.015C185.442 168.706 186.215 168.397 186.833 167.933C186.678 167.779 186.678 167.624 186.678 167.47C186.524 162.37 185.751 157.733 184.515 153.869C184.978 158.66 184.978 163.142 184.824 169.015Z" fill="#C9E7E8"/>
<path d="M161.95 181.843C161.95 180.298 161.795 178.597 161.641 176.743C160.714 164.224 159.477 145.369 171.223 139.65C168.75 139.341 166.123 139.65 163.341 140.578C163.496 142.123 163.805 143.669 163.959 145.369C163.959 145.523 163.959 145.523 163.959 145.678C163.959 145.987 162.259 152.015 155.613 157.424C152.831 159.588 150.668 160.36 148.968 160.36C146.804 160.36 145.568 159.124 145.413 158.969C145.258 158.815 145.258 158.66 145.258 158.506C145.568 156.187 145.568 154.642 145.568 153.096C144.177 153.869 143.249 154.178 143.095 154.178C142.94 154.487 142.631 154.797 142.322 155.106C140.467 158.66 140.004 162.37 139.54 166.233C139.231 168.861 138.922 171.488 138.149 174.115C137.685 175.661 137.222 177.207 136.913 178.597C134.903 185.243 133.358 191.116 134.594 197.298C137.531 195.598 140.622 193.898 143.713 192.353C149.74 189.262 155.459 185.707 161.332 182.152C161.641 182.152 161.795 181.998 161.95 181.843Z" fill="#C9E7E8"/>
<path d="M183.742 169.324C183.896 161.597 183.896 156.033 182.814 149.542C181.114 146.142 179.105 143.514 176.632 141.814C175.551 141.041 174.314 140.578 173.232 140.114C160.868 144.751 162.105 163.915 163.032 176.743C163.186 178.443 163.186 179.834 163.341 181.225C168.441 178.134 173.541 175.197 178.642 172.261C180.342 171.333 182.196 170.406 183.896 169.479C183.742 169.479 183.742 169.479 183.742 169.324Z" fill="#C9E7E8"/>
<path d="M126.558 100.24C128.412 99.467 130.267 98.6943 132.122 97.767C137.376 95.1396 143.867 89.4212 146.495 86.9484C144.486 87.2575 142.322 87.8757 140.004 88.803C139.385 89.1121 138.767 89.2666 138.304 89.5757C137.84 89.7303 137.222 90.0394 136.604 90.3485C135.213 90.9667 133.512 91.894 131.349 92.6668C128.876 93.5941 126.403 94.2123 124.085 94.6759C120.685 95.1396 118.676 97.3033 117.748 98.8488C116.203 101.322 115.894 104.258 116.048 105.958C118.985 103.485 122.848 101.94 126.558 100.24Z" fill="#C9E7E8"/>
<path d="M140.776 107.504C145.568 102.713 149.431 96.2216 149.431 96.067C149.586 95.7579 149.895 95.7579 150.204 95.7579C150.513 95.9125 150.668 96.067 150.513 96.3761C150.513 96.5307 148.504 108.431 154.068 111.677C154.686 107.967 156.541 104.258 158.704 101.785C158.704 101.631 158.086 90.3486 152.368 87.4121C150.977 89.5758 143.867 99.3126 129.958 106.731C122.694 110.595 118.521 116.313 117.285 123.886C117.13 124.968 116.975 126.05 116.975 127.286C116.821 130.687 118.057 133.005 119.912 133.469C121.921 133.932 124.858 132.232 126.712 127.75C126.712 127.596 126.712 127.596 126.712 127.441C126.403 128.214 126.094 128.987 125.476 129.605C124.858 130.223 124.239 130.687 123.467 130.687C123.158 130.687 122.694 130.532 122.385 130.377C120.994 129.296 120.685 126.359 123.312 122.032C125.63 118.322 128.721 116.313 132.122 113.995C135.058 112.295 137.84 110.595 140.776 107.504Z" fill="#C9E7E8"/>
<path d="M129.494 105.804C142.94 98.6943 149.74 89.5758 151.44 87.1029C151.131 86.9484 150.822 86.9484 150.513 86.7938C149.895 86.6393 149.122 86.6393 148.349 86.6393C147.113 87.8757 139.076 95.4487 132.585 98.6943C130.731 99.6216 128.876 100.394 127.021 101.167C121.921 103.331 117.13 105.34 113.73 109.513C110.639 113.222 108.784 118.477 109.402 122.032C109.557 123.423 110.175 124.35 111.103 124.968C113.575 126.514 115.739 123.886 116.203 123.423C117.594 115.695 122.076 109.822 129.494 105.804Z" fill="#C9E7E8"/>
<path d="M124.548 122.65C122.23 126.359 122.385 128.832 123.312 129.45C123.776 129.759 124.394 129.45 124.703 128.986C125.63 127.904 126.094 126.359 125.939 125.586C125.939 125.277 125.785 125.277 125.785 125.277C125.785 125.277 125.476 125.277 124.858 126.05C124.703 126.359 124.239 126.359 124.085 126.05C123.776 125.895 123.776 125.432 124.085 125.277C125.476 123.732 126.403 124.195 126.712 124.504L126.867 124.659C126.867 123.886 126.867 122.959 126.867 122.032C126.867 121.413 126.867 120.641 126.867 120.022C125.939 120.795 125.167 121.568 124.548 122.65Z" fill="#C9E7E8"/>
<path d="M177.096 140.887C173.078 138.26 168.287 137.796 163.032 139.651C162.723 136.714 162.414 134.087 162.259 131.459C162.877 126.823 164.423 119.25 164.577 118.322C166.896 115.386 168.441 111.213 168.75 107.349C168.905 105.34 168.596 103.795 167.978 102.404C168.441 100.549 168.75 98.8489 168.905 97.1488C169.678 98.2307 170.914 99.0034 172.15 99.3125C172.46 99.3125 172.923 99.4671 173.232 99.4671C175.86 99.4671 178.796 97.9216 181.114 95.1397C185.906 89.7303 187.451 82.4664 186.524 78.2935C186.215 76.5934 185.442 75.5116 184.36 75.0479C181.114 73.657 178.332 75.357 176.478 77.5208C178.178 71.0296 179.26 61.911 176.014 57.8927C175.396 57.1199 174.778 56.6563 174.005 56.3472C174.623 53.4107 173.696 51.247 171.378 50.3197C167.668 48.9287 161.332 51.7106 157.777 58.6655C153.604 66.7021 155.15 70.2568 155.768 71.1841C155.459 71.6478 155.15 72.1115 154.995 72.4206C149.277 73.8115 142.786 78.2935 139.076 82.621C133.976 85.8666 131.503 89.7303 130.267 92.0486C127.949 92.9759 125.63 93.5941 123.467 93.9032C120.376 94.3669 117.903 96.067 116.357 98.6943C114.503 101.631 114.194 105.186 114.657 107.349C114.039 107.967 113.266 108.586 112.648 109.358C109.402 113.377 107.548 118.941 108.011 122.804C108.321 124.504 109.093 125.741 110.175 126.514C110.948 126.977 111.566 127.132 112.339 127.132C113.575 127.132 114.812 126.514 115.739 125.741C115.739 126.359 115.584 126.977 115.584 127.595C115.43 132.387 117.439 134.55 119.448 135.014C119.757 135.014 120.066 135.169 120.376 135.169C122.385 135.169 124.858 133.778 126.712 130.532C127.64 140.114 130.112 146.451 133.822 149.078C135.367 149.542 136.604 150.005 138.149 150.005C139.231 150.005 140.313 149.696 141.549 149.233C142.786 148.769 144.022 147.842 145.413 146.76C145.568 147.378 145.722 148.151 145.877 149.233C144.486 150.005 143.713 150.16 143.558 150.16C142.94 149.696 142.013 149.542 140.931 149.851C139.076 150.469 137.531 152.324 137.376 154.024C137.222 154.951 137.531 155.569 138.149 156.033C138.458 156.342 139.076 156.497 139.54 156.497C139.695 156.497 139.695 156.497 139.849 156.497C135.522 161.288 132.585 166.388 131.658 173.652C130.731 181.07 130.731 186.48 130.731 192.044C130.731 194.516 130.731 196.989 130.731 199.926C130.731 200.235 131.04 200.544 131.349 200.544C131.658 200.544 131.967 200.235 131.967 199.926C131.967 196.989 131.967 194.516 131.967 192.044C131.967 186.48 131.967 181.225 132.894 173.806C133.667 167.006 136.604 162.061 140.622 157.424C139.695 160.206 139.385 162.988 139.076 165.924C138.767 168.397 138.458 171.025 137.685 173.652C137.222 175.197 136.758 176.743 136.449 178.134C134.44 185.243 132.585 191.271 134.131 198.071C134.131 198.38 134.44 198.535 134.749 198.535H134.903C135.213 198.535 135.367 198.226 135.367 197.762C133.822 191.425 135.676 185.398 137.685 178.443C138.149 177.052 138.613 175.507 138.922 173.961C139.695 171.179 140.004 168.552 140.313 166.079C140.776 162.215 141.24 158.506 143.095 154.951C143.404 154.642 143.558 154.333 143.867 154.024C144.022 154.024 144.949 153.715 146.34 152.942C146.34 154.487 146.34 156.033 146.031 158.351C146.031 158.506 146.031 158.66 146.186 158.815C146.34 158.969 147.422 160.206 149.74 160.206C151.44 160.206 153.604 159.588 156.386 157.269C163.032 151.86 164.577 145.833 164.732 145.523C164.732 145.523 164.732 145.369 164.732 145.214C164.423 143.669 164.268 142.123 164.114 140.423C166.896 139.341 169.678 139.032 171.996 139.496C160.25 145.214 161.641 164.07 162.414 176.588C162.568 178.443 162.723 180.143 162.723 181.689C162.723 181.998 163.032 182.307 163.341 182.307C163.65 182.307 163.959 181.998 163.959 181.689C163.959 180.143 163.805 178.443 163.65 176.588C162.723 163.915 161.486 144.596 173.85 139.96C175.087 140.269 176.169 140.887 177.251 141.66C179.723 143.36 181.887 145.987 183.433 149.387C184.515 155.878 184.515 161.442 184.36 169.17C184.36 169.479 184.669 169.788 184.978 169.788C185.287 169.788 185.596 169.479 185.596 169.17C185.751 163.142 185.751 158.506 185.287 153.715C186.524 157.733 187.296 162.37 187.451 167.315C187.451 167.624 187.76 167.933 188.069 167.933C188.378 167.933 188.687 167.624 188.687 167.315C187.451 154.951 183.587 145.214 177.096 140.887ZM142.94 152.015C142.786 153.251 141.549 154.797 140.004 155.26C139.385 155.415 138.767 155.415 138.458 155.26C138.149 154.951 138.149 154.642 138.149 154.178C138.304 152.942 139.54 151.396 141.086 150.933C141.395 150.778 141.704 150.778 141.858 150.778C142.167 150.778 142.322 150.778 142.631 150.933C142.94 151.242 143.095 151.706 142.94 152.015ZM162.105 125.741C162.105 123.268 161.95 121.568 162.105 120.795C162.259 120.641 162.568 120.486 162.723 120.332C162.723 120.332 162.877 120.332 162.877 120.177C163.032 120.022 163.186 120.022 163.186 119.868C163.032 121.413 162.568 123.577 162.105 125.741ZM167.668 107.195C167.514 111.058 165.968 115.077 163.65 117.704C163.186 118.322 162.568 118.786 162.105 119.25C161.023 119.559 160.095 119.404 159.168 118.786C157.777 117.704 157.004 115.54 157.159 112.604C157.313 108.122 159.632 103.176 162.568 100.549C163.032 100.394 163.341 100.394 163.805 100.394C164.423 100.394 164.886 100.549 165.35 100.858C167.05 101.785 167.823 104.258 167.668 107.195ZM158.55 119.868C159.014 120.177 159.477 120.486 160.095 120.641C159.014 121.104 157.932 120.95 157.159 120.486C155.613 119.559 154.841 117.086 154.995 114.15C155.15 110.286 156.85 106.267 159.014 103.64C157.468 106.422 156.386 109.668 156.232 112.759C156.077 116.004 156.85 118.632 158.55 119.868ZM175.396 58.3564C178.487 62.2201 177.096 72.5751 174.623 80.4572C172.769 86.0211 174.469 87.4121 175.396 87.7212C175.705 87.8757 176.014 87.8757 176.169 87.8757C177.56 87.8757 179.26 86.4848 180.496 84.4756C181.578 82.621 181.733 80.7663 181.114 79.6845C180.805 79.2208 180.342 78.9117 179.723 78.9117C178.642 78.9117 177.56 79.9936 176.787 81.8482C176.632 82.1573 176.787 82.4664 177.096 82.621C177.405 82.7755 177.714 82.621 177.869 82.3119C178.642 80.7663 179.414 80.1481 179.878 79.9936C180.033 79.9936 180.033 79.9936 180.187 80.1481C180.496 80.6118 180.496 82.0028 179.569 83.7028C178.487 85.712 176.787 86.7939 175.86 86.4848C175.087 86.1757 174.623 84.4756 175.86 80.6118C176.169 80.1481 179.414 73.5024 184.36 75.6661C184.978 75.9752 185.596 76.748 185.906 78.139C186.833 82.1573 185.133 89.1121 180.805 94.0578C178.332 96.8397 175.241 98.2307 172.769 97.767C171.223 97.4579 170.141 96.5306 169.523 94.8305C170.296 86.9484 169.214 79.9936 166.432 75.8207C166.896 74.8934 168.132 72.1115 167.359 69.6386C166.896 68.4022 166.123 67.4749 164.732 66.8567C163.496 66.393 162.259 66.2385 161.332 66.5476C161.795 63.9202 163.959 56.6563 171.532 56.1926C173.078 56.5017 174.469 57.1199 175.396 58.3564ZM165.35 75.0479C163.341 72.7297 160.714 71.4932 157.623 71.8024C157.313 71.8024 157.159 71.8023 156.85 71.9569C158.086 70.2568 160.714 67.0112 163.959 68.4022C165.041 68.8659 165.659 69.4841 165.968 70.4114C166.587 71.9569 165.814 73.9661 165.35 75.0479ZM159.014 58.9746C162.414 52.4834 167.978 49.856 171.223 51.247C172.923 51.8652 173.541 53.5653 173.232 55.729C172.614 55.5744 171.841 55.4199 171.069 55.5744C161.95 56.1926 159.941 65.7748 159.786 67.6295C158.704 68.2477 157.623 69.175 156.85 70.1023C156.386 68.7113 155.613 65.4657 159.014 58.9746ZM157.777 72.8842C160.559 72.7297 162.877 73.657 164.577 75.8207C168.596 80.4572 169.523 90.194 167.205 100.858C166.896 100.549 166.587 100.085 166.123 99.9307C165.659 99.6216 165.196 99.4671 164.732 99.3125C164.732 97.3034 164.423 89.8849 161.95 85.4029C158.086 78.4481 152.213 76.5934 144.022 79.839C143.558 79.9936 143.095 80.1481 142.631 80.4572C147.113 76.748 152.831 73.3479 157.777 72.8842ZM144.64 80.9209C154.686 76.9026 158.859 81.8482 161.023 86.0211C163.341 90.0394 163.65 97.3034 163.65 99.3125C163.032 99.3125 162.259 99.4671 161.641 99.9307C161.023 100.24 160.404 100.549 159.941 101.013C159.632 98.0761 158.241 88.9576 152.677 86.3302H152.522C151.904 86.0211 151.286 85.8666 150.668 85.8666C147.422 85.4029 143.713 86.1757 139.54 87.8757C138.922 88.1848 138.304 88.3394 137.685 88.6485C137.222 88.803 136.604 89.1121 135.985 89.4212C134.903 89.8849 133.667 90.5031 132.276 91.1213C133.976 88.1848 137.531 83.8574 144.64 80.9209ZM117.594 99.0034C118.676 97.3034 120.53 95.2942 123.93 94.8305C126.403 94.5214 128.721 93.9032 131.194 92.8214C133.358 92.0486 135.058 91.1213 136.449 90.5031C137.067 90.194 137.685 89.8849 138.149 89.7303C138.767 89.4212 139.231 89.2667 139.849 88.9576C142.167 88.0303 144.331 87.4121 146.34 87.103C143.713 89.5758 137.222 95.4488 131.967 97.9216C130.112 98.8489 128.258 99.6216 126.403 100.394C122.694 101.94 118.83 103.64 115.584 106.113C115.584 104.258 115.894 101.476 117.594 99.0034ZM111.102 125.277C110.175 124.659 109.557 123.732 109.402 122.341C108.784 118.786 110.639 113.531 113.73 109.822C117.13 105.649 121.921 103.64 127.021 101.476C128.876 100.704 130.731 99.9308 132.585 99.0034C138.922 95.7579 146.958 88.1848 148.349 86.9484C149.122 86.9484 149.74 86.9484 150.513 87.103C150.822 87.103 151.131 87.2575 151.44 87.4121C149.74 89.8849 142.94 99.0034 129.494 106.113C121.921 110.131 117.594 116.004 116.203 123.886C115.739 124.195 113.575 126.823 111.102 125.277ZM126.712 124.504C126.712 124.504 126.712 124.35 126.558 124.35C126.249 124.041 125.321 123.577 123.93 125.123C123.776 125.432 123.776 125.741 123.93 125.895C124.239 126.05 124.548 126.05 124.703 125.895C125.321 125.277 125.63 125.123 125.63 125.123C125.63 125.123 125.785 125.277 125.785 125.432C125.939 126.205 125.63 127.75 124.548 128.832C124.085 129.296 123.467 129.759 123.158 129.296C122.385 128.677 122.076 126.205 124.394 122.495C125.012 121.413 125.785 120.486 126.558 119.713C126.558 120.332 126.558 121.104 126.558 121.723C126.558 122.804 126.712 123.577 126.712 124.504ZM123.621 122.032C120.994 126.359 121.303 129.296 122.694 130.377C123.003 130.687 123.467 130.687 123.776 130.687C124.394 130.687 125.167 130.377 125.785 129.605C126.249 128.986 126.712 128.214 127.021 127.441C127.021 127.596 127.021 127.595 127.021 127.75C125.167 132.232 122.23 133.932 120.221 133.468C118.212 133.005 117.13 130.687 117.285 127.286C117.285 126.05 117.439 124.968 117.594 123.886C118.83 116.313 123.003 110.595 130.267 106.731C144.177 99.3125 151.286 89.7303 152.677 87.4121C158.241 90.3485 158.859 101.631 159.014 101.785C156.695 104.258 154.995 107.813 154.377 111.677C148.659 108.586 150.668 96.5306 150.822 96.3761C150.822 96.067 150.668 95.7579 150.513 95.7579C150.204 95.6033 149.895 95.7579 149.74 96.067C149.74 96.067 145.877 102.713 141.086 107.504C138.149 110.44 135.367 112.295 132.74 113.995C128.876 116.313 125.939 118.322 123.621 122.032ZM141.086 148.151C138.767 149.078 136.604 148.924 134.903 147.842C130.421 144.905 127.949 135.478 127.949 122.032C127.949 121.104 127.949 120.177 127.949 119.25C127.949 119.095 127.949 119.095 127.794 118.941C129.34 117.55 131.04 116.313 133.049 115.231C135.676 113.531 138.613 111.677 141.704 108.586C144.795 105.495 147.577 101.476 149.122 99.158C148.813 103.176 148.968 110.904 154.068 113.222C154.068 113.531 154.068 113.84 154.068 114.15C153.913 117.704 154.841 120.332 156.695 121.568C157.313 122.032 158.086 122.186 158.859 122.186C159.014 122.186 159.014 122.186 159.168 122.186C158.859 124.504 157.777 132.077 155.459 137.641C152.831 143.823 149.586 146.914 147.113 148.615C146.958 147.224 146.649 146.296 146.495 145.833C148.04 144.133 149.74 142.123 151.286 139.496C151.44 139.187 151.44 138.878 151.131 138.723C150.822 138.569 150.513 138.569 150.359 138.878C146.958 143.823 144.022 146.914 141.086 148.151ZM144.022 152.633C144.022 152.478 144.177 152.324 144.177 152.169C144.177 151.86 144.177 151.551 144.177 151.242C145.722 150.778 152.059 148.151 156.386 137.95C159.014 131.768 160.095 123.577 160.25 121.723C160.404 121.723 160.714 121.568 160.868 121.413C160.559 124.35 159.323 132.541 156.232 139.496C152.368 148.151 146.495 151.551 144.022 152.633ZM154.995 156.497C150.05 160.515 147.422 158.969 146.649 158.351C146.958 155.878 146.958 154.178 146.958 152.478C149.895 150.624 154.222 146.914 157.313 140.114C159.168 135.941 160.404 131.305 161.177 127.441C161.332 132.232 161.795 139.032 162.877 145.523C162.568 146.451 160.714 151.86 154.995 156.497Z" fill="#184B7E"/>
<path d="M140.158 136.25C140.313 135.941 140.313 135.632 140.158 135.478C139.849 135.323 139.54 135.323 139.385 135.478C138.304 136.714 137.84 136.714 137.84 136.714C137.685 136.714 137.222 136.096 137.685 131.768C138.304 126.204 137.685 124.659 137.685 124.35C137.531 124.041 137.222 123.886 136.913 124.041C136.604 124.195 136.449 124.504 136.604 124.813C136.604 124.813 137.067 126.359 136.604 131.614C136.14 135.632 136.449 137.178 137.376 137.641C137.531 137.641 137.685 137.796 137.84 137.796C138.613 137.95 139.385 137.178 140.158 136.25Z" fill="#184B7E"/>
<path d="M132.894 121.722C132.122 122.186 131.503 123.423 131.503 124.504C131.503 125.586 132.122 126.05 132.894 125.586C133.667 125.123 134.285 123.886 134.285 122.804C134.44 121.722 133.667 121.259 132.894 121.722Z" fill="#184B7E"/>
<path d="M145.568 114.304C144.795 114.768 144.177 116.004 144.177 117.086C144.177 118.168 144.795 118.631 145.568 118.168C146.34 117.704 146.958 116.468 146.958 115.386C147.113 114.304 146.34 113.84 145.568 114.304Z" fill="#184B7E"/>
<path d="M143.867 137.487C143.713 137.796 143.404 138.105 143.249 138.414C142.631 137.951 141.704 137.796 140.313 138.414C138.922 139.187 138.458 140.423 138.304 141.042C138.149 141.042 137.994 141.042 137.994 141.042C137.685 141.042 137.376 141.196 137.222 141.505C137.067 141.814 137.376 142.123 137.685 142.278C137.685 142.278 137.994 142.278 138.304 142.278C138.458 142.896 138.767 143.669 139.385 144.133C139.54 144.287 139.849 144.287 140.158 144.287C140.467 144.287 140.776 144.287 141.24 143.978C143.095 143.051 143.404 140.578 143.558 139.496C143.867 139.032 144.331 138.723 144.64 138.105C144.795 137.796 144.795 137.487 144.486 137.332C144.486 137.178 144.177 137.178 143.867 137.487ZM140.931 139.342C141.704 138.878 142.167 139.032 142.476 139.187C141.395 140.269 140.467 140.732 139.695 140.887C139.695 140.423 140.158 139.805 140.931 139.342ZM140.931 142.896C140.622 143.051 140.313 143.051 140.158 143.051C139.849 142.896 139.695 142.433 139.695 142.123C140.467 141.969 141.395 141.66 142.476 140.887C142.167 141.505 141.704 142.433 140.931 142.896Z" fill="#184B7E"/>
<path d="M125.785 213.526L113.266 220.79C111.875 221.563 110.639 220.79 110.639 218.781C110.639 216.927 111.875 214.608 113.266 213.835L125.785 206.572C127.176 205.799 128.412 206.572 128.412 208.581C128.258 210.59 127.176 212.754 125.785 213.526Z" fill="#A2E0DC"/>
<path d="M112.184 221.717C111.875 221.717 111.566 221.563 111.257 221.408C110.484 220.945 110.021 220.017 110.021 218.781C110.021 216.617 111.257 214.299 112.957 213.372L125.476 206.108C126.249 205.644 127.021 205.644 127.794 205.953C128.567 206.417 129.031 207.344 129.031 208.581C129.031 210.744 127.794 213.063 126.094 213.99L113.575 221.254C112.957 221.563 112.648 221.717 112.184 221.717ZM126.712 207.035C126.403 207.035 126.249 207.19 125.939 207.19L113.421 214.454C112.184 215.226 111.103 217.236 111.103 218.936C111.103 219.708 111.257 220.327 111.721 220.481C112.03 220.636 112.493 220.481 112.803 220.327L125.321 213.063C126.558 212.29 127.64 210.281 127.64 208.581C127.64 207.808 127.485 207.19 127.021 207.035C127.021 207.035 126.867 207.035 126.712 207.035Z" fill="#184B7E"/>
<path d="M18.2169 265.765C18.0624 265.765 18.0624 265.765 17.9078 265.765C17.7533 265.61 17.5987 265.456 17.5987 265.301V129.296C17.5987 129.141 17.7533 128.832 17.9078 128.832L200.124 23.7368C200.279 23.5822 200.588 23.5822 200.742 23.7368C200.897 23.8913 201.052 24.0459 201.052 24.2004V160.206C201.052 160.36 200.897 160.67 200.742 160.67L18.526 265.765C18.3715 265.61 18.2169 265.765 18.2169 265.765ZM18.6806 129.45V264.065L199.815 159.588V24.9732L18.6806 129.45Z" fill="#184B7E"/>
<path opacity="0.5" d="M103.993 209.508L24.399 255.41V131.15L103.993 85.2482V209.508Z" fill="#93BFCB"/>
<path d="M37.9996 197.916C38.1541 199.771 38.6178 202.089 40.0087 203.017C42.1725 204.562 45.2635 202.707 45.2635 202.707V193.589L71.0736 178.752C72.7737 177.825 74.0101 175.197 74.0101 173.034V145.987C74.0101 143.823 72.6191 142.741 71.0736 143.669L32.7448 165.77C31.0447 166.697 29.8083 169.324 29.8083 171.488V198.689C29.8083 200.853 31.1993 201.935 32.7448 201.007L37.9996 197.916Z" fill="#A2E0DC"/>
<path d="M42.0179 204.253C41.2451 204.253 40.3178 204.098 39.6996 203.48C38.3086 202.553 37.845 200.544 37.5359 198.844L33.0539 201.471C32.1266 201.935 31.1993 202.089 30.5811 201.626C29.8083 201.162 29.1901 200.08 29.1901 198.689V171.488C29.1901 169.015 30.5811 166.388 32.4357 165.306L70.7645 143.205C71.6918 142.741 72.6191 142.587 73.2373 143.051C74.0101 143.514 74.6283 144.596 74.6283 145.987V173.188C74.6283 175.661 73.2373 178.288 71.3827 179.37L45.8817 194.053V202.708C45.8817 202.862 45.7271 203.171 45.5726 203.171C45.418 203.326 43.8725 204.253 42.0179 204.253ZM37.9995 197.298C38.1541 197.298 38.1541 197.298 38.3086 197.298C38.4632 197.453 38.6177 197.607 38.6177 197.762C38.7723 200.235 39.3905 201.935 40.3178 202.553C41.8633 203.635 43.8725 202.708 44.6453 202.398V193.744C44.6453 193.589 44.7998 193.28 44.9544 193.28L70.7645 178.443C72.1555 177.67 73.3919 175.197 73.3919 173.188V145.987C73.3919 145.06 73.0828 144.287 72.6191 144.132C72.1555 143.823 71.6918 144.132 71.2282 144.287L33.0539 166.388C31.6629 167.161 30.4265 169.633 30.4265 171.643V198.844C30.4265 199.771 30.7356 200.544 31.1993 200.698C31.6629 201.007 32.1266 200.698 32.5902 200.544L37.845 197.453C37.845 197.453 37.845 197.298 37.9995 197.298Z" fill="#184B7E"/>
<path d="M36.6086 173.497C36.4541 173.497 36.1449 173.343 36.1449 173.188C35.9904 172.879 36.145 172.57 36.2995 172.415L66.7462 154.797C67.0553 154.642 67.3644 154.797 67.5189 154.951C67.6735 155.26 67.5189 155.569 67.3644 155.724L36.9177 173.343C36.7632 173.497 36.7632 173.497 36.6086 173.497Z" fill="#184B7E"/>
<path d="M36.6086 179.061C36.4541 179.061 36.1449 178.907 36.1449 178.752C35.9904 178.443 36.145 178.134 36.2995 177.979L66.7462 160.36C67.0553 160.206 67.3644 160.36 67.5189 160.515C67.6735 160.824 67.5189 161.133 67.3644 161.288L36.9177 178.907C36.7632 178.907 36.7632 179.061 36.6086 179.061Z" fill="#184B7E"/>
<path d="M36.6086 184.47C36.4541 184.47 36.1449 184.316 36.1449 184.161C35.9904 183.852 36.145 183.543 36.2995 183.389L66.7462 165.77C67.0553 165.615 67.3644 165.77 67.5189 165.924C67.6735 166.233 67.5189 166.542 67.3644 166.697L36.9177 184.316C36.7632 184.47 36.7632 184.47 36.6086 184.47Z" fill="#184B7E"/>
<path d="M36.6086 189.88C36.4541 189.88 36.1449 189.725 36.1449 189.571C35.9904 189.262 36.145 188.952 36.2995 188.798L66.7462 171.179C67.0553 171.024 67.3644 171.179 67.5189 171.334C67.6735 171.643 67.5189 171.952 67.3644 172.106L36.9177 189.725C36.7632 189.88 36.7632 189.88 36.6086 189.88Z" fill="#184B7E"/>
<path d="M87.3015 206.571C87.147 208.58 86.6833 211.517 85.2924 213.99C83.1286 218.008 80.0376 219.708 80.0376 219.708V210.59L54.382 225.427C52.8365 226.354 51.6001 225.427 51.6001 223.263V201.007C51.6001 198.998 52.8365 196.525 54.382 195.598L92.8654 173.343C94.4109 172.415 95.6473 173.343 95.6473 175.506V197.916C95.6473 199.926 94.4109 202.398 92.8654 203.326L87.3015 206.571Z" fill="white"/>
<path d="M53.3001 226.354C52.991 226.354 52.5274 226.199 52.2183 226.045C51.4455 225.581 50.9819 224.499 50.9819 223.263V201.007C50.9819 198.689 52.3728 196.062 54.0729 195.134L92.5563 172.879C93.4836 172.415 94.2563 172.261 95.0291 172.724C95.8019 173.188 96.2655 174.27 96.2655 175.506V197.916C96.2655 200.235 94.8745 202.862 93.1745 203.789L87.7652 206.88C87.6106 208.89 87.147 211.826 85.756 214.299C83.4377 218.472 80.5012 220.172 80.3467 220.326C80.1921 220.481 79.883 220.481 79.7285 220.326C79.5739 220.172 79.4194 220.017 79.4194 219.863V211.826L54.6911 226.045C54.2275 226.354 53.7638 226.354 53.3001 226.354ZM94.1018 173.497C93.7927 173.497 93.4836 173.652 93.329 173.806L54.6911 196.062C53.3001 196.834 52.2183 199.153 52.2183 201.007V223.417C52.2183 224.345 52.5274 224.963 52.8365 225.272C53.3001 225.581 53.7638 225.272 54.0729 225.117L79.7285 210.28C79.883 210.126 80.1921 210.126 80.3467 210.28C80.5012 210.435 80.6558 210.59 80.6558 210.744V218.626C81.7377 217.853 83.4377 216.308 84.8287 213.681C86.2197 211.208 86.5288 208.426 86.6833 206.417C86.6833 206.262 86.8379 206.108 86.9924 205.953L92.5563 202.707C93.9472 201.935 95.0291 199.616 95.0291 197.762V175.352C95.0291 174.424 94.72 173.806 94.4109 173.497C94.4109 173.497 94.2563 173.497 94.1018 173.497Z" fill="#184B7E"/>
<path d="M58.5549 203.171C58.4004 203.171 58.0913 203.017 58.0913 202.862C57.9367 202.553 58.0913 202.244 58.2458 202.089L88.6925 184.471C89.0016 184.316 89.3107 184.471 89.4653 184.625C89.6198 184.934 89.4653 185.243 89.3107 185.398L58.864 203.017C58.7095 203.171 58.5549 203.171 58.5549 203.171Z" fill="#184B7E"/>
<path d="M58.5549 208.58C58.4004 208.58 58.0913 208.426 58.0913 208.271C57.9367 207.962 58.0913 207.653 58.2458 207.499L88.6925 189.88C89.0016 189.725 89.3107 189.88 89.4653 190.034C89.6198 190.343 89.4653 190.652 89.3107 190.807L58.864 208.426C58.7095 208.58 58.5549 208.58 58.5549 208.58Z" fill="#184B7E"/>
<path d="M58.5549 214.144C58.4004 214.144 58.0913 213.99 58.0913 213.835C57.9367 213.526 58.0913 213.217 58.2458 213.062L88.6925 195.444C89.0016 195.289 89.3107 195.444 89.4653 195.598C89.6198 195.907 89.4653 196.216 89.3107 196.371L58.864 213.99C58.7095 213.99 58.5549 214.144 58.5549 214.144Z" fill="#184B7E"/>
<path d="M86.0651 127.75C85.9106 129.759 85.4469 132.696 84.0559 135.169C81.8922 139.187 78.8012 140.887 78.8012 140.887V131.768L54.382 145.833C52.8365 146.76 51.6001 145.833 51.6001 143.669V129.141C51.6001 127.132 52.8365 124.659 54.382 123.732L93.0199 101.476C94.5655 100.549 95.8019 101.476 95.8019 103.64V118.168C95.8019 120.177 94.5655 122.65 93.0199 123.577L86.0651 127.75Z" fill="white"/>
<path d="M53.3001 146.914C52.991 146.914 52.5274 146.76 52.2183 146.605C51.4455 146.142 50.9819 145.06 50.9819 143.823V129.296C50.9819 126.977 52.3728 124.35 54.0729 123.423L92.7108 101.167C93.6381 100.704 94.4109 100.549 95.1837 101.013C95.9564 101.476 96.4201 102.558 96.4201 103.795V118.322C96.4201 120.641 95.0291 123.268 93.329 124.195L86.6833 128.059C86.5288 130.068 86.0651 133.005 84.6741 135.478C82.3559 139.651 79.4194 141.351 79.2648 141.505C79.1103 141.66 78.8012 141.66 78.6466 141.505C78.4921 141.351 78.3375 141.196 78.3375 141.041V133.005L54.6911 146.451C54.2275 146.76 53.7638 146.914 53.3001 146.914ZM94.1018 101.785C93.7927 101.785 93.4836 101.94 93.329 102.094L54.6911 124.35C53.3001 125.123 52.2183 127.441 52.2183 129.296V143.823C52.2183 144.751 52.5274 145.369 52.8365 145.523C53.3001 145.833 53.7638 145.523 54.0729 145.369L78.4921 131.305C78.6466 131.15 78.9557 131.15 79.1103 131.305C79.4194 131.459 79.4194 131.614 79.4194 131.768V139.651C80.5012 138.878 82.2013 137.332 83.5923 134.705C84.9832 132.232 85.2923 129.45 85.4469 127.441C85.4469 127.286 85.6014 127.132 85.756 126.977L92.7108 122.959C94.1018 122.186 95.1837 119.868 95.1837 118.013V103.64C95.1837 102.713 94.8745 102.094 94.5654 101.94C94.4109 101.785 94.2563 101.785 94.1018 101.785Z" fill="#184B7E"/>
<path d="M58.5549 130.377C58.4004 130.377 58.0913 130.223 58.0913 130.068C57.9367 129.759 58.0913 129.45 58.2458 129.295L88.6925 111.677C89.0016 111.522 89.3107 111.677 89.4653 111.831C89.6198 112.14 89.4653 112.449 89.3107 112.604L58.7095 130.377H58.5549Z" fill="#184B7E"/>
<path d="M58.5549 135.941C58.4004 135.941 58.0913 135.787 58.0913 135.632C57.9367 135.323 58.0913 135.014 58.2458 134.859L88.6925 117.241C89.0016 117.086 89.3107 117.241 89.4653 117.395C89.6198 117.704 89.4653 118.013 89.3107 118.168L58.7095 135.787L58.5549 135.941Z" fill="#184B7E"/>
<path d="M195.951 66.8566C195.797 66.8566 195.797 66.8566 195.642 66.702L169.368 51.4014C169.059 51.2468 169.059 50.9377 169.214 50.6286C169.368 50.3195 169.678 50.3195 169.987 50.4741L196.26 65.7747C196.57 65.9292 196.57 66.2383 196.415 66.5474C196.26 66.702 196.106 66.8566 195.951 66.8566Z" fill="white"/>
<path d="M195.951 60.8291C195.797 60.8291 195.797 60.8291 195.642 60.6746L174.469 48.3104C174.16 48.1559 174.16 47.8468 174.314 47.5377C174.469 47.2286 174.778 47.2286 175.087 47.3831L196.26 59.7473C196.57 59.9018 196.57 60.2109 196.415 60.52C196.26 60.6746 196.106 60.8291 195.951 60.8291Z" fill="white"/>
</g>
<defs>
<clipPath id="clip0_63_2">
<rect width="202.308" height="268.456" fill="white" transform="translate(3.68909 14)"/>
</clipPath>
</defs>
</svg>
