<svg width="111" height="28" viewBox="0 0 111 28" fill="none" xmlns="http://www.w3.org/2000/svg">
<g clip-path="url(#clip0_380_2)">
<path d="M0.037645 28L97.6737 27.7258C104.766 27.7182 110.503 21.8912 110.496 14.7236C110.488 7.54842 104.728 1.74428 97.6436 1.7519L0 2.02611L0.037645 28Z" fill="#95B3D8"/>
<path d="M0.037645 26.2481L98.1781 25.9739C105.27 25.9663 111.008 20.1393 111 12.9717C110.985 5.79653 105.233 -0.00760949 98.1405 7.48845e-06L0 0.274219L0.037645 26.2481Z" fill="#2E66B0"/>
<path d="M43.9843 15.6681L60.9773 15.691L60.8417 17.2449H57.0622C57.9807 18.2046 58.9595 19.3091 59.9985 20.5659L58.5228 21.419C58.0711 20.9848 57.6419 20.543 57.2052 20.1469C52.9739 20.4668 49.104 20.7639 45.5955 21.0381L45.3094 19.0272C45.8741 18.7835 46.499 18.4255 47.154 17.9304C47.4477 17.7247 47.7338 17.4734 48.0349 17.2296H43.8789L43.9918 15.6681H43.9843ZM45.0308 7.00002H51.9726L52.0403 6.1393H46.0021L46.115 4.61591L60.4879 4.63876L60.3599 6.15453H54.3216L54.2539 7.01525H61.1203L60.774 11.1056H58.5454L58.7637 8.50056H54.1409L53.8172 12.5909H51.551L51.8672 8.49295H47.1691L46.9809 11.0827H44.7523L45.0384 7.00002H45.0308ZM45.1814 13.1088L60.2469 13.1317L60.119 14.6475L45.076 14.6246L45.1814 13.1088ZM47.5305 11.2122H51.0842L50.9938 12.4309H47.4401L47.5305 11.2122ZM47.6886 9.31558H51.2272L51.1369 10.5343H47.5982L47.6886 9.31558ZM55.4811 17.2372H50.8884C50.0828 17.8923 49.345 18.4636 48.6523 18.9739L55.7446 18.852C55.3079 18.4712 54.8863 18.1132 54.4421 17.7704L55.4811 17.2372ZM54.4948 11.2198H57.9732L57.8753 12.4385H54.3969L54.4948 11.2198ZM54.6454 9.3232H58.1087L58.0108 10.5419H54.5475L54.6454 9.3232Z" fill="white"/>
<path d="M71.3672 18.4788C69.4397 19.1796 67.3392 19.8194 65.0278 20.4059L64.7793 18.1513C65.9237 17.9837 67.0305 17.8314 68.1146 17.6638C68.845 14.7998 69.4172 11.8825 69.8614 8.88142L71.9093 9.24704C71.3145 11.9587 70.6067 14.6703 69.7936 17.3439C70.3131 17.2525 70.8477 17.1382 71.3672 17.0392V18.4788ZM72.1577 8.06641H65.9388L66.0818 6.46684H68.4534C68.2803 5.67468 68.0092 4.83681 67.6855 3.98371L69.9969 3.72473C70.1023 4.67685 70.1701 5.58327 70.1851 6.47446H72.3083L72.1577 8.07403V8.06641ZM68.0243 8.91189C68.1598 11.7759 68.0996 14.3733 67.821 16.7498L66.383 17.0164C66.526 14.9826 66.398 12.4081 65.999 9.27751L68.0168 8.91951L68.0243 8.91189ZM71.9394 10.0392L83.1802 10.0544L83.0221 11.6083H77.827L76.901 13.1545H82.5477L81.8776 19.6899C81.8174 20.2764 81.6443 20.6954 81.3506 20.9391C81.0645 21.1676 80.6429 21.2819 80.0632 21.2819C79.7846 21.2819 79.4684 21.2438 79.0994 21.1828L78.9338 19.629L78.8058 20.901H76.9687L77.5786 14.716H76.6751L76.0653 20.901H74.2282L74.8305 14.716H73.8291L73.2042 21.2057H71.2542L72.0147 13.1622H75.1091L75.6587 11.6083H71.8039L71.9469 10.0468L71.9394 10.0392ZM72.76 8.99568L73.1741 4.63115H75.2295L74.9585 7.44182H76.7429L77.0892 3.89992H79.3328L78.979 7.44943H80.6128L80.8989 4.64639H82.9543L82.5026 9.01091L72.7676 8.99568H72.76ZM80.417 14.716H79.4157L78.9338 19.4919C79.0769 19.53 79.2124 19.5528 79.3404 19.5528C79.5662 19.5528 79.7168 19.5147 79.7996 19.4614C79.8825 19.4005 79.9276 19.3319 79.9578 19.2329L80.417 14.716Z" fill="white"/>
<path d="M35.4766 20.124C35.4766 20.7638 34.9571 21.297 34.3096 21.297H18.0545C17.4145 21.297 16.895 20.7638 16.895 20.124C16.895 19.4766 17.4145 18.951 18.0545 18.951H34.3096C34.9571 18.951 35.4766 19.4766 35.4766 20.124ZM28.5123 20.124C28.5123 19.7965 28.2563 19.5299 27.9325 19.5299H24.4541C24.1379 19.5299 23.8744 19.7889 23.8744 20.124C23.8744 20.4515 24.1379 20.7105 24.4541 20.7105H27.9325C28.2563 20.7105 28.5123 20.4439 28.5123 20.124Z" fill="white"/>
<path d="M31.3733 17.6714H21.0134C18.8977 17.6714 17.1736 15.9423 17.1736 13.7943V8.10445C17.1736 5.96408 18.8977 4.21979 21.0134 4.21979H31.3733C33.4889 4.21979 35.2131 5.96408 35.2131 8.10445V13.7943C35.2131 15.9423 33.4889 17.6714 31.3733 17.6714ZM21.0134 5.7051C19.7033 5.7051 18.6417 6.77909 18.6417 8.10445V13.7943C18.6417 15.1273 19.7109 16.1861 21.0134 16.1861H31.3733C32.6758 16.1861 33.7449 15.1273 33.7449 13.7943V8.10445C33.7449 6.77909 32.6758 5.7051 31.3733 5.7051H21.0134Z" fill="white"/>
<path d="M26.9688 12.5833C27.3904 13.0174 27.3904 13.7029 26.9688 14.1371C26.5396 14.5713 25.847 14.5713 25.4178 14.1371C24.9887 13.7029 24.9887 13.0098 25.4178 12.5833C25.8394 12.1491 26.5321 12.1491 26.9688 12.5833Z" fill="white"/>
<path d="M23.3549 11.0446C23.0764 11.3341 23.0764 11.7682 23.3549 12.0577C23.641 12.3548 24.0702 12.3624 24.3563 12.0805C25.3727 11.0675 27.014 11.0675 28.0304 12.0577C28.309 12.3471 28.7382 12.3471 29.0318 12.0577C29.1673 11.9206 29.2501 11.7225 29.2501 11.5474C29.2501 11.3645 29.1824 11.1894 29.0318 11.0523C28.2714 10.3058 27.2625 9.89447 26.1934 9.89447C25.1242 9.89447 24.1154 10.3058 23.3549 11.0523V11.0446Z" fill="white"/>
<path d="M26.1933 7.41894C24.5294 7.40371 22.873 8.10447 21.6533 9.33081C21.3747 9.61263 21.3747 10.0468 21.6608 10.3362C21.9469 10.6181 22.3761 10.6333 22.6547 10.3515C23.6033 9.39936 24.8607 8.87379 26.2008 8.86617C27.4958 8.85094 28.7908 9.39936 29.7319 10.3515C30.018 10.6333 30.4472 10.6257 30.7408 10.3362C30.8763 10.1915 30.9591 10.0011 30.9591 9.81829C30.9591 9.63548 30.8839 9.46791 30.7483 9.33081C29.5286 8.11209 27.9099 7.42656 26.2008 7.41894H26.1933Z" fill="white"/>
</g>
<defs>
<clipPath id="clip0_380_2">
<rect width="111" height="28" fill="white"/>
</clipPath>
</defs>
</svg>
