<svg width="111" height="28" viewBox="0 0 111 28" fill="none" xmlns="http://www.w3.org/2000/svg">
<g clip-path="url(#clip0_220_575)">
<path d="M0.0389829 28L97.3092 27.7258C104.591 27.7182 110.485 21.8912 110.478 14.7236C110.47 7.54842 104.552 1.74428 97.2702 1.7519L0 2.02611L0.0389829 28Z" fill="#C7AB95"/>
<path d="M0.0389829 26.2481L97.777 25.9739C105.09 25.9663 111.016 20.1393 111.008 12.9717C110.992 5.79653 105.051 -0.00760949 97.738 7.48845e-06L0 0.274219L0.0389829 26.2481Z" fill="#90572B"/>
<path d="M63.0433 8.16535C62.7704 11.0674 61.9517 13.6877 60.5795 16.0337C61.2423 17.6256 62.1545 18.9967 63.3551 20.1545L62.1779 21.3884C61.0318 20.3068 60.104 19.1109 59.3789 17.8161C58.3965 19.1033 57.2036 20.2992 55.8548 21.3808L55.1141 20.4668L54.1708 21.297C53.3209 20.7257 52.1982 20.1926 50.8182 19.6822C49.1342 20.5734 47.263 21.1371 45.2281 21.3808L44.8928 20.1088C46.2962 19.8269 47.5671 19.4461 48.6898 18.9738C47.9257 18.7453 47.1071 18.5168 46.2494 18.3035C46.6548 17.8313 47.0447 17.3362 47.4111 16.8411H45.4386L45.5477 15.3939H48.4325C48.6274 15.112 48.8067 14.8074 49.0094 14.5255H46.1949L46.4599 11.0141H50.023L50.0776 10.3514H46.842L46.9823 8.43194H45.6881L45.7972 6.91617H47.0915L47.2318 5.08048H50.4752L50.5921 3.60278H52.6816L52.5647 5.08809H55.808L55.6521 6.96949H56.9853L56.884 8.1882C57.5701 6.76383 58.1314 5.24805 58.5836 3.6561L60.8368 3.99887C60.4704 4.85197 60.104 5.66698 59.7219 6.482H64.127L63.9789 8.15773H63.0355L63.0433 8.16535ZM49.9216 12.3623H48.3935L48.3311 13.2154H49.8514L49.9138 12.3623H49.9216ZM50.2257 8.39386H49.025L48.9704 9.14794H50.1633L50.2257 8.39386ZM49.1264 7.13706H50.327L50.3894 6.30681H49.1887L49.1264 7.13706ZM49.5708 16.8487L49.0796 17.42C49.5942 17.5571 50.1243 17.7247 50.6545 17.9151C51.1301 17.5952 51.5823 17.2372 51.9877 16.8563H49.5708V16.8487ZM50.7948 15.4091H56.0653L55.9484 16.8563H54.545C53.8901 17.4961 53.1962 18.0827 52.4711 18.6311C53.3131 19.0119 54.1708 19.4689 55.044 20.0021C56.4318 18.7682 57.5779 17.3895 58.5057 15.889C57.9131 14.3503 57.5311 12.6594 57.3284 10.7856C56.9463 11.334 56.5721 11.8672 56.1979 12.4156L55.6989 11.3492L55.4338 14.5331H51.5277L50.7948 15.4015V15.4091ZM53.5782 12.3623H51.9955L51.9253 13.2154H53.508L53.5782 12.3623ZM55.387 10.3743H52.1514L52.0969 11.037H55.543L55.4416 10.8313C55.9172 10.0696 56.3538 9.29266 56.7514 8.5005H55.5352L55.3792 10.3743H55.387ZM53.508 8.40148H52.3152L52.2528 9.15556H53.4457L53.508 8.40148ZM52.4087 7.14468H53.6094L53.6796 6.31443H52.4789L52.4087 7.14468ZM59.0826 8.15773C59.1528 10.0772 59.3789 11.8215 59.7531 13.3601C60.3612 11.7453 60.7433 10.0239 60.9226 8.16535H59.0748L59.0826 8.15773Z" fill="white"/>
<path d="M67.4172 12.2252C69.4366 9.66592 71.066 6.74862 72.3369 3.50378L74.7304 4.05982C74.0599 5.29377 73.3738 6.50487 72.6487 7.70074L71.3389 21.358H68.9688L69.8732 11.7225C69.2728 12.4994 68.6335 13.2764 67.9942 14.0152L67.4172 12.2328V12.2252ZM79.5409 19.1262C80.7338 16.2089 81.7785 12.9031 82.6752 9.24698L85.1155 9.55166C84.1877 12.7584 82.948 15.9652 81.3887 19.1262H85.4118L85.2324 20.7638L72.181 20.7486L72.3369 19.1186H79.5331L79.5409 19.1262ZM80.5701 3.57234C80.7962 4.65395 80.9443 5.71271 81.0379 6.71815H86.324L86.1524 8.3558L73.7325 8.34056L73.8884 6.71053H79.1355C78.8704 5.8422 78.5274 4.95101 78.0908 4.02174L80.5779 3.57234H80.5701ZM75.7908 18.1131C75.6582 15.3253 75.2294 12.5375 74.4654 9.76494L76.8979 9.39171C77.4826 12.7508 77.6853 15.5995 77.5294 17.8923L75.7908 18.1208V18.1131Z" fill="white"/>
<path d="M35.8019 4.77582H21.1521C19.5616 4.77582 18.283 6.03262 18.283 7.57886V18.4711C18.283 20.025 19.5616 21.2742 21.1521 21.2742H35.8019C37.3924 21.2742 38.671 20.0174 38.671 18.4711V7.57886C38.671 6.03262 37.3924 4.77582 35.8019 4.77582ZM33.6266 6.28398C33.6266 5.99453 33.8683 5.76602 34.1568 5.76602H35.2171C35.5134 5.76602 35.7473 5.99453 35.7473 6.28398V7.31989C35.7473 7.60933 35.5134 7.83022 35.2171 7.83022H34.1568C33.8683 7.83022 33.6266 7.60172 33.6266 7.31989V6.28398ZM29.4867 6.28398C29.4867 5.99453 29.7283 5.76602 30.009 5.76602H31.0694C31.3656 5.76602 31.5995 5.99453 31.5995 6.28398V7.31989C31.5995 7.60933 31.3656 7.83022 31.0694 7.83022H30.009C29.7206 7.83022 29.4867 7.60172 29.4867 7.31989V6.28398ZM25.3389 6.28398C25.3389 5.99453 25.5806 5.76602 25.869 5.76602H26.9294C27.2256 5.76602 27.4595 5.99453 27.4595 6.28398V7.31989C27.4595 7.60933 27.2256 7.83022 26.9294 7.83022H25.869C25.5806 7.83022 25.3389 7.60172 25.3389 7.31989V6.28398ZM21.1911 6.28398C21.1911 5.99453 21.425 5.76602 21.7291 5.76602H22.7816C23.0779 5.76602 23.3196 5.99453 23.3196 6.28398V7.31989C23.3196 7.60933 23.0779 7.83022 22.7816 7.83022H21.7291C21.425 7.83022 21.1911 7.60172 21.1911 7.31989V6.28398ZM23.3196 19.766C23.3196 20.0631 23.0779 20.284 22.7816 20.284H21.7291C21.425 20.284 21.1911 20.0631 21.1911 19.766V18.7377C21.1911 18.4483 21.425 18.2274 21.7291 18.2274H22.7816C23.0779 18.2274 23.3196 18.4483 23.3196 18.7377V19.766ZM27.4517 19.766C27.4517 20.0631 27.2178 20.284 26.9216 20.284H25.8612C25.5728 20.284 25.3311 20.0631 25.3311 19.766V18.7377C25.3311 18.4483 25.5728 18.2274 25.8612 18.2274H26.9216C27.2178 18.2274 27.4517 18.4483 27.4517 18.7377V19.766ZM31.5995 19.766C31.5995 20.0631 31.3656 20.284 31.0694 20.284H30.009C29.7206 20.284 29.4867 20.0631 29.4867 19.766V18.7377C29.4867 18.4483 29.7283 18.2274 30.009 18.2274H31.0694C31.3656 18.2274 31.5995 18.4483 31.5995 18.7377V19.766ZM35.7395 19.766C35.7395 20.0631 35.5056 20.284 35.2093 20.284H34.149C33.8605 20.284 33.6188 20.0631 33.6188 19.766V18.7377C33.6188 18.4483 33.8605 18.2274 34.149 18.2274H35.2093C35.5056 18.2274 35.7395 18.4483 35.7395 18.7377V19.766ZM35.95 16.7269C35.95 17.0925 35.6693 17.3895 35.3185 17.3895H21.6121C21.2691 17.3895 20.9884 17.0925 20.9884 16.7269V9.33077C20.9884 8.96515 21.2691 8.66809 21.6121 8.66809H35.3185C35.6771 8.66809 35.95 8.96515 35.95 9.33077V16.7269Z" fill="white"/>
<path d="M26.3291 15.3025C26.3291 15.6986 26.6098 15.8433 26.9528 15.6529L30.9915 13.3678C31.3345 13.1773 31.3345 12.8574 30.9915 12.6746L26.9528 10.3895C26.6098 10.1991 26.3291 10.3514 26.3291 10.7399V15.2949V15.3025Z" fill="white"/>
</g>
<defs>
<clipPath id="clip0_220_575">
<rect width="111" height="28" fill="white"/>
</clipPath>
</defs>
</svg>
