<svg width="176" height="71" viewBox="0 0 176 71" fill="none" xmlns="http://www.w3.org/2000/svg">
<g filter="url(#filter0_d_95_532)">
<path d="M87.6 18.96C90.04 20.24 93.16 22.24 94.6 23.64L98 20.68C96.44 19.28 93.24 17.44 90.84 16.28L87.6 18.96ZM105.64 12.04V12.72C101.68 20.2 90.88 25 80.08 26.72C80.92 27.76 81.88 29.64 82.28 30.84C93.92 28.48 105.24 23.28 110.44 13.64L107.32 11.84L106.56 12.04H105.64ZM93 12.04V15.96H106.72V12.04H93ZM95.2 8.92C92.48 12.2 87.52 15.56 80.4 17.88C81.44 18.64 82.92 20.28 83.6 21.4C91.08 18.44 96.36 14.68 100.44 10.04L95.2 8.92ZM93.04 34.12C95.52 35.56 98.64 37.8 100.04 39.32L103.76 36.36C102.16 34.8 98.96 32.76 96.52 31.44L93.04 34.12ZM110.68 26.64V27.32C106.96 36.76 96.12 40.96 83.44 42.28C84.24 43.36 85.12 45.32 85.48 46.64C99.24 44.72 110.8 40 115.68 28.08L112.48 26.44L111.64 26.64H110.68ZM98.92 26.64V30.64H111.96V26.64H98.92ZM101.72 22.76C98.64 26.56 92.92 30.4 84.56 32.92C85.56 33.76 86.92 35.52 87.48 36.64C96.32 33.44 102.48 29.2 106.96 23.96L101.72 22.76ZM127.64 41.12V45.36H164.28V41.12H127.64ZM128.28 17.32V21.56H163.72V17.32H128.28ZM133 30.4V43.32H137.24V34.44H140.08V43.32H144.48V34.44H147.32V43.32H151.72V34.44H154.6V43.32H159.08V30.4H133ZM133.96 11.16C135.6 13.4 137.44 16.48 138.24 18.48L142.56 16.28C141.68 14.36 139.84 11.52 138.08 9.36L133.96 11.16ZM153.48 9C152.56 11.36 150.76 14.48 149.24 16.48L153.48 17.92C155 16.08 156.92 13.28 158.6 10.52L153.48 9ZM138.96 18.32C136.52 23.76 131.96 28.52 126.8 31.36C127.92 32.24 129.76 34.08 130.52 35.08C135.72 31.64 140.76 26.08 143.76 19.76L138.96 18.32ZM152.2 18.32L147.96 19.84C151.12 26.04 156.24 31.64 161.88 34.76C162.64 33.56 164.12 31.76 165.2 30.88C159.84 28.32 154.72 23.36 152.2 18.32Z" fill="white"/>
<path d="M39.6117 13.0991L33.3449 16.0313C33.1993 16.1074 33.0454 16.1454 32.8935 16.1454C32.4983 16.1454 32.1635 15.9194 31.9971 15.5919L29.0769 9.06839C29.0228 8.96065 28.9978 8.8508 28.9978 8.74306C28.9978 8.35224 29.3077 8.02057 29.7133 8.02057C29.782 8.02057 29.8527 8.03324 29.9234 8.05648L39.5056 11.7767C39.8197 11.8802 39.9986 12.1717 39.9986 12.4823C39.9986 12.7337 39.853 12.9724 39.6117 13.0991Z" fill="white"/>
<path d="M45.4043 10.4183C45.1423 10.1923 44.8074 10.0507 44.4372 10.0507C43.9754 10.0507 43.5698 10.2662 43.2932 10.5979L38.2889 16.6968C38.0726 16.9609 37.9977 17.2968 37.9977 17.6665C37.9977 18.5072 38.6695 19.1896 39.4973 19.1896C39.9611 19.1896 40.3688 18.972 40.6454 18.6361L44.616 13.7329L46.1365 15.0553L31.8598 32.4395L30.6118 39.5524L37.251 37.1314L53.4703 17.3791L45.4064 10.4141L45.4043 10.4183Z" fill="white"/>
<path d="M56.9979 11.8253C56.9979 12.4358 56.792 13.0273 56.4135 13.5005L54.6788 15.6701L48.4411 10.1394L50.2943 7.86846C50.7394 7.32131 51.4029 7.00655 52.1018 7.00655C52.68 7.00655 53.2374 7.22203 53.6679 7.61285L56.1285 9.84792C56.6838 10.3507 57 11.0711 57 11.8274L56.9979 11.8253Z" fill="white"/>
<path d="M55.881 43.3106L47.7131 27.5637L38.4366 38.8616L28.0348 42.6557L29.809 32.5472L21.223 37.2793C21.0067 37.4018 20.7634 37.4758 20.4992 37.4758C19.6714 37.4758 18.9996 36.7934 18.9996 35.9526C18.9996 35.3801 19.3157 34.8858 19.7754 34.6259L30.7741 28.5312C30.9904 28.4087 31.2338 28.3348 31.4979 28.3348C31.8307 28.3348 32.1344 28.4489 32.384 28.6348L38.5718 21.0993C37.0908 20.6853 35.9989 19.3058 35.9989 17.6707C35.9989 17.4383 36.0176 17.2165 36.0509 17.001L34.181 17.8756C33.8357 18.0594 33.3636 18.1777 32.8935 18.1777C31.76 18.1777 30.7346 17.5418 30.2187 16.5193L26.5435 8.29309L6.53038 19.0924C6.19343 19.2741 6 19.6184 6 19.986C6 20.1487 6.03744 20.3113 6.11648 20.4656L26.3376 59.2772C26.5165 59.6215 26.8451 59.8159 27.2216 59.8159C27.3796 59.8159 27.5398 59.7779 27.6895 59.6976L55.4671 44.6816C55.7998 44.5021 55.9933 44.1577 55.9974 43.8007C55.9995 43.6338 55.9621 43.4648 55.881 43.3085V43.3106ZM14.5007 25.2864C13.6729 25.2864 13.0011 24.604 13.0011 23.7632C13.0011 23.1907 13.3172 22.6964 13.7769 22.4366L24.7756 16.3419C24.9919 16.2194 25.2352 16.1454 25.4994 16.1454C26.3272 16.1454 26.999 16.8278 26.999 17.6686C26.999 18.2411 26.6829 18.7354 26.2232 18.9952L15.2245 25.0899C15.0082 25.2124 14.7648 25.2864 14.5007 25.2864ZM17.5 31.3811C16.6721 31.3811 16.0003 30.6987 16.0003 29.8579C16.0003 29.2854 16.3165 28.7911 16.7761 28.5312L27.7748 22.4366C27.9911 22.314 28.2345 22.2401 28.4986 22.2401C29.3265 22.2401 29.9983 22.9224 29.9983 23.7632C29.9983 24.3357 29.6821 24.8301 29.2225 25.0899L18.2238 31.1846C18.0075 31.3071 17.7641 31.3811 17.5 31.3811ZM50.9994 43.5683C48.3662 43.5683 48.3121 40.522 45.9992 40.522C44.8116 40.522 43.4658 43.1162 42.9417 44.8739C42.8169 45.29 42.4508 45.5985 41.9995 45.5985C41.4483 45.5985 40.999 45.1443 40.999 44.5823C40.999 44.4788 41.0282 44.3859 41.0573 44.2929C41.2341 43.6993 42.8647 38.4898 45.9992 38.4898C48.233 38.4898 49.0338 39.5629 49.7805 40.7755C50.1258 41.3333 50.7373 41.5382 50.9994 41.5382C51.5526 41.5382 51.9998 41.9924 51.9998 42.5543C51.9998 43.1162 51.5526 43.5704 50.9994 43.5704V43.5683Z" fill="white"/>
</g>
<defs>
<filter id="filter0_d_95_532" x="0" y="2.00655" width="175.2" height="68.8093" filterUnits="userSpaceOnUse" color-interpolation-filters="sRGB">
<feFlood flood-opacity="0" result="BackgroundImageFix"/>
<feColorMatrix in="SourceAlpha" type="matrix" values="0 0 0 0 0 0 0 0 0 0 0 0 0 0 0 0 0 0 127 0" result="hardAlpha"/>
<feOffset dx="2" dy="3"/>
<feGaussianBlur stdDeviation="4"/>
<feComposite in2="hardAlpha" operator="out"/>
<feColorMatrix type="matrix" values="0 0 0 0 0 0 0 0 0 0 0 0 0 0 0 0 0 0 0.5 0"/>
<feBlend mode="normal" in2="BackgroundImageFix" result="effect1_dropShadow_95_532"/>
<feBlend mode="normal" in="SourceGraphic" in2="effect1_dropShadow_95_532" result="shape"/>
</filter>
</defs>
</svg>
