<svg width="174" height="68" viewBox="0 0 174 68" fill="none" xmlns="http://www.w3.org/2000/svg">
<g filter="url(#filter0_d_98_553)">
<path d="M22.8386 12.8683C23.6352 12.8683 24.2816 13.5268 24.2816 14.3383C24.2816 15.1497 23.6352 15.8082 22.8386 15.8082H8.40581C7.60922 15.8082 6.96274 15.1497 6.96274 14.3383C6.96274 13.5268 7.60922 12.8683 8.40581 12.8683H22.8406H22.8386Z" fill="white"/>
<path d="M55.5569 42.2735C56.3535 42.2735 57 42.932 57 43.7435C57 44.5549 56.3535 45.2134 55.5569 45.2134H44.973C44.1765 45.2134 43.53 44.5549 43.53 43.7435C43.53 42.932 44.1765 42.2735 44.973 42.2735H55.5569Z" fill="white"/>
<path d="M45.9338 48.1554C46.7304 48.1554 47.3769 48.8139 47.3769 49.6254C47.3769 50.4368 46.7304 51.0953 45.9338 51.0953H38.2361C37.4395 51.0953 36.793 50.4368 36.793 49.6254C36.793 48.8139 37.4395 48.1554 38.2361 48.1554H45.9338Z" fill="white"/>
<path d="M53.1511 49.6254C53.1511 48.8139 52.5046 48.1554 51.708 48.1554C50.9114 48.1554 50.265 48.8139 50.265 49.6254C50.265 50.4368 50.9114 51.0953 51.708 51.0953C52.5046 51.0953 53.1511 50.4368 53.1511 49.6254Z" fill="white"/>
<path d="M26.6894 46.1941C26.3171 46.1941 25.9548 46.2348 25.6046 46.3082C24.5458 43.931 22.202 42.2735 19.472 42.2735C16.0655 42.2735 13.2554 44.8526 12.807 48.1961C10.6114 48.4102 8.88812 50.2716 8.88812 52.5652C8.88812 55.0016 10.8276 56.9751 13.2173 56.9751H26.6894C29.6116 56.9751 31.9813 54.5612 31.9813 51.5846C31.9813 48.608 29.6116 46.1941 26.6894 46.1941Z" fill="white"/>
<path d="M50.7453 7.96712C50.2749 7.96712 49.8206 8.03644 49.3863 8.15265C48.2955 6.2831 46.3 5.02518 44.0103 5.02518C41.0421 5.02518 38.5622 7.13327 37.9217 9.959C35.6801 10.1262 33.9067 12.012 33.9067 14.3383C33.9067 16.6645 35.8462 18.7481 38.236 18.7481H50.7453C53.6675 18.7481 56.0372 16.3342 56.0372 13.3576C56.0372 10.381 53.6675 7.96712 50.7453 7.96712Z" fill="white"/>
<path d="M35.0657 24.3751L31.9814 20.7094H22.3582L25.5486 25.0439L35.0657 24.3751Z" fill="white"/>
<path d="M56.7898 31.4925H46.4161C45.8837 31.4925 45.4534 31.0541 45.4534 30.5118C45.4534 29.9695 45.8837 29.5312 46.4161 29.5312H55.585C55.2527 29.2152 54.2339 28.4975 53.7996 28.1836C51.4999 26.5097 48.7459 25.6106 45.9197 25.6106C45.6095 25.6106 45.2973 25.6208 44.9871 25.6433L17.5466 27.5699L11.7723 22.6687L6 23.6514L13.2394 35.1235C14.1241 36.5262 15.6492 37.3743 17.2864 37.3743H23.0487L26.4733 33.7637C26.6494 33.5741 26.8936 33.4538 27.1678 33.4538C27.7002 33.4538 28.1305 33.8921 28.1305 34.4344C28.1305 34.6852 28.0304 34.9074 27.8783 35.0807L22.5944 40.9136C24.2376 41.5661 25.6667 42.72 26.6634 44.2348H26.6854C27.6842 44.2348 28.6349 44.4428 29.5015 44.8179L37.6436 37.3743H52.1024C54.9245 37.3743 56.996 35.2989 56.996 32.8034C56.996 32.3528 56.9139 31.9145 56.7858 31.4945L56.7898 31.4925Z" fill="white"/>
<path d="M84.68 33.08V50.6H89.28V36.88H106.8V50.44H111.68V33.08H84.68ZM86.76 39.4V42.88H109.2V39.4H86.76ZM98 14.92V18.84H112.32V14.92H98ZM86.76 45.48V49.32H109.2V45.48H86.76ZM95.68 34.72V47.64H100.2V34.72H95.68ZM81.72 14.88L82.56 28.24H87.2L86.56 17.08C87.2 16.96 87.52 16.8 87.6 16.48L81.72 14.88ZM79.08 27.8L80.28 32.36C84.24 31.28 89.4 29.92 94.24 28.56L93.72 24.44C88.36 25.72 82.72 27.08 79.08 27.8ZM110.56 14.92V15.6C110.32 23.32 109.96 26.2 109.36 26.92C109.04 27.32 108.68 27.4 108.08 27.36C107.44 27.36 106.08 27.36 104.6 27.2C105.28 28.36 105.76 30.08 105.84 31.4C107.68 31.44 109.44 31.44 110.48 31.28C111.64 31.12 112.52 30.76 113.36 29.76C114.4 28.52 114.8 25.08 115.16 16.68C115.2 16.12 115.24 14.92 115.24 14.92H110.56ZM93.76 12.92C91.32 14.12 87.36 15.44 83.92 16.28C84.36 17.2 85 18.68 85.2 19.64C88.96 18.92 93.36 17.8 96.84 16.44L93.76 12.92ZM102 16.36C101.64 22.04 100.92 26.4 95.36 28.92C96.36 29.72 97.56 31.32 98.08 32.44C104.8 29.16 106.04 23.56 106.52 16.36H102ZM89.48 21.8C91.44 24.44 93.48 28.04 94.24 30.4L98.44 28.24C97.56 25.88 95.36 22.44 93.36 19.92L89.48 21.8ZM128.52 39.44V43.24H163.52V39.44H128.52ZM135.6 32.6V36H152.64V32.6H135.6ZM143.6 37.6V46C143.6 46.48 143.4 46.6 142.76 46.64C142.16 46.64 139.76 46.68 137.84 46.6C138.44 47.68 139.08 49.36 139.32 50.64C142.36 50.64 144.6 50.6 146.2 50C147.88 49.4 148.32 48.32 148.32 46.16V37.6H143.6ZM151.52 32.6V33.4C150.16 34.88 147.2 37.12 144.8 38.32C145.36 38.88 146.44 40.04 146.96 40.76C150.16 39.2 153.72 36.92 156.36 34.8L153.68 32.36L152.68 32.6H151.52ZM128.48 27.44V35.68H133.04V30.92H158.84V35.68H163.6V27.44H128.48ZM130.8 14.8L131.64 28.96H136.08L135.36 16.56C136 16.44 136.32 16.24 136.4 15.92L130.8 14.8ZM156.92 14.36C156.76 19.16 156.32 25.24 155.8 29.16H160.4C160.84 25.36 161.24 19.28 161.48 14.36H156.92ZM151.28 14.36V17.36H158.68V14.36H151.28ZM138.88 13.24C137.04 14.04 133.96 15.28 131.84 15.76L133.76 18.24C135.88 17.72 138.92 16.88 141.12 15.8L138.88 13.24ZM133.32 18.72V21.68H140.84V18.72H133.32ZM133.44 23.08V26.04H140.92V23.08H133.44ZM151.44 18.72V21.68H158.2V18.72H151.44ZM151.32 23.08V26.04H158.08V23.08H151.32ZM147.36 13.28C145.84 15.24 143.16 17 140.4 18.2C141.16 18.72 142.4 19.76 142.92 20.36C145.64 18.92 148.64 16.64 150.44 14.2L147.36 13.28ZM141.4 15.36C143.76 16.64 146.68 18.6 148.08 19.96L150.36 17.96C148.88 16.56 145.92 14.68 143.56 13.56L141.4 15.36ZM147.52 20C146 22.08 143.2 23.96 140.36 25.24C141.12 25.76 142.36 26.84 142.92 27.4C145.72 25.92 148.84 23.52 150.68 20.92L147.52 20ZM141.52 22.2C143.96 23.52 146.96 25.56 148.36 27L150.76 24.96C149.2 23.52 146.12 21.56 143.72 20.36L141.52 22.2Z" fill="white"/>
</g>
<defs>
<filter id="filter0_d_98_553" x="0" y="0.025177" width="173.6" height="67.9499" filterUnits="userSpaceOnUse" color-interpolation-filters="sRGB">
<feFlood flood-opacity="0" result="BackgroundImageFix"/>
<feColorMatrix in="SourceAlpha" type="matrix" values="0 0 0 0 0 0 0 0 0 0 0 0 0 0 0 0 0 0 127 0" result="hardAlpha"/>
<feOffset dx="2" dy="3"/>
<feGaussianBlur stdDeviation="4"/>
<feComposite in2="hardAlpha" operator="out"/>
<feColorMatrix type="matrix" values="0 0 0 0 0 0 0 0 0 0 0 0 0 0 0 0 0 0 0.5 0"/>
<feBlend mode="normal" in2="BackgroundImageFix" result="effect1_dropShadow_98_553"/>
<feBlend mode="normal" in="SourceGraphic" in2="effect1_dropShadow_98_553" result="shape"/>
</filter>
</defs>
</svg>
