<svg width="48" height="61" viewBox="0 0 48 61" fill="none" xmlns="http://www.w3.org/2000/svg">
<path d="M4.22963 37.2948H20.0496V53.6948H17.4096V39.7348H6.74963V53.7148H4.22963V37.2948ZM5.42963 49.6148H19.0496V52.0948H5.42963V49.6148ZM36.5296 42.8548V44.9748H40.8696V42.8548H36.5296ZM34.3496 40.7948H43.1896V47.0148H34.3496V40.7948ZM38.9696 46.4148H41.2496V51.2348C41.2496 51.7948 41.2896 51.8548 41.5696 51.8548C41.6896 51.8548 42.1496 51.8548 42.3096 51.8548C42.6496 51.8548 42.7096 51.5548 42.7696 49.3348C43.2096 49.7148 44.1696 50.0948 44.7696 50.2548C44.5896 53.2148 44.0296 53.9748 42.5696 53.9748C42.2096 53.9748 41.5096 53.9748 41.1896 53.9748C39.3696 53.9748 38.9696 53.2748 38.9696 51.2348V46.4148ZM35.6296 46.7348H37.9696C37.7296 50.1748 37.0496 52.6748 33.4096 54.1548C33.1696 53.5948 32.5496 52.6948 32.0496 52.2748C35.0496 51.1948 35.4496 49.3348 35.6296 46.7348ZM36.2096 35.8748H41.0496V38.0548H36.2096V35.8748ZM34.7896 37.6548L37.1296 38.2548C36.4696 39.8948 35.4896 41.7348 34.3696 42.8948C33.8896 42.4748 33.0496 41.8948 32.5096 41.5948C33.5496 40.5948 34.4096 38.9548 34.7896 37.6548ZM39.2296 35.8748H41.6896C42.2896 37.7948 43.5096 39.8148 44.7896 41.0148C44.1896 41.3548 43.2296 42.0548 42.7696 42.5348C41.4496 41.0748 40.3296 38.9748 39.6496 36.9948H39.2296V35.8748ZM26.6696 41.4748H32.7096V43.2748H26.6696V41.4748ZM26.7296 35.9548H32.6496V37.7748H26.7296V35.9548ZM26.6696 44.1948H32.7096V46.0148H26.6696V44.1948ZM25.7096 38.6548H33.3696V40.5548H25.7096V38.6548ZM27.7096 46.9748H32.7296V53.0548H27.7096V51.1548H30.6896V48.8748H27.7096V46.9748ZM26.6296 46.9748H28.6496V53.8548H26.6296V46.9748Z" fill="white"/>
<path d="M37.8704 14.8722C37.5381 14.8722 37.2273 14.6469 37.1608 14.3163C37.0846 13.9393 37.3084 13.5759 37.6896 13.4995C39.0922 13.2279 40.2641 12.4632 41.046 11.4328C41.2796 11.1244 41.7224 11.0625 42.0322 11.2926C42.344 11.5236 42.4076 11.9606 42.174 12.268C41.1614 13.6039 39.6689 14.529 38.0122 14.8567C37.9652 14.8664 37.9173 14.8712 37.8704 14.8712V14.8722Z" fill="white"/>
<path d="M35.5014 0C31.9973 0 29.158 2.80913 29.158 6.27367C29.158 7.685 29.6349 8.98323 30.4305 10.0311L29.7082 11.4589C29.6555 11.5633 29.6281 11.6783 29.6281 11.7953C29.6281 12.2109 29.9682 12.5473 30.3885 12.5473C30.5068 12.5473 30.6231 12.5203 30.7287 12.4681L32.3072 11.687C33.2465 12.2303 34.3353 12.5473 35.5023 12.5473C39.0063 12.5473 41.8457 9.7382 41.8457 6.27367C41.8457 2.80913 39.0054 0 35.5014 0ZM39.0259 9.2945H31.9768C31.7168 9.2945 31.5067 9.08667 31.5067 8.82953C31.5067 8.5724 31.7168 8.36457 31.9768 8.36457H39.0259C39.2859 8.36457 39.496 8.5724 39.496 8.82953C39.496 9.08667 39.2859 9.2945 39.0259 9.2945ZM31.5077 6.50567C31.5077 6.2495 31.7178 6.0407 31.9778 6.0407H34.7976C35.0576 6.0407 35.2678 6.24853 35.2678 6.50567C35.2678 6.7628 35.0576 6.97063 34.7976 6.97063H31.9778C31.7178 6.97063 31.5077 6.7628 31.5077 6.50567ZM39.0259 6.97063H36.6762C36.4162 6.97063 36.2061 6.7628 36.2061 6.50567C36.2061 6.24853 36.4162 6.0407 36.6762 6.0407H39.0259C39.2859 6.0407 39.496 6.24853 39.496 6.50567C39.496 6.7628 39.2859 6.97063 39.0259 6.97063ZM39.0259 4.64677H31.9768C31.7168 4.64677 31.5067 4.43893 31.5067 4.1818C31.5067 3.92467 31.7168 3.71683 31.9768 3.71683H39.0259C39.2859 3.71683 39.496 3.92467 39.496 4.1818C39.496 4.43893 39.2859 4.64677 39.0259 4.64677Z" fill="white"/>
<path d="M24.9286 4.64772H22.5789C21.6386 4.64772 19.2899 2.78882 19.2899 2.78882C19.2899 2.78882 18.3496 3.71875 18.3496 5.11268C18.3496 6.08032 19.1032 6.72702 20.2292 7.43655V11.3873C20.2292 12.9881 21.1939 14.3637 22.5789 14.9843V15.8021C22.5789 16.0583 22.789 16.2671 23.049 16.2671H25.3987C25.6587 16.2671 25.8688 16.0592 25.8688 15.8021V14.9843C27.2528 14.3637 28.2185 12.9881 28.2185 11.3873V7.90152C28.2185 5.85992 27.0515 4.64869 24.9295 4.64869L24.9286 4.64772Z" fill="white"/>
<path d="M26.7544 16.1626C26.5922 16.7561 26.0488 17.196 25.3988 17.196H23.0491C22.3991 17.196 21.8557 16.7561 21.6934 16.1626C18.3947 17.1776 16 20.2207 16 23.8176V24.1666H32.4469V23.8176C32.4469 20.2216 30.0522 17.1786 26.7544 16.1626Z" fill="white"/>
</svg>
