<svg width="49" height="59" viewBox="0 0 49 59" fill="none" xmlns="http://www.w3.org/2000/svg">
<g filter="url(#filter0_d_496_119)">
<path d="M6.92963 38.2948L8.54963 36.9548C9.74963 37.5348 11.3496 38.4548 12.1296 39.1548L10.4296 40.6348C9.70963 39.9348 8.14963 38.9348 6.92963 38.2948ZM15.9496 34.8348H16.4096L16.7896 34.7348L18.3496 35.6348C15.7496 40.4548 10.0896 43.0548 4.26963 44.2348C4.06963 43.6348 3.58963 42.6948 3.16963 42.1748C8.56963 41.3148 13.9696 38.9148 15.9496 35.1748V34.8348ZM9.62963 34.8348H16.4896V36.7948H9.62963V34.8348ZM10.7296 33.2748L13.3496 33.8348C11.3096 36.1548 8.66963 38.0348 4.92963 39.5148C4.58963 38.9548 3.84963 38.1348 3.32963 37.7548C6.88963 36.5948 9.36963 34.9148 10.7296 33.2748ZM9.64963 45.8748L11.3896 44.5348C12.6096 45.1948 14.2096 46.2148 15.0096 46.9948L13.1496 48.4748C12.4496 47.7148 10.8896 46.5948 9.64963 45.8748ZM18.4696 42.1348H18.9496L19.3696 42.0348L20.9696 42.8548C18.5296 48.8148 12.7496 51.1748 5.86963 52.1348C5.68963 51.4748 5.24963 50.4948 4.84963 49.9548C11.1896 49.2948 16.6096 47.1948 18.4696 42.4748V42.1348ZM12.5896 42.1348H19.1096V44.1348H12.5896V42.1348ZM13.9896 40.1948L16.6096 40.7948C14.3696 43.4148 11.2896 45.5348 6.86963 47.1348C6.58963 46.5748 5.90963 45.6948 5.40963 45.2748C9.58963 44.0148 12.4496 42.0948 13.9896 40.1948ZM25.9496 49.3748H44.2696V51.4948H25.9496V49.3748ZM26.2696 37.4748H43.9896V39.5948H26.2696V37.4748ZM28.6296 44.0148H41.6696V50.4748H39.4296V46.0348H37.9896V50.4748H35.7896V46.0348H34.3696V50.4748H32.1696V46.0348H30.7496V50.4748H28.6296V44.0148ZM29.1096 34.3948L31.1696 33.4948C32.0496 34.5748 32.9696 35.9948 33.4096 36.9548L31.2496 38.0548C30.8496 37.0548 29.9296 35.5148 29.1096 34.3948ZM38.8696 33.3148L41.4296 34.0748C40.5896 35.4548 39.6296 36.8548 38.8696 37.7748L36.7496 37.0548C37.5096 36.0548 38.4096 34.4948 38.8696 33.3148ZM31.6096 37.9748L34.0096 38.6948C32.5096 41.8548 29.9896 44.6348 27.3896 46.3548C27.0096 45.8548 26.0896 44.9348 25.5296 44.4948C28.1096 43.0748 30.3896 40.6948 31.6096 37.9748ZM38.2296 37.9748C39.4896 40.4948 42.0496 42.9748 44.7296 44.2548C44.1896 44.6948 43.4496 45.5948 43.0696 46.1948C40.2496 44.6348 37.6896 41.8348 36.1096 38.7348L38.2296 37.9748Z" fill="white"/>
<path d="M26.8401 2.50865L24.2597 3.71602C24.1997 3.74734 24.1364 3.763 24.0738 3.763C23.9111 3.763 23.7732 3.66992 23.7047 3.53509L22.5023 0.848936C22.48 0.804572 22.4697 0.759339 22.4697 0.714976C22.4697 0.55405 22.5973 0.41748 22.7643 0.41748C22.7926 0.41748 22.8217 0.4227 22.8508 0.432268L26.7965 1.96411C26.9258 2.00673 26.9994 2.12677 26.9994 2.25464C26.9994 2.35816 26.9395 2.45645 26.8401 2.50865Z" fill="white"/>
<path d="M29.2253 1.4049C29.1174 1.31182 28.9795 1.25354 28.827 1.25354C28.6369 1.25354 28.4699 1.34227 28.356 1.47884L26.2954 3.99015C26.2063 4.09888 26.1755 4.23719 26.1755 4.38942C26.1755 4.73563 26.4521 5.01659 26.793 5.01659C26.984 5.01659 27.1518 4.927 27.2658 4.78869L28.9007 2.76972L29.5268 3.31426L23.6481 10.4724L23.1343 13.4013L25.868 12.4044L32.5466 4.27112L29.2261 1.40316L29.2253 1.4049Z" fill="white"/>
<path d="M33.9992 1.98417C33.9992 2.23556 33.9144 2.47913 33.7586 2.67398L33.0443 3.56733L30.4758 1.29002L31.2389 0.354906C31.4222 0.12961 31.6954 0 31.9832 0C32.2213 0 32.4508 0.0887266 32.6281 0.249652L33.6412 1.16997C33.8699 1.377 34.0001 1.67363 34.0001 1.98504L33.9992 1.98417Z" fill="white"/>
<path d="M33.5392 14.9487L30.1759 8.46473L26.3562 13.1168L22.0731 14.6791L22.8037 10.5168L19.2683 12.4653C19.1792 12.5157 19.079 12.5462 18.9703 12.5462C18.6294 12.5462 18.3528 12.2652 18.3528 11.919C18.3528 11.6832 18.4829 11.4797 18.6722 11.3727L23.2011 8.86313C23.2901 8.81268 23.3904 8.78223 23.4991 8.78223C23.6361 8.78223 23.7612 8.82921 23.864 8.90575L26.4119 5.80293C25.8021 5.63244 25.3525 5.06441 25.3525 4.39113C25.3525 4.29545 25.3602 4.20411 25.3739 4.11539L24.6039 4.47551C24.4618 4.55119 24.2673 4.5999 24.0738 4.5999C23.607 4.5999 23.1848 4.33807 22.9724 3.91706L21.4591 0.529785L13.2184 4.97656C13.0796 5.05136 13 5.19315 13 5.34451C13 5.41149 13.0154 5.47847 13.048 5.54197L21.3743 21.5232C21.4479 21.665 21.5833 21.745 21.7383 21.745C21.8034 21.745 21.8693 21.7294 21.931 21.6963L33.3688 15.5133C33.5058 15.4393 33.5854 15.2976 33.5871 15.1505C33.588 15.0818 33.5726 15.0122 33.5392 14.9479V14.9487ZM16.5003 7.52701C16.1594 7.52701 15.8828 7.24604 15.8828 6.89984C15.8828 6.6641 16.013 6.46055 16.2022 6.35356L20.7311 3.84399C20.8202 3.79353 20.9204 3.76309 21.0291 3.76309C21.37 3.76309 21.6466 4.04406 21.6466 4.39026C21.6466 4.626 21.5165 4.82955 21.3272 4.93654L16.7983 7.44611C16.7092 7.49657 16.609 7.52701 16.5003 7.52701ZM17.7353 10.0366C17.3944 10.0366 17.1178 9.75562 17.1178 9.40941C17.1178 9.17367 17.248 8.97012 17.4372 8.86313L21.9661 6.35356C22.0552 6.30311 22.1554 6.27266 22.2641 6.27266C22.605 6.27266 22.8816 6.55363 22.8816 6.89984C22.8816 7.13557 22.7514 7.33912 22.5622 7.44611L18.0333 9.95569C17.9442 10.0061 17.844 10.0366 17.7353 10.0366ZM31.5291 15.0549C30.4449 15.0549 30.4226 13.8005 29.4702 13.8005C28.9812 13.8005 28.4271 14.8687 28.2113 15.5924C28.1599 15.7638 28.0091 15.8908 27.8233 15.8908C27.5963 15.8908 27.4113 15.7038 27.4113 15.4724C27.4113 15.4298 27.4233 15.3915 27.4353 15.3532C27.5081 15.1088 28.1796 12.9637 29.4702 12.9637C30.39 12.9637 30.7198 13.4056 31.0272 13.9049C31.1694 14.1345 31.4212 14.2189 31.5291 14.2189C31.7569 14.2189 31.9411 14.4059 31.9411 14.6373C31.9411 14.8687 31.7569 15.0557 31.5291 15.0557V15.0549Z" fill="white"/>
</g>
<defs>
<filter id="filter0_d_496_119" x="3.16968" y="0" width="45.5601" height="56.1348" filterUnits="userSpaceOnUse" color-interpolation-filters="sRGB">
<feFlood flood-opacity="0" result="BackgroundImageFix"/>
<feColorMatrix in="SourceAlpha" type="matrix" values="0 0 0 0 0 0 0 0 0 0 0 0 0 0 0 0 0 0 127 0" result="hardAlpha"/>
<feOffset dx="2" dy="2"/>
<feGaussianBlur stdDeviation="1"/>
<feComposite in2="hardAlpha" operator="out"/>
<feColorMatrix type="matrix" values="0 0 0 0 0 0 0 0 0 0 0 0 0 0 0 0 0 0 0.25 0"/>
<feBlend mode="normal" in2="BackgroundImageFix" result="effect1_dropShadow_496_119"/>
<feBlend mode="normal" in="SourceGraphic" in2="effect1_dropShadow_496_119" result="shape"/>
</filter>
</defs>
</svg>
