<svg width="49" height="57" viewBox="0 0 49 57" fill="none" xmlns="http://www.w3.org/2000/svg">
<g filter="url(#filter0_d_496_120)">
<path d="M4.96963 41.3548H18.4696V50.0348H16.0296V43.2548H7.26963V50.1148H4.96963V41.3548ZM6.00963 44.5148H17.2296V46.2548H6.00963V44.5148ZM11.6296 32.2748H18.7896V34.2348H11.6296V32.2748ZM6.00963 47.5548H17.2296V49.4748H6.00963V47.5548ZM10.4696 42.1748H12.7296V48.6348H10.4696V42.1748ZM3.48963 32.2548L6.42963 33.0548C6.38963 33.2148 6.22963 33.2948 5.90963 33.3548L6.22963 38.9348H3.90963L3.48963 32.2548ZM2.16963 38.7148C3.98963 38.3548 6.80963 37.6748 9.48963 37.0348L9.74963 39.0948C7.32963 39.7748 4.74963 40.4548 2.76963 40.9948L2.16963 38.7148ZM17.9096 32.2748H20.2496C20.2496 32.2748 20.2296 32.8748 20.2096 33.1548C20.0296 37.3548 19.8296 39.0748 19.3096 39.6948C18.8896 40.1948 18.4496 40.3748 17.8696 40.4548C17.3496 40.5348 16.4696 40.5348 15.5496 40.5148C15.5096 39.8548 15.2696 38.9948 14.9296 38.4148C15.6696 38.4948 16.3496 38.4948 16.6696 38.4948C16.9696 38.5148 17.1496 38.4748 17.3096 38.2748C17.6096 37.9148 17.7896 36.4748 17.9096 32.6148V32.2748ZM9.50963 31.2748L11.0496 33.0348C9.30963 33.7148 7.10963 34.2748 5.22963 34.6348C5.12963 34.1548 4.80963 33.4148 4.58963 32.9548C6.30963 32.5348 8.28963 31.8748 9.50963 31.2748ZM13.6296 32.9948H15.8896C15.6496 36.5948 15.0296 39.3948 11.6696 41.0348C11.4096 40.4748 10.8096 39.6748 10.3096 39.2748C13.0896 38.0148 13.4496 35.8348 13.6296 32.9948ZM7.36963 35.7148L9.30963 34.7748C10.3096 36.0348 11.4096 37.7548 11.8496 38.9348L9.74963 40.0148C9.36963 38.8348 8.34963 37.0348 7.36963 35.7148ZM26.8896 44.5348H44.3896V46.4348H26.8896V44.5348ZM30.4296 41.1148H38.9496V42.8148H30.4296V41.1148ZM34.4296 43.6148H36.7896V47.8948C36.7896 48.9748 36.5696 49.5148 35.7296 49.8148C34.9296 50.1148 33.8096 50.1348 32.2896 50.1348C32.1696 49.4948 31.8496 48.6548 31.5496 48.1148C32.5096 48.1548 33.7096 48.1348 34.0096 48.1348C34.3296 48.1148 34.4296 48.0548 34.4296 47.8148V43.6148ZM38.3896 41.1148H38.9696L39.4696 40.9948L40.8096 42.2148C39.4896 43.2748 37.7096 44.4148 36.1096 45.1948C35.8496 44.8348 35.3096 44.2548 35.0296 43.9748C36.2296 43.3748 37.7096 42.2548 38.3896 41.5148V41.1148ZM26.8696 38.5348H44.4296V42.6548H42.0496V40.2748H29.1496V42.6548H26.8696V38.5348ZM28.0296 32.2148L30.8296 32.7748C30.7896 32.9348 30.6296 33.0348 30.3096 33.0948L30.6696 39.2948H28.4496L28.0296 32.2148ZM41.0896 31.9948H43.3696C43.2496 34.4548 43.0496 37.4948 42.8296 39.3948H40.5296C40.7896 37.4348 41.0096 34.3948 41.0896 31.9948ZM38.2696 31.9948H41.9696V33.4948H38.2696V31.9948ZM32.0696 31.4348L33.1896 32.7148C32.0896 33.2548 30.5696 33.6748 29.5096 33.9348L28.5496 32.6948C29.6096 32.4548 31.1496 31.8348 32.0696 31.4348ZM29.2896 34.1748H33.0496V35.6548H29.2896V34.1748ZM29.3496 36.3548H33.0896V37.8348H29.3496V36.3548ZM38.3496 34.1748H41.7296V35.6548H38.3496V34.1748ZM38.2896 36.3548H41.6696V37.8348H38.2896V36.3548ZM36.3096 31.4548L37.8496 31.9148C36.9496 33.1348 35.4496 34.2748 34.0896 34.9948C33.8296 34.6948 33.2096 34.1748 32.8296 33.9148C34.2096 33.3148 35.5496 32.4348 36.3096 31.4548ZM33.3296 32.4948L34.4096 31.5948C35.5896 32.1548 37.0696 33.0948 37.8096 33.7948L36.6696 34.7948C35.9696 34.1148 34.5096 33.1348 33.3296 32.4948ZM36.3896 34.8148L37.9696 35.2748C37.0496 36.5748 35.4896 37.7748 34.0896 38.5148C33.8096 38.2348 33.1896 37.6948 32.8096 37.4348C34.2296 36.7948 35.6296 35.8548 36.3896 34.8148ZM33.3896 35.9148L34.4896 34.9948C35.6896 35.5948 37.2296 36.5748 38.0096 37.2948L36.8096 38.3148C36.1096 37.5948 34.6096 36.5748 33.3896 35.9148Z" fill="white"/>
<path d="M20.8065 3.17053C21.1285 3.17053 21.3898 3.43673 21.3898 3.76474C21.3898 4.09275 21.1285 4.35895 20.8065 4.35895H14.9723C14.6502 4.35895 14.3889 4.09275 14.3889 3.76474C14.3889 3.43673 14.6502 3.17053 14.9723 3.17053H20.8073H20.8065Z" fill="white"/>
<path d="M34.0326 15.057C34.3546 15.057 34.616 15.3232 34.616 15.6512C34.616 15.9792 34.3546 16.2454 34.0326 16.2454H29.7542C29.4322 16.2454 29.1709 15.9792 29.1709 15.6512C29.1709 15.3232 29.4322 15.057 29.7542 15.057H34.0326Z" fill="white"/>
<path d="M30.1428 17.4347C30.4648 17.4347 30.7261 17.7009 30.7261 18.0289C30.7261 18.3569 30.4648 18.6231 30.1428 18.6231H27.0311C26.7091 18.6231 26.4478 18.3569 26.4478 18.0289C26.4478 17.7009 26.7091 17.4347 27.0311 17.4347H30.1428Z" fill="white"/>
<path d="M33.0602 18.0289C33.0602 17.7009 32.7989 17.4347 32.4769 17.4347C32.1549 17.4347 31.8936 17.7009 31.8936 18.0289C31.8936 18.3569 32.1549 18.6231 32.4769 18.6231C32.7989 18.6231 33.0602 18.3569 33.0602 18.0289Z" fill="white"/>
<path d="M22.3634 16.6418C22.2129 16.6418 22.0665 16.6583 21.9249 16.688C21.4969 15.727 20.5494 15.057 19.4459 15.057C18.0688 15.057 16.9329 16.0995 16.7516 17.4511C15.8641 17.5377 15.1675 18.2901 15.1675 19.2173C15.1675 20.2021 15.9515 20.9999 16.9175 20.9999H22.3634C23.5446 20.9999 24.5026 20.0241 24.5026 18.8209C24.5026 17.6176 23.5446 16.6418 22.3634 16.6418Z" fill="white"/>
<path d="M32.0877 1.18924C31.8976 1.18924 31.714 1.21726 31.5384 1.26424C31.0974 0.508496 30.2908 0 29.3652 0C28.1654 0 27.1629 0.852164 26.904 1.99443C25.9978 2.06201 25.281 2.82434 25.281 3.76469C25.281 4.70503 26.065 5.54731 27.031 5.54731H32.0877C33.269 5.54731 34.2269 4.57152 34.2269 3.36827C34.2269 2.16502 33.269 1.18924 32.0877 1.18924Z" fill="white"/>
<path d="M25.7494 7.82202L24.5026 6.34021H20.6125L21.9022 8.09234L25.7494 7.82202Z" fill="white"/>
<path d="M34.5311 10.6991H30.3376C30.1224 10.6991 29.9485 10.5219 29.9485 10.3027C29.9485 10.0835 30.1224 9.90627 30.3376 9.90627H34.044C33.9097 9.77853 33.4979 9.48843 33.3223 9.36151C32.3927 8.68489 31.2794 8.32144 30.137 8.32144C30.0116 8.32144 29.8854 8.32556 29.7599 8.33463L18.6675 9.11344L16.3334 7.1322L14 7.52944L16.9264 12.1669C17.284 12.7339 17.9005 13.0767 18.5624 13.0767H20.8917L22.276 11.6172C22.3472 11.5405 22.4459 11.4919 22.5568 11.4919C22.772 11.4919 22.9459 11.6691 22.9459 11.8883C22.9459 11.9897 22.9055 12.0795 22.844 12.1496L20.708 14.5075C21.3723 14.7712 21.95 15.2376 22.3529 15.85H22.3618C22.7655 15.85 23.1498 15.9341 23.5001 16.0857L26.7915 13.0767H32.6362C33.777 13.0767 34.6144 12.2378 34.6144 11.229C34.6144 11.0469 34.5812 10.8697 34.5294 10.6999L34.5311 10.6991Z" fill="white"/>
</g>
<defs>
<filter id="filter0_d_496_120" x="2.16968" y="0" width="46.26" height="54.1348" filterUnits="userSpaceOnUse" color-interpolation-filters="sRGB">
<feFlood flood-opacity="0" result="BackgroundImageFix"/>
<feColorMatrix in="SourceAlpha" type="matrix" values="0 0 0 0 0 0 0 0 0 0 0 0 0 0 0 0 0 0 127 0" result="hardAlpha"/>
<feOffset dx="2" dy="2"/>
<feGaussianBlur stdDeviation="1"/>
<feComposite in2="hardAlpha" operator="out"/>
<feColorMatrix type="matrix" values="0 0 0 0 0 0 0 0 0 0 0 0 0 0 0 0 0 0 0.25 0"/>
<feBlend mode="normal" in2="BackgroundImageFix" result="effect1_dropShadow_496_120"/>
<feBlend mode="normal" in="SourceGraphic" in2="effect1_dropShadow_496_120" result="shape"/>
</filter>
</defs>
</svg>
