<svg width="174" height="61" viewBox="0 0 174 61" fill="none" xmlns="http://www.w3.org/2000/svg">
<g filter="url(#filter0_d_103_559)">
<path d="M79.2 13.96V46.8H84.24V18.84H105.56V46.76H110.84V13.96H79.2ZM81.6 38.6V43.56H108.84V38.6H81.6ZM145.8 25.08H154.48V29.32H145.8V25.08ZM141.44 20.96V33.4H159.12V20.96H141.44ZM150.68 32.2V41.84C150.68 45.92 151.48 47.32 155.12 47.32C155.76 47.32 157.16 47.32 157.88 47.32C160.8 47.32 161.92 45.8 162.28 39.88C161.08 39.56 159.16 38.8 158.28 38.04C158.16 42.48 158.04 43.08 157.36 43.08C157.04 43.08 156.12 43.08 155.88 43.08C155.32 43.08 155.24 42.96 155.24 41.84V32.2H150.68ZM144 32.84C143.64 38.04 142.84 41.76 136.84 43.92C137.84 44.76 139.08 46.56 139.56 47.68C146.84 44.72 148.2 39.72 148.68 32.84H144ZM145.16 11.12V15.48H154.84V11.12H145.16ZM142.32 14.68C141.56 17.28 139.84 20.56 137.76 22.56C138.84 23.16 140.52 24.32 141.48 25.16C143.72 22.84 145.68 19.16 147 15.88L142.32 14.68ZM151.2 11.12V13.36H152.04C153.4 17.32 155.64 21.52 158.28 24.44C159.2 23.48 161.12 22.08 162.32 21.4C159.76 19 157.32 14.96 156.12 11.12H151.2ZM126.08 22.32V25.92H138.16V22.32H126.08ZM126.2 11.28V14.92H138.04V11.28H126.2ZM126.08 27.76V31.4H138.16V27.76H126.08ZM124.16 16.68V20.48H139.48V16.68H124.16ZM128.16 33.32V37.12H134.12V41.68H128.16V45.48H138.2V33.32H128.16ZM126 33.32V47.08H130.04V33.32H126Z" fill="white"/>
<path d="M45.7244 33.693C45.1056 33.693 44.5269 33.2736 44.4031 32.658C44.2611 31.956 44.6779 31.2792 45.3877 31.137C47.9994 30.6312 50.1816 29.2074 51.6376 27.2886C52.0726 26.7144 52.8971 26.5992 53.474 27.0276C54.0546 27.4578 54.1729 28.2714 53.7379 28.8438C51.8524 31.3314 49.0732 33.054 45.9883 33.6642C45.901 33.6822 45.8118 33.6912 45.7244 33.6912V33.693Z" fill="white"/>
<path d="M41.3128 6C34.788 6 29.5009 11.2308 29.5009 17.682C29.5009 20.31 30.3891 22.7274 31.8706 24.6786L30.5256 27.3372C30.4273 27.5316 30.3763 27.7458 30.3763 27.9636C30.3763 28.7376 31.0097 29.364 31.7923 29.364C32.0125 29.364 32.2291 29.3136 32.4257 29.2164L35.365 27.762C37.114 28.7736 39.1415 29.364 41.3146 29.364C47.8393 29.364 53.1264 24.1332 53.1264 17.682C53.1264 11.2308 47.8375 6 41.3128 6ZM47.8757 23.307H34.7498C34.2657 23.307 33.8744 22.92 33.8744 22.4412C33.8744 21.9624 34.2657 21.5754 34.7498 21.5754H47.8757C48.3598 21.5754 48.7511 21.9624 48.7511 22.4412C48.7511 22.92 48.3598 23.307 47.8757 23.307ZM33.8762 18.114C33.8762 17.637 34.2675 17.2482 34.7516 17.2482H40.0023C40.4865 17.2482 40.8778 17.6352 40.8778 18.114C40.8778 18.5928 40.4865 18.9798 40.0023 18.9798H34.7516C34.2675 18.9798 33.8762 18.5928 33.8762 18.114ZM47.8757 18.9798H43.5004C43.0163 18.9798 42.625 18.5928 42.625 18.114C42.625 17.6352 43.0163 17.2482 43.5004 17.2482H47.8757C48.3598 17.2482 48.7511 17.6352 48.7511 18.114C48.7511 18.5928 48.3598 18.9798 47.8757 18.9798ZM47.8757 14.6526H34.7498C34.2657 14.6526 33.8744 14.2656 33.8744 13.7868C33.8744 13.308 34.2657 12.921 34.7498 12.921H47.8757C48.3598 12.921 48.7511 13.308 48.7511 13.7868C48.7511 14.2656 48.3598 14.6526 47.8757 14.6526Z" fill="white"/>
<path d="M21.6258 14.6544H17.2505C15.4996 14.6544 11.1261 11.193 11.1261 11.193C11.1261 11.193 9.37531 12.9246 9.37531 15.5202C9.37531 17.322 10.7785 18.5262 12.8752 19.8474V27.204C12.8752 30.1848 14.6715 32.7462 17.2505 33.9018V35.4246C17.2505 35.9016 17.6418 36.2904 18.1259 36.2904H22.5012C22.9853 36.2904 23.3766 35.9034 23.3766 35.4246V33.9018C25.9537 32.7462 27.7519 30.1848 27.7519 27.204V20.7132C27.7519 16.9116 25.5788 14.6562 21.6276 14.6562L21.6258 14.6544Z" fill="white"/>
<path d="M25.0255 36.096C24.7234 37.2012 23.7115 38.0202 22.5012 38.0202H18.1259C16.9156 38.0202 15.9037 37.2012 15.6015 36.096C9.45901 37.986 5 43.6524 5 50.3502V51H35.6252V50.3502C35.6252 43.6542 31.1662 37.9878 25.0255 36.096Z" fill="white"/>
</g>
<defs>
<filter id="filter0_d_103_559" x="0" y="0" width="173.32" height="61" filterUnits="userSpaceOnUse" color-interpolation-filters="sRGB">
<feFlood flood-opacity="0" result="BackgroundImageFix"/>
<feColorMatrix in="SourceAlpha" type="matrix" values="0 0 0 0 0 0 0 0 0 0 0 0 0 0 0 0 0 0 127 0" result="hardAlpha"/>
<feOffset dx="3" dy="2"/>
<feGaussianBlur stdDeviation="4"/>
<feComposite in2="hardAlpha" operator="out"/>
<feColorMatrix type="matrix" values="0 0 0 0 0 0 0 0 0 0 0 0 0 0 0 0 0 0 0.5 0"/>
<feBlend mode="normal" in2="BackgroundImageFix" result="effect1_dropShadow_103_559"/>
<feBlend mode="normal" in="SourceGraphic" in2="effect1_dropShadow_103_559" result="shape"/>
</filter>
</defs>
</svg>
