<svg xmlns="http://www.w3.org/2000/svg" xmlns:xlink="http://www.w3.org/1999/xlink" viewBox="0 0 141.33 31.52"><defs><style>.cls-1{fill:#f29001;}.cls-2{fill:#3f3b3a;}.cls-3{clip-path:url(#clip-path);}.cls-4{clip-path:url(#clip-path-2);}.cls-5{clip-path:url(#clip-path-3);}</style><clipPath id="clip-path"><polygon class="cls-1" points="2.73 0 0.55 6 0 7.5 6 7.5 6.55 6 11.05 6 4.5 24.02 3 24.02 0.27 31.52 12.27 31.52 15 24.02 13.5 24.02 20.06 6 24.56 6 24.02 7.5 30.02 7.5 30.56 6 32.75 0 2.73 0"/></clipPath><clipPath id="clip-path-2"><polygon class="cls-1" points="49.65 0 46.92 7.5 49.92 7.5 39.68 15.01 42.42 7.5 43.92 7.5 46.65 0 34.64 0 31.91 7.5 33.41 7.5 27.4 24.02 25.9 24.02 23.17 31.52 35.18 31.52 37.91 24.02 36.41 24.02 37.5 21.01 42.49 17.35 43.91 24.02 40.91 24.02 38.18 31.52 53.19 31.52 55.92 24.02 52.92 24.02 50.28 11.64 55.92 7.5 60.43 7.5 63.16 0 49.65 0"/></clipPath><clipPath id="clip-path-3"><path class="cls-1" d="M71.46,19.51H79s1.5,0,.68,2.25S77.32,24,77.32,24h-7.5Zm4.37-12h7.5s1.5,0,.68,2.26S81.69,12,81.69,12h-7.5ZM66.55,0,63.82,7.5h3L60.81,24h-3l-2.73,7.51h24A12,12,0,0,0,88,23.64c2.87-7.88-1.6-7.88-1.6-7.88s4.87-1.08,7.34-7.88C96.24.9,90.56,0,90.56,0Z"/></clipPath></defs><g id="圖層_2" data-name="圖層 2"><g id="圖層_1-2" data-name="圖層 1"><path class="cls-2" d="M100.49,22.11h3.85L104,23h8.71l-1,2.76h-8.35q.75,1.74,8.2,1.92c-.4.43-.94,1.07-1.62,1.93q-.83,1-1.17,1.47c-4.5-.43-7.31-1.44-8.45-3q-3.12,2-10.8,3.21a11.87,11.87,0,0,0-.2-1.46,14.11,14.11,0,0,0-.19-1.75c4.86-.24,7.92-1,9.18-2.29h-7.7l1-2.76h8.44a1.85,1.85,0,0,1,.26-.45C100.41,22.32,100.46,22.17,100.49,22.11ZM95.92,11.46h4.68c-.07-.3-.19-.73-.36-1.28a6,6,0,0,1-.13-.65l4.2-.45a10.42,10.42,0,0,1,.51,2.38h3.12l1.17-1.19c.53-.61.88-1,1.07-1.19l3.87.45a5.7,5.7,0,0,1-.56.56l-1.42,1.37h4.77l-1,2.75h-8.63l-.37,1h7.44l-1,2.76h-7.44l-.33.92h9l-1,2.84H91.72l1-2.84h8.91L102,18H94.92l1-2.76H103l.37-1H94.92Z"/><path class="cls-2" d="M112.26,31.1l2.91-8h7.71l-2.91,8h-2.84l.33-.92h-2l-.33.92Zm4-11.29h7.8l-.94,2.57h-7.8Zm.73,6.06-.63,1.74h2l.63-1.74Zm.44-9.27h7.8l-.9,2.48h-7.8ZM118.2,13h9l-1,2.85h-9Zm2.24-3.39h7.07l-.9,2.47h-7.07Zm1,21.56,3-8.35H136.1l-3,8.35h-3.3l.33-.92h-5l-.33.92Zm18.85-18.26h-6.43l-.77,1.38h5.5l-1.63,4.49h1.65l-1.07,2.94H124.2l1.07-2.94h1.93l.91-1.74h-1.65l1-2.75h2.2l.78-1.38h-2.75L128.75,10h12.58ZM126.68,25.78,126,27.52h5l.64-1.74Zm7.58-8.72H131.5l-1,1.74h3.12Z"/><polygon class="cls-1" points="2.73 0 0.55 6 0 7.5 6 7.5 6.55 6 11.05 6 4.5 24.02 3 24.02 0.27 31.52 12.27 31.52 15 24.02 13.5 24.02 20.06 6 24.56 6 24.02 7.5 30.02 7.5 30.56 6 32.75 0 2.73 0"/><g class="cls-3"><rect class="cls-1" width="32.75" height="31.52"/></g><polygon class="cls-1" points="49.65 0 46.92 7.5 49.92 7.5 39.68 15.01 42.42 7.5 43.92 7.5 46.65 0 34.64 0 31.91 7.5 33.41 7.5 27.4 24.02 25.9 24.02 23.17 31.52 35.18 31.52 37.91 24.02 36.41 24.02 37.5 21.01 42.49 17.35 43.91 24.02 40.91 24.02 38.18 31.52 53.19 31.52 55.92 24.02 52.92 24.02 50.28 11.64 55.92 7.5 60.43 7.5 63.16 0 49.65 0"/><g class="cls-4"><rect class="cls-1" x="23.17" width="39.99" height="31.52"/></g><path class="cls-1" d="M71.46,19.51H79s1.5,0,.68,2.25S77.32,24,77.32,24h-7.5Zm4.37-12h7.5s1.5,0,.68,2.26S81.69,12,81.69,12h-7.5ZM66.55,0,63.82,7.5h3L60.81,24h-3l-2.73,7.51h24A12,12,0,0,0,88,23.64c2.87-7.88-1.6-7.88-1.6-7.88s4.87-1.08,7.34-7.88C96.24.9,90.56,0,90.56,0Z"/><g class="cls-5"><rect class="cls-1" x="55.08" width="41.16" height="31.52"/></g></g></g></svg>