<?xml version="1.0" encoding="utf-8"?>
<!-- Generator: $$$/GeneralStr/196=Adobe Illustrator 27.6.0, SVG Export Plug-In . SVG Version: 6.00 Build 0)  -->
<svg version="1.1" id="圖層_1" xmlns="http://www.w3.org/2000/svg" xmlns:xlink="http://www.w3.org/1999/xlink" x="0px" y="0px"
	 viewBox="0 0 600 50" style="enable-background:new 0 0 600 50;" xml:space="preserve">
<style type="text/css">
	.st0{fill:#FFF5E7;}
</style>
<g transform="translate(-143 -825)">
	<rect x="184.7" y="841.7" class="st0" width="8.3" height="8.3"/>
	<path class="st0" d="M168,825h-25v8.3h8.3v8.3h8.3v8.3h8.3v-8.3h8.3v-8.3H168V825z"/>
	<rect x="176.3" y="825" class="st0" width="8.3" height="8.3"/>
	<path class="st0" d="M201.3,825H193v8.3h8.3v8.3h8.3v-8.3h8.3V825H201.3z"/>
	<rect x="276.3" y="825" class="st0" width="8.3" height="8.3"/>
	<rect x="226.3" y="833.3" class="st0" width="8.3" height="8.3"/>
	<path class="st0" d="M268,833.3V825h-25v16.7h8.3v-8.3h8.3V850h8.3v-8.3h8.3v-8.3L268,833.3z"/>
	<path class="st0" d="M293,833.3h-8.3v8.3h-8.3v8.3h25v-8.3H293V833.3z"/>
	<rect x="234.7" y="841.7" class="st0" width="8.3" height="8.3"/>
	<rect x="426.3" y="858.3" class="st0" width="16.7" height="16.7"/>
	<path class="st0" d="M393,825H293v8.3h8.3v8.3H318v8.3h8.3v-8.3h8.3v-8.3h8.3v8.3h16.7v16.7h16.7V875H393v-16.7h16.7v-16.7H393V825
		z"/>
	<rect x="409.7" y="825" class="st0" width="16.7" height="16.7"/>
	<path class="st0" d="M459.7,825H443v16.7h16.7v16.7h16.7v-16.7H493V825H459.7z"/>
	<rect x="609.7" y="825" class="st0" width="16.7" height="16.7"/>
	<path class="st0" d="M726.3,825H643v16.7h16.7v16.7H693V875h16.7v-16.7h16.7v-16.7H743V825H726.3z"/>
	<rect x="509.7" y="841.7" class="st0" width="16.7" height="16.7"/>
	<path class="st0" d="M593,841.7V825h-50v33.3h16.7v-16.7h16.7V875H593v-16.7h16.7v-16.7H593z"/>
	<path class="st0" d="M643,841.7h-16.7v16.7h-16.7V875h50v-16.7H643V841.7z"/>
	<rect x="526.3" y="858.3" class="st0" width="16.7" height="16.7"/>
</g>
</svg>
