<?xml version="1.0" encoding="utf-8"?>
<!-- Generator: Adobe Illustrator 24.1.2, SVG Export Plug-In . SVG Version: 6.00 Build 0)  -->
<svg version="1.1" id="圖層_1" xmlns="http://www.w3.org/2000/svg" xmlns:xlink="http://www.w3.org/1999/xlink" x="0px" y="0px"
	 viewBox="0 0 710.4 802.8" style="enable-background:new 0 0 710.4 802.8;" xml:space="preserve">
<style type="text/css">
	.st0{fill:#333333;}
	.st1{fill:#FBC841;}
	.st2{fill:#FB8A8C;}
	.st3{fill:#4D4D4D;}
	.st4{fill:#ADB5BD;}
</style>
<g id="圖層_2_1_">
	<g id="Layer_1">
		<path class="st0" d="M663,372.6c-5.8-9.8-15.2-30.5-15.2-30.5s-2.8-147.4-35.8-194.2c-1.8-2.5-3.8-5.1-6.7-6c-3.4-1-7,0.5-10.2,2
			C538,171.6,490.3,215.5,458,270.3c-62.9-5.6-198,6.6-202.4,5.4c-6.1-1.8-82.5-87-137.8-101.9c-14-3.8-31.8-5.1-39.9,6.9
			c-3.4,5-3.3,11.6-4.7,17.5c-12.4,53.1-17.3,110,9.2,173.1c1,2.4-34.8,52.3-38.1,59.3c-10.6,22.6-18.1,46.6-22.5,71.2
			c-8.6,48-5.1,99.2,14.9,144c40.7,91.5,159.9,138.6,252.9,152.5c140,20.9,308.9-30.1,389.6-152.4
			C732.2,565.6,711.5,455.6,663,372.6z"/>
		<path class="st1" d="M258.6,464.1c-18.6-11.5-53.2-9.7-70,4.2c-24.8,13.8-27.9,52.3-9.3,73.7s51.8,25.9,78.2,15.8
			c9.6-3.7,18.9-9.4,24.2-18.2c3.5-5.9,4.9-12.9,5.2-19.7C287.9,498.1,277.2,475.6,258.6,464.1z"/>
		<path class="st0" d="M244.7,484.1c-10.5-6.5-30.1-5.5-39.6,2.4c-14,7.8-15.8,29.6-5.3,41.7s29.3,14.7,44.3,9
			c5.4-2.1,10.7-5.3,13.7-10.3c1.9-3.4,2.9-7.3,3-11.2C261.3,503.4,255.2,490.6,244.7,484.1z"/>
		<path class="st1" d="M478.4,570.8c21.8-1.6,48.8-23.4,54.2-44.6c11.9-25.7-8.1-58.7-35.7-65.1s-57.1,9.4-72.6,33.1
			c-5.6,8.6-9.8,18.7-8.9,28.9c0.6,6.8,3.6,13.3,7.3,19.1C434.7,560.5,456.6,572.4,478.4,570.8z"/>
		<path class="st0" d="M477.9,546.5c12.4-0.9,27.6-13.2,30.7-25.2c6.8-14.5-4.6-33.2-20.2-36.9s-32.3,5.3-41.1,18.8
			c-3.2,4.9-5.6,10.6-5,16.4c0.5,3.9,1.9,7.6,4.2,10.8C453.1,540.7,465.5,547.4,477.9,546.5z"/>
		<path class="st2" d="M201.4,293.5c-7.2-9.1-16.1-15.6-24.9-21.8l-18.2-13.1c-9.3-6.7-14.2-13.2-24.1-12.6
			c-2.2,30.6-6,67.7,0.2,98.9c0.4,1.8,0.9,3.8,2.2,4.6s2.8,0,3.9-0.9l61.1-47c0.9-0.6,1.6-1.5,1.9-2.5
			C203.9,297.1,202.6,295,201.4,293.5z"/>
		<path class="st2" d="M576.2,321.7c2.2,1.1,4.8,2.3,6.6,0.8c1-1,1.7-2.3,1.9-3.7c8.2-28.4,8.9-60,1.9-90c-0.4-1.7-1-3.6-2.3-4.6
			s-3.1-0.1-4.7,0.2c-37.9,6-70,59.2-69.1,60.8C520.8,304.5,565.8,316.1,576.2,321.7z"/>
		<path class="st2" d="M386.7,563.9c-1.7-2-4.2-3.1-6.7-4c-20.6-7.1-43.1-6.1-63.1,2.7c-2.9,1.3-6.2,3.5-6,6.6
			c0.2,1.5,0.8,2.8,1.7,4c8,12.1,16.6,24.6,28.5,32.5c0.3,18.6,1.3,37.1,3.2,55.7c1.3,12.7,21.3,12.8,20,0
			c-1.9-18.8-2.9-37.7-3.2-56.6c8.4-6.7,15.9-14.5,22.3-23.2C387.4,576.4,390.8,568.9,386.7,563.9z"/>
		<path class="st3" d="M532.8,623.8c30.5-13.9,61.7-26.1,93.5-36.8c12.1-4.1,6.9-23.4-5.3-19.3c-33.4,11.3-66.2,24.2-98.3,38.9
			C511,611.9,521.2,629.1,532.8,623.8L532.8,623.8z"/>
		<path class="st3" d="M542.1,655.4l91.4-21c12.5-2.9,7.2-22.2-5.3-19.3l-91.4,21C524.3,639,529.6,658.3,542.1,655.4L542.1,655.4z"
			/>
		<path class="st3" d="M174.2,604.5c-30.8-3.5-61.6-7-92.2-12c-12.6-2.1-18,17.2-5.3,19.3c32.3,5.3,65,9.1,97.5,12.8
			C186.9,626,186.8,606,174.2,604.5L174.2,604.5z"/>
		<path class="st3" d="M79.1,659.7c32.8,2.3,65.7-0.5,98.5,1.8c12.8,0.9,12.8-19.1,0-20c-32.8-2.3-65.7,0.5-98.5-1.8
			C66.3,638.8,66.3,658.8,79.1,659.7z"/>
		<path class="st4" d="M18,301.4c0.5-9.7,0.7-24.4,8-31.9c6.4-6.6,14.3,4.8,14.4-9.3c0-5.3-1-10.4-1.3-15.7
			c-0.2-3.3-1.5-21.1,5.8-18.7c2.2-9.7,2.9-19.9,4.5-29.7c5.9-36.2,15-72.7,35.1-103.9c9.3-14.4,20.8-27.4,33-39.5
			c12.6-12.5,26.3-23.6,42.2-31.7C191.2,5,327.4,0,362.5,0h3c35.1,0,171.3,5,202.9,21c15.9,8.1,29.5,19.3,42.2,31.7
			c12.2,12,23.7,25,33,39.5c20.1,31.2,29.2,67.7,35.1,103.9c1.6,9.8,2.3,20,4.5,29.7c7.3-2.4,6,15.4,5.8,18.7
			c-0.2,5.3-1.3,10.4-1.3,15.7c0.1,14,8,2.7,14.4,9.3c7.2,7.5,7.5,22.1,8,31.9c1.8,37-2.1,72.8-13.3,108.1
			c-3.7,11.6-10.8,29.4-26,23.1c-4-1.7-8.9,0.2-12.7-1.6c-4.1-2-5.1-5.8-6-9.9c-1.8,7.6-8.3,8.3-15,7.7
			c-10.1-0.9-23.2,2.3-23.2-11.3c0-25.3,6.5-49.9,9.6-74.9c2-16.1,4.3-32.4,5.3-48.6c0.6-9.8,1-21,5.9-29.8
			c3.1-5.5,12.2-4.7,16.9-2.9c5.2,2,12,9.4,17.6,9.5c10.4,0.2,2-35.6,1.3-40.4c-0.9-6.1,2.1-9,1.9-14.4c-0.8-15.9-3.6-31.6-8.3-46.8
			c-9.2-31.2-25.4-59.1-49.4-81.2c-30.4-28-69.8-47.2-111-52.2c-13.1-1.6-126.4-1.8-139.6-1.9c-13.2,0.2-126.5,0.4-139.6,1.9
			c-41.2,5-80.6,24.2-111,52.2c-24,22.1-40.2,50-49.4,81.2c-4.6,15.2-7.4,30.9-8.3,46.8c-0.2,5.4,2.8,8.3,1.9,14.4
			c-0.7,4.8-9.1,40.6,1.3,40.4c5.6-0.1,12.4-7.5,17.6-9.5c4.7-1.8,13.8-2.6,16.9,2.9c5,8.8,5.3,20,5.9,29.8
			c1,16.2,3.3,32.5,5.3,48.6c3,25,9.6,49.6,9.6,74.9c0,13.6-13.1,10.4-23.2,11.3c-6.7,0.6-13.2-0.1-15-7.7c-0.9,4.1-1.9,8-6,9.9
			c-3.8,1.8-8.6-0.1-12.7,1.6c-15.3,6.3-22.3-11.6-26-23.1C20.1,374.2,16.2,338.4,18,301.4z"/>
		<path class="st4" d="M47.9,348.3c-4.8-1.1-9.8-1.7-14.5-0.4c-3.6,1-5.6,2.8-9.9,3.1C1.9,352.7-2.6,359.4,1.2,381
			c2.2,12.5-1.2,29,9.1,38.6c3.8,3.6,3.9,1.5,5.7,5.7c3.6,8.2-0.1,16.8,1.4,25.2c1.6,9.5,9.4,15.3,13.1,23.8
			c5.6,12.8,8,26.8,14.2,39.2C69,562.2,90.3,616.7,130.3,655c11.2,10.8,21.4,22,34,31.3c24.9,18.3,54.2,34.6,84.6,41.5
			c9,17,21.9,29.4,41.4,33.2c16.5,3.3,39.2-0.6,43.7-19.7c4.2-17.8-10.6-35.5-26.7-40.8c-17.7-5.8-33.8,2.7-50.5,7.3l-0.8,0.2
			c-35.6,9.3-70.8-11.8-95.7-35.7l-23.1-22.2c-19.7-18.9-35-46.3-48.6-69.7c-14.1-24.3-27.8-49.5-39.2-75.1
			c-1.7-3.8-18.5-41.3-15.2-43.9l4.6-3.6l0.5-4.1c0.5-10.8-2.8-24.6,2.8-34.3c1-1.7,2-3.4,2.9-5L47.9,348.3z"/>
	</g>
</g>
</svg>
