<?xml version="1.0" encoding="utf-8"?>
<!-- Generator: Adobe Illustrator 26.2.1, SVG Export Plug-In . SVG Version: 6.00 Build 0)  -->
<svg version="1.1" id="圖層_1" xmlns="http://www.w3.org/2000/svg" xmlns:xlink="http://www.w3.org/1999/xlink" x="0px" y="0px"
	 viewBox="0 0 275.7 550" style="enable-background:new 0 0 275.7 550;" xml:space="preserve">
<style type="text/css">
	.st0{fill:#FFFFFF;}
	.st1{fill:#333333;}
	.st2{enable-background:new    ;}
	.st3{fill:#F29001;}
</style>
<g id="main_header_title" transform="translate(-100.396 -1109.429)">
	<g id="矩形_26" transform="translate(120.25 1109.429)">
		<g>
			<rect x="0" class="st0" width="235" height="530"/>
		</g>
		<g>
			<path class="st1" d="M235,530H0V0h235V530z M1,529h233V1H1V529z"/>
		</g>
	</g>
	<g class="st2">
		<g>
			<path class="st1" d="M180.2,1279.5v13.1h-2v-2.9c-3.4,0.4-6.9,0.8-9.4,1.1l-0.2-1.8c0.8-0.1,1.7-0.1,2.7-0.3v-9.3h-2.3v-1.7h24.5
				v1.7H180.2z M174,1276.6h-2v-8.5h18.6v8.5h-2.1v-6.9H174V1276.6z M178.2,1279.5h-5v1.8h5V1279.5z M178.2,1282.8h-5v1.9h5V1282.8z
				 M173.2,1288.6c1.6-0.2,3.3-0.3,5-0.5v-1.8h-5V1288.6z M187.3,1272.7h-12v-1.4h12V1272.7z M175.2,1274.4h12v1.4h-12V1274.4z
				 M192.5,1281.6c-0.9,2.7-2.3,4.9-4.1,6.6c1.6,1.2,3.4,2.1,5.6,2.6c-0.4,0.4-1,1.1-1.2,1.6c-2.2-0.6-4.1-1.7-5.8-3
				c-1.7,1.3-3.6,2.3-5.5,2.9c-0.3-0.4-0.8-1.2-1.1-1.6c1.8-0.6,3.7-1.5,5.3-2.7c-1.3-1.4-2.4-3.1-3.2-5l1.2-0.4H181v-1.7h9.9
				l0.4-0.1L192.5,1281.6z M184.2,1282.8c0.6,1.6,1.6,3,2.8,4.2c1.2-1.2,2.3-2.6,3-4.2H184.2z"/>
		</g>
	</g>
	<g class="st2">
		<g>
			<path class="st1" d="M178.4,1321.5c-2.2,1.7-5.6,3.6-8.4,4.7c-0.4-0.4-1-1.1-1.5-1.5c2.8-1.1,6.3-2.9,8-4.4L178.4,1321.5z
				 M193.8,1320h-25v-1.9h4.5v-16.2h16.4v16.2h4.1V1320z M175.2,1303.7v2.4h12.3v-2.4H175.2z M187.5,1307.6h-12.3v2.4h12.3V1307.6z
				 M175.2,1311.6v2.4h12.3v-2.4H175.2z M175.2,1318.1h12.3v-2.5h-12.3V1318.1z M185.5,1320.2c3.1,1.4,6.5,3.2,8.6,4.5l-1.7,1.6
				c-2-1.3-5.2-3.1-8.2-4.6L185.5,1320.2z"/>
		</g>
	</g>
	<g class="st2">
		<g>
			<path class="st1" d="M173.4,1354.1c-0.7,1.7-1.9,3.4-3,4.6c-0.3-0.3-1-0.9-1.5-1.1c1.1-1,2.1-2.5,2.7-4L173.4,1354.1z
				 M183.8,1346.2H169v-1.7h6.5c-0.2-0.4-0.4-0.9-0.6-1.3l1.9-0.5c0.3,0.5,0.7,1.1,1,1.7h6.1V1346.2z M182.9,1342.8h-12.5v-7.6h12.5
				V1342.8z M177.5,1353v4.6c0,1-0.2,1.5-0.9,1.7c-0.7,0.3-1.7,0.3-3.3,0.3c-0.1-0.5-0.4-1.2-0.6-1.7c1.1,0,2.1,0,2.4,0
				c0.3,0,0.4-0.1,0.4-0.4v-4.6h-4.9v-5.3h12v5.3H177.5z M180.8,1336.6h-8.5v1.7h8.5V1336.6z M180.8,1339.7h-8.5v1.7h8.5V1339.7z
				 M172.5,1351.5h8v-2.4h-8V1351.5z M180.4,1353.5c1,1.3,2.1,2.9,2.6,4l-1.6,0.8c-0.5-1.1-1.6-2.9-2.5-4.1L180.4,1353.5z
				 M194.1,1351c-2.2,3.6-5.8,6.7-9.7,8.6c-0.3-0.5-1-1.2-1.5-1.6c3.7-1.6,7.3-4.5,9.2-7.7L194.1,1351z M192.6,1335.6
				c-1.9,2.5-4.8,5-7.3,6.6c-0.4-0.4-1-1.1-1.5-1.4c2.5-1.4,5.3-3.7,6.9-5.9L192.6,1335.6z M193.5,1343.1c-2,2.7-5.3,5.3-8.2,6.9
				c-0.3-0.4-0.9-1.1-1.5-1.5c2.8-1.4,6-3.8,7.8-6.2L193.5,1343.1z"/>
		</g>
	</g>
	<g class="st2">
		<g>
			<path class="st1" d="M177.3,1373.5c-1.2,3.6-4.1,5.9-7.6,7.3c-0.1-0.3-0.6-1-0.9-1.3c2.3-0.8,4.3-2,5.6-3.7
				c-3.9,0.4-4.5,0.6-4.9,0.7c-0.1-0.3-0.3-1.1-0.4-1.5c0.5-0.1,1-0.3,1.7-0.8c0.3-0.2,1-0.8,1.7-1.5c-2.1,0.2-2.6,0.3-2.9,0.4
				c-0.1-0.4-0.3-1.1-0.5-1.5c0.3-0.1,0.7-0.3,1.1-0.6c0.4-0.4,1.8-1.8,2.6-3.3l1.4,0.8c-0.8,1.1-1.8,2.3-2.8,3.1l2.4-0.2
				c0.5-0.5,1-1.1,1.5-1.7l1.3,0.8c-1.5,1.5-3.1,3-4.6,4.2l3.4-0.3c0.2-0.4,0.4-0.8,0.5-1.3L177.3,1373.5z M187.5,1382.2
				c-0.5,0.6-1,1.3-1.4,1.8h7.6v1.5h-24.9v-1.5h7.6c-0.3-0.5-0.7-1.2-1.2-1.6l0.9-0.3h-4.5v-1.4h8.8c-0.2-0.4-0.4-0.9-0.6-1.3
				l1.9-0.5c0.3,0.5,0.7,1.2,0.9,1.8h8.7v1.4H187L187.5,1382.2z M172.8,1386.6H190v6.7h-2v-0.7h-13.3v0.8h-1.9V1386.6z
				 M174.7,1387.8v1.3H188v-1.3H174.7z M188,1391.4v-1.3h-13.3v1.3H188z M185.1,1379.3c-0.3-0.4-0.6-0.9-1-1.4
				c-5.7,1.3-6.5,1.5-6.9,1.8c-0.1-0.4-0.4-1.1-0.7-1.5c0.4-0.1,1-0.5,1-1.5v-7.3h1.8v0h1.2c-0.2-0.5-0.5-1.1-0.7-1.5l1.6-0.4
				c0.4,0.6,0.8,1.3,1,2h3v6.5H184c0.9,0.9,1.8,1.9,2.3,2.7L185.1,1379.3z M177.2,1382c0.5,0.6,1,1.3,1.2,1.8l-0.4,0.1h6.1
				c0.4-0.6,1-1.3,1.3-1.9H177.2z M179.1,1370.6v1.4h4.5v-1.4H179.1z M179.1,1374.7h4.5v-1.5h-4.5V1374.7z M183,1376.8
				c-0.3-0.3-0.6-0.6-0.9-0.8h-2.9v1.6L183,1376.8z M188.3,1380.1h-1.7v-11.4h5.9l0.3-0.1l1.2,0.6c-0.7,1.4-1.5,2.7-2.3,3.9
				c1.6,1.2,2.3,2.4,2.3,3.3c0,1-0.4,1.7-1,2c-0.3,0.2-0.8,0.3-1.2,0.4c-0.6,0.1-1.4,0.1-2.1,0c0-0.4-0.3-1.1-0.6-1.5
				c0.8,0.1,1.5,0.1,2,0c0.3,0,0.6-0.1,0.8-0.1c0.3-0.2,0.5-0.5,0.5-1c0-0.8-0.8-1.7-2.4-2.9c0.6-1.1,1.2-2.2,1.7-3.2h-3.2V1380.1z"
				/>
		</g>
	</g>
	<g class="st2">
		<g>
			<path class="st1" d="M192.6,1407.5c0,0,0,0.8-0.1,1.1c-0.6,11.5-1.2,15.7-2.4,17.1c-0.6,0.8-1.3,1-2.4,1.1c-1,0.1-2.8,0-4.5-0.1
				c0-0.6-0.3-1.5-0.7-2.1c1.9,0.2,3.7,0.2,4.4,0.2c0.6,0,1-0.1,1.3-0.4c1-1,1.6-4.9,2.2-14.8h-9.5c-0.4,5.8-2.2,12.6-10.4,17.5
				c-0.3-0.5-1.1-1.3-1.6-1.7c7.6-4.5,9.4-10.6,9.8-15.9h-9v-2.1h9.1c0-0.4,0-0.8,0-1.2v-4.8h2.2v4.8c0,0.4,0,0.8,0,1.2H192.6z"/>
		</g>
	</g>
	<g class="st2">
		<g>
			<path class="st1" d="M176.3,1435.4c-0.5,1.4-1,2.9-1.5,4.1h4.6v18.2h-7.8v2.2h-1.9v-20.4h3.1c0.4-1.3,0.9-3.2,1.1-4.5
				L176.3,1435.4z M177.6,1441.3h-5.9v5.9h5.9V1441.3z M177.6,1455.8v-6.7h-5.9v6.7H177.6z M193.1,1440.5
				c-0.4,12.8-0.8,17.1-1.9,18.5c-0.6,0.8-1.3,1-2.2,1.1c-1,0.1-2.6,0.1-4.1,0c-0.1-0.6-0.3-1.5-0.7-2c1.8,0.2,3.5,0.2,4.1,0.2
				c0.6,0,0.9-0.1,1.1-0.4c0.9-1,1.3-5.2,1.7-16.4H184c-0.8,1.9-1.7,3.6-2.6,4.9c-0.4-0.3-1.3-0.9-1.7-1.2c1.9-2.5,3.4-6.3,4.3-10.2
				l2,0.5c-0.3,1.4-0.7,2.7-1.2,4h8.4V1440.5z M187,1453.1c-0.8-1.7-2.7-4.5-4.3-6.5l1.6-1c1.6,2,3.5,4.7,4.4,6.3L187,1453.1z"/>
		</g>
	</g>
	<g class="st2">
		<g>
			<path class="st1" d="M192.3,1475.7c-0.7,4.5-1.7,8.1-3.4,11.1c1.4,2.4,3.2,4.3,5.4,5.5c-0.5,0.4-1.1,1.2-1.5,1.8
				c-2.1-1.3-3.8-3.1-5.2-5.3c-1.7,2.2-3.8,4-6.5,5.4c-0.2-0.5-0.8-1.4-1.3-1.9c2.9-1.4,5.1-3.2,6.7-5.6c-1.1-2.3-1.9-4.9-2.5-7.8
				c-0.5,1.2-1.2,2.3-1.9,3.3c-0.3-0.3-1-1-1.5-1.3c-1.1,1.3-2.7,2.7-4.2,3.7v1.1c1.8-0.2,3.6-0.5,5.5-0.7l0,1.8
				c-1.8,0.3-3.7,0.5-5.5,0.8v4.3c0,1.1-0.2,1.6-1,1.9c-0.8,0.3-2,0.3-3.7,0.3c-0.1-0.6-0.4-1.3-0.7-1.8c1.4,0.1,2.6,0,2.9,0
				c0.4,0,0.5-0.1,0.5-0.4v-4c-2.1,0.3-4,0.6-5.6,0.8l-0.3-1.9c1.6-0.2,3.6-0.4,5.8-0.7v-1.9c1.1-0.6,2.3-1.6,3.2-2.5h-4.4
				c-1.1,0.8-2.2,1.6-3.4,2.3c-0.3-0.4-1.1-1.2-1.5-1.6c2.3-1.1,4.3-2.7,6.1-4.4h-5.9v-1.8h4.8v-2.8h-3.7v-1.8h3.7v-2.9h1.9v2.9h2.9
				v1.7c0.8-1.3,1.4-2.6,2-4l1.9,0.6c-1,2.3-2.1,4.4-3.5,6.3h3.4v1.8h-4.9c-0.6,0.7-1.3,1.4-2,2h4.1l0.4-0.1l1,0.7
				c2.1-2.9,3.6-7.4,4.4-12l2.1,0.3c-0.3,1.7-0.7,3.3-1.1,4.8h8.2v2H192.3z M175.3,1476.1h0.8c0.7-0.9,1.4-1.8,2-2.8h-2.8V1476.1z
				 M187.7,1484.6c1.2-2.5,1.9-5.4,2.4-8.8h-4.9C185.8,1479,186.6,1482,187.7,1484.6z"/>
		</g>
	</g>
	<g class="st2">
		<g>
			<path class="st1" d="M193.5,1506.8h-7.4c2.3,1.6,4.9,3.8,6.2,5.2l-1.8,1.2c-0.5-0.6-1.2-1.3-1.9-2c-14.3,0.7-15.8,0.8-16.7,1.1
				c-0.1-0.4-0.4-1.4-0.6-2c0.6-0.1,1.4-0.6,2.4-1.5c0.5-0.3,1.4-1.1,2.4-2.1h-7v-1.9h8.9c0.9-1,1.8-2,2.6-3.1l2.1,0.9
				c-0.6,0.7-1.3,1.5-2,2.2h12.8V1506.8z M190.6,1525.3c0,1.3-0.3,1.8-1.3,2.1c-0.9,0.3-2.6,0.3-5,0.3c-0.1-0.6-0.3-1.3-0.6-1.8
				c1.7,0.1,3.6,0.1,4,0c0.5,0,0.7-0.2,0.7-0.6v-3.6c-4.4,0.9-9,1.8-12.5,2.5l-0.7-1.9c3.2-0.5,8.3-1.3,13.1-2.2v-5.1h-13.9v3.3
				c0,2.9-0.5,6.9-3.2,9.6c-0.3-0.4-1.2-1.1-1.7-1.3c2.5-2.4,2.9-5.8,2.9-8.4v-5h18.1V1525.3z M186.8,1509.6
				c-0.9-0.7-1.9-1.5-2.8-2.1l1.2-0.8h-6.4c-1.3,1.2-2.6,2.4-3.9,3.4L186.8,1509.6z M176.1,1516.2c3.4,0.5,7.8,1.6,10.2,2.5
				l-0.6,1.5c-2.3-1-6.7-2.2-10.2-2.7L176.1,1516.2z"/>
		</g>
	</g>
	<g class="st2">
		<g>
			<path class="st1" d="M169.7,1549.2h9.9v11.9h-2v-1.3h-5.9v1.5h-2V1549.2z M171.6,1551.2v6.6h5.9v-6.6H171.6z M188.9,1546.3h-15.2
				v-9.3h15.2V1546.3z M186.9,1539h-11.1v5.3h11.1V1539z M193,1549.2v12h-2v-1.3h-6.4v1.5h-2v-12.2H193z M191,1557.9v-6.6h-6.4v6.6
				H191z"/>
		</g>
	</g>
	<g class="st2">
		<g>
			<path class="st1" d="M172.2,1580.6c0,0.8,0,1.5,0,2.3h4.8v12h-2v-10.2h-2.9c-0.2,3.5-0.7,7.3-1.9,10.2c-0.4-0.2-1.3-0.5-1.9-0.7
				c1.7-4,2-9.6,2-13.6V1570h1.9v7.1h3v-7.7h1.8v9.5h-4.7V1580.6z M194,1589.3h-5v5.7h-1.9v-5.7h-9.3v-1.9h3
				c-0.4-0.3-0.8-0.7-1.1-0.9c1.4-1,2.5-2,3.2-3.1h-4v-11.1h4c0.4-0.9,0.9-2,1.1-2.9l2.3,0.4c-0.4,0.9-0.9,1.8-1.3,2.5h7.5v11.1H185
				c-0.8,1.4-1.8,2.8-3.4,4h5.5v-3.3h1.9v3.3h5V1589.3z M180.9,1577h4v-3h-4V1577z M183.9,1581.7c0.5-1.1,0.8-2.2,0.9-3.1h-3.9v3.1
				H183.9z M190.6,1578.6h-4c-0.1,0.9-0.4,1.9-0.8,3.1h4.8V1578.6z M190.6,1574h-3.9v3h3.9V1574z"/>
		</g>
	</g>
	<g class="st2">
		<g>
			<path class="st3" d="M244.9,1242.3v2.6c0,0.6-2.6,2.4-6.6,2.4h-1.4v-24.2c-1.6,1.7-3.3,3.1-5,4.4l-1-0.8
				c3.1-4.9,6.4-12.6,8.3-20.3c-0.9,0.5-2.2,0.9-4,0.9l-1-0.1v-18.3l7.3,3h2.2l3-3l6.3,4.7c-0.3,0.5-1.3,1-2.4,1.1v9.8
				c-0.1,0.6-3.2,1.8-5.2,1.8h-1v-2.6h-3.8v1.7c0,0.1-0.1,0.2-0.2,0.3l8.9,3c-0.3,1-1.4,1.6-3.1,1.5c-0.5,1-1,2-1.6,3l1.4,0.6h9.5
				c-0.7-0.2-1.5-0.6-2.2-1.1c-0.2-2.6-1.4-5.4-2.6-7.2l0.7-0.4c0.9,0.1,1.8,0.2,2.5,0.4v-16.5l7.4,3h2.4l3-3.1l6.4,4.8
				c-0.3,0.5-1.3,1-2.4,1.2v9.4c-0.1,0.6-3.4,1.8-5.4,1.8h-1v-2.3h-4.1v0.9c0,0.4-1.3,1.4-3.4,1.8c5.7,2.4,4,6.7,0.6,7.4h4.7
				l3.8-4.7c0,0,4.3,3.3,7,5.8c-0.2,0.9-1,1.3-2.2,1.3h-11.1v6.2h1.9l3.6-4.5c0,0,4.1,3.2,6.6,5.4c-0.2,0.9-1,1.3-2,1.3h-10.1v6.5
				h1.9l3.7-4.5c0,0,4.1,3.2,6.6,5.4c-0.2,0.9-1,1.3-2.1,1.3h-10.1v6.9h3.1l3.9-5c0,0,4.6,3.5,7.4,6c-0.2,0.9-1,1.3-2.2,1.3H244.9z
				 M231.1,1180.9h9.9v-7.8l10.5,1c-0.2,0.9-0.7,1.6-2.5,1.8v11.4c0,0.6-3.6,1.8-6.6,1.8h-1.4v-5.8h-9.3L231.1,1180.9z
				 M240.4,1194.1v7.3h3.8v-7.3H240.4z M244.9,1216v6.2h6.9v-6.2H244.9z M251.8,1224.5h-6.9v6.5h6.9V1224.5z M251.8,1233.2h-6.9v6.9
				h6.9V1233.2z M262.8,1186.9c0,0.6-3.6,1.8-6.6,1.8h-1.4v-15.7l10.5,1c-0.1,0.9-0.6,1.5-2.4,1.8v5.1h3l3.6-4.8
				c0,0,3.9,3.3,6.3,5.8c-0.2,0.9-1,1.3-2.1,1.3h-10.8V1186.9z M260.1,1194.1v7.3h4.1v-7.3H260.1z M293.6,1198.6c-0.3,1-1,1.7-3,1.7
				c-0.1,1.4-0.2,2.9-0.2,4.3c1.4,16.2,5.5,27.4,15.8,33.8l-0.1,1c-4.1,1-6.5,4-7.1,9.2c-6-6.5-8.5-18.7-9.5-33.3
				c-1.8,13.6-6.2,25.9-19.8,33.3l-1-1c13.1-11.2,13.5-31,13.8-51.6L293.6,1198.6z M307.5,1193.1c-0.6,0.7-1.4,0.9-3,1
				c-2,4.2-5.4,10.6-8.4,14.6l-1-0.6c0.6-4.3,1.1-11,1.4-15.7h-14c-3,6.4-6.5,12.1-10.4,16.6l-1.1-0.6c3.4-9.1,6.4-22.9,7.8-35
				l12,3.2c-0.3,1-1.3,1.7-3,1.8c-1.3,4-2.6,8-4.3,11.8h12.2l4.3-4.4L307.5,1193.1z"/>
		</g>
	</g>
	<g class="st2">
		<g>
			<path class="st3" d="M258.5,1302.8c-2.2,5.7-6.6,11.9-12.2,16.6c0.3,0.1,0.6,0.3,1,0.6c6.2,5.1,15.8,6.3,33.2,6.2
				c9.3,0,17-0.1,26.4-0.6v1c-3.8,0.8-6,4.2-6.5,7.8h-23c-17.2,0-24.3-3.3-31.1-11.6c-1.1-1.4-2-1.3-2.7,0.2
				c-1.4,2.4-3.7,6.7-5.4,10.8c0.2,0.7-0.2,1.3-0.7,1.6l-6.3-9.1c3.6-1.8,8.8-5.4,11.6-6.7c3-5.1,5.3-11.8,6.3-17.4h-4.8l-3,2.6
				l-7.4-5.2c0.8-0.6,2-1.1,3.2-1.5c2.6-3.8,6.1-9.1,8.3-13h-12.4l-0.7-2.3h13.3l4.1-4.1l8,7.4c-0.7,0.8-2.3,1.2-4.2,1.3
				c-2.1,3.4-5.5,8.8-8.2,12.6h3.4l4.6-4.7l7.4,5.8v-32.3l6.4,1.4c2.8-3,5.7-6.4,7.4-8.5l10.1,6.1c-0.3,0.7-1.2,1-3,0.6
				c-0.7,0.3-1.5,0.7-2.4,1l8.2,3.2h6.2l3.8-4.4l8.6,6.4c-0.6,0.7-1.7,1.4-3.4,1.8v29.5c0,5.8-1.1,9-9.8,9.8
				c-0.2-2.6-0.4-4.7-1.2-5.9c-0.8-1.2-1.9-2-4.5-2.6v14.4c0,0.6-2.6,2.5-6.9,2.5h-1.4v-54.5c-2.8,1.1-6.3,2.3-9.6,3.5v29.7
				c2.6-1,5.3-2.2,8-3.4l0.3,0.8c-2.1,2.6-6.3,7.5-11.4,12.8c-0.8,1.8-2.1,3-3.1,3.5l-4.9-10.4c2.4-1.4,2.8-2,2.8-3.8
				C260.1,1302.6,259.5,1302.7,258.5,1302.8z M235.2,1262.8c22.8,1,16,18.4,7,12.8c-1-4.4-4.5-9.4-7.7-12.4L235.2,1262.8z
				 M286.8,1274.9v31.1c1,0.1,4.8,0.3,5.9,0.3c1,0,1.4-0.4,1.4-1.4v-30.1H286.8z"/>
		</g>
	</g>
	<g class="st2">
		<g>
			<path class="st3" d="M263.6,1362.1l8.4,7.3c-0.6,0.7-1.6,1.3-3.4,1.6c-0.6,32.1-1.8,43.7-6.1,48.2c-2.7,2.8-6.2,4-10.6,4
				c0-3-0.2-5.3-1.3-6.5c-1.2-1.5-3.4-2.6-6.5-3.3l0.1-1.1c2.6,0.2,6.7,0.6,8.3,0.6c1.4,0,2-0.3,2.8-1c2.7-2.6,3.6-15.8,4.2-42.5
				H252c-0.8,19.9-3.9,40.1-20.8,55.1l-1.1-1.1c10.4-16.2,12.4-35.1,12.7-54h-9.9l-0.7-2.2h10.7c0.1-5.8,0-11.4,0-17.1l12.4,1.1
				c-0.2,1.2-1,1.9-3,2.2c-0.1,4.5-0.1,9.1-0.2,13.8h6.6L263.6,1362.1z M305.9,1365.3c-0.6,0.7-1.7,1.4-3.3,1.8v51
				c-0.2,0.9-4.4,3.4-8,3.4h-1.5v-8.1h-9.8v6.2c0,1.1-3.6,3.3-7.5,3.3h-1.6V1359l9.4,4.1h8.6l4.6-5.1L305.9,1365.3z M293.1,1411
				v-45.7h-9.8v45.7H293.1z"/>
		</g>
	</g>
	<g class="st2">
		<g>
			<path class="st3" d="M267.7,1438.6l10.8,7.8c-1.5,1.8-5.4,2.9-10.3,3.4v2.8c2.5,24.4,15.1,40.6,38.5,50.2l-0.3,0.9
				c-4.7,0.6-7.7,3.6-9.4,8.8c-10.6-6.2-22.8-21-26.8-37.4c-5.9,16.2-19.9,30-38.4,37.3l-0.5-0.8c17.4-9.8,32.4-33.2,34.4-59.4v-4.9
				h-18.6l-0.6-2.2h17.2L267.7,1438.6z"/>
		</g>
	</g>
	<g id="直线_1">
		
			<rect x="194.6" y="1583.5" transform="matrix(0.7066 -0.7076 0.7076 0.7066 -1032.6146 677.533)" class="st1" width="212.3" height="1"/>
	</g>
	<g id="直线_3">
		
			<rect x="84.1" y="1222.5" transform="matrix(0.7066 -0.7076 0.7076 0.7066 -824.0817 458.3939)" class="st1" width="113.2" height="1"/>
	</g>
	<g id="直线_4">
		
			<rect x="144.5" y="1187.4" transform="matrix(0.7066 -0.7076 0.7076 0.7066 -791.958 465.8058)" class="st1" width="42.5" height="1"/>
	</g>
	<g id="直线_2">
		<path class="st1" d="M329.5,1135h-8v-1h8V1135z M313.5,1135h-8v-1h8V1135z M297.5,1135h-8v-1h8V1135z M281.5,1135h-8v-1h8V1135z
			 M265.5,1135h-8v-1h8V1135z M249.5,1135h-8v-1h8V1135z M233.5,1135h-8v-1h8V1135z M217.5,1135h-8v-1h8V1135z M201.5,1135h-8v-1h8
			V1135z M185.5,1135h-8v-1h8V1135z M169.5,1135h-8v-1h8V1135z M153.5,1135h-8v-1h8V1135z"/>
	</g>
</g>
</svg>
