<svg width="1920" height="451" viewBox="0 0 1920 451" fill="none" xmlns="http://www.w3.org/2000/svg">
<g clip-path="url(#clip0_1765_205)">
<g clip-path="url(#clip1_1765_205)">
<path d="M1375.76 75.3849L1362.45 77.1226C1362.26 77.1478 1362.07 77.2204 1361.91 77.3339C1361.75 77.4475 1361.63 77.5985 1361.54 77.7738C1361.45 77.9491 1361.41 78.1434 1361.41 78.3395C1361.41 78.5356 1361.47 78.7276 1361.56 78.8988L1387.94 126.232L1396.1 122.119L1375.76 75.3849Z" fill="#E88B3F"/>
<path d="M1402.37 58.7228C1402.37 58.7228 1374.31 72.8706 1362.39 73.6472L1389.98 123.88C1389.98 123.88 1423.61 116.483 1426.67 113.484C1427.98 112.143 1429.09 110.611 1429.96 108.94C1430.36 108.173 1430.56 107.315 1430.53 106.449C1430.51 105.582 1430.26 104.738 1429.81 103.996L1402.37 58.7228Z" fill="white"/>
<path d="M1431.16 106.233C1431.16 106.233 1431.59 106.964 1430.89 108.355C1430.12 109.939 1427.81 114.007 1425.67 114.199L1424.4 113.684C1424.4 113.684 1428.08 111.985 1428.95 108.202C1428.95 108.202 1429.38 106.664 1424.71 107.202L1431.16 106.233Z" fill="#E88B3F"/>
<path d="M1430.15 129.631C1429.88 129.249 1429.7 128.816 1429.61 128.36C1429.52 127.904 1429.52 127.434 1429.62 126.98C1429.72 126.526 1429.91 126.097 1430.19 125.719C1430.46 125.342 1430.8 125.025 1431.2 124.787C1429.89 121.073 1432.17 120.173 1432.17 120.173C1431.78 119.319 1431.6 118.382 1431.66 117.444C1431.71 116.506 1431.99 115.595 1432.48 114.791C1416.57 110.524 1406.34 115.406 1406.34 115.406L1411.41 134.752C1415.4 132.568 1422.1 132.053 1428.52 132.176C1428.6 131.664 1428.79 131.174 1429.07 130.737C1429.35 130.299 1429.72 129.923 1430.15 129.631Z" fill="#FFD4A9"/>
<path d="M1452.07 133.252C1454.53 131.999 1457.04 128.554 1457.04 128.554C1455.4 126.503 1454.63 123.887 1454.9 121.273C1451.46 121.073 1446.5 119.082 1434.6 115.383C1433.88 115.16 1433.18 114.96 1432.48 114.776C1431.99 115.58 1431.71 116.49 1431.66 117.429C1431.6 118.367 1431.78 119.304 1432.17 120.158C1432.17 120.158 1429.86 121.042 1431.2 124.771C1430.8 125.009 1430.46 125.327 1430.19 125.704C1429.91 126.081 1429.72 126.51 1429.62 126.965C1429.52 127.419 1429.52 127.889 1429.61 128.345C1429.7 128.801 1429.88 129.233 1430.15 129.616C1429.72 129.903 1429.34 130.275 1429.06 130.71C1428.77 131.145 1428.58 131.633 1428.49 132.145C1434.24 132.245 1439.77 132.86 1442.91 133.237C1444.78 133.437 1446.61 133.892 1448.36 134.59C1449 133.775 1450.15 134.206 1452.07 133.252Z" fill="white"/>
<path d="M1459.02 126.34C1459.75 125.432 1460.26 124.375 1460.53 123.245C1460.79 122.115 1460.8 120.94 1460.56 119.804L1458.98 120.496C1458.3 120.8 1457.59 121.025 1456.87 121.165C1457.03 122.273 1457.49 125.018 1459.02 126.34Z" fill="white"/>
<path d="M1469.43 120.435C1466.45 117.728 1464.17 118.282 1460.6 119.804C1460.84 120.94 1460.83 122.115 1460.56 123.245C1460.3 124.375 1459.78 125.432 1459.06 126.34C1457.52 125.018 1457.07 122.273 1456.95 121.165C1456.28 121.276 1455.61 121.313 1454.94 121.273C1454.67 123.887 1455.43 126.503 1457.08 128.554C1457.08 128.554 1454.57 131.999 1452.11 133.252C1450.19 134.237 1449.03 133.775 1448.4 134.606C1451.16 135.736 1452.54 137.166 1453.99 137.804C1456.15 138.758 1472.84 123.518 1469.43 120.435Z" fill="#239AAB"/>
<path d="M1452.86 137.566C1452.8 137.57 1452.73 137.554 1452.68 137.521C1452.62 137.488 1452.58 137.44 1452.55 137.381C1452.53 137.342 1452.51 137.299 1452.51 137.254C1452.5 137.21 1452.51 137.165 1452.52 137.122C1452.53 137.079 1452.55 137.039 1452.58 137.004C1452.61 136.97 1452.65 136.941 1452.69 136.92C1452.8 136.859 1463.95 130.877 1468.12 121.35C1468.13 121.304 1468.16 121.262 1468.19 121.226C1468.22 121.19 1468.26 121.161 1468.3 121.141C1468.35 121.121 1468.4 121.111 1468.45 121.111C1468.49 121.111 1468.54 121.12 1468.59 121.14C1468.63 121.159 1468.67 121.188 1468.7 121.224C1468.73 121.259 1468.76 121.301 1468.77 121.347C1468.79 121.393 1468.8 121.442 1468.79 121.49C1468.79 121.538 1468.77 121.585 1468.75 121.627C1464.48 131.376 1453.12 137.466 1453.01 137.528C1452.96 137.551 1452.91 137.564 1452.86 137.566V137.566Z" fill="#82C1CC"/>
<path d="M1425.85 152.267C1425.62 151.866 1425.47 151.421 1425.41 150.96C1425.36 150.499 1425.4 150.031 1425.53 149.586C1425.66 149.141 1425.89 148.728 1426.19 148.373C1426.49 148.018 1426.86 147.729 1427.27 147.523C1426.26 143.717 1428.6 143.01 1428.6 143.01C1428.28 142.119 1428.18 141.161 1428.31 140.222C1428.44 139.283 1428.81 138.391 1429.37 137.627C1413.84 132.13 1403.23 136.197 1403.23 136.197L1406.77 155.881C1410.93 154.013 1417.65 154.028 1424.04 154.643C1424.16 154.146 1424.39 153.68 1424.7 153.272C1425.01 152.864 1425.41 152.522 1425.85 152.267V152.267Z" fill="#FFD4A9"/>
<path d="M1447.42 157.588C1449.97 156.527 1452.74 153.298 1452.74 153.298C1451.27 151.12 1450.72 148.452 1451.2 145.87C1447.79 145.393 1442.99 143.025 1431.43 138.412C1430.73 138.135 1430.03 137.881 1429.36 137.643C1428.79 138.407 1428.43 139.298 1428.3 140.237C1428.16 141.177 1428.26 142.134 1428.59 143.025C1428.59 143.025 1426.28 143.733 1427.26 147.539C1426.84 147.744 1426.47 148.033 1426.17 148.388C1425.87 148.743 1425.65 149.156 1425.51 149.601C1425.38 150.046 1425.34 150.514 1425.4 150.975C1425.45 151.437 1425.6 151.882 1425.84 152.283C1425.38 152.535 1424.98 152.877 1424.66 153.288C1424.35 153.7 1424.11 154.171 1423.98 154.674C1429.71 155.228 1435.17 156.266 1438.27 156.889C1440.12 157.236 1441.91 157.834 1443.6 158.665C1444.32 157.873 1445.43 158.419 1447.42 157.588Z" fill="white"/>
<path d="M1454.89 151.237C1455.69 150.393 1456.29 149.382 1456.65 148.277C1457.01 147.171 1457.12 146 1456.97 144.847L1455.35 145.409C1454.65 145.665 1453.92 145.833 1453.19 145.909C1453.22 147.031 1453.46 149.799 1454.89 151.237Z" fill="white"/>
<path d="M1465.73 146.162C1462.96 143.233 1460.64 143.602 1456.96 144.847C1457.11 146 1457 147.171 1456.64 148.277C1456.28 149.382 1455.68 150.393 1454.88 151.237C1453.45 149.799 1453.22 147.031 1453.18 145.909C1452.51 145.975 1451.84 145.963 1451.17 145.87C1450.69 148.452 1451.24 151.12 1452.71 153.298C1452.71 153.298 1449.94 156.527 1447.39 157.588C1445.4 158.419 1444.31 157.873 1443.59 158.649C1446.25 159.995 1447.52 161.525 1448.92 162.271C1451.06 163.424 1468.89 149.499 1465.73 146.162Z" fill="#239AAB"/>
<path d="M1447.9 161.948C1447.83 161.951 1447.76 161.933 1447.7 161.896C1447.64 161.859 1447.6 161.804 1447.57 161.74C1447.55 161.699 1447.55 161.655 1447.54 161.611C1447.54 161.566 1447.55 161.522 1447.57 161.481C1447.58 161.439 1447.61 161.401 1447.64 161.369C1447.67 161.337 1447.71 161.312 1447.75 161.294C1447.86 161.24 1459.45 156.15 1464.35 146.977C1464.39 146.898 1464.46 146.838 1464.55 146.81C1464.64 146.783 1464.73 146.79 1464.81 146.831C1464.89 146.875 1464.95 146.949 1464.98 147.036C1465.01 147.124 1465 147.218 1464.96 147.3C1459.94 156.681 1448.14 161.871 1448.04 161.909C1448 161.934 1447.95 161.947 1447.9 161.948V161.948Z" fill="#82C1CC"/>
<path d="M1358.66 132.038L1368.65 138.189C1368.65 138.189 1384.87 122.895 1406.74 113.692C1406.74 113.692 1411.92 118.02 1411.16 122.472C1411.16 122.472 1415.99 125.932 1413.8 133.337C1415.06 134.68 1415.94 136.335 1416.35 138.132C1416.75 139.929 1416.67 141.802 1416.11 143.556C1417.19 144.825 1417.86 146.401 1418 148.064C1418.15 149.728 1417.78 151.396 1416.93 152.836C1416.93 152.836 1415.39 158.649 1405.07 165.193C1395.66 171.167 1365.68 180.394 1353.02 169.991C1337.74 157.442 1325.92 137.435 1325.92 137.435L1328.15 133.691L1358.66 132.038Z" fill="#239AAB"/>
<path d="M1367.72 51.6181L1394.86 110.893C1395.07 111.356 1395.43 111.736 1395.88 111.973C1396.34 112.209 1396.85 112.289 1397.36 112.2L1431.19 106.233L1407.16 53.7787C1406.78 52.9565 1406.19 52.2504 1405.45 51.7338C1404.71 51.2172 1403.84 50.9091 1402.94 50.8415L1369.98 48.3656C1369.58 48.3381 1369.19 48.4144 1368.83 48.587C1368.47 48.7596 1368.16 49.0226 1367.93 49.3504C1367.7 49.6781 1367.56 50.0594 1367.53 50.4569C1367.49 50.8544 1367.56 51.2545 1367.72 51.6181V51.6181Z" fill="#E88B3F"/>
<path d="M1361.03 116.744C1361.03 116.744 1375.31 108.286 1380.36 99.49C1380.36 99.49 1381.51 97.8061 1380.95 93.7616C1380.39 89.7172 1380.84 86.2879 1383.45 84.2273C1386.07 82.1666 1386.77 82.3588 1387.3 83.1431C1387.83 83.9274 1386.08 85.5498 1385.21 86.6954C1385.21 86.6954 1387.31 84.4656 1388.29 84.6117C1388.51 84.6277 1388.72 84.7014 1388.9 84.8252C1389.07 84.9491 1389.22 85.1186 1389.31 85.3161C1389.4 85.5137 1389.44 85.7322 1389.42 85.949C1389.4 86.1658 1389.32 86.3731 1389.19 86.5493C1388.53 87.5298 1387.8 88.4555 1386.99 89.3174C1386.99 89.3174 1389.3 86.8261 1390.34 87.0107C1390.57 87.0294 1390.79 87.1111 1390.98 87.2469C1391.17 87.3827 1391.31 87.5672 1391.4 87.7803C1391.49 87.9933 1391.52 88.2265 1391.48 88.4543C1391.44 88.6821 1391.35 88.8956 1391.2 89.0713C1390.5 90.0202 1389.74 90.9266 1388.94 91.7856C1389.82 91.0355 1390.79 90.3856 1391.82 89.8479C1392.7 89.5557 1393.7 91.0167 1393.01 91.8548C1392.32 92.6929 1390.95 93.5156 1390.91 94.9304C1390.87 96.3451 1395.73 100.397 1392.45 104.688C1392.45 104.688 1382.96 124.325 1367.15 130.915L1361.03 116.744Z" fill="#FFD4A9"/>
<path d="M1322.89 129.093C1322.89 129.093 1325.89 122.941 1329.33 115.975L1320.8 115.522C1320.8 115.522 1314 128.547 1315.74 133.975C1317.91 134.467 1322.89 129.093 1322.89 129.093Z" fill="#FF1E23"/>
<path d="M1320.8 115.522L1329.33 115.975C1333.71 107.141 1338.78 97.0525 1339.26 96.8603C1339.26 96.8603 1332.34 97.6292 1323.89 103.288L1319.2 102.266C1318.81 102.174 1318.4 102.162 1318 102.229C1317.61 102.297 1317.23 102.442 1316.89 102.658C1314.91 103.919 1310.98 107.271 1310.08 114.56C1310.02 115.057 1310.09 115.559 1310.27 116.024C1310.45 116.489 1310.75 116.902 1311.12 117.229L1313.83 119.535C1313.83 119.535 1313.42 131.507 1315.08 133.568C1315.22 133.753 1315.43 133.884 1315.66 133.937C1314 128.547 1320.8 115.522 1320.8 115.522Z" fill="#FF743E"/>
<path d="M1323.23 111.516C1323.23 111.516 1330.69 101.435 1338.97 96.9064C1339.11 96.8346 1339.26 96.8064 1339.41 96.826C1339.56 96.8456 1339.7 96.912 1339.81 97.0157C1339.92 97.1194 1340 97.2552 1340.02 97.404C1340.05 97.5527 1340.04 97.7068 1339.97 97.8445C1338.65 100.67 1337.08 103.376 1335.29 105.933C1331.93 110.639 1321.54 120.089 1321.54 120.089L1323.23 111.516Z" fill="#FF9027"/>
<path d="M1321.09 121.542C1321.88 123.471 1323.23 125.121 1324.96 126.284C1326.69 127.447 1328.73 128.07 1330.81 128.076C1332.9 128.081 1334.94 127.468 1336.67 126.313C1338.41 125.159 1339.76 123.516 1340.57 121.591C1341.37 119.667 1341.58 117.547 1341.18 115.501C1340.78 113.455 1339.78 111.574 1338.31 110.096C1336.84 108.619 1334.96 107.61 1332.92 107.199C1330.87 106.788 1328.75 106.992 1326.82 107.786" fill="#FFD4A9"/>
<path d="M1332.71 126.601C1332.71 126.601 1334.09 123.357 1342.32 121.004C1350.54 118.651 1354.13 110.824 1359.83 116.144C1359.83 116.144 1361.36 114.245 1363.09 115.375C1364.81 116.506 1363.85 119.704 1363.85 119.704C1363.85 119.704 1367.38 119.827 1365.58 124.502C1365.58 124.502 1371.16 126.179 1367.89 129.07C1367.89 129.07 1372.26 133.053 1366.88 132.876C1366.88 132.876 1367.65 136.282 1361.96 138.135C1356.9 139.78 1349.34 141.864 1340.79 139.673C1332.24 137.481 1332.71 126.601 1332.71 126.601Z" fill="white"/>
<path d="M1329.39 117.198C1329.39 117.198 1332.64 114.23 1331.08 108.74C1331.08 108.74 1337.09 112.377 1338.61 108.501C1340.13 104.626 1334.47 103.35 1330.22 104.965C1325.98 106.579 1318.98 115.675 1319.67 121.534C1320.37 127.393 1322.75 142.418 1332.38 138.112C1342.02 133.806 1336 124.441 1328.41 121.711L1329.39 117.198Z" fill="black"/>
<path d="M1335.39 115.076C1335.84 115.076 1336.2 114.711 1336.2 114.261C1336.2 113.81 1335.84 113.446 1335.39 113.446C1334.94 113.446 1334.57 113.81 1334.57 114.261C1334.57 114.711 1334.94 115.076 1335.39 115.076Z" fill="black"/>
<path d="M1340.33 114.707C1340.25 114.708 1340.17 114.681 1340.1 114.63C1340.03 114.571 1339.99 114.488 1339.98 114.397C1339.97 114.306 1340 114.216 1340.06 114.145C1340.32 113.822 1340.37 113.492 1340.2 113.261C1340.11 113.146 1339.98 113.067 1339.84 113.039C1339.7 113.01 1339.55 113.035 1339.43 113.107C1339.28 113.19 1339.12 113.243 1338.96 113.263C1338.79 113.284 1338.62 113.272 1338.46 113.227C1338.3 113.183 1338.15 113.107 1338.02 113.005C1337.89 112.903 1337.78 112.775 1337.7 112.631C1337.66 112.549 1337.65 112.455 1337.68 112.368C1337.71 112.282 1337.77 112.21 1337.85 112.169C1337.93 112.129 1338.02 112.121 1338.11 112.149C1338.19 112.176 1338.26 112.236 1338.3 112.315C1338.36 112.415 1338.59 112.723 1339.15 112.477C1339.41 112.362 1339.7 112.336 1339.98 112.402C1340.26 112.469 1340.51 112.625 1340.69 112.846C1340.87 113.108 1340.95 113.425 1340.93 113.743C1340.9 114.06 1340.76 114.358 1340.53 114.584C1340.48 114.645 1340.41 114.688 1340.33 114.707V114.707Z" fill="black"/>
<path d="M1331.27 117.559C1330.8 116.963 1330.15 116.543 1329.41 116.366C1328.68 116.189 1327.91 116.267 1327.22 116.586C1326.54 116.905 1325.98 117.446 1325.64 118.123C1325.3 118.799 1325.2 119.57 1325.36 120.309C1325.52 121.049 1325.92 121.714 1326.5 122.196C1327.08 122.677 1327.81 122.947 1328.57 122.962C1329.32 122.977 1330.06 122.735 1330.66 122.276C1331.26 121.817 1331.69 121.168 1331.88 120.435C1332 119.941 1332.01 119.425 1331.9 118.927C1331.8 118.428 1331.58 117.961 1331.27 117.559V117.559Z" fill="#FFD4A9"/>
<path d="M1327.54 120.819C1327.48 120.823 1327.43 120.814 1327.38 120.791C1327.33 120.768 1327.29 120.733 1327.25 120.689C1327.12 120.512 1327.01 120.31 1326.95 120.094C1326.89 119.877 1326.87 119.651 1326.9 119.428C1326.96 118.975 1327.2 118.564 1327.55 118.282C1327.91 118.004 1328.37 117.88 1328.82 117.936C1329.27 117.993 1329.68 118.225 1329.96 118.582C1330.01 118.655 1330.03 118.743 1330.02 118.83C1330 118.917 1329.96 118.995 1329.89 119.049C1329.82 119.103 1329.73 119.128 1329.64 119.12C1329.55 119.112 1329.47 119.071 1329.42 119.005C1329.25 118.789 1329 118.648 1328.73 118.613C1328.59 118.595 1328.46 118.605 1328.32 118.642C1328.19 118.679 1328.07 118.742 1327.96 118.828C1327.85 118.91 1327.77 119.013 1327.7 119.131C1327.63 119.248 1327.59 119.378 1327.58 119.512C1327.56 119.648 1327.57 119.786 1327.6 119.918C1327.64 120.05 1327.7 120.174 1327.79 120.281C1327.81 120.316 1327.83 120.357 1327.84 120.4C1327.86 120.443 1327.86 120.488 1327.85 120.532C1327.85 120.577 1327.83 120.619 1327.81 120.658C1327.79 120.697 1327.76 120.731 1327.72 120.758C1327.67 120.799 1327.61 120.82 1327.54 120.819Z" fill="black"/>
<path d="M1338.78 118.566C1338.6 118.574 1338.42 118.558 1338.24 118.52C1337.51 118.292 1336.9 117.801 1336.51 117.144C1336.49 117.106 1336.47 117.063 1336.47 117.019C1336.46 116.975 1336.46 116.93 1336.48 116.887C1336.49 116.844 1336.51 116.804 1336.53 116.768C1336.56 116.733 1336.6 116.704 1336.64 116.683C1336.67 116.659 1336.72 116.644 1336.76 116.637C1336.81 116.631 1336.85 116.634 1336.9 116.645C1336.94 116.657 1336.98 116.677 1337.02 116.704C1337.05 116.732 1337.08 116.766 1337.1 116.806C1337.4 117.301 1337.86 117.673 1338.4 117.851C1338.63 117.892 1338.86 117.884 1339.09 117.829C1339.31 117.773 1339.52 117.671 1339.7 117.528C1339.74 117.502 1339.78 117.484 1339.83 117.475C1339.87 117.465 1339.92 117.465 1339.96 117.474C1340.01 117.482 1340.05 117.5 1340.09 117.525C1340.12 117.55 1340.16 117.583 1340.18 117.621C1340.21 117.657 1340.22 117.698 1340.23 117.741C1340.24 117.784 1340.25 117.829 1340.24 117.873C1340.23 117.917 1340.21 117.959 1340.19 117.996C1340.16 118.033 1340.13 118.065 1340.1 118.09C1339.71 118.371 1339.26 118.537 1338.78 118.566V118.566Z" fill="black"/>
<path d="M1356.28 158.811C1356.28 158.811 1358.59 160.233 1356.47 164.631L1341.03 198.64C1341.03 198.64 1339.77 201.3 1338.11 199.663L1327.86 187.583L1356.28 158.811Z" fill="#008348"/>
<path d="M1354.44 159.918L1338.67 196.718C1338.67 196.718 1330.76 197.487 1327.2 205.129L1324.81 173.651C1324.81 173.651 1332.09 158.472 1354.44 159.918Z" fill="#CCCCCC"/>
<path d="M1265.47 92.6852C1265.47 92.6852 1257.92 96.8449 1257.16 112.092C1256.41 127.34 1258.22 138.627 1265 149.261C1270.96 158.603 1314.98 198.832 1325.26 208.32C1325.51 208.551 1325.81 208.718 1326.15 208.805C1326.48 208.893 1326.82 208.899 1327.16 208.824C1327.49 208.748 1327.8 208.593 1328.07 208.372C1328.33 208.15 1328.53 207.869 1328.66 207.551L1338.32 181.009L1291.35 137.95L1265.47 92.6852Z" fill="#2A7C55"/>
<path d="M1341.33 165.631C1342.99 163.81 1345.01 162.36 1347.28 161.376C1349.54 160.392 1351.98 159.895 1354.44 159.918L1283.3 94.8996C1282.04 93.7419 1280.55 92.8454 1278.94 92.2612C1277.32 91.677 1275.61 91.4165 1273.89 91.4947C1272.18 91.5729 1270.49 91.9882 1268.94 92.7169C1267.39 93.4455 1265.99 94.4733 1264.83 95.7415C1263.67 97.0098 1262.78 98.4936 1262.19 100.108C1261.61 101.723 1261.35 103.437 1261.43 105.152C1261.5 106.868 1261.92 108.551 1262.65 110.106C1263.38 111.661 1264.4 113.057 1265.67 114.214L1336.8 179.233C1336.56 176.775 1336.84 174.293 1337.61 171.95C1338.39 169.606 1339.66 167.453 1341.33 165.631V165.631Z" fill="white"/>
<path d="M1335.9 181.109L1264.27 115.691C1262.81 114.353 1261.62 112.74 1260.78 110.943C1259.94 109.147 1259.46 107.203 1259.37 105.221C1259.28 103.24 1259.59 101.26 1260.26 99.3958C1260.94 97.5311 1261.97 95.8178 1263.31 94.3537C1264.65 92.8896 1266.26 91.7033 1268.06 90.8626C1269.86 90.022 1271.8 89.5433 1273.78 89.4541C1275.76 89.3648 1277.74 89.6667 1279.61 90.3425C1281.47 91.0182 1283.19 92.0547 1284.65 93.3926L1356.28 158.811C1356.45 158.962 1356.58 159.145 1356.68 159.348C1356.77 159.551 1356.82 159.771 1356.83 159.996C1356.84 160.22 1356.81 160.444 1356.73 160.655C1356.66 160.866 1356.54 161.059 1356.39 161.225C1356.24 161.391 1356.05 161.525 1355.85 161.62C1355.65 161.715 1355.43 161.769 1355.2 161.779C1354.98 161.789 1354.76 161.755 1354.54 161.678C1354.33 161.602 1354.14 161.484 1353.97 161.333L1282.37 95.8915C1281.24 94.845 1279.91 94.0322 1278.47 93.5001C1277.02 92.9679 1275.48 92.7269 1273.94 92.7907C1272.41 92.8546 1270.9 93.2222 1269.5 93.8724C1268.1 94.5225 1266.85 95.4423 1265.81 96.5789C1264.77 97.7155 1263.97 99.0464 1263.44 100.495C1262.92 101.944 1262.69 103.481 1262.76 105.02C1262.84 106.558 1263.21 108.067 1263.87 109.459C1264.53 110.85 1265.46 112.098 1266.6 113.13L1338.21 178.579C1338.38 178.731 1338.51 178.913 1338.61 179.117C1338.7 179.32 1338.76 179.54 1338.77 179.764C1338.78 179.988 1338.74 180.212 1338.66 180.423C1338.59 180.634 1338.47 180.828 1338.32 180.994C1338.17 181.159 1337.99 181.293 1337.78 181.388C1337.58 181.483 1337.36 181.537 1337.13 181.547C1336.91 181.557 1336.69 181.523 1336.48 181.447C1336.26 181.37 1336.07 181.253 1335.9 181.101V181.109Z" fill="#009953"/>
<g opacity="0.5">
<path d="M1352.6 164.044L1280.07 97.7456C1279.79 97.4906 1279.36 97.5087 1279.1 97.7861C1278.85 98.0635 1278.87 98.4951 1279.15 98.7501L1351.68 165.049C1351.96 165.304 1352.39 165.286 1352.65 165.008C1352.9 164.731 1352.88 164.299 1352.6 164.044Z" fill="#CCCCCC"/>
<path d="M1348.34 165.685L1275.81 99.3867C1275.53 99.1317 1275.1 99.1498 1274.85 99.4272C1274.59 99.7046 1274.62 100.136 1274.89 100.391L1347.42 166.69C1347.7 166.945 1348.13 166.927 1348.39 166.649C1348.64 166.372 1348.62 165.94 1348.34 165.685Z" fill="#CCCCCC"/>
<path d="M1344.24 167.466L1271.71 101.168C1271.44 100.913 1271 100.931 1270.75 101.208C1270.5 101.486 1270.52 101.917 1270.8 102.172L1343.33 168.471C1343.61 168.726 1344.04 168.708 1344.29 168.43C1344.54 168.153 1344.52 167.721 1344.24 167.466Z" fill="#CCCCCC"/>
<path d="M1342.83 171.713L1270.3 105.414C1270.02 105.159 1269.59 105.177 1269.33 105.455C1269.08 105.732 1269.1 106.164 1269.38 106.419L1341.91 172.718C1342.19 172.973 1342.62 172.954 1342.87 172.677C1343.13 172.4 1343.11 171.968 1342.83 171.713Z" fill="#CCCCCC"/>
<path d="M1341.58 176.105L1269.05 109.806C1268.77 109.551 1268.34 109.569 1268.09 109.846C1267.84 110.124 1267.86 110.555 1268.14 110.81L1340.67 177.109C1340.94 177.364 1341.38 177.346 1341.63 177.069C1341.88 176.791 1341.86 176.36 1341.58 176.105Z" fill="#CCCCCC"/>
</g>
<path d="M1366.16 131.346C1366.07 131.35 1365.99 131.319 1365.92 131.26C1365.85 131.201 1365.81 131.119 1365.81 131.03C1365.55 128.897 1364.53 126.927 1362.95 125.479C1362.59 126.287 1362.09 127.022 1361.47 127.647C1359.54 129.646 1358.32 129.308 1357.76 128.931C1356.78 128.27 1356.49 126.509 1357.13 125.087C1357.4 124.422 1357.92 123.888 1358.58 123.592C1359.24 123.297 1359.98 123.262 1360.66 123.495C1361.36 123.669 1362.01 123.96 1362.61 124.356C1362.93 122.888 1362.75 121.352 1362.08 120.004C1361.46 118.666 1360.61 117.441 1359.59 116.383C1359.54 116.317 1359.51 116.235 1359.51 116.152C1359.52 116.068 1359.55 115.99 1359.61 115.93C1359.67 115.87 1359.75 115.833 1359.83 115.826C1359.91 115.819 1360 115.842 1360.06 115.891C1360.12 115.944 1364.52 120.289 1363.2 124.779C1365.06 126.343 1366.23 128.564 1366.49 130.977C1366.49 131.021 1366.49 131.066 1366.47 131.108C1366.46 131.15 1366.44 131.189 1366.41 131.223C1366.38 131.256 1366.34 131.284 1366.3 131.304C1366.26 131.323 1366.22 131.335 1366.18 131.338L1366.16 131.346ZM1359.62 124.056C1359.21 124.072 1358.82 124.204 1358.5 124.438C1358.17 124.671 1357.91 124.996 1357.76 125.371C1357.27 126.463 1357.46 127.893 1358.16 128.37C1358.86 128.847 1359.84 128.37 1360.99 127.17C1361.6 126.56 1362.08 125.836 1362.41 125.041C1361.83 124.634 1361.19 124.337 1360.51 124.164C1360.22 124.087 1359.92 124.051 1359.62 124.056Z" fill="#82C1CC"/>
<path d="M1355.83 154.966C1355.77 154.98 1355.72 154.98 1355.67 154.966C1355.63 154.947 1355.59 154.919 1355.56 154.886C1355.53 154.852 1355.51 154.813 1355.49 154.771C1355.48 154.729 1355.47 154.685 1355.48 154.64C1355.48 154.596 1355.49 154.552 1355.51 154.513C1359.26 146.924 1368.34 138.066 1368.44 137.981C1368.47 137.949 1368.51 137.923 1368.55 137.906C1368.59 137.888 1368.63 137.879 1368.68 137.879C1368.72 137.879 1368.77 137.888 1368.81 137.906C1368.85 137.923 1368.89 137.949 1368.92 137.981C1368.98 138.046 1369.02 138.133 1369.02 138.223C1369.02 138.314 1368.98 138.401 1368.92 138.466C1368.83 138.55 1359.83 147.323 1356.13 154.805C1356.1 154.855 1356.06 154.897 1356 154.925C1355.95 154.953 1355.89 154.967 1355.83 154.966V154.966Z" fill="#006582"/>
<path d="M1360.73 149.469C1360.34 149.494 1359.95 149.479 1359.56 149.422C1359.48 149.404 1359.4 149.352 1359.35 149.277C1359.3 149.202 1359.28 149.111 1359.29 149.023C1359.3 148.979 1359.32 148.937 1359.34 148.899C1359.37 148.862 1359.4 148.829 1359.44 148.804C1359.48 148.779 1359.52 148.762 1359.56 148.753C1359.61 148.744 1359.65 148.745 1359.69 148.754V148.754C1359.73 148.754 1363.22 149.338 1370.73 145.624C1382.07 140.026 1396.82 136.313 1406.59 133.86C1408.23 133.445 1409.73 133.091 1411.06 132.722C1411.14 132.7 1411.24 132.713 1411.32 132.757C1411.39 132.801 1411.45 132.874 1411.48 132.96C1411.5 133.049 1411.49 133.143 1411.44 133.223C1411.4 133.302 1411.32 133.36 1411.23 133.383C1409.9 133.729 1408.4 134.106 1406.76 134.521C1397.02 136.966 1382.31 140.672 1371.04 146.239C1365.7 148.877 1362.35 149.407 1360.73 149.469Z" fill="#006582"/>
<path d="M1370.04 146.739H1369.93C1366.7 145.747 1361.67 146.739 1361.62 146.739C1361.54 146.755 1361.44 146.736 1361.37 146.686C1361.29 146.636 1361.24 146.559 1361.22 146.47C1361.2 146.38 1361.22 146.287 1361.27 146.211C1361.32 146.134 1361.4 146.081 1361.49 146.062C1361.7 146.024 1366.74 145.009 1370.13 146.062C1370.17 146.075 1370.21 146.095 1370.25 146.124C1370.28 146.152 1370.31 146.186 1370.33 146.226C1370.35 146.265 1370.37 146.308 1370.37 146.353C1370.38 146.397 1370.37 146.442 1370.36 146.485C1370.34 146.555 1370.3 146.616 1370.24 146.662C1370.19 146.707 1370.12 146.734 1370.04 146.739Z" fill="#006582"/>
<path d="M1462.51 257.638L1469.82 252.217L1460.75 252.847L1463.47 244.167L1456.5 250.01L1453.59 241.391L1451.39 250.21L1443.97 244.951L1447.38 253.378L1438.28 253.47L1446 258.291L1438.7 263.72L1447.76 263.082L1445.05 271.762L1452.02 265.926L1454.92 274.538L1457.12 265.719L1464.53 270.986L1461.14 262.551L1470.22 262.459L1462.51 257.638Z" fill="white"/>
<path d="M1480.87 287.84L1480.55 279.797" stroke="#006582" stroke-width="2" stroke-linecap="round" stroke-linejoin="round"/>
<path d="M1484.28 285.687L1477.15 281.95" stroke="#006582" stroke-width="2" stroke-linecap="round" stroke-linejoin="round"/>
<path d="M1484.12 281.666L1477.31 285.972" stroke="#006582" stroke-width="2" stroke-linecap="round" stroke-linejoin="round"/>
<path d="M1483.6 268.064C1484.87 268.064 1485.9 267.035 1485.9 265.765C1485.9 264.495 1484.87 263.466 1483.6 263.466C1482.33 263.466 1481.3 264.495 1481.3 265.765C1481.3 267.035 1482.33 268.064 1483.6 268.064Z" stroke="#FF743E" stroke-width="2" stroke-linecap="round" stroke-linejoin="round"/>
<path d="M1474.41 50.7954C1476.41 52.4083 1478 54.4851 1479.02 56.8466C1479.02 56.8466 1465.03 65.1815 1461.26 71.7403C1461.26 71.7403 1455.51 53.3635 1456.25 53.2866C1456.98 53.2097 1463.56 43.4216 1474.41 50.7954Z" fill="#B3B3B3"/>
<path d="M1474.41 50.7954C1474.41 50.7954 1465.77 44.8364 1461.24 53.0098C1456.71 61.1832 1466.55 78.4528 1466.55 78.4528L1440.82 105.287C1440.82 105.287 1434.46 89.5019 1439.76 71.4558C1445.06 53.4096 1464.14 42.3298 1474.41 50.7954Z" fill="white"/>
<path d="M1389.44 171.636C1387.41 172.564 1385.56 173.868 1384.01 175.481C1384.01 175.481 1372.94 186.953 1368.38 191.174C1363.81 195.395 1367.47 196.733 1367.47 196.733C1367.47 196.733 1350.6 219.585 1338.33 229.796C1329.51 237.131 1326.08 239.792 1324.86 240.653C1324.59 240.84 1324.4 241.113 1324.31 241.425C1324.22 241.738 1324.25 242.07 1324.38 242.367C1324.6 242.852 1325.15 243.213 1326.23 242.898L1344.73 233.025L1394.32 179.971L1389.44 171.636Z" fill="#754C24"/>
<path d="M1346.48 241.683C1346.48 241.683 1337.36 247.065 1332.19 248.818C1331.98 248.805 1331.78 248.75 1331.59 248.656C1331.41 248.562 1331.24 248.431 1331.11 248.271C1330.98 248.112 1330.88 247.927 1330.82 247.727C1330.76 247.528 1330.74 247.318 1330.76 247.111C1330.76 247.111 1329.31 247.342 1328.75 245.474C1328.75 245.474 1326.63 245.904 1326.23 242.875L1338.7 232.579L1346.48 241.683Z" fill="#B3B3B3"/>
<path d="M1482.9 197.702C1482.9 197.702 1472.22 214.226 1425.7 228.942C1425.7 228.942 1403.55 227.066 1386.04 205.022L1399.94 173.835C1399.94 173.835 1441.51 194.811 1482.9 197.702Z" fill="#B3B3B3"/>
<path d="M1407.64 166.3C1407.46 166.209 1407.27 166.147 1407.07 166.115C1404.77 165.692 1395.04 170.044 1390.2 172.267C1390.2 172.267 1388 173.243 1388.34 174.942C1391.27 174.619 1400.77 173.035 1407.64 166.3Z" fill="#B3B3B3"/>
<path d="M1483.9 184.953C1483.9 184.953 1454.68 187.706 1438.18 183.369C1421.68 179.033 1409.86 171.559 1408.11 169.491C1408.11 169.491 1409.14 167.069 1407.64 166.3C1400.77 173.035 1391.27 174.619 1388.34 174.958C1388.62 175.877 1389.23 176.662 1390.05 177.164C1390.05 177.164 1371.52 209.258 1336.63 233.633C1336.86 234.391 1337.26 235.086 1337.81 235.663C1338.35 236.239 1339.02 236.681 1339.76 236.954C1339.89 237.744 1340.3 238.463 1340.91 238.977C1341.52 239.491 1342.3 239.767 1343.1 239.753C1343.1 239.753 1343.77 241.798 1346.48 241.683C1346.48 241.683 1385.84 224.652 1401.58 176.634C1401.58 176.634 1436.32 203.43 1482.9 197.702C1482.9 197.702 1484.44 196.479 1483.08 194.019C1483.59 193.44 1483.91 192.714 1483.98 191.944C1484.06 191.174 1483.88 190.401 1483.49 189.736C1483.49 189.736 1485.41 187.137 1483.9 184.953Z" fill="white"/>
<path d="M1485.54 185.153C1485.46 185.192 1485.37 185.217 1485.29 185.23C1457.24 189.405 1437.57 185.053 1426 180.663C1413.4 175.88 1407.55 170.152 1407.29 169.898C1407.13 169.742 1407.03 169.538 1406.99 169.318C1406.96 169.097 1407 168.872 1407.11 168.676C1407.7 167.599 1407.3 167.276 1407.11 167.138C1406.93 167.011 1406.72 166.936 1406.51 166.922C1406.29 166.908 1406.08 166.957 1405.89 167.061C1401.64 169.252 1393.47 172.343 1390.16 173.574C1389.92 173.659 1389.72 173.817 1389.58 174.024C1389.45 174.232 1389.38 174.478 1389.39 174.727C1389.39 174.974 1389.48 175.214 1389.63 175.409C1389.78 175.605 1389.99 175.746 1390.23 175.811H1390.31C1390.47 175.849 1390.62 175.923 1390.74 176.028C1390.87 176.133 1390.96 176.265 1391.03 176.415C1391.09 176.565 1391.12 176.727 1391.11 176.889C1391.1 177.052 1391.05 177.209 1390.97 177.349C1380.86 193.563 1368.47 208.232 1354.17 220.9C1343.56 230.249 1335.81 234.855 1335.72 234.901C1335.6 234.979 1335.47 235.032 1335.33 235.057C1335.2 235.082 1335.05 235.079 1334.92 235.047C1334.78 235.015 1334.65 234.956 1334.54 234.873C1334.43 234.79 1334.33 234.684 1334.26 234.563C1334.19 234.442 1334.14 234.308 1334.13 234.168C1334.11 234.029 1334.12 233.888 1334.16 233.753C1334.2 233.619 1334.27 233.493 1334.36 233.385C1334.45 233.277 1334.56 233.189 1334.68 233.125C1334.75 233.087 1342.37 228.558 1352.85 219.285C1366.68 207.027 1378.72 192.881 1388.61 177.264C1388.14 176.911 1387.79 176.441 1387.57 175.903C1387.35 175.365 1387.28 174.778 1387.37 174.203C1387.45 173.629 1387.69 173.088 1388.05 172.636C1388.42 172.185 1388.9 171.84 1389.44 171.636C1392.72 170.421 1400.8 167.369 1404.94 165.231C1405.49 164.943 1406.1 164.818 1406.71 164.871C1407.32 164.924 1407.91 165.153 1408.39 165.531C1408.89 165.92 1409.24 166.463 1409.4 167.075C1409.55 167.688 1409.5 168.334 1409.25 168.914C1410.93 170.375 1416.68 174.942 1426.87 178.795C1438.18 183.062 1457.45 187.299 1484.98 183.193C1485.25 183.153 1485.52 183.222 1485.74 183.385C1485.96 183.548 1486.11 183.791 1486.15 184.061C1486.18 184.285 1486.14 184.515 1486.03 184.713C1485.92 184.911 1485.75 185.066 1485.54 185.153V185.153Z" fill="#8C6239"/>
<path d="M1342.32 235.101C1342.25 235.119 1342.18 235.115 1342.12 235.088C1342.06 235.062 1342.01 235.015 1341.98 234.955C1341.96 234.921 1341.95 234.883 1341.94 234.844C1341.94 234.806 1341.94 234.767 1341.96 234.729C1341.97 234.692 1341.99 234.657 1342.01 234.628C1342.04 234.598 1342.07 234.573 1342.1 234.555C1342.18 234.517 1349.79 230.472 1360 221.415C1374.02 208.838 1385.72 193.894 1394.56 177.264C1394.59 177.198 1394.66 177.148 1394.73 177.127C1394.8 177.105 1394.88 177.113 1394.95 177.149C1394.98 177.166 1395.01 177.19 1395.04 177.219C1395.06 177.248 1395.08 177.282 1395.09 177.319C1395.11 177.356 1395.11 177.394 1395.11 177.432C1395.1 177.471 1395.09 177.508 1395.07 177.541C1386.2 194.235 1374.46 209.236 1360.39 221.861C1350.11 230.957 1342.46 235.032 1342.38 235.07L1342.32 235.101Z" fill="#B3B3B3"/>
<path d="M1345.4 238.292C1345.34 238.314 1345.27 238.311 1345.2 238.284C1345.14 238.257 1345.09 238.208 1345.06 238.146C1345.04 238.112 1345.03 238.075 1345.03 238.037C1345.02 237.999 1345.03 237.96 1345.04 237.924C1345.05 237.887 1345.07 237.853 1345.1 237.824C1345.12 237.795 1345.15 237.771 1345.19 237.754C1345.28 237.708 1354.67 232.741 1365.72 222.837C1375.9 213.71 1389.6 198.402 1397.09 177.295C1397.11 177.259 1397.13 177.225 1397.15 177.196C1397.18 177.168 1397.21 177.144 1397.25 177.128C1397.28 177.111 1397.32 177.102 1397.36 177.1C1397.4 177.099 1397.43 177.105 1397.47 177.118C1397.54 177.144 1397.6 177.198 1397.63 177.267C1397.67 177.336 1397.67 177.415 1397.65 177.487C1390.12 198.717 1376.33 214.118 1366.12 223.291C1359.82 229.035 1352.9 234.061 1345.49 238.277L1345.4 238.292Z" fill="#B3B3B3"/>
<path d="M1480.28 190.097H1480.23C1461.78 192.196 1443.09 189.852 1425.73 183.262C1412.98 178.341 1405.74 172.728 1405.67 172.674C1405.61 172.624 1405.57 172.553 1405.56 172.476C1405.55 172.398 1405.57 172.32 1405.62 172.259C1405.64 172.228 1405.67 172.202 1405.71 172.182C1405.74 172.163 1405.78 172.15 1405.81 172.145C1405.85 172.14 1405.89 172.143 1405.93 172.153C1405.96 172.163 1406 172.181 1406.03 172.205C1406.11 172.267 1413.29 177.833 1425.97 182.724C1443.23 189.272 1461.82 191.599 1480.17 189.513C1480.2 189.509 1480.24 189.512 1480.28 189.523C1480.32 189.534 1480.35 189.552 1480.38 189.576C1480.41 189.601 1480.44 189.631 1480.46 189.665C1480.47 189.699 1480.49 189.736 1480.49 189.774C1480.5 189.844 1480.49 189.916 1480.45 189.976C1480.41 190.036 1480.35 190.079 1480.28 190.097Z" fill="#B3B3B3"/>
<path d="M1480.67 194.603H1480.61C1461.39 196.194 1442.06 193.208 1424.21 185.891C1411.13 180.432 1403.79 174.427 1403.71 174.358C1403.66 174.302 1403.63 174.228 1403.63 174.15C1403.63 174.073 1403.66 173.999 1403.71 173.943C1403.74 173.915 1403.77 173.894 1403.81 173.879C1403.85 173.864 1403.88 173.856 1403.92 173.856C1403.96 173.856 1404 173.864 1404.03 173.879C1404.07 173.894 1404.1 173.915 1404.13 173.943C1404.2 173.997 1411.48 179.956 1424.5 185.384C1442.26 192.661 1461.5 195.631 1480.63 194.05C1480.67 194.045 1480.71 194.049 1480.74 194.06C1480.78 194.072 1480.81 194.091 1480.84 194.116C1480.87 194.141 1480.9 194.172 1480.91 194.207C1480.93 194.242 1480.94 194.28 1480.94 194.319C1480.94 194.391 1480.91 194.46 1480.86 194.513C1480.81 194.565 1480.75 194.597 1480.67 194.603V194.603Z" fill="#B3B3B3"/>
<path d="M1439.74 292.9L1443.94 283.211" stroke="white" stroke-width="2" stroke-linecap="round" stroke-linejoin="round"/>
<path d="M1444.98 292.3L1438.69 283.819" stroke="white" stroke-width="2" stroke-linecap="round" stroke-linejoin="round"/>
<path d="M1447.08 287.456L1436.59 288.663" stroke="white" stroke-width="2" stroke-linecap="round" stroke-linejoin="round"/>
<path d="M1318.37 60.2144C1318.37 60.2144 1330.36 73.2858 1341.16 76.9227" stroke="#82C1CC" stroke-width="2" stroke-linejoin="round"/>
<path d="M1329.27 40.3998C1329.27 40.3998 1337.73 55.9701 1347.3 62.1598" stroke="white" stroke-width="2" stroke-linejoin="round"/>
<path d="M1322.5 51.0338C1322.5 51.0338 1339.8 69.8411 1355.37 75.1235" stroke="#FFC147" stroke-width="2" stroke-linejoin="round"/>
<path d="M1562.54 248.226C1558.18 249.072 1554.1 250.964 1550.64 253.739C1550.64 253.739 1565.31 277.575 1565.83 290.57C1565.83 290.57 1589.21 267.149 1588.18 266.403C1587.15 265.657 1584.91 245.635 1562.54 248.226Z" fill="#B3B3B3"/>
<path d="M1562.54 248.226C1562.54 248.226 1580.43 246.035 1580.82 262.067C1581.22 278.098 1552.49 296.59 1552.49 296.59L1570.3 357.956C1570.3 357.956 1592.55 338.972 1598.83 307.286C1605.11 275.599 1584.91 243.513 1562.54 248.226Z" fill="white"/>
</g>
<path d="M1821.82 70.7895C1826.3 67.3184 1829.55 63.1087 1831.28 58.5234C1831.28 58.5234 1793.09 47.0526 1781.22 36.0943C1781.22 36.0943 1773.52 71.1222 1775.4 71.1222C1777.28 71.1223 1797.3 87.095 1821.82 70.7895Z" fill="#C5C5C5"/>
<path d="M1821.82 70.7895C1821.82 70.7895 1802.31 83.9357 1787.96 70.2632C1773.61 56.5908 1791.96 22.484 1791.96 22.484L1717.52 -19.6043C1717.52 -19.6043 1707.34 10.8613 1727.26 42.3195C1747.19 73.7777 1799.14 88.9375 1821.82 70.7895Z" fill="#F4F4F4"/>
<path d="M1282.56 314.28L1294 307.428L1280.71 306.961L1285.98 294.6L1274.97 302.124L1272.06 289L1267.52 301.646L1257.53 292.756L1261.2 305.686L1247.97 304.434L1258.44 312.72L1247 319.572L1260.29 320.039L1255.02 332.4L1266.04 324.876L1268.95 338L1273.5 325.354L1283.48 334.244L1279.8 321.302L1293.04 322.566L1282.56 314.28Z" fill="#FFC147"/>
<ellipse cx="1048.66" cy="402.969" rx="105.04" ry="12.0311" fill="#EBEBEB"/>
<g clip-path="url(#clip2_1765_205)">
<path d="M899.822 306.055C899.822 306.055 893.264 308.491 892.064 308.021C890.864 307.551 889.28 302.425 886.323 303.777C883.366 305.129 884.27 309.265 885.875 313.212C887.48 317.16 888.695 324.78 894.233 323.544C899.771 322.307 905.656 321.223 905.656 321.223L899.822 306.055Z" fill="black"/>
<path d="M897.421 310.19C897.347 310.19 897.276 310.165 897.218 310.119C897.16 310.073 897.119 310.009 897.103 309.937L896.38 306.684C896.363 306.599 896.38 306.512 896.427 306.44C896.475 306.368 896.549 306.318 896.633 306.3C896.717 306.285 896.804 306.303 896.875 306.35C896.947 306.397 896.997 306.47 897.016 306.553L897.739 309.8C897.757 309.883 897.74 309.97 897.694 310.041C897.649 310.113 897.576 310.164 897.493 310.183L897.421 310.19Z" fill="#006582"/>
<path d="M895.433 310.913C895.359 310.913 895.287 310.888 895.23 310.842C895.172 310.796 895.131 310.732 895.115 310.66L894.392 307.414C894.376 307.37 894.369 307.323 894.372 307.277C894.375 307.23 894.388 307.185 894.411 307.144C894.433 307.103 894.464 307.067 894.501 307.039C894.538 307.011 894.581 306.991 894.627 306.981C894.673 306.971 894.72 306.971 894.766 306.981C894.811 306.991 894.854 307.011 894.892 307.039C894.929 307.067 894.96 307.102 894.982 307.144C895.004 307.185 895.018 307.23 895.021 307.276L895.744 310.523C895.761 310.607 895.744 310.695 895.697 310.767C895.649 310.838 895.575 310.888 895.491 310.906L895.433 310.913Z" fill="#006582"/>
<path d="M893.459 311.636C893.385 311.638 893.313 311.613 893.255 311.567C893.197 311.521 893.157 311.456 893.141 311.383L892.418 308.137C892.402 308.093 892.395 308.046 892.398 308C892.401 307.953 892.415 307.908 892.437 307.867C892.459 307.826 892.49 307.79 892.527 307.762C892.565 307.734 892.608 307.714 892.653 307.704C892.699 307.694 892.746 307.694 892.792 307.704C892.838 307.714 892.881 307.734 892.918 307.762C892.955 307.79 892.986 307.826 893.009 307.867C893.031 307.908 893.044 307.953 893.047 307.999L893.77 311.246C893.788 311.329 893.772 311.416 893.726 311.487C893.68 311.559 893.607 311.61 893.525 311.629L893.459 311.636Z" fill="#006582"/>
<path d="M891.493 323.016C891.436 323.016 891.381 323.001 891.331 322.973C891.282 322.945 891.241 322.905 891.211 322.857C887.09 315.931 884.747 305.426 884.704 305.317C884.687 305.234 884.703 305.147 884.749 305.075C884.795 305.004 884.867 304.953 884.95 304.934C885.034 304.917 885.122 304.932 885.195 304.978C885.267 305.024 885.32 305.096 885.34 305.18C885.34 305.281 887.69 315.692 891.753 322.532C891.776 322.568 891.791 322.609 891.797 322.651C891.804 322.693 891.802 322.737 891.792 322.778C891.782 322.82 891.764 322.859 891.739 322.894C891.713 322.928 891.681 322.958 891.645 322.98C891.597 323.003 891.546 323.015 891.493 323.016V323.016Z" fill="#006582"/>
<path d="M951.486 294.718C951.486 294.718 943.186 293.149 937.323 294.436C931.46 295.723 897.703 305.447 897.703 305.447L902.706 322.756L934.178 316.458L958.637 302.158L951.486 294.718Z" fill="#FFC147"/>
<path d="M941.22 280.164C941.22 280.164 938.755 280.707 933.607 279.441C928.459 278.176 932.103 278.588 932.103 278.588L931.677 287.38L947.336 292.744L941.22 280.164Z" fill="black"/>
<path d="M914.534 331.822C914.534 331.822 910.399 337.497 909.17 337.765C907.941 338.032 903.755 334.642 902.041 337.411C900.328 340.18 903.364 343.115 906.892 345.508C910.42 347.901 915.662 353.613 919.574 349.492C923.485 345.371 927.801 341.235 927.801 341.235L914.534 331.822Z" fill="black"/>
<path d="M914.657 336.659C914.615 336.66 914.573 336.653 914.535 336.636C914.496 336.62 914.461 336.596 914.433 336.565L912.047 334.251C912.009 334.224 911.978 334.189 911.955 334.148C911.932 334.107 911.918 334.062 911.914 334.016C911.91 333.97 911.916 333.923 911.932 333.879C911.947 333.835 911.972 333.795 912.005 333.762C912.037 333.728 912.076 333.702 912.12 333.685C912.163 333.668 912.21 333.661 912.256 333.663C912.303 333.666 912.348 333.678 912.389 333.7C912.431 333.721 912.467 333.752 912.495 333.788L914.881 336.102C914.912 336.132 914.936 336.167 914.952 336.206C914.969 336.245 914.977 336.287 914.977 336.33C914.977 336.372 914.969 336.414 914.952 336.453C914.936 336.492 914.912 336.528 914.881 336.558C914.822 336.618 914.742 336.654 914.657 336.659V336.659Z" fill="#006582"/>
<path d="M913.392 338.343C913.309 338.34 913.229 338.307 913.168 338.249L910.782 335.936C910.724 335.873 910.691 335.79 910.691 335.704C910.691 335.619 910.724 335.536 910.782 335.473C910.844 335.413 910.927 335.379 911.014 335.379C911.1 335.379 911.183 335.413 911.245 335.473L913.624 337.787C913.669 337.832 913.701 337.889 913.714 337.952C913.727 338.015 913.721 338.08 913.697 338.14C913.673 338.199 913.632 338.25 913.579 338.286C913.526 338.323 913.464 338.342 913.4 338.343H913.392Z" fill="#006582"/>
<path d="M912.127 340.021C912.044 340.02 911.964 339.989 911.903 339.934L909.524 337.613C909.493 337.584 909.468 337.549 909.451 337.51C909.434 337.47 909.425 337.428 909.425 337.385C909.425 337.343 909.434 337.3 909.451 337.261C909.468 337.222 909.493 337.187 909.524 337.158C909.554 337.127 909.589 337.103 909.628 337.087C909.667 337.07 909.709 337.062 909.752 337.062C909.794 337.062 909.836 337.07 909.875 337.087C909.915 337.103 909.95 337.127 909.98 337.158L912.365 339.471C912.425 339.533 912.459 339.616 912.459 339.703C912.459 339.789 912.425 339.872 912.365 339.934C912.334 339.965 912.297 339.988 912.256 340.003C912.214 340.018 912.171 340.024 912.127 340.021V340.021Z" fill="#006582"/>
<path d="M916.812 350.612C916.761 350.611 916.712 350.598 916.667 350.576C909.437 347.091 901.629 339.645 901.549 339.565C901.516 339.536 901.488 339.5 901.469 339.46C901.45 339.42 901.439 339.377 901.437 339.332C901.435 339.288 901.442 339.243 901.458 339.202C901.474 339.16 901.499 339.122 901.53 339.091C901.561 339.059 901.599 339.034 901.64 339.017C901.681 339 901.725 338.992 901.77 338.994C901.815 338.995 901.858 339.005 901.899 339.024C901.939 339.042 901.975 339.069 902.005 339.102C902.077 339.175 909.777 346.556 916.949 349.998C916.987 350.016 917.021 350.041 917.05 350.072C917.078 350.103 917.1 350.14 917.114 350.179C917.128 350.219 917.134 350.261 917.132 350.303C917.13 350.345 917.119 350.387 917.101 350.424C917.074 350.479 917.034 350.526 916.983 350.559C916.932 350.592 916.872 350.611 916.812 350.612V350.612Z" fill="#006582"/>
<path d="M1108.4 348.06H1011.79C1010.03 348.019 1008.28 348.33 1006.64 348.975C1005.01 349.62 1003.52 350.585 1002.26 351.815C1001 353.044 999.998 354.513 999.315 356.135C998.632 357.757 998.28 359.499 998.28 361.258C998.28 363.018 998.632 364.76 999.315 366.382C999.998 368.004 1001 369.473 1002.26 370.702C1003.52 371.932 1005.01 372.897 1006.64 373.542C1008.28 374.187 1010.03 374.498 1011.79 374.457H1108.4C1108.79 374.457 1109.17 374.3 1109.45 374.02C1109.73 373.741 1109.89 373.362 1109.89 372.967V349.557C1109.89 349.161 1109.73 348.782 1109.45 348.501C1109.17 348.221 1108.79 348.062 1108.4 348.06V348.06Z" fill="#0089A5"/>
<path d="M1136.35 361.262C1136.35 359.11 1136.8 356.98 1137.67 355.012C1138.54 353.044 1139.82 351.282 1141.42 349.839H1048.71C1047.18 349.801 1045.67 350.068 1044.25 350.624C1042.83 351.181 1041.54 352.016 1040.44 353.08C1039.35 354.144 1038.49 355.416 1037.89 356.821C1037.3 358.225 1037 359.734 1037 361.259C1037 362.783 1037.3 364.292 1037.89 365.696C1038.49 367.101 1039.35 368.373 1040.44 369.437C1041.54 370.501 1042.83 371.336 1044.25 371.893C1045.67 372.449 1047.18 372.716 1048.71 372.678H1141.47C1139.86 371.241 1138.57 369.482 1137.69 367.515C1136.81 365.548 1136.36 363.417 1136.35 361.262Z" fill="white"/>
<path d="M1141.97 374.457H1048.71C1046.95 374.498 1045.2 374.187 1043.56 373.542C1041.92 372.897 1040.43 371.932 1039.17 370.702C1037.91 369.473 1036.91 368.004 1036.23 366.382C1035.55 364.76 1035.2 363.018 1035.2 361.258C1035.2 359.499 1035.55 357.757 1036.23 356.135C1036.91 354.513 1037.91 353.044 1039.17 351.815C1040.43 350.585 1041.92 349.62 1043.56 348.975C1045.2 348.33 1046.95 348.019 1048.71 348.06H1141.97C1142.37 348.06 1142.75 348.218 1143.03 348.499C1143.31 348.779 1143.47 349.16 1143.47 349.557C1143.47 349.954 1143.31 350.334 1143.03 350.615C1142.75 350.896 1142.37 351.053 1141.97 351.053H1048.71C1046 351.053 1043.4 352.129 1041.49 354.044C1039.57 355.958 1038.5 358.555 1038.5 361.262C1038.5 363.97 1039.57 366.566 1041.49 368.481C1043.4 370.395 1046 371.471 1048.71 371.471H1141.97C1142.18 371.456 1142.38 371.484 1142.58 371.553C1142.77 371.622 1142.95 371.729 1143.1 371.869C1143.25 372.009 1143.37 372.179 1143.45 372.367C1143.53 372.555 1143.57 372.758 1143.57 372.964C1143.57 373.169 1143.53 373.372 1143.45 373.56C1143.37 373.749 1143.25 373.918 1143.1 374.058C1142.95 374.198 1142.77 374.306 1142.58 374.374C1142.38 374.443 1142.18 374.471 1141.97 374.457V374.457Z" fill="#239AAB"/>
<g opacity="0.5">
<path d="M1142.8 353.519H1048.2C1047.92 353.519 1047.69 353.745 1047.69 354.025V354.206C1047.69 354.485 1047.92 354.712 1048.2 354.712H1142.8C1143.08 354.712 1143.31 354.485 1143.31 354.206V354.025C1143.31 353.745 1143.08 353.519 1142.8 353.519Z" fill="#CCCCCC"/>
<path d="M1141.02 357.09H1046.41C1046.14 357.09 1045.91 357.317 1045.91 357.597V357.777C1045.91 358.057 1046.14 358.283 1046.41 358.283H1141.02C1141.3 358.283 1141.52 358.057 1141.52 357.777V357.597C1141.52 357.317 1141.3 357.09 1141.02 357.09Z" fill="#CCCCCC"/>
<path d="M1139.43 360.662H1044.83C1044.55 360.662 1044.33 360.889 1044.33 361.168V361.349C1044.33 361.628 1044.55 361.855 1044.83 361.855H1139.43C1139.71 361.855 1139.94 361.628 1139.94 361.349V361.168C1139.94 360.889 1139.71 360.662 1139.43 360.662Z" fill="#CCCCCC"/>
<path d="M1141.02 364.234H1046.41C1046.14 364.234 1045.91 364.46 1045.91 364.74V364.92C1045.91 365.2 1046.14 365.427 1046.41 365.427H1141.02C1141.3 365.427 1141.52 365.2 1141.52 364.92V364.74C1141.52 364.46 1141.3 364.234 1141.02 364.234Z" fill="#CCCCCC"/>
<path d="M1142.8 367.805H1048.2C1047.92 367.805 1047.69 368.032 1047.69 368.311V368.492C1047.69 368.772 1047.92 368.998 1048.2 368.998H1142.8C1143.08 368.998 1143.31 368.772 1143.31 368.492V368.311C1143.31 368.032 1143.08 367.805 1142.8 367.805Z" fill="#CCCCCC"/>
</g>
<path d="M1018.1 347.966H1122.58C1126.31 347.882 1129.86 346.341 1132.47 343.673C1135.08 341.005 1136.54 337.422 1136.54 333.691C1136.54 329.959 1135.08 326.376 1132.47 323.708C1129.86 321.04 1126.31 319.499 1122.58 319.415H1018.1C1017.67 319.415 1017.25 319.586 1016.95 319.89C1016.65 320.194 1016.48 320.605 1016.48 321.035V346.34C1016.47 346.553 1016.51 346.765 1016.6 346.963C1016.68 347.16 1016.79 347.34 1016.95 347.492C1017.1 347.643 1017.28 347.763 1017.47 347.844C1017.67 347.926 1017.88 347.967 1018.1 347.966V347.966Z" fill="#DB6646"/>
<path d="M958.138 333.695C958.137 336.025 957.646 338.329 956.697 340.458C955.747 342.587 954.362 344.492 952.629 346.05H1043.73C1047 346.05 1050.15 344.749 1052.46 342.431C1054.78 340.114 1056.08 336.972 1056.08 333.695C1056.08 330.418 1054.78 327.275 1052.46 324.958C1050.15 322.64 1047 321.339 1043.73 321.339H952.629C954.362 322.897 955.747 324.802 956.697 326.931C957.646 329.06 958.137 331.364 958.138 333.695Z" fill="white"/>
<path d="M952.029 319.415H1043.73C1045.63 319.373 1047.53 319.71 1049.29 320.408C1051.06 321.107 1052.68 322.151 1054.04 323.481C1055.4 324.811 1056.48 326.399 1057.22 328.152C1057.95 329.906 1058.33 331.789 1058.33 333.691C1058.33 335.593 1057.95 337.476 1057.22 339.229C1056.48 340.983 1055.4 342.571 1054.04 343.901C1052.68 345.231 1051.06 346.275 1049.29 346.973C1047.53 347.672 1045.63 348.009 1043.73 347.966H952.029C951.619 347.939 951.235 347.757 950.954 347.457C950.673 347.157 950.517 346.761 950.517 346.35C950.517 345.94 950.673 345.544 950.954 345.244C951.235 344.944 951.619 344.762 952.029 344.735H1043.73C1045.18 344.735 1046.62 344.449 1047.96 343.894C1049.3 343.339 1050.51 342.526 1051.54 341.501C1052.56 340.476 1053.38 339.259 1053.93 337.919C1054.49 336.58 1054.77 335.144 1054.77 333.695C1054.77 332.245 1054.49 330.809 1053.93 329.47C1053.38 328.13 1052.56 326.913 1051.54 325.888C1050.51 324.863 1049.3 324.05 1047.96 323.495C1046.62 322.94 1045.18 322.654 1043.73 322.654H952.029C951.599 322.654 951.187 322.484 950.884 322.18C950.58 321.876 950.409 321.464 950.409 321.035C950.409 320.605 950.58 320.194 950.884 319.89C951.187 319.586 951.599 319.415 952.029 319.415V319.415Z" fill="#FF743E"/>
<g opacity="0.5">
<path d="M951.168 342.06H1044.27C1044.57 342.06 1044.81 341.817 1044.81 341.517V341.315C1044.81 341.015 1044.57 340.773 1044.27 340.773H951.168C950.869 340.773 950.626 341.015 950.626 341.315V341.517C950.626 341.817 950.869 342.06 951.168 342.06Z" fill="#CCCCCC"/>
<path d="M953.099 338.199H1046.2C1046.5 338.199 1046.74 337.956 1046.74 337.656V337.454C1046.74 337.155 1046.5 336.912 1046.2 336.912H953.099C952.799 336.912 952.556 337.155 952.556 337.454V337.656C952.556 337.956 952.799 338.199 953.099 338.199Z" fill="#CCCCCC"/>
<path d="M954.812 334.338H1047.91C1048.21 334.338 1048.45 334.095 1048.45 333.796V333.593C1048.45 333.294 1048.21 333.051 1047.91 333.051H954.812C954.512 333.051 954.27 333.294 954.27 333.593V333.796C954.27 334.095 954.512 334.338 954.812 334.338Z" fill="#CCCCCC"/>
<path d="M953.099 330.47H1046.2C1046.5 330.47 1046.74 330.227 1046.74 329.928V329.725C1046.74 329.426 1046.5 329.183 1046.2 329.183H953.099C952.799 329.183 952.556 329.426 952.556 329.725V329.928C952.556 330.227 952.799 330.47 953.099 330.47Z" fill="#CCCCCC"/>
<path d="M951.168 326.609H1044.27C1044.57 326.609 1044.81 326.366 1044.81 326.067V325.865C1044.81 325.565 1044.57 325.322 1044.27 325.322H951.168C950.869 325.322 950.626 325.565 950.626 325.865V326.067C950.626 326.366 950.869 326.609 951.168 326.609Z" fill="#CCCCCC"/>
</g>
<path d="M1020.23 402.914H1119.07C1126.52 402.914 1132.57 396.515 1132.57 388.642C1132.57 380.768 1126.52 374.363 1119.07 374.363H1020.23C1019.81 374.376 1019.42 374.554 1019.13 374.857C1018.84 375.16 1018.69 375.565 1018.7 375.982V401.287C1018.69 401.494 1018.72 401.701 1018.8 401.896C1018.87 402.09 1018.98 402.268 1019.12 402.419C1019.27 402.57 1019.44 402.692 1019.63 402.776C1019.82 402.861 1020.02 402.908 1020.23 402.914V402.914Z" fill="#D88248"/>
<path d="M963.503 388.642C963.515 390.947 963.06 393.231 962.164 395.355C961.268 397.478 959.95 399.398 958.29 400.998H1044.47C1050.91 400.998 1056.15 395.452 1056.15 388.642C1056.15 381.831 1050.91 376.286 1044.47 376.286H958.29C959.95 377.885 961.268 379.805 962.164 381.929C963.06 384.053 963.515 386.337 963.503 388.642V388.642Z" fill="white"/>
<path d="M957.726 374.363H1044.48C1051.93 374.363 1057.99 380.768 1057.99 388.642C1057.99 396.515 1051.93 402.914 1044.48 402.914H957.726C957.316 402.886 956.932 402.704 956.651 402.404C956.371 402.104 956.215 401.708 956.215 401.298C956.215 400.887 956.371 400.491 956.651 400.191C956.932 399.891 957.316 399.709 957.726 399.682H1044.48C1050.27 399.682 1054.93 394.729 1054.93 388.642C1054.93 382.554 1050.25 377.602 1044.48 377.602H957.726C957.296 377.602 956.885 377.431 956.581 377.127C956.277 376.824 956.106 376.412 956.106 375.982C956.106 375.553 956.277 375.141 956.581 374.837C956.885 374.533 957.296 374.363 957.726 374.363Z" fill="#FFAD76"/>
<g opacity="0.5">
<path d="M956.938 397.007H1044.95C1045.25 397.007 1045.5 396.764 1045.5 396.465V396.262C1045.5 395.963 1045.25 395.72 1044.95 395.72H956.938C956.638 395.72 956.396 395.963 956.396 396.262V396.465C956.396 396.764 956.638 397.007 956.938 397.007Z" fill="#CCCCCC"/>
<path d="M958.767 393.146H1046.78C1047.08 393.146 1047.33 392.903 1047.33 392.604V392.401C1047.33 392.102 1047.08 391.859 1046.78 391.859H958.767C958.467 391.859 958.225 392.102 958.225 392.401V392.604C958.225 392.903 958.467 393.146 958.767 393.146Z" fill="#CCCCCC"/>
<path d="M960.386 389.285H1048.4C1048.7 389.285 1048.95 389.042 1048.95 388.743V388.541C1048.95 388.241 1048.7 387.998 1048.4 387.998H960.386C960.087 387.998 959.844 388.241 959.844 388.541V388.743C959.844 389.042 960.087 389.285 960.386 389.285Z" fill="#CCCCCC"/>
<path d="M958.767 385.417H1046.78C1047.08 385.417 1047.33 385.174 1047.33 384.875V384.673C1047.33 384.373 1047.08 384.13 1046.78 384.13H958.767C958.467 384.13 958.225 384.373 958.225 384.673V384.875C958.225 385.174 958.467 385.417 958.767 385.417Z" fill="#CCCCCC"/>
<path d="M956.938 381.556H1044.95C1045.25 381.556 1045.5 381.314 1045.5 381.014V380.812C1045.5 380.512 1045.25 380.27 1044.95 380.27H956.938C956.638 380.27 956.396 380.512 956.396 380.812V381.014C956.396 381.314 956.638 381.556 956.938 381.556Z" fill="#CCCCCC"/>
</g>
<path d="M905.866 282.716L922.907 272.24L920.08 260.419L899.771 282.579C902.301 283.967 905.866 282.716 905.866 282.716Z" fill="white"/>
<path d="M910.218 293.858L938.878 278.14L938.155 274.026L909.235 289.896C903.654 291.645 900.255 290.792 898.39 289.787L899.366 293.742C901.217 294.74 904.622 295.607 910.218 293.858Z" fill="#FFC147"/>
<path d="M909.228 289.896L938.148 274.026L936.824 266.362C936.778 266.099 936.667 265.85 936.503 265.638C936.338 265.427 936.124 265.258 935.88 265.148C935.636 265.038 935.368 264.988 935.101 265.005C934.833 265.021 934.574 265.103 934.345 265.242L922.907 272.24L905.866 282.717C905.866 282.717 902.302 284.003 899.735 282.615L920.109 260.456V260.42C920.09 260.115 919.982 259.823 919.798 259.58C919.615 259.336 919.363 259.152 919.076 259.051C918.789 258.949 918.478 258.934 918.182 259.008C917.886 259.081 917.618 259.241 917.412 259.465L898.231 280.548C897.719 281.112 897.354 281.794 897.167 282.532C896.981 283.271 896.979 284.044 897.161 284.784L898.405 289.787C900.248 290.792 903.646 291.645 909.228 289.896Z" fill="#FF9027"/>
<path d="M943.664 305.852L938.878 278.147L910.218 293.865C904.622 295.615 901.224 294.747 899.374 293.749L906.148 321.1C906.32 321.816 906.663 322.481 907.146 323.037C907.629 323.593 908.239 324.025 908.924 324.296C911.086 325.169 913.441 325.454 915.749 325.12L942.934 307.508C943.205 307.334 943.419 307.085 943.549 306.79C943.679 306.496 943.719 306.169 943.664 305.852V305.852Z" fill="#FF9027"/>
<path d="M960.958 297.762C960.958 297.762 940.468 300.227 931.033 309.026C921.598 317.825 911.295 331.764 911.295 331.764L928.647 343.997C928.647 343.997 944.097 322.539 953.54 319.965C962.982 317.391 985.077 326.616 990.976 307.949L960.958 297.762Z" fill="#FFC147"/>
<path d="M970.935 263.969L967.826 263.861C967.826 263.861 966.647 263.644 961.926 268.922C957.205 274.2 951.804 279.297 940.331 280.15L942.427 293.041L965.816 290.872L975.041 282.919L970.935 263.969Z" fill="#008348"/>
<path d="M986.277 261.396C986.277 261.396 992.061 266.456 993.788 287.459C993.788 287.459 994.75 300.979 990.998 307.949L960.958 297.762C960.958 297.762 966.857 285.211 966.857 275.017C966.857 264.823 971.795 260 978.555 260.861C985.315 261.721 986.277 261.396 986.277 261.396Z" fill="#008348"/>
<path d="M949.484 287.777C947.839 287.058 946.289 286.138 944.871 285.037C942.507 283.215 941.061 282.868 939.398 283.215C937.735 283.562 936.123 284.018 936.397 284.878C936.672 285.739 937.359 285.847 939.557 285.681C939.557 285.681 936.716 285.898 936.824 286.917C936.932 287.936 938.111 288.204 939.933 287.936C939.933 287.936 937.467 288.262 937.308 288.956C937.149 289.65 937.843 290.568 940.2 290.351C940.2 290.351 937.518 290.669 937.684 291.588C937.851 292.506 938.754 292.549 939.853 292.549C940.952 292.549 940.656 296.468 944.141 297.111C946.304 297.495 948.489 297.736 950.684 297.834L949.484 287.777Z" fill="#FFD4A9"/>
<path d="M971.195 265.48C976.698 265.48 981.158 261.02 981.158 255.518C981.158 250.015 976.698 245.555 971.195 245.555C965.693 245.555 961.232 250.015 961.232 255.518C961.232 261.02 965.693 265.48 971.195 265.48Z" fill="#FFD4A9"/>
<path d="M970.986 255.756C971.413 255.756 971.759 255.41 971.759 254.983C971.759 254.555 971.413 254.209 970.986 254.209C970.558 254.209 970.212 254.555 970.212 254.983C970.212 255.41 970.558 255.756 970.986 255.756Z" fill="black"/>
<path d="M965.628 256.45C966.055 256.45 966.402 256.104 966.402 255.677C966.402 255.249 966.055 254.903 965.628 254.903C965.201 254.903 964.854 255.249 964.854 255.677C964.854 256.104 965.201 256.45 965.628 256.45Z" fill="black"/>
<path d="M967.848 258.525C967.548 258.555 967.247 258.478 966.998 258.307C966.749 258.136 966.569 257.883 966.489 257.593C966.431 257.323 966.466 257.043 966.588 256.796C966.71 256.549 966.912 256.351 967.161 256.233C967.681 255.966 967.595 255.612 967.551 255.51C967.535 255.471 967.526 255.429 967.526 255.386C967.525 255.343 967.534 255.301 967.55 255.261C967.582 255.181 967.645 255.117 967.725 255.084C967.804 255.05 967.894 255.05 967.974 255.082C968.054 255.115 968.118 255.178 968.151 255.257C968.207 255.406 968.232 255.565 968.225 255.723C968.218 255.882 968.18 256.038 968.113 256.182C968.046 256.326 967.951 256.455 967.833 256.562C967.716 256.669 967.578 256.751 967.428 256.805C967.307 256.857 967.206 256.949 967.145 257.066C967.083 257.183 967.063 257.318 967.089 257.448C967.154 257.715 967.421 257.875 967.812 257.875C967.898 257.875 967.981 257.909 968.042 257.97C968.103 258.031 968.137 258.114 968.137 258.2C968.137 258.286 968.103 258.369 968.042 258.43C967.981 258.491 967.898 258.525 967.812 258.525H967.848Z" fill="black"/>
<path d="M968.361 260.897C968.284 260.894 968.211 260.866 968.153 260.816C968.095 260.766 968.056 260.697 968.043 260.622C968.03 260.538 968.051 260.452 968.101 260.383C968.151 260.314 968.226 260.267 968.31 260.253C968.97 260.156 969.584 259.858 970.069 259.4C970.554 258.943 970.886 258.347 971.022 257.694C971.022 257.647 971.033 257.601 971.053 257.559C971.073 257.517 971.102 257.48 971.138 257.45C971.173 257.42 971.215 257.398 971.26 257.386C971.305 257.373 971.352 257.371 971.398 257.378C971.444 257.385 971.488 257.402 971.527 257.428C971.566 257.454 971.598 257.488 971.623 257.527C971.648 257.567 971.663 257.611 971.67 257.657C971.676 257.704 971.672 257.75 971.658 257.795C971.495 258.578 971.098 259.294 970.52 259.846C969.941 260.399 969.209 260.763 968.419 260.889L968.361 260.897Z" fill="black"/>
<path d="M977.666 253.84C975.885 253.854 974.147 253.289 972.713 252.232C971.28 251.175 970.227 249.682 969.713 247.977C967.708 248.181 965.816 249.001 964.296 250.324C962.776 251.647 961.703 253.408 961.225 255.366C961.225 255.366 958.022 249.77 962.975 246.3C967.927 242.829 980.485 239.366 982.098 253.204L977.666 253.84Z" fill="black"/>
<path d="M976.943 255.915C976.786 255.219 976.869 254.49 977.179 253.848C977.488 253.205 978.007 252.686 978.649 252.375C979.292 252.064 980.02 251.98 980.717 252.137C981.413 252.293 982.036 252.68 982.484 253.236C982.932 253.791 983.179 254.482 983.184 255.195C983.189 255.909 982.953 256.603 982.514 257.166C982.074 257.728 981.457 258.125 980.763 258.291C980.069 258.458 979.34 258.385 978.692 258.084C978.255 257.88 977.87 257.579 977.566 257.203C977.263 256.827 977.05 256.386 976.943 255.915Z" fill="#FFD4A9"/>
<path d="M978.786 255.807C978.714 255.808 978.643 255.785 978.587 255.74C978.53 255.695 978.491 255.632 978.475 255.561C978.378 255.143 978.45 254.703 978.677 254.339C978.903 253.974 979.265 253.714 979.683 253.616C979.89 253.566 980.105 253.558 980.315 253.592C980.525 253.627 980.725 253.704 980.905 253.819C981.086 253.93 981.243 254.076 981.368 254.248C981.492 254.421 981.58 254.616 981.628 254.824C981.643 254.867 981.649 254.912 981.646 254.958C981.642 255.003 981.629 255.047 981.607 255.088C981.586 255.128 981.556 255.163 981.52 255.191C981.484 255.218 981.442 255.238 981.398 255.249C981.353 255.26 981.307 255.261 981.262 255.253C981.217 255.244 981.175 255.227 981.137 255.201C981.1 255.175 981.068 255.142 981.044 255.103C981.02 255.064 981.005 255.021 980.999 254.975C980.971 254.85 980.918 254.732 980.844 254.628C980.769 254.523 980.674 254.435 980.565 254.368C980.402 254.269 980.213 254.221 980.023 254.228C979.832 254.236 979.648 254.3 979.494 254.412C979.339 254.524 979.221 254.679 979.155 254.858C979.088 255.036 979.076 255.231 979.119 255.416C979.136 255.5 979.12 255.586 979.074 255.658C979.028 255.73 978.956 255.781 978.873 255.8L978.786 255.807Z" fill="black"/>
<path d="M973.183 244.34C973.183 244.34 973.024 241.492 974.846 241.542C975.337 241.532 975.816 241.697 976.197 242.006C976.579 242.316 976.838 242.751 976.928 243.234C977.218 242.95 977.607 242.79 978.013 242.79C978.418 242.79 978.808 242.95 979.097 243.234C980.153 244.311 978.374 246.849 978.374 246.849L973.183 244.34Z" fill="black"/>
<path d="M969.72 248.013C969.72 248.013 967.848 252.25 965.65 252.264C963.452 252.279 964.247 247.623 964.247 247.623" fill="black"/>
<path d="M987.788 263.832C987.203 262.452 986.216 261.281 984.956 260.47C983.695 259.66 982.22 259.248 980.722 259.289C979.224 259.329 977.774 259.82 976.559 260.698C975.344 261.575 974.422 262.799 973.913 264.208C973.65 264.933 973.444 265.677 973.299 266.435C972.012 273.086 970.291 279.094 965.035 282.738C959.779 286.382 948.934 286.924 948.934 286.924L950.337 298.622C950.337 298.622 972.33 304.095 981.881 293.366C984.678 290.189 986.758 286.446 987.98 282.393C989.201 278.339 989.535 274.07 988.959 269.876C988.958 267.805 988.56 265.753 987.788 263.832V263.832Z" fill="#008348"/>
<path d="M954.631 299.692C954.551 299.693 954.473 299.664 954.413 299.61C954.353 299.557 954.315 299.483 954.306 299.403L953.019 286.331C953.013 286.246 953.041 286.162 953.096 286.097C953.152 286.032 953.23 285.992 953.316 285.984C953.358 285.979 953.4 285.983 953.441 285.995C953.481 286.007 953.519 286.027 953.551 286.054C953.584 286.081 953.61 286.115 953.63 286.153C953.649 286.19 953.66 286.231 953.663 286.274L954.949 299.36C954.958 299.445 954.932 299.53 954.878 299.596C954.824 299.663 954.745 299.705 954.66 299.714L954.631 299.692Z" fill="black"/>
<path d="M942.565 290.843C942.529 290.85 942.492 290.85 942.456 290.843C941.08 290.473 939.632 290.473 938.256 290.843C938.173 290.868 938.084 290.859 938.008 290.818C937.933 290.777 937.876 290.708 937.851 290.626C937.828 290.543 937.839 290.454 937.881 290.378C937.923 290.303 937.992 290.246 938.075 290.221C939.579 289.805 941.169 289.805 942.673 290.221C942.753 290.251 942.819 290.31 942.855 290.387C942.892 290.464 942.896 290.553 942.868 290.633C942.844 290.694 942.802 290.747 942.748 290.784C942.694 290.821 942.63 290.842 942.565 290.843V290.843Z" fill="black"/>
<path d="M942.297 288.587C942.261 288.594 942.225 288.594 942.189 288.587C940.814 288.213 939.363 288.213 937.988 288.587C937.905 288.61 937.816 288.599 937.74 288.557C937.665 288.515 937.608 288.446 937.583 288.363C937.571 288.322 937.568 288.279 937.572 288.237C937.577 288.195 937.59 288.154 937.611 288.117C937.632 288.08 937.66 288.047 937.694 288.021C937.728 287.995 937.766 287.976 937.807 287.965C939.309 287.548 940.897 287.548 942.398 287.965C942.468 287.992 942.527 288.042 942.564 288.107C942.602 288.172 942.616 288.247 942.604 288.321C942.592 288.395 942.555 288.462 942.499 288.512C942.443 288.562 942.372 288.591 942.297 288.594V288.587Z" fill="black"/>
<path d="M942.03 286.23C941.994 286.237 941.957 286.237 941.921 286.23C940.546 285.86 939.097 285.86 937.721 286.23C937.68 286.242 937.636 286.246 937.594 286.241C937.551 286.237 937.509 286.224 937.472 286.203C937.434 286.182 937.401 286.154 937.374 286.12C937.347 286.086 937.328 286.048 937.316 286.006C937.294 285.924 937.305 285.836 937.347 285.761C937.389 285.687 937.458 285.632 937.54 285.608C939.042 285.192 940.629 285.192 942.131 285.608C942.213 285.636 942.279 285.695 942.317 285.773C942.355 285.85 942.361 285.939 942.334 286.021C942.309 286.082 942.267 286.134 942.213 286.171C942.159 286.209 942.096 286.229 942.03 286.23V286.23Z" fill="black"/>
<path d="M948.934 287.25C948.853 287.248 948.775 287.216 948.716 287.16C948.657 287.103 948.621 287.027 948.616 286.946C948.613 286.904 948.618 286.862 948.632 286.823C948.645 286.783 948.666 286.746 948.694 286.715C948.721 286.683 948.755 286.657 948.792 286.639C948.83 286.62 948.871 286.609 948.912 286.606C953.237 286.346 957.498 285.435 961.55 283.902C962.972 283.377 964.326 282.686 965.585 281.842C971.73 276.839 973.169 267.657 973.183 267.57C973.196 267.485 973.242 267.408 973.311 267.356C973.38 267.305 973.467 267.283 973.552 267.295C973.636 267.309 973.712 267.356 973.763 267.424C973.814 267.493 973.837 267.579 973.827 267.664C973.827 267.758 972.337 277.178 965.982 282.348C965.758 282.521 960.509 286.389 948.963 287.25H948.934Z" fill="black"/>
<path d="M966.756 300.119C966.676 300.121 966.599 300.093 966.538 300.041C966.478 299.989 966.44 299.916 966.431 299.837C966.42 299.752 966.444 299.666 966.497 299.598C966.55 299.53 966.627 299.486 966.713 299.475C966.886 299.475 984.505 296.923 990.694 279.094C990.722 279.014 990.781 278.948 990.857 278.91C990.934 278.873 991.022 278.868 991.103 278.895C991.183 278.923 991.249 278.982 991.287 279.059C991.324 279.135 991.329 279.223 991.301 279.304C988.792 286.734 983.557 292.935 976.654 296.656C973.583 298.361 970.251 299.544 966.792 300.155L966.756 300.119Z" fill="black"/>
<path d="M965.469 282.312C965.384 282.304 965.305 282.264 965.25 282.199C965.194 282.134 965.167 282.05 965.173 281.965C965.498 277.469 966.296 273.02 967.551 268.691C967.565 268.651 967.587 268.614 967.615 268.582C967.643 268.551 967.676 268.525 967.714 268.506C967.752 268.488 967.794 268.477 967.836 268.475C967.878 268.472 967.92 268.478 967.96 268.492C968 268.505 968.036 268.527 968.068 268.555C968.1 268.583 968.125 268.617 968.144 268.655C968.162 268.693 968.173 268.734 968.176 268.776C968.178 268.818 968.172 268.86 968.159 268.9C966.919 273.171 966.124 277.559 965.787 281.994C965.787 282.078 965.754 282.159 965.694 282.218C965.634 282.278 965.553 282.312 965.469 282.312Z" fill="black"/>
<path d="M925.452 338.524C925.372 338.523 925.296 338.495 925.235 338.445C925.204 338.415 925.18 338.379 925.164 338.34C925.147 338.301 925.139 338.259 925.139 338.217C925.139 338.174 925.147 338.132 925.164 338.093C925.18 338.054 925.204 338.019 925.235 337.989C925.907 337.23 941.863 319.466 946.924 315.634C952.296 311.607 961.688 312.858 970.783 314.065C980.059 315.302 982.77 307.739 982.879 307.414C982.908 307.334 982.968 307.268 983.045 307.232C983.122 307.195 983.21 307.191 983.291 307.219C983.331 307.232 983.368 307.253 983.4 307.28C983.432 307.308 983.458 307.341 983.477 307.379C983.495 307.416 983.507 307.457 983.509 307.499C983.512 307.541 983.507 307.584 983.493 307.623C983.493 307.71 980.507 316.017 970.703 314.709C961.753 313.516 952.491 312.28 947.336 316.155C942.182 320.03 925.878 338.242 925.712 338.423C925.679 338.459 925.639 338.487 925.594 338.504C925.549 338.522 925.5 338.529 925.452 338.524V338.524Z" fill="#FF9027"/>
<path d="M972.865 314.926C972.78 314.918 972.702 314.878 972.646 314.813C972.591 314.748 972.563 314.664 972.569 314.579C973.003 308.245 978.49 305.541 978.541 305.512C978.618 305.48 978.704 305.478 978.783 305.507C978.861 305.537 978.925 305.595 978.961 305.671C978.997 305.746 979.003 305.832 978.978 305.912C978.952 305.992 978.896 306.058 978.823 306.098C978.772 306.098 973.624 308.672 973.212 314.622C973.21 314.665 973.198 314.707 973.18 314.745C973.161 314.783 973.134 314.818 973.102 314.846C973.07 314.874 973.032 314.896 972.992 314.909C972.951 314.923 972.908 314.929 972.865 314.926V314.926Z" fill="#FF9027"/>
<path d="M941.329 302.628C941.253 302.627 941.179 302.601 941.121 302.552C941.063 302.503 941.023 302.436 941.01 302.361C940.996 302.287 941.009 302.209 941.046 302.143C941.083 302.077 941.142 302.026 941.213 301.999C944.533 300.795 947.951 299.881 951.429 299.266C951.513 299.251 951.6 299.27 951.67 299.319C951.741 299.367 951.789 299.442 951.805 299.526C951.812 299.568 951.811 299.612 951.801 299.653C951.792 299.695 951.774 299.735 951.749 299.77C951.724 299.805 951.693 299.834 951.656 299.857C951.62 299.88 951.58 299.895 951.537 299.902C948.09 300.502 944.703 301.407 941.415 302.606C941.388 302.617 941.358 302.624 941.329 302.628Z" fill="#FF9027"/>
<path d="M1083.73 118.901C1086.17 119.226 1088.52 120.011 1090.67 121.215C1090.67 121.215 1105.97 129.797 1112.13 132.783C1118.28 135.769 1114.85 138.357 1114.85 138.357C1114.85 138.357 1139.88 157.097 1156.06 163.965C1167.69 168.903 1172.14 170.588 1173.72 171.137C1174.06 171.251 1174.34 171.478 1174.53 171.78C1174.72 172.082 1174.8 172.439 1174.76 172.793C1174.67 173.372 1174.25 173.921 1172.97 173.943L1150.34 169.402L1081.24 129.226L1083.73 118.901Z" fill="#FF743E"/>
<path d="M1151.23 179.134C1151.23 179.134 1162.55 181.903 1168.58 182.112C1168.79 182.033 1168.99 181.911 1169.16 181.753C1169.32 181.595 1169.45 181.406 1169.54 181.196C1169.63 180.985 1169.68 180.759 1169.68 180.53C1169.68 180.301 1169.64 180.075 1169.55 179.864C1169.55 179.864 1171.16 179.647 1171.16 177.5C1171.16 177.5 1173.52 177.29 1172.98 173.964L1156.57 167.06L1151.23 179.134Z" fill="#B3B3B3"/>
<path d="M993.463 176.018C993.463 176.018 1009.97 190.044 1063.67 190.817C1063.67 190.817 1086.43 181.816 1097.9 153.019L1073.36 124.555C1073.36 124.555 1036.18 159.844 993.463 176.018Z" fill="#A5A5A5"/>
<path d="M1021.48 179.806C1021.48 179.806 1016.85 175.54 1012.34 178.028C1012.34 178.028 1005.7 181.353 1002.91 180.97C1002.85 180.961 1002.79 180.964 1002.73 180.979C1002.68 180.994 1002.63 181.021 1002.58 181.058C1002.54 181.095 1002.5 181.141 1002.48 181.194C1002.45 181.246 1002.44 181.303 1002.44 181.361C1002.44 181.99 1002.72 183.045 1004.51 183.37C1004.51 183.37 1004.63 185.026 1006.89 185.026C1009.14 185.026 1014.73 189.06 1014.73 189.06L1021.48 179.806Z" fill="#F9C99D"/>
<path d="M1020.51 276.369C1020.51 276.369 1013.38 281.242 1010.71 281.032C1008.03 280.822 1004.83 274.764 1000.99 277.938C997.151 281.111 1000.69 285.095 1000.69 285.095L1011.48 298.001C1011.48 298.001 1014.56 302.136 1018.05 299.786L1031.07 292.253L1020.51 276.369Z" fill="black"/>
<path d="M1016.22 300.791C1016.27 300.791 1016.31 300.779 1016.36 300.758C1016.4 300.737 1016.44 300.706 1016.48 300.668C1016.5 300.634 1016.52 300.595 1016.53 300.554C1016.54 300.512 1016.54 300.469 1016.54 300.427C1016.53 300.385 1016.52 300.344 1016.5 300.307C1016.47 300.271 1016.45 300.239 1016.41 300.213C1015.13 299.088 1013.97 297.832 1012.96 296.468L1000.15 280.649C1000.13 280.616 1000.09 280.588 1000.06 280.568C1000.02 280.548 999.978 280.535 999.936 280.531C999.894 280.527 999.852 280.531 999.812 280.544C999.772 280.557 999.735 280.578 999.703 280.605C999.669 280.631 999.641 280.664 999.62 280.701C999.599 280.739 999.585 280.78 999.581 280.822C999.576 280.865 999.58 280.908 999.592 280.949C999.604 280.99 999.625 281.028 999.652 281.061L1012.45 296.873C1013.5 298.282 1014.7 299.574 1016.02 300.726C1016.08 300.768 1016.15 300.791 1016.22 300.791V300.791Z" fill="#006582"/>
<path d="M1018.92 282.572C1018.97 282.574 1019.02 282.561 1019.07 282.536C1019.15 282.493 1019.2 282.424 1019.23 282.341C1019.25 282.259 1019.24 282.171 1019.2 282.095L1017.03 278.06C1016.99 277.985 1016.92 277.929 1016.84 277.903C1016.76 277.878 1016.67 277.885 1016.6 277.923C1016.52 277.964 1016.47 278.034 1016.44 278.116C1016.42 278.198 1016.42 278.287 1016.46 278.364L1018.63 282.406C1018.66 282.457 1018.7 282.499 1018.75 282.529C1018.8 282.558 1018.86 282.573 1018.92 282.572Z" fill="#006582"/>
<path d="M1016.64 283.707C1016.69 283.709 1016.74 283.696 1016.79 283.671C1016.86 283.63 1016.92 283.56 1016.94 283.477C1016.97 283.395 1016.96 283.306 1016.92 283.23L1014.75 279.196C1014.71 279.12 1014.64 279.063 1014.56 279.038C1014.47 279.012 1014.38 279.019 1014.31 279.058C1014.23 279.099 1014.18 279.169 1014.15 279.252C1014.13 279.334 1014.14 279.423 1014.18 279.499L1016.35 283.541C1016.38 283.591 1016.42 283.634 1016.47 283.663C1016.52 283.692 1016.58 283.707 1016.64 283.707V283.707Z" fill="#006582"/>
<path d="M1014.35 284.842C1014.4 284.845 1014.46 284.832 1014.5 284.806C1014.58 284.766 1014.63 284.698 1014.66 284.617C1014.68 284.536 1014.68 284.448 1014.64 284.372L1012.47 280.331C1012.43 280.255 1012.36 280.199 1012.28 280.173C1012.2 280.147 1012.11 280.155 1012.03 280.193C1011.95 280.235 1011.9 280.304 1011.87 280.387C1011.85 280.47 1011.86 280.559 1011.9 280.634L1014.07 284.676C1014.1 284.727 1014.14 284.77 1014.19 284.799C1014.24 284.828 1014.29 284.843 1014.35 284.842V284.842Z" fill="#006582"/>
<path d="M1113.91 303.474C1113.91 303.474 1121.56 307.472 1122.64 309.923C1123.72 312.374 1119.84 318.085 1124.48 319.936C1129.11 321.787 1130.93 316.827 1130.93 316.827L1137.23 301.225C1137.23 301.225 1139.4 296.562 1135.7 294.588L1122.91 286.635L1113.91 303.474Z" fill="black"/>
<path d="M1127.51 319.878C1127.58 319.879 1127.64 319.861 1127.69 319.826C1127.74 319.791 1127.78 319.741 1127.81 319.683L1135.76 300.936C1136.51 299.347 1137.09 297.682 1137.48 295.969C1137.48 295.927 1137.48 295.884 1137.47 295.843C1137.46 295.802 1137.44 295.763 1137.42 295.728C1137.39 295.694 1137.36 295.665 1137.33 295.643C1137.29 295.621 1137.25 295.606 1137.21 295.6C1137.12 295.588 1137.04 295.609 1136.97 295.659C1136.9 295.709 1136.85 295.784 1136.84 295.868C1136.45 297.527 1135.89 299.142 1135.16 300.683L1127.25 319.43C1127.24 319.469 1127.23 319.511 1127.22 319.553C1127.22 319.596 1127.23 319.638 1127.25 319.677C1127.26 319.716 1127.29 319.752 1127.32 319.782C1127.35 319.811 1127.39 319.834 1127.43 319.849C1127.45 319.864 1127.48 319.874 1127.51 319.878Z" fill="#006582"/>
<path d="M1117.3 306.243C1117.35 306.243 1117.4 306.23 1117.45 306.204C1117.5 306.179 1117.54 306.142 1117.56 306.098L1120.11 302.288C1120.13 302.253 1120.15 302.213 1120.16 302.172C1120.16 302.131 1120.16 302.088 1120.16 302.047C1120.15 302.005 1120.13 301.966 1120.11 301.931C1120.08 301.896 1120.05 301.866 1120.02 301.843C1119.98 301.82 1119.94 301.804 1119.9 301.796C1119.86 301.788 1119.82 301.788 1119.78 301.796C1119.74 301.805 1119.7 301.821 1119.66 301.845C1119.63 301.868 1119.6 301.898 1119.57 301.934L1117.03 305.744C1117 305.792 1116.98 305.848 1116.97 305.907C1116.97 305.965 1116.98 306.023 1117.01 306.075C1117.04 306.126 1117.08 306.169 1117.13 306.199C1117.18 306.229 1117.24 306.244 1117.3 306.243V306.243Z" fill="#006582"/>
<path d="M1119.37 307.725C1119.43 307.726 1119.48 307.713 1119.52 307.687C1119.57 307.662 1119.61 307.625 1119.64 307.58L1122.18 303.77C1122.21 303.735 1122.24 303.694 1122.25 303.65C1122.26 303.606 1122.27 303.56 1122.26 303.514C1122.26 303.468 1122.24 303.424 1122.22 303.385C1122.19 303.346 1122.16 303.312 1122.12 303.286C1122.08 303.26 1122.04 303.243 1121.99 303.235C1121.95 303.227 1121.9 303.229 1121.86 303.241C1121.81 303.252 1121.77 303.273 1121.74 303.302C1121.7 303.331 1121.67 303.367 1121.65 303.408L1119.1 307.219C1119.06 307.29 1119.04 307.377 1119.06 307.461C1119.07 307.544 1119.12 307.619 1119.19 307.667C1119.25 307.702 1119.31 307.722 1119.37 307.725V307.725Z" fill="#006582"/>
<path d="M1121.45 309.2C1121.51 309.199 1121.56 309.186 1121.61 309.16C1121.65 309.135 1121.69 309.099 1121.72 309.055L1124.27 305.245C1124.31 305.173 1124.33 305.085 1124.31 305C1124.3 304.915 1124.25 304.841 1124.18 304.793C1124.1 304.745 1124.02 304.728 1123.93 304.745C1123.85 304.762 1123.77 304.811 1123.72 304.883L1121.18 308.694C1121.13 308.766 1121.12 308.853 1121.13 308.937C1121.15 309.021 1121.2 309.095 1121.27 309.142C1121.33 309.179 1121.39 309.199 1121.45 309.2Z" fill="#006582"/>
<path d="M1068 240.841L1025.12 269.11C1025.12 269.11 1018.13 271.575 1019.15 277.207C1020.17 282.839 1029.07 294.856 1034.69 294.046C1040.31 293.236 1081.24 268.517 1081.24 268.517C1081.24 268.517 1089.86 290.828 1103.38 300.271C1116.9 309.713 1117.93 301.594 1121.11 297.878C1123.77 294.762 1125.71 294.48 1126.07 290.279C1126.15 289.457 1126.04 288.63 1125.75 287.855C1125.47 287.081 1125.02 286.378 1124.43 285.796C1121 282.377 1113.28 273.679 1111.15 262.834C1108.38 248.743 1108.51 236.503 1102.99 230.661C1097.47 224.819 1068 240.841 1068 240.841Z" fill="#FF743E"/>
<path d="M1122.96 291.212C1123.03 291.211 1123.09 291.19 1123.15 291.151C1123.2 291.112 1123.24 291.057 1123.26 290.994C1123.29 290.93 1123.29 290.862 1123.27 290.797C1123.25 290.733 1123.21 290.675 1123.16 290.633C1106.73 278.133 1106.01 261.916 1105.59 252.228C1105.51 250.312 1105.43 248.664 1105.26 247.297C1104.52 241.992 1103.01 236.824 1100.76 231.963C1100.72 231.886 1100.66 231.828 1100.57 231.801C1100.49 231.774 1100.41 231.78 1100.33 231.818C1100.29 231.836 1100.25 231.861 1100.23 231.893C1100.2 231.925 1100.17 231.962 1100.16 232.003C1100.15 232.044 1100.14 232.087 1100.15 232.13C1100.15 232.173 1100.16 232.214 1100.18 232.252C1102.41 237.044 1103.92 242.142 1104.65 247.377C1104.83 248.714 1104.9 250.355 1104.98 252.25C1105.41 262.053 1106.13 278.465 1122.8 291.147C1122.85 291.182 1122.9 291.204 1122.96 291.212V291.212Z" fill="#FF1E23"/>
<path d="M1104.08 244.658C1104.17 244.657 1104.26 244.621 1104.32 244.557C1104.35 244.527 1104.37 244.492 1104.39 244.453C1104.41 244.414 1104.42 244.372 1104.42 244.329C1104.42 244.287 1104.41 244.245 1104.39 244.206C1104.37 244.167 1104.35 244.131 1104.32 244.102C1104.28 244.102 1100.91 240.841 1098.61 233.719C1098.59 233.679 1098.57 233.642 1098.55 233.611C1098.52 233.579 1098.49 233.553 1098.45 233.534C1098.41 233.515 1098.37 233.504 1098.33 233.501C1098.28 233.498 1098.24 233.503 1098.2 233.517C1098.12 233.544 1098.05 233.601 1098.02 233.677C1097.98 233.752 1097.97 233.84 1097.99 233.922C1100.35 241.21 1103.73 244.434 1103.87 244.572C1103.93 244.624 1104 244.654 1104.08 244.658V244.658Z" fill="#FF1E23"/>
<path d="M1123.5 167.096C1123.5 167.096 1107.73 185.12 1077.47 188.981C1053.8 192.003 1033.29 183.002 1025.48 178.946C1024.53 178.452 1023.43 178.316 1022.38 178.565C1021.34 178.813 1020.42 179.428 1019.79 180.298L1014.44 187.737C1013.78 188.646 1013.49 189.769 1013.62 190.883C1013.76 191.996 1014.31 193.018 1015.16 193.745C1020.48 198.286 1033.02 207.171 1053.99 211.82L1060.84 227.292C1061.85 229.544 1062.47 231.949 1062.68 234.406C1062.76 235.66 1063 236.898 1063.41 238.086C1063.91 239.427 1064.88 240.541 1066.14 241.224C1067.4 241.908 1068.87 242.116 1070.27 241.81L1102.24 235.05C1103.54 234.775 1104.68 234.011 1105.43 232.917C1106.18 231.823 1106.48 230.481 1106.27 229.172L1102.56 206.354C1102.56 206.354 1124.12 194.121 1139.89 173.205L1123.5 167.096Z" fill="#239AAB"/>
<path d="M1062.86 119.046C1063.01 118.895 1063.2 118.769 1063.39 118.67C1065.69 117.499 1077.32 119.003 1083.13 119.827C1083.13 119.827 1085.77 120.159 1085.95 122.054C1082.75 122.625 1072.23 123.97 1062.86 119.046Z" fill="#CCCCCC"/>
<path d="M988.381 162.895C988.381 162.895 1020.08 156.519 1036.1 146.722C1052.11 136.926 1062.22 125.3 1063.41 122.56C1063.41 122.56 1061.55 120.34 1062.89 119.046C1072.29 123.97 1082.79 122.625 1085.98 122.054C1086.06 122.777 1085.77 123.702 1084.88 124.946C1084.88 124.946 1114.59 152.904 1159.1 167.544C1159.1 168.415 1158.89 169.273 1158.5 170.051C1158.11 170.829 1157.54 171.505 1156.84 172.027C1156.96 172.9 1156.76 173.788 1156.28 174.525C1155.79 175.262 1155.06 175.8 1154.21 176.039C1154.21 176.039 1154.15 178.411 1151.26 179.155C1151.26 179.155 1104.38 173.668 1072.56 128.04C1072.56 128.04 1044.43 167.306 993.499 176.039C993.499 176.039 991.511 175.23 992.147 172.207C991.425 171.758 990.863 171.091 990.542 170.303C990.222 169.515 990.158 168.645 990.362 167.819C990.362 167.819 987.477 165.664 988.381 162.895Z" fill="white"/>
<path d="M986.71 163.618C986.806 163.633 986.904 163.633 987 163.618C1017.89 159.129 1037.25 148.305 1048.05 140.013C1059.82 130.975 1064.19 123.073 1064.37 122.741C1064.49 122.523 1064.53 122.275 1064.5 122.031C1064.46 121.787 1064.35 121.562 1064.17 121.389C1063.21 120.449 1063.54 119.943 1063.69 119.755C1063.83 119.564 1064.02 119.419 1064.25 119.337C1064.47 119.255 1064.71 119.239 1064.95 119.292C1070.11 120.253 1079.7 120.919 1083.59 121.164C1083.87 121.18 1084.13 121.283 1084.34 121.458C1084.55 121.634 1084.7 121.873 1084.77 122.14C1084.85 122.401 1084.83 122.68 1084.74 122.934C1084.64 123.187 1084.46 123.401 1084.23 123.543L1084.15 123.594C1083.99 123.683 1083.85 123.809 1083.76 123.961C1083.66 124.114 1083.59 124.288 1083.58 124.468C1083.56 124.647 1083.58 124.828 1083.65 124.995C1083.71 125.162 1083.82 125.311 1083.95 125.43C1099.74 139.318 1117.46 150.853 1136.54 159.678C1150.7 166.185 1160.32 168.571 1160.4 168.593C1160.67 168.611 1160.93 168.536 1161.15 168.379C1161.36 168.222 1161.52 167.994 1161.58 167.736C1161.65 167.477 1161.62 167.203 1161.5 166.963C1161.39 166.723 1161.19 166.532 1160.94 166.424C1160.85 166.424 1151.39 164.038 1137.41 157.618C1118.93 149.068 1101.75 137.952 1086.38 124.599C1086.76 124.08 1086.99 123.471 1087.05 122.834C1087.1 122.197 1086.99 121.556 1086.72 120.978C1086.45 120.399 1086.02 119.904 1085.5 119.544C1084.97 119.184 1084.35 118.972 1083.71 118.93C1079.87 118.692 1070.39 118.034 1065.34 117.094C1064.68 116.965 1063.99 117.033 1063.36 117.289C1062.73 117.546 1062.19 117.981 1061.81 118.54C1061.41 119.109 1061.2 119.794 1061.23 120.49C1061.26 121.186 1061.52 121.853 1061.97 122.386C1060.67 124.454 1056.06 131.062 1046.53 138.379C1035.95 146.469 1016.98 157.039 986.66 161.442C986.385 161.474 986.13 161.605 985.946 161.812C985.761 162.018 985.659 162.286 985.659 162.563C985.659 162.84 985.761 163.107 985.946 163.314C986.13 163.521 986.385 163.652 986.66 163.683L986.71 163.618Z" fill="#FF9027"/>
<path d="M1153.54 170.87C1153.62 170.868 1153.69 170.841 1153.75 170.792C1153.8 170.743 1153.84 170.677 1153.86 170.602C1153.87 170.518 1153.85 170.431 1153.81 170.361C1153.76 170.291 1153.68 170.242 1153.6 170.227C1153.51 170.227 1144.2 168.354 1130.56 162.049C1111.79 153.221 1094.72 141.161 1080.13 126.421C1080.1 126.383 1080.06 126.352 1080.02 126.33C1079.98 126.308 1079.94 126.295 1079.89 126.291C1079.84 126.288 1079.8 126.295 1079.75 126.311C1079.71 126.327 1079.67 126.353 1079.64 126.386C1079.6 126.419 1079.58 126.458 1079.56 126.502C1079.55 126.546 1079.54 126.592 1079.54 126.639C1079.55 126.685 1079.56 126.731 1079.58 126.771C1079.6 126.812 1079.64 126.848 1079.67 126.876C1094.31 141.676 1111.45 153.785 1130.28 162.65C1144.02 168.976 1153.35 170.841 1153.42 170.863L1153.54 170.87Z" fill="#CCCCCC"/>
<path d="M1151.28 175.215C1151.36 175.214 1151.44 175.184 1151.5 175.13C1151.56 175.076 1151.6 175.002 1151.61 174.923C1151.61 174.843 1151.59 174.763 1151.54 174.698C1151.5 174.634 1151.43 174.588 1151.35 174.572C1151.23 174.572 1139.78 172.294 1124.98 165.361C1111.35 158.962 1092.04 147.17 1077.45 127.295C1077.4 127.227 1077.33 127.182 1077.24 127.168C1077.16 127.155 1077.07 127.174 1077 127.223C1076.94 127.275 1076.89 127.351 1076.88 127.436C1076.86 127.521 1076.88 127.608 1076.93 127.679C1091.6 147.669 1111.02 159.526 1124.72 165.954C1139.57 172.916 1151.11 175.186 1151.23 175.208L1151.28 175.215Z" fill="#CCCCCC"/>
<path d="M993.817 167.161H993.875C1013.99 163.519 1032.95 155.124 1049.17 142.673C1061.05 133.441 1066.9 125.228 1066.95 125.148C1067 125.078 1067.02 124.992 1067.01 124.908C1066.99 124.824 1066.94 124.749 1066.88 124.7C1066.84 124.675 1066.8 124.657 1066.76 124.647C1066.72 124.637 1066.68 124.635 1066.64 124.642C1066.59 124.649 1066.55 124.664 1066.52 124.686C1066.48 124.708 1066.45 124.738 1066.43 124.772C1066.37 124.859 1060.56 133.007 1048.75 142.182C1032.62 154.555 1013.77 162.901 993.76 166.525C993.718 166.529 993.677 166.541 993.64 166.56C993.603 166.58 993.57 166.606 993.543 166.638C993.516 166.671 993.496 166.708 993.483 166.748C993.471 166.788 993.467 166.83 993.47 166.872C993.474 166.914 993.486 166.954 993.506 166.991C993.525 167.029 993.552 167.061 993.584 167.088C993.616 167.115 993.653 167.135 993.693 167.148C993.733 167.16 993.776 167.165 993.817 167.161V167.161Z" fill="#CCCCCC"/>
<path d="M994.837 172.034H994.902C1015.68 167.613 1035.11 158.332 1051.6 144.951C1063.67 135.046 1069.49 126.392 1069.55 126.312C1069.6 126.241 1069.62 126.154 1069.6 126.07C1069.58 125.986 1069.53 125.912 1069.46 125.864C1069.43 125.84 1069.39 125.822 1069.35 125.814C1069.31 125.805 1069.26 125.804 1069.22 125.812C1069.18 125.821 1069.14 125.837 1069.1 125.861C1069.07 125.884 1069.04 125.915 1069.02 125.951C1068.96 126.037 1063.17 134.627 1051.17 144.466C1034.76 157.766 1015.44 166.994 994.779 171.398C994.706 171.42 994.643 171.467 994.601 171.53C994.559 171.594 994.541 171.67 994.549 171.746C994.558 171.822 994.593 171.892 994.648 171.945C994.703 171.997 994.775 172.029 994.851 172.034H994.837Z" fill="#CCCCCC"/>
<path d="M1056.1 216.924C1056.14 216.935 1056.18 216.935 1056.23 216.924C1056.27 216.908 1056.3 216.884 1056.33 216.853C1056.36 216.823 1056.38 216.786 1056.4 216.746C1056.42 216.707 1056.42 216.664 1056.42 216.621C1056.42 216.579 1056.41 216.537 1056.39 216.498L1050.88 204.055C1050.86 204.016 1050.84 203.98 1050.8 203.95C1050.77 203.92 1050.74 203.897 1050.7 203.881C1050.66 203.866 1050.62 203.859 1050.57 203.86C1050.53 203.861 1050.49 203.871 1050.45 203.889C1050.37 203.924 1050.31 203.988 1050.28 204.068C1050.25 204.148 1050.25 204.237 1050.28 204.315L1055.8 216.708C1055.82 216.769 1055.86 216.822 1055.91 216.861C1055.97 216.899 1056.03 216.921 1056.1 216.924V216.924Z" fill="#006582"/>
<path d="M1099.36 208.183C1099.4 208.19 1099.44 208.19 1099.48 208.183C1104.04 206.333 1112.77 200.115 1113.14 199.847C1113.21 199.797 1113.25 199.722 1113.27 199.638C1113.28 199.554 1113.26 199.469 1113.21 199.399C1113.19 199.365 1113.16 199.335 1113.12 199.313C1113.08 199.291 1113.04 199.276 1113 199.269C1112.96 199.262 1112.92 199.264 1112.88 199.274C1112.84 199.284 1112.8 199.302 1112.76 199.327C1112.67 199.385 1103.73 205.761 1099.24 207.583C1099.2 207.598 1099.16 207.621 1099.13 207.651C1099.1 207.681 1099.08 207.716 1099.06 207.755C1099.04 207.795 1099.03 207.837 1099.04 207.88C1099.04 207.922 1099.05 207.964 1099.06 208.003C1099.09 208.058 1099.13 208.105 1099.18 208.137C1099.24 208.169 1099.3 208.185 1099.36 208.183V208.183Z" fill="#006582"/>
<path d="M1073.69 196.218C1073.93 196.22 1074.17 196.203 1074.41 196.167C1077.43 195.712 1078.89 191.41 1078.96 191.229C1078.98 191.188 1078.99 191.143 1078.99 191.097C1078.99 191.051 1078.98 191.006 1078.96 190.964C1078.94 190.923 1078.91 190.885 1078.88 190.855C1078.85 190.824 1078.81 190.801 1078.76 190.786C1078.72 190.772 1078.67 190.767 1078.63 190.772C1078.58 190.776 1078.54 190.79 1078.5 190.813C1078.46 190.836 1078.42 190.867 1078.4 190.903C1078.37 190.94 1078.35 190.982 1078.34 191.027C1078.34 191.027 1076.94 195.134 1074.31 195.524C1073.85 195.618 1073.38 195.602 1072.94 195.476C1072.49 195.35 1072.08 195.119 1071.74 194.801C1071.3 194.309 1070.98 193.725 1070.8 193.092C1070.61 192.459 1070.57 191.793 1070.68 191.143C1070.68 191.058 1070.66 190.974 1070.6 190.908C1070.55 190.842 1070.47 190.799 1070.39 190.788C1070.3 190.78 1070.22 190.806 1070.15 190.86C1070.09 190.914 1070.04 190.992 1070.03 191.078C1069.92 191.826 1069.97 192.591 1070.19 193.317C1070.4 194.043 1070.78 194.711 1071.29 195.271C1071.94 195.886 1072.8 196.226 1073.69 196.218Z" fill="#006582"/>
<path d="M1074.73 169.525C1077.48 170.824 1080.36 171.832 1083.32 172.533C1088.9 173.979 1089.04 178.252 1087.18 180.544C1087.18 180.544 1089.02 188.077 1081.81 189.386C1074.59 190.694 1074.73 169.525 1074.73 169.525Z" fill="#1A1A1A"/>
<path d="M1074.47 193.095C1079.97 193.095 1084.43 188.634 1084.43 183.132C1084.43 177.63 1079.97 173.169 1074.47 173.169C1068.96 173.169 1064.5 177.63 1064.5 183.132C1064.5 188.634 1068.96 193.095 1074.47 193.095Z" fill="#FFD4A9"/>
<path d="M1075.68 183.905C1076.11 183.905 1076.46 183.559 1076.46 183.132C1076.46 182.705 1076.11 182.358 1075.68 182.358C1075.25 182.358 1074.91 182.705 1074.91 183.132C1074.91 183.559 1075.25 183.905 1075.68 183.905Z" fill="black"/>
<path d="M1070.45 182.546C1070.88 182.546 1071.23 182.2 1071.23 181.773C1071.23 181.345 1070.88 180.999 1070.45 180.999C1070.03 180.999 1069.68 181.345 1069.68 181.773C1069.68 182.2 1070.03 182.546 1070.45 182.546Z" fill="black"/>
<path d="M1071.57 185.272C1071.64 185.273 1071.72 185.248 1071.78 185.2C1071.84 185.152 1071.88 185.084 1071.89 185.009C1071.91 184.934 1071.9 184.856 1071.86 184.789C1071.82 184.722 1071.76 184.67 1071.69 184.643C1071.33 184.498 1071.13 184.245 1071.18 183.971C1071.2 183.842 1071.27 183.725 1071.37 183.64C1071.47 183.556 1071.6 183.509 1071.73 183.508C1071.88 183.511 1072.04 183.483 1072.19 183.425C1072.33 183.367 1072.47 183.281 1072.58 183.172C1072.7 183.062 1072.79 182.932 1072.85 182.787C1072.91 182.643 1072.95 182.487 1072.95 182.329C1072.95 182.243 1072.91 182.16 1072.85 182.099C1072.79 182.038 1072.71 182.004 1072.62 182.004C1072.54 182.004 1072.45 182.038 1072.39 182.099C1072.33 182.16 1072.3 182.243 1072.3 182.329C1072.3 182.438 1072.25 182.799 1071.67 182.85C1071.39 182.867 1071.13 182.976 1070.93 183.159C1070.72 183.343 1070.58 183.59 1070.53 183.862C1070.5 184.161 1070.57 184.461 1070.74 184.711C1070.91 184.961 1071.16 185.144 1071.44 185.229C1071.48 185.253 1071.52 185.268 1071.57 185.272V185.272Z" fill="black"/>
<path d="M1084.89 179.004C1085.1 177.546 1084.84 176.06 1084.16 174.754C1083.49 173.447 1082.42 172.383 1081.11 171.709C1076.48 169.323 1075.33 165.542 1070.87 166.38C1066.42 167.219 1067.65 172.829 1067.65 172.829C1067.65 172.829 1064.84 174.514 1065.41 178.722C1065.41 178.722 1073.53 176.198 1081.25 179.445C1081.25 179.445 1079.14 185.612 1082.65 188.981C1082.69 188.959 1087.14 185.59 1084.89 179.004Z" fill="#333333"/>
<path d="M1079.96 185.691C1080.32 185.073 1080.88 184.595 1081.54 184.334C1082.21 184.073 1082.94 184.045 1083.62 184.255C1084.31 184.464 1084.9 184.899 1085.3 185.488C1085.7 186.077 1085.9 186.785 1085.85 187.498C1085.8 188.21 1085.51 188.884 1085.02 189.411C1084.54 189.937 1083.89 190.284 1083.19 190.396C1082.48 190.508 1081.76 190.377 1081.14 190.026C1080.52 189.674 1080.03 189.122 1079.77 188.46C1079.59 188.014 1079.51 187.533 1079.54 187.053C1079.58 186.573 1079.72 186.108 1079.96 185.691V185.691Z" fill="#FFD4A9"/>
<path d="M1083.84 188.265C1083.9 188.266 1083.96 188.251 1084.01 188.222C1084.06 188.193 1084.1 188.15 1084.13 188.099C1084.34 187.727 1084.4 187.285 1084.29 186.87C1084.18 186.455 1083.91 186.101 1083.53 185.886C1083.16 185.672 1082.72 185.614 1082.3 185.725C1081.89 185.836 1081.54 186.107 1081.32 186.479C1081.29 186.553 1081.28 186.636 1081.31 186.713C1081.34 186.79 1081.39 186.854 1081.46 186.894C1081.53 186.933 1081.61 186.945 1081.69 186.928C1081.77 186.91 1081.84 186.863 1081.88 186.797C1081.98 186.63 1082.12 186.495 1082.3 186.41C1082.47 186.325 1082.66 186.293 1082.85 186.319C1083.05 186.344 1083.22 186.426 1083.37 186.554C1083.51 186.682 1083.62 186.85 1083.66 187.036C1083.7 187.157 1083.71 187.283 1083.69 187.407C1083.67 187.531 1083.63 187.651 1083.57 187.759C1083.54 187.808 1083.52 187.864 1083.52 187.921C1083.52 187.978 1083.54 188.034 1083.56 188.084C1083.59 188.134 1083.63 188.175 1083.68 188.205C1083.73 188.234 1083.79 188.25 1083.84 188.251V188.265Z" fill="#FFD4A9"/>
<path d="M1075.13 186.957C1075.13 186.957 1071.97 187.679 1069.61 186.06" stroke="black" stroke-linecap="round" stroke-linejoin="round"/>
<path d="M1062.68 236.503C1062.76 236.494 1062.84 236.452 1062.89 236.385C1062.95 236.319 1062.97 236.234 1062.96 236.149C1062.34 229.295 1067.98 222.73 1068.03 222.665C1068.06 222.635 1068.08 222.6 1068.1 222.561C1068.11 222.522 1068.12 222.48 1068.12 222.437C1068.12 222.395 1068.11 222.353 1068.1 222.314C1068.08 222.275 1068.06 222.239 1068.03 222.209C1068 222.179 1067.96 222.155 1067.92 222.138C1067.88 222.122 1067.84 222.113 1067.8 222.113C1067.76 222.113 1067.71 222.122 1067.67 222.138C1067.63 222.155 1067.6 222.179 1067.57 222.209C1067.33 222.484 1061.69 229.049 1062.34 236.185C1062.34 236.228 1062.35 236.27 1062.37 236.309C1062.39 236.348 1062.41 236.383 1062.44 236.413C1062.47 236.442 1062.51 236.466 1062.55 236.481C1062.59 236.496 1062.63 236.504 1062.68 236.503V236.503Z" fill="#006582"/>
<path d="M1084.56 276.21C1084.61 276.211 1084.66 276.198 1084.7 276.173C1084.74 276.154 1084.78 276.128 1084.8 276.096C1084.83 276.063 1084.85 276.026 1084.86 275.985C1084.88 275.945 1084.88 275.902 1084.88 275.86C1084.87 275.818 1084.86 275.777 1084.84 275.74C1080.94 268.167 1078.55 259.906 1077.8 251.418C1077.79 251.341 1077.75 251.271 1077.69 251.22C1077.63 251.169 1077.56 251.141 1077.48 251.141C1077.4 251.141 1077.33 251.169 1077.27 251.22C1077.21 251.271 1077.17 251.341 1077.16 251.418C1077.9 259.998 1080.32 268.349 1084.27 276C1084.29 276.059 1084.33 276.111 1084.38 276.148C1084.44 276.185 1084.5 276.207 1084.56 276.21Z" fill="#FF1E23"/>
<path d="M938.704 253.269C938.704 253.269 949.701 228.63 951.429 207.894" stroke="white" stroke-width="3" stroke-linejoin="round"/>
<path d="M948.934 247.478C953.063 239.329 956.081 230.662 957.906 221.711" stroke="#FFC147" stroke-width="3" stroke-linejoin="round"/>
<path d="M934.026 244.073C934.026 244.073 941.343 226.829 941.733 212.984" stroke="#82C1CC" stroke-width="3" stroke-linejoin="round"/>
<path d="M1015.15 223.294C1016.07 223.294 1016.82 222.549 1016.82 221.631C1016.82 220.713 1016.07 219.968 1015.15 219.968C1014.23 219.968 1013.49 220.713 1013.49 221.631C1013.49 222.549 1014.23 223.294 1015.15 223.294Z" fill="#FFC147"/>
<path d="M999.233 231.435V224.321" stroke="#006582" stroke-width="2" stroke-linecap="round" stroke-linejoin="round"/>
<path d="M1002.31 229.656L996.146 226.099" stroke="#006582" stroke-width="2" stroke-linecap="round" stroke-linejoin="round"/>
<path d="M1002.31 226.099L996.146 229.656" stroke="#006582" stroke-width="2" stroke-linecap="round" stroke-linejoin="round"/>
<path d="M1011.65 239.988C1012.77 239.988 1013.69 239.075 1013.69 237.949C1013.69 236.823 1012.77 235.91 1011.65 235.91C1010.52 235.91 1009.61 236.823 1009.61 237.949C1009.61 239.075 1010.52 239.988 1011.65 239.988Z" stroke="#FF743E" stroke-width="2" stroke-linecap="round" stroke-linejoin="round"/>
<path d="M959.483 174.492C959.483 174.492 952.976 171.325 950.33 164.573C947.683 157.82 941.14 150.077 937.858 152.846C937.858 152.846 931.59 139.695 926.869 144.069C926.869 144.069 922.429 134.988 917.911 134.381C913.392 133.773 914.592 137.576 914.592 137.576C914.592 137.576 907.362 125.43 901.318 127.52C895.274 129.609 899.619 139.774 903.487 145.536C907.355 151.299 915.568 156.801 917.108 151.494C917.108 151.494 928.062 168.311 930.064 160.22C930.064 160.22 935.899 170.725 939.854 165.195C939.839 165.195 947.286 174.745 959.483 174.492Z" fill="white"/>
<path d="M958.189 179.553C958.189 179.553 949.065 184.506 938.776 180.103C938.776 180.103 938.581 182.893 932.356 180.356C926.131 177.818 922.119 170.588 925.256 169.062C927.671 167.884 932.147 172.251 932.147 172.251C932.147 172.251 932.783 168.954 937.352 171.268C941.921 173.581 947.929 179.09 958.189 179.553Z" fill="white"/>
</g>
<g clip-path="url(#clip3_1765_205)">
<path d="M591.61 101.95L571 112.9L594.25 114.78L584.02 135.74L603.94 123.61L607.99 146.58L616.97 125.06L633.75 141.26L628.36 118.56L651.46 121.82L633.75 106.63L654.36 95.68L631.1 93.8L641.34 72.84L621.42 84.96L617.37 62L608.38 83.52L591.61 67.32L597 90.02L573.9 86.76L591.61 101.95Z" fill="#FFE484"/>
</g>
</g>
<defs>
<clipPath id="clip0_1765_205">
<rect width="1920" height="451" fill="white"/>
</clipPath>
<clipPath id="clip1_1765_205">
<rect width="343" height="317.949" fill="white" transform="translate(1257 40)"/>
</clipPath>
<clipPath id="clip2_1765_205">
<rect width="290.374" height="285.914" fill="white" transform="translate(884.386 117)"/>
</clipPath>
<clipPath id="clip3_1765_205">
<rect width="83.35" height="84.58" fill="white" transform="translate(571 62)"/>
</clipPath>
</defs>
</svg>
