<svg width="1920" height="451" viewBox="0 0 1920 451" fill="none" xmlns="http://www.w3.org/2000/svg">
<g clip-path="url(#clip0_1767_604)">
<path d="M1396.69 199.837L1402.77 195.327L1395.23 195.852L1397.49 188.63L1391.69 193.491L1389.27 186.321L1387.44 193.658L1381.27 189.282L1384.1 196.293L1376.54 196.37L1382.95 200.381L1376.88 204.897L1384.42 204.366L1382.16 211.588L1387.96 206.733L1390.37 213.897L1392.21 206.56L1398.37 210.942L1395.55 203.925L1403.11 203.848L1396.69 199.837Z" fill="white"/>
<path d="M1411.97 224.964L1411.7 218.273" stroke="#006582" stroke-width="2" stroke-linecap="round" stroke-linejoin="round"/>
<path d="M1414.8 223.173L1408.87 220.064" stroke="#006582" stroke-width="2" stroke-linecap="round" stroke-linejoin="round"/>
<path d="M1414.67 219.827L1409.01 223.41" stroke="#006582" stroke-width="2" stroke-linecap="round" stroke-linejoin="round"/>
<path d="M1414.24 208.511C1415.29 208.511 1416.15 207.655 1416.15 206.599C1416.15 205.542 1415.29 204.686 1414.24 204.686C1413.18 204.686 1412.33 205.542 1412.33 206.599C1412.33 207.655 1413.18 208.511 1414.24 208.511Z" stroke="#FF743E" stroke-width="2" stroke-linecap="round" stroke-linejoin="round"/>
<path d="M1377.74 229.173L1381.24 221.113" stroke="white" stroke-width="2" stroke-linecap="round" stroke-linejoin="round"/>
<path d="M1382.11 228.674L1376.87 221.618" stroke="white" stroke-width="2" stroke-linecap="round" stroke-linejoin="round"/>
<path d="M1383.85 224.644L1375.13 225.648" stroke="white" stroke-width="2" stroke-linecap="round" stroke-linejoin="round"/>
<path d="M1119.68 28.5361L1108.82 29.9535C1108.66 29.9741 1108.51 30.0333 1108.38 30.1259C1108.25 30.2185 1108.14 30.3417 1108.07 30.4847C1108 30.6277 1107.96 30.7861 1107.97 30.9461C1107.97 31.1061 1108.01 31.2627 1108.09 31.4023L1129.6 70.0107L1136.26 66.6554L1119.68 28.5361Z" fill="#E88B3F"/>
<path d="M1141.38 14.9454C1141.38 14.9454 1118.49 26.4853 1108.76 27.1188L1131.27 68.0916C1131.27 68.0916 1158.7 62.0583 1161.19 59.6123C1162.27 58.5185 1163.18 57.269 1163.88 55.9057C1164.21 55.2801 1164.37 54.5802 1164.35 53.8738C1164.33 53.1673 1164.12 52.4782 1163.76 51.873L1141.38 14.9454Z" fill="white"/>
<path d="M1164.86 53.6981C1164.86 53.6981 1165.21 54.2939 1164.64 55.4291C1164.01 56.7211 1162.13 60.0388 1160.39 60.1956L1159.34 59.7754C1159.34 59.7754 1162.35 58.3893 1163.06 55.3037C1163.06 55.3037 1163.41 54.0493 1159.6 54.4883L1164.86 53.6981Z" fill="#E88B3F"/>
<path d="M1164.04 72.7828C1163.82 72.471 1163.67 72.1182 1163.6 71.7462C1163.52 71.3742 1163.53 70.9911 1163.61 70.6205C1163.69 70.25 1163.84 69.9 1164.06 69.5922C1164.29 69.2845 1164.57 69.0256 1164.89 68.8316C1163.82 65.8024 1165.68 65.0686 1165.68 65.0686C1165.37 64.3719 1165.22 63.6076 1165.26 62.8424C1165.31 62.0771 1165.54 61.3342 1165.94 60.6784C1152.96 57.1977 1144.61 61.1802 1144.61 61.1802L1148.75 76.9597C1152.01 75.1786 1157.47 74.7583 1162.71 74.8587C1162.78 74.4408 1162.93 74.0414 1163.16 73.6846C1163.39 73.3278 1163.69 73.021 1164.04 72.7828Z" fill="#FFD4A9"/>
<path d="M1181.92 75.7367C1183.92 74.7144 1185.97 71.9047 1185.97 71.9047C1184.63 70.2311 1184 68.0974 1184.22 65.9655C1181.41 65.8024 1177.37 64.178 1167.67 61.1614C1167.08 60.9795 1166.51 60.8164 1165.94 60.6659C1165.54 61.3217 1165.31 62.0646 1165.26 62.8298C1165.22 63.595 1165.37 64.3594 1165.68 65.0561C1165.68 65.0561 1163.8 65.7773 1164.89 68.8191C1164.57 69.013 1164.29 69.2719 1164.06 69.5797C1163.84 69.8874 1163.69 70.2374 1163.61 70.608C1163.53 70.9785 1163.52 71.3617 1163.6 71.7337C1163.67 72.1056 1163.82 72.4585 1164.04 72.7702C1163.68 73.0046 1163.38 73.3084 1163.15 73.663C1162.91 74.0177 1162.76 74.4159 1162.68 74.8336C1167.37 74.9151 1171.88 75.4169 1174.44 75.7242C1175.97 75.8871 1177.46 76.2585 1178.89 76.828C1179.41 76.1632 1180.35 76.5144 1181.92 75.7367Z" fill="white"/>
<path d="M1187.59 70.0985C1188.18 69.3582 1188.6 68.4959 1188.81 67.5741C1189.03 66.6522 1189.04 65.6936 1188.84 64.7676L1187.55 65.332C1187 65.5799 1186.42 65.763 1185.83 65.8777C1185.96 66.7808 1186.34 69.0198 1187.59 70.0985Z" fill="white"/>
<path d="M1196.08 65.2819C1193.64 63.0742 1191.79 63.5258 1188.87 64.7676C1189.07 65.6936 1189.06 66.6522 1188.84 67.5741C1188.63 68.496 1188.21 69.3582 1187.62 70.0985C1186.36 69.0198 1185.99 66.7808 1185.89 65.8777C1185.35 65.9683 1184.8 65.9978 1184.26 65.9655C1184.03 68.0974 1184.66 70.2311 1186 71.9047C1186 71.9047 1183.95 74.7145 1181.95 75.7367C1180.38 76.5395 1179.44 76.1632 1178.92 76.8406C1181.18 77.7625 1182.3 78.929 1183.48 79.4496C1185.25 80.2273 1198.86 67.7968 1196.08 65.2819Z" fill="#239AAB"/>
<path d="M1182.56 79.2552C1182.51 79.2582 1182.46 79.2455 1182.41 79.2187C1182.37 79.1919 1182.33 79.1523 1182.3 79.1047C1182.29 79.0726 1182.28 79.0374 1182.27 79.0011C1182.27 78.9647 1182.27 78.928 1182.28 78.893C1182.29 78.858 1182.31 78.8254 1182.33 78.7971C1182.36 78.7689 1182.39 78.7455 1182.42 78.7284C1182.51 78.6782 1191.61 73.7989 1195.01 66.0283C1195.02 65.9908 1195.04 65.9562 1195.06 65.9269C1195.09 65.8976 1195.12 65.8741 1195.16 65.858C1195.19 65.8418 1195.23 65.8334 1195.27 65.8333C1195.31 65.8331 1195.35 65.8412 1195.39 65.8571C1195.42 65.8729 1195.46 65.8961 1195.48 65.9253C1195.51 65.9544 1195.53 65.9888 1195.54 66.0262C1195.55 66.0636 1195.56 66.1032 1195.55 66.1424C1195.55 66.1817 1195.54 66.2197 1195.52 66.254C1192.04 74.2065 1182.77 79.1737 1182.68 79.2239C1182.64 79.243 1182.6 79.2537 1182.56 79.2552V79.2552Z" fill="#82C1CC"/>
<path d="M1160.53 91.2466C1160.34 90.9195 1160.22 90.5565 1160.17 90.1802C1160.13 89.8039 1160.16 89.4223 1160.27 89.0592C1160.38 88.6962 1160.56 88.3594 1160.8 88.07C1161.05 87.7806 1161.35 87.5447 1161.69 87.377C1160.86 84.2725 1162.77 83.6955 1162.77 83.6955C1162.51 82.9688 1162.43 82.1876 1162.54 81.4215C1162.65 80.6554 1162.94 79.9284 1163.4 79.3053C1150.73 74.8211 1142.08 78.1388 1142.08 78.1388L1144.97 94.1943C1148.36 92.6703 1153.84 92.6828 1159.05 93.1845C1159.15 92.779 1159.34 92.3986 1159.59 92.0658C1159.85 91.733 1160.17 91.4544 1160.53 91.2466V91.2466Z" fill="#FFD4A9"/>
<path d="M1178.12 95.5866C1180.2 94.7211 1182.46 92.087 1182.46 92.087C1181.26 90.3108 1180.81 88.1344 1181.21 86.0286C1178.42 85.6397 1174.51 83.708 1165.08 79.945C1164.51 79.7193 1163.94 79.5123 1163.39 79.3179C1162.93 79.9409 1162.63 80.668 1162.52 81.434C1162.41 82.2001 1162.5 82.9814 1162.76 83.708C1162.76 83.708 1160.88 84.285 1161.68 87.3895C1161.34 87.5572 1161.04 87.7931 1160.79 88.0825C1160.55 88.372 1160.36 88.7087 1160.25 89.0718C1160.15 89.4348 1160.11 89.8164 1160.16 90.1928C1160.2 90.5691 1160.33 90.9321 1160.52 91.2591C1160.15 91.4651 1159.82 91.7442 1159.56 92.0795C1159.3 92.4147 1159.11 92.7992 1159.01 93.2096C1163.68 93.6612 1168.13 94.5079 1170.66 95.0159C1172.17 95.2997 1173.63 95.787 1175.01 96.4646C1175.59 95.8186 1176.5 96.2639 1178.12 95.5866Z" fill="white"/>
<path d="M1184.22 90.4062C1184.87 89.7179 1185.36 88.893 1185.65 87.9915C1185.95 87.0899 1186.03 86.1344 1185.91 85.1945L1184.59 85.6523C1184.02 85.8617 1183.43 85.9986 1182.83 86.06C1182.86 86.9756 1183.05 89.2334 1184.22 90.4062Z" fill="white"/>
<path d="M1193.05 86.2669C1190.8 83.8774 1188.91 84.1785 1185.9 85.1945C1186.03 86.1344 1185.94 87.09 1185.65 87.9915C1185.35 88.893 1184.86 89.718 1184.21 90.4062C1183.05 89.2334 1182.85 86.9756 1182.82 86.06C1182.27 86.1145 1181.72 86.104 1181.18 86.0286C1180.79 88.1345 1181.24 90.3108 1182.44 92.0871C1182.44 92.0871 1180.18 94.7212 1178.1 95.5867C1176.47 96.264 1175.59 95.8187 1175 96.4521C1177.17 97.5497 1178.2 98.7978 1179.34 99.4061C1181.09 100.347 1195.63 88.9889 1193.05 86.2669Z" fill="#239AAB"/>
<path d="M1178.51 99.1427C1178.45 99.1453 1178.4 99.1305 1178.35 99.1001C1178.3 99.0698 1178.27 99.0254 1178.25 98.9733C1178.23 98.94 1178.23 98.9041 1178.22 98.8677C1178.22 98.8314 1178.23 98.7952 1178.24 98.7614C1178.26 98.7276 1178.28 98.6968 1178.3 98.6708C1178.33 98.6447 1178.36 98.6239 1178.39 98.6096C1178.49 98.5657 1187.94 94.4138 1191.93 86.9317C1191.97 86.8666 1192.03 86.8177 1192.1 86.7954C1192.17 86.7731 1192.24 86.7793 1192.31 86.8125C1192.37 86.8484 1192.42 86.9084 1192.45 86.9798C1192.47 87.0511 1192.46 87.1283 1192.43 87.1951C1188.33 94.8466 1178.71 99.0799 1178.63 99.1113C1178.59 99.1312 1178.55 99.142 1178.51 99.1427V99.1427Z" fill="#82C1CC"/>
<path d="M1105.72 74.7458L1113.87 79.7632C1113.87 79.7632 1127.1 67.2888 1144.94 59.7816C1144.94 59.7816 1149.17 63.3126 1148.54 66.9439C1148.54 66.9439 1152.48 69.7661 1150.7 75.8057C1151.73 76.901 1152.45 78.2514 1152.78 79.717C1153.11 81.1825 1153.04 82.7099 1152.58 84.1408C1153.47 85.176 1154.01 86.4616 1154.13 87.8184C1154.25 89.1753 1153.94 90.5359 1153.25 91.7107C1153.25 91.7107 1152 96.4521 1143.58 101.789C1135.91 106.662 1111.45 114.188 1101.12 105.703C1088.66 95.4674 1079.02 79.1485 1079.02 79.1485L1080.84 76.0942L1105.72 74.7458Z" fill="#239AAB"/>
<path d="M1113.12 9.15044L1135.25 57.4988C1135.42 57.8769 1135.72 58.1867 1136.09 58.3797C1136.45 58.5726 1136.88 58.6378 1137.29 58.565L1164.88 53.6982L1145.28 10.9128C1144.98 10.2421 1144.49 9.66616 1143.89 9.2448C1143.28 8.82345 1142.58 8.57213 1141.84 8.51701L1114.96 6.49753C1114.63 6.47506 1114.31 6.53727 1114.02 6.67805C1113.72 6.81884 1113.47 7.03339 1113.28 7.30073C1113.1 7.56807 1112.99 7.87905 1112.96 8.20327C1112.93 8.52748 1112.98 8.85385 1113.12 9.15044V9.15044Z" fill="#E88B3F"/>
<path d="M1107.66 62.2714C1107.66 62.2714 1119.31 55.3726 1123.43 48.1978C1123.43 48.1978 1124.36 46.8243 1123.9 43.5254C1123.45 40.2265 1123.82 37.4293 1125.95 35.7485C1128.08 34.0677 1128.65 34.2245 1129.08 34.8642C1129.52 35.5039 1128.09 36.8272 1127.38 37.7617C1127.38 37.7617 1129.1 35.9429 1129.89 36.0621C1130.07 36.0751 1130.24 36.1352 1130.39 36.2363C1130.53 36.3373 1130.65 36.4755 1130.72 36.6367C1130.8 36.7978 1130.83 36.976 1130.81 37.1529C1130.79 37.3297 1130.73 37.4988 1130.63 37.6425C1130.09 38.4423 1129.49 39.1974 1128.83 39.9003C1128.83 39.9003 1130.71 37.8683 1131.57 38.0188C1131.75 38.0341 1131.93 38.1008 1132.09 38.2115C1132.24 38.3223 1132.36 38.4728 1132.43 38.6466C1132.5 38.8203 1132.52 39.0106 1132.49 39.1964C1132.46 39.3822 1132.38 39.5563 1132.26 39.6997C1131.69 40.4736 1131.08 41.2129 1130.42 41.9136C1131.14 41.3017 1131.93 40.7717 1132.77 40.3331C1133.49 40.0948 1134.31 41.2864 1133.74 41.97C1133.18 42.6536 1132.06 43.3247 1132.03 44.4787C1132 45.6327 1135.96 48.9378 1133.29 52.4374C1133.29 52.4374 1125.55 68.4553 1112.65 73.8301L1107.66 62.2714Z" fill="#FFD4A9"/>
<path d="M1076.55 72.3438C1076.55 72.3438 1079 67.3265 1081.8 61.6443L1074.84 61.2743C1074.84 61.2743 1069.3 71.8985 1070.71 76.3263C1072.49 76.7277 1076.55 72.3438 1076.55 72.3438Z" fill="#FF1E23"/>
<path d="M1074.84 61.2742L1081.8 61.6442C1085.37 54.4381 1089.51 46.2096 1089.9 46.0529C1089.9 46.0529 1084.26 46.68 1077.36 51.296L1073.54 50.4618C1073.22 50.3874 1072.89 50.3774 1072.56 50.4323C1072.24 50.4872 1071.93 50.606 1071.65 50.7817C1070.04 51.8103 1066.84 54.5447 1066.1 60.4902C1066.05 60.895 1066.11 61.3046 1066.25 61.6838C1066.4 62.063 1066.64 62.4002 1066.95 62.6665L1069.16 64.548C1069.16 64.548 1068.82 74.313 1070.17 75.9938C1070.29 76.1453 1070.46 76.2514 1070.65 76.2949C1069.3 71.8984 1074.84 61.2742 1074.84 61.2742Z" fill="#FF743E"/>
<path d="M1076.82 58.0067C1076.82 58.0067 1082.91 49.7846 1089.67 46.0906C1089.77 46.0319 1089.9 46.009 1090.02 46.025C1090.14 46.041 1090.26 46.0951 1090.35 46.1797C1090.44 46.2643 1090.5 46.375 1090.52 46.4964C1090.55 46.6177 1090.53 46.7434 1090.48 46.8557C1089.4 49.1605 1088.12 51.3679 1086.66 53.4535C1083.92 57.2918 1075.45 64.9997 1075.45 64.9997L1076.82 58.0067Z" fill="#FF9027"/>
<path d="M1075.08 66.185C1075.72 67.7581 1076.82 69.1041 1078.24 70.0527C1079.65 71.0013 1081.31 71.5099 1083.01 71.5142C1084.71 71.5185 1086.37 71.0182 1087.79 70.0767C1089.21 69.1353 1090.31 67.7949 1090.97 66.225C1091.62 64.6552 1091.8 62.9265 1091.47 61.2576C1091.14 59.5887 1090.32 58.0546 1089.12 56.8492C1087.92 55.6439 1086.39 54.8215 1084.73 54.4861C1083.06 54.1507 1081.33 54.3174 1079.76 54.965" fill="#FFD4A9"/>
<path d="M1084.55 70.3117C1084.55 70.3117 1085.68 67.6651 1092.39 65.7459C1099.1 63.8268 1102.03 57.4422 1106.67 61.7822C1106.67 61.7822 1107.93 60.2331 1109.33 61.1551C1110.74 62.077 1109.96 64.686 1109.96 64.686C1109.96 64.686 1112.84 64.7864 1111.37 68.5995C1111.37 68.5995 1115.92 69.9668 1113.25 72.3249C1113.25 72.3249 1116.82 75.5736 1112.43 75.4294C1112.43 75.4294 1113.06 78.2077 1108.41 79.7192C1104.29 81.0614 1098.12 82.761 1091.15 80.9736C1084.17 79.1861 1084.55 70.3117 1084.55 70.3117Z" fill="white"/>
<path d="M1081.85 62.6416C1081.85 62.6416 1084.5 60.2207 1083.23 55.7427C1083.23 55.7427 1088.13 58.7092 1089.37 55.5483C1090.61 52.3874 1085.99 51.3463 1082.53 52.6633C1079.07 53.9804 1073.36 61.3998 1073.92 66.1788C1074.49 70.9578 1076.43 83.2126 1084.29 79.7005C1092.15 76.1884 1087.24 68.5495 1081.05 66.323L1081.85 62.6416Z" fill="black"/>
<path d="M1086.74 60.9105C1087.11 60.9105 1087.41 60.6129 1087.41 60.2457C1087.41 59.8786 1087.11 59.5809 1086.74 59.5809C1086.38 59.5809 1086.08 59.8786 1086.08 60.2457C1086.08 60.6129 1086.38 60.9105 1086.74 60.9105Z" fill="black"/>
<path d="M1090.78 60.6095C1090.71 60.6109 1090.64 60.5887 1090.59 60.5467C1090.53 60.4991 1090.5 60.4309 1090.49 60.3569C1090.48 60.2829 1090.5 60.2092 1090.55 60.1516C1090.76 59.8882 1090.81 59.6185 1090.66 59.4304C1090.59 59.3366 1090.49 59.2721 1090.37 59.249C1090.26 59.2259 1090.14 59.2458 1090.04 59.305C1089.92 59.3721 1089.79 59.4153 1089.65 59.4321C1089.52 59.4489 1089.38 59.439 1089.25 59.4029C1089.12 59.3668 1089 59.3052 1088.89 59.2217C1088.78 59.1381 1088.69 59.0343 1088.62 58.9161C1088.59 58.8495 1088.59 58.7726 1088.61 58.7022C1088.63 58.6318 1088.68 58.5734 1088.75 58.5398C1088.82 58.5068 1088.89 58.5009 1088.96 58.5232C1089.03 58.5455 1089.09 58.5943 1089.12 58.659C1089.16 58.7405 1089.35 58.9914 1089.81 58.7907C1090.02 58.6969 1090.26 58.6756 1090.49 58.73C1090.71 58.7843 1090.92 58.9114 1091.06 59.0917C1091.21 59.3053 1091.28 59.5641 1091.26 59.8232C1091.24 60.0822 1091.12 60.325 1090.94 60.5091C1090.9 60.5591 1090.84 60.5942 1090.78 60.6095V60.6095Z" fill="black"/>
<path d="M1083.38 62.9362C1083 62.4503 1082.47 62.1072 1081.87 61.963C1081.27 61.8188 1080.64 61.8819 1080.08 62.1421C1079.52 62.4023 1079.07 62.8442 1078.79 63.3958C1078.52 63.9473 1078.43 64.576 1078.56 65.1793C1078.69 65.7827 1079.02 66.325 1079.49 66.718C1079.97 67.1109 1080.56 67.3313 1081.18 67.3432C1081.8 67.3551 1082.4 67.1578 1082.89 66.7834C1083.38 66.4091 1083.73 65.8798 1083.88 65.2818C1083.98 64.8789 1083.99 64.4582 1083.9 64.0517C1083.81 63.6452 1083.64 63.2637 1083.38 62.9362V62.9362Z" fill="#FFD4A9"/>
<path d="M1080.34 65.5955C1080.3 65.5989 1080.25 65.5909 1080.21 65.5722C1080.17 65.5536 1080.13 65.5249 1080.11 65.4889C1079.99 65.3451 1079.91 65.1801 1079.86 65.0035C1079.81 64.827 1079.8 64.6423 1079.82 64.4603C1079.87 64.0911 1080.06 63.7556 1080.35 63.5259C1080.65 63.2995 1081.02 63.1983 1081.38 63.2441C1081.75 63.2899 1082.09 63.4791 1082.32 63.7704C1082.36 63.8298 1082.37 63.9023 1082.36 63.9731C1082.35 64.0439 1082.31 64.1077 1082.25 64.1516C1082.2 64.1955 1082.13 64.2162 1082.06 64.2095C1081.98 64.2027 1081.92 64.1691 1081.87 64.1154C1081.73 63.9395 1081.53 63.8246 1081.31 63.7955C1081.2 63.7813 1081.09 63.7894 1080.98 63.8196C1080.87 63.8498 1080.77 63.9013 1080.68 63.9711C1080.6 64.0382 1080.52 64.1222 1080.47 64.2182C1080.42 64.3141 1080.38 64.4199 1080.37 64.5293C1080.36 64.6399 1080.36 64.7524 1080.39 64.8602C1080.42 64.968 1080.47 65.0688 1080.54 65.1565C1080.56 65.1853 1080.58 65.2182 1080.59 65.2533C1080.6 65.2885 1080.6 65.3252 1080.6 65.3614C1080.59 65.3975 1080.58 65.4324 1080.56 65.464C1080.54 65.4956 1080.52 65.5232 1080.49 65.5453C1080.45 65.5788 1080.39 65.5965 1080.34 65.5955Z" fill="black"/>
<path d="M1089.51 63.7578C1089.36 63.7638 1089.21 63.7511 1089.07 63.7202C1088.48 63.5338 1087.97 63.1337 1087.66 62.5976C1087.64 62.5665 1087.63 62.5319 1087.62 62.4959C1087.62 62.4598 1087.62 62.4232 1087.63 62.388C1087.64 62.3528 1087.65 62.3199 1087.68 62.2913C1087.7 62.2626 1087.73 62.2388 1087.76 62.2213C1087.79 62.2022 1087.83 62.1897 1087.86 62.1845C1087.9 62.1792 1087.94 62.1813 1087.97 62.1907C1088.01 62.2 1088.04 62.2164 1088.07 62.2389C1088.1 62.2614 1088.12 62.2895 1088.14 62.3216C1088.38 62.7254 1088.76 63.0287 1089.2 63.1745C1089.39 63.2078 1089.58 63.2015 1089.76 63.1561C1089.94 63.1107 1090.11 63.0272 1090.26 62.9111C1090.29 62.89 1090.33 62.8752 1090.36 62.8675C1090.4 62.8598 1090.44 62.8595 1090.47 62.8665C1090.51 62.8735 1090.54 62.8878 1090.57 62.9084C1090.6 62.929 1090.63 62.9555 1090.65 62.9864C1090.67 63.0158 1090.69 63.0492 1090.69 63.0846C1090.7 63.12 1090.7 63.1566 1090.7 63.1924C1090.69 63.2281 1090.68 63.2621 1090.66 63.2925C1090.64 63.3228 1090.61 63.3488 1090.58 63.369C1090.27 63.5986 1089.9 63.7336 1089.51 63.7578V63.7578Z" fill="black"/>
<path d="M1103.78 96.5837C1103.78 96.5837 1105.67 97.744 1103.94 101.331L1091.34 129.071C1091.34 129.071 1090.32 131.241 1088.96 129.905L1080.6 120.052L1103.78 96.5837Z" fill="#008348"/>
<path d="M1102.28 97.4869L1089.42 127.503C1089.42 127.503 1082.97 128.13 1080.06 134.364L1078.11 108.688C1078.11 108.688 1084.05 96.3078 1102.28 97.4869Z" fill="#CCCCCC"/>
<path d="M1029.72 42.6473C1029.72 42.6473 1023.55 46.0403 1022.94 58.477C1022.32 70.9138 1023.8 80.1206 1029.33 88.7943C1034.19 96.4144 1070.1 129.228 1078.48 136.967C1078.68 137.155 1078.93 137.291 1079.2 137.362C1079.47 137.434 1079.76 137.439 1080.03 137.378C1080.3 137.316 1080.56 137.19 1080.77 137.009C1080.98 136.828 1081.15 136.599 1081.26 136.34L1089.13 114.69L1050.83 79.5687L1029.72 42.6473Z" fill="#2A7C55"/>
<path d="M1091.59 102.147C1092.94 100.662 1094.59 99.4791 1096.44 98.6761C1098.28 97.8732 1100.27 97.468 1102.28 97.4869L1044.26 44.4536C1043.22 43.5093 1042.01 42.7781 1040.7 42.3015C1039.38 41.825 1037.98 41.6126 1036.58 41.6763C1035.18 41.7401 1033.81 42.0788 1032.54 42.6732C1031.27 43.2676 1030.14 44.1059 1029.19 45.1403C1028.25 46.1748 1027.52 47.3851 1027.04 48.7022C1026.56 50.0192 1026.35 51.4173 1026.41 52.8164C1026.48 54.2156 1026.82 55.5885 1027.41 56.8567C1028.01 58.125 1028.84 59.2638 1029.88 60.208L1087.9 113.241C1087.7 111.237 1087.92 109.212 1088.56 107.301C1089.19 105.389 1090.22 103.633 1091.59 102.147V102.147Z" fill="white"/>
<path d="M1087.16 114.772L1028.74 61.4122C1027.54 60.3209 1026.57 59.0051 1025.89 57.5399C1025.2 56.0747 1024.81 54.4887 1024.74 52.8726C1024.67 51.2565 1024.91 49.6419 1025.46 48.121C1026.02 46.6 1026.86 45.2025 1027.95 44.0083C1029.04 42.8141 1030.36 41.8465 1031.83 41.1608C1033.29 40.4751 1034.88 40.0847 1036.49 40.0119C1038.11 39.9391 1039.72 40.1853 1041.24 40.7365C1042.76 41.2877 1044.16 42.1331 1045.36 43.2244L1103.78 96.5838C1103.92 96.7073 1104.03 96.8562 1104.11 97.0221C1104.18 97.1879 1104.23 97.3674 1104.24 97.5502C1104.24 97.7331 1104.22 97.9158 1104.15 98.0878C1104.09 98.2599 1103.99 98.418 1103.87 98.5531C1103.75 98.6881 1103.6 98.7976 1103.43 98.8751C1103.27 98.9526 1103.09 98.9967 1102.9 99.0048C1102.72 99.013 1102.54 98.985 1102.37 98.9226C1102.2 98.8601 1102.04 98.7644 1101.9 98.6409L1043.49 45.2626C1042.57 44.409 1041.49 43.7461 1040.31 43.3121C1039.13 42.878 1037.88 42.6814 1036.63 42.7335C1035.37 42.7856 1034.14 43.0854 1033 43.6157C1031.86 44.146 1030.84 44.8963 1029.99 45.8233C1029.14 46.7504 1028.49 47.836 1028.06 49.0176C1027.63 50.1992 1027.44 51.4535 1027.5 52.7082C1027.56 53.963 1027.87 55.1935 1028.41 56.3288C1028.95 57.4642 1029.7 58.482 1030.64 59.3237L1089.05 112.708C1089.18 112.832 1089.29 112.981 1089.37 113.147C1089.44 113.312 1089.49 113.492 1089.5 113.675C1089.51 113.858 1089.48 114.04 1089.41 114.212C1089.35 114.384 1089.26 114.542 1089.13 114.678C1089.01 114.813 1088.86 114.922 1088.69 115C1088.53 115.077 1088.35 115.121 1088.17 115.129C1087.98 115.137 1087.8 115.11 1087.63 115.047C1087.46 114.985 1087.3 114.889 1087.16 114.765V114.772Z" fill="#009953"/>
<g opacity="0.5">
<path d="M1100.78 100.853L1041.62 46.775C1041.39 46.5671 1041.04 46.5819 1040.83 46.8081C1040.63 47.0344 1040.64 47.3864 1040.87 47.5944L1100.03 101.672C1100.26 101.88 1100.61 101.865 1100.82 101.639C1101.03 101.413 1101.01 101.061 1100.78 100.853Z" fill="#CCCCCC"/>
<path d="M1097.31 102.191L1038.15 48.1137C1037.92 47.9057 1037.57 47.9205 1037.36 48.1467C1037.16 48.373 1037.17 48.725 1037.4 48.933L1096.56 103.011C1096.79 103.219 1097.14 103.204 1097.35 102.978C1097.55 102.751 1097.54 102.399 1097.31 102.191Z" fill="#CCCCCC"/>
<path d="M1093.97 103.644L1034.81 49.5664C1034.58 49.3584 1034.23 49.3732 1034.02 49.5995C1033.81 49.8258 1033.83 50.1778 1034.06 50.3858L1093.22 104.463C1093.44 104.671 1093.8 104.657 1094 104.43C1094.21 104.204 1094.19 103.852 1093.97 103.644Z" fill="#CCCCCC"/>
<path d="M1092.81 107.108L1033.65 53.0301C1033.42 52.8221 1033.07 52.837 1032.86 53.0632C1032.66 53.2895 1032.67 53.6415 1032.9 53.8495L1092.06 107.927C1092.29 108.135 1092.64 108.12 1092.85 107.894C1093.06 107.668 1093.04 107.316 1092.81 107.108Z" fill="#CCCCCC"/>
<path d="M1091.8 110.69L1032.64 56.6121C1032.41 56.4042 1032.06 56.419 1031.85 56.6453C1031.64 56.8715 1031.66 57.2235 1031.89 57.4315L1091.05 111.509C1091.27 111.717 1091.63 111.702 1091.83 111.476C1092.04 111.25 1092.02 110.898 1091.8 110.69Z" fill="#CCCCCC"/>
</g>
<path d="M1111.84 74.1814C1111.77 74.1848 1111.7 74.1598 1111.65 74.1117C1111.59 74.0636 1111.56 73.9963 1111.55 73.9242C1111.34 72.184 1110.52 70.5771 1109.22 69.3961C1108.93 70.0552 1108.52 70.6549 1108.02 71.1647C1106.44 72.7953 1105.45 72.5194 1104.99 72.2121C1104.19 71.6727 1103.95 70.2365 1104.47 69.0762C1104.7 68.5341 1105.12 68.0982 1105.66 67.8572C1106.2 67.6161 1106.8 67.5878 1107.36 67.778C1107.92 67.9199 1108.46 68.1574 1108.94 68.4804C1109.21 67.2824 1109.06 66.03 1108.51 64.9306C1108.01 63.8389 1107.32 62.8403 1106.48 61.9767C1106.44 61.923 1106.42 61.8561 1106.42 61.7882C1106.42 61.7203 1106.45 61.656 1106.5 61.6072C1106.55 61.5584 1106.61 61.5283 1106.68 61.5224C1106.75 61.5166 1106.81 61.5353 1106.87 61.5753C1106.91 61.6192 1110.5 65.1627 1109.43 68.8254C1110.94 70.1013 1111.9 71.9123 1112.11 73.8803C1112.11 73.9166 1112.11 73.953 1112.1 73.9874C1112.09 74.0219 1112.07 74.0537 1112.04 74.0811C1112.02 74.1085 1111.99 74.1309 1111.96 74.1471C1111.93 74.1632 1111.89 74.1727 1111.86 74.1751L1111.84 74.1814ZM1106.51 68.2358C1106.18 68.2483 1105.86 68.3564 1105.59 68.5469C1105.32 68.7374 1105.11 69.0019 1104.99 69.3083C1104.59 70.1988 1104.75 71.3654 1105.32 71.7542C1105.89 72.1431 1106.69 71.7542 1107.63 70.7758C1108.12 70.2781 1108.51 69.6878 1108.78 69.0386C1108.31 68.7072 1107.79 68.4648 1107.23 68.3236C1107 68.2606 1106.75 68.231 1106.51 68.2358Z" fill="#82C1CC"/>
<path d="M1103.41 93.4479C1103.37 93.4593 1103.32 93.4593 1103.28 93.4479C1103.25 93.4319 1103.22 93.4096 1103.2 93.3823C1103.17 93.355 1103.15 93.3233 1103.14 93.2889C1103.13 93.2545 1103.13 93.2182 1103.13 93.182C1103.13 93.1458 1103.14 93.1104 1103.16 93.0779C1106.21 86.8877 1113.62 79.6628 1113.7 79.5938C1113.72 79.5674 1113.76 79.5465 1113.79 79.5322C1113.82 79.5179 1113.86 79.5105 1113.9 79.5105C1113.93 79.5105 1113.97 79.5179 1114 79.5322C1114.04 79.5465 1114.07 79.5674 1114.09 79.5938C1114.15 79.6465 1114.17 79.7175 1114.17 79.7913C1114.17 79.8652 1114.15 79.9361 1114.09 79.9889C1114.02 80.0579 1106.67 87.2139 1103.66 93.3162C1103.64 93.3575 1103.6 93.3912 1103.56 93.4142C1103.51 93.4372 1103.46 93.4488 1103.41 93.4479V93.4479Z" fill="#006582"/>
<path d="M1107.41 88.9637C1107.1 88.9845 1106.78 88.9719 1106.46 88.9261C1106.39 88.9109 1106.33 88.8684 1106.29 88.8075C1106.24 88.7466 1106.23 88.6722 1106.24 88.6C1106.25 88.564 1106.26 88.5298 1106.28 88.4992C1106.3 88.4686 1106.33 88.4424 1106.36 88.422C1106.39 88.4015 1106.42 88.3873 1106.46 88.3802C1106.5 88.3731 1106.53 88.3732 1106.57 88.3805V88.3805C1106.6 88.3805 1109.44 88.8571 1115.57 85.8279C1124.82 81.2621 1136.85 78.2329 1144.82 76.2322C1146.15 75.8935 1147.38 75.6051 1148.46 75.304C1148.53 75.2863 1148.61 75.2966 1148.67 75.3327C1148.74 75.3688 1148.79 75.4281 1148.81 75.4984C1148.83 75.5708 1148.82 75.6478 1148.78 75.7125C1148.74 75.7771 1148.68 75.8242 1148.61 75.8434C1147.52 76.1256 1146.29 76.4329 1144.96 76.7716C1137.02 78.766 1125.01 81.7889 1115.82 86.3296C1111.47 88.4808 1108.73 88.9135 1107.41 88.9637Z" fill="#006582"/>
<path d="M1115.01 86.7372H1114.92C1112.28 85.9282 1108.18 86.7372 1108.14 86.7372C1108.07 86.7504 1107.99 86.7349 1107.93 86.6941C1107.87 86.6532 1107.83 86.59 1107.81 86.5177C1107.79 86.4446 1107.81 86.3685 1107.85 86.3062C1107.89 86.2439 1107.96 86.2004 1108.03 86.1853C1108.2 86.154 1112.31 85.3261 1115.08 86.1853C1115.11 86.1954 1115.15 86.2124 1115.18 86.2352C1115.2 86.2581 1115.23 86.2864 1115.24 86.3185C1115.26 86.3505 1115.27 86.3858 1115.28 86.4222C1115.28 86.4585 1115.28 86.4953 1115.27 86.5303C1115.25 86.5869 1115.22 86.6372 1115.17 86.6742C1115.12 86.7112 1115.07 86.7332 1115.01 86.7372Z" fill="#006582"/>
<path d="M1200.14 8.47934C1201.77 9.79493 1203.06 11.4889 1203.9 13.4151C1203.9 13.4151 1192.48 20.2136 1189.41 25.5634C1189.41 25.5634 1184.72 10.5741 1185.32 10.5114C1185.92 10.4486 1191.29 2.4648 1200.14 8.47934Z" fill="#B3B3B3"/>
<path d="M1200.14 8.47926C1200.14 8.47926 1193.09 3.61871 1189.4 10.2855C1185.7 16.9523 1193.73 31.0385 1193.73 31.0385L1172.74 52.9266C1172.74 52.9266 1167.55 40.0509 1171.88 25.3313C1176.2 10.6116 1191.76 1.57415 1200.14 8.47926Z" fill="white"/>
<path d="M1130.83 107.045C1129.17 107.801 1127.67 108.865 1126.4 110.181C1126.4 110.181 1117.37 119.538 1113.65 122.981C1109.92 126.424 1112.91 127.516 1112.91 127.516C1112.91 127.516 1099.15 146.155 1089.15 154.484C1081.95 160.467 1079.15 162.637 1078.15 163.339C1077.94 163.492 1077.78 163.715 1077.71 163.969C1077.64 164.224 1077.66 164.496 1077.76 164.738C1077.94 165.133 1078.39 165.428 1079.27 165.171L1094.36 157.118L1134.81 113.843L1130.83 107.045Z" fill="#754C24"/>
<path d="M1095.79 164.18C1095.79 164.18 1088.35 168.57 1084.13 170C1083.96 169.989 1083.8 169.944 1083.65 169.867C1083.5 169.791 1083.36 169.684 1083.25 169.554C1083.14 169.424 1083.06 169.273 1083.01 169.11C1082.96 168.947 1082.95 168.776 1082.97 168.608C1082.97 168.608 1081.78 168.796 1081.32 167.272C1081.32 167.272 1079.6 167.623 1079.27 165.152L1089.45 156.754L1095.79 164.18Z" fill="#B3B3B3"/>
<path d="M1207.07 128.306C1207.07 128.306 1198.35 141.784 1160.41 153.788C1160.41 153.788 1142.34 152.257 1128.06 134.277L1139.39 108.839C1139.39 108.839 1173.3 125.948 1207.07 128.306Z" fill="#B3B3B3"/>
<path d="M1145.68 102.692C1145.53 102.618 1145.38 102.567 1145.21 102.542C1143.33 102.197 1135.4 105.747 1131.45 107.559C1131.45 107.559 1129.65 108.356 1129.93 109.742C1132.32 109.478 1140.07 108.186 1145.68 102.692Z" fill="#B3B3B3"/>
<path d="M1207.88 117.907C1207.88 117.907 1184.05 120.153 1170.59 116.615C1157.13 113.078 1147.48 106.982 1146.06 105.295C1146.06 105.295 1146.9 103.32 1145.68 102.692C1140.07 108.186 1132.32 109.478 1129.93 109.754C1130.16 110.504 1130.66 111.144 1131.33 111.554C1131.33 111.554 1116.21 137.732 1087.75 157.613C1087.94 158.232 1088.27 158.799 1088.71 159.269C1089.16 159.739 1089.7 160.1 1090.31 160.323C1090.41 160.967 1090.75 161.553 1091.25 161.973C1091.75 162.392 1092.38 162.617 1093.03 162.606C1093.03 162.606 1093.58 164.274 1095.79 164.18C1095.79 164.18 1127.89 150.288 1140.73 111.122C1140.73 111.122 1169.07 132.978 1207.07 128.306C1207.07 128.306 1208.32 127.309 1207.21 125.302C1207.63 124.83 1207.89 124.237 1207.95 123.609C1208.01 122.981 1207.86 122.351 1207.54 121.808C1207.54 121.808 1209.11 119.689 1207.88 117.907Z" fill="white"/>
<path d="M1209.22 118.071C1209.15 118.102 1209.08 118.123 1209.01 118.133C1186.13 121.539 1170.09 117.989 1160.66 114.408C1150.38 110.507 1145.6 105.834 1145.39 105.628C1145.26 105.5 1145.18 105.334 1145.15 105.154C1145.12 104.974 1145.15 104.79 1145.24 104.63C1145.72 103.752 1145.4 103.489 1145.24 103.376C1145.1 103.272 1144.93 103.211 1144.75 103.2C1144.58 103.189 1144.4 103.228 1144.25 103.313C1140.78 105.101 1134.12 107.622 1131.42 108.625C1131.23 108.695 1131.06 108.823 1130.95 108.993C1130.84 109.162 1130.78 109.363 1130.79 109.566C1130.79 109.768 1130.86 109.963 1130.98 110.123C1131.11 110.282 1131.28 110.397 1131.47 110.45H1131.54C1131.67 110.481 1131.79 110.542 1131.89 110.627C1131.99 110.713 1132.07 110.821 1132.13 110.943C1132.18 111.065 1132.2 111.198 1132.19 111.33C1132.18 111.462 1132.14 111.591 1132.08 111.705C1123.84 124.93 1113.73 136.895 1102.07 147.228C1093.4 154.854 1087.09 158.611 1087.01 158.648C1086.92 158.712 1086.81 158.755 1086.7 158.775C1086.59 158.796 1086.47 158.793 1086.36 158.767C1086.25 158.741 1086.14 158.693 1086.05 158.625C1085.96 158.557 1085.88 158.471 1085.82 158.372C1085.76 158.274 1085.73 158.164 1085.71 158.05C1085.7 157.937 1085.71 157.822 1085.74 157.712C1085.77 157.602 1085.83 157.5 1085.9 157.412C1085.97 157.324 1086.06 157.251 1086.17 157.199C1086.22 157.168 1092.44 153.474 1100.99 145.91C1112.27 135.912 1122.09 124.374 1130.15 111.636C1129.77 111.348 1129.48 110.964 1129.3 110.525C1129.13 110.086 1129.07 109.607 1129.14 109.139C1129.21 108.67 1129.4 108.229 1129.7 107.861C1130 107.493 1130.39 107.211 1130.83 107.045C1133.51 106.054 1140.1 103.564 1143.48 101.821C1143.92 101.586 1144.42 101.484 1144.92 101.527C1145.42 101.57 1145.89 101.757 1146.29 102.065C1146.69 102.382 1146.98 102.826 1147.11 103.325C1147.24 103.824 1147.19 104.352 1146.99 104.825C1148.36 106.016 1153.05 109.742 1161.36 112.884C1170.59 116.365 1186.31 119.82 1208.76 116.471C1208.98 116.439 1209.2 116.495 1209.38 116.628C1209.56 116.761 1209.68 116.96 1209.71 117.18C1209.74 117.362 1209.71 117.55 1209.62 117.711C1209.53 117.873 1209.39 118 1209.22 118.071V118.071Z" fill="#8C6239"/>
<path d="M1092.39 158.811C1092.34 158.826 1092.29 158.822 1092.24 158.801C1092.18 158.779 1092.14 158.741 1092.12 158.692C1092.1 158.664 1092.09 158.634 1092.09 158.602C1092.09 158.57 1092.09 158.538 1092.1 158.508C1092.11 158.478 1092.12 158.449 1092.14 158.425C1092.17 158.401 1092.19 158.381 1092.22 158.366C1092.28 158.335 1098.49 155.036 1106.82 147.648C1118.25 137.39 1127.79 125.2 1135 111.636C1135.03 111.581 1135.08 111.541 1135.14 111.523C1135.2 111.506 1135.27 111.512 1135.32 111.542C1135.35 111.556 1135.38 111.575 1135.4 111.599C1135.42 111.623 1135.43 111.65 1135.44 111.68C1135.45 111.71 1135.45 111.742 1135.45 111.773C1135.45 111.804 1135.44 111.834 1135.42 111.862C1128.19 125.478 1118.61 137.714 1107.13 148.011C1098.75 155.431 1092.51 158.755 1092.44 158.786L1092.39 158.811Z" fill="#B3B3B3"/>
<path d="M1094.91 161.414C1094.86 161.432 1094.8 161.429 1094.75 161.407C1094.7 161.385 1094.66 161.345 1094.63 161.295C1094.62 161.267 1094.61 161.237 1094.61 161.206C1094.6 161.175 1094.61 161.143 1094.61 161.114C1094.62 161.084 1094.64 161.056 1094.66 161.032C1094.68 161.008 1094.71 160.989 1094.73 160.975C1094.81 160.937 1102.47 156.886 1111.48 148.808C1119.78 141.363 1130.96 128.877 1137.07 111.661C1137.08 111.631 1137.1 111.604 1137.12 111.58C1137.14 111.557 1137.17 111.538 1137.2 111.524C1137.23 111.511 1137.26 111.503 1137.29 111.502C1137.32 111.501 1137.35 111.506 1137.38 111.517C1137.44 111.538 1137.49 111.581 1137.51 111.638C1137.54 111.694 1137.55 111.759 1137.52 111.818C1131.38 129.134 1120.14 141.696 1111.81 149.178C1106.67 153.863 1101.02 157.963 1094.98 161.401L1094.91 161.414Z" fill="#B3B3B3"/>
<path d="M1204.93 122.103H1204.88C1189.83 123.815 1174.59 121.903 1160.43 116.528C1150.03 112.514 1144.12 107.936 1144.07 107.892C1144.02 107.851 1143.99 107.793 1143.98 107.73C1143.97 107.667 1143.99 107.603 1144.03 107.553C1144.05 107.528 1144.07 107.506 1144.1 107.49C1144.12 107.474 1144.15 107.464 1144.19 107.46C1144.22 107.456 1144.25 107.458 1144.28 107.467C1144.31 107.475 1144.34 107.489 1144.36 107.509C1144.42 107.559 1150.28 112.1 1160.62 116.089C1174.71 121.43 1189.87 123.328 1204.83 121.627C1204.86 121.623 1204.9 121.626 1204.93 121.635C1204.96 121.644 1204.98 121.658 1205.01 121.678C1205.03 121.698 1205.05 121.723 1205.07 121.75C1205.08 121.778 1205.09 121.808 1205.1 121.84C1205.11 121.897 1205.09 121.956 1205.06 122.004C1205.03 122.053 1204.98 122.088 1204.93 122.103Z" fill="#B3B3B3"/>
<path d="M1205.25 125.778H1205.2C1189.51 127.076 1173.75 124.641 1159.19 118.673C1148.53 114.22 1142.54 109.322 1142.47 109.265C1142.43 109.22 1142.41 109.159 1142.41 109.096C1142.41 109.033 1142.43 108.972 1142.47 108.926C1142.5 108.904 1142.52 108.886 1142.55 108.874C1142.58 108.862 1142.61 108.856 1142.64 108.856C1142.67 108.856 1142.71 108.862 1142.73 108.874C1142.76 108.886 1142.79 108.904 1142.81 108.926C1142.87 108.97 1148.81 113.831 1159.43 118.259C1173.92 124.194 1189.6 126.617 1205.21 125.327C1205.24 125.323 1205.27 125.326 1205.3 125.336C1205.33 125.345 1205.36 125.36 1205.39 125.381C1205.41 125.402 1205.43 125.427 1205.44 125.455C1205.46 125.484 1205.46 125.515 1205.47 125.546C1205.46 125.605 1205.44 125.662 1205.4 125.705C1205.36 125.747 1205.31 125.774 1205.25 125.778V125.778Z" fill="#B3B3B3"/>
<path d="M1072.86 16.1621C1072.86 16.1621 1082.64 26.824 1091.45 29.7905" stroke="#82C1CC" stroke-width="2" stroke-linejoin="round"/>
<path d="M1081.75 0C1081.75 0 1088.65 12.7001 1096.46 17.7488" stroke="white" stroke-width="2" stroke-linejoin="round"/>
<path d="M1076.23 8.67371C1076.23 8.67371 1090.34 24.0142 1103.04 28.3229" stroke="#FFC147" stroke-width="2" stroke-linejoin="round"/>
<path d="M1453.9 63.3853C1450.28 64.0885 1446.88 65.6626 1444 67.9718C1444 67.9718 1456.21 87.8021 1456.64 98.6128C1456.64 98.6128 1476.09 79.128 1475.24 78.5075C1474.38 77.887 1472.51 61.2295 1453.9 63.3853Z" fill="#B3B3B3"/>
<path d="M1453.9 63.3852C1453.9 63.3852 1468.79 61.5621 1469.11 74.8996C1469.44 88.2371 1445.54 103.622 1445.54 103.622L1460.36 154.675C1460.36 154.675 1478.87 138.881 1484.1 112.52C1489.32 86.1581 1472.51 59.464 1453.9 63.3852Z" fill="white"/>
<path d="M1311.5 226.152L1321 220.419L1309.97 220.029L1314.35 209.686L1305.21 215.981L1302.79 205L1299.02 215.581L1290.74 208.143L1293.78 218.962L1282.8 217.914L1291.5 224.848L1282 230.581L1293.03 230.971L1288.65 241.314L1297.8 235.019L1300.22 246L1303.99 235.419L1312.27 242.857L1309.22 232.029L1320.21 233.086L1311.5 226.152Z" fill="#FFC147"/>
<ellipse cx="908.904" cy="430.861" rx="87.5414" ry="10.0268" fill="#EBEBEB"/>
<g clip-path="url(#clip1_1767_604)">
<path d="M784.864 350.092C784.864 350.092 779.399 352.122 778.399 351.73C777.399 351.339 776.079 347.067 773.615 348.194C771.15 349.32 771.903 352.767 773.241 356.057C774.579 359.347 775.591 365.697 780.206 364.667C784.822 363.637 789.727 362.733 789.727 362.733L784.864 350.092Z" fill="black"/>
<path d="M782.864 353.538C782.802 353.538 782.742 353.517 782.694 353.479C782.646 353.441 782.612 353.387 782.599 353.327L781.996 350.616C781.982 350.545 781.996 350.472 782.036 350.413C782.075 350.353 782.137 350.311 782.207 350.296C782.277 350.284 782.349 350.299 782.409 350.338C782.468 350.377 782.51 350.438 782.526 350.507L783.129 353.213C783.143 353.282 783.13 353.354 783.092 353.414C783.053 353.474 782.993 353.516 782.924 353.532L782.864 353.538Z" fill="#006582"/>
<path d="M781.207 354.141C781.145 354.141 781.085 354.12 781.037 354.082C780.989 354.043 780.955 353.99 780.942 353.93L780.339 351.224C780.325 351.188 780.32 351.149 780.322 351.11C780.325 351.071 780.336 351.033 780.355 350.999C780.373 350.965 780.399 350.935 780.43 350.912C780.461 350.888 780.497 350.872 780.535 350.864C780.573 350.855 780.612 350.855 780.65 350.864C780.689 350.872 780.724 350.888 780.755 350.912C780.787 350.935 780.812 350.965 780.831 350.999C780.85 351.033 780.861 351.071 780.863 351.11L781.466 353.815C781.48 353.886 781.466 353.959 781.426 354.018C781.387 354.078 781.325 354.12 781.255 354.135L781.207 354.141Z" fill="#006582"/>
<path d="M779.562 354.743C779.5 354.744 779.44 354.724 779.391 354.686C779.343 354.647 779.309 354.593 779.297 354.532L778.694 351.827C778.68 351.79 778.675 351.751 778.677 351.713C778.68 351.674 778.691 351.636 778.71 351.602C778.728 351.568 778.754 351.538 778.785 351.514C778.816 351.491 778.852 351.475 778.89 351.466C778.928 351.458 778.967 351.458 779.006 351.466C779.044 351.475 779.079 351.491 779.111 351.514C779.142 351.538 779.167 351.567 779.186 351.602C779.205 351.636 779.216 351.674 779.218 351.712L779.821 354.418C779.835 354.487 779.822 354.56 779.784 354.619C779.745 354.679 779.685 354.721 779.616 354.737L779.562 354.743Z" fill="#006582"/>
<path d="M777.923 364.227C777.876 364.227 777.829 364.215 777.788 364.192C777.747 364.168 777.712 364.135 777.688 364.095C774.253 358.322 772.301 349.567 772.265 349.477C772.251 349.408 772.264 349.335 772.302 349.276C772.341 349.216 772.401 349.173 772.47 349.158C772.54 349.143 772.613 349.156 772.674 349.194C772.734 349.233 772.778 349.293 772.795 349.363C772.795 349.447 774.753 358.123 778.14 363.824C778.158 363.854 778.171 363.888 778.176 363.923C778.182 363.958 778.181 363.994 778.172 364.029C778.164 364.064 778.149 364.097 778.128 364.125C778.106 364.154 778.08 364.179 778.049 364.197C778.01 364.216 777.967 364.227 777.923 364.227V364.227Z" fill="#006582"/>
<path d="M827.922 340.644C827.922 340.644 821.005 339.336 816.119 340.409C811.232 341.481 783.099 349.585 783.099 349.585L787.269 364.01L813.498 358.762L833.882 346.844L827.922 340.644Z" fill="#FFC147"/>
<path d="M819.366 328.514C819.366 328.514 817.312 328.966 813.021 327.912C808.731 326.857 811.768 327.201 811.768 327.201L811.413 334.528L824.464 338.999L819.366 328.514Z" fill="black"/>
<path d="M797.126 371.566C797.126 371.566 793.679 376.296 792.655 376.519C791.631 376.742 788.142 373.916 786.714 376.224C785.286 378.532 787.817 380.978 790.757 382.972C793.697 384.967 798.066 389.727 801.326 386.292C804.585 382.858 808.183 379.411 808.183 379.411L797.126 371.566Z" fill="black"/>
<path d="M797.228 375.597C797.193 375.598 797.159 375.592 797.126 375.579C797.094 375.565 797.065 375.545 797.042 375.519L795.053 373.591C795.022 373.568 794.996 373.539 794.976 373.505C794.957 373.471 794.946 373.433 794.942 373.395C794.939 373.356 794.944 373.317 794.957 373.281C794.97 373.244 794.991 373.211 795.018 373.183C795.045 373.155 795.077 373.133 795.114 373.119C795.15 373.105 795.189 373.099 795.227 373.101C795.266 373.103 795.304 373.113 795.338 373.131C795.373 373.149 795.403 373.174 795.427 373.205L797.415 375.133C797.44 375.158 797.461 375.187 797.474 375.22C797.488 375.253 797.495 375.288 797.495 375.323C797.495 375.358 797.488 375.393 797.474 375.426C797.461 375.459 797.44 375.488 797.415 375.513C797.366 375.563 797.299 375.593 797.228 375.597V375.597Z" fill="#006582"/>
<path d="M796.174 377.001C796.105 376.998 796.038 376.971 795.988 376.923L793.999 374.995C793.95 374.942 793.923 374.873 793.923 374.802C793.923 374.73 793.95 374.661 793.999 374.609C794.051 374.559 794.12 374.531 794.192 374.531C794.264 374.531 794.333 374.559 794.385 374.609L796.367 376.537C796.405 376.575 796.431 376.623 796.442 376.675C796.453 376.727 796.448 376.782 796.428 376.831C796.408 376.881 796.374 376.923 796.33 376.954C796.286 376.984 796.234 377 796.18 377.001H796.174Z" fill="#006582"/>
<path d="M795.12 378.399C795.051 378.399 794.984 378.373 794.933 378.327L792.95 376.393C792.924 376.368 792.903 376.339 792.889 376.306C792.875 376.274 792.868 376.238 792.868 376.203C792.868 376.167 792.875 376.132 792.889 376.099C792.903 376.067 792.924 376.037 792.95 376.013C792.975 375.988 793.005 375.968 793.037 375.954C793.07 375.94 793.105 375.933 793.14 375.933C793.176 375.933 793.211 375.94 793.243 375.954C793.276 375.968 793.305 375.988 793.33 376.013L795.318 377.941C795.368 377.993 795.396 378.062 795.396 378.134C795.396 378.206 795.368 378.275 795.318 378.327C795.292 378.352 795.261 378.372 795.227 378.385C795.193 378.397 795.156 378.402 795.12 378.399V378.399Z" fill="#006582"/>
<path d="M799.024 387.226C798.982 387.225 798.941 387.215 798.904 387.196C792.878 384.292 786.371 378.086 786.304 378.019C786.276 377.995 786.254 377.965 786.237 377.932C786.221 377.899 786.212 377.862 786.211 377.825C786.209 377.788 786.215 377.751 786.229 377.716C786.242 377.682 786.262 377.65 786.288 377.624C786.314 377.597 786.346 377.577 786.38 377.563C786.414 377.549 786.451 377.542 786.488 377.543C786.525 377.544 786.562 377.553 786.596 377.568C786.629 377.584 786.659 377.606 786.684 377.634C786.744 377.694 793.161 383.846 799.139 386.714C799.17 386.729 799.199 386.75 799.223 386.776C799.246 386.802 799.264 386.832 799.276 386.865C799.288 386.899 799.293 386.934 799.291 386.969C799.289 387.004 799.28 387.038 799.265 387.07C799.243 387.115 799.209 387.154 799.167 387.182C799.124 387.209 799.075 387.225 799.024 387.226V387.226Z" fill="#006582"/>
<path d="M958.692 385.099H878.18C876.714 385.065 875.256 385.324 873.891 385.861C872.527 386.399 871.284 387.204 870.235 388.228C869.185 389.253 868.352 390.477 867.783 391.829C867.214 393.181 866.92 394.632 866.92 396.099C866.92 397.565 867.214 399.017 867.783 400.369C868.352 401.72 869.185 402.944 870.235 403.969C871.284 404.994 872.527 405.799 873.891 406.336C875.256 406.873 876.714 407.133 878.18 407.098H958.692C959.022 407.098 959.337 406.967 959.57 406.735C959.803 406.502 959.934 406.186 959.934 405.857V386.347C959.934 386.017 959.803 385.7 959.57 385.467C959.338 385.233 959.022 385.101 958.692 385.099V385.099Z" fill="#0089A5"/>
<path d="M981.993 396.102C981.989 394.308 982.362 392.533 983.089 390.893C983.816 389.253 984.879 387.784 986.211 386.582H908.946C907.676 386.55 906.413 386.772 905.23 387.236C904.047 387.7 902.97 388.396 902.06 389.283C901.151 390.17 900.428 391.23 899.934 392.4C899.441 393.571 899.187 394.828 899.187 396.099C899.187 397.369 899.441 398.627 899.934 399.797C900.428 400.968 901.151 402.028 902.06 402.915C902.97 403.802 904.047 404.498 905.23 404.962C906.413 405.425 907.676 405.648 908.946 405.616H986.253C984.914 404.419 983.843 402.952 983.109 401.313C982.375 399.674 981.994 397.898 981.993 396.102Z" fill="white"/>
<path d="M986.675 407.098H908.946C907.48 407.133 906.022 406.873 904.658 406.336C903.293 405.799 902.05 404.994 901.001 403.969C899.952 402.944 899.118 401.72 898.549 400.369C897.98 399.017 897.687 397.565 897.687 396.099C897.687 394.632 897.98 393.181 898.549 391.829C899.118 390.477 899.952 389.253 901.001 388.228C902.05 387.204 903.293 386.399 904.658 385.861C906.022 385.324 907.48 385.065 908.946 385.099H986.675C987.006 385.099 987.323 385.231 987.557 385.465C987.791 385.699 987.922 386.016 987.922 386.347C987.922 386.677 987.791 386.995 987.557 387.229C987.323 387.462 987.006 387.594 986.675 387.594H908.946C906.69 387.594 904.526 388.49 902.93 390.086C901.335 391.681 900.439 393.845 900.439 396.102C900.439 398.358 901.335 400.522 902.93 402.118C904.526 403.713 906.69 404.61 908.946 404.61H986.675C986.845 404.598 987.017 404.621 987.178 404.678C987.339 404.735 987.487 404.825 987.612 404.942C987.737 405.059 987.837 405.2 987.905 405.357C987.973 405.514 988.009 405.683 988.009 405.854C988.009 406.025 987.973 406.194 987.905 406.351C987.837 406.508 987.737 406.649 987.612 406.766C987.487 406.883 987.339 406.972 987.178 407.03C987.017 407.087 986.845 407.11 986.675 407.098V407.098Z" fill="#239AAB"/>
<g opacity="0.5">
<path d="M987.367 389.649H908.524C908.291 389.649 908.103 389.837 908.103 390.07V390.221C908.103 390.454 908.291 390.643 908.524 390.643H987.367C987.6 390.643 987.789 390.454 987.789 390.221V390.07C987.789 389.837 987.6 389.649 987.367 389.649Z" fill="#CCCCCC"/>
<path d="M985.879 392.625H907.036C906.803 392.625 906.614 392.814 906.614 393.047V393.198C906.614 393.43 906.803 393.619 907.036 393.619H985.879C986.112 393.619 986.301 393.43 986.301 393.198V393.047C986.301 392.814 986.112 392.625 985.879 392.625Z" fill="#CCCCCC"/>
<path d="M984.56 395.602H905.717C905.484 395.602 905.295 395.791 905.295 396.023V396.174C905.295 396.407 905.484 396.596 905.717 396.596H984.56C984.793 396.596 984.981 396.407 984.981 396.174V396.023C984.981 395.791 984.793 395.602 984.56 395.602Z" fill="#CCCCCC"/>
<path d="M985.879 398.578H907.036C906.803 398.578 906.614 398.767 906.614 399V399.151C906.614 399.384 906.803 399.572 907.036 399.572H985.879C986.112 399.572 986.301 399.384 986.301 399.151V399C986.301 398.767 986.112 398.578 985.879 398.578Z" fill="#CCCCCC"/>
<path d="M987.367 401.555H908.524C908.291 401.555 908.103 401.744 908.103 401.977V402.127C908.103 402.36 908.291 402.549 908.524 402.549H987.367C987.6 402.549 987.789 402.36 987.789 402.127V401.977C987.789 401.744 987.6 401.555 987.367 401.555Z" fill="#CCCCCC"/>
</g>
<path d="M883.435 385.021H970.515C973.623 384.951 976.582 383.667 978.756 381.443C980.93 379.22 982.147 376.234 982.147 373.124C982.147 370.014 980.93 367.028 978.756 364.804C976.582 362.581 973.623 361.297 970.515 361.227H883.435C883.077 361.227 882.733 361.369 882.48 361.622C882.227 361.875 882.085 362.218 882.085 362.576V383.665C882.083 383.843 882.117 384.02 882.184 384.185C882.252 384.349 882.351 384.499 882.476 384.625C882.602 384.752 882.751 384.851 882.916 384.919C883.08 384.987 883.257 385.022 883.435 385.021V385.021Z" fill="#DB6646"/>
<path d="M833.465 373.127C833.464 375.069 833.055 376.99 832.264 378.764C831.473 380.538 830.318 382.125 828.874 383.424H904.795C907.526 383.424 910.145 382.339 912.076 380.408C914.007 378.477 915.092 375.858 915.092 373.127C915.092 370.396 914.007 367.777 912.076 365.845C910.145 363.914 907.526 362.829 904.795 362.829H828.874C830.318 364.128 831.473 365.716 832.264 367.49C833.055 369.264 833.464 371.184 833.465 373.127Z" fill="white"/>
<path d="M828.374 361.227H904.801C906.386 361.191 907.962 361.472 909.436 362.054C910.911 362.636 912.255 363.507 913.388 364.615C914.522 365.723 915.422 367.047 916.037 368.508C916.652 369.969 916.969 371.538 916.969 373.124C916.969 374.709 916.652 376.278 916.037 377.74C915.422 379.201 914.522 380.524 913.388 381.633C912.255 382.741 910.911 383.612 909.436 384.193C907.962 384.775 906.386 385.057 904.801 385.021H828.374C828.033 384.998 827.712 384.846 827.479 384.596C827.245 384.346 827.115 384.017 827.115 383.674C827.115 383.332 827.245 383.002 827.479 382.752C827.712 382.502 828.033 382.35 828.374 382.328H904.801C906.009 382.328 907.206 382.09 908.322 381.627C909.438 381.165 910.453 380.487 911.307 379.633C912.161 378.778 912.839 377.764 913.301 376.648C913.764 375.531 914.002 374.335 914.002 373.127C914.002 371.919 913.764 370.722 913.301 369.606C912.839 368.489 912.161 367.475 911.307 366.621C910.453 365.766 909.438 365.089 908.322 364.626C907.206 364.164 906.009 363.926 904.801 363.926H828.374C828.016 363.926 827.673 363.784 827.42 363.531C827.167 363.277 827.024 362.934 827.024 362.576C827.024 362.218 827.167 361.875 827.42 361.622C827.673 361.369 828.016 361.227 828.374 361.227V361.227Z" fill="#FF743E"/>
<g opacity="0.5">
<path d="M827.657 380.098H905.247C905.496 380.098 905.699 379.896 905.699 379.646V379.478C905.699 379.228 905.496 379.026 905.247 379.026H827.657C827.408 379.026 827.205 379.228 827.205 379.478V379.646C827.205 379.896 827.408 380.098 827.657 380.098Z" fill="#CCCCCC"/>
<path d="M829.266 376.881H906.855C907.105 376.881 907.307 376.678 907.307 376.429V376.26C907.307 376.01 907.105 375.808 906.855 375.808H829.266C829.016 375.808 828.814 376.01 828.814 376.26V376.429C828.814 376.678 829.016 376.881 829.266 376.881Z" fill="#CCCCCC"/>
<path d="M830.694 373.663H908.283C908.533 373.663 908.735 373.461 908.735 373.211V373.042C908.735 372.793 908.533 372.59 908.283 372.59H830.694C830.444 372.59 830.242 372.793 830.242 373.042V373.211C830.242 373.461 830.444 373.663 830.694 373.663Z" fill="#CCCCCC"/>
<path d="M829.266 370.439H906.855C907.105 370.439 907.307 370.237 907.307 369.988V369.819C907.307 369.569 907.105 369.367 906.855 369.367H829.266C829.016 369.367 828.814 369.569 828.814 369.819V369.988C828.814 370.237 829.016 370.439 829.266 370.439Z" fill="#CCCCCC"/>
<path d="M827.657 367.222H905.247C905.496 367.222 905.699 367.019 905.699 366.77V366.601C905.699 366.352 905.496 366.149 905.247 366.149H827.657C827.408 366.149 827.205 366.352 827.205 366.601V366.77C827.205 367.019 827.408 367.222 827.657 367.222Z" fill="#CCCCCC"/>
</g>
<path d="M885.212 430.814H967.586C973.792 430.814 978.842 425.482 978.842 418.92C978.842 412.358 973.792 407.02 967.586 407.02H885.212C884.864 407.031 884.535 407.179 884.296 407.432C884.056 407.685 883.927 408.022 883.935 408.37V429.459C883.929 429.632 883.958 429.804 884.019 429.966C884.08 430.128 884.173 430.276 884.292 430.402C884.41 430.528 884.553 430.629 884.711 430.7C884.869 430.771 885.039 430.81 885.212 430.814V430.814Z" fill="#D88248"/>
<path d="M837.937 418.92C837.947 420.841 837.568 422.745 836.821 424.515C836.074 426.285 834.976 427.885 833.592 429.218H905.416C910.784 429.218 915.153 424.596 915.153 418.92C915.153 413.244 910.784 408.623 905.416 408.623H833.592C834.976 409.956 836.074 411.556 836.821 413.326C837.568 415.096 837.947 416.999 837.937 418.92V418.92Z" fill="white"/>
<path d="M833.122 407.02H905.428C911.634 407.02 916.683 412.358 916.683 418.92C916.683 425.482 911.634 430.814 905.428 430.814H833.122C832.781 430.792 832.46 430.64 832.227 430.39C831.993 430.14 831.863 429.81 831.863 429.468C831.863 429.125 831.993 428.796 832.227 428.546C832.46 428.296 832.781 428.144 833.122 428.121H905.428C910.248 428.121 914.134 423.994 914.134 418.92C914.134 413.847 910.23 409.719 905.428 409.719H833.122C832.764 409.719 832.421 409.577 832.168 409.324C831.915 409.071 831.772 408.728 831.772 408.37C831.772 408.012 831.915 407.668 832.168 407.415C832.421 407.162 832.764 407.02 833.122 407.02Z" fill="#FFAD76"/>
<g opacity="0.5">
<path d="M832.466 425.892H905.82C906.069 425.892 906.271 425.689 906.271 425.44V425.271C906.271 425.022 906.069 424.819 905.82 424.819H832.466C832.216 424.819 832.014 425.022 832.014 425.271V425.44C832.014 425.689 832.216 425.892 832.466 425.892Z" fill="#CCCCCC"/>
<path d="M833.99 422.674H907.344C907.594 422.674 907.796 422.472 907.796 422.222V422.053C907.796 421.804 907.594 421.602 907.344 421.602H833.99C833.741 421.602 833.538 421.804 833.538 422.053V422.222C833.538 422.472 833.741 422.674 833.99 422.674Z" fill="#CCCCCC"/>
<path d="M835.34 419.457H908.694C908.943 419.457 909.146 419.254 909.146 419.005V418.836C909.146 418.586 908.943 418.384 908.694 418.384H835.34C835.09 418.384 834.888 418.586 834.888 418.836V419.005C834.888 419.254 835.09 419.457 835.34 419.457Z" fill="#CCCCCC"/>
<path d="M833.99 416.233H907.344C907.594 416.233 907.796 416.031 907.796 415.781V415.612C907.796 415.363 907.594 415.16 907.344 415.16H833.99C833.741 415.16 833.538 415.363 833.538 415.612V415.781C833.538 416.031 833.741 416.233 833.99 416.233Z" fill="#CCCCCC"/>
<path d="M832.466 413.015H905.82C906.069 413.015 906.271 412.813 906.271 412.563V412.395C906.271 412.145 906.069 411.943 905.82 411.943H832.466C832.216 411.943 832.014 412.145 832.014 412.395V412.563C832.014 412.813 832.216 413.015 832.466 413.015Z" fill="#CCCCCC"/>
</g>
<path d="M789.902 330.641L804.104 321.91L801.748 312.059L784.822 330.527C786.931 331.684 789.902 330.641 789.902 330.641Z" fill="white"/>
<path d="M793.529 339.927L817.414 326.827L816.811 323.399L792.71 336.625C788.058 338.083 785.226 337.372 783.671 336.534L784.485 339.83C786.027 340.662 788.865 341.385 793.529 339.927Z" fill="#FFC147"/>
<path d="M792.703 336.625L816.805 323.399L815.703 317.012C815.664 316.792 815.572 316.585 815.434 316.408C815.297 316.232 815.119 316.092 814.916 316C814.712 315.908 814.489 315.867 814.266 315.88C814.043 315.894 813.827 315.962 813.636 316.078L804.104 321.911L789.902 330.641C789.902 330.641 786.931 331.714 784.792 330.557L801.772 312.089V312.059C801.756 311.805 801.666 311.562 801.513 311.359C801.36 311.156 801.15 311.003 800.911 310.918C800.671 310.833 800.412 310.821 800.166 310.882C799.919 310.944 799.696 311.076 799.524 311.264L783.539 328.834C783.112 329.304 782.808 329.872 782.652 330.488C782.497 331.104 782.495 331.748 782.647 332.365L783.683 336.534C785.22 337.372 788.052 338.083 792.703 336.625Z" fill="#FF9027"/>
<path d="M821.403 349.923L817.414 326.833L793.529 339.933C788.865 341.391 786.033 340.668 784.491 339.836L790.137 362.63C790.28 363.227 790.565 363.781 790.968 364.245C791.371 364.708 791.879 365.068 792.45 365.294C794.252 366.022 796.215 366.259 798.138 365.981L820.794 351.303C821.02 351.158 821.199 350.95 821.307 350.705C821.415 350.459 821.448 350.187 821.403 349.923V349.923Z" fill="#FF9027"/>
<path d="M835.816 343.18C835.816 343.18 818.739 345.235 810.876 352.568C803.013 359.901 794.427 371.518 794.427 371.518L808.888 381.713C808.888 381.713 821.764 363.829 829.633 361.684C837.503 359.539 855.916 367.228 860.833 351.67L835.816 343.18Z" fill="#FFC147"/>
<path d="M844.131 315.017L841.54 314.927C841.54 314.927 840.558 314.746 836.623 319.145C832.688 323.543 828.187 327.791 818.625 328.502L820.372 339.246L839.865 337.438L847.553 330.81L844.131 315.017Z" fill="#008348"/>
<path d="M856.917 312.872C856.917 312.872 861.737 317.09 863.177 334.594C863.177 334.594 863.978 345.862 860.851 351.67L835.815 343.18C835.815 343.18 840.732 332.72 840.732 324.224C840.732 315.728 844.848 311.709 850.481 312.426C856.115 313.143 856.917 312.872 856.917 312.872Z" fill="#008348"/>
<path d="M826.253 334.859C824.882 334.26 823.591 333.493 822.409 332.576C820.438 331.057 819.233 330.768 817.847 331.057C816.462 331.346 815.118 331.726 815.347 332.443C815.576 333.16 816.148 333.25 817.98 333.112C817.98 333.112 815.612 333.293 815.702 334.142C815.793 334.992 816.775 335.215 818.293 334.992C818.293 334.992 816.239 335.263 816.106 335.841C815.974 336.42 816.552 337.185 818.516 337.004C818.516 337.004 816.281 337.269 816.419 338.035C816.558 338.8 817.311 338.836 818.227 338.836C819.143 338.836 818.896 342.102 821.8 342.638C823.603 342.958 825.424 343.159 827.253 343.241L826.253 334.859Z" fill="#FFD4A9"/>
<path d="M844.347 316.277C848.933 316.277 852.651 312.559 852.651 307.974C852.651 303.388 848.933 299.671 844.347 299.671C839.762 299.671 836.044 303.388 836.044 307.974C836.044 312.559 839.762 316.277 844.347 316.277Z" fill="#FFD4A9"/>
<path d="M844.173 308.173C844.529 308.173 844.817 307.884 844.817 307.528C844.817 307.172 844.529 306.883 844.173 306.883C843.816 306.883 843.528 307.172 843.528 307.528C843.528 307.884 843.816 308.173 844.173 308.173Z" fill="black"/>
<path d="M839.708 308.751C840.064 308.751 840.352 308.462 840.352 308.106C840.352 307.75 840.064 307.461 839.708 307.461C839.352 307.461 839.063 307.75 839.063 308.106C839.063 308.462 839.352 308.751 839.708 308.751Z" fill="black"/>
<path d="M841.557 310.48C841.307 310.505 841.057 310.441 840.849 310.298C840.642 310.156 840.492 309.945 840.425 309.703C840.377 309.479 840.406 309.245 840.508 309.039C840.61 308.834 840.778 308.668 840.985 308.57C841.419 308.347 841.347 308.052 841.31 307.968C841.297 307.935 841.289 307.9 841.289 307.864C841.289 307.828 841.296 307.793 841.309 307.76C841.336 307.693 841.389 307.64 841.455 307.612C841.521 307.584 841.596 307.584 841.663 307.611C841.729 307.638 841.783 307.69 841.811 307.757C841.857 307.881 841.877 308.013 841.872 308.145C841.866 308.278 841.835 308.407 841.779 308.527C841.723 308.647 841.643 308.755 841.545 308.844C841.447 308.933 841.333 309.002 841.208 309.046C841.107 309.09 841.023 309.167 840.972 309.264C840.92 309.362 840.903 309.474 840.925 309.582C840.979 309.805 841.202 309.938 841.527 309.938C841.599 309.938 841.668 309.967 841.719 310.017C841.77 310.068 841.799 310.137 841.799 310.209C841.799 310.281 841.77 310.35 841.719 310.401C841.668 310.452 841.599 310.48 841.527 310.48H841.557Z" fill="black"/>
<path d="M841.985 312.457C841.922 312.455 841.86 312.431 841.812 312.389C841.764 312.348 841.731 312.291 841.72 312.228C841.71 312.157 841.727 312.086 841.769 312.028C841.811 311.971 841.873 311.932 841.943 311.92C842.493 311.839 843.005 311.591 843.409 311.21C843.813 310.828 844.09 310.332 844.203 309.787C844.203 309.749 844.212 309.71 844.229 309.675C844.246 309.64 844.27 309.609 844.3 309.584C844.329 309.559 844.364 309.541 844.401 309.531C844.439 309.52 844.478 309.518 844.516 309.524C844.555 309.53 844.591 309.544 844.624 309.566C844.656 309.587 844.683 309.616 844.704 309.649C844.725 309.681 844.738 309.718 844.743 309.757C844.748 309.795 844.744 309.835 844.733 309.872C844.597 310.524 844.267 311.121 843.785 311.581C843.302 312.042 842.692 312.345 842.034 312.451L841.985 312.457Z" fill="black"/>
<path d="M849.74 306.576C848.256 306.587 846.808 306.117 845.613 305.236C844.418 304.355 843.541 303.11 843.112 301.689C841.442 301.859 839.864 302.542 838.598 303.645C837.331 304.748 836.437 306.216 836.038 307.847C836.038 307.847 833.369 303.183 837.497 300.291C841.624 297.399 852.09 294.513 853.434 306.045L849.74 306.576Z" fill="black"/>
<path d="M849.138 308.305C849.007 307.725 849.076 307.117 849.334 306.582C849.593 306.046 850.025 305.613 850.56 305.355C851.095 305.096 851.703 305.026 852.283 305.156C852.863 305.286 853.382 305.609 853.756 306.072C854.129 306.535 854.335 307.11 854.339 307.705C854.344 308.3 854.147 308.879 853.781 309.347C853.414 309.816 852.9 310.146 852.322 310.285C851.744 310.424 851.135 310.363 850.596 310.113C850.231 309.942 849.91 309.691 849.657 309.378C849.405 309.065 849.227 308.698 849.138 308.305Z" fill="#FFD4A9"/>
<path d="M850.674 308.215C850.614 308.216 850.555 308.196 850.508 308.159C850.461 308.121 850.428 308.069 850.415 308.01C850.334 307.661 850.394 307.295 850.583 306.991C850.772 306.687 851.073 306.471 851.421 306.389C851.594 306.347 851.773 306.34 851.948 306.369C852.123 306.398 852.29 306.462 852.44 306.558C852.591 306.65 852.722 306.772 852.825 306.916C852.929 307.06 853.003 307.223 853.042 307.395C853.055 307.431 853.06 307.469 853.057 307.507C853.054 307.545 853.044 307.582 853.025 307.615C853.007 307.649 852.982 307.678 852.952 307.701C852.922 307.724 852.888 307.741 852.851 307.75C852.814 307.759 852.775 307.76 852.738 307.753C852.7 307.746 852.665 307.731 852.634 307.71C852.602 307.688 852.576 307.66 852.556 307.628C852.536 307.596 852.523 307.559 852.518 307.522C852.495 307.417 852.451 307.319 852.389 307.232C852.327 307.145 852.248 307.071 852.157 307.016C852.021 306.933 851.864 306.893 851.705 306.899C851.546 306.906 851.393 306.959 851.264 307.052C851.135 307.146 851.037 307.275 850.981 307.424C850.926 307.573 850.915 307.735 850.951 307.889C850.966 307.959 850.953 308.031 850.914 308.091C850.876 308.15 850.816 308.193 850.747 308.209L850.674 308.215Z" fill="black"/>
<path d="M846.004 298.658C846.004 298.658 845.872 296.284 847.39 296.326C847.8 296.318 848.199 296.455 848.516 296.713C848.834 296.971 849.05 297.334 849.126 297.736C849.367 297.499 849.691 297.367 850.029 297.367C850.367 297.367 850.692 297.499 850.933 297.736C851.813 298.634 850.331 300.749 850.331 300.749L846.004 298.658Z" fill="black"/>
<path d="M843.119 301.719C843.119 301.719 841.558 305.25 839.726 305.262C837.894 305.274 838.557 301.394 838.557 301.394" fill="black"/>
<path d="M858.176 314.903C857.689 313.753 856.867 312.777 855.816 312.101C854.766 311.426 853.536 311.083 852.288 311.117C851.04 311.15 849.83 311.56 848.818 312.291C847.806 313.022 847.038 314.042 846.613 315.216C846.394 315.82 846.222 316.441 846.101 317.072C845.029 322.616 843.595 327.623 839.214 330.659C834.834 333.696 825.795 334.148 825.795 334.148L826.964 343.897C826.964 343.897 845.294 348.459 853.253 339.517C855.585 336.869 857.318 333.75 858.336 330.371C859.354 326.993 859.633 323.436 859.152 319.94C859.152 318.214 858.82 316.504 858.176 314.903V314.903Z" fill="#008348"/>
<path d="M830.543 344.789C830.476 344.79 830.411 344.765 830.361 344.721C830.311 344.676 830.279 344.615 830.272 344.548L829.199 333.654C829.194 333.583 829.217 333.513 829.264 333.459C829.31 333.405 829.376 333.371 829.446 333.365C829.481 333.361 829.517 333.364 829.551 333.374C829.584 333.384 829.616 333.401 829.643 333.423C829.67 333.446 829.692 333.474 829.708 333.505C829.724 333.536 829.733 333.571 829.736 333.606L830.808 344.512C830.815 344.583 830.793 344.654 830.748 344.709C830.703 344.764 830.638 344.8 830.567 344.807L830.543 344.789Z" fill="black"/>
<path d="M820.487 337.414C820.457 337.42 820.426 337.42 820.396 337.414C819.25 337.106 818.042 337.106 816.895 337.414C816.827 337.435 816.753 337.427 816.689 337.393C816.626 337.359 816.579 337.302 816.558 337.233C816.539 337.164 816.548 337.09 816.583 337.027C816.618 336.964 816.676 336.917 816.745 336.896C817.999 336.549 819.323 336.549 820.577 336.896C820.644 336.92 820.698 336.97 820.728 337.034C820.759 337.098 820.763 337.172 820.74 337.239C820.719 337.29 820.685 337.334 820.64 337.365C820.594 337.396 820.541 337.413 820.487 337.414V337.414Z" fill="black"/>
<path d="M820.264 335.534C820.234 335.54 820.203 335.54 820.173 335.534C819.027 335.222 817.819 335.222 816.672 335.534C816.603 335.553 816.529 335.544 816.466 335.509C816.403 335.474 816.356 335.416 816.335 335.347C816.325 335.313 816.322 335.277 816.326 335.242C816.33 335.207 816.341 335.173 816.358 335.142C816.376 335.111 816.399 335.084 816.427 335.062C816.455 335.041 816.488 335.025 816.522 335.016C817.773 334.668 819.096 334.668 820.348 335.016C820.406 335.038 820.455 335.08 820.486 335.134C820.517 335.188 820.529 335.251 820.519 335.312C820.509 335.374 820.478 335.43 820.432 335.472C820.385 335.513 820.326 335.537 820.264 335.54V335.534Z" fill="black"/>
<path d="M820.041 333.57C820.011 333.575 819.981 333.575 819.951 333.57C818.804 333.261 817.596 333.261 816.45 333.57C816.415 333.58 816.379 333.583 816.344 333.579C816.308 333.575 816.274 333.564 816.242 333.547C816.211 333.529 816.183 333.506 816.161 333.478C816.139 333.45 816.122 333.417 816.112 333.383C816.094 333.314 816.103 333.241 816.138 333.179C816.173 333.117 816.231 333.071 816.299 333.052C817.551 332.705 818.874 332.705 820.125 333.052C820.193 333.075 820.249 333.124 820.281 333.188C820.312 333.253 820.317 333.327 820.294 333.395C820.274 333.446 820.239 333.49 820.194 333.521C820.149 333.552 820.096 333.569 820.041 333.57V333.57Z" fill="black"/>
<path d="M825.795 334.419C825.727 334.418 825.662 334.391 825.613 334.344C825.564 334.297 825.534 334.234 825.53 334.166C825.527 334.131 825.532 334.096 825.543 334.063C825.554 334.03 825.572 334 825.595 333.973C825.618 333.947 825.646 333.925 825.677 333.91C825.708 333.894 825.742 333.885 825.777 333.883C829.381 333.667 832.932 332.907 836.309 331.63C837.494 331.192 838.623 330.616 839.672 329.912C844.793 325.743 845.992 318.09 846.004 318.018C846.015 317.947 846.053 317.883 846.111 317.84C846.168 317.797 846.241 317.779 846.312 317.789C846.382 317.801 846.445 317.84 846.488 317.897C846.531 317.954 846.549 318.026 846.541 318.096C846.541 318.175 845.299 326.026 840.003 330.334C839.816 330.479 835.442 333.702 825.819 334.419H825.795Z" fill="black"/>
<path d="M840.648 345.145C840.582 345.147 840.517 345.123 840.467 345.08C840.416 345.036 840.384 344.976 840.377 344.91C840.368 344.839 840.388 344.767 840.432 344.711C840.476 344.654 840.541 344.617 840.612 344.608C840.757 344.608 855.441 342.481 860.598 327.623C860.621 327.555 860.67 327.5 860.734 327.469C860.798 327.438 860.872 327.434 860.939 327.457C861.006 327.48 861.061 327.529 861.092 327.593C861.123 327.657 861.128 327.73 861.104 327.797C859.013 333.99 854.65 339.158 848.897 342.258C846.338 343.68 843.561 344.665 840.678 345.175L840.648 345.145Z" fill="black"/>
<path d="M839.575 330.304C839.504 330.298 839.439 330.264 839.393 330.21C839.346 330.156 839.323 330.086 839.328 330.015C839.6 326.268 840.264 322.56 841.311 318.952C841.322 318.919 841.34 318.888 841.363 318.862C841.387 318.836 841.415 318.814 841.447 318.799C841.478 318.783 841.513 318.774 841.548 318.772C841.583 318.77 841.618 318.775 841.651 318.786C841.684 318.798 841.715 318.816 841.741 318.839C841.768 318.862 841.789 318.891 841.804 318.922C841.82 318.954 841.829 318.988 841.831 319.023C841.833 319.058 841.828 319.094 841.817 319.127C840.783 322.686 840.121 326.343 839.84 330.039C839.84 330.109 839.813 330.177 839.763 330.226C839.713 330.276 839.646 330.304 839.575 330.304Z" fill="black"/>
<path d="M806.225 377.152C806.159 377.151 806.095 377.128 806.044 377.086C806.019 377.061 805.998 377.031 805.985 376.999C805.971 376.966 805.964 376.931 805.964 376.896C805.964 376.86 805.971 376.825 805.985 376.793C805.998 376.76 806.019 376.731 806.044 376.706C806.604 376.073 819.902 361.269 824.12 358.075C828.597 354.719 836.424 355.761 844.004 356.768C851.735 357.798 853.994 351.495 854.085 351.224C854.109 351.158 854.159 351.103 854.223 351.073C854.287 351.042 854.361 351.038 854.428 351.062C854.462 351.073 854.492 351.09 854.519 351.113C854.546 351.136 854.567 351.164 854.583 351.195C854.599 351.226 854.608 351.261 854.61 351.296C854.613 351.331 854.608 351.366 854.597 351.399C854.597 351.471 852.108 358.395 843.938 357.304C836.478 356.31 828.76 355.279 824.464 358.509C820.168 361.739 806.58 376.917 806.442 377.067C806.414 377.097 806.381 377.121 806.343 377.135C806.305 377.15 806.265 377.156 806.225 377.152V377.152Z" fill="#FF9027"/>
<path d="M845.739 357.485C845.669 357.479 845.603 357.445 845.557 357.391C845.51 357.337 845.487 357.267 845.492 357.196C845.854 351.917 850.427 349.664 850.469 349.64C850.534 349.612 850.606 349.611 850.671 349.635C850.736 349.66 850.789 349.709 850.82 349.772C850.85 349.834 850.855 349.906 850.833 349.973C850.812 350.039 850.766 350.095 850.704 350.128C850.662 350.128 846.372 352.273 846.029 357.232C846.026 357.267 846.017 357.302 846.001 357.334C845.985 357.366 845.963 357.395 845.937 357.418C845.91 357.442 845.878 357.46 845.845 357.471C845.811 357.483 845.775 357.487 845.739 357.485V357.485Z" fill="#FF9027"/>
<path d="M819.456 347.235C819.393 347.235 819.332 347.213 819.283 347.172C819.235 347.132 819.202 347.076 819.191 347.013C819.179 346.951 819.19 346.887 819.221 346.832C819.252 346.777 819.301 346.734 819.36 346.711C822.127 345.708 824.976 344.946 827.874 344.434C827.944 344.421 828.016 344.437 828.075 344.478C828.134 344.518 828.174 344.58 828.187 344.651C828.193 344.686 828.192 344.722 828.184 344.757C828.176 344.792 828.162 344.824 828.141 344.854C828.12 344.883 828.094 344.907 828.064 344.926C828.033 344.945 827.999 344.958 827.964 344.964C825.091 345.464 822.268 346.218 819.529 347.217C819.505 347.227 819.481 347.233 819.456 347.235Z" fill="#FF9027"/>
<path d="M938.134 194.117C940.167 194.387 942.13 195.042 943.918 196.045C943.918 196.045 956.674 203.197 961.802 205.686C966.929 208.174 964.067 210.331 964.067 210.331C964.067 210.331 984.927 225.949 998.412 231.673C1008.11 235.789 1011.81 237.193 1013.13 237.651C1013.41 237.746 1013.65 237.935 1013.81 238.186C1013.97 238.438 1014.04 238.736 1014 239.031C1013.93 239.513 1013.58 239.97 1012.51 239.989L993.646 236.205L936.061 202.721L938.134 194.117Z" fill="#FF743E"/>
<path d="M994.387 244.315C994.387 244.315 1003.82 246.623 1008.85 246.797C1009.03 246.731 1009.19 246.629 1009.33 246.498C1009.47 246.366 1009.58 246.208 1009.65 246.033C1009.73 245.858 1009.77 245.669 1009.77 245.479C1009.77 245.288 1009.73 245.099 1009.66 244.923C1009.66 244.923 1011 244.743 1011 242.953C1011 242.953 1012.96 242.778 1012.52 240.007L998.84 234.252L994.387 244.315Z" fill="#B3B3B3"/>
<path d="M862.906 241.718C862.906 241.718 876.662 253.407 921.413 254.052C921.413 254.052 940.387 246.55 949.943 222.551L929.493 198.829C929.493 198.829 898.51 228.239 862.906 241.718Z" fill="#A5A5A5"/>
<path d="M886.254 244.875C886.254 244.875 882.398 241.32 878.638 243.393C878.638 243.393 873.107 246.165 870.775 245.845C870.727 245.837 870.679 245.84 870.632 245.853C870.585 245.865 870.542 245.888 870.505 245.919C870.468 245.95 870.438 245.988 870.417 246.031C870.396 246.075 870.384 246.122 870.383 246.171C870.383 246.695 870.624 247.575 872.113 247.846C872.113 247.846 872.215 249.226 874.095 249.226C875.975 249.226 880.627 252.588 880.627 252.588L886.254 244.875Z" fill="#F9C99D"/>
<path d="M885.447 325.351C885.447 325.351 879.506 329.412 877.276 329.237C875.047 329.063 872.378 324.013 869.178 326.659C865.979 329.304 868.925 332.624 868.925 332.624L877.921 343.379C877.921 343.379 880.488 346.826 883.398 344.867L894.244 338.589L885.447 325.351Z" fill="black"/>
<path d="M881.868 345.705C881.909 345.704 881.95 345.695 881.988 345.677C882.025 345.66 882.058 345.634 882.085 345.603C882.106 345.574 882.122 345.542 882.131 345.507C882.139 345.473 882.141 345.437 882.136 345.402C882.131 345.366 882.119 345.332 882.101 345.302C882.083 345.271 882.059 345.244 882.031 345.223C880.965 344.285 880 343.239 879.151 342.102L868.479 328.918C868.458 328.89 868.431 328.867 868.4 328.851C868.369 328.834 868.335 328.823 868.3 328.82C868.265 328.817 868.23 328.82 868.197 328.831C868.163 328.842 868.132 328.859 868.106 328.882C868.078 328.904 868.054 328.931 868.037 328.962C868.019 328.993 868.008 329.027 868.004 329.063C868 329.098 868.003 329.134 868.014 329.168C868.024 329.202 868.041 329.234 868.064 329.262L878.729 342.439C879.603 343.614 880.601 344.69 881.705 345.651C881.752 345.686 881.809 345.705 881.868 345.705V345.705Z" fill="#006582"/>
<path d="M884.122 330.521C884.166 330.522 884.209 330.512 884.248 330.491C884.31 330.455 884.356 330.397 884.376 330.329C884.396 330.26 884.389 330.187 884.357 330.123L882.549 326.761C882.516 326.698 882.459 326.651 882.392 326.63C882.324 326.609 882.251 326.614 882.187 326.646C882.124 326.681 882.077 326.739 882.056 326.807C882.035 326.876 882.041 326.95 882.073 327.014L883.881 330.382C883.905 330.425 883.94 330.46 883.982 330.485C884.024 330.509 884.073 330.522 884.122 330.521Z" fill="#006582"/>
<path d="M882.217 331.467C882.261 331.468 882.305 331.458 882.344 331.437C882.407 331.402 882.454 331.344 882.474 331.275C882.494 331.206 882.487 331.132 882.452 331.069L880.645 327.707C880.61 327.644 880.553 327.597 880.484 327.576C880.415 327.554 880.341 327.56 880.277 327.593C880.214 327.627 880.167 327.685 880.147 327.754C880.126 327.823 880.134 327.897 880.169 327.96L881.976 331.328C882.001 331.371 882.036 331.406 882.078 331.43C882.12 331.454 882.168 331.467 882.217 331.467V331.467Z" fill="#006582"/>
<path d="M880.313 332.413C880.358 332.415 880.401 332.405 880.44 332.383C880.502 332.349 880.549 332.293 880.571 332.225C880.592 332.158 880.586 332.085 880.554 332.021L878.747 328.653C878.712 328.59 878.655 328.543 878.586 328.522C878.517 328.5 878.443 328.506 878.379 328.539C878.316 328.573 878.269 328.631 878.249 328.7C878.229 328.769 878.236 328.843 878.271 328.906L880.078 332.274C880.101 332.317 880.135 332.353 880.176 332.377C880.218 332.402 880.265 332.414 880.313 332.413V332.413Z" fill="#006582"/>
<path d="M963.284 347.94C963.284 347.94 969.665 351.273 970.563 353.315C971.46 355.358 968.231 360.118 972.093 361.66C975.955 363.203 977.474 359.069 977.474 359.069L982.722 346.067C982.722 346.067 984.53 342.18 981.451 340.535L970.792 333.907L963.284 347.94Z" fill="black"/>
<path d="M974.624 361.612C974.677 361.613 974.728 361.597 974.772 361.568C974.816 361.539 974.851 361.498 974.871 361.449L981.499 345.825C982.124 344.502 982.603 343.114 982.927 341.686C982.933 341.651 982.932 341.615 982.924 341.581C982.916 341.546 982.901 341.514 982.88 341.485C982.859 341.457 982.833 341.433 982.803 341.414C982.773 341.396 982.739 341.384 982.704 341.379C982.634 341.368 982.562 341.386 982.505 341.427C982.447 341.469 982.409 341.532 982.397 341.602C982.074 342.985 981.605 344.33 980.999 345.615L974.407 361.239C974.392 361.271 974.384 361.306 974.384 361.341C974.383 361.377 974.39 361.412 974.403 361.445C974.417 361.477 974.437 361.507 974.463 361.532C974.488 361.556 974.518 361.576 974.552 361.588C974.574 361.601 974.598 361.609 974.624 361.612Z" fill="#006582"/>
<path d="M966.11 350.248C966.154 350.248 966.198 350.237 966.237 350.216C966.276 350.195 966.309 350.165 966.333 350.128L968.454 346.952C968.473 346.923 968.486 346.89 968.493 346.856C968.5 346.821 968.5 346.786 968.493 346.751C968.486 346.717 968.472 346.684 968.452 346.655C968.433 346.626 968.408 346.601 968.378 346.582C968.349 346.562 968.316 346.549 968.282 346.542C968.247 346.535 968.212 346.536 968.177 346.543C968.143 346.55 968.11 346.563 968.081 346.583C968.052 346.603 968.027 346.628 968.008 346.657L965.887 349.832C965.859 349.873 965.843 349.92 965.84 349.968C965.838 350.017 965.848 350.065 965.871 350.108C965.894 350.151 965.929 350.187 965.971 350.212C966.013 350.236 966.061 350.249 966.11 350.248V350.248Z" fill="#006582"/>
<path d="M967.839 351.483C967.883 351.484 967.927 351.473 967.966 351.452C968.005 351.431 968.038 351.4 968.062 351.363L970.183 348.187C970.208 348.159 970.227 348.125 970.238 348.088C970.249 348.051 970.253 348.012 970.248 347.974C970.243 347.936 970.23 347.899 970.21 347.867C970.189 347.834 970.162 347.806 970.131 347.784C970.099 347.763 970.063 347.748 970.025 347.742C969.987 347.735 969.948 347.737 969.911 347.747C969.874 347.756 969.839 347.774 969.809 347.798C969.779 347.822 969.755 347.852 969.737 347.886L967.616 351.062C967.577 351.121 967.562 351.193 967.576 351.263C967.589 351.333 967.63 351.395 967.688 351.435C967.733 351.465 967.785 351.481 967.839 351.483V351.483Z" fill="#006582"/>
<path d="M969.574 352.713C969.619 352.712 969.662 352.701 969.701 352.68C969.74 352.659 969.773 352.629 969.797 352.592L971.918 349.417C971.958 349.357 971.973 349.283 971.959 349.213C971.945 349.142 971.903 349.08 971.843 349.04C971.783 349 971.71 348.986 971.639 349C971.569 349.014 971.506 349.055 971.466 349.115L969.346 352.291C969.307 352.351 969.293 352.424 969.308 352.494C969.322 352.564 969.364 352.625 969.424 352.664C969.468 352.695 969.521 352.712 969.574 352.713Z" fill="#006582"/>
<path d="M925.028 295.742L889.285 319.301C889.285 319.301 883.465 321.356 884.314 326.05C885.164 330.744 892.581 340.758 897.263 340.083C901.945 339.408 936.061 318.807 936.061 318.807C936.061 318.807 943.243 337.402 954.511 345.271C965.778 353.14 966.634 346.374 969.285 343.277C971.508 340.68 973.117 340.445 973.425 336.944C973.484 336.259 973.392 335.57 973.156 334.924C972.92 334.278 972.544 333.693 972.057 333.208C969.195 330.358 962.766 323.11 960.988 314.071C958.674 302.328 958.789 292.127 954.185 287.258C949.582 282.39 925.028 295.742 925.028 295.742Z" fill="#FF743E"/>
<path d="M970.828 337.721C970.884 337.721 970.938 337.703 970.984 337.671C971.029 337.638 971.063 337.592 971.082 337.54C971.1 337.487 971.102 337.43 971.087 337.376C971.071 337.322 971.04 337.274 970.996 337.239C957.301 326.821 956.704 313.306 956.355 305.232C956.282 303.635 956.222 302.262 956.077 301.123C955.465 296.701 954.202 292.395 952.33 288.343C952.297 288.279 952.241 288.231 952.174 288.208C952.106 288.186 952.032 288.191 951.968 288.222C951.935 288.237 951.906 288.258 951.882 288.285C951.858 288.311 951.84 288.343 951.828 288.377C951.817 288.411 951.813 288.446 951.816 288.482C951.82 288.518 951.83 288.552 951.847 288.584C953.706 292.578 954.961 296.826 955.571 301.189C955.716 302.304 955.776 303.671 955.842 305.25C956.204 313.421 956.8 327.098 970.695 337.667C970.734 337.696 970.779 337.715 970.828 337.721V337.721Z" fill="#FF1E23"/>
<path d="M955.095 298.923C955.17 298.923 955.242 298.892 955.294 298.839C955.319 298.814 955.339 298.785 955.353 298.752C955.367 298.72 955.374 298.685 955.374 298.649C955.374 298.614 955.367 298.579 955.353 298.546C955.339 298.514 955.319 298.484 955.294 298.459C955.264 298.459 952.456 295.742 950.534 289.807C950.523 289.774 950.506 289.743 950.483 289.716C950.46 289.689 950.432 289.668 950.4 289.652C950.369 289.636 950.335 289.627 950.3 289.625C950.265 289.622 950.23 289.627 950.196 289.638C950.129 289.66 950.073 289.708 950.04 289.771C950.007 289.834 950.001 289.908 950.022 289.976C951.986 296.049 954.806 298.737 954.92 298.851C954.969 298.894 955.03 298.92 955.095 298.923V298.923Z" fill="#FF1E23"/>
<path d="M971.28 234.282C971.28 234.282 958.138 249.304 932.922 252.521C913.194 255.04 896.094 247.538 889.587 244.158C888.793 243.746 887.879 243.634 887.009 243.84C886.14 244.047 885.374 244.56 884.851 245.285L880.386 251.485C879.839 252.243 879.597 253.179 879.708 254.106C879.82 255.034 880.277 255.886 880.988 256.492C885.423 260.276 895.871 267.682 913.351 271.556L919.057 284.45C919.897 286.327 920.416 288.331 920.594 290.379C920.656 291.424 920.858 292.456 921.196 293.446C921.618 294.564 922.428 295.492 923.478 296.062C924.528 296.631 925.747 296.804 926.914 296.549L953.565 290.916C954.647 290.687 955.599 290.05 956.224 289.138C956.849 288.226 957.098 287.108 956.921 286.017L953.824 267.001C953.824 267.001 971.798 256.806 984.939 239.374L971.28 234.282Z" fill="#239AAB"/>
<path d="M920.738 194.237C920.871 194.112 921.021 194.006 921.184 193.924C923.1 192.948 932.795 194.201 937.634 194.888C937.634 194.888 939.833 195.165 939.984 196.744C937.32 197.22 928.553 198.341 920.738 194.237Z" fill="#CCCCCC"/>
<path d="M858.67 230.782C858.67 230.782 885.092 225.467 898.438 217.303C911.784 209.138 920.208 199.449 921.196 197.166C921.196 197.166 919.648 195.316 920.768 194.237C928.601 198.341 937.35 197.22 940.014 196.744C940.074 197.346 939.839 198.118 939.092 199.154C939.092 199.154 963.85 222.454 1000.95 234.656C1000.95 235.382 1000.77 236.097 1000.45 236.745C1000.12 237.393 999.65 237.957 999.069 238.392C999.168 239.12 999 239.859 998.597 240.474C998.194 241.088 997.583 241.536 996.876 241.736C996.876 241.736 996.827 243.712 994.417 244.333C994.417 244.333 955.342 239.76 928.824 201.733C928.824 201.733 905.379 234.457 862.936 241.736C862.936 241.736 861.279 241.061 861.809 238.542C861.207 238.168 860.739 237.612 860.472 236.955C860.204 236.298 860.152 235.574 860.321 234.885C860.321 234.885 857.917 233.089 858.67 230.782Z" fill="white"/>
<path d="M857.278 231.384C857.358 231.396 857.439 231.396 857.519 231.384C883.266 227.642 899.396 218.622 908.398 211.711C918.208 204.179 921.853 197.593 922.004 197.316C922.101 197.135 922.137 196.928 922.106 196.725C922.076 196.522 921.981 196.334 921.835 196.189C921.034 195.406 921.305 194.984 921.431 194.828C921.55 194.669 921.712 194.548 921.898 194.479C922.084 194.411 922.286 194.398 922.48 194.442C926.788 195.244 934.778 195.798 938.019 196.003C938.248 196.015 938.468 196.101 938.644 196.248C938.821 196.394 938.946 196.593 939.001 196.816C939.065 197.034 939.055 197.266 938.974 197.477C938.892 197.689 938.743 197.867 938.549 197.985L938.483 198.027C938.351 198.102 938.239 198.207 938.156 198.334C938.073 198.461 938.022 198.606 938.007 198.756C937.992 198.905 938.012 199.056 938.067 199.195C938.121 199.334 938.208 199.459 938.321 199.558C951.48 211.132 966.242 220.746 982.15 228.1C993.947 233.523 1001.97 235.512 1002.03 235.53C1002.26 235.545 1002.48 235.482 1002.66 235.352C1002.84 235.221 1002.96 235.031 1003.02 234.815C1003.07 234.6 1003.05 234.372 1002.95 234.172C1002.85 233.972 1002.69 233.813 1002.49 233.722C1002.41 233.722 994.52 231.734 982.873 226.383C967.472 219.258 953.155 209.994 940.345 198.865C940.657 198.433 940.848 197.925 940.898 197.394C940.947 196.864 940.854 196.329 940.627 195.847C940.4 195.365 940.048 194.952 939.607 194.652C939.167 194.352 938.654 194.175 938.122 194.141C934.922 193.942 927.017 193.394 922.811 192.61C922.256 192.503 921.681 192.559 921.158 192.773C920.635 192.987 920.185 193.35 919.865 193.815C919.529 194.289 919.361 194.861 919.385 195.441C919.409 196.021 919.624 196.576 919.997 197.021C918.913 198.744 915.074 204.252 907.133 210.349C898.318 217.092 882.507 225.901 857.236 229.57C857.007 229.597 856.795 229.706 856.641 229.878C856.487 230.051 856.402 230.274 856.402 230.504C856.402 230.735 856.487 230.958 856.641 231.13C856.795 231.303 857.007 231.412 857.236 231.438L857.278 231.384Z" fill="#FF9027"/>
<path d="M996.315 237.428C996.378 237.426 996.439 237.403 996.487 237.363C996.535 237.322 996.568 237.266 996.581 237.205C996.593 237.134 996.577 237.062 996.536 237.004C996.496 236.945 996.434 236.905 996.364 236.891C996.291 236.891 988.531 235.331 977.167 230.077C961.524 222.719 947.296 212.668 935.133 200.383C935.11 200.352 935.08 200.326 935.046 200.308C935.012 200.289 934.974 200.278 934.935 200.275C934.897 200.273 934.858 200.278 934.821 200.292C934.785 200.305 934.752 200.327 934.724 200.354C934.697 200.382 934.676 200.415 934.662 200.451C934.649 200.488 934.643 200.526 934.646 200.565C934.648 200.604 934.66 200.642 934.678 200.676C934.697 200.71 934.722 200.74 934.753 200.763C946.956 213.097 961.233 223.189 976.932 230.577C988.38 235.849 996.159 237.404 996.213 237.422L996.315 237.428Z" fill="#CCCCCC"/>
<path d="M994.435 241.049C994.502 241.048 994.566 241.023 994.616 240.978C994.665 240.933 994.696 240.872 994.703 240.805C994.709 240.739 994.691 240.672 994.652 240.618C994.613 240.564 994.555 240.527 994.49 240.513C994.393 240.513 984.849 238.615 972.515 232.836C961.151 227.504 945.063 217.676 932.904 201.112C932.861 201.056 932.799 201.018 932.729 201.006C932.659 200.995 932.588 201.011 932.53 201.052C932.473 201.095 932.435 201.159 932.423 201.23C932.412 201.301 932.429 201.373 932.47 201.432C944.695 218.092 960.88 227.974 972.298 233.33C984.674 239.133 994.291 241.025 994.387 241.043L994.435 241.049Z" fill="#CCCCCC"/>
<path d="M863.201 234.337H863.249C880.016 231.302 895.816 224.305 909.332 213.928C919.232 206.234 924.106 199.389 924.154 199.323C924.194 199.264 924.21 199.192 924.197 199.122C924.185 199.053 924.146 198.99 924.088 198.949C924.06 198.928 924.027 198.913 923.993 198.905C923.959 198.897 923.923 198.895 923.889 198.901C923.854 198.907 923.821 198.919 923.791 198.938C923.761 198.956 923.735 198.981 923.715 199.009C923.666 199.082 918.828 205.872 908.982 213.519C895.537 223.831 879.826 230.786 863.153 233.806C863.118 233.81 863.084 233.82 863.053 233.836C863.022 233.852 862.995 233.874 862.972 233.901C862.95 233.928 862.933 233.959 862.923 233.992C862.912 234.026 862.909 234.061 862.912 234.096C862.915 234.13 862.925 234.164 862.941 234.195C862.957 234.226 862.98 234.254 863.006 234.276C863.033 234.298 863.064 234.315 863.098 234.326C863.131 234.336 863.166 234.34 863.201 234.337V234.337Z" fill="#CCCCCC"/>
<path d="M864.051 238.398H864.105C881.418 234.713 897.611 226.978 911.357 215.826C921.413 207.572 926.27 200.359 926.318 200.293C926.357 200.234 926.372 200.161 926.358 200.091C926.345 200.021 926.304 199.96 926.246 199.919C926.216 199.899 926.184 199.885 926.149 199.877C926.114 199.87 926.078 199.87 926.043 199.876C926.009 199.883 925.975 199.897 925.946 199.917C925.917 199.936 925.891 199.962 925.872 199.992C925.824 200.064 920.997 207.222 911.001 215.423C897.325 226.507 881.22 234.198 864.003 237.868C863.942 237.886 863.889 237.925 863.854 237.978C863.819 238.031 863.804 238.095 863.811 238.158C863.818 238.221 863.848 238.28 863.894 238.323C863.94 238.367 864 238.394 864.063 238.398H864.051Z" fill="#CCCCCC"/>
<path d="M915.105 275.81C915.14 275.819 915.177 275.819 915.213 275.81C915.246 275.796 915.276 275.776 915.301 275.75C915.325 275.725 915.345 275.695 915.358 275.661C915.371 275.628 915.377 275.593 915.376 275.557C915.375 275.522 915.367 275.487 915.352 275.454L910.754 265.085C910.74 265.052 910.72 265.022 910.695 264.997C910.669 264.972 910.639 264.953 910.606 264.94C910.573 264.927 910.537 264.921 910.502 264.922C910.466 264.923 910.431 264.931 910.399 264.946C910.333 264.975 910.282 265.029 910.256 265.095C910.23 265.162 910.232 265.236 910.26 265.301L914.858 275.629C914.876 275.68 914.91 275.724 914.954 275.757C914.998 275.789 915.05 275.807 915.105 275.81V275.81Z" fill="#006582"/>
<path d="M951.161 268.525C951.195 268.531 951.229 268.531 951.263 268.525C955.065 266.982 962.338 261.801 962.645 261.578C962.702 261.536 962.74 261.473 962.751 261.403C962.763 261.333 962.746 261.262 962.706 261.204C962.685 261.175 962.659 261.151 962.629 261.132C962.599 261.114 962.566 261.101 962.531 261.096C962.497 261.09 962.461 261.091 962.427 261.1C962.393 261.108 962.36 261.123 962.332 261.144C962.254 261.192 954.8 266.506 951.058 268.025C951.025 268.037 950.995 268.057 950.969 268.081C950.944 268.106 950.924 268.136 950.91 268.168C950.897 268.201 950.89 268.236 950.891 268.272C950.891 268.307 950.899 268.342 950.914 268.374C950.936 268.421 950.971 268.46 951.015 268.486C951.059 268.513 951.109 268.527 951.161 268.525V268.525Z" fill="#006582"/>
<path d="M929.764 258.553C929.966 258.555 930.168 258.541 930.367 258.511C932.886 258.131 934.103 254.546 934.157 254.395C934.173 254.361 934.181 254.323 934.181 254.285C934.181 254.247 934.173 254.209 934.158 254.175C934.143 254.14 934.12 254.109 934.092 254.083C934.064 254.057 934.031 254.038 933.995 254.026C933.959 254.014 933.92 254.01 933.882 254.014C933.845 254.018 933.808 254.03 933.775 254.048C933.742 254.067 933.713 254.093 933.691 254.124C933.668 254.154 933.653 254.189 933.645 254.227C933.645 254.227 932.476 257.649 930.283 257.974C929.904 258.053 929.512 258.039 929.139 257.934C928.767 257.83 928.426 257.637 928.144 257.372C927.778 256.962 927.508 256.475 927.355 255.948C927.202 255.42 927.169 254.865 927.258 254.323C927.263 254.252 927.241 254.182 927.196 254.127C927.151 254.073 927.087 254.037 927.017 254.028C926.946 254.021 926.875 254.043 926.82 254.088C926.764 254.133 926.729 254.198 926.722 254.269C926.623 254.893 926.667 255.531 926.848 256.135C927.03 256.74 927.345 257.297 927.77 257.764C928.307 258.276 929.022 258.56 929.764 258.553Z" fill="#006582"/>
<path d="M930.638 236.307C932.928 237.39 935.325 238.23 937.79 238.814C942.442 240.019 942.562 243.58 941.014 245.49C941.014 245.49 942.544 251.768 936.531 252.859C930.517 253.95 930.638 236.307 930.638 236.307Z" fill="#1A1A1A"/>
<path d="M930.415 255.95C935.001 255.95 938.718 252.232 938.718 247.647C938.718 243.061 935.001 239.344 930.415 239.344C925.829 239.344 922.112 243.061 922.112 247.647C922.112 252.232 925.829 255.95 930.415 255.95Z" fill="#FFD4A9"/>
<path d="M931.427 248.292C931.784 248.292 932.072 248.003 932.072 247.647C932.072 247.291 931.784 247.002 931.427 247.002C931.071 247.002 930.783 247.291 930.783 247.647C930.783 248.003 931.071 248.292 931.427 248.292Z" fill="black"/>
<path d="M927.071 247.159C927.427 247.159 927.716 246.87 927.716 246.514C927.716 246.158 927.427 245.869 927.071 245.869C926.715 245.869 926.426 246.158 926.426 246.514C926.426 246.87 926.715 247.159 927.071 247.159Z" fill="black"/>
<path d="M927.999 249.43C928.063 249.432 928.125 249.41 928.174 249.37C928.224 249.33 928.258 249.274 928.27 249.211C928.282 249.149 928.272 249.084 928.241 249.028C928.21 248.972 928.161 248.929 928.101 248.906C927.8 248.786 927.637 248.575 927.673 248.346C927.693 248.238 927.75 248.141 927.833 248.071C927.917 248 928.022 247.961 928.131 247.96C928.263 247.963 928.393 247.939 928.516 247.891C928.638 247.843 928.749 247.771 928.844 247.68C928.939 247.589 929.014 247.48 929.067 247.359C929.119 247.239 929.147 247.109 929.15 246.978C929.15 246.906 929.121 246.837 929.07 246.786C929.019 246.735 928.95 246.707 928.879 246.707C928.807 246.707 928.738 246.735 928.687 246.786C928.636 246.837 928.607 246.906 928.607 246.978C928.607 247.068 928.565 247.37 928.083 247.412C927.854 247.426 927.636 247.517 927.464 247.67C927.292 247.823 927.177 248.029 927.137 248.255C927.11 248.504 927.171 248.755 927.31 248.963C927.449 249.171 927.656 249.324 927.896 249.394C927.927 249.414 927.962 249.427 927.999 249.43V249.43Z" fill="black"/>
<path d="M939.104 244.206C939.274 242.991 939.062 241.754 938.497 240.664C937.932 239.575 937.043 238.688 935.952 238.127C932.096 236.138 931.132 232.987 927.42 233.686C923.709 234.385 924.733 239.061 924.733 239.061C924.733 239.061 922.395 240.465 922.865 243.971C922.865 243.971 929.638 241.869 936.067 244.574C936.067 244.574 934.313 249.714 937.236 252.522C937.266 252.503 940.978 249.696 939.104 244.206Z" fill="#333333"/>
<path d="M934.994 249.78C935.293 249.265 935.757 248.866 936.311 248.649C936.865 248.431 937.476 248.408 938.045 248.583C938.614 248.757 939.107 249.12 939.444 249.61C939.781 250.101 939.941 250.692 939.899 251.285C939.857 251.879 939.616 252.441 939.213 252.88C938.811 253.318 938.272 253.608 937.684 253.701C937.097 253.794 936.495 253.685 935.977 253.392C935.458 253.099 935.055 252.639 934.832 252.088C934.682 251.716 934.618 251.315 934.647 250.915C934.675 250.515 934.794 250.127 934.994 249.78V249.78Z" fill="#FFD4A9"/>
<path d="M938.23 251.925C938.278 251.926 938.326 251.914 938.368 251.889C938.409 251.865 938.443 251.829 938.465 251.786C938.644 251.476 938.693 251.108 938.6 250.762C938.507 250.416 938.281 250.122 937.971 249.943C937.661 249.764 937.293 249.715 936.947 249.808C936.601 249.9 936.306 250.127 936.127 250.437C936.1 250.498 936.097 250.568 936.118 250.631C936.14 250.695 936.184 250.749 936.242 250.782C936.301 250.815 936.37 250.825 936.435 250.81C936.501 250.795 936.559 250.757 936.597 250.702C936.677 250.562 936.797 250.45 936.941 250.379C937.084 250.308 937.246 250.281 937.405 250.303C937.564 250.324 937.714 250.392 937.834 250.499C937.954 250.605 938.039 250.745 938.08 250.901C938.107 251.001 938.115 251.106 938.101 251.21C938.088 251.313 938.054 251.413 938.001 251.503C937.977 251.544 937.964 251.591 937.963 251.638C937.963 251.686 937.974 251.733 937.998 251.774C938.021 251.816 938.055 251.85 938.095 251.875C938.136 251.899 938.183 251.912 938.23 251.913V251.925Z" fill="#FFD4A9"/>
<path d="M930.969 250.834C930.969 250.834 928.33 251.437 926.366 250.087" stroke="black" stroke-linecap="round" stroke-linejoin="round"/>
<path d="M920.587 292.127C920.658 292.119 920.723 292.084 920.768 292.029C920.814 291.973 920.835 291.903 920.828 291.831C920.31 286.119 925.01 280.648 925.046 280.594C925.071 280.569 925.092 280.54 925.105 280.507C925.119 280.475 925.126 280.44 925.126 280.404C925.126 280.369 925.119 280.334 925.105 280.301C925.092 280.269 925.071 280.239 925.046 280.214C925.021 280.189 924.992 280.169 924.959 280.155C924.927 280.141 924.892 280.134 924.856 280.134C924.821 280.134 924.786 280.141 924.753 280.155C924.721 280.169 924.691 280.189 924.667 280.214C924.468 280.443 919.768 285.914 920.31 291.862C920.311 291.897 920.319 291.932 920.333 291.965C920.347 291.998 920.368 292.027 920.394 292.052C920.42 292.076 920.45 292.096 920.483 292.108C920.516 292.121 920.552 292.128 920.587 292.127V292.127Z" fill="#006582"/>
<path d="M938.826 325.219C938.868 325.219 938.91 325.209 938.947 325.188C938.978 325.172 939.006 325.15 939.029 325.124C939.052 325.097 939.069 325.065 939.08 325.032C939.091 324.998 939.095 324.963 939.091 324.927C939.088 324.892 939.078 324.858 939.061 324.827C935.807 318.516 933.814 311.631 933.193 304.557C933.183 304.493 933.151 304.434 933.101 304.392C933.052 304.35 932.989 304.326 932.924 304.326C932.859 304.326 932.797 304.35 932.748 304.392C932.698 304.434 932.666 304.493 932.656 304.557C933.277 311.708 935.291 318.667 938.585 325.044C938.604 325.093 938.637 325.136 938.68 325.167C938.723 325.198 938.773 325.216 938.826 325.219Z" fill="#FF1E23"/>
<path d="M817.269 306.1C817.269 306.1 826.434 285.565 827.874 268.284" stroke="white" stroke-width="3" stroke-linejoin="round"/>
<path d="M825.795 301.273C829.237 294.482 831.752 287.259 833.273 279.799" stroke="#FFC147" stroke-width="3" stroke-linejoin="round"/>
<path d="M813.371 298.435C813.371 298.435 819.468 284.065 819.794 272.526" stroke="#82C1CC" stroke-width="3" stroke-linejoin="round"/>
<path d="M880.982 281.118C881.747 281.118 882.368 280.498 882.368 279.732C882.368 278.967 881.747 278.347 880.982 278.347C880.217 278.347 879.596 278.967 879.596 279.732C879.596 280.498 880.217 281.118 880.982 281.118Z" fill="#FFC147"/>
<path d="M867.714 287.903V281.974" stroke="#006582" stroke-width="2" stroke-linecap="round" stroke-linejoin="round"/>
<path d="M870.281 286.421L865.142 283.456" stroke="#006582" stroke-width="2" stroke-linecap="round" stroke-linejoin="round"/>
<path d="M870.281 283.456L865.142 286.421" stroke="#006582" stroke-width="2" stroke-linecap="round" stroke-linejoin="round"/>
<path d="M878.06 295.031C878.998 295.031 879.759 294.27 879.759 293.332C879.759 292.393 878.998 291.633 878.06 291.633C877.122 291.633 876.361 292.393 876.361 293.332C876.361 294.27 877.122 295.031 878.06 295.031Z" stroke="#FF743E" stroke-width="2" stroke-linecap="round" stroke-linejoin="round"/>
<path d="M834.586 240.446C834.586 240.446 829.163 237.807 826.958 232.179C824.753 226.552 819.3 220.098 816.564 222.406C816.564 222.406 811.34 211.446 807.406 215.091C807.406 215.091 803.706 207.523 799.94 207.017C796.174 206.511 797.174 209.68 797.174 209.68C797.174 209.68 791.149 199.558 786.112 201.299C781.074 203.04 784.696 211.512 787.919 216.314C791.143 221.117 797.988 225.702 799.271 221.279C799.271 221.279 808.4 235.295 810.069 228.552C810.069 228.552 814.931 237.307 818.227 232.698C818.215 232.698 824.421 240.657 834.586 240.446Z" fill="white"/>
<path d="M833.508 244.664C833.508 244.664 825.904 248.792 817.329 245.122C817.329 245.122 817.167 247.448 811.979 245.333C806.791 243.218 803.447 237.193 806.062 235.921C808.074 234.939 811.804 238.579 811.804 238.579C811.804 238.579 812.334 235.831 816.142 237.759C819.95 239.687 824.958 244.279 833.508 244.664Z" fill="white"/>
</g>
</g>
<defs>
<clipPath id="clip0_1767_604">
<rect width="1920" height="451" fill="white"/>
</clipPath>
<clipPath id="clip1_1767_604">
<rect width="242" height="238.282" fill="white" transform="translate(772 192.532)"/>
</clipPath>
</defs>
</svg>
