<svg width="259" height="303" viewBox="0 0 259 303" fill="none" xmlns="http://www.w3.org/2000/svg">
<g opacity="0.3" clip-path="url(#clip0_435_79)">
<g style="mix-blend-mode:multiply">
<path d="M5.53608 219.487L113.188 168C118.654 164.835 127.494 164.835 132.926 168L254.948 239.071C260.381 242.233 260.35 247.364 254.884 250.529L148.07 300.628C142.604 303.79 133.765 303.79 128.332 300.628L5.4718 230.971C0.0391676 227.806 0.0671251 222.675 5.53608 219.513V219.487Z" fill="#F9F7FC"/>
</g>
<path d="M228.173 76.8129L227.656 251.039C227.639 248.555 225.979 246.101 222.727 244.194L105.056 176.102L105.573 1.8905L223.258 69.9816C226.513 71.8582 228.156 74.3285 228.173 76.8129Z" fill="#E2745A"/>
<path d="M227.93 83.2493L227.883 101.712L111.4 34.9321L91.6393 23.6027L111.461 12.0604L223.244 76.7597C226.368 78.5523 227.913 80.8994 227.93 83.2493Z" fill="#FAF7FF"/>
<path d="M232.742 76.8605L232.211 251.101C232.197 254.232 230.143 257.36 226.027 259.755C220.966 262.71 213.954 263.856 207.37 263.175C203.218 262.76 199.236 261.615 196.027 259.755L79.9524 192.599L78.3428 191.667L78.8737 17.438L80.4918 18.3595L196.553 85.5207C199.627 87.302 203.408 88.428 207.365 88.8817C214.097 89.6659 221.354 88.5484 226.552 85.5207C226.972 85.2854 227.354 85.0306 227.723 84.7841C229.069 83.8962 230.242 82.7707 231.186 81.4623C231.514 80.9988 231.795 80.5033 232.024 79.9834C232.485 79.0064 232.73 77.9412 232.742 76.8605Z" fill="#F78866"/>
<path d="M232.742 76.8605L232.211 251.1C232.197 254.232 230.143 257.36 226.027 259.755C222.841 261.618 218.878 262.76 214.74 263.18C213.809 263.276 212.869 263.174 211.981 262.883C211.092 262.591 210.274 262.116 209.579 261.488C208.885 260.861 208.329 260.094 207.949 259.238C207.569 258.381 207.372 257.455 207.37 256.517V95.7493C207.38 94.0338 208.044 92.387 209.226 91.1461C210.408 89.9052 212.019 89.1642 213.728 89.0749C218.42 88.7948 222.978 87.6185 226.558 85.5318C226.977 85.2966 227.36 85.0417 227.729 84.7952C229.074 83.9074 230.248 82.7818 231.191 81.4734C231.52 81.0099 231.8 80.5145 232.03 79.9946C232.49 79.0137 232.733 77.9445 232.742 76.8605Z" fill="#E2745A"/>
<path d="M226.474 68.0939C234.788 72.9057 234.833 80.6977 226.563 85.5235C218.294 90.3493 204.864 90.3353 196.55 85.5235L80.4917 18.3623L78.8793 17.4296L82.093 15.5558L199.764 83.6469C203.028 85.5347 207.292 86.4786 211.562 86.4842C215.832 86.4898 220.086 85.5347 223.327 83.6469C226.569 81.7592 228.182 79.286 228.179 76.8073C228.176 74.3286 226.502 71.8554 223.26 69.9621L105.581 1.86253L108.792 -0.00842285L226.474 68.0939Z" fill="#FF9880"/>
<path d="M188.437 91.7471L187.92 265.981C187.906 263.497 186.244 261.044 182.994 259.136L65.3229 191.037L65.8399 16.8247L183.524 84.9158C186.78 86.7924 188.423 89.2627 188.437 91.7471Z" fill="#EDB264"/>
<path d="M188.194 98.1806L188.149 116.646L71.6665 49.8633L51.9033 38.5367L71.7251 26.9945L183.524 91.6938C186.629 93.4863 188.18 95.8335 188.194 98.1806Z" fill="#FAF7FF"/>
<path d="M186.741 83.028C195.055 87.8398 195.1 95.6318 186.828 100.458C178.556 105.283 165.131 105.269 156.817 100.458L40.7475 33.2964L39.1322 32.3609L42.3432 30.4899L160.025 98.5866C163.289 100.474 167.553 101.418 171.824 101.424C176.094 101.429 180.347 100.474 183.589 98.5866C186.83 96.6989 188.443 94.2229 188.44 91.747C188.437 89.271 186.763 86.7951 183.522 84.8989L65.8454 16.805L69.0592 14.9341L186.741 83.028Z" fill="#FFD69F"/>
<path d="M156.811 100.455L156.294 274.695L40.2221 207.534L38.6096 206.587L39.1406 32.3608L40.753 33.2907L156.811 100.455Z" fill="#F7C986"/>
<path d="M172.008 104.062V278.305C169.579 278.352 167.151 278.153 164.762 277.711C161.79 277.191 158.926 276.175 156.289 274.706L156.82 100.472C159.296 101.858 161.977 102.839 164.762 103.379C167.148 103.854 169.576 104.083 172.008 104.062Z" fill="#F7C986"/>
<path d="M186.83 100.452C182.745 102.833 177.382 104.032 172.019 104.057H171.947C171.011 104.049 170.084 104.225 169.217 104.577C168.35 104.929 167.561 105.448 166.895 106.106C166.228 106.763 165.698 107.546 165.334 108.41C164.97 109.273 164.779 110.2 164.773 111.137V271.205C164.768 272.135 164.947 273.057 165.3 273.917C165.652 274.778 166.171 275.56 166.826 276.218C167.482 276.877 168.261 277.399 169.118 277.754C169.976 278.109 170.896 278.291 171.824 278.288H172.019C177.214 278.19 182.359 276.992 186.311 274.689C190.421 272.295 192.478 269.166 192.489 266.029L193.015 91.7947C192.998 94.9344 190.936 98.0629 186.83 100.452Z" fill="#EDB264"/>
<path d="M192.951 110.91L192.92 116.756C191.583 118.414 189.944 119.802 188.088 120.845C183.578 123.466 177.681 124.811 171.74 124.811C166.989 124.811 162.197 123.945 158.072 122.186C157.94 122.13 157.821 122.049 157.721 121.946C157.621 121.843 157.543 121.721 157.491 121.587C157.439 121.454 157.414 121.311 157.418 121.168C157.422 121.024 157.454 120.883 157.513 120.752C157.629 120.489 157.845 120.282 158.113 120.177C158.381 120.072 158.68 120.077 158.944 120.192C167.487 123.833 179.557 123.31 187.007 118.957C190.766 116.742 192.889 113.896 192.951 110.91Z" fill="#D89C55"/>
<path d="M192.906 122.419L192.889 127.741V127.757C191.556 129.393 189.925 130.759 188.082 131.782C183.572 134.407 177.675 135.748 171.734 135.748C166.983 135.748 162.191 134.883 158.066 133.124C157.935 133.067 157.816 132.985 157.717 132.882C157.617 132.779 157.539 132.657 157.487 132.524C157.435 132.39 157.41 132.248 157.414 132.105C157.417 131.962 157.449 131.821 157.507 131.69C157.624 131.426 157.84 131.22 158.108 131.115C158.376 131.01 158.674 131.015 158.938 131.13C167.481 134.771 179.551 134.247 187.001 129.897C190.533 127.819 192.612 125.195 192.906 122.419Z" fill="#D89C55"/>
<path d="M192.596 233.156V237.474C191.314 238.948 189.789 240.19 188.088 241.146C183.578 243.768 177.681 245.109 171.74 245.109C166.989 245.109 162.196 244.247 158.072 242.488C157.817 242.366 157.619 242.151 157.52 241.887C157.421 241.622 157.427 241.329 157.539 241.07C157.65 240.81 157.858 240.604 158.117 240.495C158.377 240.385 158.669 240.381 158.932 240.482C167.475 244.124 179.545 243.583 186.995 239.247C189.935 237.536 191.858 235.452 192.596 233.156Z" fill="#D89C55"/>
<path d="M192.582 244.135V248.44C191.3 249.899 189.78 251.13 188.088 252.081C183.578 254.705 177.681 256.047 171.74 256.047C166.989 256.047 162.196 255.181 158.072 253.422C157.817 253.301 157.619 253.085 157.52 252.821C157.421 252.557 157.427 252.264 157.539 252.005C157.65 251.745 157.858 251.539 158.117 251.429C158.377 251.32 158.669 251.315 158.932 251.417C167.475 255.058 179.545 254.518 186.995 250.185C189.874 248.504 191.827 246.392 192.582 244.135Z" fill="#D89C55"/>
<path d="M146.491 103.841L116.466 292.951L0 228.249L30.0248 39.1389L146.491 103.841Z" fill="#F9AB64"/>
<path d="M156.18 100.253L39.7247 35.5538L39.001 35.8339L155.462 100.533C157.915 101.883 158.052 103.676 155.772 104.524C153.491 105.373 149.66 104.942 147.206 103.581L30.7486 38.8728L30.0332 39.1529L146.499 103.852C149.369 105.451 153.885 105.944 156.56 104.959C159.234 103.973 159.061 101.852 156.18 100.253Z" fill="#FFD6B8"/>
<path d="M37.9613 42.3907L39.0037 35.8143L41.3651 37.1307L37.9613 42.3907Z" fill="#58AEF5"/>
<path d="M155.464 100.519C157.91 101.878 158.049 103.67 155.774 104.51C153.5 105.351 149.657 104.931 147.212 103.572L31.5171 39.3013L39.7694 36.2484L155.464 100.519Z" fill="#FAF7FF"/>
<path d="M158.429 103.183L128.407 292.287C128.29 292.996 127.667 293.628 126.521 294.049C124.959 294.626 122.765 294.69 120.633 294.329C119.179 294.106 117.771 293.642 116.469 292.956L146.491 103.838C147.745 104.501 149.097 104.957 150.496 105.191C152.678 105.6 154.947 105.536 156.554 104.945C157.7 104.513 158.32 103.891 158.429 103.183Z" fill="#F9AB64"/>
<path d="M158.429 103.183L128.407 292.287C128.29 292.996 127.667 293.628 126.521 294.049C125.971 294.246 125.401 294.381 124.822 294.452C124.324 294.523 123.817 294.476 123.341 294.316C122.864 294.155 122.432 293.884 122.079 293.526C121.726 293.168 121.461 292.731 121.307 292.252C121.152 291.773 121.112 291.264 121.189 290.766C127.278 252.179 144.244 144.758 150.018 108.152C150.134 107.398 150.516 106.711 151.094 106.214C151.673 105.718 152.409 105.446 153.17 105.446C154.316 105.474 155.458 105.302 156.546 104.939C157.7 104.513 158.32 103.891 158.429 103.183Z" fill="#ED9145"/>
</g>
<defs>
<clipPath id="clip0_435_79">
<rect width="259" height="303" fill="white"/>
</clipPath>
</defs>
</svg>
