<svg width="247" height="317" viewBox="0 0 247 317" fill="none" xmlns="http://www.w3.org/2000/svg">
<g opacity="0.31" clip-path="url(#clip0_442_193)">
<g style="mix-blend-mode:multiply">
<path d="M4.23836 186.434L97.0936 137.599C102.71 134.351 111.797 134.351 117.383 137.599L242.829 210.576C248.415 213.824 248.384 219.092 242.768 222.34L149.912 271.174C144.29 274.422 135.203 274.422 129.623 271.174L4.17122 198.203C-1.41498 194.955 -1.38442 189.657 4.23836 186.434Z" fill="#F9F7FC"/>
</g>
<path d="M215.617 226.393C215.453 225.799 215.166 225.246 214.776 224.77C214.385 224.293 213.899 223.904 213.349 223.628L96.0874 158.567L59.3808 16.0423L57.1915 7.22757L176.026 73.1548C176.577 73.4316 177.064 73.8205 177.455 74.2967C177.847 74.773 178.135 75.3259 178.301 75.92L215.617 226.393Z" fill="#FF906E"/>
<path d="M176.441 74.8579C179.441 76.5244 179.636 79.9367 176.874 82.4639C174.111 84.9912 169.409 85.6992 166.409 84.0388L49.1536 18.9785L59.1794 9.82193L176.441 74.8579Z" fill="#FAF7FF"/>
<path d="M215.373 232.125C213.241 233.99 210.552 235.097 207.726 235.275C205.699 235.477 203.657 235.087 201.847 234.151L83.0001 168.224L45.6775 17.7515L164.53 83.6787C166.336 84.6127 168.374 85.0028 170.397 84.8019C173.229 84.6254 175.924 83.5182 178.063 81.6521C180.149 79.7353 180.935 77.379 180.429 75.3951L217.752 225.868C218.246 227.882 217.508 230.208 215.373 232.125Z" fill="#FFA683"/>
<path d="M177.502 71.8118L58.6428 5.88461L57.1793 7.22758L176.026 73.1548C179.027 74.8152 179.228 78.2336 176.465 80.7669C173.703 83.3002 169.001 83.9961 165.994 82.3296L47.1533 16.4024L45.6775 17.7454L164.53 83.6726C168.409 85.8214 174.483 84.8935 178.063 81.646C181.643 78.3984 181.374 73.9728 177.502 71.8118Z" fill="#FFBDA9"/>
<path d="M215.373 232.125C214.189 233.182 212.809 233.997 211.312 234.524C210.876 234.682 210.411 234.747 209.948 234.714C209.485 234.682 209.034 234.552 208.624 234.334C208.214 234.116 207.855 233.814 207.569 233.449C207.283 233.083 207.077 232.661 206.964 232.21L171.233 88.1471C171.035 87.3225 171.159 86.4533 171.581 85.7177C172.003 84.9822 172.69 84.4361 173.501 84.1915C175.19 83.6782 176.746 82.8034 178.063 81.6276C180.149 79.7108 180.935 77.3546 180.429 75.3706L217.752 225.843C218.246 227.882 217.508 230.208 215.373 232.125Z" fill="#FF906E"/>
<path d="M155.047 76.1887L154.529 255.792C154.529 253.466 152.998 251.14 149.937 249.376L37.0483 184.138L33.6697 20.9868L33.7245 2.23419L150.455 69.7547C153.517 71.5249 155.047 73.8629 155.047 76.1887Z" fill="#F4A660"/>
<path d="M150.425 73.0571C156.523 76.5793 156.554 82.3175 150.492 85.8397C144.43 89.3619 134.544 89.3619 128.452 85.8397L15.5876 20.5961L37.5421 7.8197L150.425 73.0571Z" fill="#FAF7FF"/>
<path d="M160.548 76.2009L160.042 255.822C160.042 258.941 157.981 262.048 153.913 264.417C149.034 267.249 142.326 268.403 135.978 267.878C131.813 267.593 127.759 266.413 124.092 264.417L7.28162 196.921L7.78784 17.2998L124.598 84.7958C128.112 86.713 131.989 87.8713 135.978 88.1959C142.497 88.8064 149.431 87.7015 154.425 84.7958C158.499 82.409 160.536 79.3202 160.548 76.2009Z" fill="#F9BE84"/>
<path d="M154.328 67.496L37.5299 0L33.7124 2.22811L150.455 69.7547C156.554 73.2769 156.554 79.0089 150.522 82.5372C144.491 86.0656 134.569 86.0594 128.47 82.5372L11.6786 15.0412L7.78784 17.2998L124.598 84.7958C132.843 89.5633 146.229 89.5633 154.425 84.7958C162.622 80.0283 162.585 72.2636 154.328 67.496Z" fill="#FFD9B6"/>
<path d="M160.542 76.207L160.457 107.858C160.444 107.898 160.444 107.94 160.457 107.98V110.08V113.309L160.06 255.816C160.06 258.935 158.005 262.042 153.931 264.411C150.667 266.206 147.079 267.333 143.375 267.725C142.448 267.834 141.509 267.745 140.62 267.464C139.73 267.183 138.91 266.717 138.213 266.096C137.517 265.475 136.959 264.713 136.578 263.861C136.197 263.008 136.001 262.085 136.002 261.151V94.868C136.011 93.186 136.656 91.5698 137.808 90.3452C138.96 89.1207 140.533 88.3788 142.21 88.2692C146.497 88.0374 150.679 86.8507 154.45 84.7958C158.493 82.409 160.53 79.3202 160.542 76.207Z" fill="#F4A660"/>
<g style="mix-blend-mode:multiply">
<path d="M176.813 296.471L229.991 303.216L240.139 274.208L187.442 267.628L176.813 296.471Z" fill="#F9F7FC"/>
</g>
<path d="M238.651 270.326L228.022 298.882C224.448 301.727 217.563 301.208 214.989 300.891C214.379 300.817 214.001 300.75 213.983 300.744L176.813 296.178L187.442 267.628L224.643 272.2C224.643 272.2 225.027 272.261 225.643 272.34C228.198 272.658 235.077 273.177 238.651 270.326Z" fill="#F9BE84"/>
<path d="M228.015 298.876L238.645 270.332L238.907 270.558L228.278 299.108L228.015 298.876Z" fill="#F7A965"/>
<path d="M228.022 298.876L228.278 299.108C224.619 302.032 217.593 301.501 214.983 301.177C214.373 301.104 213.989 301.037 213.977 301.037L176.813 296.471V296.178L213.983 300.744C213.983 300.744 214.373 300.811 214.989 300.891C217.563 301.208 224.448 301.727 228.022 298.876Z" fill="#F7A965"/>
<path d="M188.186 293.01C188.134 293.019 188.08 293.019 188.028 293.01C187.969 292.989 187.915 292.956 187.869 292.914C187.823 292.872 187.785 292.82 187.759 292.764C187.733 292.707 187.719 292.645 187.717 292.583C187.715 292.52 187.725 292.458 187.747 292.399L194.23 274.294C194.28 274.19 194.367 274.109 194.473 274.066C194.58 274.023 194.698 274.021 194.806 274.061C194.914 274.1 195.003 274.179 195.057 274.28C195.11 274.382 195.124 274.5 195.096 274.611L188.619 292.711C188.587 292.799 188.528 292.875 188.45 292.929C188.373 292.982 188.28 293.011 188.186 293.01Z" fill="#C67F32"/>
<path d="M195.206 294.231C195.153 294.239 195.1 294.239 195.047 294.231C194.988 294.21 194.934 294.177 194.888 294.135C194.842 294.092 194.806 294.041 194.78 293.984C194.754 293.927 194.74 293.865 194.739 293.803C194.738 293.74 194.749 293.678 194.773 293.62L198.993 282.114C199.012 282.054 199.044 281.998 199.086 281.951C199.128 281.904 199.179 281.867 199.237 281.841C199.294 281.815 199.357 281.802 199.42 281.801C199.483 281.801 199.545 281.814 199.603 281.839C199.662 281.859 199.716 281.891 199.763 281.934C199.809 281.976 199.847 282.027 199.872 282.084C199.898 282.142 199.912 282.204 199.913 282.266C199.913 282.329 199.901 282.391 199.877 282.449L195.663 293.956C195.624 294.043 195.559 294.116 195.477 294.165C195.395 294.214 195.301 294.237 195.206 294.231Z" fill="#C67F32"/>
<g style="mix-blend-mode:multiply">
<path d="M214.239 308.185L85.8663 271.48C84.0673 270.961 81.884 271.419 80.9876 272.487L76.9505 277.309C76.054 278.378 76.7797 279.66 78.5787 280.178L206.951 316.884C208.744 317.397 219.112 316.103 220.014 315.053C220.917 314.003 216.032 308.716 214.239 308.204V308.185Z" fill="#F9F7FC"/>
</g>
<path d="M80.9023 266.663C80.4998 266.547 79.9937 266.798 79.4448 267.445C78.1458 268.971 77.0968 272.145 77.1029 274.532C77.1029 275.905 77.4566 276.723 78.0055 276.876L196.865 310.694C196.322 310.542 195.968 309.724 195.968 308.35C195.968 305.963 197.005 302.789 198.304 301.263C198.853 300.616 199.365 300.366 199.767 300.482L80.9023 266.663Z" fill="#FFA683"/>
<path d="M196.84 310.712L77.9749 276.894C77.4322 276.742 77.0785 275.924 77.0785 274.55C77.0809 274.416 77.1142 274.284 77.1756 274.164C77.237 274.045 77.3249 273.941 77.4327 273.861C77.5405 273.78 77.6653 273.726 77.7973 273.702C77.9294 273.677 78.0653 273.684 78.1946 273.72L194.785 306.848C195.116 306.941 195.408 307.14 195.615 307.414C195.822 307.689 195.933 308.024 195.932 308.368C195.938 309.73 196.291 310.542 196.84 310.712Z" fill="#FF906E"/>
<path d="M206.268 307.257C206.427 307.062 206.561 307.154 206.561 307.453C206.556 307.773 206.453 308.083 206.268 308.344C206.104 308.533 205.976 308.448 205.97 308.143C205.976 307.824 206.081 307.515 206.268 307.257Z" fill="#2A2440"/>
<path d="M200.091 300.707C199.658 300.262 199.005 300.414 198.261 301.269C196.962 302.795 195.919 305.969 195.925 308.356C195.925 310.047 196.462 310.89 197.23 310.7L206.098 308.448L206.476 307.19L200.091 300.707Z" fill="#F9BE84"/>
<path d="M206.213 308.094L206.11 308.442L197.243 310.694C196.474 310.883 195.938 310.041 195.932 308.35C195.935 307.954 195.961 307.559 196.011 307.166L206.213 308.094Z" fill="#F4A660"/>
<path d="M206.457 307.154L210.299 308.252C210.469 308.302 210.611 308.416 210.697 308.571C210.783 308.725 210.804 308.907 210.757 309.077C210.734 309.161 210.694 309.24 210.64 309.31C210.585 309.379 210.518 309.436 210.441 309.479C210.365 309.521 210.28 309.548 210.193 309.558C210.106 309.567 210.018 309.559 209.934 309.534L206.079 308.436L206.457 307.154Z" fill="#87232F"/>
</g>
<defs>
<clipPath id="clip0_442_193">
<rect width="247" height="317" fill="white"/>
</clipPath>
</defs>
</svg>
