<svg width="147" height="128" viewBox="0 0 147 128" fill="none" xmlns="http://www.w3.org/2000/svg">
<path d="M38.4375 27.6898C36.7147 29.4811 35.3469 31.5815 34.4064 33.8802C34.4064 33.8802 27.7198 50.2844 24.7527 56.5179C21.7856 62.7515 26.1194 62.6306 26.1194 62.6306C26.1194 62.6306 18.1439 93.1596 9.68385 108.744C3.62863 119.967 1.146 124.086 0.255013 125.51C0.0567335 125.811 -0.0301733 126.171 0.00930792 126.529C0.0487892 126.887 0.212182 127.22 0.471271 127.47C0.903787 127.876 1.58715 128.049 2.60789 127.254L17.6335 109.434L46.9062 34.2601L38.4375 27.6898Z" fill="#FF743E"/>
<path d="M145.779 15.9652C145.779 15.9652 141.575 37.4115 99.6125 71.7997C99.6125 71.7997 75.9539 79.0175 48.7401 63.5199L50.1933 25.6264C50.1933 25.6264 101.836 30.1073 145.779 15.9652Z" fill="#A5A5A5"/>
<path d="M55.0288 14.6701C54.8059 14.6513 54.5814 14.6659 54.3627 14.7133C51.7676 15.2313 43.5585 23.7442 39.4928 28.0438C39.4928 28.0438 37.6157 29.9605 38.6278 31.575C41.5516 30.0123 50.7123 24.4522 55.0288 14.6701Z" fill="#CCCCCC"/>
<path d="M141.532 2.41022C141.532 2.41022 112.45 17.3293 93.6438 19.6777C74.838 22.0261 59.4924 19.2115 56.8281 17.7956C56.8281 17.7956 56.8973 14.8687 55.0288 14.6961C50.7036 24.4781 41.5516 30.0382 38.6624 31.601C39.3386 32.4314 40.2952 32.9871 41.3526 33.1637C41.3526 33.1637 35.4877 73.9064 9.52814 113.458C10.0799 114.143 10.7834 114.692 11.5834 115.06C12.3834 115.429 13.2581 115.607 14.1388 115.582C14.595 116.347 15.3131 116.921 16.1606 117.199C17.0081 117.476 17.9276 117.439 18.7494 117.092C19.3036 117.654 20.0283 118.016 20.8105 118.124C21.5927 118.232 22.3887 118.079 23.0745 117.688C23.0745 117.688 56.6723 83.8697 53.0652 27.8971C53.0652 27.8971 100.054 41.1672 145.805 16.0257C145.805 16.0257 146.869 14.1349 144.456 12.1577C144.746 11.3481 144.772 10.4673 144.53 9.64199C144.287 8.81669 143.789 8.08937 143.106 7.56457C143.106 7.56457 143.989 4.03336 141.532 2.41022Z" fill="white"/>
<path d="M143.305 1.93533C143.235 2.00514 143.157 2.06604 143.072 2.11665C115.832 18.02 93.7043 21.6462 79.9417 21.8966C64.9421 22.1729 56.4993 18.6848 56.1533 18.5381C55.9236 18.442 55.7316 18.2736 55.6066 18.0585C55.4817 17.8433 55.4306 17.5933 55.4613 17.3466C55.6257 15.9997 55.072 15.8357 54.8125 15.7493C54.5796 15.6912 54.3349 15.7001 54.1068 15.775C53.8787 15.8498 53.6765 15.9876 53.5236 16.1724C50.0635 20.1871 42.8837 26.7488 39.9686 29.3821C39.7621 29.5678 39.6198 29.8141 39.5623 30.0855C39.5048 30.357 39.535 30.6397 39.6485 30.893C39.7549 31.1463 39.9402 31.3588 40.1771 31.4987C40.4139 31.6387 40.6897 31.6988 40.9634 31.67H41.0585C41.2398 31.6435 41.4248 31.6594 41.5989 31.7163C41.773 31.7733 41.9315 31.8697 42.062 31.9981C42.1904 32.1279 42.2858 32.2867 42.3399 32.461C42.3941 32.6352 42.4056 32.82 42.3734 32.9996C38.6411 53.8872 31.9112 74.1286 22.3912 93.0992C15.2893 107.129 9.19943 115.072 9.13888 115.15C8.94478 115.365 8.67654 115.499 8.38778 115.525C8.09903 115.551 7.81106 115.467 7.5815 115.29C7.35194 115.114 7.1977 114.857 7.14964 114.571C7.10159 114.286 7.16326 113.993 7.32232 113.751C7.38287 113.673 13.3775 105.86 20.3756 92.0027C29.5944 73.635 36.1645 54.0584 39.8907 33.8543C39.2688 33.6802 38.7049 33.3429 38.2578 32.8776C37.8107 32.4123 37.4966 31.8359 37.3482 31.2084C37.1999 30.5809 37.2227 29.9251 37.4142 29.3094C37.6058 28.6937 37.9591 28.1404 38.4375 27.7071C41.3181 25.117 48.394 18.6158 51.8022 14.696C52.2418 14.1758 52.8228 13.7938 53.4753 13.5961C54.1277 13.3985 54.8235 13.3937 55.4786 13.5823C56.1554 13.7789 56.7476 14.1941 57.1625 14.7629C57.5774 15.3316 57.7914 16.0217 57.7709 16.725C60.1065 17.5365 67.9351 19.8677 80.0542 19.6259C93.514 19.3583 115.174 15.7666 141.913 0.165415C142.152 0.0203882 142.436 -0.0317722 142.712 0.01885C142.987 0.0694722 143.234 0.219348 143.406 0.439979C143.578 0.660609 143.663 0.936608 143.644 1.2155C143.626 1.49439 143.505 1.75671 143.305 1.9526V1.93533Z" fill="#FF9027"/>
<path d="M16.0159 112.594C15.9572 112.642 15.8839 112.668 15.8083 112.668C15.7326 112.668 15.6593 112.642 15.6007 112.594C15.5701 112.564 15.5457 112.529 15.5291 112.49C15.5125 112.45 15.504 112.408 15.504 112.365C15.504 112.323 15.5125 112.281 15.5291 112.241C15.5457 112.202 15.5701 112.166 15.6007 112.137C15.6612 112.059 21.8462 104.746 28.654 91.1911C37.928 72.4173 43.8222 52.162 46.0671 31.3506C46.0779 31.2666 46.1209 31.19 46.187 31.1369C46.2531 31.0838 46.3372 31.0583 46.4217 31.0656C46.465 31.0699 46.507 31.0828 46.5452 31.1034C46.5835 31.124 46.6173 31.152 46.6446 31.1857C46.672 31.2194 46.6924 31.2582 46.7046 31.2998C46.7168 31.3415 46.7206 31.3851 46.7158 31.4283C44.4434 52.322 38.5053 72.6536 29.173 91.4933C22.322 105.117 16.1024 112.473 16.0332 112.551L16.0159 112.594Z" fill="#CCCCCC"/>
<path d="M20.5227 114.615C20.4641 114.662 20.3907 114.688 20.3151 114.688C20.2395 114.688 20.1661 114.662 20.1075 114.615C20.0769 114.585 20.0526 114.549 20.036 114.51C20.0194 114.471 20.0108 114.428 20.0108 114.386C20.0108 114.343 20.0194 114.301 20.036 114.262C20.0526 114.222 20.0769 114.187 20.1075 114.157C25.9902 106.787 31.0326 98.7857 35.1417 90.3019C41.889 76.6778 49.7175 55.2229 48.7141 30.3749C48.7116 30.2885 48.7426 30.2044 48.8006 30.1401C48.8585 30.0758 48.9391 30.0362 49.0255 30.0296C49.1129 30.0294 49.1972 30.0622 49.2614 30.1214C49.3256 30.1807 49.365 30.262 49.3715 30.349C50.375 55.3869 42.5032 76.9109 35.7213 90.604C31.5897 99.1322 26.5181 107.174 20.6006 114.58L20.5227 114.615Z" fill="#CCCCCC"/>
<path d="M139.897 9.20493H139.845C121.649 18.9861 101.375 24.2876 80.7116 24.668C65.4957 24.8579 55.7036 22.0779 55.6257 22.0261C55.5844 22.0142 55.5459 21.9943 55.5125 21.9673C55.4791 21.9403 55.4515 21.9069 55.4313 21.869C55.4111 21.8311 55.3988 21.7896 55.395 21.7468C55.3913 21.7041 55.3962 21.6611 55.4095 21.6203C55.4354 21.5383 55.4925 21.4698 55.5685 21.4294C55.6446 21.3891 55.7334 21.3801 55.816 21.4044C55.9112 21.4044 65.6341 24.2104 80.7549 23.9946C101.311 23.618 121.478 18.343 139.577 8.6092C139.649 8.56972 139.733 8.55867 139.813 8.57824C139.893 8.5978 139.963 8.64656 140.009 8.71488C140.054 8.7832 140.073 8.86612 140.06 8.94726C140.047 9.0284 140.005 9.10186 139.94 9.15313L139.897 9.20493Z" fill="#CCCCCC"/>
<path d="M142.189 13.7031H142.129C122.914 23.2965 101.694 28.208 80.2099 28.0352C64.4317 27.8107 54.3714 24.6507 54.259 24.5817C54.2177 24.57 54.1794 24.55 54.1462 24.5229C54.1131 24.4957 54.086 24.4621 54.0665 24.424C54.047 24.3859 54.0356 24.3442 54.033 24.3015C54.0304 24.2588 54.0366 24.216 54.0513 24.1759C54.0773 24.0939 54.1344 24.0254 54.2104 23.985C54.2865 23.9447 54.3753 23.9357 54.4579 23.96C54.5617 23.96 64.5442 27.1286 80.2359 27.3445C101.594 27.5176 122.689 22.6356 141.791 13.0988C141.865 13.0518 141.954 13.0359 142.039 13.0545C142.124 13.0732 142.199 13.1248 142.246 13.1981C142.293 13.2713 142.309 13.3603 142.29 13.4453C142.271 13.5303 142.22 13.6044 142.146 13.6513L142.189 13.7031Z" fill="#CCCCCC"/>
</svg>
