<svg width="115" height="135" viewBox="0 0 115 135" fill="none" xmlns="http://www.w3.org/2000/svg">
<g clip-path="url(#clip0_355_2195)">
<path d="M1.27558 57.4259C1.27558 57.4259 -1.35999 55.8414 0.947331 50.8067L17.9615 11.8415C17.9615 11.8415 19.3402 8.79436 21.2536 10.6226L33.1279 24.1986L1.27558 57.4259Z" fill="#EA7F26"/>
<path d="M3.34845 56.1695L20.6627 13.9791C23.446 13.5392 26.0785 12.4224 28.3289 10.7271C30.5793 9.03182 32.3786 6.80984 33.5686 4.25653L36.8232 40.034C36.8232 40.034 28.8133 57.4259 3.34845 56.1695Z" fill="#CCCCCC"/>
<path d="M105.789 131.193C105.789 131.193 114.315 126.328 114.916 108.964C115.516 91.6001 113.255 78.7836 105.358 66.7734C98.408 56.2445 47.5907 11.2039 35.754 0.590686C35.464 0.332252 35.1164 0.147059 34.7401 0.0506879C34.3638 -0.0456835 33.9699 -0.0504339 33.5914 0.0368109C33.2129 0.124056 32.8608 0.300768 32.5647 0.552117C32.2687 0.803466 32.0371 1.12212 31.8897 1.48136L21.3755 31.8678L75.5693 80.0681L105.789 131.193Z" fill="#FA9A4C"/>
<path d="M18.1865 49.4472C16.3237 51.5459 14.0398 53.2291 11.4833 54.3873C8.92689 55.5455 6.15517 56.1527 3.34845 56.1695L85.4364 128.943C88.4136 131.373 92.2161 132.557 96.047 132.246C99.8779 131.936 103.44 130.155 105.986 127.277C108.533 124.4 109.866 120.648 109.707 116.81C109.548 112.971 107.909 109.343 105.133 106.686L23.045 33.9211C23.3687 36.7049 23.1035 39.5256 22.2665 42.2003C21.4295 44.875 20.0394 47.344 18.1865 49.4472Z" fill="white"/>
<path d="M24.0862 31.7085L106.728 104.998C108.438 106.489 109.836 108.304 110.841 110.338C111.846 112.372 112.438 114.585 112.584 116.849C112.729 119.112 112.424 121.383 111.688 123.528C110.951 125.674 109.796 127.653 108.291 129.35C106.785 131.048 104.958 132.43 102.915 133.419C100.872 134.407 98.6542 134.981 96.3883 135.108C94.1224 135.235 91.8537 134.912 89.7133 134.158C87.5728 133.404 85.6029 132.234 83.917 130.715L1.285 57.4634C1.07428 57.2999 0.899408 57.095 0.771037 56.8613C0.642666 56.6276 0.563606 56.3701 0.538729 56.1046C0.513852 55.8391 0.543601 55.5714 0.626317 55.3179C0.709032 55.0645 0.842922 54.8307 1.0196 54.6309C1.19628 54.4312 1.41201 54.2698 1.65356 54.1567C1.8951 54.0436 2.15726 53.9812 2.42387 53.9734C2.69048 53.9656 2.95593 54.0125 3.20369 54.1113C3.45144 54.21 3.67623 54.3585 3.86432 54.5476L86.4963 127.809C89.1356 130.149 92.5966 131.345 96.118 131.134C99.6395 130.923 102.933 129.322 105.274 126.684C107.614 124.046 108.811 120.586 108.6 117.066C108.389 113.546 106.787 110.254 104.148 107.914L21.5163 34.6618C21.1667 34.3104 20.964 33.8392 20.9494 33.3438C20.9349 32.8484 21.1097 32.3661 21.4381 31.9948C21.7665 31.6236 22.2239 31.3912 22.7176 31.345C23.2112 31.2988 23.7039 31.4421 24.0956 31.746L24.0862 31.7085Z" fill="#FFC799"/>
<g opacity="0.5">
<path d="M5.36063 51.4647L89.0607 125.67C89.3824 125.955 89.8731 125.927 90.1566 125.607C90.4402 125.288 90.4093 124.797 90.0876 124.512L6.38751 50.3073C6.06585 50.0221 5.57526 50.0501 5.2917 50.3697C5.00813 50.6893 5.03897 51.1795 5.36063 51.4647Z" fill="#CCCCCC"/>
<path d="M10.1888 49.5245L93.8888 123.729C94.2105 124.015 94.7012 123.987 94.9848 123.667C95.2683 123.347 95.2374 122.857 94.9157 122.572L11.2157 48.3672C10.8941 48.082 10.4034 48.1099 10.1198 48.4295C9.83626 48.7491 9.86718 49.2394 10.1888 49.5245Z" fill="#CCCCCC"/>
<path d="M14.8234 47.4201L98.5234 121.625C98.8451 121.91 99.3357 121.882 99.6193 121.563C99.9028 121.243 99.872 120.753 99.5503 120.468L15.8502 46.2628C15.5286 45.9776 15.038 46.0055 14.7544 46.3251C14.4709 46.6447 14.5017 47.1349 14.8234 47.4201Z" fill="#CCCCCC"/>
<path d="M16.364 42.5726L100.064 116.778C100.386 117.063 100.876 117.035 101.16 116.715C101.443 116.396 101.413 115.905 101.091 115.62L17.3908 41.4153C17.0692 41.1301 16.5786 41.158 16.295 41.4776C16.0115 41.7972 16.0423 42.2875 16.364 42.5726Z" fill="#CCCCCC"/>
<path d="M17.7016 37.5516L101.402 111.756C101.723 112.042 102.214 112.014 102.498 111.694C102.781 111.375 102.75 110.884 102.428 110.599L18.7285 36.3942C18.4068 36.1091 17.9161 36.1369 17.6326 36.4565C17.349 36.7761 17.3799 37.2664 17.7016 37.5516Z" fill="#CCCCCC"/>
</g>
</g>
<defs>
<clipPath id="clip0_355_2195">
<rect width="115" height="135" fill="white"/>
</clipPath>
</defs>
</svg>
