<svg width="94" height="120" viewBox="0 0 94 120" fill="none" xmlns="http://www.w3.org/2000/svg">
<g clip-path="url(#clip0_355_2190)">
<path d="M15.3867 48.3026L40.1249 21.3285L29.1369 1.95389L4.52856 51.2334C9.76714 52.366 15.3867 48.3026 15.3867 48.3026Z" fill="#E5E5E5"/>
<path d="M28.7212 65.7406L71.1494 23.5764L67.8158 16.7118L24.972 59.2824C16.0274 65.1873 9.61992 65.4207 5.862 64.5562L9.58529 71.0058C13.3519 71.8617 19.768 71.6455 28.7212 65.7406Z" fill="#FFC147"/>
<path d="M24.972 59.2824L67.8504 16.7118L61.6161 3.91642C61.4021 3.47609 61.0835 3.09474 60.688 2.80558C60.2926 2.51641 59.8323 2.32824 59.3472 2.25747C58.8622 2.18671 58.3672 2.23549 57.9054 2.39958C57.4436 2.56367 57.0291 2.83807 56.6979 3.19886L40.1249 21.3285L15.3867 48.3026C15.3867 48.3026 9.76713 52.366 4.53721 51.2421L29.1455 1.96255C29.1432 1.94244 29.1432 1.92214 29.1455 1.90203C28.9541 1.38485 28.6158 0.934636 28.172 0.606463C27.7282 0.278291 27.1983 0.0864066 26.647 0.0542976C26.0957 0.0221886 25.547 0.15125 25.0681 0.42568C24.5891 0.700109 24.2006 1.10799 23.9503 1.59943L0.917827 48.4409C0.302284 49.6921 0.00478171 51.0755 0.051596 52.4687C0.0984103 53.8619 0.488102 55.2222 1.18625 56.4294L5.862 64.5562C9.61993 65.4208 16.0274 65.1873 24.972 59.2824Z" fill="#F8AC64"/>
<path d="M93.6883 69.8386L71.1754 23.5764L28.7472 65.7406C19.794 71.6455 13.3778 71.8617 9.61127 71.0317L35.4318 115.677C36.1021 116.843 37.0407 117.833 38.1699 118.565C39.2991 119.297 40.5866 119.751 41.9259 119.888C46.176 120.322 50.4654 119.627 54.36 117.873L93.2553 73.1239C93.6437 72.6799 93.892 72.1311 93.969 71.5466C94.0461 70.9621 93.9484 70.3679 93.6883 69.8386Z" fill="#FFA34C"/>
</g>
<defs>
<clipPath id="clip0_355_2190">
<rect width="94" height="120" fill="white"/>
</clipPath>
</defs>
</svg>
