<svg width="170" height="31" viewBox="0 0 170 31" fill="none" xmlns="http://www.w3.org/2000/svg">
<g clip-path="url(#clip0_355_2429)">
<path d="M2.6214 0L0.522489 5.7295L0 7.16113H5.75932L6.2848 5.7295H10.602L4.31427 22.918H2.87518L0.25378 30.0791H11.7724L14.3938 22.918H12.9518L19.2425 5.7295H23.5598L23.0373 7.16113H28.7966L29.3191 5.7295L31.415 0H2.6214Z" fill="#F29001"/>
<path d="M47.6271 0L45.0087 7.16113H47.8868L38.067 14.3223L40.6884 7.16113H42.1275L44.7489 0H33.2303L30.6089 7.16113H32.048L26.2856 22.918H24.8466L22.2252 30.0791H33.7438L36.3652 22.918H34.9231L35.9711 20.0518L40.7601 16.5618L42.1215 22.918H39.2434L36.622 30.0791H51.0218L53.6402 22.918H50.762L48.2302 11.1115L53.6462 7.16113H57.9664L60.5848 0H47.6271Z" fill="#F29001"/>
<path d="M68.5446 18.6201H75.746C75.746 18.6201 77.1851 18.6202 76.3998 20.7676C75.6146 22.9151 74.1725 22.918 74.1725 22.918H66.9891L68.5446 18.6201ZM72.7394 7.17006H79.9378C79.9378 7.17006 81.3769 7.17005 80.5917 9.3175C79.8065 11.4649 78.3644 11.4679 78.3644 11.4679H71.169L72.7394 7.17006ZM63.8392 0.00892692L61.2208 7.17006H64.099L58.3307 22.9121H55.4495L52.8281 30.0732H75.8654C75.8654 30.0732 81.9472 29.1821 84.3775 22.5527C87.1273 15.0321 82.8339 15.0321 82.8339 15.0321C82.8339 15.0321 87.5065 13.9985 89.88 7.51459C92.3163 0.849479 86.8705 -0.00592041 86.8705 -0.00592041L63.8392 0.00892692Z" fill="#F29001"/>
<path d="M93.633 26.4258C93.5893 26.583 93.5207 26.7324 93.43 26.8683C92.7011 27.9254 91.9106 28.939 91.0624 29.9039C90.9065 30.0936 90.7108 30.2471 90.489 30.3538C90.2673 30.4605 90.0248 30.5178 89.7786 30.5217C89.6212 30.5328 89.4635 30.5047 89.3198 30.4399C89.176 30.3751 89.0508 30.2758 88.9553 30.1508C88.8599 30.0258 88.7973 29.8791 88.7732 29.7239C88.7491 29.5688 88.7642 29.4102 88.8172 29.2623C88.8846 29.0236 89.0073 28.8039 89.1754 28.6207C89.9456 27.7768 90.6596 26.8838 91.3132 25.9476C91.4617 25.7158 91.6678 25.5261 91.9115 25.3966C92.1552 25.267 92.4283 25.2021 92.7045 25.208C92.8556 25.1977 93.007 25.2248 93.145 25.287C93.2831 25.3491 93.4035 25.4443 93.4955 25.5641C93.5875 25.6838 93.6482 25.8244 93.6722 25.9732C93.6962 26.1221 93.6827 26.2745 93.633 26.4169V26.4258ZM98.3533 22.7487C97.9831 24.0635 97.1103 24.7219 95.7349 24.7239H93.1284C91.7491 24.7239 91.2475 24.0645 91.6147 22.7487L94.8631 11.1026C95.2313 9.78577 96.1051 9.12739 97.4845 9.12739H100.097C101.48 9.12739 101.987 9.78577 101.617 11.1026L98.3533 22.7487ZM98.4787 13.7163L98.9624 11.9906C99.052 11.6609 98.9266 11.4976 98.5802 11.4976H97.7801C97.6289 11.4852 97.4783 11.5286 97.3572 11.6196C97.2361 11.7105 97.1528 11.8426 97.1232 11.9906L96.6426 13.7044L98.4787 13.7163ZM97.2845 17.9607L97.8637 15.8816H96.0275L95.4483 17.9607H97.2845ZM96.1738 21.9349L96.6754 20.1319H94.8422L94.3406 21.9349C94.2481 22.2645 94.3735 22.4279 94.7168 22.4279H95.517C95.6692 22.4418 95.8212 22.3991 95.9436 22.308C96.066 22.217 96.1502 22.084 96.1798 21.9349H96.1738ZM97.4696 28.8524C97.3547 29.1904 97.1405 29.4864 96.8546 29.7019C96.5688 29.9174 96.2245 30.0426 95.8663 30.0613C95.6538 30.0864 95.4394 30.0322 95.2647 29.9094C95.0899 29.7865 94.9671 29.6036 94.9198 29.396C94.7387 28.7544 94.5506 27.8901 94.3555 26.803C94.3438 26.654 94.3589 26.5041 94.4003 26.3604C94.5005 26.0223 94.7105 25.7267 94.9975 25.5199C95.269 25.2991 95.6082 25.1775 95.9589 25.1753C96.5082 25.1753 96.8187 25.413 96.8933 25.8912C97.0214 26.6885 97.2213 27.4728 97.4905 28.2346C97.545 28.4381 97.5377 28.6531 97.4696 28.8524ZM113.747 25.4723C113.644 25.8017 113.434 26.0878 113.15 26.2862C112.881 26.5031 112.547 26.6244 112.201 26.6307H111.631L111.222 28.0861C110.959 29.0069 110.612 29.6237 110.182 29.9366C109.75 30.2514 109.111 30.4058 108.269 30.4058H106.594C106.456 30.4126 106.319 30.3871 106.194 30.3314C106.068 30.2756 105.958 30.1912 105.871 30.0851C105.786 29.974 105.73 29.8436 105.708 29.7057C105.687 29.5678 105.699 29.4267 105.746 29.295C105.841 28.9841 106.04 28.7148 106.31 28.5316C106.566 28.3315 106.88 28.219 107.206 28.2109H107.773C108.019 28.2418 108.267 28.1849 108.475 28.0505C108.638 27.8255 108.75 27.5681 108.803 27.296L108.991 26.6307H101.757L101.002 29.3217C100.884 29.6749 100.662 29.9842 100.364 30.2086C100.066 30.433 99.7061 30.5619 99.3326 30.5781C99.1756 30.5878 99.0185 30.5593 98.8749 30.4952C98.7313 30.431 98.6056 30.3331 98.5086 30.2098C98.4136 30.0841 98.3513 29.9369 98.3274 29.7814C98.3034 29.626 98.3185 29.467 98.3712 29.3187L99.1236 26.6278H98.7116C98.569 26.6371 98.4263 26.6103 98.2969 26.5501C98.1674 26.4899 98.0554 26.3981 97.9712 26.2832C97.8865 26.1673 97.8312 26.0329 97.8099 25.8912C97.7886 25.7495 97.8019 25.6048 97.8488 25.4694C97.946 25.1466 98.1475 24.8648 98.422 24.6674C98.6873 24.4556 99.0164 24.3385 99.3565 24.3348H99.7685L100.799 20.6577C101.124 19.5052 101.885 18.929 103.092 18.929H106.244L106.48 18.0914H101.055C100.923 18.1016 100.79 18.0799 100.668 18.0282C100.546 17.9765 100.438 17.8963 100.354 17.7944C100.274 17.683 100.222 17.554 100.204 17.4185C100.185 17.2829 100.2 17.1449 100.246 17.0162C100.343 16.7165 100.53 16.4538 100.782 16.264C101.034 16.0742 101.339 15.9666 101.655 15.9559H104.292L104.558 15.0173H102.694C102.574 15.0262 102.453 15.0051 102.343 14.9559C102.233 14.9066 102.137 14.8307 102.063 14.7351C101.99 14.6395 101.942 14.5272 101.923 14.4084C101.905 14.2897 101.916 14.1681 101.957 14.0549C102.047 13.7848 102.218 13.5483 102.446 13.3765C102.674 13.2047 102.949 13.1057 103.235 13.0926H105.098L105.346 12.2015H103.071C102.942 12.2098 102.813 12.1871 102.695 12.1354C102.577 12.0837 102.474 12.0045 102.393 11.9045C102.314 11.7972 102.263 11.6724 102.244 11.5409C102.225 11.4094 102.238 11.2753 102.282 11.1501C102.371 10.8559 102.556 10.5996 102.808 10.4224C103.051 10.2329 103.35 10.1285 103.659 10.1254H105.937L106.047 9.73033C106.153 9.38383 106.37 9.08133 106.665 8.86896C106.953 8.63198 107.313 8.50084 107.686 8.49769C107.838 8.48269 107.991 8.50554 108.131 8.56415C108.271 8.62276 108.394 8.71528 108.49 8.83332C108.579 8.95629 108.637 9.09852 108.66 9.24827C108.682 9.39802 108.669 9.55102 108.621 9.69469L108.511 10.0897H111.565L111.675 9.69469C111.781 9.34819 111.998 9.04569 112.293 8.83332C112.582 8.59591 112.943 8.46476 113.317 8.46205C113.47 8.45339 113.621 8.48286 113.759 8.54772C113.897 8.61259 114.016 8.71078 114.106 8.83332C114.195 8.95629 114.253 9.09852 114.276 9.24827C114.298 9.39802 114.285 9.55102 114.237 9.69469L114.127 10.0897H116.402C116.532 10.0822 116.662 10.1052 116.782 10.1568C116.902 10.2084 117.008 10.2871 117.091 10.3867C117.173 10.4872 117.228 10.6065 117.251 10.7338C117.274 10.861 117.264 10.992 117.223 11.1144C117.131 11.4207 116.937 11.6867 116.673 11.8689C116.425 12.0575 116.123 12.1616 115.81 12.1659H113.532L113.282 13.0569H115.195C115.316 13.048 115.437 13.0691 115.547 13.1183C115.657 13.1676 115.753 13.2435 115.827 13.3391C115.9 13.4347 115.948 13.547 115.966 13.6658C115.985 13.7846 115.973 13.9061 115.933 14.0193C115.843 14.2901 115.672 14.5272 115.443 14.6991C115.214 14.871 114.938 14.9695 114.652 14.9816H112.738L112.475 15.9202H115.163C115.297 15.9108 115.431 15.9328 115.555 15.9844C115.679 16.036 115.789 16.1157 115.876 16.2172C115.958 16.3221 116.013 16.446 116.034 16.5773C116.056 16.7087 116.043 16.8433 115.999 16.9687C115.911 17.2848 115.714 17.5602 115.443 17.7469C115.185 17.9397 114.871 18.0439 114.548 18.0439H109.039L108.803 18.8815H112.007C113.213 18.8815 113.653 19.4577 113.326 20.6101L112.287 24.2872H112.855C112.998 24.2795 113.142 24.3056 113.274 24.3634C113.406 24.4212 113.522 24.5091 113.613 24.6199C113.707 24.7366 113.77 24.8759 113.793 25.0239C113.817 25.1718 113.801 25.3234 113.747 25.4634V25.4723ZM105.525 21.7715L105.794 20.8091H103.832C103.704 20.7993 103.576 20.8364 103.473 20.9135C103.37 20.9907 103.3 21.1025 103.274 21.2279L103.121 21.7715H105.525ZM104.767 24.4447L105.044 23.4586H102.656L102.378 24.4447H104.767ZM110.711 13.0688L110.962 12.1778H107.907L107.657 13.0688H110.711ZM109.902 15.9321L110.168 14.9935H107.116L106.853 15.9321H109.902ZM110.38 21.7566L110.532 21.2131C110.609 20.9339 110.505 20.7943 110.212 20.7943H108.191L107.919 21.7566H110.38ZM109.618 24.4298L109.899 23.4437H107.445L107.167 24.4298H109.618Z" fill="#3F3B3A"/>
<path d="M143.484 13.149C143.381 13.4785 143.171 13.7646 142.887 13.9629C142.615 14.1793 142.277 14.2976 141.929 14.2985H140.558L140.382 14.9133C140.05 16.0658 139.281 16.642 138.074 16.642H132.058L131.834 17.432H139.275C139.382 17.4255 139.49 17.4456 139.588 17.4904C139.686 17.5352 139.771 17.6035 139.836 17.689C139.901 17.7746 139.944 17.8748 139.96 17.9808C139.977 18.0867 139.967 18.1951 139.931 18.2964C139.846 18.5367 139.691 18.7466 139.486 18.8997C139.281 19.0529 139.035 19.1427 138.779 19.1577H131.339L131.121 19.9418H140.436C140.558 19.9359 140.679 19.9583 140.791 20.0073C140.902 20.0563 141 20.1305 141.078 20.224C141.153 20.3189 141.202 20.4308 141.222 20.5497C141.242 20.6685 141.231 20.7904 141.191 20.9042C141.105 21.1841 140.926 21.4268 140.684 21.5933C140.455 21.7788 140.17 21.8833 139.875 21.8903H118.554C118.433 21.8975 118.313 21.874 118.204 21.822C118.094 21.7701 118 21.6914 117.93 21.5933C117.859 21.4948 117.813 21.3808 117.795 21.261C117.778 21.1411 117.789 21.0188 117.829 20.9042C117.91 20.6291 118.083 20.3895 118.318 20.224C118.543 20.0453 118.822 19.9461 119.11 19.9418H128.195L128.413 19.1755H121.6C121.492 19.1809 121.386 19.1601 121.288 19.1151C121.191 19.0701 121.106 19.0021 121.041 18.9171C120.977 18.8338 120.934 18.7362 120.916 18.6326C120.899 18.5291 120.907 18.4228 120.94 18.3231C121.025 18.0824 121.179 17.872 121.383 17.7183C121.588 17.5645 121.833 17.4743 122.089 17.4588H128.911L129.138 16.6687H122.468C122.364 16.6747 122.259 16.6554 122.163 16.6125C122.068 16.5696 121.984 16.5043 121.919 16.4222C121.856 16.3381 121.815 16.2399 121.8 16.1363C121.784 16.0327 121.794 15.9269 121.829 15.8281C121.908 15.5917 122.056 15.3845 122.256 15.2344C122.455 15.0842 122.696 14.9981 122.946 14.9876H129.616L129.864 14.1232H120.814C120.693 14.1301 120.571 14.1065 120.461 14.0546C120.351 14.0027 120.256 13.9242 120.184 13.8262C120.114 13.7267 120.069 13.6123 120.051 13.4922C120.033 13.372 120.044 13.2494 120.083 13.1342C120.165 12.8593 120.339 12.6205 120.575 12.457C120.798 12.2719 121.077 12.1672 121.367 12.1599H130.419L130.667 11.2956H124.069C123.955 11.3029 123.84 11.282 123.736 11.2349C123.632 11.1877 123.541 11.1158 123.472 11.0253C123.402 10.9307 123.357 10.8205 123.34 10.7045C123.324 10.5885 123.336 10.4702 123.376 10.36C123.453 10.0995 123.617 9.87307 123.842 9.71845C124.054 9.54743 124.318 9.45132 124.591 9.44518H131.192V9.42143C131.314 9.02456 131.562 8.67814 131.9 8.43533C132.23 8.16604 132.643 8.01723 133.07 8.01357C133.243 8.00437 133.416 8.0381 133.572 8.11173C133.728 8.18537 133.864 8.29658 133.966 8.43533C134.068 8.57607 134.135 8.73907 134.16 8.91066C134.185 9.08225 134.169 9.25741 134.112 9.42143V9.44518H140.137C141.344 9.44518 141.782 10.0214 141.451 11.1738L141.218 11.9877H142.589C142.736 11.9699 142.885 11.9906 143.022 12.0477C143.158 12.1047 143.278 12.1962 143.368 12.3131C143.459 12.4299 143.517 12.5682 143.537 12.7142C143.558 12.8603 143.539 13.0091 143.484 13.146V13.149ZM136.713 28.2584C136.383 29.4108 135.615 29.987 134.411 29.987H119.611C118.417 29.987 117.979 29.4108 118.297 28.2584L119.39 24.3971C119.715 23.2447 120.481 22.6685 121.689 22.6685H136.51C137.704 22.6685 138.141 23.2447 137.821 24.3971L136.713 28.2584ZM134.68 25.3714L134.841 24.8041C134.922 24.5249 134.814 24.3853 134.521 24.3853H122.701C122.573 24.3754 122.445 24.4126 122.343 24.4897C122.24 24.5668 122.169 24.6786 122.143 24.8041L121.982 25.3714H134.68ZM134.026 27.6436L134.217 26.9753H121.525L121.328 27.6347C121.25 27.9139 121.355 28.0534 121.647 28.0534H133.462C133.591 28.0648 133.72 28.0284 133.824 27.9511C133.928 27.8739 134 27.7612 134.026 27.6347V27.6436ZM138.466 12.1718L138.591 11.7293C138.672 11.4322 138.567 11.3075 138.271 11.3075H133.59L133.342 12.1718H138.466ZM137.779 14.5658L137.904 14.1203H132.787L132.539 14.9846H137.218C137.348 14.9942 137.477 14.9559 137.58 14.8771C137.684 14.7982 137.754 14.6843 137.779 14.5569V14.5658Z" fill="#3F3B3A"/>
<path d="M165.112 27.6347C164.766 28.8227 164.359 29.596 163.891 29.9544C163.493 30.2494 162.789 30.3969 161.778 30.3969H160.285C160.121 30.4102 159.957 30.3821 159.807 30.3151C159.658 30.2481 159.528 30.1445 159.429 30.014C159.331 29.8835 159.268 29.7303 159.245 29.5687C159.222 29.4071 159.241 29.2425 159.299 29.0901C159.422 28.7204 159.655 28.397 159.968 28.1634C160.281 27.9297 160.658 27.797 161.049 27.7832H161.539C161.829 27.8162 162.122 27.7558 162.375 27.6109C162.584 27.3234 162.729 26.9941 162.799 26.6456L167.008 12.261C167.128 11.8511 166.973 11.6461 166.543 11.6461H159.843C159.654 11.632 159.466 11.6865 159.315 11.7996C159.163 11.9126 159.058 12.0766 159.019 12.261L154.054 29.3871C153.94 29.7396 153.715 30.046 153.412 30.2603C153.127 30.4984 152.769 30.6335 152.397 30.6435C152.239 30.6529 152.082 30.6227 151.94 30.5558C151.797 30.4888 151.674 30.3872 151.582 30.2603C151.49 30.1361 151.431 29.992 151.407 29.84C151.384 29.688 151.398 29.5327 151.447 29.3871L153.931 20.8329C153.8 21.0815 153.602 21.289 153.36 21.4327C153.118 21.5763 152.84 21.6504 152.558 21.6468C152.342 21.6597 152.129 21.5905 151.963 21.4532C151.797 21.3158 151.689 21.1206 151.662 20.9072V20.8567C151.334 20.922 150.91 20.9903 150.393 21.0557L147.936 29.5415C147.822 29.8999 147.594 30.2123 147.288 30.4326C146.995 30.6732 146.629 30.8073 146.249 30.8128C146.088 30.8249 145.926 30.7964 145.779 30.73C145.632 30.6635 145.504 30.5613 145.407 30.4326C145.317 30.3044 145.259 30.157 145.237 30.0022C145.214 29.8475 145.229 29.6897 145.279 29.5415L147.631 21.4002C146.736 21.4834 145.927 21.5487 145.174 21.5963C145.009 21.614 144.842 21.5932 144.687 21.5354C144.531 21.4777 144.392 21.3846 144.279 21.2636C144.173 21.1435 144.102 20.9975 144.073 20.8408C144.043 20.6841 144.057 20.5224 144.111 20.3725C144.218 20.0152 144.439 19.7023 144.741 19.4815C145.022 19.2496 145.374 19.1188 145.739 19.1102H145.792C146.376 18.5855 147.151 17.8706 148.118 16.9657C147.617 16.0133 147.068 15.0757 146.473 14.153C146.391 14.0261 146.339 13.8828 146.319 13.7334C146.3 13.584 146.313 13.4321 146.36 13.2886C146.48 12.9349 146.705 12.6254 147.005 12.4008C147.304 12.1761 147.666 12.0466 148.041 12.0293C148.244 12.0242 148.444 12.0757 148.62 12.1778C149.814 10.8947 150.721 9.8749 151.34 9.11849C151.495 8.91288 151.696 8.74582 151.927 8.63039C152.158 8.51497 152.413 8.45432 152.671 8.45317C152.822 8.44443 152.973 8.4723 153.111 8.53438C153.249 8.59647 153.369 8.69091 153.462 8.80959C153.552 8.93505 153.61 9.08022 153.632 9.23277C153.653 9.38532 153.637 9.54072 153.585 9.68579C153.513 9.91621 153.389 10.1274 153.224 10.3036C152.489 11.1095 151.327 12.3263 149.736 13.954C149.847 14.1678 150.011 14.4975 150.226 14.9401C150.996 14.1856 152.014 13.1411 153.28 11.8065C153.431 11.6298 153.619 11.4877 153.83 11.3897C154.041 11.2918 154.271 11.2405 154.504 11.2392C154.655 11.2305 154.806 11.2588 154.943 11.3214C155.081 11.3841 155.201 11.4792 155.293 11.5986C155.383 11.7188 155.441 11.8592 155.464 12.0074C155.486 12.1555 155.471 12.3069 155.421 12.4481C155.34 12.7034 155.194 12.9335 154.997 13.1164C153.761 14.348 151.723 16.2974 148.882 18.9647C149.746 18.8993 150.588 18.8162 151.408 18.7152C151.384 18.5043 151.337 18.1894 151.268 17.7796C151.242 17.6312 151.25 17.4788 151.292 17.334C151.384 17.0192 151.582 16.7455 151.853 16.5588C152.111 16.3647 152.426 16.2603 152.749 16.2618C152.944 16.2348 153.142 16.2837 153.301 16.3982C153.461 16.5127 153.57 16.6841 153.606 16.8766C153.771 17.6192 153.943 18.7469 154.122 20.2597L156.687 11.4234C157.113 9.9442 158.103 9.20462 159.658 9.20462H168.2C169.752 9.20462 170.312 9.9442 169.881 11.4234L165.112 27.6347ZM146.383 23.4408C145.792 24.8982 145.122 26.323 144.377 27.7089C144.25 27.9846 144.046 28.2176 143.788 28.3795C143.53 28.5414 143.231 28.6252 142.926 28.6208C142.778 28.6343 142.629 28.6097 142.493 28.5494C142.357 28.4891 142.239 28.395 142.15 28.2762C142.071 28.1574 142.021 28.0222 142.004 27.8811C141.986 27.74 142.001 27.5967 142.048 27.4624C142.085 27.3324 142.138 27.2077 142.207 27.0911C142.988 25.8293 143.671 24.5096 144.249 23.1437C144.349 22.865 144.536 22.6256 144.784 22.4609C145.031 22.2961 145.325 22.2148 145.622 22.2289C145.764 22.22 145.905 22.2485 146.032 22.3117C146.159 22.3748 146.267 22.4702 146.345 22.5883C146.422 22.7158 146.467 22.8607 146.473 23.0096C146.48 23.1585 146.449 23.3068 146.383 23.4408ZM152.002 26.6723C151.992 26.7637 151.974 26.8541 151.949 26.9426C151.86 27.2457 151.661 27.5051 151.39 27.6703C151.138 27.8542 150.835 27.9578 150.522 27.9673C149.936 27.9673 149.667 27.6792 149.712 27.103C149.828 25.8199 150.012 24.4714 150.265 23.0576C150.32 22.7386 150.501 22.4545 150.766 22.2675C151.017 22.0765 151.323 21.9722 151.638 21.9705C152.235 21.9705 152.48 22.2497 152.403 22.8081C152.194 24.2962 152.059 25.5852 152.002 26.6723ZM164.244 20.4349C164.131 20.7692 163.919 21.0616 163.636 21.2737C163.353 21.4858 163.012 21.6076 162.658 21.623H160.747L160.15 23.7199C160.084 23.884 160.055 24.0603 160.064 24.2368C160.088 24.3051 160.228 24.3377 160.488 24.3377H161.288C161.44 24.3298 161.591 24.358 161.73 24.42C161.868 24.482 161.99 24.576 162.085 24.6942C162.179 24.8176 162.24 24.9625 162.263 25.1156C162.286 25.2687 162.27 25.4251 162.216 25.5704C162.113 25.9324 161.886 26.2474 161.574 26.4614C161.287 26.6851 160.934 26.8102 160.568 26.8179H158.374C157.756 26.8179 157.356 26.7109 157.18 26.4971C157.003 26.2832 157.003 25.8644 157.18 25.2407L158.219 21.6765H157.935C157.786 21.6889 157.637 21.6635 157.501 21.6028C157.365 21.542 157.246 21.4478 157.157 21.3291C157.067 21.2103 157.009 21.0708 156.989 20.9238C156.968 20.7767 156.986 20.6269 157.039 20.4884C157.15 20.153 157.361 19.8594 157.645 19.647C157.928 19.4346 158.27 19.3136 158.625 19.3003H159.843L160.329 17.6221H159.09C158.942 17.6333 158.793 17.6074 158.656 17.5467C158.52 17.486 158.402 17.3925 158.311 17.2746C158.226 17.159 158.17 17.0247 158.148 16.883C158.126 16.7413 158.139 16.5965 158.186 16.4608C158.283 16.1498 158.471 15.8747 158.726 15.6707C158.963 15.4567 159.264 15.3271 159.583 15.3024H159.634C159.648 14.758 159.625 14.2132 159.565 13.6718C159.547 13.5483 159.558 13.4225 159.595 13.3035C159.689 12.9905 159.881 12.7151 160.141 12.5164C160.392 12.3033 160.708 12.1818 161.037 12.1719C161.141 12.1599 161.246 12.1693 161.346 12.1994C161.446 12.2294 161.538 12.2795 161.618 12.3466C161.698 12.4137 161.763 12.4963 161.809 12.5893C161.856 12.6824 161.883 12.7839 161.888 12.8877C161.998 13.6807 162.033 14.4821 161.992 15.2816H162.291C162.792 14.5348 163.251 13.7603 163.664 12.9619C163.789 12.7038 163.986 12.4872 164.232 12.338C164.478 12.1889 164.762 12.1136 165.05 12.1213C165.19 12.112 165.33 12.1378 165.457 12.1965C165.584 12.2551 165.695 12.3447 165.778 12.457C165.858 12.5679 165.909 12.6962 165.929 12.8312C165.948 12.9661 165.934 13.1036 165.889 13.2322C165.503 13.9377 165.08 14.6219 164.62 15.2816H164.671C164.803 15.2755 164.934 15.3055 165.05 15.3683C165.167 15.4312 165.264 15.5244 165.33 15.6381C165.402 15.7578 165.446 15.8914 165.461 16.0297C165.476 16.168 165.461 16.3079 165.417 16.44C165.313 16.7691 165.103 17.055 164.82 17.2538C164.546 17.4755 164.205 17.598 163.853 17.6014H162.897L162.407 19.2795H163.339C163.487 19.2685 163.635 19.2942 163.771 19.3543C163.906 19.4145 164.025 19.5072 164.115 19.6241C164.2 19.7379 164.257 19.8703 164.281 20.0103C164.304 20.1503 164.293 20.2939 164.25 20.429L164.244 20.4349Z" fill="#3F3B3A"/>
</g>
<defs>
<clipPath id="clip0_355_2429">
<rect width="170" height="30.8187" fill="white"/>
</clipPath>
</defs>
</svg>
