<svg width="12" height="16" viewBox="0 0 12 16" fill="none" xmlns="http://www.w3.org/2000/svg">
<g clip-path="url(#clip0_355_1925)">
<path fill-rule="evenodd" clip-rule="evenodd" d="M3.19527 16.0083C-0.781065 14.478 -1.06509 10.7162 2.27219 6.69929C2.76923 7.14561 2.76923 8.03825 3.83432 8.10201C3.83432 6.76305 2.91124 5.55162 3.47929 4.21266C4.03575 2.92712 4.90976 1.77169 6.0355 0.833374C6.11767 2.49193 6.84655 4.07177 8.09467 5.29658C9.3434 6.57946 10.4162 7.99228 11.2899 9.50473C11.6457 10.0318 11.866 10.6234 11.9349 11.2366C12.0038 11.8498 11.9196 12.469 11.6883 13.0493C11.4571 13.6295 11.0846 14.1562 10.5981 14.5908C10.1115 15.0255 9.52311 15.3572 8.87574 15.5619C9.24635 14.8159 9.36319 13.9882 9.21159 13.1828C9.05999 12.3774 8.64672 11.6302 8.02367 11.035C7.90156 11.5428 7.7108 12.0352 7.45562 12.5014C7.45562 12.9478 7.45562 13.7129 6.24852 13.3303C6.0892 13.2835 5.94338 13.2057 5.82153 13.1023C5.69968 12.9989 5.60481 12.8726 5.54372 12.7325C5.48264 12.5923 5.45686 12.4417 5.46823 12.2915C5.47959 12.1414 5.52783 11.9953 5.60947 11.8638C6.19461 11.0357 6.55908 10.0975 6.67455 9.12218C4.18935 11.035 1.42012 12.5015 3.19527 16.0083Z" fill="#676767"/>
</g>
<defs>
<clipPath id="clip0_355_1925">
<rect width="12" height="15.1111" fill="white" transform="translate(0 0.833374)"/>
</clipPath>
</defs>
</svg>
