<svg width="9" height="13" viewBox="0 0 9 13" fill="none" xmlns="http://www.w3.org/2000/svg">
<g clip-path="url(#clip0_355_1934)">
<path d="M7.13158 0.684937H1.86843C1.37167 0.684925 0.895067 0.870427 0.542578 1.201C0.190089 1.53158 -0.00967927 1.98043 -0.0131531 2.44957V11.3099C-0.0126748 11.4437 0.0278898 11.5746 0.103853 11.6875C0.179816 11.8004 0.288072 11.8906 0.416091 11.9478C0.54411 12.005 0.686664 12.0268 0.827255 12.0107C0.967846 11.9946 1.10073 11.9412 1.21053 11.8567L4.50001 9.37133L7.77632 11.8567C7.88612 11.9412 8.019 11.9946 8.15959 12.0107C8.30019 12.0268 8.44274 12.005 8.57076 11.9478C8.69878 11.8906 8.80703 11.8004 8.883 11.6875C8.95896 11.5746 8.99952 11.4437 9 11.3099V2.44957C9 1.98157 8.80315 1.53269 8.45275 1.20176C8.10236 0.870833 7.62712 0.684937 7.13158 0.684937Z" fill="#676767"/>
</g>
<defs>
<clipPath id="clip0_355_1934">
<rect width="9" height="11.3333" fill="white" transform="translate(0 0.722168)"/>
</clipPath>
</defs>
</svg>
