<svg width="28" height="36" viewBox="0 0 28 36" fill="none" xmlns="http://www.w3.org/2000/svg">
<g clip-path="url(#clip0_446_249)">
<path d="M4.58327 14.4908L11.9521 6.39856L8.67907 0.586166L1.34893 15.37C2.90936 15.7098 4.58327 14.4908 4.58327 14.4908Z" fill="#E5E5E5"/>
<path d="M8.55527 19.7222L21.1934 7.07291L20.2004 5.01354L7.43847 17.7847C4.77414 19.5562 2.86551 19.6262 1.74613 19.3669L2.8552 21.3017C3.97716 21.5585 5.88836 21.4937 8.55527 19.7222Z" fill="#FFC147"/>
<path d="M7.43847 17.7847L20.2108 5.01355L18.3537 1.17493C18.29 1.04283 18.1951 0.928424 18.0773 0.841674C17.9595 0.754925 17.8224 0.698473 17.6779 0.677243C17.5334 0.656014 17.386 0.670648 17.2484 0.719875C17.1109 0.769102 16.9874 0.851422 16.8887 0.959659L11.9521 6.39856L4.58327 14.4908C4.58327 14.4908 2.90936 15.7098 1.35151 15.3726L8.68165 0.588767C8.68097 0.582735 8.68097 0.576642 8.68165 0.57061C8.62462 0.415457 8.52385 0.280392 8.39166 0.181941C8.25948 0.0834889 8.10162 0.0259235 7.93741 0.0162908C7.7732 0.00665811 7.60975 0.0453767 7.46708 0.127705C7.32441 0.210034 7.2087 0.332398 7.13412 0.47983L0.273397 14.5323C0.0900439 14.9076 0.00142629 15.3226 0.015371 15.7406C0.0293157 16.1586 0.145394 16.5667 0.353353 16.9288L1.74613 19.3669C2.86551 19.6262 4.77413 19.5562 7.43847 17.7847Z" fill="#F8AC64"/>
<path d="M27.9072 20.9516L21.2012 7.07291L8.56301 19.7222C5.8961 21.4937 3.98489 21.5585 2.86293 21.3095L10.5542 34.7032C10.7538 35.0529 11.0334 35.3499 11.3698 35.5695C11.7061 35.7892 12.0896 35.9252 12.4886 35.9663C13.7545 36.0965 15.0323 35.888 16.1923 35.362L27.7782 21.9372C27.8939 21.804 27.9678 21.6393 27.9908 21.464C28.0137 21.2886 27.9846 21.1104 27.9072 20.9516Z" fill="#FFA34C"/>
</g>
<defs>
<clipPath id="clip0_446_249">
<rect width="28" height="36" fill="white"/>
</clipPath>
</defs>
</svg>
