<svg width="33" height="14" viewBox="0 0 33 14" fill="none" xmlns="http://www.w3.org/2000/svg">
<path d="M0 0H33L28.5165 7L33 14H0V0Z" fill="#F34747"/>
<g filter="url(#filter0_d_446_254)">
<path d="M2.87 11H4.27V8.04C4.27 7.18 4.18 6.22 4.1 5.42H4.16L5.13 7.1L7.61 11H9.12V3.57H7.71V6.52C7.71 7.37 7.8 8.38 7.89 9.15H7.84L6.85 7.46L4.38 3.57H2.87V11ZM10.55 11H15.76V9.76H12.02V7.79H14.79V6.54H12.02V4.8H15.63V3.57H10.55V11ZM18.11 11H19.93L20.89 7.34C21.03 6.76 21.15 6.17 21.27 5.6H21.32C21.43 6.17 21.55 6.76 21.7 7.34L22.67 11H24.52L26.17 3.57H24.76L24.01 7.17C23.88 7.95 23.74 8.71 23.6 9.51H23.54C23.34 8.71 23.14 7.94 22.95 7.17L21.97 3.57H20.71L19.75 7.14C19.55 7.92 19.35 8.71 19.15 9.51H19.11C18.95 8.71 18.78 7.93 18.64 7.14L17.91 3.57H16.4L18.11 11Z" fill="white"/>
</g>
<defs>
<filter id="filter0_d_446_254" x="1.87" y="3.57" width="25.3" height="9.43" filterUnits="userSpaceOnUse" color-interpolation-filters="sRGB">
<feFlood flood-opacity="0" result="BackgroundImageFix"/>
<feColorMatrix in="SourceAlpha" type="matrix" values="0 0 0 0 0 0 0 0 0 0 0 0 0 0 0 0 0 0 127 0" result="hardAlpha"/>
<feOffset dy="1"/>
<feGaussianBlur stdDeviation="0.5"/>
<feComposite in2="hardAlpha" operator="out"/>
<feColorMatrix type="matrix" values="0 0 0 0 0 0 0 0 0 0 0 0 0 0 0 0 0 0 0.25 0"/>
<feBlend mode="normal" in2="BackgroundImageFix" result="effect1_dropShadow_446_254"/>
<feBlend mode="normal" in="SourceGraphic" in2="effect1_dropShadow_446_254" result="shape"/>
</filter>
</defs>
</svg>
