<svg width="31" height="14" viewBox="0 0 31 14" fill="none" xmlns="http://www.w3.org/2000/svg">
<path d="M0 0H31L26.5165 7L31 14H0V0Z" fill="#F34747"/>
<g filter="url(#filter0_d_445_237)">
<path d="M9.25353 11H7.31353V8.09H5.07353V11H3.13353V3.86H5.07353V6.51H7.31353V3.86H9.25353V11ZM17.8698 7.42C17.8698 7.97333 17.8031 8.47667 17.6698 8.93C17.5364 9.37667 17.3298 9.76333 17.0498 10.09C16.7698 10.4167 16.4098 10.6667 15.9698 10.84C15.5364 11.0133 15.0131 11.1 14.3998 11.1C13.7998 11.1 13.2798 11.0133 12.8398 10.84C12.4064 10.6667 12.0464 10.4167 11.7598 10.09C11.4798 9.76333 11.2698 9.37667 11.1298 8.93C10.9964 8.47667 10.9298 7.97 10.9298 7.41C10.9298 6.67 11.0531 6.02667 11.2998 5.48C11.5464 4.92667 11.9264 4.5 12.4398 4.2C12.9531 3.9 13.6098 3.75 14.4098 3.75C15.2231 3.75 15.8831 3.90333 16.3898 4.21C16.9031 4.51 17.2764 4.93667 17.5098 5.49C17.7498 6.03667 17.8698 6.68 17.8698 7.42ZM12.9598 7.42C12.9598 7.84667 13.0064 8.21667 13.0998 8.53C13.1998 8.83667 13.3564 9.07333 13.5698 9.24C13.7831 9.40667 14.0598 9.49 14.3998 9.49C14.7531 9.49 15.0331 9.40667 15.2398 9.24C15.4531 9.07333 15.6064 8.83667 15.6998 8.53C15.7931 8.21667 15.8398 7.84667 15.8398 7.42C15.8398 6.77333 15.7331 6.26333 15.5198 5.89C15.3064 5.51667 14.9364 5.33 14.4098 5.33C14.0631 5.33 13.7831 5.41667 13.5698 5.59C13.3564 5.75667 13.1998 5.99667 13.0998 6.31C13.0064 6.61667 12.9598 6.98667 12.9598 7.42ZM22.4058 11H20.4758V5.44H18.7358V3.86H24.1458V5.44H22.4058V11Z" fill="white"/>
</g>
<defs>
<filter id="filter0_d_445_237" x="2.13352" y="3.75" width="23.0123" height="9.35001" filterUnits="userSpaceOnUse" color-interpolation-filters="sRGB">
<feFlood flood-opacity="0" result="BackgroundImageFix"/>
<feColorMatrix in="SourceAlpha" type="matrix" values="0 0 0 0 0 0 0 0 0 0 0 0 0 0 0 0 0 0 127 0" result="hardAlpha"/>
<feOffset dy="1"/>
<feGaussianBlur stdDeviation="0.5"/>
<feComposite in2="hardAlpha" operator="out"/>
<feColorMatrix type="matrix" values="0 0 0 0 0 0 0 0 0 0 0 0 0 0 0 0 0 0 0.25 0"/>
<feBlend mode="normal" in2="BackgroundImageFix" result="effect1_dropShadow_445_237"/>
<feBlend mode="normal" in="SourceGraphic" in2="effect1_dropShadow_445_237" result="shape"/>
</filter>
</defs>
</svg>
