<svg xmlns="http://www.w3.org/2000/svg" viewBox="0 0 1096.22 71.56"><defs><style>.cls-1,.cls-11{fill:none;}.cls-1,.cls-2,.cls-3,.cls-5{stroke:#ff9976;}.cls-1,.cls-11,.cls-2,.cls-3,.cls-5{stroke-miterlimit:10;}.cls-2,.cls-9{fill:#fff;}.cls-2,.cls-3,.cls-5{stroke-width:2.5px;}.cls-3{fill:#fff3f0;}.cls-4{fill:#ffbc8f;}.cls-5{fill:#ffe5de;}.cls-6{fill:#ff9976;}.cls-7,.cls-8{font-size:16px;font-family:GenJyuuGothic-Medium, Gen Jyuu Gothic;font-weight:500;}.cls-12,.cls-7{fill:#2a3a42;}.cls-10,.cls-8{fill:#f4804d;}.cls-8{letter-spacing:0.06em;}.cls-11{stroke:#fff;stroke-width:0.52px;}</style></defs><g id="Layer_2" data-name="Layer 2"><g id="edited"><line class="cls-1" x1="19.59" y1="22.7" x2="1077.59" y2="22.7"/><circle class="cls-2" cx="19.59" cy="22.7" r="5"/><circle class="cls-3" cx="344.59" cy="22.7" r="16.1"/><circle class="cls-4" cx="344.59" cy="22.7" r="2.25"/><circle class="cls-5" cx="599.59" cy="22.7" r="16.1"/><circle class="cls-6" cx="599.59" cy="22.7" r="2.25"/><circle class="cls-5" cx="672.59" cy="22.7" r="16.1"/><circle class="cls-6" cx="672.59" cy="22.7" r="2.25"/><rect class="cls-6" x="744.25" y="4.07" width="37.27" height="37.27" rx="4"/><text class="cls-7" transform="translate(748.14 66.43)">筆試</text><text class="cls-7" transform="translate(1062.59 66.43)">面試</text><text class="cls-7" transform="translate(642.37 66.43)">考前猜題</text><text class="cls-7" transform="translate(576.59 66.43)">總複習</text><text class="cls-7" transform="translate(327.23 66.43)">30天</text><text class="cls-7" transform="translate(200.89 66.43)">簡章公告</text><text class="cls-8" transform="translate(54.72 13.77)">長期抗戰6-12個月</text><text class="cls-8" transform="translate(418.1 13.77)">考前30天衝刺</text><text class="cls-8" transform="translate(877.31 13.77)">面試準備</text><rect class="cls-4" x="213.25" y="4.07" width="37.27" height="37.27" rx="4"/><path class="cls-9" d="M235.77,22.29v1.13a.48.48,0,0,1-.49.48h-6.79a.47.47,0,0,1-.48-.48V22.29a.48.48,0,0,1,.48-.49h6.79A.49.49,0,0,1,235.77,22.29Zm-.49,2.91h-6.79a.48.48,0,0,0-.48.48v1.13a.48.48,0,0,0,.48.49h6.79a.49.49,0,0,0,.49-.49V25.68A.49.49,0,0,0,235.28,25.2Zm4.37-7.61V31A1.94,1.94,0,0,1,237.71,33H226.07A1.94,1.94,0,0,1,224.13,31V14.2a1.94,1.94,0,0,1,1.94-1.94h8.25a2,2,0,0,1,1.37.57l3.39,3.39A2,2,0,0,1,239.65,17.59Zm-5.18-3.23v3.08h3.08ZM237.71,31V19.38H233.5a1,1,0,0,1-1-1V14.2h-6.46V31Z"/><rect class="cls-10" x="1058.95" y="4.07" width="37.27" height="37.27" rx="4"/><path class="cls-9" d="M1087.45,27.87a5.57,5.57,0,0,0,1.78-4c0-3.23-3.1-5.9-7.13-6.38-1.27-2.33-4.26-4-7.75-4-4.64,0-8.41,2.89-8.41,6.46a5.58,5.58,0,0,0,1.78,4,10.41,10.41,0,0,1-1.52,2.22.92.92,0,0,0-.18,1,.94.94,0,0,0,.86.57,9.31,9.31,0,0,0,5.06-1.57c.37.08.75.15,1.15.2,1.27,2.32,4.24,3.95,7.73,3.95a11.21,11.21,0,0,0,2.42-.27,9.36,9.36,0,0,0,5.06,1.56.94.94,0,0,0,.68-1.57A10.25,10.25,0,0,1,1087.45,27.87Zm-15.88-3.73-.69.45a8.32,8.32,0,0,1-1.74.87c.11-.19.22-.4.32-.6l.63-1.26-1-1a3.7,3.7,0,0,1-1.21-2.59c0-2.45,3-4.52,6.47-4.52s6.47,2.07,6.47,4.52-3,4.53-6.47,4.53a8.78,8.78,0,0,1-2-.23l-.8-.18Zm14.52,2.35-1,1,.62,1.25q.16.32.33.6a8.34,8.34,0,0,1-1.75-.86l-.69-.45-.8.18a8.78,8.78,0,0,1-2,.23,7.52,7.52,0,0,1-5.31-2c4.1-.43,7.25-3.13,7.25-6.4,0-.13,0-.27,0-.4,2.6.59,4.56,2.29,4.56,4.28A3.73,3.73,0,0,1,1086.09,26.49Z"/><path class="cls-9" d="M772.55,17.23l-1.82,1.82a.46.46,0,0,1-.67,0l-4.38-4.38a.46.46,0,0,1,0-.67l1.82-1.82a1.9,1.9,0,0,1,2.68,0l2.37,2.37A1.9,1.9,0,0,1,772.55,17.23Zm-8.44-1.67L753.74,25.93l-.83,4.8a1,1,0,0,0,1.09,1.1l4.8-.84,10.37-10.38a.46.46,0,0,0,0-.67l-4.38-4.38a.48.48,0,0,0-.68,0ZM757.79,25a.54.54,0,0,1,0-.78l6.08-6.08a.55.55,0,1,1,.78.78L758.57,25a.54.54,0,0,1-.78,0Zm-1.42,3.32h1.89V29.8l-2.55.44L754.49,29l.44-2.54h1.44Z"/><line class="cls-11" x1="752.29" y1="33.78" x2="774.09" y2="33.78"/><path class="cls-12" d="M5.91,49.77a4.22,4.22,0,0,0,3.94-4.44,4.22,4.22,0,0,0-3.94-4.44A4.22,4.22,0,0,0,2,45.33,4.22,4.22,0,0,0,5.91,49.77Zm27.58,0a4.22,4.22,0,0,0,3.94-4.44,4.22,4.22,0,0,0-3.94-4.44,4.21,4.21,0,0,0-3.94,4.44A4.21,4.21,0,0,0,33.49,49.77Zm2,2.22H31.52a3.72,3.72,0,0,0-2.78,1.29,10.19,10.19,0,0,1,4.62,7.58h4.07a2.1,2.1,0,0,0,2-2.22V56.42A4.21,4.21,0,0,0,35.46,52ZM19.7,52c3.81,0,6.89-3.48,6.89-7.77s-3.08-7.77-6.89-7.77-6.9,3.48-6.9,7.77S15.89,52,19.7,52Zm4.73,2.21h-.51a8.58,8.58,0,0,1-8.44,0H15c-3.91,0-7.09,3.58-7.09,8v2a3.16,3.16,0,0,0,3,3.33H28.56a3.16,3.16,0,0,0,3-3.33v-2C31.52,57.78,28.34,54.2,24.43,54.2Zm-13.77-.92A3.73,3.73,0,0,0,7.88,52H3.94A4.21,4.21,0,0,0,0,56.42v2.22a2.1,2.1,0,0,0,2,2.22H6a10.17,10.17,0,0,1,4.63-7.58Z"/></g></g></svg>