<?xml version="1.0" encoding="utf-8"?>
<!-- Generator: Adobe Illustrator 25.2.1, SVG Export Plug-In . SVG Version: 6.00 Build 0)  -->
<svg version="1.1" id="圖層_1" xmlns="http://www.w3.org/2000/svg" xmlns:xlink="http://www.w3.org/1999/xlink" x="0px" y="0px"
	 viewBox="0 0 200 200" style="enable-background:new 0 0 200 200;" xml:space="preserve">
<style type="text/css">
	.st0{fill:#E9FFFE;}
	.st1{fill:none;stroke:#6B9B9A;stroke-width:4.4732;stroke-linecap:round;stroke-linejoin:round;}
	.st2{fill:none;stroke:#6B9B9A;stroke-width:4.4732;stroke-linecap:round;stroke-linejoin:round;stroke-dasharray:0.9182,7.3455;}
	.st3{fill:none;stroke:#6B9B9A;stroke-width:4.4732;stroke-linecap:round;stroke-linejoin:round;stroke-dasharray:1.1152,8.9213;}
	.st4{fill:none;stroke:#6B9B9A;stroke-width:4.4732;stroke-linecap:round;stroke-linejoin:round;stroke-dasharray:1.105,8.84;}
	.st5{fill:none;stroke:#6B9B9A;stroke-width:4.4732;stroke-linecap:round;stroke-linejoin:round;stroke-dasharray:0.9508,7.6065;}
	.st6{fill:none;stroke:#6B9B9A;stroke-width:4.4732;stroke-linejoin:round;}
	.st7{fill:none;stroke:#6B9B9A;stroke-width:2.5;stroke-linejoin:round;}
	.st8{fill:#FFFFFF;stroke:#6B9B9A;stroke-width:1.653;}
	.st9{fill:#D8E5ED;}
	.st10{fill:#8DC9C6;stroke:#6B9B9A;stroke-width:1.653;stroke-linejoin:bevel;}
	.st11{fill:none;stroke:#A3D3D1;stroke-width:1.102;}
	.st12{fill:#F5B1AE;stroke:#6B9B9A;stroke-width:1.653;}
	.st13{fill:#FFFFFF;}
	.st14{fill:none;stroke:#6B9B9A;stroke-width:1.653;stroke-linejoin:bevel;}
	.st15{fill:#B0D9EF;stroke:#6B9B9A;stroke-width:1.653;stroke-linejoin:bevel;}
	.st16{fill:none;stroke:#477CA8;stroke-width:1.653;stroke-linejoin:bevel;}
	.st17{fill:none;stroke:#6B9B9A;stroke-width:1.653;}
	.st18{fill-rule:evenodd;clip-rule:evenodd;fill:#B5B5B5;}
</style>
<path class="st0" d="M22.81,134.83c-6.43-6.43-9.76-18.87-7.41-27.65l13-48.53c2.35-8.78,11.46-17.89,20.24-20.24l48.53-13
	c8.78-2.35,21.23,0.98,27.65,7.41l35.53,35.53c6.43,6.43,9.76,18.87,7.41,27.66l-13,48.53c-2.35,8.78-11.46,17.89-20.24,20.24
	l-48.53,13c-8.78,2.35-21.23-0.98-27.65-7.41L22.81,134.83z"/>
<path class="st0" d="M10.4,29.22c-1.01-1.01-1.54-2.97-1.17-4.36l2.05-7.65c0.37-1.38,1.81-2.82,3.19-3.19l7.65-2.05
	c1.38-0.37,3.35,0.15,4.36,1.17l5.6,5.6c1.01,1.01,1.54,2.97,1.17,4.36l-2.05,7.65c-0.37,1.38-1.81,2.82-3.19,3.19l-7.65,2.05
	c-1.38,0.37-3.35-0.15-4.36-1.17L10.4,29.22z"/>
<path class="st0" d="M38.29,29.56c-0.55-0.55-0.83-1.6-0.63-2.35l1.1-4.12c0.2-0.75,0.97-1.52,1.72-1.72l4.12-1.1
	c0.75-0.2,1.8,0.08,2.35,0.63l3.02,3.02c0.55,0.55,0.83,1.6,0.63,2.35l-1.1,4.12c-0.2,0.75-0.97,1.52-1.72,1.72l-4.12,1.1
	c-0.75,0.2-1.8-0.08-2.35-0.63L38.29,29.56z"/>
<path class="st0" d="M158.39,158.6c-0.69-0.69-1.05-2.04-0.8-2.98l1.4-5.24c0.25-0.95,1.24-1.93,2.18-2.18l5.24-1.4
	c0.95-0.25,2.29,0.11,2.98,0.8l3.83,3.83c0.69,0.69,1.05,2.04,0.8,2.98l-1.4,5.24c-0.25,0.95-1.24,1.93-2.18,2.18l-5.24,1.4
	c-0.95,0.25-2.29-0.11-2.98-0.8L158.39,158.6z"/>
<g>
	<g>
		<line class="st7" x1="66.19" y1="59.5" x2="58.19" y2="51.57"/>
		<line class="st7" x1="58.8" y1="69.4" x2="49" y2="63.8"/>
		<line class="st7" x1="54.25" y1="80.87" x2="43.32" y2="77.97"/>
		<line class="st7" x1="146.28" y1="79.21" x2="157.2" y2="76.31"/>
		<line class="st7" x1="141.31" y1="67.92" x2="151.1" y2="62.32"/>
		<line class="st7" x1="133.56" y1="58.28" x2="141.55" y2="50.36"/>
	</g>
	<g>
		<g>
			<path class="st7" d="M86.29,89.72h26.69c0.19-2.5,0.75-5.75,2.34-7.85c9.85-12.56,10.48-24.53,10.48-25.38
				c0-14.31-11.7-25.9-26.15-25.9c-14.44,0-26.14,11.59-26.14,25.9c0,0.85,0.61,12.81,10.47,25.38
				C85.57,83.97,86.12,87.22,86.29,89.72z"/>
			<g>
				<line class="st7" x1="94.05" y1="89.65" x2="89.88" y2="61.19"/>
				<line class="st7" x1="105.27" y1="89.65" x2="109.44" y2="61.19"/>
			</g>
			<polyline class="st7" points="90.01,62.88 93.22,65.09 96.44,62.88 99.65,65.09 102.87,62.88 106.09,65.09 109.31,62.88 			"/>
			<g>
				<line class="st7" x1="84.56" y1="90.03" x2="114.76" y2="90.03"/>
				<line class="st7" x1="84.56" y1="97.9" x2="114.76" y2="97.9"/>
				<line class="st7" x1="89.79" y1="105.77" x2="109.53" y2="105.77"/>
				<line class="st7" x1="91.97" y1="97.24" x2="91.97" y2="90.37"/>
			</g>
		</g>
	</g>
	<g>
		<g>
			<polyline class="st7" points="56.27,91.66 56.27,90.03 71.47,81.71 			"/>
			<polyline class="st7" points="143.09,91.66 143.09,90.03 127.88,81.71 			"/>
			<line class="st7" x1="54.56" y1="143.26" x2="54.56" y2="120.84"/>
			<line class="st7" x1="54.56" y1="92.09" x2="99.63" y2="117.67"/>
			<polyline class="st7" points="144.69,120.27 144.69,143.63 99.63,169.4 54.56,143.63 54.56,127.54 54.56,121.26 			"/>
			<line class="st7" x1="144.69" y1="143.63" x2="99.63" y2="169.4"/>
			<polygon class="st7" points="99.63,118.22 144.69,92.09 156.52,113.8 111.46,139.57 			"/>
			<polygon class="st7" points="99.69,118.27 54.63,92.13 42.8,113.85 87.87,139.62 			"/>
		</g>
		<line class="st7" x1="99.66" y1="169.02" x2="99.66" y2="117.24"/>
	</g>
</g>
</svg>
