<svg width="177" height="69" viewBox="0 0 177 69" fill="none" xmlns="http://www.w3.org/2000/svg">
<path d="M57.876 29.5C54.276 41.488 46.644 47.968 33.9 51.136C34.728 52.144 36.06 54.16 36.528 55.204C49.74 51.316 58.02 43.936 62.376 30.724L57.876 29.5ZM43.98 29.752L39.948 31.012C44.484 43.216 52.08 51.424 65.292 54.952C65.976 53.764 67.236 51.856 68.244 50.92C55.608 48.004 47.688 40.336 43.98 29.752ZM34.584 27.484V31.732H67.56V27.484H34.584ZM47.832 22.408C48.732 24.208 49.668 26.584 49.992 28.06L54.888 26.548C54.492 25.036 53.376 22.732 52.44 21.04L47.832 22.408ZM70.548 48.112V51.532H103.416V48.112H70.548ZM84.624 45.088V55.24H89.16V45.088H84.624ZM78.648 41.884H95.172V43.576H78.648V41.884ZM78.648 37.492H95.172V39.184H78.648V37.492ZM74.436 34.648V46.456H99.564V34.648H74.436ZM72.996 23.812V27.196H101.148V23.812H72.996ZM70.692 29.968V33.352H103.236V29.968H70.692ZM91.824 26.908C91.536 28.024 90.852 29.572 90.348 30.652L94.56 31.408C95.1 30.436 95.712 29.176 96.432 27.7L91.824 26.908ZM77.784 27.772C78.324 28.96 78.972 30.544 79.188 31.552L83.544 30.544C83.22 29.536 82.608 28.024 81.996 26.944L77.784 27.772ZM83.94 21.832C84.48 23.092 85.164 24.784 85.416 25.9L89.88 24.82C89.556 23.776 88.872 22.156 88.26 20.968L83.94 21.832ZM106.512 44.188V47.608H139.488V44.188H106.512ZM107.52 23.74V27.016H138.192V23.74H107.52ZM127.212 42.1V50.956C127.212 51.388 127.032 51.532 126.456 51.568C125.88 51.568 123.792 51.568 122.064 51.496C122.604 52.54 123.144 54.124 123.288 55.24C126.06 55.24 128.076 55.204 129.552 54.664C130.992 54.088 131.388 53.044 131.388 51.1V42.1H127.212ZM120.804 21.436V40.84H125.052V21.436H120.804ZM112.272 48.832C114.252 50.2 116.628 52.252 117.708 53.656L120.876 50.92C119.724 49.516 117.204 47.608 115.224 46.348L112.272 48.832ZM114.432 34.72H131.712V36.088H114.432V34.72ZM114.432 30.904H131.712V32.272H114.432V30.904ZM110.364 28.312V38.716H135.96V28.312H110.364ZM128.076 39.292C130.704 40.408 133.872 42.388 135.564 43.828L138.156 41.632C136.428 40.3 133.26 38.428 130.596 37.348L128.076 39.292ZM108.06 40.048L108.204 43.144C115.116 43.072 125.412 42.892 135.06 42.604L135.24 39.94C125.304 40.048 114.684 40.084 108.06 40.048ZM158.028 30.976H163.932V33.964H158.028V30.976ZM153.996 28.168V36.808H168.216V28.168H153.996ZM153.78 41.272H156.588V45.232H153.78V41.272ZM150.288 38.356V48.112H160.26V38.356H150.288ZM165.444 41.272H168.36V45.232H165.444V41.272ZM161.88 38.356V48.112H172.104V38.356H161.88ZM143.016 22.696V26.512H173.76V22.696H143.016ZM144.456 22.768V45.304C144.456 51.964 147.444 53.944 153.816 53.944C155.4 53.944 165.624 53.944 168.072 53.944C170.988 53.944 174.192 53.908 175.56 53.548C175.344 52.54 175.092 50.56 174.984 49.48C173.472 49.804 170.592 49.984 168.288 49.984C165.696 49.984 155.58 49.984 153.456 49.984C149.748 49.984 148.668 48.76 148.668 45.628V22.768H144.456Z" fill="white"/>
<path d="M33 66C16.5 66 3 52.5 3 36C3 19.5 16.5 6 33 6C38.5 6 43.6 7.5 48 10L49.5 7.4C44.6 4.6 39 3 33 3C14.8 3 0 17.8 0 36C0 54.2 14.8 69 33 69C39 69 44.6 67.4 49.5 64.6L48 62C43.6 64.5 38.5 66 33 66Z" fill="#FEC22E"/>
<path d="M57.952 10H59.752L61.024 5.38C61.288 4.456 61.54 3.436 61.78 2.476H61.828C62.08 3.424 62.332 4.456 62.596 5.38L63.868 10H65.728L62.884 1.12H60.796L57.952 10ZM59.716 7.72H63.94V6.352H59.716V7.72ZM66.7795 10H68.5555V6.652H69.8635C71.7235 6.652 73.1995 5.788 73.1995 3.808C73.1995 1.768 71.7235 1.12 69.8635 1.12H66.7795V10ZM68.5555 5.248V2.536H69.6955C70.8475 2.536 71.4715 2.86 71.4715 3.808C71.4715 4.756 70.8475 5.248 69.6955 5.248H68.5555ZM71.6035 10H73.5835L70.7755 5.08L69.5395 6.196L71.6035 10ZM76.4302 10H78.2062V2.596H80.7142V1.12H73.9222V2.596H76.4302V10ZM82.1662 10H83.9422V1.12H82.1662V10ZM89.7392 10.168C90.8912 10.168 91.8392 9.724 92.5712 8.872L91.6352 7.756C91.1672 8.272 90.5672 8.632 89.8112 8.632C88.3952 8.632 87.4952 7.48 87.4952 5.536C87.4952 3.64 88.5032 2.488 89.8352 2.488C90.5192 2.488 91.0232 2.788 91.4792 3.232L92.4152 2.092C91.8392 1.492 90.9392 0.964 89.8112 0.964C87.5552 0.964 85.6832 2.668 85.6832 5.596C85.6832 8.56 87.4952 10.168 89.7392 10.168ZM94.0022 10H99.3902V8.512H95.7782V1.12H94.0022V10ZM100.94 10H106.52V8.512H102.716V6.148H105.824V4.648H102.716V2.596H106.388V1.12H100.94V10Z" fill="#FEC22E"/>
</svg>
