<svg width="177" height="69" viewBox="0 0 177 69" fill="none" xmlns="http://www.w3.org/2000/svg">
<path d="M34.62 45.196V48.652H67.272V45.196H34.62ZM41.64 39.04V42.1H57.408V39.04H41.64ZM49.236 44.188V51.064C49.236 51.532 49.092 51.64 48.516 51.64C47.94 51.64 45.78 51.64 44.052 51.568C44.592 52.612 45.204 54.088 45.42 55.204C48.12 55.204 50.1 55.204 51.576 54.664C53.088 54.088 53.484 53.152 53.484 51.208V44.188H49.236ZM56.328 39.04V39.76C54.888 41.128 51.792 43.108 49.236 44.188C49.776 44.692 50.748 45.736 51.18 46.384C54.492 45.016 58.02 43 60.72 41.056L58.272 38.824L57.372 39.04H56.328ZM35.232 34.396V41.812H39.336V37.528H62.556V41.812H66.84V34.396H35.232ZM60.828 22.624C60.684 26.944 60.288 32.416 59.82 35.944H63.96C64.356 32.524 64.716 27.052 64.932 22.624H60.828ZM55.86 22.624V25.324H62.52V22.624H55.86ZM44.592 21.616C42.648 22.264 39.444 23.236 37.284 23.596L38.796 25.972C40.992 25.612 44.124 24.964 46.392 24.1L44.592 21.616ZM39.372 26.548V29.212H46.104V26.548H39.372ZM39.48 30.472V33.136H46.212V30.472H39.48ZM56.076 26.548V29.212H62.16V26.548H56.076ZM55.896 30.472V33.136H61.944V30.472H55.896ZM52.332 21.652C51 23.416 48.588 25.036 46.104 26.116C46.788 26.548 47.868 27.52 48.372 28.024C50.82 26.764 53.52 24.676 55.14 22.444L52.332 21.652ZM46.86 23.56C49.092 24.712 51.864 26.476 53.16 27.736L55.248 25.9C53.808 24.64 51.036 22.948 48.84 21.904L46.86 23.56ZM52.368 27.736C50.964 29.608 48.372 31.336 45.816 32.452C46.428 32.92 47.508 34.036 47.976 34.576C50.604 33.208 53.448 30.976 55.176 28.564L52.368 27.736ZM46.68 29.716C49.056 30.976 51.972 32.92 53.34 34.288L55.464 32.416C53.988 31.048 51 29.212 48.696 28.06L46.68 29.716ZM37.284 23.596L38.004 35.764H42.036L41.388 24.64L37.284 23.596ZM79.728 25.936H94.344V28.24H79.728V25.936ZM75.408 22.588V31.624H98.952V22.588H75.408ZM78.072 40.192H95.748V41.704H78.072V40.192ZM78.072 44.476H95.748V46.024H78.072V44.476ZM78.072 35.908H95.748V37.42H78.072V35.908ZM73.752 32.956V48.94H100.248V32.956H73.752ZM80.736 48.22C78.468 49.624 73.86 51.316 70.08 52.144C71.124 52.972 72.564 54.34 73.356 55.24C77.028 54.376 81.708 52.612 84.588 50.92L80.736 48.22ZM88.656 51.136C92.508 52.216 97.476 54.016 100.284 55.312L104.064 52.252C101.076 51.1 96.252 49.408 92.436 48.4L88.656 51.136ZM115.584 31.732V48.508C115.584 53.116 116.88 54.52 121.596 54.52C122.532 54.52 126.6 54.52 127.608 54.52C132.072 54.52 133.26 52.396 133.728 45.556C132.576 45.232 130.668 44.476 129.66 43.72C129.408 49.372 129.12 50.488 127.284 50.488C126.312 50.488 122.964 50.488 122.136 50.488C120.372 50.488 120.084 50.236 120.084 48.508V31.732H115.584ZM109.068 33.856C108.6 38.68 107.556 44.116 106.26 47.932L110.688 49.732C111.912 45.628 112.776 39.364 113.28 34.648L109.068 33.856ZM131.496 34.324C133.404 38.572 135.24 44.296 135.852 47.968L140.208 46.168C139.452 42.424 137.58 36.988 135.528 32.704L131.496 34.324ZM116.808 24.928C120.192 27.196 124.62 30.616 126.6 32.848L129.804 29.464C127.608 27.232 123.036 24.064 119.76 21.976L116.808 24.928ZM159.72 30.148H169.116V31.984H159.72V30.148ZM159.72 25.504H169.116V27.304H159.72V25.504ZM155.544 22.48V35.008H173.472V22.48H155.544ZM153.744 36.592V40.12H174.66V36.592H153.744ZM152.808 42.172V45.844H175.38V42.172H152.808ZM166.092 39.688V50.848C166.092 51.28 165.948 51.388 165.408 51.424C164.94 51.46 163.248 51.46 161.736 51.388C162.276 52.468 162.888 54.052 163.068 55.24C165.552 55.24 167.352 55.204 168.684 54.592C170.088 53.98 170.448 52.936 170.448 50.956V39.688H166.092ZM155.22 47.608C156.696 49.156 158.568 51.28 159.36 52.648L162.6 50.344C161.664 49.012 159.756 46.996 158.208 45.592L155.22 47.608ZM150.288 29.392C148.128 32.884 144.6 36.448 141.432 38.68C142.08 39.724 143.16 42.172 143.448 43.108C147.228 40.156 151.44 35.404 154.068 30.976L150.288 29.392ZM149.316 21.472C147.804 23.884 144.6 26.836 141.792 28.564C142.476 29.464 143.484 31.228 143.952 32.2C147.336 30.004 151.008 26.476 153.42 23.128L149.316 21.472ZM146.724 37.42V55.24H150.9V33.532L150.72 33.424L146.724 37.42Z" fill="white"/>
<path d="M33 66C16.5 66 3 52.5 3 36C3 19.5 16.5 6 33 6C38.5 6 43.6 7.5 48 10L49.5 7.4C44.6 4.6 39 3 33 3C14.8 3 0 17.8 0 36C0 54.2 14.8 69 33 69C39 69 44.6 67.4 49.5 64.6L48 62C43.6 64.5 38.5 66 33 66Z" fill="#FEC22E"/>
<path d="M59.092 10H64.672V8.512H60.868V6.148H63.976V4.648H60.868V2.596H64.54V1.12H59.092V10ZM65.5508 10H67.4348L68.3828 8.032C68.5868 7.576 68.8028 7.12 69.0188 6.568H69.0668C69.3308 7.12 69.5468 7.576 69.7748 8.032L70.7708 10H72.7388L70.2308 5.512L72.5708 1.12H70.6988L69.8588 2.956C69.6668 3.376 69.4868 3.808 69.2708 4.36H69.2228C68.9588 3.808 68.7668 3.376 68.5508 2.956L67.6628 1.12H65.6948L68.0468 5.428L65.5508 10ZM73.9983 10H75.7743V6.844H76.9623C78.8703 6.844 80.3823 5.944 80.3823 3.916C80.3823 1.804 78.8703 1.12 76.9143 1.12H73.9983V10ZM75.7743 5.44V2.536H76.7823C78.0063 2.536 78.6543 2.872 78.6543 3.916C78.6543 4.924 78.0663 5.44 76.8423 5.44H75.7743ZM82.0022 10H87.5822V8.512H83.7782V6.148H86.8862V4.648H83.7782V2.596H87.4502V1.12H82.0022V10ZM89.385 10H91.161V6.652H92.469C94.329 6.652 95.805 5.788 95.805 3.808C95.805 1.768 94.329 1.12 92.469 1.12H89.385V10ZM91.161 5.248V2.536H92.301C93.453 2.536 94.077 2.86 94.077 3.808C94.077 4.756 93.453 5.248 92.301 5.248H91.161ZM94.209 10H96.189L93.381 5.08L92.145 6.196L94.209 10ZM97.5647 10H99.3407V1.12H97.5647V10ZM101.526 10H107.106V8.512H103.302V6.148H106.41V4.648H103.302V2.596H106.974V1.12H101.526V10ZM108.908 10H110.588V6.448C110.588 5.416 110.444 4.3 110.36 3.352H110.42L111.32 5.248L113.888 10H115.7V1.12H114.008V4.66C114.008 5.668 114.152 6.856 114.248 7.78H114.188L113.288 5.86L110.708 1.12H108.908V10ZM121.509 10.168C122.661 10.168 123.609 9.724 124.341 8.872L123.405 7.756C122.937 8.272 122.337 8.632 121.581 8.632C120.165 8.632 119.265 7.48 119.265 5.536C119.265 3.64 120.273 2.488 121.605 2.488C122.289 2.488 122.793 2.788 123.249 3.232L124.185 2.092C123.609 1.492 122.709 0.964 121.581 0.964C119.325 0.964 117.453 2.668 117.453 5.596C117.453 8.56 119.265 10.168 121.509 10.168ZM125.772 10H131.352V8.512H127.548V6.148H130.656V4.648H127.548V2.596H131.22V1.12H125.772V10Z" fill="#FEC22E"/>
</svg>
