<svg width="534" height="298" viewBox="0 0 534 298" fill="none" xmlns="http://www.w3.org/2000/svg">
<rect width="534" height="39" fill="#F4E7E1"/>
<path d="M172.744 13.168V27.36H174.424V14.896H176.936V13.168H172.744ZM176.536 13.168V13.808C176.2 14.944 175.496 17.36 174.888 18.928C176.12 20.208 176.456 21.376 176.456 22.256C176.456 22.784 176.36 23.184 176.088 23.344C175.912 23.456 175.704 23.504 175.496 23.504C175.256 23.504 174.952 23.504 174.6 23.472C174.872 23.984 175.032 24.768 175.048 25.248C175.496 25.264 175.944 25.264 176.296 25.216C176.712 25.152 177.064 25.04 177.368 24.832C177.96 24.416 178.2 23.632 178.2 22.48C178.2 21.424 177.96 20.144 176.68 18.704C177.288 17.328 177.96 15.472 178.488 13.92L177.16 13.104L176.888 13.168H176.536ZM164.072 14.176V15.888H171.816V14.176H164.072ZM163.672 18.48V20.224H172.168V18.48H163.672ZM164.904 16.224C165.272 16.992 165.64 18.016 165.768 18.672L167.48 18.208C167.336 17.552 166.968 16.576 166.536 15.824L164.904 16.224ZM169.368 15.776C169.144 16.688 168.696 17.952 168.296 18.768L169.912 19.168C170.328 18.4 170.808 17.248 171.256 16.176L169.368 15.776ZM165.4 25.024V26.704H170.568V25.024H165.4ZM164.392 21.376V27.408H166.2V23.088H169.656V27.328H171.56V21.376H164.392ZM166.584 12.768C166.888 13.488 167.208 14.432 167.32 15.024L169.192 14.464C169.032 13.888 168.664 12.976 168.328 12.288L166.584 12.768ZM182.568 17.328V19.168H191.416V17.328H182.568ZM186.984 21.088V22.88H192.392V21.088H186.984ZM185.976 18.304V25.792L187.992 26.032V18.304H185.976ZM182.216 19.92C181.944 22.672 181.144 24.896 179.4 26.176C179.848 26.464 180.648 27.12 180.952 27.472C182.792 25.888 183.752 23.376 184.168 20.112L182.216 19.92ZM183.768 21.888L182.2 22.416C183.576 26.464 186.072 27.2 189.768 27.2H193.784C193.88 26.624 194.2 25.712 194.472 25.248C193.4 25.296 190.728 25.296 189.88 25.296C187.032 25.28 184.792 24.832 183.768 21.888ZM180.12 14.112V18.128H182.008V15.92H191.896V18.128H193.88V14.112H180.12ZM185.528 12.784C185.896 13.504 186.232 14.464 186.36 15.04L188.392 14.432C188.232 13.824 187.832 12.928 187.448 12.24L185.528 12.784ZM199.592 21.12H206.552V21.808H199.592V21.12ZM199.592 22.896H206.552V23.6H199.592V22.896ZM199.592 19.36H206.552V20.032H199.592V19.36ZM197.736 18.208V24.736H208.488V18.208H197.736ZM204.264 25.52C205.848 26.112 207.496 26.896 208.424 27.424L210.136 26.4C209.048 25.856 207.176 25.088 205.528 24.512L204.264 25.52ZM200.344 24.576C199.256 25.2 197.352 25.76 195.656 26.064C196.088 26.4 196.744 27.104 197.08 27.472C198.712 27.024 200.792 26.224 202.104 25.376L200.344 24.576ZM202.2 13.392V14.784H208.68V13.392H202.2ZM202.328 12.32C201.976 13.408 201.304 14.48 200.456 15.184C200.856 15.408 201.56 15.872 201.88 16.144C202.744 15.344 203.56 14.032 204.008 12.704L202.328 12.32ZM203.96 14.464V15.024C203.96 15.664 203.48 16.448 199.544 16.752C199.88 17.104 200.36 17.76 200.536 18.192C205.064 17.68 205.704 16.272 205.704 15.104V14.464H203.96ZM205.544 15.104L204.2 15.376C205.16 16.992 206.904 17.872 209.4 18.176C209.608 17.696 210.072 17.008 210.44 16.64C208.136 16.528 206.376 16.064 205.544 15.104ZM195.992 13.2V14.608H200.104V13.2H195.992ZM195.64 15.68V17.136H200.488V15.68H195.64ZM208.008 13.392V13.616C207.752 14.304 207.304 15.152 206.936 15.696L208.408 16.256C208.92 15.616 209.48 14.608 209.88 13.712L208.568 13.312L208.296 13.392H208.008ZM214.024 12.416V27.44H215.8V12.416H214.024ZM211.608 17.744V19.536H218.168V17.744H211.608ZM211.576 13.744C211.96 14.912 212.28 16.48 212.312 17.472L213.752 17.12C213.688 16.096 213.352 14.576 212.92 13.408L211.576 13.744ZM216.856 13.328C216.68 14.448 216.296 16.064 215.96 17.072L217.176 17.408C217.576 16.464 218.056 14.944 218.472 13.664L216.856 13.328ZM222.904 12.4V27.424H224.712V12.4H222.904ZM218.12 22.416L218.424 24.208L226.632 22.72L226.344 20.944L218.12 22.416ZM219.032 14.592C219.928 15.168 221.048 16.048 221.528 16.672L222.536 15.216C222.008 14.624 220.872 13.824 219.976 13.28L219.032 14.592ZM218.312 18.624C219.24 19.168 220.408 20.032 220.952 20.624L221.912 19.104C221.336 18.512 220.136 17.744 219.208 17.248L218.312 18.624ZM212.904 20.144C212.664 21.36 212.024 22.832 211.352 23.648C211.656 24.288 212.056 25.264 212.216 25.936C213.24 24.784 213.912 22.48 214.248 20.608L212.904 20.144ZM216.392 20.192L215.352 20.944C215.784 21.792 216.552 23.584 216.856 24.576L218.184 23.12C217.928 22.64 216.728 20.64 216.392 20.192ZM231.176 16.288V17.728H241.864V16.288H231.176ZM230.504 24.176V25.728H242.408V24.176H230.504ZM235.368 15.536V27.344H237.192V15.536H235.368ZM233.304 21.44H239.368V22.24H233.304V21.44ZM233.304 19.568H239.368V20.336H233.304V19.568ZM231.64 18.384V23.408H241.128V18.384H231.64ZM229.64 13.664V15.28H242.28V13.664H229.64ZM228.744 13.664V18.88C228.744 21.152 228.632 24.224 227.32 26.336C227.736 26.528 228.536 27.088 228.856 27.424C230.328 25.12 230.568 21.424 230.568 18.88V13.664H228.744ZM234.424 12.864C234.776 13.504 235.16 14.368 235.288 14.928L237.192 14.368C237.016 13.808 236.648 12.992 236.248 12.384L234.424 12.864ZM251.272 16.304H255.608V17.088H251.272V16.304ZM251.272 14.272H255.608V15.072H251.272V14.272ZM249.512 12.912V18.464H257.448V12.912H249.512ZM248.728 19.2V20.752H258.264V19.2H248.728ZM252.52 20.048V25.776L254.328 26.56V20.048H252.52ZM251.048 22.88L249.896 23.264C250.92 26.656 252.776 27.232 255.368 27.232H258.168C258.232 26.736 258.456 25.936 258.696 25.536C257.992 25.568 255.992 25.568 255.448 25.568C253.48 25.568 251.848 25.264 251.048 22.88ZM253.832 22.16V23.664H257.4V22.16H253.832ZM249.688 21.232C249.448 23.424 248.776 25.2 247.448 26.272C247.848 26.528 248.568 27.104 248.856 27.408C250.264 26.112 251.08 24.048 251.416 21.44L249.688 21.232ZM243.352 20.528L243.768 22.384C245.208 21.984 247.016 21.456 248.696 20.944L248.44 19.216C246.6 19.728 244.664 20.256 243.352 20.528ZM243.512 15.456V17.216H248.6V15.456H243.512ZM245.24 12.432V25.184C245.24 25.408 245.176 25.472 244.984 25.472C244.792 25.472 244.232 25.472 243.656 25.456C243.88 25.968 244.104 26.752 244.152 27.232C245.176 27.232 245.88 27.168 246.36 26.864C246.856 26.576 247 26.08 247 25.2V12.432H245.24ZM262.872 12.432C262.056 14.72 260.664 17.008 259.224 18.448C259.544 18.928 260.072 19.984 260.248 20.448C261.992 18.608 263.656 15.728 264.68 13.008L262.872 12.432ZM261.256 16.896V27.424H263.144V15.04V15.024L261.256 16.896ZM264.44 15.536V17.376H274.344V15.536H264.44ZM264.056 20.576V22.448H274.488V20.576H264.056ZM266.216 12.544V21.536H268.088V12.544H266.216ZM270.392 12.512V21.568H272.28V12.512H270.392ZM266.632 23.088C265.976 24.24 264.856 25.424 263.72 26.176C264.152 26.432 264.872 27.04 265.224 27.376C266.344 26.48 267.64 25.056 268.44 23.664L266.632 23.088ZM270.152 23.936C271.144 24.992 272.28 26.448 272.776 27.408L274.392 26.4C273.832 25.456 272.712 24.096 271.672 23.088L270.152 23.936ZM285.608 19.92C285.608 23.344 287.032 25.904 288.76 27.616L290.28 26.928C288.664 25.216 287.416 22.992 287.416 19.92C287.416 16.864 288.664 14.64 290.28 12.928L288.76 12.24C287.032 13.952 285.608 16.512 285.608 19.92ZM291.72 22.976V24.512H306.232V22.976H291.72ZM294.84 20.24V21.6H301.848V20.24H294.84ZM298.216 22.528V25.584C298.216 25.792 298.152 25.84 297.896 25.84C297.64 25.84 296.68 25.84 295.912 25.808C296.152 26.272 296.424 26.928 296.52 27.424C297.72 27.424 298.6 27.424 299.256 27.184C299.928 26.928 300.104 26.512 300.104 25.648V22.528H298.216ZM301.368 20.24V20.56C300.728 21.168 299.352 22.048 298.216 22.528C298.456 22.752 298.888 23.216 299.08 23.504C300.552 22.896 302.12 22 303.32 21.136L302.232 20.144L301.832 20.24H301.368ZM291.992 18.176V21.472H293.816V19.568H304.136V21.472H306.04V18.176H291.992ZM303.368 12.944C303.304 14.864 303.128 17.296 302.92 18.864H304.76C304.936 17.344 305.096 14.912 305.192 12.944H303.368ZM301.16 12.944V14.144H304.12V12.944H301.16ZM296.152 12.496C295.288 12.784 293.864 13.216 292.904 13.376L293.576 14.432C294.552 14.272 295.944 13.984 296.952 13.6L296.152 12.496ZM293.832 14.688V15.872H296.824V14.688H293.832ZM293.88 16.432V17.616H296.872V16.432H293.88ZM301.256 14.688V15.872H303.96V14.688H301.256ZM301.176 16.432V17.616H303.864V16.432H301.176ZM299.592 12.512C299 13.296 297.928 14.016 296.824 14.496C297.128 14.688 297.608 15.12 297.832 15.344C298.92 14.784 300.12 13.856 300.84 12.864L299.592 12.512ZM297.16 13.36C298.152 13.872 299.384 14.656 299.96 15.216L300.888 14.4C300.248 13.84 299.016 13.088 298.04 12.624L297.16 13.36ZM299.608 15.216C298.984 16.048 297.832 16.816 296.696 17.312C296.968 17.52 297.448 18.016 297.656 18.256C298.824 17.648 300.088 16.656 300.856 15.584L299.608 15.216ZM297.08 16.096C298.136 16.656 299.432 17.52 300.04 18.128L300.984 17.296C300.328 16.688 299 15.872 297.976 15.36L297.08 16.096ZM292.904 13.376L293.224 18.784H295.016L294.728 13.84L292.904 13.376ZM313.448 14.64V16.416H322.344V14.64H313.448ZM315.336 16.432C314.728 17.488 313.672 18.784 312.664 19.552C313.08 19.856 313.688 20.384 313.992 20.752C315.048 19.872 316.2 18.512 317.032 17.216L315.336 16.432ZM318.344 17.328C319.368 18.304 320.552 19.696 321.032 20.656L322.44 19.424C321.912 18.496 320.664 17.184 319.64 16.24L318.344 17.328ZM316.152 19.344L314.488 19.76C315.768 23.456 317.864 26.096 321.432 27.344C321.72 26.8 322.296 26 322.728 25.616C319.368 24.64 317.192 22.352 316.152 19.344ZM316.056 12.88C316.52 13.504 317 14.4 317.208 14.976L318.984 14.224C318.76 13.648 318.248 12.848 317.752 12.24L316.056 12.88ZM307.8 15.568V17.344H313.048V15.568H307.8ZM309.704 12.416V27.44H311.448V12.416H309.704ZM309.496 16.784C309.128 18.848 308.264 21.456 307.272 22.832C307.576 23.344 308.008 24.208 308.168 24.752C309.224 23.056 310.104 19.84 310.52 17.184L309.496 16.784ZM311.432 17.824L310.584 18.592C311.048 19.456 311.992 21.424 312.36 22.464L313.448 21.04C313.16 20.528 311.8 18.304 311.432 17.824ZM318.856 19.328C317.96 22.448 315.816 24.72 312.552 25.952C312.936 26.288 313.512 27.04 313.752 27.456C317.32 26 319.576 23.504 320.696 19.808L318.856 19.328ZM330.536 17.216V19.152H337.192V17.216H330.536ZM323.688 24.72V26.656H338.312V24.72H323.688ZM329.448 12.608V25.792H331.512V12.608H329.448ZM346.568 18.208H352.04V18.864H346.568V18.208ZM346.568 16.544H352.04V17.2H346.568V16.544ZM344.824 15.504V19.92H353.88V15.504H344.824ZM344.152 20.608L344.312 22.048C346.68 22 350.088 21.904 353.32 21.808L353.368 20.496C350.024 20.56 346.456 20.608 344.152 20.608ZM351.208 20C351.992 20.704 352.92 21.712 353.336 22.352L354.696 21.584C354.248 20.928 353.272 19.968 352.472 19.312L351.208 20ZM348.36 12.544V21.392L350.216 21.2V12.544H348.36ZM343.816 22.576V24.048H354.504V22.576H343.816ZM350.616 21.392V25.632C350.616 25.824 350.536 25.888 350.312 25.888C350.072 25.904 349.256 25.904 348.52 25.872C348.744 26.32 348.968 26.992 349.048 27.472C350.216 27.472 351.064 27.472 351.672 27.216C352.296 26.976 352.472 26.544 352.472 25.68V21.392H350.616ZM345.24 24.544C345.928 25.2 346.76 26.144 347.112 26.752L348.632 25.776C348.216 25.168 347.352 24.288 346.648 23.68L345.24 24.544ZM344.168 13.504V14.896H354.36V13.504H344.168ZM342.792 12.48C341.976 14.768 340.584 17.04 339.128 18.496C339.464 18.96 339.976 20.016 340.152 20.48C341.896 18.656 343.56 15.776 344.6 13.04L342.792 12.48ZM341.24 16.896V27.424H343.08V15.088L343.064 15.072L341.24 16.896ZM360.376 19.92C360.376 16.512 358.952 13.952 357.224 12.24L355.704 12.928C357.32 14.64 358.568 16.864 358.568 19.92C358.568 22.992 357.32 25.216 355.704 26.928L357.224 27.616C358.952 25.904 360.376 23.344 360.376 19.92Z" fill="#5B5046"/>
<g clip-path="url(#clip0_1205_5087)">
<path d="M233.155 56.0594C232.377 56.0174 231.604 55.9834 230.831 55.9434C230.741 55.9482 230.653 55.9623 230.567 55.9854C230.4 55.8475 230.199 55.7557 229.986 55.7193C229.772 55.6829 229.553 55.7031 229.35 55.7778C229.146 55.8526 228.966 55.9793 228.827 56.1454C228.688 56.3115 228.595 56.5111 228.558 56.7244C226.372 69.2044 227.971 81.8984 228.135 94.4664C224.301 94.6184 220.484 95.0664 216.643 94.9514C212.983 94.8384 209.043 93.9934 205.453 94.5894C204.233 94.7894 204.228 96.1044 204.91 96.8114C204.696 97.6334 205.103 98.5754 206.174 98.4464C209.988 97.9914 214.154 98.7124 218.035 98.5614C221.881 98.4084 226.141 98.7074 229.905 97.9614C230.381 98.2853 230.963 98.4149 231.532 98.3236C232.1 98.2324 232.613 97.9271 232.964 97.4704C232.955 97.5614 233.026 97.3224 233.026 97.0384V96.8124C233.025 96.5509 232.945 96.2958 232.797 96.0804C234.297 83.4654 230.244 70.1804 234.497 57.8024C234.55 57.597 234.556 57.3821 234.513 57.1742C234.471 56.9662 234.381 56.7707 234.252 56.6025C234.122 56.4344 233.956 56.298 233.766 56.2039C233.576 56.1098 233.367 56.0603 233.155 56.0594Z" fill="#E4D2C6"/>
<path d="M235.174 55.5011C235.136 55.3617 235.052 55.239 234.937 55.152C234.821 55.065 234.68 55.0187 234.535 55.0201C228.867 55.0011 223.216 54.9801 217.545 55.0631C212.815 55.1331 208.023 54.7561 203.38 55.7931C203.272 55.7304 203.15 55.6978 203.025 55.6986C202.9 55.6994 202.777 55.7336 202.67 55.7977C202.563 55.8617 202.475 55.9534 202.415 56.063C202.355 56.1726 202.325 56.2963 202.329 56.4211C202.316 56.5279 202.327 56.6362 202.361 56.7381C203.513 63.3681 203.066 70.1141 203.161 76.8031C203.261 83.8031 204.239 90.7531 204.068 97.7621C204.061 97.9008 204.104 98.0375 204.189 98.1476C204.273 98.2576 204.395 98.3337 204.53 98.3621C204.543 98.4824 204.596 98.5946 204.682 98.6797C204.768 98.7647 204.881 98.8172 205.001 98.8281C213.852 100.274 223.719 99.3341 232.618 99.0701C232.757 99.0704 232.892 99.0245 233.002 98.9395C233.111 98.8546 233.189 98.7355 233.223 98.6011C233.313 98.6145 233.405 98.6081 233.492 98.5826C233.579 98.557 233.66 98.5129 233.728 98.4532C233.797 98.3935 233.851 98.3197 233.889 98.2368C233.926 98.1539 233.944 98.064 233.943 97.9731C233.943 90.0401 233.314 82.1551 233.578 74.2331C233.705 70.5591 233.537 66.7921 234.289 63.1841C234.836 60.6011 235.581 58.1451 235.174 55.5011ZM233.234 61.8811C232.027 67.1161 232.369 75.1811 232.108 80.5151C231.788 87.1321 232.624 91.1351 232.622 97.7631H232.617C223.861 98.0221 214.106 98.9851 205.394 97.5731C205.544 90.2591 204.569 82.9911 204.467 75.6881C204.378 69.4521 204.712 63.2281 203.742 57.0531C208.89 55.9091 214.288 56.5011 219.523 56.3271C222.837 56.2271 226.149 56.2271 229.467 56.2791C230.467 56.2931 233.975 55.6531 234.017 57.3351C233.941 58.8762 233.677 60.4023 233.233 61.8801" fill="#5C5147"/>
<path d="M225.665 63.326C221.365 62.467 217.007 63.248 212.681 63.303C212.508 63.303 212.341 63.3719 212.219 63.4947C212.096 63.6174 212.027 63.7839 212.027 63.9575C212.027 64.1311 212.096 64.2975 212.219 64.4203C212.341 64.543 212.508 64.612 212.681 64.612C216.87 64.559 221.152 63.755 225.308 64.593C226.144 64.753 226.497 63.493 225.665 63.327" fill="#5C5147"/>
<path d="M227.03 66.7919C222.097 66.6189 217.174 66.9789 212.24 67.0109C212.072 67.0175 211.912 67.0893 211.795 67.2111C211.678 67.3329 211.612 67.4954 211.612 67.6644C211.612 67.8334 211.678 67.9959 211.795 68.1177C211.912 68.2396 212.072 68.3113 212.24 68.3179C217.173 68.2899 222.096 67.9279 227.03 68.1029C227.204 68.1029 227.371 68.0339 227.494 67.9111C227.616 67.7882 227.685 67.6216 227.685 67.4479C227.685 67.2742 227.616 67.1076 227.494 66.9848C227.371 66.8619 227.204 66.7929 227.03 66.7929" fill="#5C5147"/>
<path d="M226.149 72.0271C223.976 71.9391 221.807 72.1501 219.642 72.2651C217.592 72.3761 214.869 72.7381 213.014 71.6791C212.865 71.5996 212.691 71.5808 212.528 71.6265C212.365 71.6723 212.226 71.7791 212.14 71.9247C212.054 72.0703 212.028 72.2435 212.066 72.4082C212.104 72.573 212.205 72.7165 212.346 72.8091C216.16 74.9871 221.972 73.1631 226.146 73.3351C227.001 73.3701 226.999 72.0621 226.146 72.0261" fill="#5C5147"/>
<path d="M227.65 77.4999C222.967 76.7799 218.087 78.0559 213.523 76.6289C213.356 76.5846 213.178 76.6078 213.028 76.6934C212.878 76.779 212.768 76.9202 212.721 77.0864C212.675 77.2526 212.695 77.4305 212.779 77.5816C212.862 77.7327 213.002 77.8449 213.168 77.8939C217.78 79.3279 222.592 78.0439 227.301 78.7669C228.135 78.8899 228.492 77.6349 227.651 77.5009" fill="#5C5147"/>
<path d="M227.07 82.2972C222.703 83.0322 218.362 81.7042 214.003 81.4032C213.15 81.3452 213.155 82.6552 214.003 82.7122C218.503 83.0212 222.903 84.3202 227.423 83.5602C228.268 83.4212 227.91 82.1602 227.069 82.2972" fill="#5C5147"/>
<path d="M225.971 86.8773C222.583 87.477 219.116 87.477 215.727 86.8773C214.895 86.6953 214.543 87.9563 215.373 88.1423C218.996 88.7843 222.702 88.7843 226.324 88.1423C227.165 88.0223 226.808 86.7613 225.97 86.8773" fill="#5C5147"/>
<path d="M226.366 92.5273C222.241 93.0103 217.945 93.9703 213.96 92.3273C213.173 92.0023 212.833 93.2693 213.608 93.5903C217.708 95.2763 222.114 94.3313 226.366 93.8333C227.209 93.7333 227.219 92.4223 226.366 92.5243" fill="#5C5147"/>
<path d="M209.167 61.6021C208.884 62.279 208.516 62.9174 208.072 63.5021C208.062 63.3772 208.045 63.2529 208.02 63.1301C207.967 62.9683 207.854 62.8331 207.704 62.7523C207.554 62.6714 207.379 62.6512 207.215 62.6957C207.051 62.7402 206.91 62.846 206.821 62.9914C206.732 63.1367 206.703 63.3106 206.738 63.4771C206.827 63.7961 206.763 64.1211 206.859 64.4381C206.946 64.6458 207.084 64.8282 207.26 64.9681C207.436 65.108 207.645 65.2009 207.866 65.2381C207.98 65.27 208.099 65.2713 208.213 65.242C208.327 65.2127 208.431 65.1537 208.514 65.0711C209.35 64.1607 210.008 63.1026 210.455 61.9511C210.776 61.1711 209.498 60.8331 209.171 61.6021" fill="#5C5147"/>
<path d="M209.342 66.3281C208.747 67.0741 208.21 67.8701 207.601 68.6081C207.482 68.3059 207.408 67.9879 207.381 67.6641C207.336 66.8281 206.01 66.8231 206.054 67.6641C206.171 68.477 206.401 69.2695 206.738 70.0181C206.772 70.128 206.834 70.2273 206.917 70.3069C207 70.3865 207.102 70.4436 207.213 70.4729C207.324 70.5022 207.441 70.5028 207.552 70.4745C207.663 70.4461 207.766 70.3899 207.849 70.3111C208.713 69.3368 209.523 68.317 210.277 67.2561C210.8 66.6001 209.87 65.6701 209.341 66.3281" fill="#5C5147"/>
<path d="M210.342 80.1563C209.747 80.9023 209.21 81.6983 208.601 82.4363C208.482 82.1341 208.408 81.816 208.381 81.4923C208.336 80.6563 207.01 80.6513 207.054 81.4923C207.171 82.3051 207.401 83.0976 207.738 83.8463C207.772 83.9561 207.834 84.0555 207.917 84.135C208 84.2146 208.102 84.2717 208.213 84.301C208.324 84.3304 208.441 84.3309 208.552 84.3026C208.663 84.2743 208.766 84.2181 208.849 84.1393C209.713 83.1649 210.523 82.1451 211.277 81.0843C211.8 80.4283 210.87 79.4983 210.341 80.1563" fill="#5C5147"/>
<path d="M210.445 70.2573C209.687 71.1986 208.803 72.0317 207.818 72.7333C207.858 72.477 207.926 72.2256 208.018 71.9833C208.282 71.1833 207.002 70.8373 206.734 71.6373C206.561 72.0269 206.477 72.4506 206.488 72.8771C206.5 73.3035 206.607 73.7219 206.802 74.1013C206.895 74.2496 207.041 74.3569 207.21 74.4011C207.379 74.4454 207.558 74.4233 207.711 74.3393C209.129 73.5359 210.376 72.4643 211.384 71.1843C211.929 70.5393 210.997 69.6113 210.445 70.2563" fill="#5C5147"/>
<path d="M211.445 84.085C210.687 85.0262 209.803 85.8593 208.818 86.561C208.858 86.3046 208.926 86.0532 209.018 85.811C209.282 85.011 208.002 84.665 207.734 85.465C207.561 85.8546 207.477 86.2782 207.488 86.7047C207.5 87.1312 207.607 87.5495 207.802 87.929C207.895 88.0772 208.041 88.1845 208.21 88.2288C208.379 88.273 208.558 88.2509 208.711 88.167C210.129 87.3635 211.376 86.2919 212.384 85.012C212.929 84.367 211.997 83.439 211.445 84.084" fill="#5C5147"/>
<path d="M209.68 74.5332C209.28 75.3178 208.724 76.0124 208.046 76.5742C208.046 76.4362 208.046 76.2992 208.046 76.1742C208.039 76.0029 207.966 75.8409 207.843 75.7221C207.719 75.6033 207.554 75.5369 207.383 75.5369C207.212 75.5369 207.047 75.6033 206.923 75.7221C206.8 75.8409 206.727 76.0029 206.721 76.1742C206.688 76.8087 206.795 77.4427 207.035 78.0312C207.124 78.1807 207.268 78.289 207.437 78.3326C207.605 78.3762 207.784 78.3516 207.935 78.2642C209.165 77.5279 210.166 76.4639 210.827 75.1912C211.214 74.4452 210.075 73.7842 209.681 74.5332" fill="#5C5147"/>
<path d="M210.886 90.757C210.374 91.406 209.924 92.122 209.44 92.808C209.333 92.1304 209.153 91.4663 208.903 90.827C208.603 90.046 207.316 90.381 207.628 91.173C208.043 92.2291 208.258 93.3526 208.264 94.487C208.269 94.6164 208.311 94.7417 208.384 94.848C208.458 94.9543 208.561 95.0371 208.681 95.0864C208.8 95.1357 208.932 95.1494 209.059 95.1259C209.186 95.1025 209.304 95.0428 209.398 94.954C210.348 93.968 210.982 92.746 211.823 91.681C212.339 91.025 211.412 90.09 210.887 90.757" fill="#5C5147"/>
<path d="M327.085 72.3629C327.129 70.9843 327.057 69.6044 326.87 68.2379C326.824 67.0199 326.802 65.7949 326.797 64.5849C326.792 64.2803 326.716 63.9811 326.574 63.7115C326.432 63.4418 326.229 63.2092 325.981 63.0326C325.733 62.8559 325.447 62.7401 325.146 62.6944C324.845 62.6488 324.537 62.6746 324.248 62.7699C323.824 62.4263 323.352 62.1473 322.848 61.9419C314.09 58.5149 302.596 59.0849 293.325 58.4419C284.46 57.8219 271.286 53.9849 262.791 57.3199C261.353 57.8849 260.614 60.0579 262.32 60.8979C265.089 62.2349 266.707 62.2849 269.911 62.1329C276.834 61.8149 285.204 63.9209 292.089 64.8529C297.845 65.6359 303.512 66.5279 309.298 67.0979C312.935 67.4529 319.167 67.2979 322.25 69.5979C323.718 77.9209 322.579 94.8639 322.797 98.0219C323.336 105.712 323.645 113.622 325.136 121.231C318.241 119.023 309.936 119.791 302.925 118.248C297.684 116.913 292.548 115.197 287.558 113.115C282.498 111.202 277.064 110.61 272.087 108.622C271.774 108.473 271.421 108.433 271.083 108.508C270.745 108.583 270.442 108.768 270.222 109.035C268.276 108.596 266.296 108.325 264.304 108.225C261.755 108.12 261.765 112.04 264.304 112.133C270.07 112.356 275.125 114.906 280.466 116.733C285.766 118.538 291.322 119.656 296.709 121.168C306.044 123.788 316.822 126.868 326.622 125.808C326.736 125.789 326.848 125.759 326.956 125.716C327.205 125.864 327.485 125.951 327.775 125.97C328.064 125.989 328.353 125.939 328.62 125.824C328.886 125.71 329.121 125.534 329.307 125.312C329.492 125.089 329.622 124.825 329.687 124.543C332.028 107.435 328.187 89.6989 327.087 72.3679" fill="#E4D2C6"/>
<path d="M303.024 128.158C302.768 128.221 302.518 128.311 302.272 128.373C302.036 128.118 301.735 127.933 301.401 127.839C301.068 127.745 300.714 127.745 300.381 127.84C296.926 128.833 294.129 130.998 291.264 133.088C288.287 135.256 285.164 136.996 282.592 139.546C281.772 139.936 280.964 140.374 280.119 140.731C277.935 141.694 279.593 144.674 281.719 144.196C282.001 144.386 282.337 144.481 282.677 144.466C283.017 144.45 283.343 144.326 283.607 144.111C284.83 143.271 286.055 142.433 287.297 141.611C289.743 140.303 292.117 138.863 294.407 137.296C294.893 137.031 295.376 136.756 295.867 136.518C299.059 134.963 302.428 134.038 304.939 131.435C305.232 131.124 305.418 130.727 305.467 130.302C305.516 129.877 305.425 129.448 305.21 129.078C304.994 128.709 304.664 128.42 304.27 128.254C303.876 128.088 303.438 128.054 303.024 128.158Z" fill="#E4D2C6"/>
<path d="M330.867 126.606C330.842 122.416 330.239 118.206 330.313 113.948C330.413 108.085 329.88 102.117 329.68 96.2619C329.308 85.2619 328.566 74.2879 328.495 63.2749C328.709 63.1373 328.874 62.9343 328.965 62.6959C329.055 62.4574 329.067 62.1962 328.998 61.9507C328.928 61.7052 328.782 61.4886 328.58 61.3326C328.378 61.1767 328.132 61.0899 327.877 61.0849C317.456 61.0849 306.911 57.6449 296.493 56.8399C284.982 55.9619 273.283 55.4369 261.727 55.3519C261.562 55.1816 261.351 55.0632 261.119 55.0112C260.888 54.9591 260.647 54.9757 260.425 55.0588C260.203 55.1419 260.01 55.288 259.87 55.4791C259.729 55.6703 259.648 55.8982 259.636 56.1349C259.661 74.1349 260.198 92.1239 260.236 110.118C260.302 110.731 260.39 111.331 260.471 111.936C260.321 111.946 260.174 111.983 260.038 112.046C252.158 115.846 243.37 116.926 235.238 119.984C235.125 119.983 235.013 119.994 234.904 120.016C231.55 121.059 228.432 122.696 225.098 123.781C224.918 123.833 224.755 123.93 224.623 124.062C224.491 124.194 224.394 124.357 224.341 124.536C223.464 124.992 222.531 125.329 221.567 125.541C221.314 125.553 221.072 125.647 220.877 125.807C220.682 125.967 220.543 126.186 220.481 126.431C220.42 126.677 220.439 126.935 220.535 127.169C220.632 127.402 220.801 127.599 221.018 127.729C230.624 133.119 240.265 138.468 249.943 143.776C258.592 148.531 267.821 151.956 276.643 156.302C276.655 156.508 276.717 156.709 276.824 156.885C276.932 157.062 277.08 157.21 277.258 157.316C277.435 157.423 277.636 157.484 277.842 157.495C278.049 157.506 278.255 157.467 278.443 157.38C289.074 152.247 299.292 146.347 309.936 141.224C314.998 138.801 319.782 135.854 324.703 133.159C326.609 132.119 331.669 130.326 331.669 127.691C331.677 127.445 331.602 127.203 331.454 127.006C331.307 126.809 331.097 126.667 330.859 126.606H330.867ZM294.259 59.0989C304.915 59.5239 315.473 62.9989 326.094 63.3739C326.172 74.3499 326.858 85.3049 327.276 96.2579C327.489 101.458 327.537 106.669 327.876 111.871C328.182 116.436 328.438 121.387 328.468 125.982C317.068 123.989 305.558 122.074 294.274 119.572C283.56 117.192 273.351 113.134 262.634 110.764C262.609 93.0879 262.097 75.4149 262.049 57.7339C272.801 57.8539 283.521 58.6839 294.256 59.0989H294.259ZM318.667 133.783C314.067 136.383 309.474 138.883 304.657 141.098C295.768 145.191 287.392 150.278 278.621 154.619C269.57 150.086 260.047 146.626 251.16 141.728C242.306 136.848 233.462 131.946 224.627 127.023C225.227 126.745 225.822 126.44 226.427 126.145C226.646 126.033 226.82 125.848 226.918 125.622C228.925 124.887 230.894 124.034 232.871 123.262C233.124 123.319 233.389 123.291 233.625 123.18C242.507 119.172 252.439 118.337 261.243 114.08C261.446 114.001 261.617 113.855 261.726 113.666C261.835 113.477 261.876 113.256 261.843 113.04C271.889 115.22 281.53 118.765 291.493 121.34C303.615 124.488 316.347 126.26 328.686 128.433C326.646 130.096 319.791 133.146 318.668 133.783" fill="#5C5147"/>
<path d="M269.852 143.661C261.778 140.268 254.338 135.546 245.952 132.87C245.709 132.773 245.438 132.773 245.195 132.871C244.952 132.968 244.756 133.155 244.646 133.393H244.633C243.251 132.75 242.074 134.653 243.426 135.433C248.604 138.527 254.003 141.237 259.577 143.541C262.047 144.734 264.558 145.849 267.125 146.831C267.251 146.887 267.386 146.916 267.523 146.916C267.66 146.916 267.795 146.888 267.92 146.833C268.046 146.778 268.158 146.697 268.251 146.596C268.343 146.495 268.413 146.376 268.456 146.246C268.613 146.241 268.767 146.204 268.91 146.139C269.052 146.074 269.18 145.981 269.286 145.866C270.354 145.841 270.986 144.148 269.856 143.661" fill="#5C5147"/>
<path d="M307.78 127.735C292.737 125.635 278.871 118.635 263.96 116.064C263.784 116.037 263.604 116.042 263.431 116.081C263.201 116 262.952 115.994 262.72 116.064C255.72 118.317 249.646 123.392 242.233 124.324C240.899 124.499 240.733 126.354 241.744 126.662C241.792 126.848 241.887 127.018 242.021 127.156C242.154 127.294 242.321 127.396 242.506 127.45C250.201 129.911 256.797 134.563 264.037 138.006C270.378 141.016 276.746 143.981 283.337 146.426C283.472 146.483 283.617 146.511 283.764 146.506C283.911 146.502 284.055 146.466 284.186 146.401C284.317 146.335 284.433 146.242 284.525 146.128C284.617 146.013 284.683 145.88 284.719 145.738C291.989 140.753 299.314 135.838 306.872 131.287C307.092 131.166 307.265 130.973 307.36 130.74C307.455 130.506 307.466 130.248 307.393 130.007C308.717 129.95 309.226 127.927 307.78 127.734V127.735ZM288.986 125.523C291.522 126.308 294.043 127.073 296.586 127.743C296.473 127.765 296.365 127.804 296.265 127.858C293.894 129.232 291.607 130.744 289.416 132.388C287.566 131.723 285.751 131.003 283.946 130.24C285.563 129.117 287.161 127.97 288.71 126.75C288.902 126.618 289.038 126.418 289.089 126.19C289.141 125.963 289.105 125.724 288.988 125.522L288.986 125.523ZM274.474 128.322C274.78 128.502 275.099 128.685 275.405 128.855C276.579 129.51 277.805 130.113 279.042 130.713C277.708 131.576 276.375 132.428 275.042 133.271C273.501 132.546 271.954 131.811 270.415 131.071C271.779 130.153 273.123 129.243 274.475 128.321L274.474 128.322ZM267.947 129.861C265.957 128.868 263.971 127.871 262.016 126.831C263.75 125.881 265.489 124.951 267.19 123.981C268.916 124.911 270.599 125.951 272.235 126.966C270.807 127.926 269.378 128.893 267.947 129.866V129.861ZM281.557 131.856C283.377 132.656 285.224 133.399 287.1 134.084C285.753 135.074 284.407 136.047 283.03 136.977C281.222 136.147 279.409 135.306 277.591 134.454C278.925 133.614 280.244 132.739 281.557 131.854V131.856ZM280.436 122.796C282.694 123.506 284.964 124.241 287.22 124.959C287.145 124.988 287.075 125.027 287.012 125.074C285.212 126.494 283.357 127.824 281.466 129.109C279.843 128.369 278.253 127.588 276.695 126.766C277.814 125.961 278.953 125.176 280.051 124.366C280.29 124.192 280.46 123.939 280.531 123.651C280.601 123.364 280.567 123.061 280.436 122.796ZM272.174 120.373C274.412 120.973 276.636 121.633 278.851 122.321H278.846C277.363 123.411 275.857 124.455 274.336 125.511C274.179 125.423 274.009 125.343 273.855 125.251C272.392 124.411 270.927 123.511 269.427 122.66C270.181 122.19 270.927 121.715 271.652 121.205C271.792 121.111 271.912 120.989 272.002 120.846C272.092 120.703 272.151 120.542 272.176 120.375L272.174 120.373ZM263.347 118.37C265.447 118.728 267.541 119.198 269.599 119.708C268.746 120.271 267.873 120.808 266.999 121.323C265.172 120.367 263.241 119.629 261.243 119.123C261.931 118.858 262.635 118.595 263.343 118.365L263.347 118.37ZM258.402 120.365C258.484 120.581 258.625 120.771 258.808 120.913C258.991 121.055 259.209 121.144 259.44 121.17C261.221 121.429 262.955 121.946 264.588 122.705C262.907 123.625 261.211 124.53 259.548 125.47C257.748 124.477 255.977 123.45 254.263 122.39C255.635 121.7 257.014 121.01 258.401 120.365H258.402ZM253.274 129.651C250.769 128.291 248.188 127.077 245.544 126.016C247.763 125.363 249.922 124.518 251.996 123.491C252.006 123.552 252.025 123.61 252.052 123.666C252.1 123.763 252.148 123.856 252.196 123.944C252.287 124.121 252.427 124.268 252.599 124.369C252.771 124.469 252.968 124.519 253.168 124.512C254.477 125.317 255.811 126.102 257.157 126.867C255.95 127.61 254.773 128.382 253.631 129.247C253.484 129.355 253.362 129.493 253.274 129.652V129.651ZM261.642 134.18C259.551 133.1 257.506 131.975 255.463 130.842C256.787 129.889 258.163 129.022 259.563 128.199C261.58 129.296 263.619 130.361 265.681 131.392C264.332 132.317 262.981 133.232 261.639 134.18H261.642ZM268.888 137.738C267.271 136.978 265.673 136.178 264.088 135.378C265.437 134.443 266.796 133.538 268.151 132.605C269.642 133.33 271.138 134.053 272.639 134.758C271.578 135.423 270.505 136.083 269.432 136.758C269.261 136.857 269.12 137 269.024 137.173C268.928 137.345 268.881 137.541 268.888 137.738ZM276.646 141.201C274.705 140.386 272.811 139.521 270.893 138.643C272.333 137.743 273.773 136.858 275.209 135.965C277.021 136.808 278.83 137.644 280.638 138.475C279.538 139.138 278.413 139.763 277.244 140.315C277.065 140.383 276.912 140.505 276.804 140.663C276.697 140.821 276.641 141.009 276.644 141.2L276.646 141.201ZM283.253 143.86C281.793 143.31 280.337 142.722 278.879 142.127C280.371 141.394 281.821 140.576 283.22 139.677C284.427 140.242 285.645 140.805 286.837 141.362C286.861 141.374 286.887 141.38 286.915 141.38C285.705 142.215 284.462 143.033 283.252 143.86H283.253ZM288.052 139.325C287.209 138.925 286.361 138.525 285.518 138.142C286.943 137.142 288.348 136.097 289.755 135.062C291.258 135.575 292.749 136.059 294.228 136.515C292.363 137.745 290.502 138.973 288.649 140.22C288.654 140.026 288.599 139.836 288.491 139.675C288.384 139.514 288.229 139.39 288.049 139.32L288.052 139.325ZM295.782 135.467C295.814 135.2 295.748 134.931 295.597 134.708C295.445 134.486 295.219 134.327 294.959 134.259C294.038 133.966 293.104 133.626 292.17 133.319C293.87 132.087 295.633 130.944 297.453 129.896C297.617 129.807 297.757 129.678 297.86 129.522C297.963 129.365 298.026 129.186 298.043 129C298.06 128.814 298.031 128.626 297.958 128.453C297.886 128.281 297.772 128.129 297.627 128.011C300.07 128.639 302.527 129.216 305.021 129.636C301.9 131.526 298.837 133.491 295.8 135.469" fill="#5C5147"/>
<path d="M323.366 66.3799C313.091 64.9749 302.744 64.0869 292.44 63.2119C285.763 62.6519 278.46 61.3239 271.446 60.9119C271.195 60.9119 270.946 60.8839 270.712 60.8689C268.998 60.7689 267.295 60.7589 265.632 60.8259C265.403 60.8879 265.201 61.025 265.058 61.2153C264.915 61.4056 264.841 61.6382 264.845 61.8759C264.832 62.4109 264.837 62.9259 264.837 63.4609C266.037 78.3339 265.528 93.6749 265.627 108.596C265.771 108.725 265.942 108.82 266.127 108.874C285.111 113.329 304.515 121.41 324.078 122.747C324.244 122.763 324.41 122.74 324.565 122.68C324.719 122.62 324.857 122.524 324.968 122.4C325.078 122.276 325.157 122.128 325.199 121.968C325.241 121.807 325.245 121.639 325.209 121.477C325.271 121.318 325.294 121.147 325.277 120.977C323.977 103.154 324.619 85.2679 324.077 67.4089C324.075 67.1863 324.005 66.9696 323.878 66.7869C323.75 66.6042 323.571 66.4638 323.363 66.3839" fill="#5C5147"/>
<path d="M222.582 107.83C221.995 107.18 221.682 106.346 221.102 105.684C220.444 104.929 219.802 104.163 219.118 103.431C219.089 103.406 219.059 103.384 219.027 103.363C219 103.32 218.975 103.278 218.946 103.236C218.477 102.541 217.333 103.192 217.808 103.895C217.988 104.159 218.156 104.429 218.325 104.7C218.536 105.093 218.772 105.469 219.016 105.841C219.55 106.757 220.05 107.689 220.556 108.619C220.611 108.707 220.685 108.78 220.774 108.834C220.862 108.887 220.961 108.92 221.064 108.929C221.167 108.938 221.27 108.923 221.367 108.886C221.463 108.848 221.549 108.789 221.619 108.712C221.63 108.724 221.639 108.738 221.649 108.75C222.218 109.379 223.149 108.45 222.583 107.83" fill="#E4D2C6"/>
<path d="M220.441 109.531C220.301 108.704 219.028 109.056 219.168 109.877C219.6 112.397 219.078 114.939 219.036 117.469C219.043 117.639 219.116 117.8 219.238 117.919C219.361 118.037 219.525 118.103 219.696 118.103C219.867 118.103 220.031 118.037 220.154 117.919C220.276 117.8 220.349 117.639 220.355 117.469C220.397 114.806 220.894 112.181 220.441 109.531Z" fill="#E4D2C6"/>
<path d="M223.681 109.181L223.668 109.148C223.668 109.118 223.668 109.088 223.668 109.059C223.669 109.039 223.669 109.019 223.668 108.999C223.668 108.97 223.668 108.942 223.668 108.913C223.675 108.867 223.673 108.821 223.661 108.776C223.649 108.732 223.628 108.69 223.6 108.655C223.594 108.63 223.587 108.605 223.578 108.581C223.568 108.557 223.538 108.54 223.516 108.52C223.555 108.472 223.578 108.413 223.583 108.351C223.587 108.289 223.572 108.227 223.54 108.174C222.168 105.943 220.497 103.911 218.573 102.135C218.538 102.102 218.497 102.077 218.452 102.062C218.407 102.047 218.36 102.042 218.313 102.048C218.266 102.054 218.221 102.071 218.181 102.096C218.141 102.122 218.107 102.156 218.083 102.197C216.534 104.564 214.691 106.725 212.599 108.628C212.554 108.668 212.524 108.722 212.512 108.781C212.5 108.84 212.508 108.901 212.534 108.956C212.514 109.014 212.512 109.077 212.527 109.137C212.543 109.197 212.576 109.251 212.623 109.292C212.621 109.308 212.621 109.324 212.623 109.341C212.691 109.623 212.808 109.892 212.968 110.136C213.002 110.196 213.055 110.242 213.119 110.269C213.183 110.295 213.254 110.3 213.321 110.282C213.75 110.162 214.192 110.095 214.638 110.082H216.266C216.306 110.083 216.347 110.076 216.385 110.06C216.423 110.045 216.457 110.021 216.485 109.991C216.65 112.353 216.135 114.723 216.162 117.091C216.127 117.114 216.099 117.146 216.079 117.182C216.059 117.219 216.048 117.26 216.047 117.301C216.046 117.343 216.054 117.384 216.072 117.422C216.089 117.46 216.115 117.493 216.148 117.519C217.257 118.461 219.106 118.03 220.441 118.119C220.468 118.12 220.495 118.118 220.522 118.111C220.582 118.173 220.663 118.21 220.749 118.214C220.835 118.218 220.92 118.189 220.986 118.134C221.151 118.267 221.43 118.258 221.473 117.998C221.648 115.934 221.705 113.862 221.643 111.792C221.674 111.351 221.665 110.908 221.618 110.469C222.43 110.406 223.226 110.181 223.494 109.529C223.565 109.506 223.625 109.456 223.66 109.39C223.695 109.324 223.704 109.247 223.683 109.175L223.681 109.181ZM219.733 108.853C219.343 108.915 219.498 109.48 219.875 109.453C220.471 112.099 220.492 114.842 219.937 117.497C218.921 117.52 217.598 117.697 216.787 117.204V117.196C216.736 114.372 217.461 111.576 216.987 108.764C216.95 108.547 216.692 108.508 216.528 108.579C215.5 109.036 214.347 109.131 213.259 108.848C215.206 107.047 216.937 105.026 218.417 102.826C220.089 104.432 221.558 106.239 222.789 108.205C221.799 108.546 220.773 108.765 219.731 108.859" fill="#5C5147"/>
<path d="M219.733 108.853C219.343 108.915 219.498 109.48 219.875 109.453C220.471 112.099 220.492 114.842 219.937 117.497C218.921 117.52 217.598 117.697 216.787 117.204V117.196C216.736 114.372 217.461 111.576 216.987 108.764C216.95 108.547 216.692 108.508 216.528 108.579C215.5 109.036 214.347 109.131 213.259 108.848C215.206 107.047 216.937 105.026 218.417 102.826C220.089 104.432 221.558 106.239 222.789 108.205C221.799 108.546 220.773 108.765 219.731 108.859M223.681 109.181L223.668 109.148C223.668 109.118 223.668 109.088 223.668 109.059C223.669 109.039 223.669 109.019 223.668 108.999C223.668 108.97 223.668 108.942 223.668 108.913C223.675 108.867 223.673 108.821 223.661 108.776C223.649 108.732 223.628 108.69 223.6 108.655C223.594 108.63 223.587 108.605 223.578 108.581C223.568 108.557 223.538 108.54 223.516 108.52C223.555 108.472 223.578 108.413 223.583 108.351C223.587 108.289 223.572 108.227 223.54 108.174C222.168 105.943 220.497 103.911 218.573 102.135C218.538 102.102 218.497 102.077 218.452 102.062C218.407 102.047 218.36 102.042 218.313 102.048C218.266 102.054 218.221 102.071 218.181 102.096C218.141 102.122 218.107 102.156 218.083 102.197C216.534 104.564 214.691 106.725 212.599 108.628C212.554 108.668 212.524 108.722 212.512 108.781C212.5 108.84 212.508 108.901 212.534 108.956C212.514 109.014 212.512 109.077 212.527 109.137C212.543 109.197 212.576 109.251 212.623 109.292C212.621 109.308 212.621 109.324 212.623 109.341C212.691 109.623 212.808 109.892 212.968 110.136C213.002 110.196 213.055 110.242 213.119 110.269C213.183 110.295 213.254 110.3 213.321 110.282C213.75 110.162 214.192 110.095 214.638 110.082H216.266C216.306 110.083 216.347 110.076 216.385 110.06C216.423 110.045 216.457 110.021 216.485 109.991C216.65 112.353 216.135 114.723 216.162 117.091C216.127 117.114 216.099 117.146 216.079 117.182C216.059 117.219 216.048 117.26 216.047 117.301C216.046 117.343 216.054 117.384 216.072 117.422C216.089 117.46 216.115 117.493 216.148 117.519C217.257 118.461 219.106 118.03 220.441 118.119C220.468 118.12 220.495 118.118 220.522 118.111C220.582 118.173 220.663 118.21 220.749 118.214C220.835 118.218 220.92 118.189 220.986 118.134C221.151 118.267 221.43 118.258 221.473 117.998C221.648 115.934 221.705 113.862 221.643 111.792C221.674 111.351 221.665 110.908 221.618 110.469C222.43 110.406 223.226 110.181 223.494 109.529C223.565 109.506 223.625 109.456 223.66 109.39C223.695 109.324 223.704 109.247 223.683 109.175L223.681 109.181Z" stroke="#5C5147" stroke-width="0.2"/>
</g>
<path d="M228.906 183.263C229.219 183.576 229.75 183.576 230.062 183.263L239.25 174.076C239.562 173.763 239.562 173.232 239.25 172.919L238.125 171.794C237.812 171.482 237.312 171.482 237 171.794L229.5 179.294L225.969 175.794C225.656 175.482 225.156 175.482 224.844 175.794L223.719 176.919C223.406 177.232 223.406 177.763 223.719 178.076L228.906 183.263Z" fill="#D78100"/>
<path d="M247.222 171.625V172.649H260.326V171.625H247.222ZM247.734 183.353V184.361H259.846V183.353H247.734ZM250.374 173.705V174.617H257.11V173.705H250.374ZM250.374 175.721V176.633H257.11V175.721H250.374ZM246.47 177.785V178.793H261.014V177.785H246.47ZM249.83 180.649V181.641H257.686V180.649H249.83ZM249.654 170.089V178.345H250.854V170.089H249.654ZM256.694 170.089V178.345H257.894V170.089H256.694ZM253.094 179.305V183.913H254.326V179.305H253.094ZM250.502 178.057C249.638 179.465 247.926 180.841 246.31 181.481C246.582 181.705 246.918 182.121 247.094 182.393C248.774 181.609 250.534 180.089 251.51 178.441L250.502 178.057ZM257.046 178.057L256.102 178.425C257.03 179.993 258.726 181.481 260.422 182.201C260.598 181.913 260.95 181.497 261.222 181.273C259.558 180.681 257.894 179.417 257.046 178.057ZM262.774 173.449V174.665H276.742V173.449H262.774ZM265.366 180.585V181.801H274.102V180.585H265.366ZM269.094 170.089V184.793H270.358V170.089H269.094ZM267.942 173.849C266.838 176.873 264.678 179.849 262.342 181.289C262.63 181.529 263.014 181.961 263.222 182.265C265.638 180.585 267.814 177.529 269.03 174.185L267.942 173.849ZM271.478 173.897L270.406 174.217C271.606 177.545 273.766 180.617 276.246 182.217C276.454 181.881 276.87 181.417 277.19 181.177C274.742 179.801 272.566 176.905 271.478 173.897ZM281.798 178.441H289.862V179.529H281.798V178.441ZM281.798 180.313H289.862V181.433H281.798V180.313ZM281.798 176.569H289.862V177.657H281.798V176.569ZM280.63 175.769V182.233H291.062V175.769H280.63ZM287.27 182.985C288.998 183.545 290.726 184.233 291.75 184.745L292.822 184.057C291.686 183.545 289.814 182.841 288.07 182.313L287.27 182.985ZM283.318 182.329C282.166 182.969 280.246 183.529 278.598 183.881C278.87 184.089 279.286 184.553 279.478 184.777C281.078 184.345 283.11 183.609 284.406 182.841L283.318 182.329ZM285.158 171.161V172.105H291.75V171.161H285.158ZM285.414 170.041C285.046 171.193 284.374 172.329 283.542 173.097C283.814 173.241 284.262 173.529 284.454 173.705C285.286 172.889 286.054 171.593 286.486 170.281L285.414 170.041ZM287.318 171.753V172.265C287.318 173.081 286.918 174.185 282.758 174.729C282.966 174.953 283.286 175.369 283.398 175.657C287.91 174.953 288.422 173.513 288.422 172.297V171.753H287.318ZM288.262 172.697L287.414 172.905C288.294 174.329 290.134 175.241 292.438 175.577C292.582 175.273 292.886 174.841 293.126 174.601C290.902 174.409 289.078 173.737 288.262 172.697ZM278.87 171.033V171.977H282.726V171.033H278.87ZM278.518 173.529V174.505H283.126V173.529H278.518ZM291.35 171.161V171.337C291.062 172.025 290.614 172.841 290.246 173.369L291.19 173.705C291.638 173.129 292.15 172.201 292.55 171.385L291.734 171.113L291.558 171.161H291.35ZM297.078 170.089V184.793H298.198V170.089H297.078ZM294.502 175.449V176.585H300.822V175.449H294.502ZM294.614 171.337C295.03 172.457 295.414 173.945 295.478 174.889L296.438 174.665C296.326 173.689 295.958 172.233 295.494 171.113L294.614 171.337ZM299.782 171.049C299.558 172.137 299.078 173.721 298.71 174.681L299.494 174.921C299.926 174.025 300.422 172.521 300.838 171.321L299.782 171.049ZM305.99 170.089V184.793H307.126V170.089H305.99ZM300.79 180.265L300.982 181.385L309.206 179.897L309.014 178.793L300.79 180.265ZM301.99 172.041C302.918 172.617 304.022 173.481 304.534 174.105L305.174 173.177C304.646 172.585 303.542 171.769 302.614 171.225L301.99 172.041ZM301.174 176.073C302.134 176.601 303.286 177.417 303.846 177.993L304.454 177.049C303.878 176.473 302.694 175.721 301.734 175.225L301.174 176.073ZM295.878 177.513C295.622 178.953 294.934 180.729 294.278 181.673C294.502 182.025 294.774 182.601 294.902 183.001C295.734 181.865 296.422 179.593 296.758 177.801L295.878 177.513ZM298.934 177.529L298.262 178.009C298.614 178.713 299.494 180.761 299.766 181.641L300.646 180.729C300.39 180.201 299.238 178.009 298.934 177.529Z" fill="#5B5046"/>
<path d="M228.906 214.263C229.219 214.576 229.75 214.576 230.062 214.263L239.25 205.076C239.562 204.763 239.562 204.232 239.25 203.919L238.125 202.794C237.812 202.482 237.312 202.482 237 202.794L229.5 210.294L225.969 206.794C225.656 206.482 225.156 206.482 224.844 206.794L223.719 207.919C223.406 208.232 223.406 208.763 223.719 209.076L228.906 214.263Z" fill="#D78100"/>
<path d="M256.902 208.353C256.054 209.185 254.438 209.937 252.998 210.369C253.238 210.545 253.526 210.849 253.686 211.073C255.206 210.577 256.854 209.745 257.83 208.721L256.902 208.353ZM258.438 209.889C257.35 211.025 255.254 211.937 253.222 212.401C253.446 212.609 253.686 212.961 253.846 213.185C255.99 212.609 258.134 211.601 259.35 210.273L258.438 209.889ZM259.942 211.633C258.502 213.281 255.558 214.305 252.342 214.769C252.582 215.025 252.854 215.441 252.966 215.729C256.358 215.137 259.382 213.985 260.966 212.081L259.942 211.633ZM254.774 201.073C254.118 202.785 252.95 204.449 251.67 205.521C251.942 205.681 252.39 206.049 252.582 206.241C253.878 205.057 255.11 203.249 255.894 201.345L254.774 201.073ZM254.422 202.817L253.814 203.825H260.934V202.817H254.422ZM258.742 203.041C257.654 205.761 255.03 207.329 251.798 208.161C252.022 208.385 252.374 208.865 252.518 209.105C255.83 208.081 258.582 206.353 259.878 203.313L258.742 203.041ZM254.31 203.441L253.574 204.033C254.63 206.017 257.03 208.113 260.79 208.961C260.934 208.673 261.222 208.225 261.446 208.001C257.702 207.297 255.286 205.361 254.31 203.441ZM250.71 202.977V213.137H251.766V202.977H250.71ZM249.462 201.169C248.694 203.649 247.414 206.113 246.022 207.713C246.23 208.017 246.55 208.657 246.646 208.929C248.246 207.073 249.67 204.257 250.582 201.489L249.462 201.169ZM248.182 205.089V215.793H249.334V204.017L249.302 203.985L248.182 205.089ZM268.246 209.329V210.417H276.886V209.329H268.246ZM273.51 209.953L272.63 210.289C273.51 212.033 275.078 213.953 276.438 214.977C276.63 214.673 277.014 214.273 277.286 214.049C275.91 213.217 274.342 211.505 273.51 209.953ZM269.926 205.345H275.27V207.009H269.926V205.345ZM269.926 202.737H275.27V204.369H269.926V202.737ZM268.838 201.745V208.001H276.406V201.745H268.838ZM271.686 209.873C270.87 211.585 269.27 213.329 267.718 214.161C267.974 214.385 268.342 214.801 268.518 215.073C270.102 214.097 271.718 212.161 272.598 210.209L271.686 209.873ZM272.038 202.257V207.521H271.99V215.793H273.158V207.521H273.094V202.257H272.038ZM263.046 205.921V206.881H267.75V205.921H263.046ZM263.046 208.017V208.977H267.75V208.017H263.046ZM262.39 203.793V204.801H268.262V203.793H262.39ZM263.574 210.161V211.169H266.774V213.825H263.574V214.833H267.846V210.161H263.574ZM263.046 210.161V215.585H264.102V210.161H263.046ZM264.198 201.489C264.646 202.145 265.158 203.057 265.398 203.649L266.374 203.073C266.118 202.513 265.606 201.665 265.126 201.009L264.198 201.489ZM285.222 201.905V203.121H290.902V209.105H292.118V201.905H285.222ZM286.182 207.153V208.321H291.494V207.153H286.182ZM285.574 207.153V213.697C285.574 215.201 286.102 215.569 287.75 215.569C288.102 215.569 290.678 215.569 291.046 215.569C292.598 215.569 292.966 214.897 293.126 212.561C292.774 212.465 292.262 212.257 291.974 212.049C291.878 214.065 291.766 214.449 290.966 214.449C290.422 214.449 288.278 214.449 287.862 214.449C286.982 214.449 286.822 214.321 286.822 213.697V207.153H285.574ZM282.694 207.377C283.158 208.433 283.622 209.809 283.814 210.657L284.806 210.257C284.614 209.441 284.102 208.081 283.622 207.057L282.694 207.377ZM281.11 211.489C281.302 212.625 281.478 214.097 281.526 215.073L282.55 214.833C282.502 213.857 282.31 212.401 282.102 211.281L281.11 211.489ZM279.302 211.377C279.11 212.673 278.822 214.113 278.406 215.089C278.678 215.169 279.19 215.329 279.414 215.457C279.782 214.465 280.134 212.945 280.342 211.569L279.302 211.377ZM278.822 207.073C278.822 206.833 279.574 206.465 279.574 206.465V206.433C280.694 205.137 281.846 203.297 282.742 201.489L281.638 201.009C280.918 202.769 279.718 204.625 279.366 205.089C279.014 205.569 278.726 205.905 278.438 205.969C278.566 206.273 278.758 206.833 278.822 207.073ZM278.822 207.073C279.078 206.945 279.542 206.849 282.214 206.545C282.198 206.305 282.246 205.857 282.31 205.553L279.366 205.809L278.79 206.161L278.822 207.073ZM278.918 210.673C278.918 210.433 279.702 210.065 279.702 210.065V210.033C281.302 208.497 282.934 206.337 284.246 204.161L283.19 203.521C282.086 205.681 280.326 207.937 279.782 208.497C279.27 209.073 278.886 209.473 278.534 209.553C278.662 209.857 278.87 210.433 278.918 210.673ZM278.918 210.673C279.254 210.497 279.798 210.385 283.862 209.745C283.846 209.505 283.862 209.057 283.894 208.753L279.478 209.361L278.87 209.761L278.918 210.673ZM282.95 211.169C283.302 212.161 283.718 213.457 283.878 214.321L284.854 213.969C284.678 213.137 284.262 211.857 283.878 210.865L282.95 211.169ZM295.43 205.153V206.193H299.382V205.153H295.43ZM294.598 207.953V208.993H299.974V207.953H294.598ZM294.758 209.969C294.998 210.913 295.254 212.145 295.334 212.961L296.23 212.721C296.134 211.921 295.878 210.705 295.606 209.777L294.758 209.969ZM294.326 214.161L294.598 215.249C296.134 214.961 298.214 214.545 300.198 214.129L300.134 213.153C297.958 213.553 295.75 213.937 294.326 214.161ZM299.254 209.601C299.142 210.465 298.854 211.761 298.646 212.545L299.334 212.769C299.574 212.017 299.862 210.833 300.102 209.857L299.254 209.601ZM296.982 205.601V214.385L297.99 214.209V205.601H296.982ZM297.27 201.089C296.55 202.641 295.318 204.113 294.086 205.089C294.262 205.361 294.502 205.969 294.566 206.209C295.974 205.041 297.382 203.233 298.23 201.425L297.27 201.089ZM297.062 202.305C298.054 203.249 299.366 204.577 300.006 205.377L300.71 204.561C300.054 203.825 298.71 202.545 297.718 201.633L297.062 202.305ZM307.894 208.753C307.398 209.425 306.518 210.353 305.894 210.897L306.55 211.537C307.206 211.009 308.054 210.193 308.726 209.441L307.894 208.753ZM300.71 209.377C301.334 210.017 302.134 210.929 302.486 211.489L303.334 210.833C302.95 210.289 302.15 209.425 301.51 208.801L300.71 209.377ZM302.502 202.481V203.441H306.886V202.481H302.502ZM301.942 204.945V205.889H306.502V204.945H301.942ZM300.214 207.089V208.161H309.078V207.089H300.214ZM304.086 207.681V214.545C304.086 214.705 304.038 214.753 303.846 214.769C303.654 214.769 303.078 214.785 302.422 214.753C302.582 215.057 302.726 215.505 302.774 215.809C303.67 215.809 304.294 215.777 304.678 215.617C305.094 215.441 305.19 215.137 305.19 214.545V207.681H304.086ZM299.974 213.905L300.63 214.801C301.478 214.161 302.518 213.377 303.462 212.609L303.11 211.729C301.942 212.577 300.774 213.409 299.974 213.905ZM302.47 201.073C302.134 202.593 301.622 204.657 301.19 205.889H302.374C302.742 204.705 303.254 202.737 303.59 201.201L302.47 201.073ZM306.55 202.481V202.641C306.374 203.729 305.942 205.873 305.574 207.425L306.678 207.553C307.046 206.033 307.462 204.017 307.702 202.561L306.87 202.433L306.678 202.481H306.55ZM305.558 212.321C306.55 213.057 307.814 214.113 308.422 214.769L309.11 213.937C308.486 213.313 307.206 212.289 306.214 211.601L305.558 212.321Z" fill="#5B5046"/>
<rect x="3" y="42" width="528" height="253" stroke="#F4E7E1" stroke-width="6"/>
<defs>
<clipPath id="clip0_1205_5087">
<rect width="129.353" height="102.513" fill="white" transform="translate(202.323 55)"/>
</clipPath>
</defs>
</svg>
