<svg width="336" height="299" viewBox="0 0 336 299" fill="none" xmlns="http://www.w3.org/2000/svg">
<rect width="336" height="39" transform="translate(0 0.512695)" fill="#F4E7E1"/>
<path d="M120.72 23.4887V25.0247H135.232V23.4887H120.72ZM123.84 20.7527V22.1127H130.848V20.7527H123.84ZM127.216 23.0407V26.0967C127.216 26.3047 127.152 26.3527 126.896 26.3527C126.64 26.3527 125.68 26.3527 124.912 26.3207C125.152 26.7847 125.424 27.4407 125.52 27.9367C126.72 27.9367 127.6 27.9367 128.256 27.6967C128.928 27.4407 129.104 27.0247 129.104 26.1607V23.0407H127.216ZM130.368 20.7527V21.0727C129.728 21.6807 128.352 22.5607 127.216 23.0407C127.456 23.2647 127.888 23.7287 128.08 24.0167C129.552 23.4087 131.12 22.5127 132.32 21.6487L131.232 20.6567L130.832 20.7527H130.368ZM120.992 18.6887V21.9847H122.816V20.0807H133.136V21.9847H135.04V18.6887H120.992ZM132.368 13.4567C132.304 15.3767 132.128 17.8087 131.92 19.3767H133.76C133.936 17.8567 134.096 15.4247 134.192 13.4567H132.368ZM130.16 13.4567V14.6567H133.12V13.4567H130.16ZM125.152 13.0087C124.288 13.2967 122.864 13.7287 121.904 13.8887L122.576 14.9447C123.552 14.7847 124.944 14.4967 125.952 14.1127L125.152 13.0087ZM122.832 15.2007V16.3847H125.824V15.2007H122.832ZM122.88 16.9447V18.1287H125.872V16.9447H122.88ZM130.256 15.2007V16.3847H132.96V15.2007H130.256ZM130.176 16.9447V18.1287H132.864V16.9447H130.176ZM128.592 13.0247C128 13.8087 126.928 14.5287 125.824 15.0087C126.128 15.2007 126.608 15.6327 126.832 15.8567C127.92 15.2967 129.12 14.3687 129.84 13.3767L128.592 13.0247ZM126.16 13.8727C127.152 14.3847 128.384 15.1687 128.96 15.7287L129.888 14.9127C129.248 14.3527 128.016 13.6007 127.04 13.1367L126.16 13.8727ZM128.608 15.7287C127.984 16.5607 126.832 17.3287 125.696 17.8247C125.968 18.0327 126.448 18.5287 126.656 18.7687C127.824 18.1607 129.088 17.1687 129.856 16.0967L128.608 15.7287ZM126.08 16.6087C127.136 17.1687 128.432 18.0327 129.04 18.6407L129.984 17.8087C129.328 17.2007 128 16.3847 126.976 15.8727L126.08 16.6087ZM121.904 13.8887L122.224 19.2967H124.016L123.728 14.3527L121.904 13.8887ZM139.312 15.8247V17.6967H150.448V15.8247H139.312ZM138.656 20.5447V22.3847H149.84V20.5447H138.656ZM136.8 25.6167V27.4887H151.264V25.6167H136.8ZM143.024 12.9287V26.5447H145.024V12.9287H143.024ZM139.328 13.1207C138.752 15.3287 137.728 17.5367 136.464 18.8807C136.96 19.1527 137.808 19.7127 138.192 20.0487C139.44 18.5127 140.608 16.0487 141.312 13.5687L139.328 13.1207ZM155.6 18.4967V20.2727H164.304V18.4967H155.6ZM155.6 21.9207V23.6967H164.304V21.9207H155.6ZM155.6 25.3607V27.1367H164.304V25.3607H155.6ZM154.288 15.0087V27.9367H156.24V16.8487H163.872V27.9047H165.92V15.0087H154.288ZM158.832 12.9127C158.72 13.7447 158.448 14.8647 158.192 15.6647L159.952 15.9847C160.304 15.2807 160.768 14.2247 161.152 13.1527L158.832 12.9127ZM175.136 13.8407V15.6647H182.96V13.8407H175.136ZM179.2 18.8167V25.6807C179.2 25.9207 179.104 25.9847 178.8 26.0007C178.512 26.0007 177.456 26.0007 176.544 25.9527C176.8 26.5127 177.056 27.3447 177.12 27.9047C178.56 27.9047 179.568 27.8887 180.256 27.6007C180.96 27.2967 181.168 26.7527 181.168 25.7287V18.8167H179.2ZM174.448 18.2727V20.0967H183.376V18.2727H174.448ZM170.864 20.1607V27.9687H172.784V18.5767L172.544 18.4807L170.864 20.1607ZM172.672 16.4167C171.616 18.2247 169.872 20.0807 168.24 21.2327C168.624 21.6167 169.28 22.4807 169.552 22.8807C171.264 21.4727 173.232 19.2327 174.496 17.1047L172.672 16.4167ZM172.064 12.9287C171.28 14.0487 169.744 15.4887 168.416 16.3527C168.736 16.7367 169.232 17.4887 169.488 17.9207C171.008 16.8647 172.736 15.2007 173.904 13.6807L172.064 12.9287ZM191.536 17.7287V19.6647H198.192V17.7287H191.536ZM184.688 25.2327V27.1687H199.312V25.2327H184.688ZM190.448 13.1207V26.3047H192.512V13.1207H190.448ZM207.568 18.7207H213.04V19.3767H207.568V18.7207ZM207.568 17.0567H213.04V17.7127H207.568V17.0567ZM205.824 16.0167V20.4327H214.88V16.0167H205.824ZM205.152 21.1207L205.312 22.5607C207.68 22.5127 211.088 22.4167 214.32 22.3207L214.368 21.0087C211.024 21.0727 207.456 21.1207 205.152 21.1207ZM212.208 20.5127C212.992 21.2167 213.92 22.2247 214.336 22.8647L215.696 22.0967C215.248 21.4407 214.272 20.4807 213.472 19.8247L212.208 20.5127ZM209.36 13.0567V21.9047L211.216 21.7127V13.0567H209.36ZM204.816 23.0887V24.5607H215.504V23.0887H204.816ZM211.616 21.9047V26.1447C211.616 26.3367 211.536 26.4007 211.312 26.4007C211.072 26.4167 210.256 26.4167 209.52 26.3847C209.744 26.8327 209.968 27.5047 210.048 27.9847C211.216 27.9847 212.064 27.9847 212.672 27.7287C213.296 27.4887 213.472 27.0567 213.472 26.1927V21.9047H211.616ZM206.24 25.0567C206.928 25.7127 207.76 26.6567 208.112 27.2647L209.632 26.2887C209.216 25.6807 208.352 24.8007 207.648 24.1927L206.24 25.0567ZM205.168 14.0167V15.4087H215.36V14.0167H205.168ZM203.792 12.9927C202.976 15.2807 201.584 17.5527 200.128 19.0087C200.464 19.4727 200.976 20.5287 201.152 20.9927C202.896 19.1687 204.56 16.2887 205.6 13.5527L203.792 12.9927ZM202.24 17.4087V27.9367H204.08V15.6007L204.064 15.5847L202.24 17.4087Z" fill="#5B5046"/>
<g clip-path="url(#clip0_1246_7022)">
<path d="M210.956 134.919C206.426 140.388 201.48 145.499 196.163 150.207C195.964 150.391 195.791 150.601 195.649 150.832C195.432 150.844 195.216 150.876 195.005 150.925C185.032 153.451 173.705 150.909 163.671 149.699C149.988 148.057 136.299 149.439 123.132 144.516C119.549 143.171 118.016 148.894 121.554 150.216C134.454 155.046 147.708 153.937 161.145 155.327C172.678 156.519 185.093 159.535 196.57 156.627C196.97 156.542 197.346 156.367 197.667 156.114C197.989 155.862 198.249 155.539 198.426 155.17C199.14 155.156 199.824 154.877 200.346 154.389C205.658 149.678 210.604 144.569 215.14 139.107C217.521 136.175 213.358 131.957 210.956 134.92" fill="#E5D2C5"/>
<path d="M196.346 101.119C193.433 88.2482 194.434 75.5982 193.332 62.5762C193.283 62.0922 193.123 61.6259 192.866 61.2132C192.609 60.8005 192.26 60.4524 191.847 60.1957C191.433 59.939 190.967 59.7806 190.483 59.7326C189.999 59.6847 189.51 59.7485 189.055 59.9192C188.875 59.5952 188.613 59.3246 188.295 59.1352C188.302 58.7538 188.235 58.3745 188.096 58.0192C187.957 57.6638 187.75 57.3394 187.485 57.0644C187.221 56.7894 186.905 56.5694 186.555 56.4168C186.205 56.2642 185.829 56.1821 185.448 56.1752C172.665 55.7192 160.123 55.9872 147.693 59.2372C147.155 59.3491 146.666 59.6271 146.295 60.0319C145.924 60.4367 145.689 60.9479 145.625 61.4932C145.167 61.5622 144.701 61.6152 144.243 61.6932C140.485 62.3712 142.082 68.0672 145.813 67.4032C152.232 66.2482 158.768 66.7172 165.238 66.0292C172.012 65.3062 178.818 63.3892 185.648 64.4402C186.289 64.5489 186.949 64.4497 187.531 64.1572C188.18 73.7672 187.576 83.3882 188.749 92.9572C190.057 103.616 194.782 114.002 192.949 124.884C192.327 128.621 198.02 130.218 198.659 126.465C200.116 117.795 198.27 109.585 196.352 101.119" fill="#E5D2C5"/>
<path d="M174.939 87.7882C169.707 88.6621 164.365 88.6621 159.133 87.7882C157.947 87.5732 157.438 89.3882 158.633 89.5992C164.198 90.542 169.881 90.542 175.446 89.5992C176.646 89.3922 176.128 87.5732 174.941 87.7882" fill="#5C5147"/>
<path d="M177.707 91.5196C171.534 91.4776 165.356 90.9736 159.259 92.1816C158.067 92.4146 158.57 94.2286 159.759 93.9906C165.678 92.8276 171.708 93.3606 177.703 93.3906C177.946 93.3826 178.177 93.2804 178.346 93.1054C178.515 92.9305 178.61 92.6966 178.61 92.4531C178.61 92.2096 178.515 91.9757 178.346 91.8007C178.177 91.6258 177.946 91.5235 177.703 91.5156" fill="#5C5147"/>
<path d="M175.197 96.54C170.377 96.585 165.584 97.12 160.764 97.16C160.519 97.168 160.287 97.2707 160.117 97.4464C159.947 97.6221 159.852 97.857 159.852 98.1015C159.852 98.3461 159.947 98.581 160.117 98.7567C160.287 98.9324 160.519 99.0351 160.764 99.043C165.584 99.003 170.377 98.463 175.197 98.418C175.446 98.418 175.684 98.3191 175.861 98.143C176.037 97.9669 176.136 97.7281 176.136 97.479C176.136 97.23 176.037 96.9912 175.861 96.8151C175.684 96.639 175.446 96.54 175.197 96.54" fill="#5C5147"/>
<path d="M218.32 136.226C218.557 135.035 218.716 133.829 218.797 132.616C218.809 132.472 218.784 132.326 218.725 132.194C218.665 132.062 218.572 131.947 218.456 131.86C218.339 131.774 218.203 131.719 218.059 131.7C217.915 131.681 217.768 131.699 217.634 131.753C217.507 131.699 217.371 131.671 217.234 131.671H213.368C214.468 130.744 215.407 129.987 216.014 129.515C216.133 129.398 216.218 129.25 216.26 129.089C216.303 128.927 216.301 128.757 216.255 128.596C216.197 128.124 216.031 127.671 215.771 127.272C215.511 126.874 215.164 126.54 214.755 126.296C214.558 126.166 214.328 126.097 214.093 126.097C213.857 126.097 213.627 126.166 213.431 126.296C213.317 126.413 213.216 126.532 213.111 126.638C213.08 126.484 213.001 126.345 212.885 126.239C212.769 126.134 212.623 126.069 212.467 126.053C207.862 125.364 203.317 124.279 198.651 124.146C196.739 112.187 197.179 100.066 196.363 87.9842C195.682 77.9922 190.248 66.8302 193.042 56.9522C193.087 56.756 193.068 56.5506 192.989 56.3655C192.91 56.1804 192.774 56.0252 192.601 55.9221C192.428 55.819 192.227 55.7733 192.027 55.7917C191.826 55.81 191.637 55.8914 191.486 56.0242C191.328 55.8602 191.113 55.7643 190.886 55.7572C181.884 55.2931 172.861 55.4719 163.886 56.2922C155.655 57.0812 146.45 58.4502 139.586 63.4082C139.426 63.5302 139.303 63.6949 139.233 63.8832C139.162 64.0716 139.146 64.2761 139.186 64.4732C139.137 64.5914 139.115 64.7187 139.122 64.8462C139.686 83.2042 142.578 101.373 143.984 119.646C143.931 119.507 143.843 119.384 143.728 119.29C143.613 119.195 143.475 119.132 143.328 119.108C143.181 119.083 143.031 119.097 142.891 119.149C142.752 119.201 142.628 119.288 142.533 119.402C135.34 127.863 126.833 135.202 118.063 141.986C117.104 142.725 118.45 144.054 119.392 143.318C128.155 136.518 136.672 129.192 143.862 120.731C143.942 120.635 144.004 120.524 144.045 120.405C144.453 125.929 144.739 131.448 144.771 137.005C144.767 137.234 144.853 137.454 145.012 137.619C144.896 137.756 144.821 137.923 144.795 138.1C144.77 138.278 144.794 138.459 144.866 138.623C144.938 138.788 145.054 138.928 145.202 139.03C145.35 139.131 145.523 139.189 145.703 139.197C161.942 139.25 179.359 141.233 194.497 134.049C194.606 134.002 194.703 133.931 194.782 133.842C194.86 133.754 194.918 133.648 194.952 133.534C194.985 133.42 194.993 133.3 194.975 133.183C194.957 133.066 194.913 132.954 194.847 132.855C195.085 132.791 195.29 132.639 195.421 132.43C195.552 132.22 195.599 131.97 195.554 131.727C191.663 110.024 189.243 87.4542 190.546 65.3862C191.131 72.3642 193.724 79.4672 194.333 86.1862C195.564 99.8402 194.725 113.542 197.251 127.059C197.026 127.014 196.796 126.974 196.565 126.929C195.628 126.169 194.293 127.498 195.233 128.258C195.651 128.653 196.158 128.941 196.711 129.097C197.265 129.254 197.848 129.275 198.411 129.158C198.554 129.155 198.694 129.119 198.821 129.054C198.949 128.989 199.06 128.897 199.147 128.783C199.234 128.67 199.294 128.538 199.324 128.398C199.353 128.258 199.351 128.113 199.317 127.974C199.185 127.333 199.097 126.7 198.986 126.062C203.358 126.218 207.638 127.227 211.957 127.871H211.962C208.571 131.542 205.499 135.497 202.781 139.69C202.371 140.18 201.955 140.68 201.573 141.197C199.773 143.58 197.185 147.219 197.352 150.461C170.777 150.138 144.607 144.921 118.104 143.594C117.004 143.538 116.915 145.043 117.784 145.394C117.567 149.21 123.348 150.773 126.084 151.567C134.132 153.9 142.763 154.586 151.07 155.32C167.206 156.734 183.58 156.234 199.662 158.02C200.362 158.099 200.607 157.509 200.501 156.963C206.319 152.101 210.901 145.975 215.991 140.369C216.396 140.012 216.765 139.614 217.091 139.183C217.573 138.675 218.036 138.171 218.518 137.676C218.618 137.576 218.693 137.454 218.738 137.32C218.783 137.185 218.797 137.042 218.777 136.902C218.758 136.762 218.706 136.628 218.627 136.511C218.547 136.394 218.441 136.297 218.318 136.227L218.32 136.226ZM146.582 137.32C146.622 137.222 146.644 137.117 146.646 137.01C146.522 113.01 141.824 89.3522 141.021 65.3942C141.654 65.5402 142.292 65.6562 142.93 65.7862C148.13 88.9422 150.345 113.277 150.411 137.01C150.414 137.141 150.44 137.27 150.488 137.391C149.188 137.359 147.877 137.335 146.582 137.32ZM193.736 132.23C193.748 132.278 193.765 132.324 193.786 132.368C193.701 132.382 193.618 132.402 193.537 132.429C180.765 138.496 166.16 137.77 152.195 137.429C152.256 137.297 152.29 137.154 152.295 137.008C152.36 113.188 149.888 89.4295 144.922 66.1332C159.23 68.4632 174.045 66.3822 188.374 65.1642C188.477 65.1511 188.578 65.1224 188.674 65.0792C187.326 87.4142 189.798 110.247 193.737 132.23H193.736ZM183.981 62.0302C176.237 62.0572 168.498 62.3402 160.772 62.5142C169.13 61.6391 177.534 61.2691 185.938 61.4062C186.095 62.0854 186.176 62.7801 186.179 63.4772C185.673 63.5302 185.162 63.5832 184.648 63.6252C184.77 63.4914 184.852 63.3252 184.884 63.1462C184.915 62.9673 184.894 62.7831 184.824 62.6156C184.754 62.448 184.637 62.3041 184.488 62.2009C184.338 62.0977 184.162 62.0395 183.981 62.0332V62.0302ZM181.161 63.9452C170.369 64.9782 159.387 66.0142 148.653 64.7722C149.339 64.5892 150.033 64.4492 150.724 64.2952C150.893 64.4566 151.118 64.5459 151.352 64.5442C161.296 64.5152 171.222 64.0572 181.16 63.9442L181.161 63.9452ZM190.484 64.4442C190.374 64.2276 190.183 64.0633 189.952 63.9874C189.721 63.9115 189.47 63.9301 189.253 64.0392C189.251 63.9292 189.226 63.8208 189.18 63.7211C189.133 63.6214 189.066 63.5327 188.983 63.4609C188.899 63.389 188.802 63.3357 188.696 63.3044C188.591 63.2731 188.48 63.2645 188.371 63.2792C188.257 63.2842 188.154 63.2982 188.051 63.3082C188.009 62.1772 187.106 61.4012 188.371 61.4012C188.616 61.3932 188.849 61.2901 189.02 61.1137C189.19 60.9372 189.286 60.7013 189.286 60.4557C189.286 60.2102 189.19 59.9742 189.02 59.7978C188.849 59.6213 188.616 59.5182 188.371 59.5102H187.111C173.581 59.5102 159.811 59.5602 146.711 63.3102C146.596 63.3414 146.489 63.395 146.395 63.4679C146.301 63.5408 146.223 63.6316 146.164 63.735C146.105 63.8384 146.068 63.9523 146.054 64.0703C146.039 64.1882 146.048 64.3078 146.081 64.4222C144.881 64.2452 143.69 64.0382 142.503 63.7942C149.198 59.8382 157.623 58.7792 165.17 58.0452C173.72 57.3042 182.312 57.1706 190.882 57.6452C190.906 57.6452 190.924 57.6262 190.953 57.6262C190.487 59.869 190.329 62.1648 190.484 64.4502V64.4442ZM199.898 151.214C204.752 145.157 209.622 139.122 215.38 133.903C215.488 133.806 215.572 133.685 215.624 133.548H216.798C216.761 133.765 216.708 133.964 216.66 134.16C216.523 134.143 216.385 134.16 216.257 134.212C216.13 134.263 216.017 134.347 215.932 134.454C210.798 140.368 206.446 147.614 200.267 152.584C200.077 152.396 199.904 152.19 199.753 151.97C199.898 151.747 199.95 151.475 199.898 151.214V151.214ZM157.941 153.959C149.249 153.479 140.593 152.49 132.017 150.996C129.617 150.554 119.949 149.24 119.689 145.572C145.663 147.018 171.332 152.031 197.389 152.349C197.287 153.383 197.325 154.425 197.5 155.449C197.526 155.562 197.576 155.668 197.646 155.759C197.717 155.851 197.807 155.926 197.91 155.979C184.677 154.652 171.203 154.885 157.938 153.964" fill="#5C5147"/>
</g>
<path d="M97.9062 183.775C98.2188 184.088 98.75 184.088 99.0625 183.775L108.25 174.588C108.562 174.275 108.562 173.744 108.25 173.432L107.125 172.307C106.812 171.994 106.312 171.994 106 172.307L98.5 179.807L94.9688 176.307C94.6562 175.994 94.1562 175.994 93.8438 176.307L92.7188 177.432C92.4062 177.744 92.4062 178.275 92.7188 178.588L97.9062 183.775Z" fill="#D78100"/>
<path d="M118.158 176.329V177.449H127.454V176.329H118.158ZM118.158 179.801V180.921H127.454V179.801H118.158ZM118.158 183.305V184.425H127.454V183.305H118.158ZM117.342 172.777V185.321H118.558V173.929H127.134V185.241H128.382V172.777H117.342ZM122.03 170.569C121.87 171.353 121.518 172.473 121.23 173.225L122.302 173.433C122.654 172.745 123.07 171.705 123.422 170.745L122.03 170.569ZM137.598 176.153H144.158V177.161H137.598V176.153ZM137.598 174.425H144.158V175.417H137.598V174.425ZM136.494 173.673V177.929H145.31V173.673H136.494ZM135.71 178.969L135.822 179.945C138.174 179.897 141.582 179.785 144.83 179.689L144.862 178.825C141.518 178.905 137.982 178.969 135.71 178.969ZM142.846 178.089C143.758 178.761 144.83 179.737 145.342 180.377L146.206 179.833C145.678 179.193 144.574 178.249 143.662 177.609L142.846 178.089ZM140.254 170.713V179.417L141.422 179.321V170.713H140.254ZM135.39 180.793V181.769H146.11V180.793H135.39ZM142.686 179.417V184.025C142.686 184.233 142.622 184.297 142.382 184.297C142.11 184.329 141.294 184.329 140.318 184.297C140.462 184.601 140.622 185.017 140.686 185.321C141.918 185.321 142.718 185.337 143.214 185.161C143.71 185.001 143.854 184.697 143.854 184.041V179.417H142.686ZM137.102 182.329C137.854 182.969 138.718 183.897 139.102 184.505L140.046 183.849C139.614 183.257 138.734 182.377 137.982 181.769L137.102 182.329ZM135.838 171.833V172.761H145.95V171.833H135.838ZM134.974 170.649C134.078 173.081 132.574 175.481 130.99 177.033C131.214 177.305 131.55 177.945 131.678 178.217C133.406 176.425 135.054 173.721 136.11 171.001L134.974 170.649ZM133.31 174.777V185.289H134.462V173.657L134.43 173.641L133.31 174.777Z" fill="#5B5046"/>
<path d="M97.9062 214.775C98.2188 215.088 98.75 215.088 99.0625 214.775L108.25 205.588C108.562 205.275 108.562 204.744 108.25 204.432L107.125 203.307C106.812 202.994 106.312 202.994 106 203.307L98.5 210.807L94.9688 207.307C94.6562 206.994 94.1562 206.994 93.8438 207.307L92.7188 208.432C92.4062 208.744 92.4062 209.275 92.7188 209.588L97.9062 214.775Z" fill="#D78100"/>
<path d="M115.742 206.193V207.409H129.806V206.193H115.742ZM123.534 206.673L122.334 206.961C123.534 211.265 125.71 214.641 129.166 216.273C129.374 215.937 129.774 215.425 130.078 215.153C126.75 213.777 124.574 210.545 123.534 206.673ZM122.126 201.601C122.094 205.441 122.222 212.337 115.422 215.297C115.758 215.537 116.142 215.969 116.334 216.289C123.326 213.089 123.358 205.793 123.422 201.601H122.126ZM131.598 212.161V213.169H145.918V212.161H131.598ZM134.574 209.345V210.257H142.142V209.345H134.574ZM138.302 211.457V214.993C138.302 215.217 138.238 215.265 137.982 215.281C137.726 215.281 136.814 215.281 135.838 215.249C135.998 215.553 136.174 215.969 136.238 216.273C137.518 216.273 138.334 216.273 138.83 216.113C139.342 215.937 139.486 215.649 139.486 215.025V211.457H138.302ZM141.838 209.345V209.553C141.086 210.209 139.582 211.009 138.302 211.457C138.478 211.601 138.766 211.905 138.894 212.097C140.334 211.585 141.966 210.753 143.102 209.889L142.382 209.281L142.126 209.345H141.838ZM131.934 207.329V210.257H133.086V208.257H144.414V210.257H145.598V207.329H131.934ZM143.566 202.193C143.486 203.985 143.326 206.385 143.134 207.841H144.286C144.446 206.417 144.606 204.033 144.702 202.193H143.566ZM140.974 202.193V203.025H144.046V202.193H140.974ZM136.014 201.729C135.214 201.969 133.838 202.369 132.91 202.513L133.358 203.217C134.302 203.073 135.63 202.833 136.558 202.465L136.014 201.729ZM133.55 203.905V204.721H136.462V203.905H133.55ZM133.63 205.601V206.433H136.542V205.601H133.63ZM141.054 203.905V204.721H143.918V203.905H141.054ZM140.958 205.601V206.433H143.79V205.601H140.958ZM139.518 201.745C138.878 202.577 137.774 203.361 136.67 203.889C136.878 204.017 137.214 204.321 137.358 204.481C138.446 203.889 139.63 202.961 140.366 201.969L139.518 201.745ZM136.974 202.465C138.046 202.961 139.326 203.745 139.95 204.337L140.574 203.745C139.918 203.169 138.622 202.401 137.566 201.937L136.974 202.465ZM139.55 204.433C138.894 205.329 137.71 206.145 136.574 206.673C136.766 206.817 137.102 207.153 137.23 207.313C138.382 206.705 139.63 205.729 140.398 204.689L139.55 204.433ZM136.926 205.153C138.03 205.697 139.358 206.561 139.982 207.201L140.622 206.593C139.966 205.969 138.622 205.137 137.534 204.625L136.926 205.153ZM132.91 202.513L133.246 207.793H134.382L134.062 202.833L132.91 202.513ZM147.598 210.737V211.761H161.886V210.737H147.598ZM147.854 202.289V203.345H161.63V202.289H147.854ZM158.19 209.793C156.894 213.521 153.742 214.897 147.55 215.265C147.742 215.537 147.95 215.985 148.03 216.321C154.478 215.809 157.902 214.273 159.342 210.129L158.19 209.793ZM149.614 213.649C153.998 214.353 158.094 215.361 160.526 216.289L161.63 215.425C159.006 214.513 154.702 213.489 150.558 212.865L149.614 213.649ZM152.222 202.689V208.273H153.358V202.689H152.222ZM155.95 202.689V208.273H157.086V202.689H155.95ZM149.774 205.697H159.758V207.873H149.774V205.697ZM148.654 204.721V208.865H160.958V204.721H148.654ZM149.614 213.649H151.006C151.87 212.609 153.166 210.817 153.902 209.313L152.702 209.041C151.982 210.561 150.67 212.449 149.614 213.649ZM163.774 204.273V205.441H177.774V204.273H163.774ZM171.23 205.313L170.286 205.601C171.598 209.745 173.966 213.345 177.326 214.977C177.534 214.641 177.918 214.177 178.206 213.921C174.894 212.513 172.43 209.089 171.23 205.313ZM176.046 206.177C175.198 207.345 173.694 208.897 172.606 209.809L173.454 210.465C174.574 209.569 176.03 208.129 177.086 206.913L176.046 206.177ZM172.814 202.449C173.822 202.977 175.102 203.793 175.726 204.369L176.494 203.505C175.822 202.961 174.542 202.193 173.534 201.697L172.814 202.449ZM164.606 207.025C165.63 207.937 166.766 209.217 167.262 210.097L168.238 209.377C167.726 208.513 166.542 207.265 165.534 206.401L164.606 207.025ZM170.094 201.633V214.689C170.094 214.993 169.982 215.073 169.694 215.089C169.374 215.105 168.334 215.105 167.214 215.073C167.406 215.441 167.598 216.001 167.662 216.337C169.07 216.337 170.03 216.321 170.574 216.097C171.102 215.905 171.326 215.537 171.326 214.689V201.633H170.094ZM163.422 213.617L164.19 214.689C166.014 213.633 168.51 212.145 170.782 210.737L170.43 209.729C167.918 211.169 165.118 212.737 163.422 213.617ZM179.614 211.761V212.881H193.87V211.761H179.614ZM180.062 203.473V204.577H193.486V203.473H180.062ZM183.326 206.193V207.217H190.19V206.193H183.326ZM183.326 208.961V210.001H190.19V208.961H183.326ZM182.558 201.617V212.257H183.742V201.617H182.558ZM189.71 201.617V212.257H190.926V201.617H189.71ZM187.918 214.001C189.79 214.689 191.694 215.569 192.83 216.241L193.918 215.457C192.67 214.785 190.638 213.905 188.734 213.233L187.918 214.001ZM184.526 213.137C183.39 213.921 181.182 214.865 179.454 215.361C179.71 215.617 180.078 216.033 180.254 216.273C181.982 215.713 184.158 214.785 185.582 213.905L184.526 213.137ZM204.638 201.617V212.737H205.726V201.617H204.638ZM199.086 208.209L199.534 209.265L209.134 205.521L208.67 204.481L199.086 208.209ZM201.134 203.201V213.937C201.134 215.713 201.694 216.161 203.598 216.161C204.03 216.161 207.374 216.161 207.822 216.161C209.582 216.161 209.966 215.441 210.174 213.217C209.838 213.153 209.358 212.945 209.07 212.753C208.942 214.625 208.782 215.073 207.79 215.073C207.086 215.073 204.174 215.073 203.614 215.073C202.478 215.073 202.27 214.865 202.27 213.953V203.201H201.134ZM199.006 201.649C198.11 204.081 196.622 206.481 195.038 208.033C195.246 208.305 195.598 208.945 195.71 209.217C197.454 207.425 199.086 204.721 200.142 202.001L199.006 201.649ZM197.31 205.777V216.289H198.462V204.657L198.43 204.641L197.31 205.777ZM208.302 204.785C208.302 207.073 208.206 210.161 208.014 211.921L208.99 212.193C209.278 210.305 209.438 207.233 209.486 204.897L209.534 204.689L208.622 204.401L208.126 204.785H208.302ZM214.798 209.953H222.862V211.041H214.798V209.953ZM214.798 211.825H222.862V212.945H214.798V211.825ZM214.798 208.081H222.862V209.169H214.798V208.081ZM213.63 207.281V213.745H224.062V207.281H213.63ZM220.27 214.497C221.998 215.057 223.726 215.745 224.75 216.257L225.822 215.569C224.686 215.057 222.814 214.353 221.07 213.825L220.27 214.497ZM216.318 213.841C215.166 214.481 213.246 215.041 211.598 215.393C211.87 215.601 212.286 216.065 212.478 216.289C214.078 215.857 216.11 215.121 217.406 214.353L216.318 213.841ZM218.158 202.673V203.617H224.75V202.673H218.158ZM218.414 201.553C218.046 202.705 217.374 203.841 216.542 204.609C216.814 204.753 217.262 205.041 217.454 205.217C218.286 204.401 219.054 203.105 219.486 201.793L218.414 201.553ZM220.318 203.265V203.777C220.318 204.593 219.918 205.697 215.758 206.241C215.966 206.465 216.286 206.881 216.398 207.169C220.91 206.465 221.422 205.025 221.422 203.809V203.265H220.318ZM221.262 204.209L220.414 204.417C221.294 205.841 223.134 206.753 225.438 207.089C225.582 206.785 225.886 206.353 226.126 206.113C223.902 205.921 222.078 205.249 221.262 204.209ZM211.87 202.545V203.489H215.726V202.545H211.87ZM211.518 205.041V206.017H216.126V205.041H211.518ZM224.35 202.673V202.849C224.062 203.537 223.614 204.353 223.246 204.881L224.19 205.217C224.638 204.641 225.15 203.713 225.55 202.897L224.734 202.625L224.558 202.673H224.35ZM230.078 201.601V216.305H231.198V201.601H230.078ZM227.502 206.961V208.097H233.822V206.961H227.502ZM227.614 202.849C228.03 203.969 228.414 205.457 228.478 206.401L229.438 206.177C229.326 205.201 228.958 203.745 228.494 202.625L227.614 202.849ZM232.782 202.561C232.558 203.649 232.078 205.233 231.71 206.193L232.494 206.433C232.926 205.537 233.422 204.033 233.838 202.833L232.782 202.561ZM238.99 201.601V216.305H240.126V201.601H238.99ZM233.79 211.777L233.982 212.897L242.206 211.409L242.014 210.305L233.79 211.777ZM234.99 203.553C235.918 204.129 237.022 204.993 237.534 205.617L238.174 204.689C237.646 204.097 236.542 203.281 235.614 202.737L234.99 203.553ZM234.174 207.585C235.134 208.113 236.286 208.929 236.846 209.505L237.454 208.561C236.878 207.985 235.694 207.233 234.734 206.737L234.174 207.585ZM228.878 209.025C228.622 210.465 227.934 212.241 227.278 213.185C227.502 213.537 227.774 214.113 227.902 214.513C228.734 213.377 229.422 211.105 229.758 209.313L228.878 209.025ZM231.934 209.041L231.262 209.521C231.614 210.225 232.494 212.273 232.766 213.153L233.646 212.241C233.39 211.713 232.238 209.521 231.934 209.041Z" fill="#5B5046"/>
<path d="M97.9062 245.775C98.2188 246.088 98.75 246.088 99.0625 245.775L108.25 236.588C108.562 236.275 108.562 235.744 108.25 235.432L107.125 234.307C106.812 233.994 106.312 233.994 106 234.307L98.5 241.807L94.9688 238.307C94.6562 237.994 94.1562 237.994 93.8438 238.307L92.7188 239.432C92.4062 239.744 92.4062 240.275 92.7188 240.588L97.9062 245.775Z" fill="#D78100"/>
<path d="M121.246 240.841V241.929H129.886V240.841H121.246ZM126.51 241.465L125.63 241.801C126.51 243.545 128.078 245.465 129.438 246.489C129.63 246.185 130.014 245.785 130.286 245.561C128.91 244.729 127.342 243.017 126.51 241.465ZM122.926 236.857H128.27V238.521H122.926V236.857ZM122.926 234.249H128.27V235.881H122.926V234.249ZM121.838 233.257V239.513H129.406V233.257H121.838ZM124.686 241.385C123.87 243.097 122.27 244.841 120.718 245.673C120.974 245.897 121.342 246.313 121.518 246.585C123.102 245.609 124.718 243.673 125.598 241.721L124.686 241.385ZM125.038 233.769V239.033H124.99V247.305H126.158V239.033H126.094V233.769H125.038ZM116.046 237.433V238.393H120.75V237.433H116.046ZM116.046 239.529V240.489H120.75V239.529H116.046ZM115.39 235.305V236.313H121.262V235.305H115.39ZM116.574 241.673V242.681H119.774V245.337H116.574V246.345H120.846V241.673H116.574ZM116.046 241.673V247.097H117.102V241.673H116.046ZM117.198 233.001C117.646 233.657 118.158 234.569 118.398 235.161L119.374 234.585C119.118 234.025 118.606 233.177 118.126 232.521L117.198 233.001ZM140.926 240.089V246.553H142.11V240.089H140.926ZM136.926 245.833V246.905H146.03V245.833H136.926ZM137.806 242.649V243.673H145.358V242.649H137.806ZM139.086 234.441H144.014V237.449H139.086V234.441ZM137.966 233.401V238.505H145.182V233.401H137.966ZM144.67 239.081C143.006 239.561 139.966 239.881 137.47 240.025C137.598 240.297 137.726 240.697 137.758 240.969C140.334 240.841 143.47 240.537 145.47 239.977L144.67 239.081ZM134.142 233.913V247.273H135.31V233.913H134.142ZM131.518 237.097V238.233H137.326V237.097H131.518ZM134.206 237.529C133.63 239.513 132.35 242.009 131.198 243.289C131.406 243.561 131.694 244.057 131.806 244.393C133.038 242.905 134.318 240.105 134.958 237.849L134.206 237.529ZM136.558 232.825C135.374 233.369 133.246 233.817 131.422 234.121C131.566 234.393 131.726 234.793 131.79 235.049C133.662 234.793 135.918 234.345 137.406 233.753L136.558 232.825ZM135.262 239.161L134.702 239.641C135.198 240.201 136.398 241.721 136.782 242.377L137.486 241.433C137.166 241.033 135.662 239.513 135.262 239.161ZM147.598 243.161V244.169H161.918V243.161H147.598ZM150.574 240.345V241.257H158.142V240.345H150.574ZM154.302 242.457V245.993C154.302 246.217 154.238 246.265 153.982 246.281C153.726 246.281 152.814 246.281 151.838 246.249C151.998 246.553 152.174 246.969 152.238 247.273C153.518 247.273 154.334 247.273 154.83 247.113C155.342 246.937 155.486 246.649 155.486 246.025V242.457H154.302ZM157.838 240.345V240.553C157.086 241.209 155.582 242.009 154.302 242.457C154.478 242.601 154.766 242.905 154.894 243.097C156.334 242.585 157.966 241.753 159.102 240.889L158.382 240.281L158.126 240.345H157.838ZM147.934 238.329V241.257H149.086V239.257H160.414V241.257H161.598V238.329H147.934ZM159.566 233.193C159.486 234.985 159.326 237.385 159.134 238.841H160.286C160.446 237.417 160.606 235.033 160.702 233.193H159.566ZM156.974 233.193V234.025H160.046V233.193H156.974ZM152.014 232.729C151.214 232.969 149.838 233.369 148.91 233.513L149.358 234.217C150.302 234.073 151.63 233.833 152.558 233.465L152.014 232.729ZM149.55 234.905V235.721H152.462V234.905H149.55ZM149.63 236.601V237.433H152.542V236.601H149.63ZM157.054 234.905V235.721H159.918V234.905H157.054ZM156.958 236.601V237.433H159.79V236.601H156.958ZM155.518 232.745C154.878 233.577 153.774 234.361 152.67 234.889C152.878 235.017 153.214 235.321 153.358 235.481C154.446 234.889 155.63 233.961 156.366 232.969L155.518 232.745ZM152.974 233.465C154.046 233.961 155.326 234.745 155.95 235.337L156.574 234.745C155.918 234.169 154.622 233.401 153.566 232.937L152.974 233.465ZM155.55 235.433C154.894 236.329 153.71 237.145 152.574 237.673C152.766 237.817 153.102 238.153 153.23 238.313C154.382 237.705 155.63 236.729 156.398 235.689L155.55 235.433ZM152.926 236.153C154.03 236.697 155.358 237.561 155.982 238.201L156.622 237.593C155.966 236.969 154.622 236.137 153.534 235.625L152.926 236.153ZM148.91 233.513L149.246 238.793H150.382L150.062 233.833L148.91 233.513ZM165.71 240.697V247.353H166.894V241.657H174.702V247.353H175.934V240.697H165.71ZM166.334 243.193V244.153H175.086V243.193H166.334ZM166.382 245.769V246.729H175.086V245.769H166.382ZM170.094 239.193C169.934 239.721 169.582 240.537 169.278 241.081L170.254 241.337C170.59 240.857 171.006 240.137 171.358 239.433L170.094 239.193ZM163.902 233.417V234.377H169.23V233.417H163.902ZM168.91 233.417V238.713C168.91 238.873 168.862 238.937 168.654 238.937C168.462 238.953 167.822 238.953 167.086 238.937C167.23 239.193 167.374 239.561 167.422 239.833C168.446 239.833 169.086 239.833 169.502 239.673C169.886 239.513 170.014 239.241 170.014 238.713V233.417H168.91ZM171.022 233.417V234.377H176.606V233.417H171.022ZM176.062 233.417V238.713C176.062 238.905 175.998 238.937 175.79 238.953C175.582 238.969 174.878 238.969 174.126 238.937C174.27 239.209 174.414 239.609 174.462 239.881C175.534 239.897 176.222 239.881 176.638 239.721C177.07 239.545 177.182 239.273 177.182 238.713V233.417H176.062ZM170.654 238.137L171.102 239.065C172.334 238.633 173.902 238.025 175.374 237.465L175.198 236.585C173.518 237.177 171.822 237.769 170.654 238.137ZM171.47 235.257C172.238 235.657 173.166 236.297 173.598 236.793L174.254 235.993C173.806 235.513 172.862 234.905 172.094 234.537L171.47 235.257ZM163.518 238.457L163.982 239.449C165.15 238.985 166.606 238.377 168.014 237.801L167.822 236.905C166.222 237.497 164.622 238.105 163.518 238.457ZM164.574 235.241C165.342 235.673 166.238 236.345 166.67 236.825L167.326 236.041C166.894 235.561 165.966 234.937 165.214 234.537L164.574 235.241ZM181.47 238.585V239.705H185.454V238.585H181.47ZM184.974 238.585V238.793C184.926 242.249 184.846 243.449 184.606 243.737C184.494 243.881 184.334 243.897 184.11 243.897C183.838 243.897 183.134 243.897 182.414 243.833C182.59 244.137 182.718 244.601 182.75 244.953C183.534 244.985 184.254 245.001 184.67 244.953C185.118 244.905 185.374 244.793 185.63 244.505C185.966 244.057 186.062 242.713 186.142 239.097C186.142 238.937 186.142 238.585 186.142 238.585H184.974ZM189.486 233.401C190.494 233.929 191.726 234.745 192.334 235.305L193.086 234.489C192.462 233.929 191.198 233.161 190.206 232.649L189.486 233.401ZM191.774 237.737C190.574 241.593 188.318 244.521 185.07 246.249C185.326 246.489 185.774 246.985 185.95 247.225C189.23 245.289 191.614 242.201 192.974 238.025L191.774 237.737ZM181.566 235.305V236.489H193.95V235.305H181.566ZM180.798 235.305V239.801C180.798 241.897 180.654 244.649 179.326 246.617C179.614 246.761 180.126 247.177 180.334 247.417C181.79 245.321 182.046 242.089 182.046 239.817V235.305H180.798ZM187.438 232.617C187.502 240.281 188.942 247.193 192.206 247.193C193.422 247.193 193.87 246.409 194.094 243.673C193.774 243.561 193.326 243.289 193.054 243.017C192.958 245.145 192.75 245.977 192.302 245.977C190.222 245.977 188.654 239.977 188.686 232.617H187.438ZM195.726 241.081V242.201H209.774V241.081H195.726ZM202.11 233.753V247.305H203.374V233.753H202.11ZM201.678 241.561C200.334 243.321 197.694 245.017 195.326 245.801C195.582 246.041 195.966 246.489 196.142 246.777C198.542 245.865 201.198 244.041 202.686 241.993L201.678 241.561ZM203.742 241.513L202.782 241.945C204.318 243.913 207.038 245.785 209.358 246.713C209.55 246.409 209.918 245.945 210.19 245.705C207.854 244.921 205.134 243.225 203.742 241.513ZM198.51 237.017H207.022V238.697H198.51V237.017ZM198.51 234.393H207.022V236.041H198.51V234.393ZM197.278 233.369V239.721H208.302V233.369H197.278Z" fill="#5B5046"/>
<path d="M97.9062 276.775C98.2188 277.088 98.75 277.088 99.0625 276.775L108.25 267.588C108.562 267.275 108.562 266.744 108.25 266.432L107.125 265.307C106.812 264.994 106.312 264.994 106 265.307L98.5 272.807L94.9688 269.307C94.6562 268.994 94.1562 268.994 93.8438 269.307L92.7188 270.432C92.4062 270.744 92.4062 271.275 92.7188 271.588L97.9062 276.775Z" fill="#D78100"/>
<path d="M118.766 267.121C119.966 267.713 121.422 268.657 122.11 269.329L122.958 268.545C122.238 267.873 120.766 266.977 119.566 266.417L118.766 267.121ZM126.158 264.945V265.137C124.414 268.289 119.806 270.449 115.774 271.201C115.998 271.457 116.238 271.953 116.35 272.257C120.574 271.329 125.31 269.089 127.39 265.361L126.606 264.881L126.398 264.945H126.158ZM120.814 264.945V265.953H126.462V264.945H120.814ZM121.998 263.569C120.894 264.913 118.782 266.417 115.902 267.425C116.174 267.633 116.542 268.033 116.718 268.321C119.694 267.137 121.87 265.553 123.342 263.857L121.998 263.569ZM120.814 272.993C122.078 273.681 123.598 274.753 124.318 275.505L125.262 274.737C124.494 273.969 122.958 272.961 121.694 272.305L120.814 272.993ZM128.494 270.545V270.721C126.766 274.753 121.934 276.657 116.99 277.249C117.182 277.521 117.422 278.017 117.502 278.353C122.734 277.585 127.726 275.585 129.742 270.913L128.958 270.481L128.734 270.545H128.494ZM123.294 270.545V271.569H128.814V270.545H123.294ZM124.59 269.041C123.342 270.561 120.91 272.225 117.518 273.281C117.774 273.505 118.126 273.937 118.27 274.209C121.774 272.977 124.302 271.233 125.918 269.345L124.59 269.041ZM140.062 270.049V276.225C140.062 277.617 140.446 278.033 141.902 278.033C142.206 278.033 143.886 278.033 144.206 278.033C145.614 278.033 145.934 277.281 146.062 274.529C145.742 274.433 145.214 274.225 144.942 274.001C144.878 276.465 144.782 276.881 144.126 276.881C143.726 276.881 142.334 276.881 142.046 276.881C141.422 276.881 141.294 276.785 141.294 276.225V270.049H140.062ZM131.694 269.329V270.497H145.822V269.329H131.694ZM133.086 264.833V266.001H144.462V264.833H133.086ZM135.79 270.225C135.55 273.345 135.038 276.001 131.502 277.329C131.774 277.553 132.126 277.985 132.254 278.273C136.078 276.753 136.782 273.809 137.054 270.225H135.79ZM147.598 274.161V275.169H161.918V274.161H147.598ZM150.574 271.345V272.257H158.142V271.345H150.574ZM154.302 273.457V276.993C154.302 277.217 154.238 277.265 153.982 277.281C153.726 277.281 152.814 277.281 151.838 277.249C151.998 277.553 152.174 277.969 152.238 278.273C153.518 278.273 154.334 278.273 154.83 278.113C155.342 277.937 155.486 277.649 155.486 277.025V273.457H154.302ZM157.838 271.345V271.553C157.086 272.209 155.582 273.009 154.302 273.457C154.478 273.601 154.766 273.905 154.894 274.097C156.334 273.585 157.966 272.753 159.102 271.889L158.382 271.281L158.126 271.345H157.838ZM147.934 269.329V272.257H149.086V270.257H160.414V272.257H161.598V269.329H147.934ZM159.566 264.193C159.486 265.985 159.326 268.385 159.134 269.841H160.286C160.446 268.417 160.606 266.033 160.702 264.193H159.566ZM156.974 264.193V265.025H160.046V264.193H156.974ZM152.014 263.729C151.214 263.969 149.838 264.369 148.91 264.513L149.358 265.217C150.302 265.073 151.63 264.833 152.558 264.465L152.014 263.729ZM149.55 265.905V266.721H152.462V265.905H149.55ZM149.63 267.601V268.433H152.542V267.601H149.63ZM157.054 265.905V266.721H159.918V265.905H157.054ZM156.958 267.601V268.433H159.79V267.601H156.958ZM155.518 263.745C154.878 264.577 153.774 265.361 152.67 265.889C152.878 266.017 153.214 266.321 153.358 266.481C154.446 265.889 155.63 264.961 156.366 263.969L155.518 263.745ZM152.974 264.465C154.046 264.961 155.326 265.745 155.95 266.337L156.574 265.745C155.918 265.169 154.622 264.401 153.566 263.937L152.974 264.465ZM155.55 266.433C154.894 267.329 153.71 268.145 152.574 268.673C152.766 268.817 153.102 269.153 153.23 269.313C154.382 268.705 155.63 267.729 156.398 266.689L155.55 266.433ZM152.926 267.153C154.03 267.697 155.358 268.561 155.982 269.201L156.622 268.593C155.966 267.969 154.622 267.137 153.534 266.625L152.926 267.153ZM148.91 264.513L149.246 269.793H150.382L150.062 264.833L148.91 264.513ZM165.71 271.697V278.353H166.894V272.657H174.702V278.353H175.934V271.697H165.71ZM166.334 274.193V275.153H175.086V274.193H166.334ZM166.382 276.769V277.729H175.086V276.769H166.382ZM170.094 270.193C169.934 270.721 169.582 271.537 169.278 272.081L170.254 272.337C170.59 271.857 171.006 271.137 171.358 270.433L170.094 270.193ZM163.902 264.417V265.377H169.23V264.417H163.902ZM168.91 264.417V269.713C168.91 269.873 168.862 269.937 168.654 269.937C168.462 269.953 167.822 269.953 167.086 269.937C167.23 270.193 167.374 270.561 167.422 270.833C168.446 270.833 169.086 270.833 169.502 270.673C169.886 270.513 170.014 270.241 170.014 269.713V264.417H168.91ZM171.022 264.417V265.377H176.606V264.417H171.022ZM176.062 264.417V269.713C176.062 269.905 175.998 269.937 175.79 269.953C175.582 269.969 174.878 269.969 174.126 269.937C174.27 270.209 174.414 270.609 174.462 270.881C175.534 270.897 176.222 270.881 176.638 270.721C177.07 270.545 177.182 270.273 177.182 269.713V264.417H176.062ZM170.654 269.137L171.102 270.065C172.334 269.633 173.902 269.025 175.374 268.465L175.198 267.585C173.518 268.177 171.822 268.769 170.654 269.137ZM171.47 266.257C172.238 266.657 173.166 267.297 173.598 267.793L174.254 266.993C173.806 266.513 172.862 265.905 172.094 265.537L171.47 266.257ZM163.518 269.457L163.982 270.449C165.15 269.985 166.606 269.377 168.014 268.801L167.822 267.905C166.222 268.497 164.622 269.105 163.518 269.457ZM164.574 266.241C165.342 266.673 166.238 267.345 166.67 267.825L167.326 267.041C166.894 266.561 165.966 265.937 165.214 265.537L164.574 266.241ZM180.43 265.009V266.065H193.182V265.009H180.43ZM181.23 267.409V268.401H192.462V267.409H181.23ZM179.79 269.841V270.881H193.678V269.841H179.79ZM186.094 263.585V270.689H187.31V263.585H186.094ZM185.854 270.097C184.446 271.745 181.678 273.361 179.31 274.113C179.582 274.353 179.934 274.785 180.11 275.089C182.494 274.209 185.294 272.465 186.878 270.593L185.854 270.097ZM187.614 270.385L186.542 270.673C187.758 274.129 190.03 276.641 193.406 277.777C193.582 277.441 193.934 276.993 194.206 276.737C190.958 275.793 188.686 273.457 187.614 270.385ZM192.286 271.489C191.454 272.321 190.014 273.409 188.958 274.065L189.726 274.705C190.814 274.065 192.19 273.105 193.278 272.193L192.286 271.489ZM182.782 278.305C183.134 278.049 183.726 277.857 188.206 276.433C188.126 276.177 188.03 275.697 188.014 275.377L183.246 276.801L182.67 277.265L182.782 278.305ZM182.782 278.305C182.782 277.889 184.11 277.185 184.11 277.185V272.705H182.862V276.145C182.862 276.785 182.51 277.073 182.254 277.201C182.446 277.473 182.686 278.001 182.782 278.305ZM195.534 264.417V265.537H201.038V264.417H195.534ZM195.726 268.945V270.065H200.878V268.945H195.726ZM195.23 274.641L195.55 275.809C197.118 275.329 199.262 274.705 201.278 274.097L201.118 273.025C198.958 273.649 196.718 274.273 195.23 274.641ZM202.894 267.873H208.142V269.489H202.894V267.873ZM202.894 270.465H208.142V272.081H202.894V270.465ZM202.894 265.313H208.142V266.913H202.894V265.313ZM201.774 264.289V273.121H209.31V264.289H201.774ZM205.966 272.625V276.705C205.966 277.857 206.238 278.209 207.406 278.209C207.63 278.209 208.718 278.209 208.958 278.209C209.934 278.209 210.238 277.697 210.334 275.713C210.03 275.649 209.55 275.457 209.31 275.265C209.262 276.913 209.198 277.153 208.83 277.153C208.59 277.153 207.758 277.153 207.582 277.153C207.198 277.153 207.118 277.089 207.118 276.689V272.625H205.966ZM203.246 272.865C202.99 275.089 202.334 276.625 199.39 277.425C199.63 277.649 199.95 278.113 200.078 278.417C203.31 277.409 204.126 275.569 204.414 272.865H203.246ZM197.758 264.865V274.481L198.91 274.289V264.865H197.758Z" fill="#5B5046"/>
<rect x="2" y="41.5127" width="332" height="254.513" stroke="#F4E7E1" stroke-width="4"/>
<defs>
<clipPath id="clip0_1246_7022">
<rect width="101.605" height="102.513" fill="white" transform="translate(117.198 55.5127)"/>
</clipPath>
</defs>
</svg>
