<svg width="336" height="236" viewBox="0 0 336 236" fill="none" xmlns="http://www.w3.org/2000/svg">
<rect width="336" height="39" fill="#F4E7E1"/>
<path d="M73.744 13.168V27.36H75.424V14.896H77.936V13.168H73.744ZM77.536 13.168V13.808C77.2 14.944 76.496 17.36 75.888 18.928C77.12 20.208 77.456 21.376 77.456 22.256C77.456 22.784 77.36 23.184 77.088 23.344C76.912 23.456 76.704 23.504 76.496 23.504C76.256 23.504 75.952 23.504 75.6 23.472C75.872 23.984 76.032 24.768 76.048 25.248C76.496 25.264 76.944 25.264 77.296 25.216C77.712 25.152 78.064 25.04 78.368 24.832C78.96 24.416 79.2 23.632 79.2 22.48C79.2 21.424 78.96 20.144 77.68 18.704C78.288 17.328 78.96 15.472 79.488 13.92L78.16 13.104L77.888 13.168H77.536ZM65.072 14.176V15.888H72.816V14.176H65.072ZM64.672 18.48V20.224H73.168V18.48H64.672ZM65.904 16.224C66.272 16.992 66.64 18.016 66.768 18.672L68.48 18.208C68.336 17.552 67.968 16.576 67.536 15.824L65.904 16.224ZM70.368 15.776C70.144 16.688 69.696 17.952 69.296 18.768L70.912 19.168C71.328 18.4 71.808 17.248 72.256 16.176L70.368 15.776ZM66.4 25.024V26.704H71.568V25.024H66.4ZM65.392 21.376V27.408H67.2V23.088H70.656V27.328H72.56V21.376H65.392ZM67.584 12.768C67.888 13.488 68.208 14.432 68.32 15.024L70.192 14.464C70.032 13.888 69.664 12.976 69.328 12.288L67.584 12.768ZM83.568 17.328V19.168H92.416V17.328H83.568ZM87.984 21.088V22.88H93.392V21.088H87.984ZM86.976 18.304V25.792L88.992 26.032V18.304H86.976ZM83.216 19.92C82.944 22.672 82.144 24.896 80.4 26.176C80.848 26.464 81.648 27.12 81.952 27.472C83.792 25.888 84.752 23.376 85.168 20.112L83.216 19.92ZM84.768 21.888L83.2 22.416C84.576 26.464 87.072 27.2 90.768 27.2H94.784C94.88 26.624 95.2 25.712 95.472 25.248C94.4 25.296 91.728 25.296 90.88 25.296C88.032 25.28 85.792 24.832 84.768 21.888ZM81.12 14.112V18.128H83.008V15.92H92.896V18.128H94.88V14.112H81.12ZM86.528 12.784C86.896 13.504 87.232 14.464 87.36 15.04L89.392 14.432C89.232 13.824 88.832 12.928 88.448 12.24L86.528 12.784ZM100.592 21.12H107.552V21.808H100.592V21.12ZM100.592 22.896H107.552V23.6H100.592V22.896ZM100.592 19.36H107.552V20.032H100.592V19.36ZM98.736 18.208V24.736H109.488V18.208H98.736ZM105.264 25.52C106.848 26.112 108.496 26.896 109.424 27.424L111.136 26.4C110.048 25.856 108.176 25.088 106.528 24.512L105.264 25.52ZM101.344 24.576C100.256 25.2 98.352 25.76 96.656 26.064C97.088 26.4 97.744 27.104 98.08 27.472C99.712 27.024 101.792 26.224 103.104 25.376L101.344 24.576ZM103.2 13.392V14.784H109.68V13.392H103.2ZM103.328 12.32C102.976 13.408 102.304 14.48 101.456 15.184C101.856 15.408 102.56 15.872 102.88 16.144C103.744 15.344 104.56 14.032 105.008 12.704L103.328 12.32ZM104.96 14.464V15.024C104.96 15.664 104.48 16.448 100.544 16.752C100.88 17.104 101.36 17.76 101.536 18.192C106.064 17.68 106.704 16.272 106.704 15.104V14.464H104.96ZM106.544 15.104L105.2 15.376C106.16 16.992 107.904 17.872 110.4 18.176C110.608 17.696 111.072 17.008 111.44 16.64C109.136 16.528 107.376 16.064 106.544 15.104ZM96.992 13.2V14.608H101.104V13.2H96.992ZM96.64 15.68V17.136H101.488V15.68H96.64ZM109.008 13.392V13.616C108.752 14.304 108.304 15.152 107.936 15.696L109.408 16.256C109.92 15.616 110.48 14.608 110.88 13.712L109.568 13.312L109.296 13.392H109.008ZM115.024 12.416V27.44H116.8V12.416H115.024ZM112.608 17.744V19.536H119.168V17.744H112.608ZM112.576 13.744C112.96 14.912 113.28 16.48 113.312 17.472L114.752 17.12C114.688 16.096 114.352 14.576 113.92 13.408L112.576 13.744ZM117.856 13.328C117.68 14.448 117.296 16.064 116.96 17.072L118.176 17.408C118.576 16.464 119.056 14.944 119.472 13.664L117.856 13.328ZM123.904 12.4V27.424H125.712V12.4H123.904ZM119.12 22.416L119.424 24.208L127.632 22.72L127.344 20.944L119.12 22.416ZM120.032 14.592C120.928 15.168 122.048 16.048 122.528 16.672L123.536 15.216C123.008 14.624 121.872 13.824 120.976 13.28L120.032 14.592ZM119.312 18.624C120.24 19.168 121.408 20.032 121.952 20.624L122.912 19.104C122.336 18.512 121.136 17.744 120.208 17.248L119.312 18.624ZM113.904 20.144C113.664 21.36 113.024 22.832 112.352 23.648C112.656 24.288 113.056 25.264 113.216 25.936C114.24 24.784 114.912 22.48 115.248 20.608L113.904 20.144ZM117.392 20.192L116.352 20.944C116.784 21.792 117.552 23.584 117.856 24.576L119.184 23.12C118.928 22.64 117.728 20.64 117.392 20.192ZM132.176 16.288V17.728H142.864V16.288H132.176ZM131.504 24.176V25.728H143.408V24.176H131.504ZM136.368 15.536V27.344H138.192V15.536H136.368ZM134.304 21.44H140.368V22.24H134.304V21.44ZM134.304 19.568H140.368V20.336H134.304V19.568ZM132.64 18.384V23.408H142.128V18.384H132.64ZM130.64 13.664V15.28H143.28V13.664H130.64ZM129.744 13.664V18.88C129.744 21.152 129.632 24.224 128.32 26.336C128.736 26.528 129.536 27.088 129.856 27.424C131.328 25.12 131.568 21.424 131.568 18.88V13.664H129.744ZM135.424 12.864C135.776 13.504 136.16 14.368 136.288 14.928L138.192 14.368C138.016 13.808 137.648 12.992 137.248 12.384L135.424 12.864ZM152.272 16.304H156.608V17.088H152.272V16.304ZM152.272 14.272H156.608V15.072H152.272V14.272ZM150.512 12.912V18.464H158.448V12.912H150.512ZM149.728 19.2V20.752H159.264V19.2H149.728ZM153.52 20.048V25.776L155.328 26.56V20.048H153.52ZM152.048 22.88L150.896 23.264C151.92 26.656 153.776 27.232 156.368 27.232H159.168C159.232 26.736 159.456 25.936 159.696 25.536C158.992 25.568 156.992 25.568 156.448 25.568C154.48 25.568 152.848 25.264 152.048 22.88ZM154.832 22.16V23.664H158.4V22.16H154.832ZM150.688 21.232C150.448 23.424 149.776 25.2 148.448 26.272C148.848 26.528 149.568 27.104 149.856 27.408C151.264 26.112 152.08 24.048 152.416 21.44L150.688 21.232ZM144.352 20.528L144.768 22.384C146.208 21.984 148.016 21.456 149.696 20.944L149.44 19.216C147.6 19.728 145.664 20.256 144.352 20.528ZM144.512 15.456V17.216H149.6V15.456H144.512ZM146.24 12.432V25.184C146.24 25.408 146.176 25.472 145.984 25.472C145.792 25.472 145.232 25.472 144.656 25.456C144.88 25.968 145.104 26.752 145.152 27.232C146.176 27.232 146.88 27.168 147.36 26.864C147.856 26.576 148 26.08 148 25.2V12.432H146.24ZM163.872 12.432C163.056 14.72 161.664 17.008 160.224 18.448C160.544 18.928 161.072 19.984 161.248 20.448C162.992 18.608 164.656 15.728 165.68 13.008L163.872 12.432ZM162.256 16.896V27.424H164.144V15.04V15.024L162.256 16.896ZM165.44 15.536V17.376H175.344V15.536H165.44ZM165.056 20.576V22.448H175.488V20.576H165.056ZM167.216 12.544V21.536H169.088V12.544H167.216ZM171.392 12.512V21.568H173.28V12.512H171.392ZM167.632 23.088C166.976 24.24 165.856 25.424 164.72 26.176C165.152 26.432 165.872 27.04 166.224 27.376C167.344 26.48 168.64 25.056 169.44 23.664L167.632 23.088ZM171.152 23.936C172.144 24.992 173.28 26.448 173.776 27.408L175.392 26.4C174.832 25.456 173.712 24.096 172.672 23.088L171.152 23.936ZM186.608 19.92C186.608 23.344 188.032 25.904 189.76 27.616L191.28 26.928C189.664 25.216 188.416 22.992 188.416 19.92C188.416 16.864 189.664 14.64 191.28 12.928L189.76 12.24C188.032 13.952 186.608 16.512 186.608 19.92ZM192.72 22.976V24.512H207.232V22.976H192.72ZM195.84 20.24V21.6H202.848V20.24H195.84ZM199.216 22.528V25.584C199.216 25.792 199.152 25.84 198.896 25.84C198.64 25.84 197.68 25.84 196.912 25.808C197.152 26.272 197.424 26.928 197.52 27.424C198.72 27.424 199.6 27.424 200.256 27.184C200.928 26.928 201.104 26.512 201.104 25.648V22.528H199.216ZM202.368 20.24V20.56C201.728 21.168 200.352 22.048 199.216 22.528C199.456 22.752 199.888 23.216 200.08 23.504C201.552 22.896 203.12 22 204.32 21.136L203.232 20.144L202.832 20.24H202.368ZM192.992 18.176V21.472H194.816V19.568H205.136V21.472H207.04V18.176H192.992ZM204.368 12.944C204.304 14.864 204.128 17.296 203.92 18.864H205.76C205.936 17.344 206.096 14.912 206.192 12.944H204.368ZM202.16 12.944V14.144H205.12V12.944H202.16ZM197.152 12.496C196.288 12.784 194.864 13.216 193.904 13.376L194.576 14.432C195.552 14.272 196.944 13.984 197.952 13.6L197.152 12.496ZM194.832 14.688V15.872H197.824V14.688H194.832ZM194.88 16.432V17.616H197.872V16.432H194.88ZM202.256 14.688V15.872H204.96V14.688H202.256ZM202.176 16.432V17.616H204.864V16.432H202.176ZM200.592 12.512C200 13.296 198.928 14.016 197.824 14.496C198.128 14.688 198.608 15.12 198.832 15.344C199.92 14.784 201.12 13.856 201.84 12.864L200.592 12.512ZM198.16 13.36C199.152 13.872 200.384 14.656 200.96 15.216L201.888 14.4C201.248 13.84 200.016 13.088 199.04 12.624L198.16 13.36ZM200.608 15.216C199.984 16.048 198.832 16.816 197.696 17.312C197.968 17.52 198.448 18.016 198.656 18.256C199.824 17.648 201.088 16.656 201.856 15.584L200.608 15.216ZM198.08 16.096C199.136 16.656 200.432 17.52 201.04 18.128L201.984 17.296C201.328 16.688 200 15.872 198.976 15.36L198.08 16.096ZM193.904 13.376L194.224 18.784H196.016L195.728 13.84L193.904 13.376ZM214.448 14.64V16.416H223.344V14.64H214.448ZM216.336 16.432C215.728 17.488 214.672 18.784 213.664 19.552C214.08 19.856 214.688 20.384 214.992 20.752C216.048 19.872 217.2 18.512 218.032 17.216L216.336 16.432ZM219.344 17.328C220.368 18.304 221.552 19.696 222.032 20.656L223.44 19.424C222.912 18.496 221.664 17.184 220.64 16.24L219.344 17.328ZM217.152 19.344L215.488 19.76C216.768 23.456 218.864 26.096 222.432 27.344C222.72 26.8 223.296 26 223.728 25.616C220.368 24.64 218.192 22.352 217.152 19.344ZM217.056 12.88C217.52 13.504 218 14.4 218.208 14.976L219.984 14.224C219.76 13.648 219.248 12.848 218.752 12.24L217.056 12.88ZM208.8 15.568V17.344H214.048V15.568H208.8ZM210.704 12.416V27.44H212.448V12.416H210.704ZM210.496 16.784C210.128 18.848 209.264 21.456 208.272 22.832C208.576 23.344 209.008 24.208 209.168 24.752C210.224 23.056 211.104 19.84 211.52 17.184L210.496 16.784ZM212.432 17.824L211.584 18.592C212.048 19.456 212.992 21.424 213.36 22.464L214.448 21.04C214.16 20.528 212.8 18.304 212.432 17.824ZM219.856 19.328C218.96 22.448 216.816 24.72 213.552 25.952C213.936 26.288 214.512 27.04 214.752 27.456C218.32 26 220.576 23.504 221.696 19.808L219.856 19.328ZM231.536 17.216V19.152H238.192V17.216H231.536ZM224.688 24.72V26.656H239.312V24.72H224.688ZM230.448 12.608V25.792H232.512V12.608H230.448ZM247.568 18.208H253.04V18.864H247.568V18.208ZM247.568 16.544H253.04V17.2H247.568V16.544ZM245.824 15.504V19.92H254.88V15.504H245.824ZM245.152 20.608L245.312 22.048C247.68 22 251.088 21.904 254.32 21.808L254.368 20.496C251.024 20.56 247.456 20.608 245.152 20.608ZM252.208 20C252.992 20.704 253.92 21.712 254.336 22.352L255.696 21.584C255.248 20.928 254.272 19.968 253.472 19.312L252.208 20ZM249.36 12.544V21.392L251.216 21.2V12.544H249.36ZM244.816 22.576V24.048H255.504V22.576H244.816ZM251.616 21.392V25.632C251.616 25.824 251.536 25.888 251.312 25.888C251.072 25.904 250.256 25.904 249.52 25.872C249.744 26.32 249.968 26.992 250.048 27.472C251.216 27.472 252.064 27.472 252.672 27.216C253.296 26.976 253.472 26.544 253.472 25.68V21.392H251.616ZM246.24 24.544C246.928 25.2 247.76 26.144 248.112 26.752L249.632 25.776C249.216 25.168 248.352 24.288 247.648 23.68L246.24 24.544ZM245.168 13.504V14.896H255.36V13.504H245.168ZM243.792 12.48C242.976 14.768 241.584 17.04 240.128 18.496C240.464 18.96 240.976 20.016 241.152 20.48C242.896 18.656 244.56 15.776 245.6 13.04L243.792 12.48ZM242.24 16.896V27.424H244.08V15.088L244.064 15.072L242.24 16.896ZM261.376 19.92C261.376 16.512 259.952 13.952 258.224 12.24L256.704 12.928C258.32 14.64 259.568 16.864 259.568 19.92C259.568 22.992 258.32 25.216 256.704 26.928L258.224 27.616C259.952 25.904 261.376 23.344 261.376 19.92Z" fill="#5B5046"/>
<g clip-path="url(#clip0_1246_6982)">
<path d="M134.154 56.0589C133.376 56.0169 132.603 55.9829 131.83 55.9429C131.741 55.9477 131.653 55.9618 131.566 55.9849C131.399 55.847 131.199 55.7552 130.986 55.7188C130.772 55.6824 130.553 55.7026 130.35 55.7773C130.146 55.8521 129.966 55.9789 129.827 56.1449C129.688 56.311 129.595 56.5106 129.557 56.7239C127.371 69.2039 128.97 81.8979 129.134 94.4659C125.3 94.6179 121.483 95.0659 117.642 94.9509C113.982 94.8379 110.042 93.9929 106.452 94.5889C105.232 94.7889 105.227 96.1039 105.909 96.8109C105.695 97.6329 106.102 98.5749 107.173 98.4459C110.987 97.9909 115.153 98.7119 119.034 98.5609C122.88 98.4079 127.14 98.7069 130.904 97.9609C131.381 98.2848 131.963 98.4144 132.531 98.3231C133.1 98.2319 133.612 97.9266 133.963 97.4699C133.954 97.5609 134.025 97.3219 134.025 97.0379V96.8119C134.024 96.5504 133.945 96.2953 133.796 96.0799C135.296 83.4649 131.243 70.1799 135.496 57.8019C135.55 57.5965 135.555 57.3816 135.513 57.1737C135.471 56.9657 135.381 56.7702 135.252 56.6021C135.122 56.4339 134.956 56.2976 134.766 56.2034C134.576 56.1093 134.367 56.0599 134.154 56.0589Z" fill="#E4D2C6"/>
<path d="M136.174 55.5011C136.136 55.3617 136.052 55.239 135.937 55.152C135.821 55.065 135.68 55.0187 135.535 55.0201C129.867 55.0011 124.216 54.9801 118.545 55.0631C113.815 55.1331 109.023 54.7561 104.38 55.7931C104.272 55.7304 104.15 55.6978 104.025 55.6986C103.9 55.6994 103.777 55.7336 103.67 55.7977C103.563 55.8617 103.475 55.9534 103.415 56.063C103.355 56.1726 103.325 56.2963 103.329 56.4211C103.316 56.5279 103.327 56.6362 103.361 56.7381C104.513 63.3681 104.066 70.1141 104.161 76.8031C104.261 83.8031 105.239 90.7531 105.068 97.7621C105.061 97.9008 105.104 98.0375 105.189 98.1476C105.273 98.2576 105.395 98.3337 105.53 98.3621C105.543 98.4824 105.596 98.5946 105.682 98.6797C105.768 98.7647 105.881 98.8172 106.001 98.8281C114.852 100.274 124.719 99.3341 133.618 99.0701C133.757 99.0704 133.892 99.0245 134.002 98.9395C134.111 98.8546 134.189 98.7355 134.223 98.6011C134.313 98.6145 134.405 98.6081 134.492 98.5826C134.579 98.557 134.66 98.5129 134.728 98.4532C134.797 98.3935 134.851 98.3197 134.889 98.2368C134.926 98.1539 134.944 98.064 134.943 97.9731C134.943 90.0401 134.314 82.1551 134.578 74.2331C134.705 70.5591 134.537 66.7921 135.289 63.1841C135.836 60.6011 136.581 58.1451 136.174 55.5011ZM134.234 61.8811C133.027 67.1161 133.369 75.1811 133.108 80.5151C132.788 87.1321 133.624 91.1351 133.622 97.7631H133.617C124.861 98.0221 115.106 98.9851 106.394 97.5731C106.544 90.2591 105.569 82.9911 105.467 75.6881C105.378 69.4521 105.712 63.2281 104.742 57.0531C109.89 55.9091 115.288 56.5011 120.523 56.3271C123.837 56.2271 127.149 56.2271 130.467 56.2791C131.467 56.2931 134.975 55.6531 135.017 57.3351C134.941 58.8762 134.677 60.4023 134.233 61.8801" fill="#5C5147"/>
<path d="M126.666 63.3265C122.366 62.4675 118.008 63.2485 113.682 63.3035C113.508 63.3035 113.342 63.3724 113.219 63.4952C113.096 63.6179 113.027 63.7844 113.027 63.958C113.027 64.1316 113.096 64.298 113.219 64.4208C113.342 64.5435 113.508 64.6125 113.682 64.6125C117.871 64.5595 122.153 63.7555 126.309 64.5935C127.145 64.7535 127.498 63.4935 126.666 63.3275" fill="#5C5147"/>
<path d="M128.03 66.7919C123.097 66.6189 118.174 66.9789 113.24 67.0109C113.072 67.0175 112.912 67.0893 112.795 67.2111C112.678 67.3329 112.612 67.4954 112.612 67.6644C112.612 67.8334 112.678 67.9959 112.795 68.1177C112.912 68.2396 113.072 68.3113 113.24 68.3179C118.173 68.2899 123.096 67.9279 128.03 68.1029C128.204 68.1029 128.371 68.0339 128.494 67.9111C128.616 67.7882 128.685 67.6216 128.685 67.4479C128.685 67.2742 128.616 67.1076 128.494 66.9848C128.371 66.8619 128.204 66.7929 128.03 66.7929" fill="#5C5147"/>
<path d="M127.149 72.0275C124.976 71.9395 122.807 72.1505 120.642 72.2655C118.592 72.3765 115.869 72.7385 114.014 71.6795C113.865 71.6001 113.691 71.5813 113.528 71.627C113.365 71.6728 113.226 71.7796 113.14 71.9252C113.054 72.0708 113.028 72.244 113.066 72.4087C113.104 72.5735 113.205 72.717 113.346 72.8095C117.16 74.9875 122.972 73.1635 127.146 73.3355C128.001 73.3705 127.999 72.0625 127.146 72.0265" fill="#5C5147"/>
<path d="M128.65 77.5004C123.967 76.7804 119.087 78.0564 114.523 76.6294C114.356 76.5851 114.178 76.6083 114.028 76.6939C113.878 76.7795 113.768 76.9207 113.721 77.0869C113.675 77.2531 113.695 77.431 113.779 77.5821C113.862 77.7332 114.002 77.8454 114.168 77.8944C118.78 79.3284 123.592 78.0444 128.301 78.7674C129.135 78.8904 129.492 77.6354 128.651 77.5014" fill="#5C5147"/>
<path d="M128.071 82.2972C123.704 83.0322 119.363 81.7042 115.004 81.4032C114.151 81.3452 114.156 82.6552 115.004 82.7122C119.504 83.0212 123.904 84.3202 128.424 83.5602C129.269 83.4212 128.911 82.1602 128.07 82.2972" fill="#5C5147"/>
<path d="M126.971 86.8773C123.583 87.477 120.116 87.477 116.727 86.8773C115.895 86.6953 115.543 87.9563 116.373 88.1423C119.996 88.7843 123.702 88.7843 127.324 88.1423C128.165 88.0223 127.808 86.7613 126.97 86.8773" fill="#5C5147"/>
<path d="M127.366 92.5273C123.241 93.0103 118.945 93.9703 114.96 92.3273C114.173 92.0023 113.833 93.2693 114.608 93.5903C118.708 95.2763 123.114 94.3313 127.366 93.8333C128.209 93.7333 128.219 92.4223 127.366 92.5243" fill="#5C5147"/>
<path d="M110.167 61.6021C109.884 62.279 109.516 62.9174 109.072 63.5021C109.062 63.3772 109.045 63.2529 109.02 63.1301C108.967 62.9683 108.854 62.8331 108.704 62.7523C108.554 62.6714 108.379 62.6512 108.215 62.6957C108.051 62.7402 107.91 62.846 107.821 62.9914C107.732 63.1367 107.703 63.3106 107.738 63.4771C107.827 63.7961 107.763 64.1211 107.859 64.4381C107.946 64.6458 108.083 64.8282 108.26 64.9681C108.436 65.108 108.645 65.2009 108.866 65.2381C108.98 65.27 109.099 65.2713 109.213 65.242C109.327 65.2127 109.431 65.1537 109.514 65.0711C110.35 64.1607 111.008 63.1026 111.455 61.9511C111.776 61.1711 110.498 60.8331 110.171 61.6021" fill="#5C5147"/>
<path d="M110.343 66.3286C109.748 67.0746 109.211 67.8706 108.602 68.6086C108.482 68.3064 108.408 67.9884 108.382 67.6646C108.337 66.8286 107.011 66.8236 107.055 67.6646C107.171 68.4775 107.401 69.27 107.739 70.0186C107.772 70.1284 107.834 70.2278 107.917 70.3074C108 70.387 108.102 70.4441 108.213 70.4734C108.324 70.5027 108.441 70.5032 108.552 70.4749C108.663 70.4466 108.766 70.3904 108.85 70.3116C109.713 69.3373 110.523 68.3175 111.278 67.2566C111.801 66.6006 110.871 65.6706 110.342 66.3286" fill="#5C5147"/>
<path d="M111.343 80.1558C110.748 80.9018 110.211 81.6978 109.602 82.4358C109.482 82.1336 109.408 81.8155 109.382 81.4918C109.337 80.6558 108.011 80.6508 108.055 81.4918C108.171 82.3047 108.401 83.0971 108.739 83.8458C108.772 83.9556 108.834 84.055 108.917 84.1345C109 84.2141 109.102 84.2712 109.213 84.3006C109.324 84.3299 109.441 84.3304 109.552 84.3021C109.663 84.2738 109.766 84.2176 109.85 84.1388C110.713 83.1644 111.523 82.1446 112.278 81.0838C112.801 80.4278 111.871 79.4978 111.342 80.1558" fill="#5C5147"/>
<path d="M111.446 70.2573C110.687 71.1986 109.803 72.0317 108.819 72.7333C108.859 72.477 108.926 72.2256 109.019 71.9833C109.283 71.1833 108.003 70.8373 107.735 71.6373C107.561 72.0269 107.477 72.4506 107.488 72.8771C107.5 73.3035 107.608 73.7219 107.803 74.1013C107.895 74.2496 108.041 74.3569 108.21 74.4011C108.379 74.4454 108.558 74.4233 108.712 74.3393C110.129 73.5359 111.376 72.4643 112.385 71.1843C112.93 70.5393 111.998 69.6113 111.446 70.2563" fill="#5C5147"/>
<path d="M112.446 84.0855C111.687 85.0267 110.803 85.8598 109.819 86.5615C109.859 86.3051 109.926 86.0537 110.019 85.8115C110.283 85.0115 109.003 84.6655 108.735 85.4655C108.561 85.8551 108.477 86.2787 108.488 86.7052C108.5 87.1317 108.608 87.55 108.803 87.9295C108.895 88.0777 109.041 88.185 109.21 88.2292C109.379 88.2735 109.558 88.2514 109.712 88.1675C111.129 87.364 112.376 86.2924 113.385 85.0125C113.93 84.3675 112.998 83.4395 112.446 84.0845" fill="#5C5147"/>
<path d="M110.679 74.5327C110.28 75.3173 109.724 76.0119 109.045 76.5737C109.045 76.4357 109.045 76.2987 109.045 76.1737C109.039 76.0024 108.966 75.8404 108.843 75.7216C108.719 75.6028 108.554 75.5364 108.383 75.5364C108.212 75.5364 108.047 75.6028 107.923 75.7216C107.8 75.8404 107.727 76.0024 107.72 76.1737C107.688 76.8082 107.795 77.4422 108.034 78.0307C108.124 78.1802 108.268 78.2885 108.437 78.3321C108.605 78.3757 108.784 78.3511 108.934 78.2637C110.165 77.5274 111.166 76.4634 111.826 75.1907C112.213 74.4447 111.074 73.7837 110.68 74.5327" fill="#5C5147"/>
<path d="M111.886 90.7575C111.374 91.4065 110.924 92.1225 110.44 92.8085C110.333 92.1309 110.153 91.4668 109.903 90.8275C109.603 90.0465 108.316 90.3815 108.628 91.1735C109.043 92.2296 109.258 93.3531 109.264 94.4875C109.269 94.6169 109.311 94.7422 109.384 94.8485C109.458 94.9548 109.561 95.0376 109.681 95.0869C109.8 95.1362 109.932 95.1499 110.059 95.1264C110.186 95.1029 110.304 95.0433 110.398 94.9545C111.348 93.9685 111.982 92.7465 112.823 91.6815C113.339 91.0255 112.412 90.0905 111.887 90.7575" fill="#5C5147"/>
<path d="M228.084 72.3624C228.129 70.9838 228.057 69.6039 227.869 68.2374C227.823 67.0194 227.801 65.7944 227.796 64.5844C227.792 64.2798 227.716 63.9806 227.574 63.711C227.432 63.4413 227.229 63.2088 226.981 63.0321C226.733 62.8554 226.447 62.7396 226.146 62.6939C225.844 62.6483 225.537 62.6742 225.247 62.7694C224.824 62.4258 224.352 62.1468 223.847 61.9414C215.089 58.5144 203.595 59.0844 194.324 58.4414C185.459 57.8214 172.285 53.9844 163.79 57.3194C162.352 57.8844 161.613 60.0574 163.319 60.8974C166.088 62.2344 167.706 62.2844 170.91 62.1324C177.833 61.8144 186.203 63.9204 193.088 64.8524C198.844 65.6354 204.511 66.5274 210.297 67.0974C213.934 67.4524 220.166 67.2974 223.249 69.5974C224.717 77.9204 223.578 94.8634 223.796 98.0214C224.335 105.711 224.644 113.621 226.135 121.23C219.24 119.022 210.935 119.79 203.924 118.247C198.684 116.912 193.548 115.197 188.557 113.114C183.497 111.201 178.063 110.609 173.086 108.621C172.774 108.473 172.421 108.432 172.083 108.507C171.745 108.582 171.442 108.768 171.221 109.034C169.276 108.595 167.296 108.324 165.303 108.224C162.754 108.119 162.764 112.039 165.303 112.132C171.069 112.355 176.124 114.905 181.465 116.732C186.765 118.537 192.321 119.655 197.708 121.167C207.043 123.787 217.821 126.867 227.621 125.807C227.736 125.789 227.848 125.758 227.955 125.715C228.205 125.863 228.485 125.95 228.774 125.969C229.064 125.988 229.353 125.938 229.619 125.824C229.886 125.71 230.121 125.534 230.307 125.311C230.492 125.088 230.622 124.825 230.686 124.542C233.027 107.434 229.186 89.6984 228.086 72.3674" fill="#E4D2C6"/>
<path d="M204.024 128.158C203.768 128.221 203.518 128.311 203.272 128.373C203.037 128.118 202.735 127.933 202.402 127.839C202.068 127.745 201.714 127.745 201.381 127.84C197.926 128.833 195.129 130.998 192.264 133.088C189.287 135.256 186.164 136.996 183.592 139.546C182.772 139.936 181.964 140.374 181.119 140.731C178.935 141.694 180.593 144.674 182.719 144.196C183.001 144.386 183.337 144.481 183.677 144.466C184.017 144.45 184.343 144.326 184.607 144.111C185.83 143.271 187.055 142.433 188.297 141.611C190.744 140.303 193.117 138.863 195.407 137.296C195.893 137.031 196.376 136.756 196.867 136.518C200.059 134.963 203.428 134.038 205.939 131.435C206.233 131.124 206.418 130.727 206.467 130.302C206.516 129.877 206.425 129.448 206.21 129.078C205.994 128.709 205.664 128.42 205.27 128.254C204.876 128.088 204.439 128.054 204.024 128.158Z" fill="#E4D2C6"/>
<path d="M231.867 126.606C231.842 122.416 231.239 118.206 231.313 113.948C231.413 108.085 230.88 102.117 230.68 96.2619C230.308 85.2619 229.566 74.2879 229.495 63.2749C229.709 63.1373 229.874 62.9343 229.965 62.6959C230.055 62.4574 230.067 62.1962 229.998 61.9507C229.928 61.7052 229.782 61.4886 229.58 61.3326C229.378 61.1767 229.132 61.0899 228.877 61.0849C218.456 61.0849 207.911 57.6449 197.493 56.8399C185.982 55.9619 174.283 55.4369 162.727 55.3519C162.562 55.1816 162.351 55.0632 162.119 55.0112C161.888 54.9591 161.647 54.9757 161.425 55.0588C161.203 55.1419 161.01 55.288 160.87 55.4791C160.729 55.6703 160.648 55.8982 160.636 56.1349C160.661 74.1349 161.198 92.1239 161.236 110.118C161.302 110.731 161.39 111.331 161.471 111.936C161.321 111.946 161.174 111.983 161.038 112.046C153.158 115.846 144.37 116.926 136.238 119.984C136.125 119.983 136.014 119.994 135.904 120.016C132.55 121.059 129.432 122.696 126.098 123.781C125.918 123.833 125.755 123.93 125.623 124.062C125.491 124.194 125.394 124.357 125.341 124.536C124.464 124.992 123.531 125.329 122.567 125.541C122.314 125.553 122.072 125.647 121.877 125.807C121.682 125.967 121.543 126.186 121.481 126.431C121.42 126.677 121.439 126.935 121.535 127.169C121.632 127.402 121.801 127.599 122.018 127.729C131.624 133.119 141.265 138.468 150.943 143.776C159.592 148.531 168.821 151.956 177.643 156.302C177.655 156.508 177.717 156.709 177.824 156.885C177.932 157.062 178.08 157.21 178.258 157.316C178.435 157.423 178.636 157.484 178.842 157.495C179.049 157.506 179.255 157.467 179.443 157.38C190.074 152.247 200.292 146.347 210.936 141.224C215.998 138.801 220.782 135.854 225.703 133.159C227.609 132.119 232.669 130.326 232.669 127.691C232.677 127.445 232.602 127.203 232.454 127.006C232.307 126.809 232.097 126.667 231.859 126.606H231.867ZM195.259 59.0989C205.915 59.5239 216.473 62.9989 227.094 63.3739C227.172 74.3499 227.858 85.3049 228.276 96.2579C228.489 101.458 228.537 106.669 228.876 111.871C229.182 116.436 229.438 121.387 229.468 125.982C218.068 123.989 206.558 122.074 195.274 119.572C184.56 117.192 174.351 113.134 163.634 110.764C163.609 93.0879 163.097 75.4149 163.049 57.7339C173.801 57.8539 184.521 58.6839 195.256 59.0989H195.259ZM219.667 133.783C215.067 136.383 210.474 138.883 205.657 141.098C196.768 145.191 188.392 150.278 179.621 154.619C170.57 150.086 161.047 146.626 152.16 141.728C143.306 136.848 134.462 131.946 125.627 127.023C126.227 126.745 126.822 126.44 127.427 126.145C127.646 126.033 127.82 125.848 127.918 125.622C129.925 124.887 131.894 124.034 133.871 123.262C134.124 123.319 134.389 123.291 134.625 123.18C143.507 119.172 153.439 118.337 162.243 114.08C162.446 114.001 162.617 113.855 162.726 113.666C162.835 113.477 162.876 113.256 162.843 113.04C172.889 115.22 182.53 118.765 192.493 121.34C204.615 124.488 217.347 126.26 229.686 128.433C227.646 130.096 220.791 133.146 219.668 133.783" fill="#5C5147"/>
<path d="M170.853 143.66C162.779 140.267 155.339 135.545 146.953 132.869C146.709 132.772 146.438 132.773 146.195 132.87C145.952 132.967 145.756 133.154 145.647 133.392H145.634C144.252 132.749 143.075 134.652 144.427 135.432C149.605 138.527 155.003 141.237 160.578 143.54C163.048 144.733 165.559 145.848 168.126 146.83C168.251 146.886 168.386 146.915 168.523 146.915C168.66 146.916 168.795 146.888 168.921 146.832C169.046 146.777 169.158 146.697 169.251 146.596C169.343 146.494 169.413 146.375 169.457 146.245C169.613 146.24 169.767 146.204 169.91 146.139C170.052 146.073 170.18 145.98 170.287 145.865C171.355 145.84 171.987 144.147 170.857 143.66" fill="#5C5147"/>
<path d="M208.78 127.735C193.737 125.635 179.871 118.635 164.96 116.064C164.784 116.037 164.604 116.042 164.431 116.081C164.201 116 163.952 115.994 163.72 116.064C156.72 118.317 150.646 123.392 143.233 124.324C141.899 124.499 141.733 126.354 142.744 126.662C142.792 126.848 142.887 127.018 143.021 127.156C143.154 127.294 143.321 127.396 143.506 127.45C151.201 129.911 157.797 134.563 165.037 138.006C171.378 141.016 177.746 143.981 184.337 146.426C184.472 146.483 184.617 146.511 184.764 146.506C184.911 146.502 185.055 146.466 185.186 146.401C185.318 146.335 185.433 146.242 185.525 146.128C185.617 146.013 185.683 145.88 185.719 145.738C192.989 140.753 200.314 135.838 207.872 131.287C208.092 131.166 208.265 130.973 208.36 130.74C208.455 130.506 208.466 130.248 208.393 130.007C209.717 129.95 210.226 127.927 208.78 127.734V127.735ZM189.986 125.523C192.522 126.308 195.043 127.073 197.586 127.743C197.473 127.765 197.365 127.804 197.265 127.858C194.894 129.232 192.607 130.744 190.416 132.388C188.566 131.723 186.751 131.003 184.946 130.24C186.563 129.117 188.161 127.97 189.71 126.75C189.902 126.618 190.038 126.418 190.089 126.19C190.141 125.963 190.105 125.724 189.988 125.522L189.986 125.523ZM175.474 128.322C175.78 128.502 176.099 128.685 176.405 128.855C177.579 129.51 178.805 130.113 180.042 130.713C178.708 131.576 177.375 132.428 176.042 133.271C174.501 132.546 172.954 131.811 171.415 131.071C172.779 130.153 174.123 129.243 175.475 128.321L175.474 128.322ZM168.947 129.861C166.957 128.868 164.971 127.871 163.016 126.831C164.75 125.881 166.489 124.951 168.19 123.981C169.916 124.911 171.599 125.951 173.235 126.966C171.807 127.926 170.378 128.893 168.947 129.866V129.861ZM182.557 131.856C184.377 132.656 186.224 133.399 188.1 134.084C186.753 135.074 185.407 136.047 184.03 136.977C182.222 136.147 180.409 135.306 178.591 134.454C179.925 133.614 181.244 132.739 182.557 131.854V131.856ZM181.436 122.796C183.694 123.506 185.964 124.241 188.22 124.959C188.145 124.988 188.076 125.027 188.012 125.074C186.212 126.494 184.357 127.824 182.466 129.109C180.843 128.369 179.253 127.588 177.695 126.766C178.814 125.961 179.953 125.176 181.051 124.366C181.29 124.192 181.46 123.939 181.531 123.651C181.601 123.364 181.567 123.061 181.436 122.796ZM173.174 120.373C175.412 120.973 177.636 121.633 179.851 122.321H179.846C178.363 123.411 176.857 124.455 175.336 125.511C175.179 125.423 175.009 125.343 174.855 125.251C173.392 124.411 171.927 123.511 170.427 122.66C171.181 122.19 171.927 121.715 172.652 121.205C172.792 121.111 172.912 120.989 173.002 120.846C173.092 120.703 173.151 120.542 173.176 120.375L173.174 120.373ZM164.347 118.37C166.447 118.728 168.541 119.198 170.599 119.708C169.746 120.271 168.873 120.808 167.999 121.323C166.172 120.367 164.241 119.629 162.243 119.123C162.931 118.858 163.635 118.595 164.343 118.365L164.347 118.37ZM159.402 120.365C159.484 120.581 159.625 120.771 159.808 120.913C159.991 121.055 160.209 121.144 160.44 121.17C162.221 121.429 163.955 121.946 165.588 122.705C163.907 123.625 162.211 124.53 160.548 125.47C158.748 124.477 156.977 123.45 155.263 122.39C156.635 121.7 158.014 121.01 159.401 120.365H159.402ZM154.274 129.651C151.769 128.291 149.188 127.077 146.544 126.016C148.763 125.363 150.922 124.518 152.996 123.491C153.006 123.552 153.025 123.61 153.052 123.666C153.1 123.763 153.148 123.856 153.196 123.944C153.287 124.121 153.427 124.268 153.599 124.369C153.771 124.469 153.968 124.519 154.168 124.512C155.477 125.317 156.811 126.102 158.157 126.867C156.95 127.61 155.773 128.382 154.631 129.247C154.484 129.355 154.362 129.493 154.274 129.652V129.651ZM162.642 134.18C160.551 133.1 158.506 131.975 156.463 130.842C157.787 129.889 159.163 129.022 160.563 128.199C162.58 129.296 164.619 130.361 166.681 131.392C165.332 132.317 163.981 133.232 162.639 134.18H162.642ZM169.888 137.738C168.271 136.978 166.673 136.178 165.088 135.378C166.437 134.443 167.796 133.538 169.151 132.605C170.642 133.33 172.138 134.053 173.639 134.758C172.578 135.423 171.505 136.083 170.432 136.758C170.261 136.857 170.12 137 170.024 137.173C169.928 137.345 169.881 137.541 169.888 137.738ZM177.646 141.201C175.705 140.386 173.811 139.521 171.893 138.643C173.333 137.743 174.773 136.858 176.209 135.965C178.021 136.808 179.83 137.644 181.638 138.475C180.538 139.138 179.413 139.763 178.244 140.315C178.065 140.383 177.912 140.505 177.804 140.663C177.697 140.821 177.641 141.009 177.644 141.2L177.646 141.201ZM184.253 143.86C182.793 143.31 181.337 142.722 179.879 142.127C181.372 141.394 182.821 140.576 184.22 139.677C185.427 140.242 186.645 140.805 187.837 141.362C187.861 141.374 187.888 141.38 187.915 141.38C186.705 142.215 185.462 143.033 184.252 143.86H184.253ZM189.052 139.325C188.209 138.925 187.361 138.525 186.518 138.142C187.943 137.142 189.348 136.097 190.755 135.062C192.258 135.575 193.749 136.059 195.228 136.515C193.363 137.745 191.502 138.973 189.649 140.22C189.654 140.026 189.599 139.836 189.491 139.675C189.384 139.514 189.229 139.39 189.049 139.32L189.052 139.325ZM196.782 135.467C196.814 135.2 196.748 134.931 196.597 134.708C196.445 134.486 196.219 134.327 195.959 134.259C195.038 133.966 194.104 133.626 193.17 133.319C194.87 132.087 196.633 130.944 198.453 129.896C198.617 129.807 198.757 129.678 198.86 129.522C198.963 129.365 199.026 129.186 199.043 129C199.06 128.814 199.031 128.626 198.958 128.453C198.886 128.281 198.772 128.129 198.627 128.011C201.07 128.639 203.527 129.216 206.021 129.636C202.9 131.526 199.837 133.491 196.8 135.469" fill="#5C5147"/>
<path d="M224.367 66.3799C214.092 64.9749 203.745 64.0869 193.441 63.2119C186.764 62.6519 179.461 61.3239 172.447 60.9119C172.196 60.9119 171.947 60.8839 171.713 60.8689C169.999 60.7689 168.296 60.7589 166.633 60.8259C166.403 60.8879 166.201 61.025 166.058 61.2153C165.916 61.4056 165.841 61.6382 165.846 61.8759C165.833 62.4109 165.838 62.9259 165.838 63.4609C167.038 78.3339 166.529 93.6749 166.628 108.596C166.771 108.725 166.942 108.82 167.128 108.874C186.112 113.329 205.516 121.41 225.079 122.747C225.244 122.763 225.41 122.74 225.565 122.68C225.719 122.62 225.857 122.524 225.968 122.4C226.078 122.276 226.157 122.128 226.199 121.968C226.242 121.807 226.245 121.639 226.21 121.477C226.271 121.318 226.294 121.147 226.278 120.977C224.978 103.154 225.62 85.2679 225.078 67.4089C225.075 67.1863 225.005 66.9696 224.878 66.7869C224.751 66.6042 224.571 66.4638 224.364 66.3839" fill="#5C5147"/>
<path d="M123.582 107.83C122.995 107.18 122.682 106.346 122.102 105.684C121.444 104.929 120.802 104.163 120.118 103.431C120.089 103.406 120.059 103.384 120.027 103.363C120 103.32 119.975 103.278 119.946 103.236C119.477 102.541 118.333 103.192 118.808 103.895C118.988 104.159 119.156 104.429 119.325 104.7C119.536 105.093 119.772 105.469 120.016 105.841C120.55 106.757 121.05 107.689 121.556 108.619C121.611 108.707 121.685 108.78 121.774 108.834C121.862 108.887 121.961 108.92 122.064 108.929C122.167 108.938 122.27 108.923 122.367 108.886C122.463 108.848 122.549 108.789 122.619 108.712C122.63 108.724 122.639 108.738 122.649 108.75C123.218 109.379 124.149 108.45 123.583 107.83" fill="#E4D2C6"/>
<path d="M121.442 109.531C121.302 108.704 120.029 109.056 120.169 109.877C120.601 112.397 120.079 114.939 120.037 117.469C120.043 117.639 120.116 117.8 120.239 117.919C120.362 118.037 120.526 118.103 120.696 118.103C120.867 118.103 121.031 118.037 121.154 117.919C121.277 117.8 121.349 117.639 121.356 117.469C121.398 114.806 121.895 112.181 121.442 109.531Z" fill="#E4D2C6"/>
<path d="M124.681 109.181L124.668 109.148C124.668 109.118 124.668 109.088 124.668 109.059C124.669 109.039 124.669 109.019 124.668 108.999C124.668 108.97 124.668 108.942 124.668 108.913C124.675 108.867 124.673 108.821 124.661 108.776C124.649 108.732 124.628 108.69 124.6 108.655C124.594 108.63 124.587 108.605 124.578 108.581C124.568 108.557 124.538 108.54 124.516 108.52C124.555 108.472 124.578 108.413 124.583 108.351C124.587 108.289 124.572 108.227 124.54 108.174C123.168 105.943 121.497 103.911 119.573 102.135C119.538 102.102 119.497 102.077 119.452 102.062C119.407 102.047 119.36 102.042 119.313 102.048C119.266 102.054 119.221 102.071 119.181 102.096C119.141 102.122 119.107 102.156 119.083 102.197C117.534 104.564 115.691 106.725 113.599 108.628C113.554 108.668 113.524 108.722 113.512 108.781C113.501 108.84 113.508 108.901 113.534 108.956C113.514 109.014 113.512 109.077 113.528 109.137C113.543 109.197 113.576 109.251 113.623 109.292C113.621 109.308 113.621 109.324 113.623 109.341C113.691 109.623 113.808 109.892 113.968 110.136C114.002 110.196 114.055 110.242 114.119 110.269C114.183 110.295 114.254 110.3 114.321 110.282C114.75 110.162 115.192 110.095 115.638 110.082H117.266C117.306 110.083 117.347 110.076 117.385 110.06C117.423 110.045 117.457 110.021 117.485 109.991C117.65 112.353 117.135 114.723 117.162 117.091C117.127 117.114 117.099 117.146 117.079 117.182C117.06 117.219 117.049 117.26 117.047 117.301C117.046 117.343 117.054 117.384 117.072 117.422C117.089 117.46 117.115 117.493 117.148 117.519C118.257 118.461 120.106 118.03 121.441 118.119C121.468 118.12 121.495 118.118 121.522 118.111C121.582 118.173 121.663 118.21 121.749 118.214C121.835 118.218 121.92 118.189 121.986 118.134C122.151 118.267 122.43 118.258 122.473 117.998C122.648 115.934 122.705 113.862 122.643 111.792C122.674 111.351 122.665 110.908 122.618 110.469C123.43 110.406 124.226 110.181 124.494 109.529C124.565 109.506 124.625 109.456 124.66 109.39C124.696 109.324 124.704 109.247 124.683 109.175L124.681 109.181ZM120.733 108.853C120.343 108.915 120.498 109.48 120.875 109.453C121.471 112.099 121.492 114.842 120.937 117.497C119.921 117.52 118.598 117.697 117.787 117.204V117.196C117.736 114.372 118.461 111.576 117.987 108.764C117.95 108.547 117.692 108.508 117.528 108.579C116.5 109.036 115.347 109.131 114.259 108.848C116.206 107.047 117.937 105.026 119.417 102.826C121.089 104.432 122.558 106.239 123.789 108.205C122.799 108.546 121.773 108.765 120.731 108.859" fill="#5C5147"/>
<path d="M120.733 108.853C120.343 108.915 120.498 109.48 120.875 109.453C121.471 112.099 121.492 114.842 120.937 117.497C119.921 117.52 118.598 117.697 117.787 117.204V117.196C117.736 114.372 118.461 111.576 117.987 108.764C117.95 108.547 117.692 108.508 117.528 108.579C116.5 109.036 115.347 109.131 114.259 108.848C116.206 107.047 117.937 105.026 119.417 102.826C121.089 104.432 122.558 106.239 123.789 108.205C122.799 108.546 121.773 108.765 120.731 108.859M124.681 109.181L124.668 109.148C124.668 109.118 124.668 109.088 124.668 109.059C124.669 109.039 124.669 109.019 124.668 108.999C124.668 108.97 124.668 108.942 124.668 108.913C124.675 108.867 124.673 108.821 124.661 108.776C124.649 108.732 124.628 108.69 124.6 108.655C124.594 108.63 124.587 108.605 124.578 108.581C124.568 108.557 124.538 108.54 124.516 108.52C124.555 108.472 124.578 108.413 124.583 108.351C124.587 108.289 124.572 108.227 124.54 108.174C123.168 105.943 121.497 103.911 119.573 102.135C119.538 102.102 119.497 102.077 119.452 102.062C119.407 102.047 119.36 102.042 119.313 102.048C119.266 102.054 119.221 102.071 119.181 102.096C119.141 102.122 119.107 102.156 119.083 102.197C117.534 104.564 115.691 106.725 113.599 108.628C113.554 108.668 113.524 108.722 113.512 108.781C113.501 108.84 113.508 108.901 113.534 108.956C113.514 109.014 113.512 109.077 113.528 109.137C113.543 109.197 113.576 109.251 113.623 109.292C113.621 109.308 113.621 109.324 113.623 109.341C113.691 109.623 113.808 109.892 113.968 110.136C114.002 110.196 114.055 110.242 114.119 110.269C114.183 110.295 114.254 110.3 114.321 110.282C114.75 110.162 115.192 110.095 115.638 110.082H117.266C117.306 110.083 117.347 110.076 117.385 110.06C117.423 110.045 117.457 110.021 117.485 109.991C117.65 112.353 117.135 114.723 117.162 117.091C117.127 117.114 117.099 117.146 117.079 117.182C117.06 117.219 117.049 117.26 117.047 117.301C117.046 117.343 117.054 117.384 117.072 117.422C117.089 117.46 117.115 117.493 117.148 117.519C118.257 118.461 120.106 118.03 121.441 118.119C121.468 118.12 121.495 118.118 121.522 118.111C121.582 118.173 121.663 118.21 121.749 118.214C121.835 118.218 121.92 118.189 121.986 118.134C122.151 118.267 122.43 118.258 122.473 117.998C122.648 115.934 122.705 113.862 122.643 111.792C122.674 111.351 122.665 110.908 122.618 110.469C123.43 110.406 124.226 110.181 124.494 109.529C124.565 109.506 124.625 109.456 124.66 109.39C124.696 109.324 124.704 109.247 124.683 109.175L124.681 109.181Z" stroke="#5C5147" stroke-width="0.2"/>
</g>
<path d="M129.906 183.263C130.219 183.575 130.75 183.575 131.062 183.263L140.25 174.075C140.562 173.763 140.562 173.231 140.25 172.919L139.125 171.794C138.812 171.481 138.312 171.481 138 171.794L130.5 179.294L126.969 175.794C126.656 175.481 126.156 175.481 125.844 175.794L124.719 176.919C124.406 177.231 124.406 177.763 124.719 178.075L129.906 183.263Z" fill="#D78100"/>
<path d="M148.222 171.625V172.649H161.326V171.625H148.222ZM148.734 183.353V184.361H160.846V183.353H148.734ZM151.374 173.705V174.617H158.11V173.705H151.374ZM151.374 175.721V176.633H158.11V175.721H151.374ZM147.47 177.785V178.793H162.014V177.785H147.47ZM150.83 180.649V181.641H158.686V180.649H150.83ZM150.654 170.089V178.345H151.854V170.089H150.654ZM157.694 170.089V178.345H158.894V170.089H157.694ZM154.094 179.305V183.913H155.326V179.305H154.094ZM151.502 178.057C150.638 179.465 148.926 180.841 147.31 181.481C147.582 181.705 147.918 182.121 148.094 182.393C149.774 181.609 151.534 180.089 152.51 178.441L151.502 178.057ZM158.046 178.057L157.102 178.425C158.03 179.993 159.726 181.481 161.422 182.201C161.598 181.913 161.95 181.497 162.222 181.273C160.558 180.681 158.894 179.417 158.046 178.057ZM163.774 173.449V174.665H177.742V173.449H163.774ZM166.366 180.585V181.801H175.102V180.585H166.366ZM170.094 170.089V184.793H171.358V170.089H170.094ZM168.942 173.849C167.838 176.873 165.678 179.849 163.342 181.289C163.63 181.529 164.014 181.961 164.222 182.265C166.638 180.585 168.814 177.529 170.03 174.185L168.942 173.849ZM172.478 173.897L171.406 174.217C172.606 177.545 174.766 180.617 177.246 182.217C177.454 181.881 177.87 181.417 178.19 181.177C175.742 179.801 173.566 176.905 172.478 173.897ZM182.798 178.441H190.862V179.529H182.798V178.441ZM182.798 180.313H190.862V181.433H182.798V180.313ZM182.798 176.569H190.862V177.657H182.798V176.569ZM181.63 175.769V182.233H192.062V175.769H181.63ZM188.27 182.985C189.998 183.545 191.726 184.233 192.75 184.745L193.822 184.057C192.686 183.545 190.814 182.841 189.07 182.313L188.27 182.985ZM184.318 182.329C183.166 182.969 181.246 183.529 179.598 183.881C179.87 184.089 180.286 184.553 180.478 184.777C182.078 184.345 184.11 183.609 185.406 182.841L184.318 182.329ZM186.158 171.161V172.105H192.75V171.161H186.158ZM186.414 170.041C186.046 171.193 185.374 172.329 184.542 173.097C184.814 173.241 185.262 173.529 185.454 173.705C186.286 172.889 187.054 171.593 187.486 170.281L186.414 170.041ZM188.318 171.753V172.265C188.318 173.081 187.918 174.185 183.758 174.729C183.966 174.953 184.286 175.369 184.398 175.657C188.91 174.953 189.422 173.513 189.422 172.297V171.753H188.318ZM189.262 172.697L188.414 172.905C189.294 174.329 191.134 175.241 193.438 175.577C193.582 175.273 193.886 174.841 194.126 174.601C191.902 174.409 190.078 173.737 189.262 172.697ZM179.87 171.033V171.977H183.726V171.033H179.87ZM179.518 173.529V174.505H184.126V173.529H179.518ZM192.35 171.161V171.337C192.062 172.025 191.614 172.841 191.246 173.369L192.19 173.705C192.638 173.129 193.15 172.201 193.55 171.385L192.734 171.113L192.558 171.161H192.35ZM198.078 170.089V184.793H199.198V170.089H198.078ZM195.502 175.449V176.585H201.822V175.449H195.502ZM195.614 171.337C196.03 172.457 196.414 173.945 196.478 174.889L197.438 174.665C197.326 173.689 196.958 172.233 196.494 171.113L195.614 171.337ZM200.782 171.049C200.558 172.137 200.078 173.721 199.71 174.681L200.494 174.921C200.926 174.025 201.422 172.521 201.838 171.321L200.782 171.049ZM206.99 170.089V184.793H208.126V170.089H206.99ZM201.79 180.265L201.982 181.385L210.206 179.897L210.014 178.793L201.79 180.265ZM202.99 172.041C203.918 172.617 205.022 173.481 205.534 174.105L206.174 173.177C205.646 172.585 204.542 171.769 203.614 171.225L202.99 172.041ZM202.174 176.073C203.134 176.601 204.286 177.417 204.846 177.993L205.454 177.049C204.878 176.473 203.694 175.721 202.734 175.225L202.174 176.073ZM196.878 177.513C196.622 178.953 195.934 180.729 195.278 181.673C195.502 182.025 195.774 182.601 195.902 183.001C196.734 181.865 197.422 179.593 197.758 177.801L196.878 177.513ZM199.934 177.529L199.262 178.009C199.614 178.713 200.494 180.761 200.766 181.641L201.646 180.729C201.39 180.201 200.238 178.009 199.934 177.529Z" fill="#5B5046"/>
<path d="M129.906 214.263C130.219 214.575 130.75 214.575 131.062 214.263L140.25 205.075C140.562 204.763 140.562 204.231 140.25 203.919L139.125 202.794C138.812 202.481 138.312 202.481 138 202.794L130.5 210.294L126.969 206.794C126.656 206.481 126.156 206.481 125.844 206.794L124.719 207.919C124.406 208.231 124.406 208.763 124.719 209.075L129.906 214.263Z" fill="#D78100"/>
<path d="M157.902 208.353C157.054 209.185 155.438 209.937 153.998 210.369C154.238 210.545 154.526 210.849 154.686 211.073C156.206 210.577 157.854 209.745 158.83 208.721L157.902 208.353ZM159.438 209.889C158.35 211.025 156.254 211.937 154.222 212.401C154.446 212.609 154.686 212.961 154.846 213.185C156.99 212.609 159.134 211.601 160.35 210.273L159.438 209.889ZM160.942 211.633C159.502 213.281 156.558 214.305 153.342 214.769C153.582 215.025 153.854 215.441 153.966 215.729C157.358 215.137 160.382 213.985 161.966 212.081L160.942 211.633ZM155.774 201.073C155.118 202.785 153.95 204.449 152.67 205.521C152.942 205.681 153.39 206.049 153.582 206.241C154.878 205.057 156.11 203.249 156.894 201.345L155.774 201.073ZM155.422 202.817L154.814 203.825H161.934V202.817H155.422ZM159.742 203.041C158.654 205.761 156.03 207.329 152.798 208.161C153.022 208.385 153.374 208.865 153.518 209.105C156.83 208.081 159.582 206.353 160.878 203.313L159.742 203.041ZM155.31 203.441L154.574 204.033C155.63 206.017 158.03 208.113 161.79 208.961C161.934 208.673 162.222 208.225 162.446 208.001C158.702 207.297 156.286 205.361 155.31 203.441ZM151.71 202.977V213.137H152.766V202.977H151.71ZM150.462 201.169C149.694 203.649 148.414 206.113 147.022 207.713C147.23 208.017 147.55 208.657 147.646 208.929C149.246 207.073 150.67 204.257 151.582 201.489L150.462 201.169ZM149.182 205.089V215.793H150.334V204.017L150.302 203.985L149.182 205.089ZM169.246 209.329V210.417H177.886V209.329H169.246ZM174.51 209.953L173.63 210.289C174.51 212.033 176.078 213.953 177.438 214.977C177.63 214.673 178.014 214.273 178.286 214.049C176.91 213.217 175.342 211.505 174.51 209.953ZM170.926 205.345H176.27V207.009H170.926V205.345ZM170.926 202.737H176.27V204.369H170.926V202.737ZM169.838 201.745V208.001H177.406V201.745H169.838ZM172.686 209.873C171.87 211.585 170.27 213.329 168.718 214.161C168.974 214.385 169.342 214.801 169.518 215.073C171.102 214.097 172.718 212.161 173.598 210.209L172.686 209.873ZM173.038 202.257V207.521H172.99V215.793H174.158V207.521H174.094V202.257H173.038ZM164.046 205.921V206.881H168.75V205.921H164.046ZM164.046 208.017V208.977H168.75V208.017H164.046ZM163.39 203.793V204.801H169.262V203.793H163.39ZM164.574 210.161V211.169H167.774V213.825H164.574V214.833H168.846V210.161H164.574ZM164.046 210.161V215.585H165.102V210.161H164.046ZM165.198 201.489C165.646 202.145 166.158 203.057 166.398 203.649L167.374 203.073C167.118 202.513 166.606 201.665 166.126 201.009L165.198 201.489ZM186.222 201.905V203.121H191.902V209.105H193.118V201.905H186.222ZM187.182 207.153V208.321H192.494V207.153H187.182ZM186.574 207.153V213.697C186.574 215.201 187.102 215.569 188.75 215.569C189.102 215.569 191.678 215.569 192.046 215.569C193.598 215.569 193.966 214.897 194.126 212.561C193.774 212.465 193.262 212.257 192.974 212.049C192.878 214.065 192.766 214.449 191.966 214.449C191.422 214.449 189.278 214.449 188.862 214.449C187.982 214.449 187.822 214.321 187.822 213.697V207.153H186.574ZM183.694 207.377C184.158 208.433 184.622 209.809 184.814 210.657L185.806 210.257C185.614 209.441 185.102 208.081 184.622 207.057L183.694 207.377ZM182.11 211.489C182.302 212.625 182.478 214.097 182.526 215.073L183.55 214.833C183.502 213.857 183.31 212.401 183.102 211.281L182.11 211.489ZM180.302 211.377C180.11 212.673 179.822 214.113 179.406 215.089C179.678 215.169 180.19 215.329 180.414 215.457C180.782 214.465 181.134 212.945 181.342 211.569L180.302 211.377ZM179.822 207.073C179.822 206.833 180.574 206.465 180.574 206.465V206.433C181.694 205.137 182.846 203.297 183.742 201.489L182.638 201.009C181.918 202.769 180.718 204.625 180.366 205.089C180.014 205.569 179.726 205.905 179.438 205.969C179.566 206.273 179.758 206.833 179.822 207.073ZM179.822 207.073C180.078 206.945 180.542 206.849 183.214 206.545C183.198 206.305 183.246 205.857 183.31 205.553L180.366 205.809L179.79 206.161L179.822 207.073ZM179.918 210.673C179.918 210.433 180.702 210.065 180.702 210.065V210.033C182.302 208.497 183.934 206.337 185.246 204.161L184.19 203.521C183.086 205.681 181.326 207.937 180.782 208.497C180.27 209.073 179.886 209.473 179.534 209.553C179.662 209.857 179.87 210.433 179.918 210.673ZM179.918 210.673C180.254 210.497 180.798 210.385 184.862 209.745C184.846 209.505 184.862 209.057 184.894 208.753L180.478 209.361L179.87 209.761L179.918 210.673ZM183.95 211.169C184.302 212.161 184.718 213.457 184.878 214.321L185.854 213.969C185.678 213.137 185.262 211.857 184.878 210.865L183.95 211.169ZM196.43 205.153V206.193H200.382V205.153H196.43ZM195.598 207.953V208.993H200.974V207.953H195.598ZM195.758 209.969C195.998 210.913 196.254 212.145 196.334 212.961L197.23 212.721C197.134 211.921 196.878 210.705 196.606 209.777L195.758 209.969ZM195.326 214.161L195.598 215.249C197.134 214.961 199.214 214.545 201.198 214.129L201.134 213.153C198.958 213.553 196.75 213.937 195.326 214.161ZM200.254 209.601C200.142 210.465 199.854 211.761 199.646 212.545L200.334 212.769C200.574 212.017 200.862 210.833 201.102 209.857L200.254 209.601ZM197.982 205.601V214.385L198.99 214.209V205.601H197.982ZM198.27 201.089C197.55 202.641 196.318 204.113 195.086 205.089C195.262 205.361 195.502 205.969 195.566 206.209C196.974 205.041 198.382 203.233 199.23 201.425L198.27 201.089ZM198.062 202.305C199.054 203.249 200.366 204.577 201.006 205.377L201.71 204.561C201.054 203.825 199.71 202.545 198.718 201.633L198.062 202.305ZM208.894 208.753C208.398 209.425 207.518 210.353 206.894 210.897L207.55 211.537C208.206 211.009 209.054 210.193 209.726 209.441L208.894 208.753ZM201.71 209.377C202.334 210.017 203.134 210.929 203.486 211.489L204.334 210.833C203.95 210.289 203.15 209.425 202.51 208.801L201.71 209.377ZM203.502 202.481V203.441H207.886V202.481H203.502ZM202.942 204.945V205.889H207.502V204.945H202.942ZM201.214 207.089V208.161H210.078V207.089H201.214ZM205.086 207.681V214.545C205.086 214.705 205.038 214.753 204.846 214.769C204.654 214.769 204.078 214.785 203.422 214.753C203.582 215.057 203.726 215.505 203.774 215.809C204.67 215.809 205.294 215.777 205.678 215.617C206.094 215.441 206.19 215.137 206.19 214.545V207.681H205.086ZM200.974 213.905L201.63 214.801C202.478 214.161 203.518 213.377 204.462 212.609L204.11 211.729C202.942 212.577 201.774 213.409 200.974 213.905ZM203.47 201.073C203.134 202.593 202.622 204.657 202.19 205.889H203.374C203.742 204.705 204.254 202.737 204.59 201.201L203.47 201.073ZM207.55 202.481V202.641C207.374 203.729 206.942 205.873 206.574 207.425L207.678 207.553C208.046 206.033 208.462 204.017 208.702 202.561L207.87 202.433L207.678 202.481H207.55ZM206.558 212.321C207.55 213.057 208.814 214.113 209.422 214.769L210.11 213.937C209.486 213.313 208.206 212.289 207.214 211.601L206.558 212.321Z" fill="#5B5046"/>
<rect x="2" y="41" width="332" height="192.513" stroke="#F4E7E1" stroke-width="4"/>
<defs>
<clipPath id="clip0_1246_6982">
<rect width="129.353" height="102.513" fill="white" transform="translate(103.323 55)"/>
</clipPath>
</defs>
</svg>
