<svg width="534" height="298" viewBox="0 0 534 298" fill="none" xmlns="http://www.w3.org/2000/svg">
<rect width="534" height="39" fill="#F4E7E1"/>
<path d="M219.72 22.976V24.512H234.232V22.976H219.72ZM222.84 20.24V21.6H229.848V20.24H222.84ZM226.216 22.528V25.584C226.216 25.792 226.152 25.84 225.896 25.84C225.64 25.84 224.68 25.84 223.912 25.808C224.152 26.272 224.424 26.928 224.52 27.424C225.72 27.424 226.6 27.424 227.256 27.184C227.928 26.928 228.104 26.512 228.104 25.648V22.528H226.216ZM229.368 20.24V20.56C228.728 21.168 227.352 22.048 226.216 22.528C226.456 22.752 226.888 23.216 227.08 23.504C228.552 22.896 230.12 22 231.32 21.136L230.232 20.144L229.832 20.24H229.368ZM219.992 18.176V21.472H221.816V19.568H232.136V21.472H234.04V18.176H219.992ZM231.368 12.944C231.304 14.864 231.128 17.296 230.92 18.864H232.76C232.936 17.344 233.096 14.912 233.192 12.944H231.368ZM229.16 12.944V14.144H232.12V12.944H229.16ZM224.152 12.496C223.288 12.784 221.864 13.216 220.904 13.376L221.576 14.432C222.552 14.272 223.944 13.984 224.952 13.6L224.152 12.496ZM221.832 14.688V15.872H224.824V14.688H221.832ZM221.88 16.432V17.616H224.872V16.432H221.88ZM229.256 14.688V15.872H231.96V14.688H229.256ZM229.176 16.432V17.616H231.864V16.432H229.176ZM227.592 12.512C227 13.296 225.928 14.016 224.824 14.496C225.128 14.688 225.608 15.12 225.832 15.344C226.92 14.784 228.12 13.856 228.84 12.864L227.592 12.512ZM225.16 13.36C226.152 13.872 227.384 14.656 227.96 15.216L228.888 14.4C228.248 13.84 227.016 13.088 226.04 12.624L225.16 13.36ZM227.608 15.216C226.984 16.048 225.832 16.816 224.696 17.312C224.968 17.52 225.448 18.016 225.656 18.256C226.824 17.648 228.088 16.656 228.856 15.584L227.608 15.216ZM225.08 16.096C226.136 16.656 227.432 17.52 228.04 18.128L228.984 17.296C228.328 16.688 227 15.872 225.976 15.36L225.08 16.096ZM220.904 13.376L221.224 18.784H223.016L222.728 13.84L220.904 13.376ZM238.312 15.312V17.184H249.448V15.312H238.312ZM237.656 20.032V21.872H248.84V20.032H237.656ZM235.8 25.104V26.976H250.264V25.104H235.8ZM242.024 12.416V26.032H244.024V12.416H242.024ZM238.328 12.608C237.752 14.816 236.728 17.024 235.464 18.368C235.96 18.64 236.808 19.2 237.192 19.536C238.44 18 239.608 15.536 240.312 13.056L238.328 12.608ZM254.6 17.984V19.76H263.304V17.984H254.6ZM254.6 21.408V23.184H263.304V21.408H254.6ZM254.6 24.848V26.624H263.304V24.848H254.6ZM253.288 14.496V27.424H255.24V16.336H262.872V27.392H264.92V14.496H253.288ZM257.832 12.4C257.72 13.232 257.448 14.352 257.192 15.152L258.952 15.472C259.304 14.768 259.768 13.712 260.152 12.64L257.832 12.4ZM274.136 13.328V15.152H281.96V13.328H274.136ZM278.2 18.304V25.168C278.2 25.408 278.104 25.472 277.8 25.488C277.512 25.488 276.456 25.488 275.544 25.44C275.8 26 276.056 26.832 276.12 27.392C277.56 27.392 278.568 27.376 279.256 27.088C279.96 26.784 280.168 26.24 280.168 25.216V18.304H278.2ZM273.448 17.76V19.584H282.376V17.76H273.448ZM269.864 19.648V27.456H271.784V18.064L271.544 17.968L269.864 19.648ZM271.672 15.904C270.616 17.712 268.872 19.568 267.24 20.72C267.624 21.104 268.28 21.968 268.552 22.368C270.264 20.96 272.232 18.72 273.496 16.592L271.672 15.904ZM271.064 12.416C270.28 13.536 268.744 14.976 267.416 15.84C267.736 16.224 268.232 16.976 268.488 17.408C270.008 16.352 271.736 14.688 272.904 13.168L271.064 12.416ZM290.536 17.216V19.152H297.192V17.216H290.536ZM283.688 24.72V26.656H298.312V24.72H283.688ZM289.448 12.608V25.792H291.512V12.608H289.448ZM306.568 18.208H312.04V18.864H306.568V18.208ZM306.568 16.544H312.04V17.2H306.568V16.544ZM304.824 15.504V19.92H313.88V15.504H304.824ZM304.152 20.608L304.312 22.048C306.68 22 310.088 21.904 313.32 21.808L313.368 20.496C310.024 20.56 306.456 20.608 304.152 20.608ZM311.208 20C311.992 20.704 312.92 21.712 313.336 22.352L314.696 21.584C314.248 20.928 313.272 19.968 312.472 19.312L311.208 20ZM308.36 12.544V21.392L310.216 21.2V12.544H308.36ZM303.816 22.576V24.048H314.504V22.576H303.816ZM310.616 21.392V25.632C310.616 25.824 310.536 25.888 310.312 25.888C310.072 25.904 309.256 25.904 308.52 25.872C308.744 26.32 308.968 26.992 309.048 27.472C310.216 27.472 311.064 27.472 311.672 27.216C312.296 26.976 312.472 26.544 312.472 25.68V21.392H310.616ZM305.24 24.544C305.928 25.2 306.76 26.144 307.112 26.752L308.632 25.776C308.216 25.168 307.352 24.288 306.648 23.68L305.24 24.544ZM304.168 13.504V14.896H314.36V13.504H304.168ZM302.792 12.48C301.976 14.768 300.584 17.04 299.128 18.496C299.464 18.96 299.976 20.016 300.152 20.48C301.896 18.656 303.56 15.776 304.6 13.04L302.792 12.48ZM301.24 16.896V27.424H303.08V15.088L303.064 15.072L301.24 16.896Z" fill="#5B5046"/>
<g clip-path="url(#clip0_1205_5088)">
<path d="M309.955 134.406C305.426 139.875 300.48 144.987 295.162 149.694C294.963 149.878 294.791 150.088 294.648 150.319C294.432 150.332 294.216 150.363 294.004 150.412C284.031 152.938 272.704 150.396 262.67 149.186C248.987 147.544 235.298 148.926 222.131 144.003C218.548 142.658 217.015 148.381 220.553 149.703C233.453 154.533 246.707 153.424 260.144 154.814C271.677 156.006 284.092 159.022 295.569 156.114C295.97 156.03 296.345 155.854 296.667 155.602C296.989 155.349 297.248 155.026 297.425 154.657C298.14 154.643 298.824 154.365 299.345 153.876C304.658 149.165 309.604 144.057 314.139 138.594C316.52 135.662 312.357 131.444 309.955 134.407" fill="#E5D2C5"/>
<path d="M295.346 100.607C292.433 87.736 293.434 75.086 292.332 62.064C292.283 61.58 292.123 61.1137 291.866 60.701C291.609 60.2883 291.26 59.9401 290.847 59.6835C290.433 59.4268 289.967 59.2684 289.483 59.2204C288.999 59.1725 288.51 59.2363 288.055 59.407C287.875 59.083 287.613 58.8124 287.295 58.623C287.302 58.2416 287.235 57.8623 287.096 57.507C286.957 57.1516 286.75 56.8272 286.485 56.5522C286.221 56.2772 285.905 56.0571 285.555 55.9046C285.205 55.752 284.829 55.6699 284.448 55.663C271.665 55.207 259.123 55.475 246.693 58.725C246.155 58.8369 245.666 59.1148 245.295 59.5197C244.924 59.9245 244.689 60.4357 244.625 60.981C244.167 61.05 243.701 61.103 243.243 61.181C239.485 61.859 241.082 67.555 244.813 66.891C251.232 65.736 257.768 66.205 264.238 65.517C271.012 64.794 277.818 62.877 284.648 63.928C285.289 64.0367 285.949 63.9375 286.531 63.645C287.18 73.255 286.576 82.876 287.749 92.445C289.057 103.104 293.782 113.49 291.949 124.372C291.327 128.109 297.02 129.706 297.659 125.953C299.116 117.283 297.27 109.073 295.352 100.607" fill="#E5D2C5"/>
<path d="M273.939 87.276C268.707 88.1498 263.365 88.1498 258.133 87.276C256.947 87.061 256.438 88.876 257.633 89.087C263.198 90.0298 268.881 90.0298 274.446 89.087C275.646 88.88 275.128 87.061 273.941 87.276" fill="#5C5147"/>
<path d="M276.707 91.0069C270.534 90.9649 264.356 90.4609 258.259 91.6689C257.067 91.9019 257.57 93.7159 258.759 93.4779C264.678 92.3149 270.708 92.8479 276.703 92.8779C276.946 92.8699 277.177 92.7677 277.346 92.5927C277.515 92.4178 277.61 92.1839 277.61 91.9404C277.61 91.6969 277.515 91.463 277.346 91.288C277.177 91.1131 276.946 91.0108 276.703 91.0029" fill="#5C5147"/>
<path d="M274.196 96.0278C269.376 96.0728 264.583 96.6078 259.763 96.6478C259.519 96.6558 259.287 96.7585 259.117 96.9342C258.947 97.1099 258.852 97.3448 258.852 97.5893C258.852 97.8339 258.947 98.0688 259.117 98.2445C259.287 98.4202 259.519 98.5229 259.763 98.5308C264.583 98.4908 269.376 97.9508 274.196 97.9058C274.446 97.9058 274.684 97.8069 274.86 97.6308C275.037 97.4547 275.135 97.2159 275.135 96.9668C275.135 96.7178 275.037 96.479 274.86 96.3029C274.684 96.1268 274.446 96.0278 274.196 96.0278Z" fill="#5C5147"/>
<path d="M317.319 135.714C317.557 134.522 317.716 133.316 317.796 132.104C317.809 131.959 317.784 131.814 317.724 131.682C317.665 131.549 317.572 131.435 317.456 131.348C317.339 131.262 317.202 131.206 317.059 131.188C316.915 131.169 316.768 131.187 316.633 131.241C316.507 131.187 316.371 131.159 316.233 131.159H312.367C313.467 130.232 314.406 129.475 315.013 129.003C315.132 128.886 315.218 128.738 315.26 128.577C315.302 128.415 315.301 128.245 315.254 128.084C315.197 127.612 315.031 127.159 314.771 126.76C314.511 126.361 314.163 126.027 313.754 125.784C313.558 125.654 313.328 125.585 313.092 125.585C312.857 125.585 312.627 125.654 312.43 125.784C312.316 125.901 312.215 126.02 312.11 126.126C312.08 125.972 312.001 125.832 311.885 125.727C311.769 125.622 311.622 125.556 311.466 125.541C306.861 124.852 302.316 123.767 297.65 123.634C295.738 111.675 296.178 99.554 295.362 87.472C294.681 77.48 289.247 66.318 292.041 56.44C292.086 56.2438 292.068 56.0384 291.989 55.8533C291.91 55.6682 291.774 55.513 291.601 55.4099C291.428 55.3067 291.227 55.2611 291.027 55.2794C290.826 55.2978 290.637 55.3792 290.485 55.512C290.328 55.348 290.113 55.2521 289.885 55.245C280.884 54.7809 271.861 54.9597 262.885 55.78C254.654 56.569 245.449 57.938 238.585 62.896C238.426 63.018 238.303 63.1827 238.232 63.371C238.162 63.5594 238.145 63.7639 238.185 63.961C238.137 64.0792 238.115 64.2065 238.121 64.334C238.685 82.692 241.577 100.861 242.983 119.134C242.931 118.995 242.843 118.872 242.728 118.777C242.613 118.683 242.475 118.62 242.328 118.596C242.181 118.571 242.031 118.585 241.891 118.637C241.751 118.688 241.628 118.776 241.532 118.89C234.339 127.351 225.832 134.69 217.062 141.474C216.103 142.213 217.449 143.542 218.391 142.806C227.154 136.006 235.671 128.68 242.861 120.219C242.942 120.122 243.004 120.012 243.044 119.893C243.452 125.417 243.738 130.936 243.77 136.493C243.767 136.721 243.853 136.942 244.011 137.107C243.896 137.244 243.821 137.411 243.795 137.588C243.77 137.766 243.794 137.947 243.866 138.111C243.938 138.275 244.054 138.416 244.202 138.518C244.35 138.619 244.523 138.677 244.702 138.685C260.941 138.738 278.358 140.721 293.496 133.537C293.605 133.49 293.703 133.419 293.781 133.33C293.86 133.241 293.918 133.136 293.952 133.022C293.985 132.908 293.993 132.788 293.975 132.671C293.957 132.553 293.913 132.442 293.846 132.343C294.085 132.278 294.29 132.126 294.421 131.917C294.552 131.708 294.599 131.457 294.553 131.215C290.662 109.512 288.242 86.942 289.545 64.874C290.13 71.852 292.723 78.955 293.332 85.674C294.563 99.328 293.724 113.03 296.25 126.547C296.025 126.502 295.795 126.462 295.564 126.417C294.627 125.657 293.292 126.986 294.232 127.746C294.651 128.141 295.158 128.428 295.711 128.585C296.265 128.742 296.847 128.763 297.41 128.646C297.553 128.642 297.694 128.607 297.821 128.542C297.949 128.477 298.06 128.384 298.147 128.271C298.234 128.157 298.294 128.026 298.324 127.886C298.353 127.746 298.35 127.601 298.316 127.462C298.184 126.821 298.096 126.188 297.985 125.55C302.357 125.706 306.637 126.715 310.956 127.359H310.961C307.57 131.03 304.499 134.984 301.78 139.178C301.37 139.668 300.954 140.168 300.572 140.685C298.772 143.068 296.184 146.707 296.351 149.949C269.776 149.626 243.606 144.409 217.103 143.082C216.003 143.026 215.914 144.531 216.783 144.882C216.566 148.698 222.347 150.261 225.083 151.055C233.131 153.388 241.762 154.074 250.069 154.808C266.205 156.222 282.579 155.722 298.661 157.508C299.361 157.587 299.606 156.997 299.5 156.451C305.318 151.589 309.9 145.463 314.99 139.857C315.396 139.5 315.765 139.102 316.09 138.671C316.572 138.163 317.035 137.659 317.517 137.164C317.618 137.064 317.693 136.942 317.738 136.807C317.783 136.673 317.797 136.53 317.777 136.39C317.758 136.25 317.706 136.116 317.627 135.999C317.547 135.881 317.441 135.784 317.317 135.715L317.319 135.714ZM245.581 136.808C245.622 136.71 245.644 136.604 245.645 136.498C245.521 112.498 240.823 88.84 240.02 64.882C240.653 65.028 241.291 65.144 241.929 65.274C247.129 88.43 249.344 112.765 249.41 136.498C249.414 136.629 249.44 136.757 249.487 136.879C248.187 136.847 246.876 136.823 245.581 136.808ZM292.735 131.718C292.748 131.765 292.765 131.812 292.785 131.856C292.701 131.87 292.618 131.89 292.536 131.917C279.764 137.984 265.159 137.258 251.194 136.917C251.256 136.785 251.29 136.642 251.294 136.496C251.36 112.676 248.888 88.9173 243.921 65.621C258.229 67.951 273.044 65.87 287.373 64.652C287.477 64.6389 287.578 64.6102 287.673 64.567C286.325 86.902 288.797 109.735 292.736 131.718H292.735ZM282.98 61.518C275.236 61.545 267.497 61.828 259.771 62.002C268.13 61.1269 276.534 60.7569 284.937 60.894C285.095 61.5732 285.176 62.2678 285.178 62.965C284.673 63.018 284.161 63.071 283.647 63.113C283.77 62.9792 283.852 62.813 283.884 62.634C283.915 62.4551 283.894 62.2709 283.824 62.1034C283.754 61.9358 283.637 61.7919 283.488 61.6887C283.338 61.5855 283.162 61.5273 282.98 61.521V61.518ZM280.16 63.433C269.368 64.466 258.386 65.502 247.652 64.26C248.338 64.077 249.032 63.937 249.723 63.783C249.893 63.9444 250.118 64.0337 250.351 64.032C260.295 64.003 270.221 63.545 280.159 63.432L280.16 63.433ZM289.483 63.932C289.374 63.7154 289.182 63.5511 288.952 63.4752C288.721 63.3993 288.47 63.4179 288.252 63.527C288.251 63.417 288.226 63.3086 288.18 63.2089C288.133 63.1092 288.066 63.0205 287.982 62.9486C287.899 62.8768 287.801 62.8235 287.696 62.7922C287.59 62.7609 287.48 62.7523 287.37 62.767C287.256 62.772 287.153 62.786 287.05 62.796C287.008 61.665 286.105 60.889 287.37 60.889C287.616 60.881 287.849 60.7779 288.019 60.6015C288.19 60.425 288.286 60.1891 288.286 59.9435C288.286 59.6979 288.19 59.462 288.019 59.2856C287.849 59.1091 287.616 59.006 287.37 58.998H286.11C272.58 58.998 258.81 59.048 245.71 62.798C245.596 62.8292 245.489 62.8828 245.395 62.9557C245.301 63.0286 245.222 63.1194 245.164 63.2228C245.105 63.3262 245.068 63.4401 245.053 63.5581C245.039 63.676 245.048 63.7956 245.08 63.91C243.88 63.733 242.689 63.526 241.502 63.282C248.197 59.326 256.622 58.267 264.169 57.533C272.72 56.792 281.312 56.6584 289.881 57.133C289.905 57.133 289.923 57.114 289.952 57.114C289.487 59.3568 289.329 61.6526 289.483 63.938V63.932ZM298.897 150.702C303.751 144.645 308.621 138.61 314.379 133.391C314.488 133.294 314.572 133.172 314.623 133.036H315.797C315.76 133.253 315.707 133.452 315.659 133.648C315.523 133.63 315.384 133.648 315.257 133.7C315.129 133.751 315.017 133.835 314.931 133.942C309.797 139.856 305.445 147.102 299.266 152.072C299.076 151.884 298.904 151.678 298.752 151.458C298.898 151.235 298.95 150.963 298.897 150.702ZM256.94 153.447C248.249 152.967 239.593 151.977 231.016 150.484C228.616 150.042 218.948 148.728 218.688 145.06C244.662 146.506 270.331 151.519 296.388 151.837C296.287 152.871 296.325 153.913 296.499 154.937C296.525 155.05 296.576 155.156 296.646 155.247C296.717 155.339 296.807 155.414 296.909 155.467C283.676 154.14 270.202 154.373 256.937 153.452" fill="#5C5147"/>
</g>
<path d="M196.906 183.263C197.219 183.576 197.75 183.576 198.062 183.263L207.25 174.076C207.562 173.763 207.562 173.232 207.25 172.919L206.125 171.794C205.812 171.482 205.312 171.482 205 171.794L197.5 179.294L193.969 175.794C193.656 175.482 193.156 175.482 192.844 175.794L191.719 176.919C191.406 177.232 191.406 177.763 191.719 178.076L196.906 183.263Z" fill="#D78100"/>
<path d="M217.158 175.817V176.937H226.454V175.817H217.158ZM217.158 179.289V180.409H226.454V179.289H217.158ZM217.158 182.793V183.913H226.454V182.793H217.158ZM216.342 172.265V184.809H217.558V173.417H226.134V184.729H227.382V172.265H216.342ZM221.03 170.057C220.87 170.841 220.518 171.961 220.23 172.713L221.302 172.921C221.654 172.233 222.07 171.193 222.422 170.233L221.03 170.057ZM236.598 175.641H243.158V176.649H236.598V175.641ZM236.598 173.913H243.158V174.905H236.598V173.913ZM235.494 173.161V177.417H244.31V173.161H235.494ZM234.71 178.457L234.822 179.433C237.174 179.385 240.582 179.273 243.83 179.177L243.862 178.313C240.518 178.393 236.982 178.457 234.71 178.457ZM241.846 177.577C242.758 178.249 243.83 179.225 244.342 179.865L245.206 179.321C244.678 178.681 243.574 177.737 242.662 177.097L241.846 177.577ZM239.254 170.201V178.905L240.422 178.809V170.201H239.254ZM234.39 180.281V181.257H245.11V180.281H234.39ZM241.686 178.905V183.513C241.686 183.721 241.622 183.785 241.382 183.785C241.11 183.817 240.294 183.817 239.318 183.785C239.462 184.089 239.622 184.505 239.686 184.809C240.918 184.809 241.718 184.825 242.214 184.649C242.71 184.489 242.854 184.185 242.854 183.529V178.905H241.686ZM236.102 181.817C236.854 182.457 237.718 183.385 238.102 183.993L239.046 183.337C238.614 182.745 237.734 181.865 236.982 181.257L236.102 181.817ZM234.838 171.321V172.249H244.95V171.321H234.838ZM233.974 170.137C233.078 172.569 231.574 174.969 229.99 176.521C230.214 176.793 230.55 177.433 230.678 177.705C232.406 175.913 234.054 173.209 235.11 170.489L233.974 170.137ZM232.31 174.265V184.777H233.462V173.145L233.43 173.129L232.31 174.265Z" fill="#5B5046"/>
<path d="M196.906 214.263C197.219 214.576 197.75 214.576 198.062 214.263L207.25 205.076C207.562 204.763 207.562 204.232 207.25 203.919L206.125 202.794C205.812 202.482 205.312 202.482 205 202.794L197.5 210.294L193.969 206.794C193.656 206.482 193.156 206.482 192.844 206.794L191.719 207.919C191.406 208.232 191.406 208.763 191.719 209.076L196.906 214.263Z" fill="#D78100"/>
<path d="M214.742 205.681V206.897H228.806V205.681H214.742ZM222.534 206.161L221.334 206.449C222.534 210.753 224.71 214.129 228.166 215.761C228.374 215.425 228.774 214.913 229.078 214.641C225.75 213.265 223.574 210.033 222.534 206.161ZM221.126 201.089C221.094 204.929 221.222 211.825 214.422 214.785C214.758 215.025 215.142 215.457 215.334 215.777C222.326 212.577 222.358 205.281 222.422 201.089H221.126ZM230.598 211.649V212.657H244.918V211.649H230.598ZM233.574 208.833V209.745H241.142V208.833H233.574ZM237.302 210.945V214.481C237.302 214.705 237.238 214.753 236.982 214.769C236.726 214.769 235.814 214.769 234.838 214.737C234.998 215.041 235.174 215.457 235.238 215.761C236.518 215.761 237.334 215.761 237.83 215.601C238.342 215.425 238.486 215.137 238.486 214.513V210.945H237.302ZM240.838 208.833V209.041C240.086 209.697 238.582 210.497 237.302 210.945C237.478 211.089 237.766 211.393 237.894 211.585C239.334 211.073 240.966 210.241 242.102 209.377L241.382 208.769L241.126 208.833H240.838ZM230.934 206.817V209.745H232.086V207.745H243.414V209.745H244.598V206.817H230.934ZM242.566 201.681C242.486 203.473 242.326 205.873 242.134 207.329H243.286C243.446 205.905 243.606 203.521 243.702 201.681H242.566ZM239.974 201.681V202.513H243.046V201.681H239.974ZM235.014 201.217C234.214 201.457 232.838 201.857 231.91 202.001L232.358 202.705C233.302 202.561 234.63 202.321 235.558 201.953L235.014 201.217ZM232.55 203.393V204.209H235.462V203.393H232.55ZM232.63 205.089V205.921H235.542V205.089H232.63ZM240.054 203.393V204.209H242.918V203.393H240.054ZM239.958 205.089V205.921H242.79V205.089H239.958ZM238.518 201.233C237.878 202.065 236.774 202.849 235.67 203.377C235.878 203.505 236.214 203.809 236.358 203.969C237.446 203.377 238.63 202.449 239.366 201.457L238.518 201.233ZM235.974 201.953C237.046 202.449 238.326 203.233 238.95 203.825L239.574 203.233C238.918 202.657 237.622 201.889 236.566 201.425L235.974 201.953ZM238.55 203.921C237.894 204.817 236.71 205.633 235.574 206.161C235.766 206.305 236.102 206.641 236.23 206.801C237.382 206.193 238.63 205.217 239.398 204.177L238.55 203.921ZM235.926 204.641C237.03 205.185 238.358 206.049 238.982 206.689L239.622 206.081C238.966 205.457 237.622 204.625 236.534 204.113L235.926 204.641ZM231.91 202.001L232.246 207.281H233.382L233.062 202.321L231.91 202.001ZM246.598 210.225V211.249H260.886V210.225H246.598ZM246.854 201.777V202.833H260.63V201.777H246.854ZM257.19 209.281C255.894 213.009 252.742 214.385 246.55 214.753C246.742 215.025 246.95 215.473 247.03 215.809C253.478 215.297 256.902 213.761 258.342 209.617L257.19 209.281ZM248.614 213.137C252.998 213.841 257.094 214.849 259.526 215.777L260.63 214.913C258.006 214.001 253.702 212.977 249.558 212.353L248.614 213.137ZM251.222 202.177V207.761H252.358V202.177H251.222ZM254.95 202.177V207.761H256.086V202.177H254.95ZM248.774 205.185H258.758V207.361H248.774V205.185ZM247.654 204.209V208.353H259.958V204.209H247.654ZM248.614 213.137H250.006C250.87 212.097 252.166 210.305 252.902 208.801L251.702 208.529C250.982 210.049 249.67 211.937 248.614 213.137ZM262.774 203.761V204.929H276.774V203.761H262.774ZM270.23 204.801L269.286 205.089C270.598 209.233 272.966 212.833 276.326 214.465C276.534 214.129 276.918 213.665 277.206 213.409C273.894 212.001 271.43 208.577 270.23 204.801ZM275.046 205.665C274.198 206.833 272.694 208.385 271.606 209.297L272.454 209.953C273.574 209.057 275.03 207.617 276.086 206.401L275.046 205.665ZM271.814 201.937C272.822 202.465 274.102 203.281 274.726 203.857L275.494 202.993C274.822 202.449 273.542 201.681 272.534 201.185L271.814 201.937ZM263.606 206.513C264.63 207.425 265.766 208.705 266.262 209.585L267.238 208.865C266.726 208.001 265.542 206.753 264.534 205.889L263.606 206.513ZM269.094 201.121V214.177C269.094 214.481 268.982 214.561 268.694 214.577C268.374 214.593 267.334 214.593 266.214 214.561C266.406 214.929 266.598 215.489 266.662 215.825C268.07 215.825 269.03 215.809 269.574 215.585C270.102 215.393 270.326 215.025 270.326 214.177V201.121H269.094ZM262.422 213.105L263.19 214.177C265.014 213.121 267.51 211.633 269.782 210.225L269.43 209.217C266.918 210.657 264.118 212.225 262.422 213.105ZM278.614 211.249V212.369H292.87V211.249H278.614ZM279.062 202.961V204.065H292.486V202.961H279.062ZM282.326 205.681V206.705H289.19V205.681H282.326ZM282.326 208.449V209.489H289.19V208.449H282.326ZM281.558 201.105V211.745H282.742V201.105H281.558ZM288.71 201.105V211.745H289.926V201.105H288.71ZM286.918 213.489C288.79 214.177 290.694 215.057 291.83 215.729L292.918 214.945C291.67 214.273 289.638 213.393 287.734 212.721L286.918 213.489ZM283.526 212.625C282.39 213.409 280.182 214.353 278.454 214.849C278.71 215.105 279.078 215.521 279.254 215.761C280.982 215.201 283.158 214.273 284.582 213.393L283.526 212.625ZM303.638 201.105V212.225H304.726V201.105H303.638ZM298.086 207.697L298.534 208.753L308.134 205.009L307.67 203.969L298.086 207.697ZM300.134 202.689V213.425C300.134 215.201 300.694 215.649 302.598 215.649C303.03 215.649 306.374 215.649 306.822 215.649C308.582 215.649 308.966 214.929 309.174 212.705C308.838 212.641 308.358 212.433 308.07 212.241C307.942 214.113 307.782 214.561 306.79 214.561C306.086 214.561 303.174 214.561 302.614 214.561C301.478 214.561 301.27 214.353 301.27 213.441V202.689H300.134ZM298.006 201.137C297.11 203.569 295.622 205.969 294.038 207.521C294.246 207.793 294.598 208.433 294.71 208.705C296.454 206.913 298.086 204.209 299.142 201.489L298.006 201.137ZM296.31 205.265V215.777H297.462V204.145L297.43 204.129L296.31 205.265ZM307.302 204.273C307.302 206.561 307.206 209.649 307.014 211.409L307.99 211.681C308.278 209.793 308.438 206.721 308.486 204.385L308.534 204.177L307.622 203.889L307.126 204.273H307.302ZM313.798 209.441H321.862V210.529H313.798V209.441ZM313.798 211.313H321.862V212.433H313.798V211.313ZM313.798 207.569H321.862V208.657H313.798V207.569ZM312.63 206.769V213.233H323.062V206.769H312.63ZM319.27 213.985C320.998 214.545 322.726 215.233 323.75 215.745L324.822 215.057C323.686 214.545 321.814 213.841 320.07 213.313L319.27 213.985ZM315.318 213.329C314.166 213.969 312.246 214.529 310.598 214.881C310.87 215.089 311.286 215.553 311.478 215.777C313.078 215.345 315.11 214.609 316.406 213.841L315.318 213.329ZM317.158 202.161V203.105H323.75V202.161H317.158ZM317.414 201.041C317.046 202.193 316.374 203.329 315.542 204.097C315.814 204.241 316.262 204.529 316.454 204.705C317.286 203.889 318.054 202.593 318.486 201.281L317.414 201.041ZM319.318 202.753V203.265C319.318 204.081 318.918 205.185 314.758 205.729C314.966 205.953 315.286 206.369 315.398 206.657C319.91 205.953 320.422 204.513 320.422 203.297V202.753H319.318ZM320.262 203.697L319.414 203.905C320.294 205.329 322.134 206.241 324.438 206.577C324.582 206.273 324.886 205.841 325.126 205.601C322.902 205.409 321.078 204.737 320.262 203.697ZM310.87 202.033V202.977H314.726V202.033H310.87ZM310.518 204.529V205.505H315.126V204.529H310.518ZM323.35 202.161V202.337C323.062 203.025 322.614 203.841 322.246 204.369L323.19 204.705C323.638 204.129 324.15 203.201 324.55 202.385L323.734 202.113L323.558 202.161H323.35ZM329.078 201.089V215.793H330.198V201.089H329.078ZM326.502 206.449V207.585H332.822V206.449H326.502ZM326.614 202.337C327.03 203.457 327.414 204.945 327.478 205.889L328.438 205.665C328.326 204.689 327.958 203.233 327.494 202.113L326.614 202.337ZM331.782 202.049C331.558 203.137 331.078 204.721 330.71 205.681L331.494 205.921C331.926 205.025 332.422 203.521 332.838 202.321L331.782 202.049ZM337.99 201.089V215.793H339.126V201.089H337.99ZM332.79 211.265L332.982 212.385L341.206 210.897L341.014 209.793L332.79 211.265ZM333.99 203.041C334.918 203.617 336.022 204.481 336.534 205.105L337.174 204.177C336.646 203.585 335.542 202.769 334.614 202.225L333.99 203.041ZM333.174 207.073C334.134 207.601 335.286 208.417 335.846 208.993L336.454 208.049C335.878 207.473 334.694 206.721 333.734 206.225L333.174 207.073ZM327.878 208.513C327.622 209.953 326.934 211.729 326.278 212.673C326.502 213.025 326.774 213.601 326.902 214.001C327.734 212.865 328.422 210.593 328.758 208.801L327.878 208.513ZM330.934 208.529L330.262 209.009C330.614 209.713 331.494 211.761 331.766 212.641L332.646 211.729C332.39 211.201 331.238 209.009 330.934 208.529Z" fill="#5B5046"/>
<path d="M196.906 245.263C197.219 245.576 197.75 245.576 198.062 245.263L207.25 236.076C207.562 235.763 207.562 235.232 207.25 234.919L206.125 233.794C205.812 233.482 205.312 233.482 205 233.794L197.5 241.294L193.969 237.794C193.656 237.482 193.156 237.482 192.844 237.794L191.719 238.919C191.406 239.232 191.406 239.763 191.719 240.076L196.906 245.263Z" fill="#D78100"/>
<path d="M220.246 240.329V241.417H228.886V240.329H220.246ZM225.51 240.953L224.63 241.289C225.51 243.033 227.078 244.953 228.438 245.977C228.63 245.673 229.014 245.273 229.286 245.049C227.91 244.217 226.342 242.505 225.51 240.953ZM221.926 236.345H227.27V238.009H221.926V236.345ZM221.926 233.737H227.27V235.369H221.926V233.737ZM220.838 232.745V239.001H228.406V232.745H220.838ZM223.686 240.873C222.87 242.585 221.27 244.329 219.718 245.161C219.974 245.385 220.342 245.801 220.518 246.073C222.102 245.097 223.718 243.161 224.598 241.209L223.686 240.873ZM224.038 233.257V238.521H223.99V246.793H225.158V238.521H225.094V233.257H224.038ZM215.046 236.921V237.881H219.75V236.921H215.046ZM215.046 239.017V239.977H219.75V239.017H215.046ZM214.39 234.793V235.801H220.262V234.793H214.39ZM215.574 241.161V242.169H218.774V244.825H215.574V245.833H219.846V241.161H215.574ZM215.046 241.161V246.585H216.102V241.161H215.046ZM216.198 232.489C216.646 233.145 217.158 234.057 217.398 234.649L218.374 234.073C218.118 233.513 217.606 232.665 217.126 232.009L216.198 232.489ZM239.926 239.577V246.041H241.11V239.577H239.926ZM235.926 245.321V246.393H245.03V245.321H235.926ZM236.806 242.137V243.161H244.358V242.137H236.806ZM238.086 233.929H243.014V236.937H238.086V233.929ZM236.966 232.889V237.993H244.182V232.889H236.966ZM243.67 238.569C242.006 239.049 238.966 239.369 236.47 239.513C236.598 239.785 236.726 240.185 236.758 240.457C239.334 240.329 242.47 240.025 244.47 239.465L243.67 238.569ZM233.142 233.401V246.761H234.31V233.401H233.142ZM230.518 236.585V237.721H236.326V236.585H230.518ZM233.206 237.017C232.63 239.001 231.35 241.497 230.198 242.777C230.406 243.049 230.694 243.545 230.806 243.881C232.038 242.393 233.318 239.593 233.958 237.337L233.206 237.017ZM235.558 232.313C234.374 232.857 232.246 233.305 230.422 233.609C230.566 233.881 230.726 234.281 230.79 234.537C232.662 234.281 234.918 233.833 236.406 233.241L235.558 232.313ZM234.262 238.649L233.702 239.129C234.198 239.689 235.398 241.209 235.782 241.865L236.486 240.921C236.166 240.521 234.662 239.001 234.262 238.649ZM246.598 242.649V243.657H260.918V242.649H246.598ZM249.574 239.833V240.745H257.142V239.833H249.574ZM253.302 241.945V245.481C253.302 245.705 253.238 245.753 252.982 245.769C252.726 245.769 251.814 245.769 250.838 245.737C250.998 246.041 251.174 246.457 251.238 246.761C252.518 246.761 253.334 246.761 253.83 246.601C254.342 246.425 254.486 246.137 254.486 245.513V241.945H253.302ZM256.838 239.833V240.041C256.086 240.697 254.582 241.497 253.302 241.945C253.478 242.089 253.766 242.393 253.894 242.585C255.334 242.073 256.966 241.241 258.102 240.377L257.382 239.769L257.126 239.833H256.838ZM246.934 237.817V240.745H248.086V238.745H259.414V240.745H260.598V237.817H246.934ZM258.566 232.681C258.486 234.473 258.326 236.873 258.134 238.329H259.286C259.446 236.905 259.606 234.521 259.702 232.681H258.566ZM255.974 232.681V233.513H259.046V232.681H255.974ZM251.014 232.217C250.214 232.457 248.838 232.857 247.91 233.001L248.358 233.705C249.302 233.561 250.63 233.321 251.558 232.953L251.014 232.217ZM248.55 234.393V235.209H251.462V234.393H248.55ZM248.63 236.089V236.921H251.542V236.089H248.63ZM256.054 234.393V235.209H258.918V234.393H256.054ZM255.958 236.089V236.921H258.79V236.089H255.958ZM254.518 232.233C253.878 233.065 252.774 233.849 251.67 234.377C251.878 234.505 252.214 234.809 252.358 234.969C253.446 234.377 254.63 233.449 255.366 232.457L254.518 232.233ZM251.974 232.953C253.046 233.449 254.326 234.233 254.95 234.825L255.574 234.233C254.918 233.657 253.622 232.889 252.566 232.425L251.974 232.953ZM254.55 234.921C253.894 235.817 252.71 236.633 251.574 237.161C251.766 237.305 252.102 237.641 252.23 237.801C253.382 237.193 254.63 236.217 255.398 235.177L254.55 234.921ZM251.926 235.641C253.03 236.185 254.358 237.049 254.982 237.689L255.622 237.081C254.966 236.457 253.622 235.625 252.534 235.113L251.926 235.641ZM247.91 233.001L248.246 238.281H249.382L249.062 233.321L247.91 233.001ZM264.71 240.185V246.841H265.894V241.145H273.702V246.841H274.934V240.185H264.71ZM265.334 242.681V243.641H274.086V242.681H265.334ZM265.382 245.257V246.217H274.086V245.257H265.382ZM269.094 238.681C268.934 239.209 268.582 240.025 268.278 240.569L269.254 240.825C269.59 240.345 270.006 239.625 270.358 238.921L269.094 238.681ZM262.902 232.905V233.865H268.23V232.905H262.902ZM267.91 232.905V238.201C267.91 238.361 267.862 238.425 267.654 238.425C267.462 238.441 266.822 238.441 266.086 238.425C266.23 238.681 266.374 239.049 266.422 239.321C267.446 239.321 268.086 239.321 268.502 239.161C268.886 239.001 269.014 238.729 269.014 238.201V232.905H267.91ZM270.022 232.905V233.865H275.606V232.905H270.022ZM275.062 232.905V238.201C275.062 238.393 274.998 238.425 274.79 238.441C274.582 238.457 273.878 238.457 273.126 238.425C273.27 238.697 273.414 239.097 273.462 239.369C274.534 239.385 275.222 239.369 275.638 239.209C276.07 239.033 276.182 238.761 276.182 238.201V232.905H275.062ZM269.654 237.625L270.102 238.553C271.334 238.121 272.902 237.513 274.374 236.953L274.198 236.073C272.518 236.665 270.822 237.257 269.654 237.625ZM270.47 234.745C271.238 235.145 272.166 235.785 272.598 236.281L273.254 235.481C272.806 235.001 271.862 234.393 271.094 234.025L270.47 234.745ZM262.518 237.945L262.982 238.937C264.15 238.473 265.606 237.865 267.014 237.289L266.822 236.393C265.222 236.985 263.622 237.593 262.518 237.945ZM263.574 234.729C264.342 235.161 265.238 235.833 265.67 236.313L266.326 235.529C265.894 235.049 264.966 234.425 264.214 234.025L263.574 234.729ZM280.47 238.073V239.193H284.454V238.073H280.47ZM283.974 238.073V238.281C283.926 241.737 283.846 242.937 283.606 243.225C283.494 243.369 283.334 243.385 283.11 243.385C282.838 243.385 282.134 243.385 281.414 243.321C281.59 243.625 281.718 244.089 281.75 244.441C282.534 244.473 283.254 244.489 283.67 244.441C284.118 244.393 284.374 244.281 284.63 243.993C284.966 243.545 285.062 242.201 285.142 238.585C285.142 238.425 285.142 238.073 285.142 238.073H283.974ZM288.486 232.889C289.494 233.417 290.726 234.233 291.334 234.793L292.086 233.977C291.462 233.417 290.198 232.649 289.206 232.137L288.486 232.889ZM290.774 237.225C289.574 241.081 287.318 244.009 284.07 245.737C284.326 245.977 284.774 246.473 284.95 246.713C288.23 244.777 290.614 241.689 291.974 237.513L290.774 237.225ZM280.566 234.793V235.977H292.95V234.793H280.566ZM279.798 234.793V239.289C279.798 241.385 279.654 244.137 278.326 246.105C278.614 246.249 279.126 246.665 279.334 246.905C280.79 244.809 281.046 241.577 281.046 239.305V234.793H279.798ZM286.438 232.105C286.502 239.769 287.942 246.681 291.206 246.681C292.422 246.681 292.87 245.897 293.094 243.161C292.774 243.049 292.326 242.777 292.054 242.505C291.958 244.633 291.75 245.465 291.302 245.465C289.222 245.465 287.654 239.465 287.686 232.105H286.438ZM294.726 240.569V241.689H308.774V240.569H294.726ZM301.11 233.241V246.793H302.374V233.241H301.11ZM300.678 241.049C299.334 242.809 296.694 244.505 294.326 245.289C294.582 245.529 294.966 245.977 295.142 246.265C297.542 245.353 300.198 243.529 301.686 241.481L300.678 241.049ZM302.742 241.001L301.782 241.433C303.318 243.401 306.038 245.273 308.358 246.201C308.55 245.897 308.918 245.433 309.19 245.193C306.854 244.409 304.134 242.713 302.742 241.001ZM297.51 236.505H306.022V238.185H297.51V236.505ZM297.51 233.881H306.022V235.529H297.51V233.881ZM296.278 232.857V239.209H307.302V232.857H296.278Z" fill="#5B5046"/>
<path d="M196.906 276.263C197.219 276.576 197.75 276.576 198.062 276.263L207.25 267.076C207.562 266.763 207.562 266.232 207.25 265.919L206.125 264.794C205.812 264.482 205.312 264.482 205 264.794L197.5 272.294L193.969 268.794C193.656 268.482 193.156 268.482 192.844 268.794L191.719 269.919C191.406 270.232 191.406 270.763 191.719 271.076L196.906 276.263Z" fill="#D78100"/>
<path d="M217.766 266.609C218.966 267.201 220.422 268.145 221.11 268.817L221.958 268.033C221.238 267.361 219.766 266.465 218.566 265.905L217.766 266.609ZM225.158 264.433V264.625C223.414 267.777 218.806 269.937 214.774 270.689C214.998 270.945 215.238 271.441 215.35 271.745C219.574 270.817 224.31 268.577 226.39 264.849L225.606 264.369L225.398 264.433H225.158ZM219.814 264.433V265.441H225.462V264.433H219.814ZM220.998 263.057C219.894 264.401 217.782 265.905 214.902 266.913C215.174 267.121 215.542 267.521 215.718 267.809C218.694 266.625 220.87 265.041 222.342 263.345L220.998 263.057ZM219.814 272.481C221.078 273.169 222.598 274.241 223.318 274.993L224.262 274.225C223.494 273.457 221.958 272.449 220.694 271.793L219.814 272.481ZM227.494 270.033V270.209C225.766 274.241 220.934 276.145 215.99 276.737C216.182 277.009 216.422 277.505 216.502 277.841C221.734 277.073 226.726 275.073 228.742 270.401L227.958 269.969L227.734 270.033H227.494ZM222.294 270.033V271.057H227.814V270.033H222.294ZM223.59 268.529C222.342 270.049 219.91 271.713 216.518 272.769C216.774 272.993 217.126 273.425 217.27 273.697C220.774 272.465 223.302 270.721 224.918 268.833L223.59 268.529ZM239.062 269.537V275.713C239.062 277.105 239.446 277.521 240.902 277.521C241.206 277.521 242.886 277.521 243.206 277.521C244.614 277.521 244.934 276.769 245.062 274.017C244.742 273.921 244.214 273.713 243.942 273.489C243.878 275.953 243.782 276.369 243.126 276.369C242.726 276.369 241.334 276.369 241.046 276.369C240.422 276.369 240.294 276.273 240.294 275.713V269.537H239.062ZM230.694 268.817V269.985H244.822V268.817H230.694ZM232.086 264.321V265.489H243.462V264.321H232.086ZM234.79 269.713C234.55 272.833 234.038 275.489 230.502 276.817C230.774 277.041 231.126 277.473 231.254 277.761C235.078 276.241 235.782 273.297 236.054 269.713H234.79ZM246.598 273.649V274.657H260.918V273.649H246.598ZM249.574 270.833V271.745H257.142V270.833H249.574ZM253.302 272.945V276.481C253.302 276.705 253.238 276.753 252.982 276.769C252.726 276.769 251.814 276.769 250.838 276.737C250.998 277.041 251.174 277.457 251.238 277.761C252.518 277.761 253.334 277.761 253.83 277.601C254.342 277.425 254.486 277.137 254.486 276.513V272.945H253.302ZM256.838 270.833V271.041C256.086 271.697 254.582 272.497 253.302 272.945C253.478 273.089 253.766 273.393 253.894 273.585C255.334 273.073 256.966 272.241 258.102 271.377L257.382 270.769L257.126 270.833H256.838ZM246.934 268.817V271.745H248.086V269.745H259.414V271.745H260.598V268.817H246.934ZM258.566 263.681C258.486 265.473 258.326 267.873 258.134 269.329H259.286C259.446 267.905 259.606 265.521 259.702 263.681H258.566ZM255.974 263.681V264.513H259.046V263.681H255.974ZM251.014 263.217C250.214 263.457 248.838 263.857 247.91 264.001L248.358 264.705C249.302 264.561 250.63 264.321 251.558 263.953L251.014 263.217ZM248.55 265.393V266.209H251.462V265.393H248.55ZM248.63 267.089V267.921H251.542V267.089H248.63ZM256.054 265.393V266.209H258.918V265.393H256.054ZM255.958 267.089V267.921H258.79V267.089H255.958ZM254.518 263.233C253.878 264.065 252.774 264.849 251.67 265.377C251.878 265.505 252.214 265.809 252.358 265.969C253.446 265.377 254.63 264.449 255.366 263.457L254.518 263.233ZM251.974 263.953C253.046 264.449 254.326 265.233 254.95 265.825L255.574 265.233C254.918 264.657 253.622 263.889 252.566 263.425L251.974 263.953ZM254.55 265.921C253.894 266.817 252.71 267.633 251.574 268.161C251.766 268.305 252.102 268.641 252.23 268.801C253.382 268.193 254.63 267.217 255.398 266.177L254.55 265.921ZM251.926 266.641C253.03 267.185 254.358 268.049 254.982 268.689L255.622 268.081C254.966 267.457 253.622 266.625 252.534 266.113L251.926 266.641ZM247.91 264.001L248.246 269.281H249.382L249.062 264.321L247.91 264.001ZM264.71 271.185V277.841H265.894V272.145H273.702V277.841H274.934V271.185H264.71ZM265.334 273.681V274.641H274.086V273.681H265.334ZM265.382 276.257V277.217H274.086V276.257H265.382ZM269.094 269.681C268.934 270.209 268.582 271.025 268.278 271.569L269.254 271.825C269.59 271.345 270.006 270.625 270.358 269.921L269.094 269.681ZM262.902 263.905V264.865H268.23V263.905H262.902ZM267.91 263.905V269.201C267.91 269.361 267.862 269.425 267.654 269.425C267.462 269.441 266.822 269.441 266.086 269.425C266.23 269.681 266.374 270.049 266.422 270.321C267.446 270.321 268.086 270.321 268.502 270.161C268.886 270.001 269.014 269.729 269.014 269.201V263.905H267.91ZM270.022 263.905V264.865H275.606V263.905H270.022ZM275.062 263.905V269.201C275.062 269.393 274.998 269.425 274.79 269.441C274.582 269.457 273.878 269.457 273.126 269.425C273.27 269.697 273.414 270.097 273.462 270.369C274.534 270.385 275.222 270.369 275.638 270.209C276.07 270.033 276.182 269.761 276.182 269.201V263.905H275.062ZM269.654 268.625L270.102 269.553C271.334 269.121 272.902 268.513 274.374 267.953L274.198 267.073C272.518 267.665 270.822 268.257 269.654 268.625ZM270.47 265.745C271.238 266.145 272.166 266.785 272.598 267.281L273.254 266.481C272.806 266.001 271.862 265.393 271.094 265.025L270.47 265.745ZM262.518 268.945L262.982 269.937C264.15 269.473 265.606 268.865 267.014 268.289L266.822 267.393C265.222 267.985 263.622 268.593 262.518 268.945ZM263.574 265.729C264.342 266.161 265.238 266.833 265.67 267.313L266.326 266.529C265.894 266.049 264.966 265.425 264.214 265.025L263.574 265.729ZM279.43 264.497V265.553H292.182V264.497H279.43ZM280.23 266.897V267.889H291.462V266.897H280.23ZM278.79 269.329V270.369H292.678V269.329H278.79ZM285.094 263.073V270.177H286.31V263.073H285.094ZM284.854 269.585C283.446 271.233 280.678 272.849 278.31 273.601C278.582 273.841 278.934 274.273 279.11 274.577C281.494 273.697 284.294 271.953 285.878 270.081L284.854 269.585ZM286.614 269.873L285.542 270.161C286.758 273.617 289.03 276.129 292.406 277.265C292.582 276.929 292.934 276.481 293.206 276.225C289.958 275.281 287.686 272.945 286.614 269.873ZM291.286 270.977C290.454 271.809 289.014 272.897 287.958 273.553L288.726 274.193C289.814 273.553 291.19 272.593 292.278 271.681L291.286 270.977ZM281.782 277.793C282.134 277.537 282.726 277.345 287.206 275.921C287.126 275.665 287.03 275.185 287.014 274.865L282.246 276.289L281.67 276.753L281.782 277.793ZM281.782 277.793C281.782 277.377 283.11 276.673 283.11 276.673V272.193H281.862V275.633C281.862 276.273 281.51 276.561 281.254 276.689C281.446 276.961 281.686 277.489 281.782 277.793ZM294.534 263.905V265.025H300.038V263.905H294.534ZM294.726 268.433V269.553H299.878V268.433H294.726ZM294.23 274.129L294.55 275.297C296.118 274.817 298.262 274.193 300.278 273.585L300.118 272.513C297.958 273.137 295.718 273.761 294.23 274.129ZM301.894 267.361H307.142V268.977H301.894V267.361ZM301.894 269.953H307.142V271.569H301.894V269.953ZM301.894 264.801H307.142V266.401H301.894V264.801ZM300.774 263.777V272.609H308.31V263.777H300.774ZM304.966 272.113V276.193C304.966 277.345 305.238 277.697 306.406 277.697C306.63 277.697 307.718 277.697 307.958 277.697C308.934 277.697 309.238 277.185 309.334 275.201C309.03 275.137 308.55 274.945 308.31 274.753C308.262 276.401 308.198 276.641 307.83 276.641C307.59 276.641 306.758 276.641 306.582 276.641C306.198 276.641 306.118 276.577 306.118 276.177V272.113H304.966ZM302.246 272.353C301.99 274.577 301.334 276.113 298.39 276.913C298.63 277.137 298.95 277.601 299.078 277.905C302.31 276.897 303.126 275.057 303.414 272.353H302.246ZM296.758 264.353V273.969L297.91 273.777V264.353H296.758Z" fill="#5B5046"/>
<rect x="3" y="42" width="528" height="252.513" stroke="#F4E7E1" stroke-width="6"/>
<defs>
<clipPath id="clip0_1205_5088">
<rect width="101.605" height="102.513" fill="white" transform="translate(216.198 55)"/>
</clipPath>
</defs>
</svg>
