<svg width="248" height="68" viewBox="0 0 248 68" fill="none" xmlns="http://www.w3.org/2000/svg">
<path d="M42.288 25.692H46.644V35.736C46.644 42.504 45.564 49.704 37.284 54.276C36.636 53.268 35.124 51.684 34.116 50.964C41.424 47.076 42.288 41.208 42.288 35.664V25.692ZM55.788 20.976H60.18V54.204H55.788V20.976ZM34.476 34.692H67.524V38.832H34.476V34.692ZM50.172 20.616L53.232 24.252C48.408 26.664 41.964 28.5 36.204 29.796C35.988 28.752 35.304 27.168 34.728 26.232C40.344 24.936 46.356 22.848 50.172 20.616ZM70.62 44.196H103.272V47.652H70.62V44.196ZM77.64 38.04H93.408V41.1H77.64V38.04ZM85.236 43.188H89.484V50.208C89.484 52.152 89.088 53.088 87.576 53.664C86.1 54.204 84.12 54.204 81.42 54.204C81.204 53.088 80.592 51.612 80.052 50.568C81.78 50.64 83.94 50.64 84.516 50.64C85.092 50.64 85.236 50.532 85.236 50.064V43.188ZM92.328 38.04H93.372L94.272 37.824L96.72 40.056C94.02 42 90.492 44.016 87.18 45.384C86.748 44.736 85.776 43.692 85.236 43.188C87.792 42.108 90.888 40.128 92.328 38.76V38.04ZM71.232 33.396H102.84V40.812H98.556V36.528H75.336V40.812H71.232V33.396ZM96.828 21.624H100.932C100.716 26.052 100.356 31.524 99.96 34.944H95.82C96.288 31.416 96.684 25.944 96.828 21.624ZM91.86 21.624H98.52V24.324H91.86V21.624ZM80.592 20.616L82.392 23.1C80.124 23.964 76.992 24.612 74.796 24.972L73.284 22.596C75.444 22.236 78.648 21.264 80.592 20.616ZM75.372 25.548H82.104V28.212H75.372V25.548ZM75.48 29.472H82.212V32.136H75.48V29.472ZM92.076 25.548H98.16V28.212H92.076V25.548ZM91.896 29.472H97.944V32.136H91.896V29.472ZM88.332 20.652L91.14 21.444C89.52 23.676 86.82 25.764 84.372 27.024C83.868 26.52 82.788 25.548 82.104 25.116C84.588 24.036 87 22.416 88.332 20.652ZM82.86 22.56L84.84 20.904C87.036 21.948 89.808 23.64 91.248 24.9L89.16 26.736C87.864 25.476 85.092 23.712 82.86 22.56ZM88.368 26.736L91.176 27.564C89.448 29.976 86.604 32.208 83.976 33.576C83.508 33.036 82.428 31.92 81.816 31.452C84.372 30.336 86.964 28.608 88.368 26.736ZM82.68 28.716L84.696 27.06C87 28.212 89.988 30.048 91.464 31.416L89.34 33.288C87.972 31.92 85.056 29.976 82.68 28.716ZM73.284 22.596L77.388 23.64L78.036 34.764H74.004L73.284 22.596ZM115.368 50.136H132.9V53.304H115.368V50.136ZM107.628 30.48H138.516V36.78H134.124V33.72H111.804V36.78H107.628V30.48ZM115.152 35.232H134.016V43.296H115.152V40.2H129.804V38.328H115.152V35.232ZM115.404 44.916H135.96V54.276H131.64V48.084H115.404V44.916ZM111.984 35.232H116.376V54.312H111.984V35.232ZM120.12 28.464L123.972 27.672C124.692 28.752 125.484 30.264 125.736 31.272L121.704 32.136C121.452 31.164 120.768 29.616 120.12 28.464ZM111.264 22.632H122.532V25.908H111.264V22.632ZM126.132 22.632H139.632V25.908H126.132V22.632ZM111.444 20.112L115.26 21.228C113.82 24.72 111.372 28.32 109.068 30.624C108.456 29.868 107.016 28.356 106.188 27.672C108.312 25.8 110.328 22.956 111.444 20.112ZM126.348 20.112L130.272 21.12C129.12 24.036 127.14 26.952 125.124 28.752C124.404 28.032 122.856 26.736 121.92 26.196C123.792 24.684 125.448 22.416 126.348 20.112ZM113.568 27.132L116.124 24.864C117.312 25.8 118.824 27.168 119.58 28.068L116.88 30.552C116.196 29.616 114.72 28.14 113.568 27.132ZM129.264 27.204L132.036 24.936C133.404 25.908 135.24 27.348 136.14 28.392L133.224 30.912C132.432 29.868 130.668 28.32 129.264 27.204ZM152.232 24.72H175.308V28.212H152.232V24.72ZM161.232 26.304L166.2 26.628C165.444 28.572 164.364 30.48 163.608 31.776L160.08 31.236C160.548 29.724 161.016 27.744 161.232 26.304ZM167.496 20.4L171.672 21.552C170.448 23.352 169.26 25.116 168.252 26.304L164.868 25.224C165.804 23.892 166.92 21.876 167.496 20.4ZM155.328 21.876L158.748 20.508C159.54 21.624 160.584 23.172 161.052 24.144L157.488 25.692C157.092 24.684 156.12 23.064 155.328 21.876ZM159.036 37.752V39.732H168.252V37.752H159.036ZM159.036 42.468V44.448H168.252V42.468H159.036ZM159.036 33.072V35.016H168.252V33.072H159.036ZM154.968 30.012H172.5V47.508H154.968V30.012ZM143.412 22.416L146.616 20.436C148.344 22.128 150.36 24.396 151.44 25.836L148.128 28.248C147.156 26.7 145.068 24.18 143.412 22.416ZM142.512 28.824H150.144V32.28H142.512V28.824ZM149.82 44.484C151.764 49.344 155.976 49.92 162.492 49.956C166.344 49.956 172.284 49.704 176.352 49.344C175.776 50.208 175.2 52.152 174.984 53.34C171.24 53.556 166.632 53.664 162.42 53.664C154.068 53.664 149.604 52.548 146.94 45.636L149.82 44.484ZM148.956 37.572H149.964L150.648 37.5L152.736 38.256C151.512 46.212 148.56 51.54 144.348 54.276C143.808 53.448 142.404 51.972 141.612 51.396C145.5 49.056 148.056 44.556 148.956 38.22V37.572ZM143.196 41.496V38.4L144.744 37.572H150.18L150.144 40.92H145.392C144.528 40.92 143.484 41.172 143.196 41.496ZM143.196 41.496C142.944 40.596 142.188 38.76 141.792 37.968C142.404 37.824 142.98 37.572 143.664 36.816C144.744 35.808 147.984 31.2 149.208 29.22V29.112L150.324 28.644L152.952 29.832C151.26 32.316 148.128 36.78 146.076 39.12C146.076 39.12 143.196 40.524 143.196 41.496ZM182.112 29.688H192.084V32.856H182.112V29.688ZM182.112 35.592H192.084V38.652H182.112V35.592ZM182.112 41.604H192.084V44.808H182.112V41.604ZM197.7 37.536H211.272V41.172H197.7V37.536ZM183.876 23.784H189.564V27.024H183.876V23.784ZM195 22.272H208.356V25.8H195V22.272ZM195 44.412H211.956V48.156H195V44.412ZM201.732 34.296H205.836V54.132H201.732V34.296ZM186 31.344H188.88V42.792H186V31.344ZM207.204 22.272H211.056C211.056 22.272 211.02 23.172 210.984 23.64C210.804 29.436 210.48 31.92 209.688 32.856C209.112 33.612 208.428 33.9 207.492 34.044C206.7 34.152 205.296 34.188 203.856 34.116C203.784 33.036 203.424 31.596 202.884 30.66C204.036 30.768 204.972 30.804 205.44 30.804C205.908 30.804 206.196 30.732 206.448 30.408C206.844 29.94 207.06 27.996 207.204 22.776V22.272ZM196.98 34.548L200.508 35.232C199.86 38.544 198.672 41.856 197.268 43.98C196.548 43.476 194.964 42.684 194.1 42.288C195.504 40.38 196.476 37.428 196.98 34.548ZM183.012 20.4L186.864 21.228C185.568 26.196 183.336 31.056 180.744 34.116C180.096 33.432 178.548 32.136 177.684 31.56C180.132 28.896 182.04 24.684 183.012 20.4ZM180.528 29.688H183.984V39.228C183.984 43.836 183.516 50.244 180.888 54.312C180.24 53.736 178.692 52.764 177.864 52.404C180.312 48.66 180.528 43.296 180.528 39.228V29.688ZM190.932 29.688H194.46V50.1C194.46 51.792 194.136 52.872 193.056 53.52C191.94 54.132 190.464 54.204 188.268 54.204C188.124 53.196 187.548 51.54 187.044 50.568C188.448 50.64 189.888 50.64 190.32 50.604C190.752 50.604 190.932 50.46 190.932 50.028V29.688ZM199.32 23.46H203.172C202.74 28.716 201.516 32.748 196.152 35.124C195.72 34.224 194.748 32.82 193.884 32.172C198.204 30.408 198.96 27.348 199.32 23.46ZM188.556 23.784H189.384L189.924 23.604L192.372 25.152C191.58 27.42 190.176 30.264 189.06 32.064C188.376 31.56 187.188 30.84 186.432 30.444C187.224 28.788 188.124 26.124 188.556 24.432V23.784ZM232.188 32.604H247.848V36.672H232.188V32.604ZM242.304 20.796L245.94 24.216C241.8 25.944 236.292 27.204 231.54 27.96C231.324 26.952 230.676 25.332 230.136 24.432C234.564 23.568 239.352 22.236 242.304 20.796ZM238.956 33.864H243.24V54.204H238.956V33.864ZM214.728 27.852H228.66V31.956H214.728V27.852ZM219.552 20.436H223.692V54.24H219.552V20.436ZM219.408 30.624L221.928 31.524C220.812 37.32 218.508 44.304 215.736 48.012C215.34 46.824 214.368 45.06 213.684 43.98C216.204 40.848 218.472 35.232 219.408 30.624ZM223.26 32.748C224.196 33.828 227.724 38.616 228.48 39.732L225.996 43.116C224.988 40.848 222.504 36.564 221.28 34.692L223.26 32.748ZM230.136 24.432H234.204V35.088C234.204 40.776 233.628 48.984 230.1 54.132C229.344 53.484 227.544 52.368 226.536 52.008C229.848 47.184 230.136 40.2 230.136 35.088V24.432Z" fill="white"/>
<path d="M33 65C16.5 65 3 51.5 3 35C3 18.5 16.5 5 33 5C38.5 5 43.6 6.5 48 9L49.5 6.4C44.6 3.6 39 2 33 2C14.8 2 0 16.8 0 35C0 53.2 14.8 68 33 68C39 68 44.6 66.4 49.5 63.6L48 61C43.6 63.5 38.5 65 33 65Z" fill="#FEC22E"/>
<path d="M59.092 9V0.12H64.54V1.596H60.868V3.648H63.976V5.148H60.868V7.512H64.672V9H59.092ZM65.5508 9L68.0468 4.428L65.6948 0.12H67.6628L68.5508 1.956C68.7668 2.376 68.9588 2.808 69.2228 3.36H69.2708C69.4868 2.808 69.6668 2.376 69.8588 1.956L70.6988 0.12H72.5708L70.2308 4.512L72.7388 9H70.7708L69.7748 7.032C69.5468 6.576 69.3308 6.12 69.0668 5.568H69.0188C68.8028 6.12 68.5868 6.576 68.3828 7.032L67.4348 9H65.5508ZM72.7293 9L75.5733 0.12H77.6613L80.5053 9H78.6453L77.3733 4.38C77.1093 3.456 76.8573 2.424 76.6053 1.476H76.5573C76.3173 2.436 76.0653 3.456 75.8013 4.38L74.5293 9H72.7293ZM74.4933 6.72V5.352H78.7173V6.72H74.4933ZM81.5568 9V0.12H83.5128L85.0248 4.284C85.2288 4.836 85.3848 5.412 85.5768 5.988H85.6248C85.8288 5.412 85.9848 4.836 86.1648 4.284L87.6408 0.12H89.6088V9H87.9888V5.292C87.9888 4.452 88.1328 3.216 88.2288 2.376H88.1688L87.4368 4.464L86.0688 8.208H85.0488L83.6808 4.464L82.9608 2.376H82.9128C83.0088 3.216 83.1408 4.452 83.1408 5.292V9H81.5568Z" fill="#FEC22E"/>
</svg>
