<svg width="624" height="351" viewBox="0 0 624 351" fill="none" xmlns="http://www.w3.org/2000/svg">
<line x1="44" y1="270.5" x2="624" y2="270.5" stroke="#DEE2E6"/>
<line x1="44" y1="190.5" x2="624" y2="190.5" stroke="#DEE2E6"/>
<line x1="44" y1="110.5" x2="624" y2="110.5" stroke="#DEE2E6"/>
<line x1="44" y1="30.5" x2="624" y2="30.5" stroke="#DEE2E6"/>
<path d="M97 266.5L180 250.5L263 227L346 181L428.5 112L511.5 81L594.5 40" stroke="#FFEEC2" stroke-width="4"/>
<path d="M66 271C66 269.895 66.8954 269 68 269H84C85.1046 269 86 269.895 86 271H66Z" fill="#5FB6B3"/>
<path d="M86 269C86 265.686 88.6863 263 92 263H100C103.314 263 106 265.686 106 269V271H86V269Z" fill="#F29001"/>
<path d="M149 271C149 269.343 150.343 268 152 268H166C167.657 268 169 269.343 169 271H149Z" fill="#5FB6B3"/>
<path d="M169 253C169 249.686 171.686 247 175 247H183C186.314 247 189 249.686 189 253V271H169V253Z" fill="#F29001"/>
<path d="M232 271C232 268.791 233.791 267 236 267H248C250.209 267 252 268.791 252 271H232Z" fill="#5FB6B3"/>
<path d="M252 230C252 226.686 254.686 224 258 224H266C269.314 224 272 226.686 272 230V271H252V230Z" fill="#F29001"/>
<path d="M315 271C315 268.239 317.239 266 320 266H330C332.761 266 335 268.239 335 271H315Z" fill="#5FB6B3"/>
<path d="M335 185C335 181.686 337.686 179 341 179H349C352.314 179 355 181.686 355 185V271H335V185Z" fill="#F29001"/>
<path d="M398 271C398 267.686 400.686 265 404 265H412C415.314 265 418 267.686 418 271H398Z" fill="#5FB6B3"/>
<path d="M418 115C418 111.686 420.686 109 424 109H432C435.314 109 438 111.686 438 115V271H418V115Z" fill="#F29001"/>
<path d="M481 270C481 266.686 483.686 264 487 264H495C498.314 264 501 266.686 501 270V271H481V270Z" fill="#5FB6B3"/>
<path d="M501 84C501 80.6863 503.686 78 507 78H515C518.314 78 521 80.6863 521 84V271H501V84Z" fill="#F29001"/>
<path d="M564 269C564 265.686 566.686 263 570 263H578C581.314 263 584 265.686 584 269V271H564V269Z" fill="#5FB6B3"/>
<path d="M584 43C584 39.6863 586.686 37 590 37H598C601.314 37 604 39.6863 604 43V271H584V43Z" fill="#F29001"/>
<path d="M35.0196 280.252C37.5036 280.252 39.1056 277.966 39.1056 273.358C39.1056 268.786 37.5036 266.572 35.0196 266.572C32.4996 266.572 30.8976 268.786 30.8976 273.358C30.8976 277.966 32.4996 280.252 35.0196 280.252ZM35.0196 278.92C33.5076 278.92 32.4816 277.246 32.4816 273.358C32.4816 269.524 33.5076 267.886 35.0196 267.886C36.5136 267.886 37.5216 269.524 37.5216 273.358C37.5216 277.246 36.5136 278.92 35.0196 278.92Z" fill="#ADB5BD"/>
<path d="M14.7449 200.252C16.9589 200.252 19.0649 198.596 19.0649 195.716C19.0649 192.8 17.2829 191.504 15.0869 191.504C14.2949 191.504 13.7009 191.702 13.1069 192.026L13.4489 188.21H18.4349V186.806H12.0089L11.5949 192.98L12.4769 193.538C13.2329 193.034 13.7909 192.746 14.6729 192.746C16.3109 192.746 17.3909 193.88 17.3909 195.77C17.3909 197.678 16.1489 198.884 14.5829 198.884C13.0709 198.884 12.0989 198.182 11.3609 197.408L10.5329 198.488C11.4329 199.388 12.6929 200.252 14.7449 200.252ZM25.0353 200.252C27.5193 200.252 29.1212 197.966 29.1212 193.358C29.1212 188.786 27.5193 186.572 25.0353 186.572C22.5153 186.572 20.9133 188.786 20.9133 193.358C20.9133 197.966 22.5153 200.252 25.0353 200.252ZM25.0353 198.92C23.5233 198.92 22.4973 197.246 22.4973 193.358C22.4973 189.524 23.5233 187.886 25.0353 187.886C26.5293 187.886 27.5373 189.524 27.5373 193.358C27.5373 197.246 26.5293 198.92 25.0353 198.92ZM35.0196 200.252C37.5036 200.252 39.1056 197.966 39.1056 193.358C39.1056 188.786 37.5036 186.572 35.0196 186.572C32.4996 186.572 30.8976 188.786 30.8976 193.358C30.8976 197.966 32.4996 200.252 35.0196 200.252ZM35.0196 198.92C33.5076 198.92 32.4816 197.246 32.4816 193.358C32.4816 189.524 33.5076 187.886 35.0196 187.886C36.5136 187.886 37.5216 189.524 37.5216 193.358C37.5216 197.246 36.5136 198.92 35.0196 198.92Z" fill="#ADB5BD"/>
<path d="M62.6074 296H69.8434V294.632H67.1794V282.806H65.9194C65.2174 283.238 64.3714 283.544 63.1834 283.742V284.804H65.5414V294.632H62.6074V296ZM76.0118 296.252C78.4958 296.252 80.0978 293.966 80.0978 289.358C80.0978 284.786 78.4958 282.572 76.0118 282.572C73.4918 282.572 71.8898 284.786 71.8898 289.358C71.8898 293.966 73.4918 296.252 76.0118 296.252ZM76.0118 294.92C74.4998 294.92 73.4738 293.246 73.4738 289.358C73.4738 285.524 74.4998 283.886 76.0118 283.886C77.5058 283.886 78.5138 285.524 78.5138 289.358C78.5138 293.246 77.5058 294.92 76.0118 294.92ZM87.0942 296H88.6422V282.806H86.8242L81.3342 291.284V292.364H90.4062V291.068H83.0622L86.0682 286.568C86.4282 285.92 86.7882 285.254 87.1122 284.606H87.2022C87.1482 285.29 87.0942 286.352 87.0942 287.018V296ZM95.9626 280.826C95.0806 283.256 93.5866 285.596 91.8766 287.09C92.2186 287.27 92.7766 287.72 93.0466 287.954C94.7206 286.334 96.3226 283.832 97.3126 281.168L95.9626 280.826ZM95.6746 283.058L95.0266 284.372H107.285V283.058H95.6746ZM94.7926 287.144V292.67H96.1426V288.404H106.889V287.144H94.7926ZM91.8226 291.986V293.3H108.131V291.986H91.8226ZM100.193 283.742V297.458H101.579V283.742H100.193Z" fill="#ADB5BD"/>
<path d="M67.5996 261H74.8356V259.632H72.1716V247.806H70.9116C70.2096 248.238 69.3636 248.544 68.1756 248.742V249.804H70.5336V259.632H67.5996V261ZM76.792 261H85.072V259.596H81.418C80.752 259.596 79.96 259.65 79.258 259.722C82.372 256.788 84.442 254.106 84.442 251.46C84.442 249.102 82.966 247.572 80.608 247.572C78.934 247.572 77.782 248.346 76.702 249.516L77.656 250.434C78.394 249.57 79.33 248.904 80.41 248.904C82.048 248.904 82.822 250.02 82.822 251.532C82.822 253.782 80.932 256.428 76.792 260.046V261Z" fill="#3A7E7C"/>
<path d="M90.7136 249.252C92.9276 249.252 95.0336 247.596 95.0336 244.716C95.0336 241.8 93.2516 240.504 91.0556 240.504C90.2636 240.504 89.6696 240.702 89.0756 241.026L89.4176 237.21H94.4036V235.806H87.9776L87.5636 241.98L88.4456 242.538C89.2016 242.034 89.7596 241.746 90.6416 241.746C92.2796 241.746 93.3596 242.88 93.3596 244.77C93.3596 246.678 92.1176 247.884 90.5516 247.884C89.0396 247.884 88.0676 247.182 87.3296 246.408L86.5016 247.488C87.4016 248.388 88.6616 249.252 90.7136 249.252ZM100.734 249.252C103.092 249.252 104.982 247.83 104.982 245.49C104.982 243.672 103.722 242.502 102.174 242.124V242.052C103.578 241.548 104.514 240.486 104.514 238.884C104.514 236.778 102.894 235.572 100.68 235.572C99.168 235.572 97.998 236.238 97.008 237.138L97.89 238.2C98.628 237.444 99.564 236.904 100.626 236.904C101.994 236.904 102.84 237.732 102.84 238.992C102.84 240.432 101.922 241.512 99.204 241.512V242.79C102.246 242.79 103.308 243.834 103.308 245.418C103.308 246.93 102.192 247.884 100.626 247.884C99.114 247.884 98.124 247.164 97.35 246.354L96.522 247.434C97.386 248.388 98.664 249.252 100.734 249.252Z" fill="#D78100"/>
<path d="M149.808 261H158.088V259.596H154.434C153.768 259.596 152.976 259.65 152.274 259.722C155.388 256.788 157.458 254.106 157.458 251.46C157.458 249.102 155.982 247.572 153.624 247.572C151.95 247.572 150.798 248.346 149.718 249.516L150.672 250.434C151.41 249.57 152.346 248.904 153.426 248.904C155.064 248.904 155.838 250.02 155.838 251.532C155.838 253.782 153.948 256.428 149.808 260.046V261ZM160.584 261H167.82V259.632H165.156V247.806H163.896C163.194 248.238 162.348 248.544 161.16 248.742V249.804H163.518V259.632H160.584V261Z" fill="#3A7E7C"/>
<path d="M165.607 234H172.843V232.632H170.179V220.806H168.919C168.217 221.238 167.371 221.544 166.183 221.742V222.804H168.541V232.632H165.607V234ZM178.706 234.252C180.92 234.252 183.026 232.596 183.026 229.716C183.026 226.8 181.244 225.504 179.048 225.504C178.256 225.504 177.662 225.702 177.068 226.026L177.41 222.21H182.396V220.806H175.97L175.556 226.98L176.438 227.538C177.194 227.034 177.752 226.746 178.634 226.746C180.272 226.746 181.352 227.88 181.352 229.77C181.352 231.678 180.11 232.884 178.544 232.884C177.032 232.884 176.06 232.182 175.322 231.408L174.494 232.488C175.394 233.388 176.654 234.252 178.706 234.252ZM185.576 234H192.812V232.632H190.148V220.806H188.888C188.186 221.238 187.34 221.544 186.152 221.742V222.804H188.51V232.632H185.576V234Z" fill="#D78100"/>
<path d="M236.75 261.252C239.108 261.252 240.998 259.83 240.998 257.49C240.998 255.672 239.738 254.502 238.19 254.124V254.052C239.594 253.548 240.53 252.486 240.53 250.884C240.53 248.778 238.91 247.572 236.696 247.572C235.184 247.572 234.014 248.238 233.024 249.138L233.906 250.2C234.644 249.444 235.58 248.904 236.642 248.904C238.01 248.904 238.856 249.732 238.856 250.992C238.856 252.432 237.938 253.512 235.22 253.512V254.79C238.262 254.79 239.324 255.834 239.324 257.418C239.324 258.93 238.208 259.884 236.642 259.884C235.13 259.884 234.14 259.164 233.366 258.354L232.538 259.434C233.402 260.388 234.68 261.252 236.75 261.252ZM247.004 261.252C249.488 261.252 251.09 258.966 251.09 254.358C251.09 249.786 249.488 247.572 247.004 247.572C244.484 247.572 242.882 249.786 242.882 254.358C242.882 258.966 244.484 261.252 247.004 261.252ZM247.004 259.92C245.492 259.92 244.466 258.246 244.466 254.358C244.466 250.524 245.492 248.886 247.004 248.886C248.498 248.886 249.506 250.524 249.506 254.358C249.506 258.246 248.498 259.92 247.004 259.92Z" fill="#3A7E7C"/>
<path d="M247.815 214H256.095V212.596H252.441C251.775 212.596 250.983 212.65 250.281 212.722C253.395 209.788 255.465 207.106 255.465 204.46C255.465 202.102 253.989 200.572 251.631 200.572C249.957 200.572 248.805 201.346 247.725 202.516L248.679 203.434C249.417 202.57 250.353 201.904 251.433 201.904C253.071 201.904 253.845 203.02 253.845 204.532C253.845 206.782 251.955 209.428 247.815 213.046V214ZM261.22 214.252C263.704 214.252 266.008 212.2 266.008 206.836C266.008 202.642 264.118 200.572 261.58 200.572C259.528 200.572 257.8 202.3 257.8 204.856C257.8 207.592 259.222 208.996 261.436 208.996C262.57 208.996 263.74 208.312 264.568 207.268L264.478 205.954C263.614 207.268 262.588 207.79 261.706 207.79C260.14 207.79 259.348 206.62 259.348 204.856C259.348 203.038 260.32 201.85 261.58 201.85C263.434 201.85 264.46 203.596 264.46 206.836C264.46 211.354 262.93 212.884 261.166 212.884C260.32 212.884 259.51 212.506 258.952 211.858L258.034 212.902C258.772 213.676 259.78 214.252 261.22 214.252ZM267.784 214H276.064V212.596H272.41C271.744 212.596 270.952 212.65 270.25 212.722C273.364 209.788 275.434 207.106 275.434 204.46C275.434 202.102 273.958 200.572 271.6 200.572C269.926 200.572 268.774 201.346 267.694 202.516L268.648 203.434C269.386 202.57 270.322 201.904 271.402 201.904C273.04 201.904 273.814 203.02 273.814 204.532C273.814 206.782 271.924 209.428 267.784 213.046V214Z" fill="#D78100"/>
<path d="M319.75 261.252C322.108 261.252 323.998 259.83 323.998 257.49C323.998 255.672 322.738 254.502 321.19 254.124V254.052C322.594 253.548 323.53 252.486 323.53 250.884C323.53 248.778 321.91 247.572 319.696 247.572C318.184 247.572 317.014 248.238 316.024 249.138L316.906 250.2C317.644 249.444 318.58 248.904 319.642 248.904C321.01 248.904 321.856 249.732 321.856 250.992C321.856 252.432 320.938 253.512 318.22 253.512V254.79C321.262 254.79 322.324 255.834 322.324 257.418C322.324 258.93 321.208 259.884 319.642 259.884C318.13 259.884 317.14 259.164 316.366 258.354L315.538 259.434C316.402 260.388 317.68 261.252 319.75 261.252ZM331.102 261H332.65V247.806H330.832L325.342 256.284V257.364H334.414V256.068H327.07L330.076 251.568C330.436 250.92 330.796 250.254 331.12 249.606H331.21C331.156 250.29 331.102 251.352 331.102 252.018V261Z" fill="#3A7E7C"/>
<path d="M334.721 169.252C336.935 169.252 339.041 167.596 339.041 164.716C339.041 161.8 337.259 160.504 335.063 160.504C334.271 160.504 333.677 160.702 333.083 161.026L333.425 157.21H338.411V155.806H331.985L331.571 161.98L332.453 162.538C333.209 162.034 333.767 161.746 334.649 161.746C336.287 161.746 337.367 162.88 337.367 164.77C337.367 166.678 336.125 167.884 334.559 167.884C333.047 167.884 332.075 167.182 331.337 166.408L330.509 167.488C331.409 168.388 332.669 169.252 334.721 169.252ZM344.706 169.252C346.92 169.252 349.026 167.596 349.026 164.716C349.026 161.8 347.244 160.504 345.048 160.504C344.256 160.504 343.662 160.702 343.068 161.026L343.41 157.21H348.396V155.806H341.97L341.556 161.98L342.438 162.538C343.194 162.034 343.752 161.746 344.634 161.746C346.272 161.746 347.352 162.88 347.352 164.77C347.352 166.678 346.11 167.884 344.544 167.884C343.032 167.884 342.06 167.182 341.322 166.408L340.494 167.488C341.394 168.388 342.654 169.252 344.706 169.252ZM354.69 169.252C356.904 169.252 359.01 167.596 359.01 164.716C359.01 161.8 357.228 160.504 355.032 160.504C354.24 160.504 353.646 160.702 353.052 161.026L353.394 157.21H358.38V155.806H351.954L351.54 161.98L352.422 162.538C353.178 162.034 353.736 161.746 354.618 161.746C356.256 161.746 357.336 162.88 357.336 164.77C357.336 166.678 356.094 167.884 354.528 167.884C353.016 167.884 352.044 167.182 351.306 166.408L350.478 167.488C351.378 168.388 352.638 169.252 354.69 169.252Z" fill="#D78100"/>
<path d="M404.118 261H405.666V247.806H403.848L398.358 256.284V257.364H407.43V256.068H400.086L403.092 251.568C403.452 250.92 403.812 250.254 404.136 249.606H404.226C404.172 250.29 404.118 251.352 404.118 252.018V261ZM414.102 261H415.65V247.806H413.832L408.342 256.284V257.364H417.414V256.068H410.07L413.076 251.568C413.436 250.92 413.796 250.254 414.12 249.606H414.21C414.156 250.29 414.102 251.352 414.102 252.018V261Z" fill="#3A7E7C"/>
<path d="M409.615 99H416.851V97.632H414.187V85.806H412.927C412.225 86.238 411.379 86.544 410.191 86.742V87.804H412.549V97.632H409.615V99ZM423.02 99.252C425.504 99.252 427.106 96.966 427.106 92.358C427.106 87.786 425.504 85.572 423.02 85.572C420.5 85.572 418.898 87.786 418.898 92.358C418.898 96.966 420.5 99.252 423.02 99.252ZM423.02 97.92C421.508 97.92 420.482 96.246 420.482 92.358C420.482 88.524 421.508 86.886 423.02 86.886C424.514 86.886 425.522 88.524 425.522 92.358C425.522 96.246 424.514 97.92 423.02 97.92ZM429.584 99H436.82V97.632H434.156V85.806H432.896C432.194 86.238 431.348 86.544 430.16 86.742V87.804H432.518V97.632H429.584V99ZM444.086 99H445.634V85.806H443.816L438.326 94.284V95.364H447.398V94.068H440.054L443.06 89.568C443.42 88.92 443.78 88.254 444.104 87.606H444.194C444.14 88.29 444.086 89.352 444.086 90.018V99Z" fill="#D78100"/>
<path d="M487.118 261H488.666V247.806H486.848L481.358 256.284V257.364H490.43V256.068H483.086L486.092 251.568C486.452 250.92 486.812 250.254 487.136 249.606H487.226C487.172 250.29 487.118 251.352 487.118 252.018V261ZM494.546 261H496.256C496.472 255.852 497.03 252.774 500.126 248.796V247.806H491.882V249.21H498.272C495.68 252.81 494.78 256.014 494.546 261Z" fill="#3A7E7C"/>
<path d="M492.615 68H499.851V66.632H497.187V54.806H495.927C495.225 55.238 494.379 55.544 493.191 55.742V56.804H495.549V66.632H492.615V68ZM501.808 68H510.088V66.596H506.434C505.768 66.596 504.976 66.65 504.274 66.722C507.388 63.788 509.458 61.106 509.458 58.46C509.458 56.102 507.982 54.572 505.624 54.572C503.95 54.572 502.798 55.346 501.718 56.516L502.672 57.434C503.41 56.57 504.346 55.904 505.426 55.904C507.064 55.904 507.838 57.02 507.838 58.532C507.838 60.782 505.948 63.428 501.808 67.046V68ZM512.584 68H519.82V66.632H517.156V54.806H515.896C515.194 55.238 514.348 55.544 513.16 55.742V56.804H515.518V66.632H512.584V68ZM527.086 68H528.634V54.806H526.816L521.326 63.284V64.364H530.398V63.068H523.054L526.06 58.568C526.42 57.92 526.78 57.254 527.104 56.606H527.194C527.14 57.29 527.086 58.352 527.086 59.018V68Z" fill="#D78100"/>
<path d="M568.714 261.252C570.928 261.252 573.034 259.596 573.034 256.716C573.034 253.8 571.252 252.504 569.056 252.504C568.264 252.504 567.67 252.702 567.076 253.026L567.418 249.21H572.404V247.806H565.978L565.564 253.98L566.446 254.538C567.202 254.034 567.76 253.746 568.642 253.746C570.28 253.746 571.36 254.88 571.36 256.77C571.36 258.678 570.118 259.884 568.552 259.884C567.04 259.884 566.068 259.182 565.33 258.408L564.502 259.488C565.402 260.388 566.662 261.252 568.714 261.252ZM580.102 261H581.65V247.806H579.832L574.342 256.284V257.364H583.414V256.068H576.07L579.076 251.568C579.436 250.92 579.796 250.254 580.12 249.606H580.21C580.156 250.29 580.102 251.352 580.102 252.018V261Z" fill="#3A7E7C"/>
<path d="M575.615 21H582.851V19.632H580.187V7.806H578.927C578.225 8.238 577.379 8.544 576.191 8.742V9.804H578.549V19.632H575.615V21ZM590.118 21H591.666V7.806H589.848L584.358 16.284V17.364H593.43V16.068H586.086L589.092 11.568C589.452 10.92 589.812 10.254 590.136 9.606H590.226C590.172 10.29 590.118 11.352 590.118 12.018V21ZM598.698 21.252C600.912 21.252 603.018 19.596 603.018 16.716C603.018 13.8 601.236 12.504 599.04 12.504C598.248 12.504 597.654 12.702 597.06 13.026L597.402 9.21H602.388V7.806H595.962L595.548 13.98L596.43 14.538C597.186 14.034 597.744 13.746 598.626 13.746C600.264 13.746 601.344 14.88 601.344 16.77C601.344 18.678 600.102 19.884 598.536 19.884C597.024 19.884 596.052 19.182 595.314 18.408L594.486 19.488C595.386 20.388 596.646 21.252 598.698 21.252ZM608.718 21.252C611.076 21.252 612.966 19.83 612.966 17.49C612.966 15.672 611.706 14.502 610.158 14.124V14.052C611.562 13.548 612.498 12.486 612.498 10.884C612.498 8.778 610.878 7.572 608.664 7.572C607.152 7.572 605.982 8.238 604.992 9.138L605.874 10.2C606.612 9.444 607.548 8.904 608.61 8.904C609.978 8.904 610.824 9.732 610.824 10.992C610.824 12.432 609.906 13.512 607.188 13.512V14.79C610.23 14.79 611.292 15.834 611.292 17.418C611.292 18.93 610.176 19.884 608.61 19.884C607.098 19.884 606.108 19.164 605.334 18.354L604.506 19.434C605.37 20.388 606.648 21.252 608.718 21.252Z" fill="#D78100"/>
<path d="M145.607 296H152.843V294.632H150.179V282.806H148.919C148.217 283.238 147.371 283.544 146.183 283.742V284.804H148.541V294.632H145.607V296ZM159.012 296.252C161.496 296.252 163.098 293.966 163.098 289.358C163.098 284.786 161.496 282.572 159.012 282.572C156.492 282.572 154.89 284.786 154.89 289.358C154.89 293.966 156.492 296.252 159.012 296.252ZM159.012 294.92C157.5 294.92 156.474 293.246 156.474 289.358C156.474 285.524 157.5 283.886 159.012 283.886C160.506 283.886 161.514 285.524 161.514 289.358C161.514 293.246 160.506 294.92 159.012 294.92ZM168.69 296.252C170.904 296.252 173.01 294.596 173.01 291.716C173.01 288.8 171.228 287.504 169.032 287.504C168.24 287.504 167.646 287.702 167.052 288.026L167.394 284.21H172.38V282.806H165.954L165.54 288.98L166.422 289.538C167.178 289.034 167.736 288.746 168.618 288.746C170.256 288.746 171.336 289.88 171.336 291.77C171.336 293.678 170.094 294.884 168.528 294.884C167.016 294.884 166.044 294.182 165.306 293.408L164.478 294.488C165.378 295.388 166.638 296.252 168.69 296.252ZM178.963 280.826C178.081 283.256 176.587 285.596 174.877 287.09C175.219 287.27 175.777 287.72 176.047 287.954C177.721 286.334 179.323 283.832 180.313 281.168L178.963 280.826ZM178.675 283.058L178.027 284.372H190.285V283.058H178.675ZM177.793 287.144V292.67H179.143V288.404H189.889V287.144H177.793ZM174.823 291.986V293.3H191.131V291.986H174.823ZM183.193 283.742V297.458H184.579V283.742H183.193Z" fill="#ADB5BD"/>
<path d="M228.607 296H235.843V294.632H233.179V282.806H231.919C231.217 283.238 230.371 283.544 229.183 283.742V284.804H231.541V294.632H228.607V296ZM242.012 296.252C244.496 296.252 246.098 293.966 246.098 289.358C246.098 284.786 244.496 282.572 242.012 282.572C239.492 282.572 237.89 284.786 237.89 289.358C237.89 293.966 239.492 296.252 242.012 296.252ZM242.012 294.92C240.5 294.92 239.474 293.246 239.474 289.358C239.474 285.524 240.5 283.886 242.012 283.886C243.506 283.886 244.514 285.524 244.514 289.358C244.514 293.246 243.506 294.92 242.012 294.92ZM252.41 296.252C254.444 296.252 256.19 294.524 256.19 291.968C256.19 289.196 254.75 287.828 252.518 287.828C251.456 287.828 250.232 288.476 249.422 289.538L249.476 290.852C250.358 289.538 251.42 289.034 252.266 289.034C253.85 289.034 254.642 290.168 254.642 291.968C254.642 293.75 253.67 294.956 252.41 294.956C250.556 294.956 249.53 293.102 249.53 289.718C249.53 285.398 251.078 283.94 252.932 283.94C253.724 283.94 254.534 284.318 255.038 284.93L255.956 283.922C255.236 283.148 254.228 282.572 252.86 282.572C250.304 282.572 247.982 284.552 247.982 289.718C247.982 294.074 249.872 296.252 252.41 296.252ZM261.963 280.826C261.081 283.256 259.587 285.596 257.877 287.09C258.219 287.27 258.777 287.72 259.047 287.954C260.721 286.334 262.323 283.832 263.313 281.168L261.963 280.826ZM261.675 283.058L261.027 284.372H273.285V283.058H261.675ZM260.793 287.144V292.67H262.143V288.404H272.889V287.144H260.793ZM257.823 291.986V293.3H274.131V291.986H257.823ZM266.193 283.742V297.458H267.579V283.742H266.193Z" fill="#ADB5BD"/>
<path d="M311.607 296H318.843V294.632H316.179V282.806H314.919C314.217 283.238 313.371 283.544 312.183 283.742V284.804H314.541V294.632H311.607V296ZM325.012 296.252C327.496 296.252 329.098 293.966 329.098 289.358C329.098 284.786 327.496 282.572 325.012 282.572C322.492 282.572 320.89 284.786 320.89 289.358C320.89 293.966 322.492 296.252 325.012 296.252ZM325.012 294.92C323.5 294.92 322.474 293.246 322.474 289.358C322.474 285.524 323.5 283.886 325.012 283.886C326.506 283.886 327.514 285.524 327.514 289.358C327.514 293.246 326.506 294.92 325.012 294.92ZM333.538 296H335.248C335.464 290.852 336.022 287.774 339.118 283.796V282.806H330.874V284.21H337.264C334.672 287.81 333.772 291.014 333.538 296ZM344.963 280.826C344.081 283.256 342.587 285.596 340.877 287.09C341.219 287.27 341.777 287.72 342.047 287.954C343.721 286.334 345.323 283.832 346.313 281.168L344.963 280.826ZM344.675 283.058L344.027 284.372H356.285V283.058H344.675ZM343.793 287.144V292.67H345.143V288.404H355.889V287.144H343.793ZM340.823 291.986V293.3H357.131V291.986H340.823ZM349.193 283.742V297.458H350.579V283.742H349.193Z" fill="#ADB5BD"/>
<path d="M394.607 296H401.843V294.632H399.179V282.806H397.919C397.217 283.238 396.371 283.544 395.183 283.742V284.804H397.541V294.632H394.607V296ZM408.012 296.252C410.496 296.252 412.098 293.966 412.098 289.358C412.098 284.786 410.496 282.572 408.012 282.572C405.492 282.572 403.89 284.786 403.89 289.358C403.89 293.966 405.492 296.252 408.012 296.252ZM408.012 294.92C406.5 294.92 405.474 293.246 405.474 289.358C405.474 285.524 406.5 283.886 408.012 283.886C409.506 283.886 410.514 285.524 410.514 289.358C410.514 293.246 409.506 294.92 408.012 294.92ZM418.014 296.252C420.48 296.252 422.154 294.758 422.154 292.832C422.154 291.032 421.074 290.024 419.922 289.358V289.268C420.714 288.656 421.686 287.486 421.686 286.082C421.686 284.066 420.318 282.626 418.068 282.626C415.998 282.626 414.432 283.958 414.432 285.956C414.432 287.342 415.26 288.35 416.232 289.016V289.088C415.026 289.736 413.802 290.96 413.802 292.742C413.802 294.776 415.584 296.252 418.014 296.252ZM418.914 288.854C417.366 288.242 415.944 287.54 415.944 285.956C415.944 284.696 416.826 283.832 418.032 283.832C419.454 283.832 420.282 284.876 420.282 286.172C420.282 287.162 419.814 288.062 418.914 288.854ZM418.05 295.01C416.466 295.01 415.278 293.984 415.278 292.58C415.278 291.32 416.016 290.276 417.096 289.592C418.95 290.348 420.57 291.014 420.57 292.778C420.57 294.092 419.562 295.01 418.05 295.01ZM427.963 280.826C427.081 283.256 425.587 285.596 423.877 287.09C424.219 287.27 424.777 287.72 425.047 287.954C426.721 286.334 428.323 283.832 429.313 281.168L427.963 280.826ZM427.675 283.058L427.027 284.372H439.285V283.058H427.675ZM426.793 287.144V292.67H428.143V288.404H438.889V287.144H426.793ZM423.823 291.986V293.3H440.131V291.986H423.823ZM432.193 283.742V297.458H433.579V283.742H432.193Z" fill="#ADB5BD"/>
<path d="M477.607 296H484.843V294.632H482.179V282.806H480.919C480.217 283.238 479.371 283.544 478.183 283.742V284.804H480.541V294.632H477.607V296ZM491.012 296.252C493.496 296.252 495.098 293.966 495.098 289.358C495.098 284.786 493.496 282.572 491.012 282.572C488.492 282.572 486.89 284.786 486.89 289.358C486.89 293.966 488.492 296.252 491.012 296.252ZM491.012 294.92C489.5 294.92 488.474 293.246 488.474 289.358C488.474 285.524 489.5 283.886 491.012 283.886C492.506 283.886 493.514 285.524 493.514 289.358C493.514 293.246 492.506 294.92 491.012 294.92ZM500.204 296.252C502.688 296.252 504.992 294.2 504.992 288.836C504.992 284.642 503.102 282.572 500.564 282.572C498.512 282.572 496.784 284.3 496.784 286.856C496.784 289.592 498.206 290.996 500.42 290.996C501.554 290.996 502.724 290.312 503.552 289.268L503.462 287.954C502.598 289.268 501.572 289.79 500.69 289.79C499.124 289.79 498.332 288.62 498.332 286.856C498.332 285.038 499.304 283.85 500.564 283.85C502.418 283.85 503.444 285.596 503.444 288.836C503.444 293.354 501.914 294.884 500.15 294.884C499.304 294.884 498.494 294.506 497.936 293.858L497.018 294.902C497.756 295.676 498.764 296.252 500.204 296.252ZM510.963 280.826C510.081 283.256 508.587 285.596 506.877 287.09C507.219 287.27 507.777 287.72 508.047 287.954C509.721 286.334 511.323 283.832 512.313 281.168L510.963 280.826ZM510.675 283.058L510.027 284.372H522.285V283.058H510.675ZM509.793 287.144V292.67H511.143V288.404H521.889V287.144H509.793ZM506.823 291.986V293.3H523.131V291.986H506.823ZM515.193 283.742V297.458H516.579V283.742H515.193Z" fill="#ADB5BD"/>
<path d="M560.607 296H567.843V294.632H565.179V282.806H563.919C563.217 283.238 562.371 283.544 561.183 283.742V284.804H563.541V294.632H560.607V296ZM570.592 296H577.828V294.632H575.164V282.806H573.904C573.202 283.238 572.356 283.544 571.168 283.742V284.804H573.526V294.632H570.592V296ZM583.996 296.252C586.48 296.252 588.082 293.966 588.082 289.358C588.082 284.786 586.48 282.572 583.996 282.572C581.476 282.572 579.874 284.786 579.874 289.358C579.874 293.966 581.476 296.252 583.996 296.252ZM583.996 294.92C582.484 294.92 581.458 293.246 581.458 289.358C581.458 285.524 582.484 283.886 583.996 283.886C585.49 283.886 586.498 285.524 586.498 289.358C586.498 293.246 585.49 294.92 583.996 294.92ZM593.963 280.826C593.081 283.256 591.587 285.596 589.877 287.09C590.219 287.27 590.777 287.72 591.047 287.954C592.721 286.334 594.323 283.832 595.313 281.168L593.963 280.826ZM593.675 283.058L593.027 284.372H605.285V283.058H593.675ZM592.793 287.144V292.67H594.143V288.404H604.889V287.144H592.793ZM589.823 291.986V293.3H606.131V291.986H589.823ZM598.193 283.742V297.458H599.579V283.742H598.193Z" fill="#ADB5BD"/>
<path d="M1.6465 120H8.8825V118.632H6.2185V106.806H4.9585C4.2565 107.238 3.4105 107.544 2.2225 107.742V108.804H4.5805V118.632H1.6465V120ZM15.0509 120.252C17.5349 120.252 19.1369 117.966 19.1369 113.358C19.1369 108.786 17.5349 106.572 15.0509 106.572C12.5309 106.572 10.9289 108.786 10.9289 113.358C10.9289 117.966 12.5309 120.252 15.0509 120.252ZM15.0509 118.92C13.5389 118.92 12.5129 117.246 12.5129 113.358C12.5129 109.524 13.5389 107.886 15.0509 107.886C16.5449 107.886 17.5529 109.524 17.5529 113.358C17.5529 117.246 16.5449 118.92 15.0509 118.92ZM25.0353 120.252C27.5193 120.252 29.1212 117.966 29.1212 113.358C29.1212 108.786 27.5193 106.572 25.0353 106.572C22.5153 106.572 20.9133 108.786 20.9133 113.358C20.9133 117.966 22.5153 120.252 25.0353 120.252ZM25.0353 118.92C23.5233 118.92 22.4973 117.246 22.4973 113.358C22.4973 109.524 23.5233 107.886 25.0353 107.886C26.5293 107.886 27.5373 109.524 27.5373 113.358C27.5373 117.246 26.5293 118.92 25.0353 118.92ZM35.0196 120.252C37.5036 120.252 39.1056 117.966 39.1056 113.358C39.1056 108.786 37.5036 106.572 35.0196 106.572C32.4996 106.572 30.8976 108.786 30.8976 113.358C30.8976 117.966 32.4996 120.252 35.0196 120.252ZM35.0196 118.92C33.5076 118.92 32.4816 117.246 32.4816 113.358C32.4816 109.524 33.5076 107.886 35.0196 107.886C36.5136 107.886 37.5216 109.524 37.5216 113.358C37.5216 117.246 36.5136 118.92 35.0196 118.92Z" fill="#ADB5BD"/>
<path d="M1.6465 40H8.8825V38.632H6.2185V26.806H4.9585C4.2565 27.238 3.4105 27.544 2.2225 27.742V28.804H4.5805V38.632H1.6465V40ZM14.7449 40.252C16.9589 40.252 19.0649 38.596 19.0649 35.716C19.0649 32.8 17.2829 31.504 15.0869 31.504C14.2949 31.504 13.7009 31.702 13.1069 32.026L13.4489 28.21H18.4349V26.806H12.0089L11.5949 32.98L12.4769 33.538C13.2329 33.034 13.7909 32.746 14.6729 32.746C16.3109 32.746 17.3909 33.88 17.3909 35.77C17.3909 37.678 16.1489 38.884 14.5829 38.884C13.0709 38.884 12.0989 38.182 11.3609 37.408L10.5329 38.488C11.4329 39.388 12.6929 40.252 14.7449 40.252ZM25.0353 40.252C27.5193 40.252 29.1212 37.966 29.1212 33.358C29.1212 28.786 27.5193 26.572 25.0353 26.572C22.5153 26.572 20.9133 28.786 20.9133 33.358C20.9133 37.966 22.5153 40.252 25.0353 40.252ZM25.0353 38.92C23.5233 38.92 22.4973 37.246 22.4973 33.358C22.4973 29.524 23.5233 27.886 25.0353 27.886C26.5293 27.886 27.5373 29.524 27.5373 33.358C27.5373 37.246 26.5293 38.92 25.0353 38.92ZM35.0196 40.252C37.5036 40.252 39.1056 37.966 39.1056 33.358C39.1056 28.786 37.5036 26.572 35.0196 26.572C32.4996 26.572 30.8976 28.786 30.8976 33.358C30.8976 37.966 32.4996 40.252 35.0196 40.252ZM35.0196 38.92C33.5076 38.92 32.4816 37.246 32.4816 33.358C32.4816 29.524 33.5076 27.886 35.0196 27.886C36.5136 27.886 37.5216 29.524 37.5216 33.358C37.5216 37.246 36.5136 38.92 35.0196 38.92Z" fill="#ADB5BD"/>
<rect x="44" y="328" width="20" height="20" rx="10" fill="#5FB6B3"/>
<path d="M69.116 336.064V337.432H84.938V336.064H69.116ZM77.882 336.604L76.532 336.928C77.882 341.77 80.33 345.568 84.218 347.404C84.452 347.026 84.902 346.45 85.244 346.144C81.5 344.596 79.052 340.96 77.882 336.604ZM76.298 330.898C76.262 335.218 76.406 342.976 68.756 346.306C69.134 346.576 69.566 347.062 69.782 347.422C77.648 343.822 77.684 335.614 77.756 330.898H76.298ZM86.954 342.778V343.912H103.064V342.778H86.954ZM90.302 339.61V340.636H98.816V339.61H90.302ZM94.496 341.986V345.964C94.496 346.216 94.424 346.27 94.136 346.288C93.848 346.288 92.822 346.288 91.724 346.252C91.904 346.594 92.102 347.062 92.174 347.404C93.614 347.404 94.532 347.404 95.09 347.224C95.666 347.026 95.828 346.702 95.828 346V341.986H94.496ZM98.474 339.61V339.844C97.628 340.582 95.936 341.482 94.496 341.986C94.694 342.148 95.018 342.49 95.162 342.706C96.782 342.13 98.618 341.194 99.896 340.222L99.086 339.538L98.798 339.61H98.474ZM87.332 337.342V340.636H88.628V338.386H101.372V340.636H102.704V337.342H87.332ZM100.418 331.564C100.328 333.58 100.148 336.28 99.932 337.918H101.228C101.408 336.316 101.588 333.634 101.696 331.564H100.418ZM97.502 331.564V332.5H100.958V331.564H97.502ZM91.922 331.042C91.022 331.312 89.474 331.762 88.43 331.924L88.934 332.716C89.996 332.554 91.49 332.284 92.534 331.87L91.922 331.042ZM89.15 333.49V334.408H92.426V333.49H89.15ZM89.24 335.398V336.334H92.516V335.398H89.24ZM97.592 333.49V334.408H100.814V333.49H97.592ZM97.484 335.398V336.334H100.67V335.398H97.484ZM95.864 331.06C95.144 331.996 93.902 332.878 92.66 333.472C92.894 333.616 93.272 333.958 93.434 334.138C94.658 333.472 95.99 332.428 96.818 331.312L95.864 331.06ZM93.002 331.87C94.208 332.428 95.648 333.31 96.35 333.976L97.052 333.31C96.314 332.662 94.856 331.798 93.668 331.276L93.002 331.87ZM95.9 334.084C95.162 335.092 93.83 336.01 92.552 336.604C92.768 336.766 93.146 337.144 93.29 337.324C94.586 336.64 95.99 335.542 96.854 334.372L95.9 334.084ZM92.948 334.894C94.19 335.506 95.684 336.478 96.386 337.198L97.106 336.514C96.368 335.812 94.856 334.876 93.632 334.3L92.948 334.894ZM88.43 331.924L88.808 337.864H90.086L89.726 332.284L88.43 331.924ZM114.26 331.78C115.61 332.662 117.194 333.958 117.95 334.822L119.012 334.21C118.184 333.328 116.564 332.086 115.25 331.258L114.26 331.78ZM109.04 335.992C109.562 336.658 110.102 337.576 110.318 338.17L111.326 337.774C111.092 337.198 110.534 336.316 110.03 335.668L109.04 335.992ZM117.896 335.74C118.688 336.568 119.534 337.72 119.894 338.476L120.902 337.99C120.542 337.216 119.66 336.1 118.85 335.308L117.896 335.74ZM113.486 338.98C112.172 339.988 109.76 340.942 107.834 341.464C108.104 341.698 108.41 342.058 108.608 342.31C110.588 341.716 113 340.654 114.494 339.484L113.486 338.98ZM115.448 340.726C113.792 342.076 110.696 343.156 107.942 343.714C108.212 343.984 108.5 344.416 108.662 344.704C111.524 344.02 114.638 342.814 116.492 341.248L115.448 340.726ZM117.572 342.544C115.574 344.614 111.524 345.82 107.132 346.342C107.384 346.648 107.654 347.134 107.78 347.458C112.334 346.81 116.474 345.46 118.706 343.084L117.572 342.544ZM112.64 335.344C111.164 337.99 108.14 339.79 104.72 340.762C104.972 341.032 105.368 341.572 105.512 341.842C109.004 340.654 112.172 338.692 113.882 335.722L112.64 335.344ZM113.468 336.082L112.334 336.568C114.206 338.836 117.554 340.762 120.65 341.698C120.848 341.374 121.226 340.888 121.514 340.636C118.436 339.844 115.142 338.08 113.468 336.082ZM107.42 334.48C107.42 334.21 108.284 333.886 108.284 333.886V333.868C109.652 333.292 111.128 332.41 112.46 331.402L111.254 330.79C110.156 331.762 108.626 332.662 108.158 332.878C107.726 333.112 107.348 333.256 107.024 333.292C107.168 333.634 107.366 334.228 107.42 334.48ZM107.42 334.48C108.014 334.282 108.914 334.282 117.77 333.886C117.608 333.634 117.356 333.22 117.212 332.896L108.248 333.22L107.42 333.634V334.48ZM105.962 338.098C105.962 337.846 106.736 337.486 106.736 337.486V337.45C107.528 336.874 108.41 335.938 109.094 335.02L107.888 334.498C107.366 335.416 106.502 336.298 106.25 336.532C105.998 336.766 105.746 336.91 105.53 336.964C105.674 337.27 105.872 337.846 105.962 338.098ZM105.962 338.098C106.286 337.972 106.826 337.918 110.534 337.702C110.39 337.45 110.138 337.036 109.994 336.73L106.574 336.874L105.944 337.234L105.962 338.098ZM114.8 338.008C114.8 337.774 115.574 337.396 115.574 337.396V337.36C116.186 336.838 116.888 335.956 117.41 335.11L116.186 334.606C115.826 335.452 115.178 336.28 114.98 336.496C114.782 336.712 114.566 336.838 114.386 336.892C114.512 337.198 114.71 337.774 114.8 338.008ZM114.8 338.008C115.124 337.9 115.682 337.828 119.642 337.558C119.498 337.306 119.246 336.892 119.102 336.586L115.412 336.784L114.782 337.144L114.8 338.008ZM133.862 331.798V332.986H137.192V331.798H133.862ZM129.686 332.68V333.832H133.196V332.68H129.686ZM134.024 335.254V336.406H137.138V335.254H134.024ZM133.916 338.638V339.79H136.976V338.638H133.916ZM125.024 335.2V336.352H128.084V335.2H125.024ZM125.114 338.566V339.718H128.138V338.566H125.114ZM136.454 331.798C136.472 335.128 136.31 339.808 136.13 342.454H137.39C137.57 339.844 137.678 335.2 137.714 331.798H136.454ZM127.67 330.988C126.788 331.438 125.438 331.978 124.304 332.374C124.448 332.662 124.61 333.076 124.664 333.346C125.816 333.004 127.22 332.554 128.318 332.086L127.67 330.988ZM129.038 331.006V336.856H132.584V335.758H130.208V331.006H129.038ZM122.828 341.95V343.21H139.172V341.95H122.828ZM132.728 344.362C134.618 345.28 136.616 346.486 137.84 347.368L138.74 346.342C137.48 345.478 135.392 344.326 133.466 343.426L132.728 344.362ZM128.12 343.498C126.968 344.47 124.79 345.694 123.062 346.396C123.332 346.684 123.674 347.134 123.854 347.422C125.618 346.648 127.796 345.442 129.272 344.308L128.12 343.498ZM124.304 332.374L124.664 342.382H125.888L125.564 332.734L124.304 332.374ZM129.614 337.648C129.452 338.746 129.182 339.844 128.624 340.618C128.876 340.744 129.362 341.032 129.542 341.194C130.1 340.348 130.478 339.088 130.676 337.828L129.614 337.648ZM131.918 335.776V340.564C131.918 340.726 131.864 340.78 131.684 340.78C131.504 340.798 130.964 340.798 130.316 340.78C130.46 341.05 130.604 341.41 130.658 341.698C131.54 341.698 132.17 341.698 132.566 341.536C132.962 341.374 133.07 341.122 133.07 340.564V335.776H131.918ZM150.188 336.982V338.296H157.226V336.982H150.188ZM153.788 337.864V347.386H155.12V337.864H153.788ZM141.764 332.662V338.962C141.764 341.32 141.656 344.416 140.504 346.63C140.81 346.774 141.368 347.242 141.602 347.476C142.916 345.118 143.078 341.518 143.078 338.962V332.662H141.764ZM155.984 331.114C154.508 331.798 151.862 332.374 149.612 332.698C149.774 333.004 149.954 333.508 150.026 333.832C152.33 333.526 155.12 333.004 156.902 332.248L155.984 331.114ZM142.502 335.416V336.64H146.642V339.52H142.502V340.744H147.956V335.416H142.502ZM147.92 331.258C146.516 331.924 143.924 332.41 141.764 332.662C141.926 332.986 142.106 333.454 142.16 333.778C144.374 333.562 147.092 333.13 148.802 332.392L147.92 331.258ZM149.612 332.698V338.692C149.612 341.194 149.396 344.362 147.254 346.576C147.56 346.756 148.1 347.224 148.316 347.476C150.638 345.136 150.98 341.428 150.98 338.71V332.698H149.612ZM169.574 334.444V335.668H175.28V334.444H169.574ZM170.186 330.88C169.646 333.922 168.746 336.982 167.486 338.962C167.756 339.142 168.242 339.574 168.44 339.79C169.718 337.63 170.726 334.372 171.338 331.114L170.186 330.88ZM172.742 335.182C172.166 340.906 170.636 344.488 166.514 346.45C166.73 346.684 167.09 347.206 167.216 347.476C171.554 345.208 173.246 341.464 173.948 335.29L172.742 335.182ZM170.096 335.704L169.106 335.848C169.862 341.104 171.32 345.37 174.542 347.368C174.74 347.026 175.136 346.558 175.424 346.324C172.292 344.614 170.78 340.51 170.096 335.704ZM163.004 330.88V340.33H164.084V330.88H163.004ZM161.078 333.004H166.136V336.064H161.078V333.004ZM160.016 332.05V337H167.252V332.05H160.016ZM160.754 338.656H166.424V339.862H160.754V338.656ZM159.602 337.792V340.726H167.612V337.792H159.602ZM158.774 333.922V334.966H160.466V334.912H166.478V334.966H168.278V333.922H166.478V333.976H160.466V333.922H158.774ZM160.016 344.47L161.186 344.686C161.942 343.642 162.986 341.95 163.616 340.492L162.482 340.24C161.906 341.644 160.862 343.354 160.016 344.47ZM160.016 344.47C162.158 345.028 164.768 346.126 166.172 346.972L167.054 346.162C165.596 345.352 163.004 344.272 160.916 343.714L160.016 344.47ZM165.2 341.158V341.752C165.2 343.192 164.696 345.334 158.648 346.522C158.864 346.756 159.134 347.17 159.242 347.422C165.65 346.108 166.316 343.642 166.316 341.788V341.158H165.2ZM158.792 341.878V342.868H168.134V341.878H158.792Z" fill="#3A7E7C"/>
<rect x="200" y="328" width="20" height="20" rx="10" fill="#F29001"/>
<path d="M224.486 340.456L224.846 341.77C226.43 341.266 228.5 340.6 230.444 339.952L230.246 338.71C228.122 339.376 225.944 340.06 224.486 340.456ZM224.738 334.516V335.776H230.48V334.516H224.738ZM226.97 330.898V345.82C226.97 346.072 226.88 346.144 226.664 346.144C226.448 346.162 225.746 346.162 224.972 346.126C225.152 346.522 225.332 347.098 225.368 347.44C226.52 347.458 227.222 347.404 227.672 347.17C228.122 346.954 228.302 346.576 228.302 345.82V330.898H226.97ZM232.316 345.334V346.558H239.48V345.334H232.316ZM231.002 331.78V333.004H239.516V331.78H231.002ZM231.578 340.042V347.422H232.874V341.266H238.976V347.368H240.326V340.042H231.578ZM239.264 331.78V331.996C239.084 335.74 238.904 337.126 238.562 337.504C238.418 337.666 238.274 337.684 237.986 337.684C237.698 337.684 236.942 337.684 236.132 337.612C236.366 337.954 236.51 338.494 236.528 338.89C237.338 338.926 238.148 338.926 238.58 338.872C239.066 338.836 239.39 338.71 239.696 338.368C240.164 337.828 240.362 336.334 240.56 332.356C240.578 332.158 240.578 331.78 240.578 331.78H239.264ZM234.206 332.194C233.936 334.75 233.306 337.126 230.462 338.332C230.75 338.548 231.128 339.052 231.29 339.358C234.44 337.918 235.25 335.254 235.574 332.194H234.206ZM245.744 334.39V335.704H258.218V334.39H245.744ZM244.952 339.664V340.96H257.57V339.664H244.952ZM242.99 345.55V346.864H259.064V345.55H242.99ZM250.334 330.898V346.216H251.72V330.898H250.334ZM246.284 331.186C245.6 333.76 244.43 336.262 242.954 337.864C243.296 338.044 243.908 338.44 244.178 338.674C245.618 336.946 246.878 334.282 247.67 331.492L246.284 331.186ZM266.552 345.478V346.72H275.246V345.478H266.552ZM265.94 332.698V333.904H272.546V332.698H265.94ZM266.75 330.826C265.706 332.788 263.636 335.11 260.666 336.73C260.972 336.964 261.422 337.432 261.62 337.774C264.752 335.92 266.912 333.472 268.262 331.132L266.75 330.826ZM272.096 332.698V332.932C270.224 337.666 265.238 341.194 260.576 342.544C260.864 342.832 261.206 343.39 261.368 343.75C266.264 342.166 271.34 338.548 273.5 333.112L272.6 332.626L272.348 332.698H272.096ZM263.69 335.902C265.112 336.91 266.822 338.422 267.578 339.448L268.676 338.476C267.848 337.45 266.12 336.01 264.698 335.038L263.69 335.902ZM274.58 339.79V347.476H275.966V339.79H274.58ZM267.164 339.79H266.894L265.814 340.852V347.44H267.164V341.032H275.264V339.79H267.164ZM279.116 332.626V335.668H280.142V333.742H285.632V335.668H286.712V332.626H279.116ZM280.196 341.878V347.386H281.366V342.976H284.624V347.35H285.83V341.878H280.196ZM280.664 345.712V346.81H285.398V345.712H280.664ZM281.69 334.336C281.276 335.578 280.376 336.982 278.972 337.972C279.224 338.152 279.548 338.584 279.692 338.89C281.258 337.702 282.194 336.136 282.77 334.534L281.69 334.336ZM281.798 335.596L281.366 336.64H285.038V335.596H281.798ZM284.732 335.596V335.83C283.724 338.512 281.204 340.456 278.576 341.392C278.81 341.626 279.152 342.184 279.278 342.508C281.96 341.392 284.642 339.286 285.884 336.028L285.182 335.542L284.966 335.596H284.732ZM281.852 331.294C282.158 331.978 282.536 332.896 282.698 333.472L283.832 332.986C283.652 332.428 283.256 331.546 282.932 330.898L281.852 331.294ZM287.288 331.744V332.914H295.172V331.744H287.288ZM289.052 338.53H293.3V340.204H289.052V338.53ZM289.052 341.248H293.3V342.976H289.052V341.248ZM289.052 335.812H293.3V337.468H289.052V335.812ZM287.828 334.696V344.056H294.596V334.696H287.828ZM290.636 332.32C290.528 333.148 290.276 334.336 290.078 335.11L291.104 335.38C291.338 334.642 291.644 333.562 291.914 332.554L290.636 332.32ZM289.772 344.344C288.962 345.082 287.45 346 286.316 346.54C286.532 346.81 286.802 347.26 286.928 347.548C288.116 346.972 289.628 346.054 290.69 345.19L289.772 344.344ZM291.59 345.154C292.598 345.802 293.894 346.828 294.542 347.512L295.316 346.54C294.65 345.874 293.318 344.902 292.31 344.29L291.59 345.154ZM280.736 338.584C282.464 339.61 284.786 341.104 285.938 341.986L286.748 341.014C285.524 340.15 283.184 338.71 281.51 337.756L280.736 338.584ZM308.51 339.16C308.51 342.688 309.932 345.532 312.092 347.728L313.172 347.17C311.084 345.028 309.806 342.382 309.806 339.16C309.806 335.956 311.084 333.31 313.172 331.168L312.092 330.61C309.932 332.806 308.51 335.65 308.51 339.16ZM322.226 330.952C322.154 333.724 322.262 342.526 314.756 346.324C315.17 346.612 315.62 347.026 315.854 347.386C323.504 343.282 323.648 334.138 323.72 330.952H322.226ZM323.558 333.166L322.262 333.31C322.514 334.876 323.252 343.984 330.38 347.314C330.578 346.936 330.974 346.468 331.37 346.162C324.458 343.084 323.72 334.462 323.558 333.166ZM337.472 339.16C337.472 335.65 336.05 332.806 333.89 330.61L332.81 331.168C334.898 333.31 336.176 335.956 336.176 339.16C336.176 342.382 334.898 345.028 332.81 347.17L333.89 347.728C336.05 345.532 337.472 342.688 337.472 339.16Z" fill="#D78100"/>
</svg>
