<svg width="150" height="150" viewBox="0 0 150 150" fill="none" xmlns="http://www.w3.org/2000/svg">
<path d="M145.1 115C144.2 114 143.2 113.1 142.1 112.5C140 111.2 137.5 110.5 135 110.5H57C55.7 110.5 54.6 111.6 54.6 112.9V115.4C54.6 116 54.8 116.6 55.3 117.1C58.3 120.2 60 124.3 60 128.7C60 133.1 58.3 137.3 55.2 140.4C52.1 143.5 47.9 145.2 43.5 145.2C39.1 145.2 34.9 143.5 31.8 140.4C28.7 137.3 27 133.1 27 128.7V13.5C27 10.2 25.8 7.2 23.9 4.9H98.8C103.6 4.9 107.4 8.8 107.4 13.5V103.4C107.4 104.7 108.5 105.8 109.8 105.8C111.1 105.8 112.2 104.7 112.2 103.4V13.5C112.2 6.1 106.2 0 98.7 0H15C14.8 0 14.7 0 14.5 0.1C14.2 0 13.8 0 13.5 0C6 0 0 6 0 13.5V20.7H15C16.3 20.7 17.4 19.6 17.4 18.3C17.4 17 16.3 15.9 15 15.9H4.8V13.6C4.8 8.8 8.7 5 13.4 5C18.2 5 22 8.9 22 13.6V128.8C22 134.5 24.2 139.9 28.3 143.9C32.3 147.9 37.7 150.2 43.4 150.2C49.1 150.2 54.5 148 58.5 144C62.5 140 64.8 134.6 64.8 128.9C64.8 124 63.1 119.3 60.1 115.5H134.9C136.5 115.5 138.1 116 139.5 116.8C140.2 117.2 140.8 117.7 141.3 118.3C147.1 125.3 146.1 135.7 139.1 141.5C136.7 143.5 133.8 144.8 130.6 145.2H65.5C64.2 145.2 63.1 146.3 63.1 147.6C63.1 148.9 64.2 150 65.5 150H130.8C130.9 150 131 150 131.1 150C135.2 149.5 139 147.9 142.2 145.3C151.3 137.6 152.6 124.1 145.1 115Z" fill="#353535"/>
<path d="M46.8 49.9L39.2 53.9C38 54.5 37.6 56 38.2 57.2C38.6 58 39.5 58.5 40.3 58.5C40.7 58.5 41.1 58.4 41.4 58.2L51.6 52.8V47.3C52.8 47.7 54.1 47.9 55.5 47.9C56.9 47.9 58.2 47.7 59.4 47.3V52.8L69.6 58.2C70 58.4 70.4 58.5 70.7 58.5C71.6 58.5 72.4 58 72.8 57.2C73.4 56 73 54.6 71.8 53.9L64.2 49.9V45C64.2 44.9 64.2 44.7 64.2 44.6C67.1 42.1 69 38.4 69 34.3V28.8C69 21.4 63 15.3 55.5 15.3C48 15.3 42 21.3 42 28.8V34.3C42 38.4 43.9 42.1 46.8 44.6C46.8 44.7 46.8 44.9 46.8 45V49.9ZM46.9 28.8C46.9 24 50.8 20.2 55.5 20.2C60.3 20.2 64.1 24.1 64.1 28.8V34.3C64.1 39.1 60.2 42.9 55.5 42.9C50.7 42.9 46.9 39 46.9 34.3V28.8Z" fill="#353535"/>
<path d="M97.1 66.3H37.1V71.1H97.1V66.3Z" fill="#353535"/>
<path d="M97.1 78.9H37.1V83.7H97.1V78.9Z" fill="#353535"/>
<path d="M97.1 53.6H78.2V58.4H97.1V53.6Z" fill="#353535"/>
<path d="M97.1 41H78.2V45.8H97.1V41Z" fill="#353535"/>
<path d="M97.1 91.5H37.1V96.3H97.1V91.5Z" fill="#353535"/>
<path d="M124.7 81.3H119.9V87.6H124.7V81.3Z" fill="#353535"/>
<path d="M124.7 68.7H119.9V75H124.7V68.7Z" fill="#353535"/>
<path d="M124.7 56.1H119.9V62.4H124.7V56.1Z" fill="#353535"/>
<path d="M14.3 81.3H9.5V87.6H14.3V81.3Z" fill="#353535"/>
<path d="M14.3 68.7H9.5V75H14.3V68.7Z" fill="#353535"/>
<path d="M14.3 56.1H9.5V62.4H14.3V56.1Z" fill="#353535"/>
</svg>
