<svg width="150" height="147" viewBox="0 0 150 147" fill="none" xmlns="http://www.w3.org/2000/svg">
<path d="M150 97.3V67.8H107.4C110.9 64.5 113 59.9 113 54.8V36.3C113 28.2 106.4 21.5 98.2 21.5H95.1C91.3 21.5 87.8 22.9 85.2 25.3V17.7C85.2 12.2 89.6 7.8 95.1 7.8C96.4 7.8 97.5 6.7 97.5 5.4C97.5 4.1 96.4 3 95.1 3C92 3 89.2 3.9 86.8 5.6C84.1 2.2 79.1 0 73.6 0C67.1 0 61.3999 2.9 59.0999 7.5L58.5 8.6L59.0999 9.7C61.3999 14.3 67.1 17.2 73.6 17.2C76.1 17.2 78.4 16.8 80.5 16C80.4 16.6 80.4 17.2 80.4 17.9V25.5C77.8 23.1 74.3 21.7 70.5 21.7H67.4C59.3 21.7 52.5999 28.3 52.5999 36.5V55C52.5999 60.1 54.8 64.7 58.2 68H36.5999C28.4999 68 21.7999 74.6 21.7999 82.8C21.7999 86.6 23.3 90.1 25.6 92.7H18C9.89995 92.7 3.19995 99.3 3.19995 107.5C3.19995 115.7 9.99995 122 18.1 122H19.5C17.1 124.6 15.7 128.1 15.7 131.9C15.7 140 22.3 146.7 30.5 146.7H143.9V117.2H131.6V97.3H150ZM64.0999 8.6C65.8999 6.4 69.6 4.9 73.5 4.9C77.4 4.9 81.1 6.4 82.9 8.6C81.1 10.8 77.4 12.3 73.5 12.3C69.6 12.3 65.9999 10.8 64.0999 8.6ZM57.5 54.8V36.3C57.5 30.8 61.9 26.4 67.4 26.4H70.5C76 26.4 80.4 30.8 80.4 36.3H85.3C85.3 30.8 89.7 26.4 95.2 26.4H98.3C103.8 26.4 108.2 30.8 108.2 36.3V54.8C108.2 62 102.4 67.8 95.2 67.8H70.5C63.3 67.8 57.5 62 57.5 54.8ZM26.7 82.6C26.7 77.1 31.0999 72.7 36.5999 72.7H70.5H95.2H145.2V92.5H131.6H36.5999C31.0999 92.5 26.7 88 26.7 82.6ZM139 122V141.8H30.4C24.9 141.8 20.5 137.4 20.5 131.9C20.5 126.4 24.9 122 30.4 122H131.5H139ZM126.6 117.1H30.4H18.1C12.6 117.1 8.19995 112.7 8.19995 107.2C8.19995 101.7 12.6 97.3 18.1 97.3H36.5999H126.6V117.1Z" fill="#353535"/>
<path d="M110.8 15.5L111.3 11.6H116.7L117.2 15.5V16.4H120.1V15.4L118.9 5.3C118.6 2.8 116.5 1 114 1C111.5 1 109.4 2.9 109.1 5.3L107.9 15.2V16.4H110.8V15.5ZM113.9 3.9C114.9 3.9 115.7 4.6 115.9 5.6L116.3 8.6H111.6L112 5.6C112 4.7 112.9 3.9 113.9 3.9Z" fill="#353535"/>
<path d="M134.4 13.9V9.59998C134.4 8.29998 133.3 7.19998 132 7.19998C132.2 6.69998 132.3 6.19998 132.3 5.59998C132.3 3.09998 130.3 1.09998 127.8 1.09998H123.2V7.19998V10.1V16.3H132C133.3 16.3 134.4 15.2 134.4 13.9ZM126.1 3.99998H127.8C128.7 3.99998 129.4 4.69998 129.4 5.59998C129.4 6.49998 128.7 7.19998 127.8 7.19998H126.1V3.99998V3.99998ZM131.5 13.4H126.1V10.1H127.8H131.4V13.4H131.5Z" fill="#353535"/>
<path d="M143.2 16.2C145.2 16.2 147.1 15.5 148.6 14C149.2 13.4 149.2 12.5 148.6 11.9C148 11.3 147.1 11.3 146.5 11.9C144.7 13.7 141.7 13.7 139.8 11.9C138 10.1 138 7.09998 139.8 5.19998C141.6 3.39998 144.6 3.39998 146.5 5.19998C147.1 5.79998 148 5.79998 148.6 5.19998C149.2 4.59998 149.2 3.69998 148.6 3.09998C145.6 0.0999756 140.8 0.0999756 137.8 3.09998C134.8 6.09998 134.8 10.9 137.8 13.9C139.3 15.5 141.3 16.2 143.2 16.2Z" fill="#353535"/>
<path d="M21 29.5C20.4 28.9 19.5 28.9 18.9 29.5L16.9 31.5L14.9 29.5C14.3 28.9 13.4 28.9 12.8 29.5C12.2 30.1 12.2 31 12.8 31.6L14.8 33.6L12.8 35.6C12.2 36.2 12.2 37.1 12.8 37.7C13.1 38 13.5 38.1 13.8 38.1C14.1 38.1 14.5 38 14.8 37.7L16.8 35.7L18.8 37.7C19.1 38 19.5 38.1 19.8 38.1C20.2 38.1 20.5 38 20.8 37.7C21.4 37.1 21.4 36.2 20.8 35.6L18.8 33.6L20.8 31.6C21.6 31 21.6 30.1 21 29.5Z" fill="#353535"/>
<path d="M24.8 37.3C25 37.8 25.6 38.2 26.1 38.2H32.3C33.1 38.2 33.8 37.5 33.8 36.7C33.8 35.9 33.1 35.2 32.3 35.2H29.7L33.4 31.5C33.8 31.1 33.9 30.5 33.7 29.9C33.5 29.4 32.9 29 32.4 29H26.2C25.4 29 24.7 29.7 24.7 30.5C24.7 31.3 25.4 32 26.2 32H28.8L25.1 35.7C24.7 36.1 24.5 36.7 24.8 37.3Z" fill="#353535"/>
<path d="M1.5 28.9H3.5L6.2 37.1C6.4 37.7 7 38.1 7.6 38.1C7.6 38.1 7.6 38.1 7.7 38.1C8.3 38.1 8.9 37.6 9.1 37L11.9 25.8H32.3C33.1 25.8 33.8 25.1 33.8 24.3C33.8 23.5 33.1 22.8 32.3 22.8H10.7C10 22.8 9.4 23.3 9.3 23.9L7.4 31.4L5.9 27C5.7 26.4 5.1 26 4.5 26H1.5C0.7 26 0 26.6 0 27.4C0 28.3 0.7 28.9 1.5 28.9Z" fill="#353535"/>
<path d="M33.7 42.9C33.7 42.1 33 41.4 32.2 41.4H1.5C0.7 41.4 0 42.1 0 42.9C0 43.7 0.7 44.4 1.5 44.4H32.3C33.1 44.3 33.7 43.7 33.7 42.9Z" fill="#353535"/>
<path d="M21.4 54L16 58.8C15.5 59.2 15.4 59.8 15.6 60.4C15.8 61 16.4 61.3 17 61.3H24.6C25.4 61.3 26.1 60.6 26.1 59.8C26.1 59 25.4 58.3 24.6 58.3H20.9L23.5 56.1L23.6 56C24.7 54.8 25.2 53.6 25.2 52.4V52.2C25.2 49.6 23.1 47.5 20.6 47.5H20.2C17.6 47.5 15.5 49.6 15.5 52.1C15.5 52.9 16.1 53.6 17 53.6C17.8 53.6 18.5 52.9 18.5 52.1C18.5 51.1 19.3 50.4 20.2 50.4H20.6C21.6 50.4 22.3 51.2 22.3 52.1V52.4C22.1 52.9 21.9 53.4 21.4 54Z" fill="#353535"/>
</svg>
