<svg width="150" height="150" viewBox="0 0 150 150" fill="none" xmlns="http://www.w3.org/2000/svg">
<path d="M12.6 27.7C12.6 29 13.7 30.1 15 30.1H30V4.8H107.2V122.3C107.2 123.6 108.3 124.7 109.6 124.7C110.9 124.7 112 123.6 112 122.3V0H25.2V25.2H15C13.7 25.2 12.6 26.3 12.6 27.7Z" fill="#353535"/>
<path d="M62.4 145.2H4.8V25.5L19.6 10.4C20.5 9.40001 20.5 7.90001 19.6 7.00001C18.6 6.10001 17.1 6.10001 16.2 7.00001L0 23.5V150H62.4C63.7 150 64.8 148.9 64.8 147.6C64.8 146.3 63.7 145.2 62.4 145.2Z" fill="#353535"/>
<path d="M93.9 15.8H75V20.6H93.9V15.8Z" fill="#353535"/>
<path d="M93.9 28.4H75V33.2H93.9V28.4Z" fill="#353535"/>
<path d="M141.3 132.5H80.6L67.6 141.2L80.2 150H140.9C146 150 150 146.2 150 141.3C150 136.5 146.1 132.5 141.3 132.5ZM140.9 145.2H81.7L76.2 141.4L82.1 137.5H141.3C143.4 137.5 145.2 139.2 145.2 141.4C145.2 143.5 143.3 145.2 140.9 145.2Z" fill="#353535"/>
<path d="M71.7 85L86.6 70.1C87.5 69.2 87.5 67.6 86.6 66.7C85.7 65.8 84.1 65.8 83.2 66.7L71.7 78.1L66.9 73.3C66 72.4 64.4 72.4 63.5 73.3C62.6 74.2 62.6 75.8 63.5 76.7L71.7 85Z" fill="#353535"/>
<path d="M58.5 96.3H96.4V53.6H53.6H15.8V96.3H58.5ZM91.5 91.5H58.5V58.5H91.5V91.5ZM20.6 58.5H53.6V91.5H20.6V58.5Z" fill="#353535"/>
<path d="M42.1 66.6L37.1 71.6L32.1 66.6C31.2 65.7 29.6 65.7 28.7 66.6C27.8 67.5 27.8 69.1 28.7 70L33.7 75L28.7 80L32.1 83.4L37.1 78.4L42.1 83.4L45.5 80L40.5 75L45.5 70C46.4 69.1 46.4 67.5 45.5 66.6C44.6 65.7 43.1 65.7 42.1 66.6Z" fill="#353535"/>
<path d="M49.7 107.3H15V112.1H49.7V107.3Z" fill="#353535"/>
<path d="M49.7 119.9H15V124.7H49.7V119.9Z" fill="#353535"/>
</svg>
