<svg width="177" height="69" viewBox="0 0 177 69" fill="none" xmlns="http://www.w3.org/2000/svg">
<path d="M47.148 23.992V27.016H67.056V23.992H47.148ZM46.536 32.884V35.944H67.776V32.884H46.536ZM46.428 46.384V49.444H67.812V46.384H46.428ZM48.012 28.42V31.336H66.48V28.42H48.012ZM51.216 21.436V34.252H55.14V21.436H51.216ZM58.956 21.436V34.252H62.988V21.436H58.956ZM55.104 34.288V47.212H59.064V34.288H55.104ZM61.944 37.276V51.28C61.944 51.712 61.764 51.82 61.296 51.856C60.864 51.856 59.208 51.856 57.804 51.784C58.308 52.756 58.776 54.232 58.956 55.24C61.404 55.24 63.168 55.24 64.464 54.664C65.688 54.088 66.048 53.116 66.048 51.316V37.276H61.944ZM48.336 37.276V55.312H52.368V40.336H63.672V37.276H48.336ZM50.352 41.956V44.62H63.672V41.956H50.352ZM35.484 32.416V35.692H45.276V32.416H35.484ZM35.484 37.312V40.552H45.276V37.312H35.484ZM34.152 27.412V30.832H46.464V27.412H34.152ZM37.104 42.28V45.736H42.252V49.768H37.104V53.224H45.528V42.28H37.104ZM35.412 42.28V54.772H38.616V42.28H35.412ZM37.464 22.912C38.544 24.496 39.876 26.656 40.488 28.024L43.872 25.864C43.188 24.568 41.82 22.588 40.668 21.112L37.464 22.912ZM88.008 29.896V52.54H92.184V29.896H88.008ZM78.828 43.396V47.104H101.688V43.396H78.828ZM76.56 50.704V54.412H103.668V50.704H76.56ZM81.312 30.328C80.772 34.396 79.332 37.78 76.524 39.832C77.424 40.372 79.08 41.596 79.728 42.244C82.68 39.724 84.48 35.764 85.2 30.76L81.312 30.328ZM80.988 36.448C82.68 37.996 84.876 40.228 85.884 41.632L88.296 38.716C87.252 37.384 84.984 35.296 83.292 33.892L80.988 36.448ZM96.144 30.328C95.532 34.288 93.948 37.564 91.212 39.544C92.076 40.12 93.624 41.38 94.236 42.028C97.224 39.544 99.132 35.692 99.96 30.832L96.144 30.328ZM94.992 36.412C97.08 38.176 99.96 40.696 101.328 42.244L103.74 39.436C102.3 37.96 99.348 35.584 97.26 33.928L94.992 36.412ZM74.94 24.712V28.708H103.416V24.712H74.94ZM72.636 24.712V34.54C72.636 39.832 72.42 47.392 69.576 52.576C70.62 53.008 72.492 54.232 73.284 54.988C76.344 49.3 76.884 40.372 76.884 34.576V24.712H72.636ZM85.56 22.3C86.568 23.92 87.648 26.116 88.008 27.592L92.364 26.044C91.86 24.64 90.816 22.552 89.7 21.004L85.56 22.3ZM115.332 41.02H130.992V42.568H115.332V41.02ZM115.332 45.016H130.992V46.6H115.332V45.016ZM115.332 37.06H130.992V38.572H115.332V37.06ZM111.156 34.468V49.156H135.348V34.468H111.156ZM125.844 50.92C129.408 52.252 133.116 54.016 135.204 55.204L139.056 52.9C136.608 51.676 132.396 49.948 128.688 48.652L125.844 50.92ZM117.024 48.796C114.576 50.2 110.292 51.46 106.476 52.144C107.448 52.9 108.924 54.484 109.68 55.312C113.352 54.304 118.032 52.504 120.984 50.596L117.024 48.796ZM121.2 23.632V26.764H135.78V23.632H121.2ZM121.488 21.22C120.696 23.668 119.184 26.08 117.276 27.664C118.176 28.168 119.76 29.212 120.48 29.824C122.424 28.024 124.26 25.072 125.268 22.084L121.488 21.22ZM125.16 26.044V27.304C125.16 28.744 124.08 30.508 115.224 31.192C115.98 31.984 117.06 33.46 117.456 34.432C127.644 33.28 129.084 30.112 129.084 27.484V26.044H125.16ZM128.724 27.484L125.7 28.096C127.86 31.732 131.784 33.712 137.4 34.396C137.868 33.316 138.912 31.768 139.74 30.94C134.556 30.688 130.596 29.644 128.724 27.484ZM107.232 23.2V26.368H116.484V23.2H107.232ZM106.44 28.78V32.056H117.348V28.78H106.44ZM134.268 23.632V24.136C133.692 25.684 132.684 27.592 131.856 28.816L135.168 30.076C136.32 28.636 137.58 26.368 138.48 24.352L135.528 23.452L134.916 23.632H134.268ZM143.808 32.416V35.692H154.32V32.416H143.808ZM143.808 37.312V40.552H154.392V37.312H143.808ZM142.368 27.412V30.832H155.58V27.412H142.368ZM145.572 42.28V45.736H151.008V49.768H145.572V53.224H154.392V42.28H145.572ZM143.844 42.28V54.772H147.156V42.28H143.844ZM145.968 22.876C146.796 24.424 147.84 26.62 148.272 27.988L151.476 26.08C150.936 24.748 149.928 22.768 149.028 21.256L145.968 22.876ZM155.58 36.952V40.948H167.136V36.952H155.58ZM168.072 23.272C168.072 38.212 167.676 53.26 171.492 54.808C173.724 55.78 175.56 54.664 176.136 49.372C175.524 48.688 174.48 46.996 173.868 45.88C173.76 48.184 173.58 50.56 173.364 50.488C172.068 50.056 172.032 35.152 172.356 23.272H168.072ZM159.612 25.936V55.24H163.644V25.936H159.612ZM156.084 23.272V27.376H170.052V23.272H156.084Z" fill="white"/>
<path d="M33 66C16.5 66 3 52.5 3 36C3 19.5 16.5 6 33 6C38.5 6 43.6 7.5 48 10L49.5 7.4C44.6 4.6 39 3 33 3C14.8 3 0 17.8 0 36C0 54.2 14.8 69 33 69C39 69 44.6 67.4 49.5 64.6L48 62C43.6 64.5 38.5 66 33 66Z" fill="#FEC22E"/>
<path d="M59.092 10H64.48V8.512H60.868V1.12H59.092V10ZM66.0295 10H71.6095V8.512H67.8055V6.148H70.9135V4.648H67.8055V2.596H71.4775V1.12H66.0295V10ZM77.0243 10.168C78.1763 10.168 79.1243 9.724 79.8563 8.872L78.9203 7.756C78.4523 8.272 77.8523 8.632 77.0963 8.632C75.6803 8.632 74.7803 7.48 74.7803 5.536C74.7803 3.64 75.7883 2.488 77.1203 2.488C77.8043 2.488 78.3083 2.788 78.7643 3.232L79.7003 2.092C79.1243 1.492 78.2243 0.964 77.0963 0.964C74.8403 0.964 72.9683 2.668 72.9683 5.596C72.9683 8.56 74.7803 10.168 77.0243 10.168ZM82.7935 10H84.5695V2.596H87.0775V1.12H80.2855V2.596H82.7935V10ZM91.9375 10.168C94.1095 10.168 95.3695 8.956 95.3695 6.016V1.12H93.6655V6.172C93.6655 8.008 92.9815 8.632 91.9375 8.632C90.8935 8.632 90.2455 8.008 90.2455 6.172V1.12H88.4815V6.016C88.4815 8.956 89.7655 10.168 91.9375 10.168ZM97.5061 10H99.2821V6.652H100.59C102.45 6.652 103.926 5.788 103.926 3.808C103.926 1.768 102.45 1.12 100.59 1.12H97.5061V10ZM99.2821 5.248V2.536H100.422C101.574 2.536 102.198 2.86 102.198 3.808C102.198 4.756 101.574 5.248 100.422 5.248H99.2821ZM102.33 10H104.31L101.502 5.08L100.266 6.196L102.33 10ZM105.686 10H111.266V8.512H107.462V6.148H110.57V4.648H107.462V2.596H111.134V1.12H105.686V10Z" fill="#FEC22E"/>
</svg>
