<svg width="177" height="69" viewBox="0 0 177 69" fill="none" xmlns="http://www.w3.org/2000/svg">
<path d="M37.968 28.24V31.3H47.004V28.24H37.968ZM54.6 28.24V31.3H63.672V28.24H54.6ZM61.98 22.876V49.948C61.98 50.668 61.728 50.884 60.972 50.884C60.216 50.92 57.516 50.956 55.248 50.776C55.86 51.964 56.58 54.016 56.796 55.24C60.288 55.24 62.664 55.132 64.248 54.412C65.832 53.728 66.336 52.504 66.336 49.984V22.876H61.98ZM38.328 22.876V26.368H45.6V33.388H38.328V36.844H49.668V22.876H38.328ZM64.32 22.876H52.152V36.916H64.32V33.46H56.256V26.368H64.32V22.876ZM35.844 22.876V55.24H40.128V22.876H35.844ZM84.588 29.248V55.06H89.088V29.248H84.588ZM70.512 26.332V30.544H103.56V26.332H70.512ZM73.572 34.576V51.496H77.928V38.788H97.296V34.576H73.572ZM96.288 34.576V46.708C96.288 47.176 96.108 47.32 95.496 47.356C94.956 47.356 92.796 47.356 90.996 47.248C91.608 48.436 92.256 50.236 92.436 51.496C95.244 51.496 97.332 51.46 98.844 50.776C100.356 50.128 100.788 48.904 100.788 46.78V34.576H96.288ZM83.22 22.336C84.12 24.136 85.236 26.584 85.704 28.06L90.24 26.548C89.664 25.072 88.44 22.732 87.504 21.04L83.22 22.336ZM127.464 23.308V26.296H137.76V23.308H127.464ZM118.896 27.736V30.796H136.5V27.736H118.896ZM121.884 38.752V41.524H139.488V38.752H121.884ZM125.376 21.544V29.32H129.516V21.544H125.376ZM135.78 27.736V28.204C135.528 29.896 135.024 32.056 134.592 33.352L137.796 34.036C138.408 32.524 139.128 30.22 139.56 28.132L136.932 27.628L136.356 27.736H135.78ZM117.492 27.736V38.464C117.492 43 117.24 48.94 114.36 53.044C115.224 53.44 116.844 54.592 117.492 55.204C120.696 50.704 121.2 43.612 121.2 38.5V27.736H117.492ZM121.632 32.74L121.992 35.836L127.572 35.26L127.284 32.236L121.632 32.74ZM126.276 43.684C130.344 46.456 130.2 50.92 129.336 51.856C129.012 52.324 128.58 52.432 128.076 52.432C127.5 52.432 126.852 52.396 126.024 52.288C126.564 53.152 126.816 54.448 126.852 55.276C127.5 55.312 128.184 55.312 128.724 55.312C129.948 55.312 130.812 55.024 131.64 54.16C133.692 52.288 133.872 45.772 128.652 42.244L126.276 43.684ZM128.436 44.44C126.744 45.736 123.288 47.068 120.624 47.644C121.128 48.148 121.74 49.12 122.028 49.732C124.836 48.832 128.364 47.104 130.236 45.592L128.436 44.44ZM129.624 47.032C127.5 48.976 123.216 50.992 119.796 51.82C120.336 52.396 120.984 53.44 121.344 54.088C124.836 52.9 129.228 50.488 131.532 48.328L129.624 47.032ZM137.472 42.028C135.6 43.144 132.396 44.692 130.128 45.52L132 47.32C134.304 46.528 137.4 45.304 139.74 43.972L137.472 42.028ZM135.888 44.62L133.332 45.304C134.124 48.868 135.6 52.432 137.976 54.232C138.48 53.368 139.56 52.144 140.316 51.568C138.156 50.2 136.644 47.428 135.888 44.62ZM130.38 39.904C128.58 41.596 124.548 43.108 121.236 43.864C121.632 44.404 122.172 45.412 122.46 45.988C126.132 44.98 130.416 43.072 132.792 40.804L130.38 39.904ZM105.684 39.4L106.62 43.54C109.716 42.676 113.568 41.524 117.132 40.444L116.592 36.556C112.596 37.672 108.492 38.752 105.684 39.4ZM106.296 28.276V32.236H116.628V28.276H106.296ZM110.004 21.436V50.776C110.004 51.244 109.824 51.388 109.392 51.388C108.96 51.388 107.7 51.388 106.404 51.352C106.908 52.468 107.376 54.196 107.52 55.276C109.788 55.276 111.372 55.132 112.416 54.484C113.532 53.8 113.856 52.72 113.856 50.776V21.436H110.004ZM125.34 30.04V34.216C125.34 36.736 125.988 37.96 129.084 37.96C129.912 37.96 133.224 37.96 134.196 37.96C135.312 37.96 136.608 37.96 137.256 37.744C137.148 36.952 137.076 36.124 137.004 35.188C136.356 35.368 134.808 35.404 133.944 35.404C133.188 35.404 130.56 35.404 129.876 35.404C128.94 35.404 128.832 35.08 128.832 34.288V30.04H125.34ZM127.068 32.236L127.356 34.612L133.944 34L133.728 31.66L127.068 32.236ZM159.9 38.464V55.204H163.824V42.352H170.52V55.06H174.624V38.464H159.9ZM164.688 21.472V39.508H168.9V21.472H164.688ZM167.208 28.888V32.884H175.884V28.888H167.208ZM161.952 49.912V53.836H172.428V49.912H161.952ZM146.58 25.432H155.328V33.28H146.58V25.432ZM143.376 22.516V36.196H158.676V22.516H143.376ZM146.508 26.98C147.048 28.636 147.48 30.796 147.552 32.236L149.424 31.624C149.316 30.256 148.848 28.096 148.272 26.44L146.508 26.98ZM147.588 47.968C147.912 49.984 148.056 52.612 147.948 54.304L150.756 54.016C150.792 52.288 150.612 49.696 150.252 47.716L147.588 47.968ZM151.26 47.932C151.908 49.84 152.52 52.324 152.664 53.98L155.328 53.404C155.148 51.784 154.5 49.336 153.816 47.464L151.26 47.932ZM154.86 47.86C155.904 49.66 156.912 52.108 157.272 53.692L160.008 52.648C159.612 51.028 158.568 48.688 157.452 46.924L154.86 47.86ZM144.132 46.924C143.7 49.084 142.872 51.748 141.828 53.476L144.816 54.7C145.824 52.972 146.544 50.2 146.976 47.968L144.132 46.924ZM153.564 26.404C153.276 27.916 152.628 30.22 152.124 31.696L153.708 32.272C154.32 30.976 155.04 28.888 155.724 27.16L153.564 26.404ZM143.412 37.744V41.02H158.568V37.744H143.412ZM149.568 23.992V34.864H148.992V44.26H152.772V34.864H152.196V23.992H149.568ZM142.692 42.82V46.06H159.072V42.82H142.692Z" fill="white"/>
<path d="M33 66C16.5 66 3 52.5 3 36C3 19.5 16.5 6 33 6C38.5 6 43.6 7.5 48 10L49.5 7.4C44.6 4.6 39 3 33 3C14.8 3 0 17.8 0 36C0 54.2 14.8 69 33 69C39 69 44.6 67.4 49.5 64.6L48 62C43.6 64.5 38.5 66 33 66Z" fill="#FEC22E"/>
<path d="M59.092 10H64.48V8.512H60.868V1.12H59.092V10ZM69.0419 10.168C71.3939 10.168 73.0019 8.416 73.0019 5.524C73.0019 2.644 71.3939 0.964 69.0419 0.964C66.6779 0.964 65.0699 2.632 65.0699 5.524C65.0699 8.416 66.6779 10.168 69.0419 10.168ZM69.0419 8.632C67.7099 8.632 66.8819 7.42 66.8819 5.524C66.8819 3.628 67.7099 2.488 69.0419 2.488C70.3619 2.488 71.2019 3.628 71.2019 5.524C71.2019 7.42 70.3619 8.632 69.0419 8.632ZM78.3603 10.168C79.5123 10.168 80.4603 9.724 81.1923 8.872L80.2563 7.756C79.7883 8.272 79.1883 8.632 78.4323 8.632C77.0163 8.632 76.1163 7.48 76.1163 5.536C76.1163 3.64 77.1243 2.488 78.4563 2.488C79.1403 2.488 79.6443 2.788 80.1003 3.232L81.0363 2.092C80.4603 1.492 79.5603 0.964 78.4323 0.964C76.1763 0.964 74.3043 2.668 74.3043 5.596C74.3043 8.56 76.1163 10.168 78.3603 10.168ZM81.4832 10H83.2833L84.5553 5.38C84.8193 4.456 85.0713 3.436 85.3113 2.476H85.3593C85.6113 3.424 85.8633 4.456 86.1273 5.38L87.3993 10H89.2593L86.4153 1.12H84.3273L81.4832 10ZM83.2473 7.72H87.4713V6.352H83.2473V7.72ZM91.0904 10H92.8664V2.596H95.3744V1.12H88.5824V2.596H91.0904V10ZM96.8264 10H98.6024V1.12H96.8264V10ZM104.315 10.168C106.667 10.168 108.275 8.416 108.275 5.524C108.275 2.644 106.667 0.964 104.315 0.964C101.951 0.964 100.343 2.632 100.343 5.524C100.343 8.416 101.951 10.168 104.315 10.168ZM104.315 8.632C102.983 8.632 102.155 7.42 102.155 5.524C102.155 3.628 102.983 2.488 104.315 2.488C105.635 2.488 106.475 3.628 106.475 5.524C106.475 7.42 105.635 8.632 104.315 8.632ZM110.022 10H111.702V6.448C111.702 5.416 111.558 4.3 111.474 3.352H111.534L112.434 5.248L115.002 10H116.814V1.12H115.122V4.66C115.122 5.668 115.266 6.856 115.362 7.78H115.302L114.402 5.86L111.822 1.12H110.022V10Z" fill="#FEC22E"/>
</svg>
