<svg width="142" height="33" viewBox="0 0 142 33" fill="none" xmlns="http://www.w3.org/2000/svg">
<g clip-path="url(#clip0_1136_1732)">
<path d="M98.1332 24.7794H108.8L107.174 29.3508C108.292 29.2492 108.901 28.7413 109.206 27.827L110.628 23.8651H97.1173L94.1713 31.9921H90.5142L94.4761 21.1222H115.301L112.457 29.046C111.746 30.8746 110.425 31.8905 108.292 31.8905C108.19 31.8905 107.987 31.8905 107.682 31.8905C105.955 31.9921 104.838 32.0937 104.33 32.0937C104.33 31.8905 104.432 31.4841 104.533 31.0778C104.635 30.5698 104.635 30.1635 104.635 29.9603H96.3046L98.1332 24.7794ZM106.87 9.94762H110.73L110.222 11.4714H119.771L118.755 14.3159H95.9999L97.0157 11.4714H106.26L106.87 9.94762ZM113.371 20.3095H96.8126L98.7427 15.027H115.301L113.371 20.3095ZM100.978 26.9127L100.571 27.9286H104.228L104.635 26.9127H100.978ZM101.587 17.2619L101.282 18.1762H110.527L110.832 17.2619H101.587Z" fill="#3F3B3A"/>
<path d="M130.743 9.84603H134.705L133.282 13.7063H141.613L136.94 26.7095H132.978L133.486 25.3889H129.117L126.578 32.3984H122.616L125.155 25.3889H120.889L120.381 26.7095H116.419L121.092 13.7063H129.422L130.743 9.84603ZM123.733 17.2619L122.108 21.6302H126.375L128 17.2619H123.733ZM136.432 17.2619H132.063L130.438 21.6302H134.806L136.432 17.2619Z" fill="#3F3B3A"/>
<path d="M2.74286 0.5L0.507937 6.59524L0 8.11905H6.09524L6.70476 6.59524H11.2762L4.57143 24.881H3.04762L0.304762 32.5H12.4952L15.2381 24.881H13.7143L20.419 6.59524H24.9905L24.381 8.11905H30.4762L31.0857 6.59524L33.2191 0.5H2.74286Z" fill="#F29001"/>
<path d="M50.3874 0.5L47.6446 8.11905H50.6922L40.3303 15.7381L43.0731 8.11905H44.5969L47.3398 0.5H35.1493L32.4065 8.11905H33.9303L27.835 24.881H26.3112L23.5684 32.5H35.7588L38.5017 24.881H36.9779L38.0953 21.8333L43.1747 18.1762L44.5969 24.881H41.5493L38.8065 32.5H54.0446L56.7874 24.881H53.7398L51.0985 12.2841L56.7874 8.11905H61.3588L64.2033 0.5H50.3874Z" fill="#F29001"/>
<path d="M72.6349 20.3095H80.254C80.254 20.3095 81.7778 20.3095 80.9651 22.646C80.0508 24.881 78.527 24.881 78.527 24.881H70.908L72.6349 20.3095ZM77.0032 8.11905H84.6222C84.6222 8.11905 86.146 8.11905 85.3333 10.4556C84.5207 12.6905 82.9968 12.6905 82.9968 12.6905H75.3778L77.0032 8.11905ZM67.5556 0.5L64.8127 8.11905H67.8603L61.7651 24.881H58.7175L55.9746 32.5H80.3556C80.3556 32.5 86.7556 31.5857 89.3968 24.4746C92.3429 16.4492 87.7714 16.4492 87.7714 16.4492C87.7714 16.4492 92.7492 15.3317 95.1873 8.42381C97.727 1.3127 92.0381 0.398413 92.0381 0.398413H67.5556V0.5Z" fill="#F29001"/>
</g>
<defs>
<clipPath id="clip0_1136_1732">
<rect width="141.613" height="32" fill="white" transform="translate(0 0.5)"/>
</clipPath>
</defs>
</svg>
