<svg width="177" height="69" viewBox="0 0 177 69" fill="none" xmlns="http://www.w3.org/2000/svg">
<path d="M38.4 22.516V34.18H42.576V25.54H59.316V34.18H63.708V22.516H38.4ZM43.728 26.944V29.5H58.164V26.944H43.728ZM43.728 30.868V33.568H58.056V30.868H43.728ZM34.8 35.008V38.464H67.092V35.008H34.8ZM51.216 39.796V43.108H63.06V39.796H51.216ZM40.344 39.868V42.856H48.516V39.868H40.344ZM40.344 44.332V47.32H48.516V44.332H40.344ZM55.716 42.784L52.26 43.756C54.744 49.372 59.028 53.404 65.22 55.204C65.796 54.196 66.912 52.612 67.776 51.856C62.016 50.488 57.768 47.176 55.716 42.784ZM62.088 39.796V40.408C60.468 45.988 55.788 50.092 50.1 51.784C50.892 52.612 51.936 54.16 52.404 55.168C58.92 52.792 64.032 48.22 66.228 40.66L63.564 39.652L62.844 39.796H62.088ZM34.44 49.732L34.836 53.368C38.652 53.008 43.8 52.504 48.696 51.928L48.624 48.616C43.44 49.084 38.04 49.516 34.44 49.732ZM46.32 36.124V55.24H50.424V36.124H46.32ZM37.644 36.196V50.848H41.568V36.196H37.644ZM90.528 33.352V37.348H103.812V33.352H90.528ZM70.908 25V28.528H87.108V25H70.908ZM70.548 39.328V42.964H87.072V39.328H70.548ZM70.332 33.028V36.592H87.684V33.028H70.332ZM96.252 35.116V55.06H100.464V35.116H96.252ZM72.816 29.212C73.284 30.472 73.716 32.2 73.896 33.28L77.46 32.272C77.28 31.228 76.776 29.608 76.236 28.384L72.816 29.212ZM81.636 28.348C81.24 29.86 80.484 32.02 79.872 33.424L83.364 34.18C84.048 32.884 84.768 31.012 85.56 29.104L81.636 28.348ZM99.852 21.76C97.224 22.984 92.868 24.136 88.908 24.856C89.376 25.756 89.988 27.232 90.168 28.132C94.452 27.484 99.42 26.404 103.2 24.928L99.852 21.76ZM75.984 22.12C76.668 23.74 77.424 25.9 77.712 27.232L82.248 26.008C81.924 24.676 81.06 22.624 80.34 21.076L75.984 22.12ZM88.908 24.856V37.78C88.908 42.46 88.692 48.472 86.028 52.576C86.928 53.044 88.656 54.376 89.34 55.132C92.436 50.524 92.904 43.072 92.904 37.78V24.856H88.908ZM82.248 45.268C83.256 46.924 84.48 49.228 85.056 50.668L87.972 48.832C87.396 47.464 86.172 45.34 85.056 43.684L82.248 45.268ZM73.104 44.116C72.348 46.348 71.16 48.868 69.9 50.524C70.728 50.992 72.132 51.964 72.744 52.504C74.004 50.632 75.516 47.644 76.416 45.088L73.104 44.116ZM77.28 35.008V54.988H81.492V35.008H77.28ZM120.3 31.516V35.44H135.132V31.516H120.3ZM118.32 31.516V42.676C118.32 46.096 118.212 50.236 116.592 53.152C117.528 53.584 119.292 54.844 119.976 55.528C121.992 52.18 122.28 46.78 122.28 42.676V31.516H118.32ZM122.28 44.728L123.54 48.256C126.852 47.464 131.064 46.384 135.024 45.304L134.592 41.992C130.092 43.036 125.412 44.116 122.28 44.728ZM122.784 39.328C125.484 40.048 129.012 41.452 130.74 42.532L132.612 39.616C130.776 38.572 127.212 37.312 124.548 36.7L122.784 39.328ZM135.24 22.264C134.52 24.46 133.152 27.304 132.072 29.14L135.816 30.544C136.932 28.816 138.264 26.26 139.452 23.74L135.24 22.264ZM117.348 24.136C118.752 26.224 120.156 28.996 120.624 30.832L124.512 28.996C123.972 27.16 122.424 24.496 120.984 22.516L117.348 24.136ZM133.908 31.516V50.524C133.908 51.028 133.728 51.172 133.188 51.208C132.648 51.208 130.74 51.208 129.084 51.1C129.624 52.216 130.2 54.016 130.38 55.168C133.08 55.168 135.024 55.132 136.392 54.448C137.724 53.8 138.12 52.648 138.12 50.596V31.516H133.908ZM126.132 21.4V34.18H130.488V21.4H126.132ZM107.988 25C110.04 26.26 113.028 28.096 114.432 29.248L117.096 25.792C115.548 24.748 112.488 23.056 110.508 21.94L107.988 25ZM105.864 34.972C107.988 36.124 111.12 37.852 112.596 38.86L115.008 35.296C113.424 34.288 110.22 32.74 108.168 31.768L105.864 34.972ZM107.124 51.892L110.76 54.808C112.92 51.316 115.224 47.212 117.132 43.396L113.964 40.552C111.804 44.692 109.032 49.192 107.124 51.892ZM151.656 32.632H165.984V34.288H151.656V32.632ZM151.656 37.384H165.984V39.076H151.656V37.384ZM151.656 27.916H165.984V29.572H151.656V27.916ZM147.516 24.604V42.352H170.34V24.604H147.516ZM156.768 21.04C156.552 22.3 156.048 23.956 155.616 25.252L159.612 26.008C160.26 24.928 161.196 23.416 162.024 21.688L156.768 21.04ZM150.072 44.548V49.552C150.072 53.44 151.368 54.628 156.48 54.628C157.488 54.628 162.24 54.628 163.32 54.628C167.424 54.628 168.648 53.404 169.188 48.328C168 48.112 166.128 47.464 165.228 46.816C165.012 50.236 164.724 50.704 162.996 50.704C161.772 50.704 157.812 50.704 156.876 50.704C154.788 50.704 154.428 50.56 154.428 49.48V44.548H150.072ZM155.868 43.504C157.56 45.196 159.432 47.572 160.188 49.192L163.716 47.104C162.852 45.484 160.908 43.216 159.18 41.632L155.868 43.504ZM167.712 44.908C169.26 47.356 170.88 50.668 171.42 52.792L175.524 50.992C174.912 48.832 173.184 45.664 171.564 43.324L167.712 44.908ZM145.5 43.972C144.708 46.492 143.34 49.516 142.044 51.568L146.076 53.476C147.264 51.316 148.452 48.04 149.352 45.592L145.5 43.972Z" fill="white"/>
<path d="M33 66C16.5 66 3 52.5 3 36C3 19.5 16.5 6 33 6C38.5 6 43.6 7.5 48 10L49.5 7.4C44.6 4.6 39 3 33 3C14.8 3 0 17.8 0 36C0 54.2 14.8 69 33 69C39 69 44.6 67.4 49.5 64.6L48 62C43.6 64.5 38.5 66 33 66Z" fill="#FEC22E"/>
<path d="M59.092 10H60.772V6.448C60.772 5.416 60.628 4.3 60.544 3.352H60.604L61.504 5.248L64.072 10H65.884V1.12H64.192V4.66C64.192 5.668 64.336 6.856 64.432 7.78H64.372L63.472 5.86L60.892 1.12H59.092V10ZM68.0803 10H73.6603V8.512H69.8563V6.148H72.9643V4.648H69.8563V2.596H73.5283V1.12H68.0803V10ZM76.3031 10H78.4751L79.4471 5.608C79.5791 4.924 79.7111 4.228 79.8311 3.556H79.8791C79.9871 4.228 80.1071 4.924 80.2631 5.608L81.2471 10H83.4671L85.1111 1.12H83.4311L82.7111 5.452C82.5911 6.388 82.4471 7.336 82.3271 8.296H82.2671C82.0631 7.336 81.8951 6.376 81.7031 5.452L80.6711 1.12H79.1471L78.1271 5.452C77.9351 6.388 77.7431 7.336 77.5631 8.296H77.5151C77.3711 7.336 77.2391 6.388 77.0951 5.452L76.3991 1.12H74.5871L76.3031 10ZM89.0018 10.168C91.0418 10.168 92.2538 8.932 92.2538 7.48C92.2538 6.208 91.5458 5.512 90.4778 5.068L89.3138 4.588C88.5578 4.288 87.9218 4.048 87.9218 3.412C87.9218 2.836 88.4138 2.488 89.1938 2.488C89.9258 2.488 90.5138 2.752 91.0898 3.22L91.9778 2.104C91.2578 1.372 90.2258 0.964 89.1938 0.964C87.4058 0.964 86.1218 2.08 86.1218 3.532C86.1218 4.816 87.0338 5.548 87.9218 5.908L89.1098 6.412C89.9018 6.748 90.4418 6.964 90.4418 7.624C90.4418 8.236 89.9618 8.632 89.0378 8.632C88.2578 8.632 87.4058 8.248 86.7818 7.66L85.7618 8.884C86.6258 9.712 87.8018 10.168 89.0018 10.168Z" fill="#FEC22E"/>
</svg>
