<svg width="560" height="320" viewBox="0 0 560 320" fill="none" xmlns="http://www.w3.org/2000/svg">
<path d="M480 160C480 204.2 515.8 240 560 240H480V160Z" fill="white"/>
<path d="M480 160C480 115.8 515.8 80 560 80C560 124.2 524.2 160 480 160Z" fill="white"/>
<path d="M320 160H400V240C400 195.8 364.2 160 320 160Z" fill="white"/>
<path d="M480 160V240H400C444.2 240 480 204.2 480 160Z" fill="white"/>
<path d="M400 80H480V160C480 115.8 444.2 80 400 80Z" fill="white"/>
<path d="M320 160C364.2 160 400 124.2 400 80V160H320Z" fill="white"/>
<path d="M320 160V80H400C355.8 80 320 115.8 320 160Z" fill="white"/>
<path d="M320 160C320 115.8 355.8 80 400 80C400 124.2 364.2 160 320 160Z" fill="white"/>
<path d="M160 160H240V240C240 195.8 204.2 160 160 160Z" fill="white"/>
<path d="M320 160C275.8 160 240 195.8 240 240V160H320Z" fill="white"/>
<path d="M320 160C320 204.2 284.2 240 240 240C240 195.8 275.8 160 320 160Z" fill="white"/>
<path d="M240 80H320V160C320 115.8 284.2 80 240 80Z" fill="white"/>
<path d="M320 160C275.8 160 240 124.2 240 80C284.2 80 320 115.8 320 160Z" fill="white"/>
<path d="M160 160V80H240C195.8 80 160 115.8 160 160Z" fill="white"/>
<path d="M400 240C444.2 240 480 275.8 480 320C435.8 320 400 284.2 400 240Z" fill="white"/>
<path d="M480 0C480 44.2 515.8 80 560 80H480V0Z" fill="white"/>
<path d="M480 0C524.2 0 560 35.8 560 80C515.8 80 480 44.2 480 0Z" fill="white"/>
<path d="M400 80C355.8 80 320 44.2 320 0C364.2 0 400 35.8 400 80Z" fill="white"/>
<path d="M400 80V0H480C435.8 0 400 35.8 400 80Z" fill="white"/>
<path d="M400 80C400 35.8 435.8 0 480 0C480 44.2 444.2 80 400 80Z" fill="white"/>
<path d="M240 80H160V0C160 44.2 195.8 80 240 80Z" fill="white"/>
<path d="M240 80V0H320C275.8 0 240 35.8 240 80Z" fill="white"/>
<path d="M80 80H160V160C160 115.8 124.2 80 80 80Z" fill="white"/>
<path d="M80 80C35.8 80 0 44.2 0 0C44.2 0 80 35.8 80 80Z" fill="white"/>
<path d="M80 80C124.2 80 160 44.2 160 0V80H80Z" fill="white"/>
<path d="M80 80C80 35.8 115.8 0 160 0C160 44.2 124.2 80 80 80Z" fill="white"/>
</svg>
