<svg width="177" height="69" viewBox="0 0 177 69" fill="none" xmlns="http://www.w3.org/2000/svg">
<path d="M62.304 22.048C60.432 24.928 56.868 27.808 53.808 29.5C54.888 30.292 56.184 31.552 56.868 32.488C60.324 30.328 63.888 27.196 66.408 23.704L62.304 22.048ZM63.204 31.84C61.188 34.9 57.228 37.96 53.916 39.724C54.996 40.516 56.22 41.812 56.904 42.748C60.576 40.48 64.5 37.168 67.164 33.496L63.204 31.84ZM63.816 41.92C61.62 46.024 57.408 49.552 53.124 51.604C54.204 52.468 55.428 53.908 56.112 54.952C60.828 52.288 65.112 48.328 67.812 43.396L63.816 41.92ZM34.62 34.72V38.032H54.852V34.72H34.62ZM40.776 42.028H48.876V43.9H40.776V42.028ZM36.78 39.22V46.708H53.052V39.22H36.78ZM47.436 48.076C48.552 49.948 49.812 52.432 50.352 54.016L53.556 52.468C52.98 50.956 51.612 48.58 50.46 46.78L47.436 48.076ZM40.308 29.14H49.344V30.472H40.308V29.14ZM40.308 25.324H49.344V26.656H40.308V25.324ZM36.24 22.696V33.1H53.592V22.696H36.24ZM42.612 45.124V51.316C42.612 51.64 42.54 51.748 42.144 51.748C41.784 51.784 40.632 51.784 39.588 51.748C40.056 52.72 40.596 54.124 40.776 55.204C42.72 55.204 44.232 55.168 45.384 54.628C46.572 54.088 46.86 53.188 46.86 51.424V45.124H42.612ZM37.824 46.816C37.068 48.616 35.844 50.524 34.584 51.892C35.412 52.432 36.852 53.548 37.5 54.16C38.868 52.612 40.452 50.092 41.388 47.896L37.824 46.816ZM42.252 33.676C42.72 34.576 43.188 35.872 43.368 36.664L47.652 35.764C47.472 34.9 46.896 33.712 46.356 32.848L42.252 33.676ZM72.816 24.352V28.168H101.544V24.352H72.816ZM70.8 32.596V36.448H103.2V32.596H70.8ZM78.072 44.656V47.896H96.036V44.656H78.072ZM78.072 50.488V54.052H96.036V50.488H78.072ZM75.264 38.68V55.276H79.584V42.244H94.596V55.24H99.132V38.68H75.264ZM92.544 27.844C92.148 29.392 91.356 31.552 90.672 32.992L94.812 33.964C95.568 32.668 96.432 30.796 97.368 28.852L92.544 27.844ZM77.244 28.852C78.036 30.328 78.756 32.416 78.936 33.748L83.436 32.74C83.184 31.408 82.428 29.464 81.492 28.024L77.244 28.852ZM83.868 21.724C84.588 23.092 85.272 25 85.452 26.224L90.132 25.324C89.88 24.1 89.196 22.336 88.332 21.04L83.868 21.724ZM115.332 41.02H130.992V42.568H115.332V41.02ZM115.332 45.016H130.992V46.6H115.332V45.016ZM115.332 37.06H130.992V38.572H115.332V37.06ZM111.156 34.468V49.156H135.348V34.468H111.156ZM125.844 50.92C129.408 52.252 133.116 54.016 135.204 55.204L139.056 52.9C136.608 51.676 132.396 49.948 128.688 48.652L125.844 50.92ZM117.024 48.796C114.576 50.2 110.292 51.46 106.476 52.144C107.448 52.9 108.924 54.484 109.68 55.312C113.352 54.304 118.032 52.504 120.984 50.596L117.024 48.796ZM121.2 23.632V26.764H135.78V23.632H121.2ZM121.488 21.22C120.696 23.668 119.184 26.08 117.276 27.664C118.176 28.168 119.76 29.212 120.48 29.824C122.424 28.024 124.26 25.072 125.268 22.084L121.488 21.22ZM125.16 26.044V27.304C125.16 28.744 124.08 30.508 115.224 31.192C115.98 31.984 117.06 33.46 117.456 34.432C127.644 33.28 129.084 30.112 129.084 27.484V26.044H125.16ZM128.724 27.484L125.7 28.096C127.86 31.732 131.784 33.712 137.4 34.396C137.868 33.316 138.912 31.768 139.74 30.94C134.556 30.688 130.596 29.644 128.724 27.484ZM107.232 23.2V26.368H116.484V23.2H107.232ZM106.44 28.78V32.056H117.348V28.78H106.44ZM134.268 23.632V24.136C133.692 25.684 132.684 27.592 131.856 28.816L135.168 30.076C136.32 28.636 137.58 26.368 138.48 24.352L135.528 23.452L134.916 23.632H134.268ZM154.176 23.308V27.196H175.488V23.308H154.176ZM152.88 23.308V33.28C152.88 39.148 152.52 47.356 148.488 52.972C149.496 53.404 151.332 54.556 152.124 55.276C156.408 49.264 157.056 39.688 157.056 33.28V23.308H152.88ZM162.168 38.248H170.484V40.228H162.168V38.248ZM162.168 33.388H170.484V35.332H162.168V33.388ZM158.316 30.292V43.324H174.48V30.292H158.316ZM158.928 44.764C158.028 46.996 156.624 49.516 155.22 51.208C156.156 51.712 157.776 52.684 158.604 53.296C159.936 51.424 161.664 48.436 162.744 45.844L158.928 44.764ZM169.152 45.772C170.34 48.076 171.78 51.136 172.428 52.972L176.388 51.244C175.668 49.48 174.084 46.528 172.896 44.332L169.152 45.772ZM164.076 27.052C163.824 28.276 163.284 30.04 162.78 31.3L166.236 32.236C167.028 31.192 168 29.572 168.972 27.916L164.076 27.052ZM164.04 42.028V51.064C164.04 51.424 163.896 51.532 163.5 51.568C163.068 51.568 161.592 51.568 160.332 51.532C160.8 52.576 161.304 54.124 161.448 55.204C163.68 55.24 165.372 55.204 166.596 54.628C167.892 54.052 168.144 53.008 168.144 51.172V42.028H164.04ZM143.7 24.784C145.572 25.936 148.308 27.628 149.604 28.672L152.196 25.216C150.792 24.244 148.02 22.696 146.22 21.724L143.7 24.784ZM141.972 34.54C143.844 35.62 146.544 37.24 147.876 38.212L150.432 34.72C149.028 33.82 146.256 32.344 144.456 31.408L141.972 34.54ZM142.44 52.468L146.364 54.772C147.984 51.208 149.64 47.068 151.008 43.18L147.48 40.804C145.968 45.052 143.916 49.624 142.44 52.468Z" fill="white"/>
<path d="M33 66C16.5 66 3 52.5 3 36C3 19.5 16.5 6 33 6C38.5 6 43.6 7.5 48 10L49.5 7.4C44.6 4.6 39 3 33 3C14.8 3 0 17.8 0 36C0 54.2 14.8 69 33 69C39 69 44.6 67.4 49.5 64.6L48 62C43.6 64.5 38.5 66 33 66Z" fill="#FEC22E"/>
<path d="M60.652 10H62.764L65.488 1.12H63.676L62.524 5.44C62.26 6.436 62.068 7.312 61.78 8.32H61.72C61.444 7.312 61.24 6.436 60.964 5.44L59.8 1.12H57.928L60.652 10ZM66.5217 10H68.2977V1.12H66.5217V10ZM70.4826 10H73.0146C75.6306 10 77.2986 8.512 77.2986 5.524C77.2986 2.524 75.6306 1.12 72.9186 1.12H70.4826V10ZM72.2586 8.572V2.536H72.7986C74.4666 2.536 75.4866 3.364 75.4866 5.524C75.4866 7.684 74.4666 8.572 72.7986 8.572H72.2586ZM79.049 10H84.629V8.512H80.825V6.148H83.933V4.648H80.825V2.596H84.497V1.12H79.049V10ZM89.9598 10.168C92.3118 10.168 93.9198 8.416 93.9198 5.524C93.9198 2.644 92.3118 0.964 89.9598 0.964C87.5958 0.964 85.9878 2.632 85.9878 5.524C85.9878 8.416 87.5958 10.168 89.9598 10.168ZM89.9598 8.632C88.6278 8.632 87.7998 7.42 87.7998 5.524C87.7998 3.628 88.6278 2.488 89.9598 2.488C91.2798 2.488 92.1198 3.628 92.1198 5.524C92.1198 7.42 91.2798 8.632 89.9598 8.632Z" fill="#FEC22E"/>
</svg>
