<?xml version="1.0" encoding="UTF-8"?>
<svg id="uuid-c90e5adf-9182-4d29-9be6-dcb3d62a4a7f" data-name="圖層 2" xmlns="http://www.w3.org/2000/svg" viewBox="0 0 741.74 215.47">
  <defs>
    <style>
      .uuid-aa75455b-d774-4f68-825c-45a5fdc489d0 {
        fill: none;
      }

      .uuid-2ca12b8b-dfe5-43bc-b958-08fab633dfd1 {
        fill: #f29001;
      }

      .uuid-e3ffb7ad-2ba5-4c98-bf67-b7d3adaac16b {
        fill: #fff;
      }

      .uuid-71b31f1d-3f70-4d94-89ae-567caf905ed7 {
        fill: #424242;
      }

      .uuid-12972f0f-0af9-4875-939b-4ab847a1fb59 {
        fill: #59b5b2;
      }
    </style>
  </defs>
  <g id="uuid-789f782c-0876-4b58-b98c-dc6ca2672fc9" data-name="圖層 1">
    <g>
      <path class="uuid-71b31f1d-3f70-4d94-89ae-567caf905ed7" d="m512.65,121.92l-12.7,14.31c-2.8,3.18-5.96,4.77-9.64,4.77h-9.13l3.23-8.86h4.36c1.63,0,3.29-.8,4.68-2.39l6.94-7.83h12.26Zm49.86-77.1l-23.72,65.18c-1.65,4.54-5.3,6.7-10.89,6.7h-31.47l26.16-71.88h39.92Zm-18.9,21.24l4.34-11.92h-17.03l-4.34,11.92h17.03Zm-7.6,20.89l4.38-12.04h-17.03l-4.39,12.04h17.03Zm-6.61,18.17l3.39-9.31h-17.03l-4.34,11.92h13.9c2.04,0,3.42-.79,4.08-2.61m.29,16.81l.68,8.97c.13,1.14.74,1.7,1.83,1.7h3.68l-3.06,8.4h-8.44c-4.22,0-6.37-1.59-6.48-4.65l-.48-14.42h12.26Zm103.96-67.79h-10.08l-2.39,6.59h8.99l-2.77,7.61h-8.99l-2.4,6.59h12.81l-3.1,8.51h-29.83l-2.23,6.13h24.38l-10.99,30.2h5.86l-3.22,8.86h-5.86l-2.6,7.16c-1.82,5-6.81,7.5-14.85,7.5h-20.3l2.89-7.95h17.58c1.36,0,2.43-.68,2.84-1.82l1.77-4.88h-36.78l-5.66,15.56h-12.81l5.66-15.56h-6.27l3.23-8.86h6.27l10.99-30.2h25.07l2.23-6.13h-30.38l3.1-8.51h14.44l2.4-6.59h-10.63l2.77-7.61h10.62l2.4-6.59h-12.26l2.77-7.61h12.26l2.07-5.68h12.26l-2.06,5.68h21.25l2.07-5.68h12.26l-2.06,5.68h10.08l-2.77,7.61Zm-58.47,50.98l2.73-7.5h-12.26l-2.73,7.5h12.26Zm-5.33,14.65l2.6-7.16h-12.26l-2.6,7.16h12.26Zm41.46-65.63h-21.25l-2.4,6.59h21.25l2.4-6.59Zm-7.56,20.78l2.4-6.59h-21.25l-2.4,6.59h21.25Zm-15.76,30.2h11.71l2.73-7.5h-11.72l-2.73,7.5Zm6.38,14.65l2.6-7.16h-11.72l-2.61,7.16h11.72Z"/>
      <polygon class="uuid-2ca12b8b-dfe5-43bc-b958-08fab633dfd1" points="97.19 1.76 87.38 28.71 84.93 35.45 111.88 35.45 114.33 28.71 134.54 28.71 105.12 109.56 98.38 109.56 86.12 143.25 140.02 143.25 152.28 109.56 145.54 109.56 174.97 28.71 195.18 28.71 192.73 35.45 219.68 35.45 222.13 28.71 231.94 1.76 97.19 1.76"/>
      <polygon class="uuid-2ca12b8b-dfe5-43bc-b958-08fab633dfd1" points="307.8 1.76 295.54 35.45 309.02 35.45 263.07 69.14 275.33 35.45 282.07 35.45 294.33 1.76 240.43 1.76 228.17 35.45 234.9 35.45 207.93 109.56 201.19 109.56 188.93 143.25 242.83 143.25 255.09 109.56 248.36 109.56 253.26 96.09 275.66 79.66 282.04 109.56 268.57 109.56 256.31 143.25 323.68 143.25 335.94 109.56 322.47 109.56 310.62 54.03 335.97 35.45 356.18 35.45 368.44 1.76 307.8 1.76"/>
      <path class="uuid-2ca12b8b-dfe5-43bc-b958-08fab633dfd1" d="m405.69,89.35h33.69s6.73,0,3.06,10.11c-3.68,10.11-10.41,10.11-10.41,10.11h-33.69l7.36-20.21Zm19.62-53.9h33.69s6.74,0,3.06,10.11c-3.68,10.11-10.41,10.11-10.41,10.11h-33.69l7.36-20.21ZM383.67,1.76l-12.26,33.69h13.47l-26.97,74.11h-13.48l-12.26,33.69h107.8s28.45-4.12,39.82-35.37c12.88-35.37-7.21-35.37-7.21-35.37,0,0,21.86-4.87,32.96-35.37,11.41-31.35-14.07-35.37-14.07-35.37h-107.8Z"/>
      <g>
        <polygon class="uuid-12972f0f-0af9-4875-939b-4ab847a1fb59" points="34.84 191.28 46.81 157.57 47.83 154.71 50.86 154.71 61.97 154.71 65.62 144.67 19.01 144.67 23.18 167.98 2.05 191.28 34.84 191.28"/>
        <polygon class="uuid-12972f0f-0af9-4875-939b-4ab847a1fb59" points="740.12 144.46 693.51 144.46 689.78 154.71 707.44 154.71 713.53 154.71 711.49 160.45 700.62 191.07 723.15 191.07 718.99 167.76 740.12 144.46"/>
        <polygon class="uuid-12972f0f-0af9-4875-939b-4ab847a1fb59" points="686.35 213.73 34.04 213.73 53.34 159.27 705.65 159.27 686.35 213.73"/>
      </g>
      <g>
        <path class="uuid-e3ffb7ad-2ba5-4c98-bf67-b7d3adaac16b" d="m76.35,177.84v2.52c-1.31,2.61-2.81,5.14-4.56,7.62h5.71v2.13c-.71,3.59-1.66,6.55-2.81,8.9.32.22.59.49.91.8,1.27,1.33,2.54,2.3,3.84,2.97,1.27.58,3.05.89,5.35.97h7.49c2.81,0,6.5-.09,11.01-.22l-.63,3.05h-10.02c-3.01,0-5.67-.04-8-.13-2.73-.09-4.83-.49-6.26-1.15-1.66-.75-3.17-1.9-4.52-3.45-.32-.31-.63-.44-.95-.44-.95,0-2.34,1.95-4.08,5.89l-2.1-2.08c1.9-4.16,3.72-6.42,5.43-6.86,1.11-2.21,1.98-4.78,2.61-7.66h-6.3v-2.44c1.86-2.48,3.45-5,4.75-7.48h-5.98v-2.92h9.11Zm-.04-4.29l-1.86,2.08c-1.51-2.04-3.49-4.16-5.98-6.38l1.86-2.04c2.38,2.13,4.36,4.21,5.98,6.33Zm2.02,9.92l-.87-3.01c2.93-4.07,5.03-8.5,6.26-13.28l2.61.49c-.48,1.77-1.03,3.45-1.66,5.09h7.37c-.63-1.82-1.39-3.54-2.26-5.18l2.61-.8c.95,2.04,1.66,3.94,2.18,5.67l-.71.31h7.49v2.88h-7.13v5.14h6.1v2.83h-6.1v4.96h6.14v2.79h-6.14v5.22h7.69v2.88h-20.6v-20.14c-.91,1.42-1.9,2.83-2.97,4.16Zm13.19-7.84h-7.49v5.14h7.49v-5.14Zm0,7.97h-7.49v4.96h7.49v-4.96Zm0,7.75h-7.49v5.22h7.49v-5.22Z"/>
        <path class="uuid-e3ffb7ad-2ba5-4c98-bf67-b7d3adaac16b" d="m125.09,168.05c-.95,3.32-2.1,6.46-3.49,9.39v29.97h-2.73v-24.93c-1.23,1.99-2.58,3.9-4.04,5.67l-.83-3.19c3.92-5.31,6.77-11.38,8.56-18.24l2.54,1.33Zm2.61,6.51v25.06h-2.58v-25.06h2.58Zm10.5-7.61c-.36,1.2-.79,2.35-1.31,3.41h11.93v2.92h-2.77c-.79,3.1-2.26,5.67-4.36,7.75,2.34,1.15,5.19,2.04,8.56,2.74l-1.03,2.79c-3.96-.93-7.25-2.17-9.83-3.67-2.5,1.68-5.63,2.92-9.35,3.72l-1.07-2.66c3.17-.62,5.82-1.51,7.96-2.75-1.78-1.42-3.09-3.05-3.92-4.87l2.18-1.06c.87,1.68,2.26,3.1,4.08,4.34,2.02-1.73,3.41-3.85,4.12-6.33h-8.24c-1.31,1.86-2.89,3.5-4.76,5l-1.62-2.35c3.25-2.57,5.47-5.71,6.66-9.39l2.77.4Zm-8.28,37.85c4.52-1.33,8.16-2.92,10.98-4.78,2.85-1.82,5.27-4.21,7.25-7.17l2.02,1.73c-1.74,3.01-4.4,5.71-7.96,8.06-3.57,2.21-7.29,3.9-11.09,5.05l-1.19-2.88Zm13.15-17.89c-1.51,1.42-3.05,2.57-4.6,3.5-1.66.93-3.88,1.9-6.58,2.88l-1.39-2.52c2.22-.58,4.28-1.33,6.1-2.26,1.58-.89,3.01-1.9,4.36-3.06l2.1,1.46Zm3.57,3.45c-3.17,4.43-7.81,7.57-13.95,9.52l-1.11-2.75c5.82-1.68,10.22-4.47,13.15-8.37l1.9,1.59Z"/>
        <path class="uuid-e3ffb7ad-2ba5-4c98-bf67-b7d3adaac16b" d="m181.67,185.05c.48.53.71,1.15.71,1.95,0,.75-.24,1.42-.71,1.95-.48.49-1.07.75-1.74.75-.71,0-1.27-.27-1.74-.75-.48-.53-.67-1.2-.67-1.95,0-.8.2-1.42.67-1.95s1.03-.8,1.74-.8c.67,0,1.27.27,1.74.8Z"/>
        <path class="uuid-e3ffb7ad-2ba5-4c98-bf67-b7d3adaac16b" d="m238.09,189.7v2.39c-2.65,1.33-5.63,2.57-8.88,3.76v1.42h15.61v2.61h-15.61v3.94c0,2.21-1.07,3.32-3.17,3.32h-4.48l-.63-2.61c1.27.04,2.69.09,4.24.09.95,0,1.43-.58,1.43-1.73v-3.01h-16.44v-2.61h16.44v-2.61c3.01-1.06,5.35-1.9,7.05-2.57h-17.39v-2.39h21.83Zm-22.27-10.45h5.9v2.26h-5.74l.24,3.01h22.54l.2-3.01h-5.71v-2.26h5.86l.16-2.79h-5.9v-2.26h6.02l.2-3.19h-6.5v-2.57h9.15l-.87,16.07h2.81v7.04h-2.73v-4.65h-27.97v4.6h-2.73v-7h2.85l-1.03-15.36c3.05-.44,5.83-1.15,8.28-2.08l.95,2.48c-1.35.53-3.53,1.15-6.54,1.77l.2,2.88h6.14v2.26h-5.98l.2,2.79Zm11.85-8.94c.87-.84,1.7-1.77,2.42-2.79l1.62,1.15c-.79,1.11-1.62,2.08-2.42,2.88.99.75,1.9,1.51,2.7,2.3l-1.39,1.55c-.83-.84-1.78-1.68-2.85-2.52-1.19.93-2.61,1.86-4.28,2.75l-1.07-1.95c1.35-.53,2.58-1.24,3.68-2.08-.99-.71-2.06-1.46-3.17-2.17l1.35-1.46c1.23.8,2.38,1.55,3.41,2.35Zm.24,7.97c.91-.89,1.74-1.82,2.5-2.88l1.7,1.2c-.83,1.15-1.66,2.13-2.5,2.92,1.03.8,1.98,1.64,2.85,2.44l-1.39,1.59c-.87-.89-1.9-1.77-3.05-2.66-1.15.88-2.54,1.77-4.2,2.66l-1.07-1.95c1.27-.53,2.46-1.2,3.57-1.99-.99-.71-2.02-1.37-3.05-2.04l1.39-1.46c1.15.71,2.22,1.46,3.25,2.17Z"/>
        <path class="uuid-e3ffb7ad-2ba5-4c98-bf67-b7d3adaac16b" d="m270.78,170.62h-11.21v-2.61h13.91v14.57c0,2.13-1.07,3.19-3.17,3.19h-3.37l-.59-2.57,3.45.09c.63,0,.99-.58.99-1.64v-2.7c-3.41,1.86-7.25,3.54-11.61,5.14l-.67-2.79c4.48-1.42,8.56-3.06,12.28-4.91v-5.76Zm-3.21,3.94l-.79,2.26c-2.34-.93-4.76-1.64-7.21-2.17l1.07-2.26c2.38.53,4.72,1.24,6.93,2.17Zm21,32.85h-2.73v-1.99h-19.93v1.99h-2.73v-19.57h10.02c.55-1.15.95-2.35,1.27-3.59l2.65.4c-.28,1.15-.67,2.21-1.15,3.19h12.6v19.57Zm-2.73-12.13v-4.52h-19.93v4.52h19.93Zm0,7.17v-4.34h-19.93v4.34h19.93Zm1.31-31.83h-11.61v-2.61h14.3v14.7c0,1.95-1.11,2.97-3.29,2.97h-3.17l-.59-2.57,3.25.09c.71,0,1.11-.49,1.11-1.42v-2.88c-3.25,1.77-6.97,3.45-11.09,4.96l-.67-2.79c4.28-1.33,8.2-2.88,11.77-4.65v-5.8Zm-3.33,4.07l-.83,2.26c-2.3-1.02-4.72-1.82-7.17-2.35l1.07-2.26c2.42.53,4.72,1.33,6.93,2.35Z"/>
        <path class="uuid-e3ffb7ad-2ba5-4c98-bf67-b7d3adaac16b" d="m324.31,185.05c.48.53.71,1.15.71,1.95,0,.75-.24,1.42-.71,1.95-.48.49-1.07.75-1.74.75-.71,0-1.27-.27-1.74-.75-.48-.53-.67-1.2-.67-1.95,0-.8.2-1.42.67-1.95s1.03-.8,1.74-.8c.67,0,1.27.27,1.74.8Z"/>
        <path class="uuid-e3ffb7ad-2ba5-4c98-bf67-b7d3adaac16b" d="m366.99,171.24v-4.56h2.85v4.56h8.95v2.48c1.66-1.9,3.21-3.9,4.56-5.93l2.1,1.77c-2.3,3.45-4.87,6.6-7.73,9.43h9.71v3.06h-13.12c-1.98,1.59-4.04,3.1-6.18,4.47h16.96v2.88h-19.65l-1.31,4.56h18.98c-.28,6.11-.87,9.78-1.78,10.98-.91,1.15-2.7,1.73-5.39,1.73-1.86,0-3.53-.09-4.95-.27l-.91-2.79c1.98.13,3.73.22,5.27.22,2.06,0,3.33-.4,3.88-1.15.47-.8.79-2.79,1.03-5.93h-19.49l1.78-7.08c-3.05,1.51-6.22,2.83-9.55,3.98l-1.15-2.88c6.7-2.26,12.56-5.18,17.63-8.72h-15.93v-3.06h13.43v-4.78h-10.58v-2.97h10.58Zm11.37,2.97h-8.52v4.78h3.57c1.78-1.51,3.45-3.1,4.95-4.78Z"/>
        <path class="uuid-e3ffb7ad-2ba5-4c98-bf67-b7d3adaac16b" d="m407.84,171.99l-1.35.58h6.02v2.97h-12.44v-2.97h5.23c-.55-1.77-1.19-3.5-1.9-5.09l2.77-.84c.71,1.95,1.27,3.76,1.67,5.36Zm3.64,34.71h-2.65v-2.13h-5.35v2.75h-2.65v-15.54h10.66v14.92Zm-.32-27.58v2.79h-9.98v-2.79h9.98Zm0,5.98v2.83h-9.98v-2.83h9.98Zm-2.34,16.56v-7.04h-5.35v7.04h5.35Zm14.62-17.05v2.88h-3.61v10.8c1.55-.31,3.05-.66,4.52-1.06v2.88c-3.41.89-7.09,1.64-11.01,2.26l-.63-2.88c1.51-.18,2.97-.4,4.48-.66v-11.33h-3.76v-2.88h10.02Zm1.47-9.65c-.08-2.57-.08-5.22-.08-8.01h2.65c0,2.83,0,5.53.08,8.01h7.37v3.01h-7.29c.24,7.7.79,13.86,1.58,18.37.83,4.65,1.62,6.99,2.42,6.99.55-.18,1.23-2.92,1.98-8.28l2.22,1.42c-1.07,6.91-2.46,10.36-4.2,10.4-2.5-.13-4.36-4.91-5.63-14.3-.52-4.16-.87-9.03-1.03-14.61h-11.33v-3.01h11.25Zm9.67-2.79l-1.94,1.55c-.87-1.59-2.02-3.36-3.45-5.27l1.94-1.37c1.51,1.95,2.65,3.63,3.45,5.09Z"/>
        <path class="uuid-e3ffb7ad-2ba5-4c98-bf67-b7d3adaac16b" d="m461.41,204.62h-2.77v-2.52h-7.21v3.81h-2.77v-31.48h3.69c.79-2.48,1.35-5.05,1.7-7.7l2.85.44c-.48,2.61-1.07,5.05-1.86,7.26h6.38v30.19Zm-2.77-18.06v-9.12h-7.21v9.12h7.21Zm0,12.57v-9.7h-7.21v9.7h7.21Zm22.66,2.61c-.4,3.37-2.22,5.09-5.55,5.09-.79,0-2.14-.09-4.04-.18l-.67-2.92c1.66.09,3.09.13,4.32.13,1.86,0,2.93-1.15,3.25-3.41.24-2.48.4-10.14.48-22.89h-10.9c-1.11,2.79-2.42,5.31-3.96,7.57l-1.7-2.52c2.77-4.34,4.64-9.65,5.67-15.94l2.81.4c-.47,2.61-1.03,5.09-1.74,7.39h12.64c0,14.7-.2,23.82-.59,27.27Zm-6.5-7.39l-2.26,1.77c-1.63-2.92-3.8-6.2-6.54-9.83l2.3-1.59c2.85,3.67,4.99,6.91,6.5,9.65Z"/>
        <path class="uuid-e3ffb7ad-2ba5-4c98-bf67-b7d3adaac16b" d="m504.2,166.55c-.48,3.1-.95,6.02-1.43,8.68h6.86v1.82c-.36,6.99-1.66,13.1-3.88,18.28,2.3,1.99,4.16,3.81,5.63,5.4l-1.94,2.52c-1.35-1.59-3.05-3.28-5.03-5.14-1.98,3.67-4.52,6.82-7.57,9.43l-1.94-2.66c3.01-2.44,5.43-5.36,7.29-8.81-1.82-1.64-3.88-3.36-6.1-5.18,1.23-3.9,2.3-8.1,3.25-12.62h-4.2v-3.05h4.79c.55-2.92,1.03-5.89,1.47-8.94l2.81.27Zm2.61,11.73h-4.64c-.95,4.69-1.94,8.59-2.97,11.69,1.51,1.2,2.93,2.35,4.24,3.41,1.9-4.38,3.01-9.43,3.37-15.1Zm13.12,7.08v-5.58c2.14-2.08,4.16-4.6,6.1-7.61h-13.91v-3.1h17.16v3.1c-1.9,3.06-4.08,5.93-6.46,8.59v4.6h8.08v3.1h-8.08v14.17c0,2.83-1.07,4.25-3.13,4.25h-5.71l-.75-3.01c1.62,0,3.41.04,5.31.04.91,0,1.39-.75,1.39-2.26v-13.19h-8.95v-3.1h8.95Z"/>
        <path class="uuid-e3ffb7ad-2ba5-4c98-bf67-b7d3adaac16b" d="m552.22,207.32h-2.69v-12.35c-1.47,4.12-3.57,7.57-6.26,10.4l-1.46-2.7c3.01-2.66,5.19-5.98,6.58-10.01h-5.86v-2.97h7.01v-4.21h-6.14v-17.05h14.86v17.05h-6.02v4.21h6.77v2.97h-6.77v1.46c2.38,1.59,4.79,3.41,7.25,5.49l-1.55,2.57c-2.22-2.3-4.12-4.07-5.71-5.36v10.49Zm-2.54-31.52v-4.6h-3.76v4.6h3.76Zm0,2.57h-3.76v4.47h3.76v-4.47Zm2.34-2.57h3.72v-4.6h-3.72v4.6Zm3.72,2.57h-3.72v4.47h3.72v-4.47Zm5.59,17.27l-1.62-2.39c5.51-2.57,9.23-5.67,11.17-9.34l2.73.31c-.67,1.37-1.51,2.66-2.46,3.9h6.89v2.52c-2.06,7.88-8.24,13.5-18.5,16.87l-1.35-2.75c4.16-1.2,7.61-2.79,10.3-4.83-1.51-1.99-2.81-3.45-3.92-4.34l1.9-1.59c1.67,1.42,2.97,2.88,3.92,4.34,2.26-2.12,3.88-4.65,4.83-7.53h-6.66c-2.02,1.77-4.44,3.36-7.25,4.83Zm5.15-22.71c-1.58,2.04-3.53,3.85-5.9,5.49l-1.67-2.48c3.92-2.48,6.58-5.49,7.96-9.12l2.69.35c-.4,1.15-.91,2.21-1.47,3.28h8.2v2.3c-1.98,6.91-7.05,11.87-15.18,14.79l-1.51-2.44c2.81-.93,5.23-2.13,7.25-3.54-1.31-1.59-2.46-2.79-3.49-3.54l1.94-1.59c1.43,1.2,2.58,2.39,3.41,3.63,2.18-2.04,3.84-4.38,4.95-7.13h-7.21Z"/>
        <path class="uuid-e3ffb7ad-2ba5-4c98-bf67-b7d3adaac16b" d="m600.96,167.92c-1.03,3.5-2.3,6.77-3.8,9.87v29.66h-2.81v-24.7c-1.23,1.9-2.54,3.72-3.96,5.45l-.95-3.41c4.04-5.31,7.01-11.38,8.84-18.24l2.69,1.37Zm10.62,13.33v-14.39h2.93v14.39h10.34v3.06h-10.34v7.26h11.41v3.1h-11.41v12.71h-2.93v-12.71h-11.21v-3.1h11.21v-7.26h-10.02v-3.06h10.02Zm-3.09-2.97l-2.65.75c-.87-3.01-1.98-5.93-3.29-8.77l2.65-.97c1.27,2.61,2.34,5.62,3.29,8.99Zm15.29-9.03c-.95,3.81-2.14,7.13-3.64,9.96l-2.61-1.02c1.35-2.57,2.54-5.8,3.53-9.74l2.73.8Z"/>
        <path class="uuid-e3ffb7ad-2ba5-4c98-bf67-b7d3adaac16b" d="m657.15,198.42c.44.49.67,1.11.67,1.86,0,.8-.24,1.42-.67,1.9-.47.49-1.07.75-1.74.75s-1.23-.27-1.7-.75c-.48-.53-.67-1.15-.67-1.9s.2-1.37.67-1.86c.48-.53,1.03-.75,1.7-.75s1.27.22,1.74.75Zm.12-27.1l-.63,23.11h-2.46l-.6-23.11h3.69Z"/>
      </g>
      <rect id="uuid-ee49d852-c682-41ad-b4b4-822911ede96d" data-name="&amp;lt;切片&amp;gt;" class="uuid-aa75455b-d774-4f68-825c-45a5fdc489d0" width="741.74" height="215.47"/>
      <path class="uuid-71b31f1d-3f70-4d94-89ae-567caf905ed7" d="m669.87,53.23h-23.4l1.74-4.78h23.4l-1.74,4.78Zm-3.54,7.79h-21.65l1.68-4.62h21.66l-1.68,4.62Zm-2.76,7.58h-21.66l1.68-4.62h21.66l-1.68,4.62Zm-1.65,3.11l-4.73,13c-.82,2.26-2.78,3.38-5.75,3.38h-16.37l5.96-16.39h20.88Zm9.1-26.43h-20.11l1.52-4.19h20.11l-1.53,4.19Zm-19.05,37.12l2.21-6.07h-8.83l-2.68,7.36h7.09c1.16,0,1.9-.43,2.21-1.29m22.19-8.38l-5.98,9.51c-1.43,2.15-3.45,3.28-5.96,3.28h-4.77l1.6-4.41h2.77c.52,0,1.13-.43,1.86-1.4l4.41-6.98h6.06Zm32.51-33.36l-6.8,18.7c-.86,2.36-2.84,3.54-5.8,3.54h-7.28l-1.53,4.19h13.86l-1.68,4.62h-13.86l-6.2,17.03h-6.57l6.2-17.03h-13.34l1.68-4.62h13.34l1.52-4.19h-11.79l8.1-22.24h30.16Zm-21.65,9.03l1.76-4.84h-5.54l-1.76,4.84h5.54Zm-1.52,4.19h-5.54l-1.76,4.84h5.54l1.76-4.84Zm8.1-4.19h5.54l1.76-4.84h-5.54l-1.76,4.84Zm2.79,7.57l1.23-3.38h-5.54l-1.76,4.84h4c1.03,0,1.72-.48,2.08-1.45m-3.41,16.98l-.25,6.72c-.06.86.17,1.29.82,1.29h2.32l-1.74,4.78h-4.58c-2.25,0-3.35-1.07-3.31-3.12l.43-9.67h6.32Z"/>
      <path class="uuid-71b31f1d-3f70-4d94-89ae-567caf905ed7" d="m629.37,123.52l-7.1,14.24c-1.7,3.25-3.45,4.91-5.37,4.91h-2.24l1.73-4.75h.7c.39,0,1-.8,1.85-2.45l5.69-11.95h4.73Zm17.06-27.73l-10.79,8.37h5.05l4.89-3.95h6.27l-20.17,16.21h6.46c.64,0,1.1-.21,1.26-.64l1.88-5.17h4.99l-2.5,6.88c-.23.64-.85,1.28-1.79,1.92-1.18.8-2.35,1.17-3.56,1.17h-1.79l-8.58,23.57h-5.25l8.58-23.57h-8l1.05-2.88c.22-.59,1.04-1.44,2.58-2.51l8.52-6.88h-7.42l1.3-3.57c.12-.32.43-.64.93-.96l10.08-8h6.01Zm-5.43,27.94l-3.16,12.9c-.22.96-.08,1.44.44,1.44h.77l-1.59,4.37h-3.26c-1.79,0-2.29-1.28-1.65-3.73l3.98-14.98h4.48Zm47.29-26.23l-15.23,41.86c-1.01,2.77-3.31,4.16-6.76,4.16h-8.96l1.67-4.59h6.97c.77,0,1.33-.32,1.59-1.01l13.12-36.05h-21.69l-15.39,42.28h-5.76l16.98-46.66h33.46Zm-22.13,6.67l-1.06,5.38h3.9l3.37-5.38h4.99l-3.37,5.38h2.43l-1.51,4.16h-18.49l1.51-4.16h2.11l1.06-5.38h5.05Zm1.48,11.04l-1.51,4.16h6.72l-1.59,4.37h-10.24l-2.35,6.45c-.21.59,0,.85.65.85h8.25l-1.59,4.37h-11.45c-2.18,0-2.97-.8-2.35-2.51l3.34-9.17h-2.75l1.59-4.37h5.76l1.51-4.16h6.01Z"/>
    </g>
  </g>
</svg>