<svg width="27" height="25" viewBox="0 0 27 25" fill="none" xmlns="http://www.w3.org/2000/svg">
<g clip-path="url(#clip0_16_538)">
<path d="M1.2245 4.64068L2.30211 3.96112L3.37933 3.28076L4.09299 4.28361L4.80744 5.28565L5.52189 6.2881L5.87911 6.78912L6.23594 7.28974L6.59238 7.79156L6.9496 8.29218L7.66405 9.29463L8.3785 10.2971L9.09177 11.2995L9.25832 11.5323L9.80622 12.302L10.8838 11.6216L10.7367 9.34328L9.65945 10.0236L9.11115 9.25401L8.94461 9.0212L8.23134 8.01835L7.51689 7.01631L6.80244 6.01386L6.44521 5.51284L6.08918 5.01101L5.73195 4.5104L5.37472 4.00978L4.66027 3.00733L3.94582 2.00489L3.23216 1.00244L2.15495 1.6828L1.07734 2.36195L0.363281 1.36072L0.510444 3.63904L1.2245 4.64068Z" fill="black"/>
<path d="M17.7101 5.85904L18.4246 6.86149L18.9626 6.52131L19.5018 6.18113L20.2091 7.17473L20.9236 8.17637L21.6372 9.17881L22.3513 10.1813L22.7089 10.6827L23.0661 11.1837L23.7806 12.1857L24.4938 13.1886L25.2083 14.191L25.0611 11.9123L24.3467 10.9099L23.6334 9.90743L22.919 8.90498L22.5617 8.40436L22.2045 7.90254L21.4901 6.90009L20.7764 5.89765L20.062 4.89641L19.3546 3.90241L18.8154 4.24299L18.2774 4.58277L17.563 3.58032L16.4854 4.26068L16.6325 6.5394L17.7101 5.85904Z" fill="black"/>
<path d="M13.7646 6.89647L14.8418 6.21692L15.5566 7.21936L16.2695 8.221L16.9839 9.22345L17.6984 10.2259L18.776 9.54553L18.6288 7.26721L17.5516 7.94757L16.8372 6.94513L16.1227 5.94268L15.4091 4.94104L14.6946 3.9386L13.6174 4.61815L12.5398 5.29811L12.687 7.57683L13.7646 6.89647Z" fill="black"/>
<path d="M9.81877 7.93513L10.8964 7.25436L11.6096 8.25721L12.3241 9.25966L12.8 9.92715L13.0385 10.2621L13.3958 10.7627L13.7518 11.2637L14.8294 10.5842L14.6823 8.30587L13.6046 8.98502L13.2486 8.484L12.8914 7.98338L12.6528 7.64883L12.1769 6.98093L11.4625 5.97889L10.7492 4.97604L9.6716 5.6564L8.59399 6.33596L8.74116 8.61428L9.81877 7.93513Z" fill="black"/>
<path d="M3.00418 9.33083L3.71823 10.3321L4.43189 11.3345L5.14634 12.337L5.86079 13.3394L6.12347 13.7081L6.06492 13.7451L5.35047 12.7439L4.99087 12.9699L4.27326 13.423L3.73485 13.7632L3.19565 14.1034L2.48119 13.101L2.62836 15.3797L3.34281 16.3817L3.88201 16.0415L4.42002 15.7018L5.13764 15.2486L5.49763 15.0222L6.21208 16.0238L7.28851 15.3443L7.99584 16.3371L9.07305 15.6567L8.92589 13.3784L7.84868 14.0588L7.14135 13.066L6.51788 13.4592L6.42808 12.0635L6.0127 11.4809L5.71363 11.0611L4.99918 10.0586L4.28473 9.05619L3.57107 8.05375L2.85701 7.05211L2.14256 6.04966L1.4289 5.04722L0.714451 4.04477L0 3.04233L0.147163 5.32105L0.861614 6.32349L1.57606 7.32554L2.28933 8.32838L3.00418 9.33083Z" fill="#4C4C4C"/>
<path d="M24.6981 13.5943L24.1181 12.7809L23.9836 12.5919L24.1308 14.8702L24.2653 15.0592L24.8453 15.8727L24.6981 13.5943Z" fill="black"/>
<path d="M26.5458 14.7994L27 14.5131L26.8528 12.2344L25.7756 12.914L25.8658 14.3105L25.4124 14.5968L25.5026 15.9929L25.0485 16.2796L25.1387 17.6753L24.6857 17.9612L24.1473 18.3013L24.0623 18.3552L23.9721 16.9587L23.6148 16.4581L23.2576 15.9563L23.4048 18.235L23.6679 18.6041L23.6081 18.6415L23.0701 18.9817L22.5321 19.3219L21.4545 20.001L20.7357 20.4546L20.3769 20.6814L19.8377 21.0216L19.2997 21.3618L18.222 22.0413L17.5048 22.4953L17.1448 22.7217L16.7876 22.2211L16.4316 21.7188L15.8924 22.0594L15.354 22.3992L14.6395 21.3971L13.5623 22.0771L13.014 21.3075L12.8478 21.0751L12.3094 21.4148L11.7714 21.755L11.4142 21.2532L11.057 20.7526L10.3425 19.7501L9.95245 19.9966L9.26529 20.4305L8.90767 19.9291L8.55163 19.428L8.31309 19.0943L7.83718 18.4256L6.75997 19.106L6.04552 18.1035L5.33186 17.1011L5.21634 16.9394L5.23098 17.165L4.25464 17.7814L3.89742 17.2796L3.54019 16.779L3.25101 16.3741L2.83286 15.7862L2.11841 14.7837L2.26557 17.0621L2.98002 18.0645L3.39817 18.6524L3.68735 19.0573L4.04458 19.5583L4.4018 20.0597L5.47902 19.3794L6.19268 20.3822L6.90713 21.3843L7.98434 20.7039L8.46025 21.3726L8.6988 21.7064L9.05483 22.2074L9.41245 22.7092L10.0996 22.2753L10.4897 22.0289L11.2041 23.0313L11.5613 23.5319L11.9186 24.0337L12.4566 23.6936L12.995 23.3534L13.1611 23.5862L13.7094 24.3558L14.7867 23.6755L15.5011 24.6779L16.0391 24.3377L16.5783 23.9976L16.9348 24.4994L17.292 25L17.652 24.774L18.3692 24.3196L19.4468 23.6405L19.9848 23.3003L20.524 22.9601L20.8828 22.7329L21.6016 22.2798L22.6789 21.6002L23.2173 21.26L23.7553 20.9203L24.2945 20.5797L24.8329 20.2399L25.9101 19.5595L25.8199 18.1642L26.2733 17.8775L26.1831 16.481L26.636 16.1947L26.5458 14.7994Z" fill="#4C4C4C"/>
<path d="M23.768 16.553L24.4825 17.5555L24.3353 15.2771L23.6208 14.2747L23.768 16.553Z" fill="black"/>
<path d="M3.23216 1.00244L2.51811 0L1.4405 0.68036L0.363281 1.36072L1.07734 2.36196L2.15495 1.6828L3.23216 1.00244Z" fill="#4C4C4C"/>
<path d="M16.1227 5.94269L16.8371 6.94513L17.5516 7.94758L18.6288 7.26722L18.2716 6.76619L17.9144 6.26558L17.5571 5.76375L17.1999 5.26313L16.4855 4.26069L17.5631 3.58033L16.8494 2.57788L16.131 3.03105L15.7722 3.25824L14.6946 3.9386L15.409 4.94104L16.1227 5.94269Z" fill="#4C4C4C"/>
<path d="M12.177 6.98092L12.6529 7.64881L12.8914 7.98336L13.2487 8.48398L13.6047 8.985L14.6823 8.30585L13.9686 7.303L13.2542 6.30056L12.5397 5.29812L13.6174 4.61816L14.6946 3.9386L13.9801 2.93616L12.9029 3.61652L11.8253 4.29607L10.7493 4.97603L11.4625 5.97888L12.177 6.98092Z" fill="#4C4C4C"/>
<path d="M4.66004 3.00733L5.3745 4.00978L5.73172 4.5104L6.08895 5.01101L6.44499 5.51284L6.80221 6.01386L7.51666 7.01631L8.23111 8.01835L8.94438 9.0212L9.11092 9.25401L9.65922 10.0236L10.7364 9.34328L10.022 8.34084L9.30833 7.33839L8.59388 6.33595L9.67149 5.65639L10.7491 4.97603L10.0346 3.97359L8.95704 4.65395L7.87982 5.33431L7.64207 4.99935L7.16537 4.33186L6.45171 3.32942L5.73726 2.32697L5.02281 1.32453L4.5469 0.657035L4.30954 0.322083L3.23193 1.00244L3.94559 2.00489L4.66004 3.00733Z" fill="#4C4C4C"/>
<path d="M7.14135 13.066L7.84868 14.0588L8.92589 13.3784L8.56906 12.8778L8.21263 12.376L7.97408 12.0422L7.49818 11.3743L6.79085 10.3807L6.0764 9.37828L5.71917 8.87766L5.36194 8.37664L4.88604 7.70834L4.64868 7.37419L3.93423 6.37175L3.21978 5.3693L2.50533 4.36726L2.14929 3.86624L1.79167 3.36441L1.07722 2.36197L0 3.04233L0.714451 4.04477L1.4289 5.04722L2.14256 6.04966L2.85701 7.05211L3.57107 8.05375L4.28473 9.05619L4.99918 10.0586L5.71363 11.0611L6.0127 11.4809L6.42808 12.0635L6.03802 12.31L5.35047 12.7439L6.06492 13.7451L7.14135 13.066Z" fill="#4C4C4C"/>
<path d="M4.27326 13.423L4.99088 12.9699L5.35048 12.7439L4.63603 11.7414L3.55842 12.4206L2.4812 13.1009L3.19565 14.1034L3.73485 13.7632L4.27326 13.423Z" fill="#4C4C4C"/>
<path d="M26.1384 11.232L25.7076 10.6268L25.4239 10.2299L24.7095 9.22748L24.4721 8.89334L23.9962 8.22464L23.2817 7.22219L22.5673 6.22095L21.854 5.21851L21.4968 4.71668L21.1396 4.21606L20.9283 3.91971L20.4322 3.22327L19.7178 2.22083L18.6402 2.89998L17.563 3.58034L18.2774 4.58278L18.8154 4.24301L19.3546 3.90242L20.062 4.89642L20.7764 5.89766L21.4901 6.90011L22.2045 7.90255L22.5618 8.40438L22.919 8.905L23.6334 9.90744L24.3467 10.9099L25.0611 11.9123L23.9835 12.5919L24.118 12.7809L24.698 13.5943L23.6208 14.2747L24.3352 15.2771L23.6164 15.7303L23.2576 15.9563L23.6148 16.4581L23.9721 16.9587L23.6125 17.1859L22.8949 17.6391L21.8172 18.3195L20.74 18.999L19.6624 19.679L18.9448 20.1321L18.5852 20.3593L17.508 21.0397L16.7943 20.0372L15.7167 20.7168L15.0023 19.7144L14.285 20.1683L13.925 20.3947L13.747 20.1442L13.2118 19.3919L12.1342 20.0722L11.4197 19.0698L10.7053 18.0673L9.62806 18.7481L8.9144 17.7452L8.19995 16.7428L7.12273 17.4232L6.40828 16.4207L5.91062 15.7223L5.70095 15.4283L4.62453 16.1083L3.91007 15.1058L3.55285 14.604L3.19562 14.1034L2.11841 14.7838L2.83286 15.7862L3.25101 16.3741L3.54019 16.779L3.89742 17.2796L4.25464 17.7814L5.33186 17.1011L6.04552 18.1035L6.75997 19.106L7.83718 18.4256L8.31309 19.0943L8.55163 19.4281L8.90767 19.9291L9.26529 20.4305L9.95245 19.9966L10.3425 19.7501L11.057 20.7526L11.4142 21.2532L11.7714 21.755L12.3094 21.4149L12.8478 21.0751L13.014 21.3075L13.5623 22.0771L14.6395 21.3972L15.354 22.3992L15.8924 22.0594L16.4316 21.7188L16.7876 22.2211L17.1448 22.7217L17.5048 22.4953L18.222 22.0413L19.2997 21.3618L19.8377 21.0216L20.3769 20.6814L20.7357 20.4546L21.4545 20.0011L22.5321 19.3219L23.0701 18.9817L23.6081 18.6415L24.1473 18.3014L24.6857 17.9612L25.7629 17.2808L25.0485 16.2796L25.5877 15.9394L26.1261 15.5992L25.4124 14.5968L26.4889 13.9164L26.1328 13.4154L25.7756 12.914L26.8528 12.2344L26.1384 11.232Z" fill="#4C4C4C"/>
<path d="M3.91003 15.1058L4.62448 16.1083L5.7009 15.4283L5.91057 15.7223L6.40824 16.4207L7.12269 17.4232L8.1999 16.7428L8.91435 17.7452L9.62801 18.7481L10.7052 18.0673L11.4197 19.0698L12.1341 20.0722L13.2117 19.3919L13.747 20.1442L13.925 20.3947L14.285 20.1683L15.0022 19.7143L15.7167 20.7168L16.7943 20.0372L17.5079 21.0397L18.5852 20.3593L18.9448 20.1321L19.6624 19.679L20.74 18.999L21.8172 18.3194L22.8948 17.6391L23.6124 17.1859L23.972 16.9587L23.6148 16.4581L23.2576 15.9563L23.6164 15.7303L24.3352 15.2771L23.6207 14.2747L24.6979 13.5943L24.118 12.7809L23.9835 12.5919L25.0611 11.9123L24.3467 10.9099L23.6334 9.90743L22.9189 8.90499L22.5617 8.40437L22.2045 7.90254L21.49 6.9001L20.7764 5.89765L20.0619 4.89641L19.3546 3.90241L18.8154 4.243L18.2774 4.58277L17.5629 3.58033L16.4853 4.26069L17.1998 5.26313L17.557 5.76375L17.9142 6.26558L18.2714 6.7662L18.6287 7.26722L17.5515 7.94758L16.837 6.94513L16.1226 5.94269L15.4089 4.94105L14.6944 3.9386L13.6172 4.61816L12.5396 5.29812L13.2541 6.30056L13.9685 7.30301L14.6822 8.30585L13.6046 8.98501L13.2485 8.48398L12.8913 7.98337L12.6528 7.64882L12.1769 6.98092L11.4624 5.97888L10.7491 4.97603L9.67153 5.65639L8.59392 6.33595L9.30837 7.33839L10.022 8.34084L10.7365 9.34328L9.65926 10.0236L9.11096 9.25401L8.94442 9.0212L8.23115 8.01835L7.5167 7.01631L6.80225 6.01386L6.44503 5.51284L6.08899 5.01101L5.73176 4.5104L5.37454 4.00978L4.66009 3.00733L3.94563 2.00489L3.23197 1.00244L2.15476 1.6828L1.07715 2.36195L1.7916 3.3644L2.14922 3.86622L2.50526 4.36725L3.21971 5.36929L3.93416 6.37173L4.64861 7.37418L4.88597 7.70833L5.36188 8.37662L5.7191 8.87765L6.07633 9.37826L6.79078 10.3807L7.49811 11.3743L7.97401 12.0422L8.21256 12.3759L8.56899 12.8778L8.92583 13.3784L7.84861 14.0588L7.14128 13.066L6.06486 13.7451L5.3504 12.7439L4.99081 12.9699L4.27319 13.423L3.73478 13.7632L3.19558 14.1034L3.5528 14.604L3.91003 15.1058Z" fill="white"/>
</g>
<defs>
<clipPath id="clip0_16_538">
<rect width="27" height="25" fill="white"/>
</clipPath>
</defs>
</svg>
