<svg xmlns="http://www.w3.org/2000/svg" viewBox="0 0 25 25"><defs><style>.cls-1{fill:#f29600;}</style></defs><g id="圖層_2" data-name="圖層 2"><path class="cls-1" d="M7.7,17.26a8,8,0,0,1-2.16-2.43,6.16,6.16,0,0,1-.81-3.05,5.92,5.92,0,0,1,.41-2.2c-2.71.76-4.64,2.73-4.64,5a5,5,0,0,0,2.6,4.16,4,4,0,0,1-.93,1.72,5.57,5.57,0,0,0,2.53-1A9,9,0,0,0,7.63,20a8.82,8.82,0,0,0,4-.93c-.28-.07-.55-.14-.82-.23A10.49,10.49,0,0,1,7.7,17.26Z"/><path class="cls-1" d="M24.5,11.78c0-3.8-4.07-6.87-9.1-6.87S6.3,8,6.3,11.78s4.07,6.87,9.1,6.87A11.65,11.65,0,0,0,19.15,18a7.08,7.08,0,0,0,3.21,1.23,5.28,5.28,0,0,1-1.18-2.19A6.37,6.37,0,0,0,24.5,11.78ZM11.22,13.21a1.29,1.29,0,1,1,1.29-1.29A1.3,1.3,0,0,1,11.22,13.21Zm4.18,0a1.29,1.29,0,1,1,1.29-1.29A1.29,1.29,0,0,1,15.4,13.21Zm4.18,0a1.29,1.29,0,1,1,1.29-1.29A1.29,1.29,0,0,1,19.58,13.21Z"/></g></svg>