<svg width="205" height="180" viewBox="0 0 205 180" fill="none" xmlns="http://www.w3.org/2000/svg">
<g clip-path="url(#clip0_617_4445)">
<path d="M162.74 17.0424H28.0469V128.779H162.74V17.0424Z" fill="white" stroke="#5FB6B3" stroke-width="4.9042"/>
<path d="M162.74 17.0424H28.0469V28.9796H162.74V17.0424Z" fill="#D8EDEB" stroke="#5FB6B3" stroke-width="3.2695"/>
<path d="M31.9231 22.8859H35.3984" stroke="#5FB6B3" stroke-width="4.9042"/>
<path d="M38.6982 22.8859H42.1735" stroke="#5FB6B3" stroke-width="4.9042"/>
<path d="M45.4736 22.8859H48.9489" stroke="#5FB6B3" stroke-width="4.9042"/>
<path d="M90.1011 83.6726V93.0757" stroke="#B0EFE6" stroke-width="3.2695"/>
<path d="M40.7368 77.8873V98.8609" stroke="#B0EFE6" stroke-width="3.2695"/>
<path d="M46.9104 81.5052V95.243" stroke="#B0EFE6" stroke-width="3.2695"/>
<path d="M53.0842 85.123V91.6252" stroke="#B0EFE6" stroke-width="3.2695"/>
<path d="M59.2495 80.78V95.9683" stroke="#B0EFE6" stroke-width="3.2695"/>
<path d="M65.4231 70.66V106.088" stroke="#B0EFE6" stroke-width="3.2695"/>
<path d="M71.5969 76.4452V100.303" stroke="#B0EFE6" stroke-width="3.2695"/>
<path d="M77.7622 74.2778V102.47" stroke="#B0EFE6" stroke-width="3.2695"/>
<path d="M83.9358 70.66V106.088" stroke="#B0EFE6" stroke-width="3.2695"/>
<path d="M96.2749 78.6126V98.1357" stroke="#B0EFE6" stroke-width="3.2695"/>
<path d="M102.448 75.72V101.028" stroke="#B0EFE6" stroke-width="3.2695"/>
<path d="M108.614 70.66V106.088" stroke="#B0EFE6" stroke-width="3.2695"/>
<path d="M114.788 77.8873V98.8609" stroke="#B0EFE6" stroke-width="3.2695"/>
<path d="M120.961 74.2778V102.47" stroke="#B0EFE6" stroke-width="3.2695"/>
<path d="M127.126 79.3378V97.4104" stroke="#B0EFE6" stroke-width="3.2695"/>
<path d="M133.3 74.2778V102.47" stroke="#B0EFE6" stroke-width="3.2695"/>
<path d="M139.466 79.3378V97.4104" stroke="#B0EFE6" stroke-width="3.2695"/>
<path d="M145.639 79.3378V97.4104" stroke="#B0EFE6" stroke-width="3.2695"/>
<path d="M151.804 74.2778V102.47" stroke="#B0EFE6" stroke-width="3.2695"/>
<path d="M85.7486 69.2512C85.7486 81.5136 75.7905 91.4502 63.5016 91.4502C51.2127 91.4502 41.2546 81.5136 41.2546 69.2512C41.2546 56.9888 51.2127 47.0522 63.5016 47.0522C75.7905 47.0522 85.7486 56.9888 85.7486 69.2512Z" fill="#B0EFE6" stroke="#5FB6B3" stroke-width="3.3643"/>
<path d="M73.5599 69.6346L56.8267 59.9898V79.2712L73.5599 69.6346Z" fill="#5FB6B3"/>
<path d="M162.464 167C181.538 167 197 151.571 197 132.539C197 113.506 181.538 98.0773 162.464 98.0773C143.391 98.0773 127.928 113.506 127.928 132.539C127.928 151.571 143.391 167 162.464 167Z" fill="#5FB6B3"/>
<path d="M162.464 160.106C177.722 160.106 190.091 147.764 190.091 132.539C190.091 117.314 177.722 104.971 162.464 104.971C147.206 104.971 134.837 117.314 134.837 132.539C134.837 147.764 147.206 160.106 162.464 160.106Z" fill="white"/>
<path d="M143.475 138.849C143.024 137.582 142.707 136.257 142.515 134.923L147.644 134.214C147.786 135.206 148.02 136.182 148.354 137.124L143.475 138.849ZM181.478 138.799L176.591 137.082C176.925 136.14 177.159 135.165 177.293 134.173L182.422 134.873C182.238 136.207 181.921 137.532 181.478 138.799ZM148.02 128.262L143.016 126.92C143.367 125.62 143.851 124.353 144.453 123.144L149.081 125.461C148.63 126.353 148.279 127.295 148.02 128.262ZM176.908 128.221C176.649 127.262 176.282 126.32 175.831 125.428L180.459 123.102C181.069 124.303 181.553 125.57 181.904 126.87L176.908 128.221ZM152.773 120.768L149.415 116.834C150.443 115.958 151.562 115.191 152.74 114.541L155.246 119.068C154.369 119.543 153.534 120.118 152.773 120.768ZM172.13 120.743C171.361 120.093 170.534 119.526 169.657 119.043L172.147 114.508C173.325 115.158 174.444 115.925 175.48 116.792L172.13 120.743ZM160.944 117.284L160.426 112.14C161.103 112.074 161.788 111.999 162.473 112.04C163.133 112.04 163.801 112.074 164.461 112.14L163.951 117.284C163.458 117.234 162.965 117.209 162.464 117.209C161.938 117.209 161.445 117.234 160.944 117.284Z" fill="#5FB6B3"/>
<path d="M154.277 133.722L180.459 117.334L160.15 140.575L154.277 133.722Z" fill="#F5AEC7"/>
<path d="M162.398 134.656C163.5 134.656 164.394 133.764 164.394 132.664C164.394 131.563 163.5 130.671 162.398 130.671C161.295 130.671 160.401 131.563 160.401 132.664C160.401 133.764 161.295 134.656 162.398 134.656Z" fill="#BAC6C2"/>
</g>
<defs>
<clipPath id="clip0_617_4445">
<rect width="171" height="152" fill="white" transform="translate(26 15)"/>
</clipPath>
</defs>
</svg>
