<svg width="205" height="180" viewBox="0 0 205 180" fill="none" xmlns="http://www.w3.org/2000/svg">
<g clip-path="url(#clip0_1165_8992)">
<path d="M153.305 40.9468C153.385 40.2845 153.433 39.6142 153.433 38.9279C153.433 29.5277 145.83 21.907 136.451 21.907C134.859 21.907 133.323 22.1464 131.866 22.5534C130.202 10.3842 119.789 1 107.186 1C93.4211 1 82.2675 12.1877 82.2675 25.9687C82.2675 26.0246 82.2675 26.0805 82.2675 26.1363C74.6884 27.0061 68.7971 33.4458 68.7971 41.274C68.7971 49.6926 75.604 56.5154 84.003 56.5154H109.598H117.082H123.785H138.697H152.398C152.398 56.5074 152.406 56.4914 152.406 56.4834C152.621 56.4994 152.844 56.5154 153.067 56.5154C157.358 56.5154 160.837 53.0282 160.837 48.7191C160.845 44.5058 157.493 41.0665 153.305 40.9468Z" fill="white" stroke="#5FB6B3" stroke-width="3"/>
<path d="M146.944 41.5852H79.0112V49.0303H146.944V41.5852Z" fill="#B0EFE6"/>
<path d="M117.759 171.336H148.011" stroke="#5FB6B3" stroke-width="3"/>
<path d="M55.1277 171.336H74.768" stroke="#5FB6B3" stroke-width="3"/>
<path d="M83.1272 153.797V165.072C83.1272 168.528 80.3329 171.336 76.8777 171.336H114.367C110.92 171.336 108.117 168.528 108.117 165.072V153.797H83.1272Z" fill="#D8EDEB" stroke="#5FB6B3" stroke-width="3"/>
<path d="M153.051 142.29V74.2943C153.051 72.5387 151.626 71.1104 149.874 71.1104H40.2402C38.4888 71.1104 37.0637 72.5387 37.0637 74.2943V142.29H153.051Z" fill="#D8EDEB" stroke="#5FB6B3" stroke-width="3"/>
<path d="M146.809 77.3824H43.1858V135.946H146.809V77.3824Z" fill="white"/>
<path d="M37 142.218V152.025C37 153.909 38.9266 155.999 40.7975 155.999H150.161C152.04 155.999 153.154 154.068 153.154 152.185V142.218H37V142.218Z" fill="white" stroke="#5FB6B3" stroke-width="3"/>
<path d="M84.5124 44.7931V44.8011C84.3771 44.8011 84.2338 44.7931 84.0984 44.7931C72.6263 44.7931 63.3276 54.1135 63.3276 65.6123V95.4328H111.254V121.559C111.254 124.95 114.001 127.703 117.384 127.703C120.768 127.703 123.514 124.95 123.514 121.559V95.4328H123.554V65.6123C123.554 54.1294 132.829 44.817 144.277 44.7931H84.5124V44.7931Z" fill="#D8EDEB" stroke="#5FB6B3" stroke-width="3"/>
<path d="M111.254 121.559V62.0533H111.23L111.254 61.0239C111.254 57.8719 108.866 55.2785 105.817 54.9274C104.145 54.9274 51.4734 54.9433 48.7427 54.9274C51.7918 55.2785 54.1643 57.8719 54.1643 61.0239V62.4284H54.1881V121.567C54.1881 124.719 56.5526 127.312 59.6097 127.663C61.2816 127.663 113.953 127.647 116.676 127.663C113.619 127.304 111.254 124.711 111.254 121.559Z" fill="white" stroke="#5FB6B3" stroke-width="3"/>
<path d="M99.9334 64.1121V61.0239C99.9334 57.8719 102.298 55.2785 105.355 54.9274C102.632 54.9433 49.9529 54.9274 48.289 54.9274C45.2399 55.2785 42.8674 57.8719 42.8674 61.0239V64.1121H99.9334Z" fill="#D8EDEB" stroke="#5FB6B3" stroke-width="3"/>
<path d="M96.4464 98.2975L96.3588 94.2677L92.7763 94.0443C92.4976 92.7276 91.9881 91.5067 91.2875 90.4135L93.6122 87.5328L90.7063 84.7398L88.0155 87.1178C86.9248 86.4076 85.7067 85.8889 84.4011 85.6096L84.0189 81.923L79.9985 82.0107L79.7756 85.6016C78.462 85.8809 77.2439 86.3916 76.1533 87.0939L73.2793 84.7638L70.4928 87.6764L72.8653 90.3736C72.1567 91.4668 71.6392 92.6877 71.3526 93.9964L67.6746 94.3794L67.7621 98.4092L71.3447 98.6326C71.6233 99.9493 72.1328 101.17 72.8334 102.263L70.5247 105.136L73.4305 107.929L76.1214 105.551C77.2121 106.261 78.4302 106.78 79.7358 107.059L80.1179 110.746L84.1383 110.658L84.3613 107.067C85.6669 106.788 86.8929 106.277 87.9836 105.575L90.8576 107.913L93.644 105.001L91.2716 102.303C91.9801 101.21 92.4976 99.9892 92.7842 98.6805L96.4464 98.2975ZM82.1879 101.657C79.2502 101.721 76.822 99.3907 76.7663 96.4462C76.7026 93.5016 79.0352 91.0678 81.9649 91.0119C84.8947 90.9481 87.3308 93.2862 87.3865 96.2227C87.4502 99.1673 85.1176 101.601 82.1879 101.657Z" fill="#B0EFE6" stroke="#5FB6B3" stroke-width="3"/>
<path d="M63.885 70.0411H101.04" stroke="#B5DED7" stroke-width="2"/>
<path d="M63.885 73.632H101.04" stroke="#B5DED7" stroke-width="2"/>
<path d="M63.885 77.2229H77.4191" stroke="#B5DED7" stroke-width="2"/>
<path d="M63.885 116.994H101.04" stroke="#B5DED7" stroke-width="2"/>
<path d="M63.885 120.585H97.0594" stroke="#B5DED7" stroke-width="2"/>
<path d="M164.865 178.726H136.849C135.265 178.726 133.983 177.441 133.983 175.853V122.372C133.983 120.785 135.265 119.5 136.849 119.5H164.865C166.449 119.5 167.731 120.785 167.731 122.372V175.853C167.731 177.441 166.449 178.726 164.865 178.726Z" fill="#D8EDEB" stroke="#5FB6B3" stroke-width="2.6971"/>
<path d="M167.731 166.7H133.983V177.768H167.731V166.7Z" fill="#5FB6B3"/>
<path d="M157.413 171.823H144.301V175.103H157.413V171.823Z" fill="#D8EDEB"/>
</g>
<defs>
<clipPath id="clip0_1165_8992">
<rect width="205" height="180" fill="white"/>
</clipPath>
</defs>
</svg>
