<svg width="205" height="180" viewBox="0 0 205 180" fill="none" xmlns="http://www.w3.org/2000/svg">
<g clip-path="url(#clip0_617_4494)">
<path d="M77.3999 41.6658V40.4164" stroke="#5FB6B3" stroke-width="1.7464" stroke-miterlimit="2"/>
<path d="M77.3999 37.7177V17.4562" stroke="#5FB6B3" stroke-width="1.7464" stroke-miterlimit="2" stroke-dasharray="3.78 3.78"/>
<path d="M77.3999 16.1069V14.8575H78.6413" stroke="#5FB6B3" stroke-width="1.7464" stroke-miterlimit="2"/>
<path d="M81.0459 14.8575H137.524" stroke="#5FB6B3" stroke-width="1.7464" stroke-miterlimit="2" stroke-dasharray="3.39 3.39"/>
<path d="M138.723 14.8575H139.964V16.1069" stroke="#5FB6B3" stroke-width="1.7464" stroke-miterlimit="2"/>
<path d="M139.964 18.5128V65.4041" stroke="#5FB6B3" stroke-width="1.7464" stroke-miterlimit="2" stroke-dasharray="3.37 3.37"/>
<path d="M139.964 66.6035V67.8529" stroke="#5FB6B3" stroke-width="1.7464" stroke-miterlimit="2"/>
<path d="M34.0447 113.359V114.608" stroke="#5FB6B3" stroke-width="1.7464" stroke-miterlimit="2"/>
<path d="M34.0447 117.214V141.981" stroke="#5FB6B3" stroke-width="1.7464" stroke-miterlimit="2" stroke-dasharray="3.65 3.65"/>
<path d="M34.0447 143.28V144.529H35.286" stroke="#5FB6B3" stroke-width="1.7464" stroke-miterlimit="2"/>
<path d="M37.8042 144.53H137.46" stroke="#5FB6B3" stroke-width="1.7464" stroke-miterlimit="2" stroke-dasharray="3.56 3.56"/>
<path d="M138.723 144.529H139.964V143.28" stroke="#5FB6B3" stroke-width="1.7464" stroke-miterlimit="2"/>
<path d="M139.964 140.896V89.6136" stroke="#5FB6B3" stroke-width="1.7464" stroke-miterlimit="2" stroke-dasharray="3.34 3.34"/>
<path d="M139.964 88.4213V87.1791" stroke="#5FB6B3" stroke-width="1.7464" stroke-miterlimit="2"/>
<path d="M181.071 129.166C181.071 130.851 179.717 132.214 178.043 132.214H94.6944C93.0204 132.214 91.6655 130.851 91.6655 129.166V59.0072C91.6655 57.3224 93.0204 55.9587 94.6944 55.9587H178.043C179.717 55.9587 181.071 57.3224 181.071 59.0072V129.166Z" fill="white" stroke="#5FB6B3" stroke-width="2.6196"/>
<path d="M91.6577 67.6102V59.0072C91.6577 57.3224 93.0126 55.9587 94.6866 55.9587H178.035C179.709 55.9587 181.064 57.3224 181.064 59.0072V67.6102" fill="#F5AEC7"/>
<path d="M132.623 78.826H126.558V84.9302H132.623V78.826Z" fill="#B0EFE6"/>
<path d="M144.745 78.826H138.68V84.9302H144.745V78.826Z" fill="#B0EFE6"/>
<path d="M156.861 78.826H150.803V84.9302H156.861V78.826Z" fill="#B0EFE6"/>
<path d="M168.984 78.826H162.926V84.9302H168.984V78.826Z" fill="#B0EFE6"/>
<path d="M108.37 91.0272H102.312V97.1314H108.37V91.0272Z" fill="#B0EFE6"/>
<path d="M120.5 91.0272H114.435V97.1314H120.5V91.0272Z" fill="#B0EFE6"/>
<path d="M132.623 91.0272H126.558V97.1314H132.623V91.0272Z" fill="#B0EFE6" stroke="#5FB6B3" stroke-width="1.7464"/>
<path d="M144.745 91.0272H138.68V97.1314H144.745V91.0272Z" fill="#B0EFE6" stroke="#5FB6B3" stroke-width="1.7464"/>
<path d="M156.861 91.0272H150.803V97.1314H156.861V91.0272Z" fill="#B0EFE6" stroke="#5FB6B3" stroke-width="1.7464"/>
<path d="M168.984 91.0272H162.926V97.1314H168.984V91.0272Z" fill="#B0EFE6" stroke="#5FB6B3" stroke-width="1.7464"/>
<path d="M108.37 103.228H102.312V109.333H108.37V103.228Z" fill="#B0EFE6"/>
<path d="M120.5 103.228H114.435V109.333H120.5V103.228Z" fill="#B0EFE6"/>
<path d="M132.623 103.228H126.558V109.333H132.623V103.228Z" fill="#B0EFE6"/>
<path d="M144.745 103.228H138.68V109.333H144.745V103.228Z" fill="#B0EFE6"/>
<path d="M156.861 103.228H150.803V109.333H156.861V103.228Z" fill="#B0EFE6"/>
<path d="M168.984 103.228H162.926V109.333H168.984V103.228Z" fill="#B0EFE6"/>
<path d="M108.37 115.43H102.312V121.534H108.37V115.43Z" fill="#B0EFE6"/>
<path d="M120.5 115.43H114.435V121.534H120.5V115.43Z" fill="#B0EFE6"/>
<path d="M132.623 115.43H126.558V121.534H132.623V115.43Z" fill="#B0EFE6"/>
<path d="M103.823 81.8746H106.852" stroke="#5FB6B3" stroke-width="1.7464"/>
<path d="M115.946 81.8746H118.975" stroke="#5FB6B3" stroke-width="1.7464"/>
<path d="M164.444 118.485H167.473" stroke="#5FB6B3" stroke-width="1.7464"/>
<path d="M152.321 118.485H155.35" stroke="#5FB6B3" stroke-width="1.7464"/>
<path d="M140.198 118.485H143.227" stroke="#5FB6B3" stroke-width="1.7464"/>
<path d="M124.997 62.0557H152.271" stroke="#5FB6B3" stroke-width="1.7464"/>
<path d="M97.7156 62.0557H100.752" stroke="#5FB6B3" stroke-width="1.7464"/>
<path d="M171.977 62.0557H175.006" stroke="#5FB6B3" stroke-width="1.7464"/>
<path d="M181.071 129.166C181.071 130.851 179.717 132.214 178.043 132.214H94.6944C93.0204 132.214 91.6655 130.851 91.6655 129.166V59.0072C91.6655 57.3224 93.0204 55.9587 94.6944 55.9587H178.043C179.717 55.9587 181.071 57.3224 181.071 59.0072V129.166Z" stroke="#5FB6B3" stroke-width="2.6196"/>
<path d="M91.6577 68.1528H181.071" stroke="#5FB6B3" stroke-width="1.7464"/>
<path d="M68.1499 160.065C76.8744 160.065 83.947 152.946 83.947 144.165C83.947 135.384 76.8744 128.266 68.1499 128.266C59.4254 128.266 52.3528 135.384 52.3528 144.165C52.3528 152.946 59.4254 160.065 68.1499 160.065Z" fill="#E5E9C9" stroke="#5FB6B3" stroke-width="2.6196"/>
<path d="M84.089 64.99H22.9292V88.1072H84.089V64.99Z" fill="white" stroke="#5FB6B3" stroke-width="2.6196"/>
<path d="M84.089 64.99H22.9292V70.4516H84.089V64.99Z" fill="#D8EDEB" stroke="#5FB6B3" stroke-width="1.7464"/>
<path d="M24.6885 67.6672H26.2632" stroke="#5FB6B3" stroke-width="2.6196"/>
<path d="M27.7598 67.6672H29.3345" stroke="#5FB6B3" stroke-width="2.6196"/>
<path d="M30.8313 67.6672H32.406" stroke="#5FB6B3" stroke-width="2.6196"/>
<path d="M36.3572 84.359V83.0026C36.3572 81.5033 35.1513 80.2896 33.6617 80.2896H28.9445C27.4549 80.2896 26.249 81.5033 26.249 83.0026V84.359H36.3572Z" fill="#B5DED7"/>
<path d="M33.6617 75.8847C33.6617 74.571 32.6048 73.5144 31.3067 73.5144C30.0015 73.5144 28.9517 74.5782 28.9517 75.8847C28.9517 77.1983 30.0086 78.2549 31.3067 78.2549C32.6048 78.2549 33.6617 77.1912 33.6617 75.8847Z" fill="#B5DED7"/>
<path d="M38.478 77.5552H59.8435" stroke="#B5DED7" stroke-width="1.7464"/>
<path d="M38.478 80.2825H52.7784" stroke="#B5DED7" stroke-width="1.7464"/>
<path d="M80.3719 73.7714H69.8452V84.3662H80.3719V73.7714Z" fill="#E5E9C9"/>
<path d="M72.0159 79.4258L73.5197 80.9393L78.0524 76.3844" stroke="#5FB6B3" stroke-width="2.6196" stroke-miterlimit="10"/>
<path d="M84.089 93.6688H22.9292V116.786H84.089V93.6688Z" fill="white" stroke="#5FB6B3" stroke-width="2.6196"/>
<path d="M84.089 93.6688H22.9292V99.1304H84.089V93.6688Z" fill="#D8EDEB" stroke="#5FB6B3" stroke-width="1.7464"/>
<path d="M24.6885 96.346H26.2632" stroke="#5FB6B3" stroke-width="2.6196"/>
<path d="M27.7598 96.346H29.3345" stroke="#5FB6B3" stroke-width="2.6196"/>
<path d="M30.8313 96.346H32.406" stroke="#5FB6B3" stroke-width="2.6196"/>
<path d="M36.3572 113.038V111.681C36.3572 110.182 35.1513 108.968 33.6617 108.968H28.9445C27.4549 108.968 26.249 110.182 26.249 111.681V113.038H36.3572Z" fill="#B5DED7"/>
<path d="M33.6617 104.563C33.6617 103.25 32.6048 102.193 31.3067 102.193C30.0015 102.193 28.9517 103.257 28.9517 104.563C28.9517 105.877 30.0086 106.934 31.3067 106.934C32.6048 106.934 33.6617 105.87 33.6617 104.563Z" fill="#B5DED7"/>
<path d="M38.478 106.227H59.8435" stroke="#B5DED7" stroke-width="1.7464"/>
<path d="M38.478 108.961H52.7784" stroke="#B5DED7" stroke-width="1.7464"/>
<path d="M80.3719 102.45H69.8452V113.045H80.3719V102.45Z" fill="#E5E9C9"/>
<path d="M72.0159 108.254L73.5197 109.775L78.0524 105.213" stroke="#5FB6B3" stroke-width="2.6196" stroke-miterlimit="10"/>
<path d="M84.089 36.3184H22.9292V59.4356H84.089V36.3184Z" fill="white" stroke="#5FB6B3" stroke-width="2.6196"/>
<path d="M84.089 36.3184H22.9292V41.78H84.089V36.3184Z" fill="#D8EDEB" stroke="#5FB6B3" stroke-width="1.7464"/>
<path d="M24.6885 38.9885H26.2632" stroke="#5FB6B3" stroke-width="2.6196"/>
<path d="M27.7598 38.9885H29.3345" stroke="#5FB6B3" stroke-width="2.6196"/>
<path d="M30.8313 38.9885H32.406" stroke="#5FB6B3" stroke-width="2.6196"/>
<path d="M36.3572 55.6803V54.3239C36.3572 52.8246 35.1513 51.6109 33.6617 51.6109H28.9445C27.4549 51.6109 26.249 52.8246 26.249 54.3239V55.6803H36.3572Z" fill="#B5DED7"/>
<path d="M33.6617 47.2059C33.6617 45.8923 32.6048 44.8356 31.3067 44.8356C30.0015 44.8356 28.9517 45.8994 28.9517 47.2059C28.9517 48.5195 30.0086 49.5762 31.3067 49.5762C32.6048 49.5833 33.6617 48.5195 33.6617 47.2059Z" fill="#B5DED7"/>
<path d="M38.478 48.8765H59.8435" stroke="#B5DED7" stroke-width="1.7464"/>
<path d="M38.478 51.6037H52.7784" stroke="#B5DED7" stroke-width="1.7464"/>
<path d="M80.3719 45.0927H69.8452V55.6874H80.3719V45.0927Z" fill="#B0EFE6"/>
<path d="M72.321 50.3972L75.2081 53.3029L78.0951 50.3972" stroke="#5FB6B3" stroke-width="2.6196" stroke-miterlimit="10"/>
<path d="M75.208 52.7817V47.1773" stroke="#5FB6B3" stroke-width="2.6196" stroke-miterlimit="10"/>
<path d="M154.257 29.4289C154.314 28.972 154.343 28.515 154.343 28.0439C154.343 21.5756 149.136 16.3282 142.702 16.3282C141.61 16.3282 140.56 16.4924 139.553 16.7708C138.411 8.39636 131.275 1.93524 122.635 1.93524C113.201 1.93524 105.554 9.63146 105.554 19.1197C105.554 19.1554 105.554 19.1982 105.554 19.2339C100.361 19.8336 96.3252 24.2671 96.3252 29.6502C96.3252 35.4474 100.993 40.1451 106.745 40.1451H124.288H129.416H134.013H144.234H153.626C153.626 40.1379 153.633 40.1308 153.633 40.1236C153.782 40.1379 153.931 40.1451 154.08 40.1451C157.024 40.1451 159.407 37.7462 159.407 34.7834C159.422 31.8777 157.123 29.5146 154.257 29.4289Z" fill="white" stroke="#5FB6B3" stroke-width="2.6196"/>
<path d="M115.832 27.6869V22.9463C115.832 19.2339 118.833 16.2139 122.514 16.2139H124.592C128.274 16.2139 131.275 19.2339 131.275 22.9463V27.6869" stroke="#5FB6B3" stroke-width="2.6196"/>
<path d="M133.807 27.4299H113.307V45.5281H133.807V27.4299Z" fill="#FDEBBB" stroke="#5FB6B3" stroke-width="2.6196"/>
<path d="M125.451 34.3193C125.451 33.2627 124.607 32.4131 123.557 32.4131C122.514 32.4131 121.663 33.2627 121.663 34.3193C121.663 35.0118 122.032 35.6187 122.585 35.9471L122.159 40.6376H123.557H124.954L124.529 35.9471C125.082 35.6187 125.451 35.0118 125.451 34.3193Z" fill="#5FB6B3"/>
<path d="M111.377 32.4845H115.726" stroke="#5FB6B3" stroke-width="2.6196"/>
<path d="M111.377 36.3754H115.726" stroke="#5FB6B3" stroke-width="2.6196"/>
<path d="M111.377 40.2736H115.726" stroke="#5FB6B3" stroke-width="2.6196"/>
<path d="M131.395 32.4845H135.744" stroke="#5FB6B3" stroke-width="2.6196"/>
<path d="M131.395 36.3754H135.744" stroke="#5FB6B3" stroke-width="2.6196"/>
<path d="M131.395 40.2736H135.744" stroke="#5FB6B3" stroke-width="2.6196"/>
<path d="M71.2428 17.599H59.269V29.0505H71.2428V17.599Z" fill="#B0EFE6"/>
<path d="M28.2988 23.3248H52.2463" stroke="#B0EFE6" stroke-width="1.7464"/>
<path d="M64.8445 25.1953C66.2118 25.1953 67.3201 24.0798 67.3201 22.7037C67.3201 21.3276 66.2118 20.212 64.8445 20.212C63.4773 20.212 62.3689 21.3276 62.3689 22.7037C62.3689 24.0798 63.4773 25.1953 64.8445 25.1953Z" stroke="#5FB6B3" stroke-width="1.7464"/>
<path d="M66.0789 24.5742L67.9374 26.4447" stroke="#5FB6B3" stroke-width="1.7464"/>
<path d="M71.2427 17.599H22.9292V29.0505H71.2427V17.599Z" stroke="#5FB6B3" stroke-width="2.6196"/>
<path d="M74.8888 140.175L66.0007 149.113L62.532 149.077L62.4966 145.586L71.3847 136.648L74.8888 140.175Z" stroke="#5FB6B3" stroke-width="1.7464" stroke-miterlimit="10"/>
<path d="M70.0938 137.947L73.5979 141.474" stroke="#5FB6B3" stroke-width="1.7464" stroke-miterlimit="10"/>
<path d="M71.8954 139.661L64.6885 146.907" stroke="#5FB6B3" stroke-width="1.7464" stroke-miterlimit="10"/>
</g>
<defs>
<clipPath id="clip0_617_4494">
<rect width="160" height="160" fill="white" transform="translate(22 1)"/>
</clipPath>
</defs>
</svg>
