<svg width="233" height="233" viewBox="0 0 233 233" fill="none" xmlns="http://www.w3.org/2000/svg">
<circle cx="83.5" cy="58.5" r="14.5" fill="#F4E9A6"/>
<circle cx="153.5" cy="60.5" r="14.5" fill="#F4E9A6"/>
<path d="M50 1H183C210.062 1 232 22.938 232 50V182.557C232 209.619 210.062 231.557 183 231.557H50C22.938 231.557 1 209.619 1 182.557V50C1 22.9381 22.938 1 50 1Z" fill="white" fill-opacity="0.4" stroke="#A6E7E4" stroke-width="2"/>
<path fill-rule="evenodd" clip-rule="evenodd" d="M66.9895 82.1966H98.8816L108.913 100.84L118.566 112.575L138.723 82.1966H174.211L185 112.858L180.268 129.325L174.117 129.23L175.726 115.224L171.656 104.625L170.899 129.041L165.789 175.318H157.65L157.082 132.921H152.445L144.591 175.602H135.411L138.25 129.041V106.045L117.809 123.458L101.91 112.101L101.531 129.041L96.1372 175.602H86.9575V133.016H82.3204L73.8978 175.413H65.6646L68.6929 129.136L67.9358 107.937L56.0117 122.322V128.568H59.8918V160.744H47.3999V128.568H51.28V122.038L48.5355 120.902L66.9895 82.1966ZM160.963 47.3707C153.676 42.9228 144.212 45.2887 139.764 52.5757C135.411 59.8626 137.682 69.3262 144.969 73.774C152.256 78.2219 161.72 75.856 166.167 68.5691C170.615 61.2821 168.249 51.8186 160.963 47.3707ZM76.2637 47.3707C83.5507 42.9228 93.0142 45.2887 97.4621 52.5757C101.815 59.8626 99.5441 69.3262 92.2571 73.774C84.9702 78.2219 75.5066 75.856 71.0588 68.5691C66.6109 61.2821 68.9768 51.8186 76.2637 47.3707Z" stroke="#5FB6B3" stroke-width="6" stroke-miterlimit="10" stroke-linecap="round" stroke-linejoin="round"/>
<path fill-rule="evenodd" clip-rule="evenodd" d="M87.0213 90.5217L92 107.478L91.4894 108.913L83.8298 113.87H82.2979L74.6383 108.913L74 107.478L78.8511 90.5217L77.3191 89.4783V87.2609L82.2979 84H83.7021L88.6809 87.2609V89.4783L87.0213 90.5217ZM80.6383 109.696H85.3617L89.1915 107.217L88.8085 106.043H77.0638L76.6809 107.217L80.6383 109.696ZM81.4043 89.4783H84.5957L84.8511 88.8261L85.4894 88.4348L82.9362 86.7391L80.383 88.4348L81.1489 88.9565L81.4043 89.4783ZM85.1064 93.2609H80.8936L80.1277 95.4783H85.7447L85.1064 93.2609ZM86.8936 99.3913H79.1064L78.2128 102.261H87.6596L86.8936 99.3913Z" fill="#5FB6B3"/>
<g clip-path="url(#clip0_855_1714)">
<path fill-rule="evenodd" clip-rule="evenodd" d="M159.021 90.5217L164 107.478L163.489 108.913L155.83 113.87H154.298L146.638 108.913L146 107.478L150.851 90.5217L149.319 89.4783V87.2609L154.298 84H155.702L160.681 87.2609V89.4783L159.021 90.5217ZM152.638 109.696H157.362L161.191 107.217L160.809 106.043H149.064L148.681 107.217L152.638 109.696ZM153.404 89.4783H156.596L156.851 88.8261L157.489 88.4348L154.936 86.7391L152.383 88.4348L153.149 88.9565L153.404 89.4783ZM157.106 93.2609H152.894L152.128 95.4783H157.745L157.106 93.2609ZM158.894 99.3913H151.106L150.213 102.261H159.66L158.894 99.3913Z" fill="#5FB6B3"/>
</g>
<path d="M59.8918 128.947H47.3999V159.798H59.8918V128.947Z" fill="#5FB6B3"/>
<path d="M56.9613 121.218L51.2104 117.563L49.1799 120.758L54.9308 124.413L56.9613 121.218Z" fill="#5FB6B3"/>
<defs>
<clipPath id="clip0_855_1714">
<rect width="18" height="30" fill="white" transform="translate(146 83)"/>
</clipPath>
</defs>
</svg>
