<svg width="233" height="233" viewBox="0 0 233 233" fill="none" xmlns="http://www.w3.org/2000/svg">
<path d="M1 50C1 22.9381 22.9381 1 50 1H183C210.062 1 232 22.938 232 50V182.557C232 209.619 210.062 231.557 183 231.557H50C22.938 231.557 1 209.619 1 182.557V50Z" fill="white" fill-opacity="0.4" stroke="#A6E7E4" stroke-width="2"/>
<g clip-path="url(#clip0_855_1672)">
<path d="M70.5 173L67.5 126L115 137L164 126L161 173L117 180.5L70.5 173Z" fill="#F4E9A6"/>
<path fill-rule="evenodd" clip-rule="evenodd" d="M168.849 146.311C168.162 146.08 167.018 146.08 165.646 145.85C164.273 145.62 162.672 145.62 161.07 145.62C160.384 145.62 159.469 146.08 158.782 146.541C158.325 147.232 158.554 147.923 158.325 149.074C158.096 149.995 157.181 149.995 157.181 150.917C156.952 151.838 157.638 152.298 157.867 153.219C158.096 154.141 157.181 154.371 157.181 155.292C157.181 155.983 157.867 156.444 157.638 157.365C157.41 158.516 157.181 158.977 157.41 159.898C157.638 160.589 158.325 161.28 159.011 161.51C160.841 162.201 164.044 163.122 167.247 163.352C180.745 164.734 181.889 148.383 168.849 146.311Z" fill="#5FB6B3"/>
<path fill-rule="evenodd" clip-rule="evenodd" d="M122.177 177.4L159.011 170.952L159.469 165.425C161.07 165.886 162.672 166.346 164.273 166.576L163.815 173.025C163.815 174.176 162.9 175.097 161.756 175.328L122.406 182.236C120.118 185.691 112.111 185.691 109.823 182.236L70.4723 175.328C69.3283 175.097 68.642 174.176 68.4132 173.025L67.9557 166.346C69.5571 166.116 71.1586 165.655 72.7601 165.195L73.2176 170.722L110.052 177.17L109.594 137.79C109.136 137.79 108.908 137.559 108.908 137.329L70.2435 128.808L71.1586 142.396C69.5571 142.396 67.9557 142.396 66.3542 142.626L65.2103 126.275C64.9815 124.433 66.1254 122.821 68.1844 123.281L111.424 132.723C112.568 132.954 113.255 133.875 113.255 135.026C113.255 135.947 118.288 136.178 118.745 135.026C118.745 133.875 119.432 132.954 120.576 132.723L163.815 123.281C165.417 123.051 166.79 124.202 166.79 125.815L165.646 142.626C164.044 142.396 162.443 142.396 160.841 142.396H160.612L161.528 128.808L123.092 137.329C123.092 137.559 122.863 137.79 122.635 138.02L122.177 177.4Z" fill="#5FB6B3"/>
<path fill-rule="evenodd" clip-rule="evenodd" d="M63.1513 146.311C63.8376 146.08 64.9815 146.08 66.3542 145.85C67.7269 145.62 69.3284 145.62 70.9299 145.62C71.6162 145.62 72.5313 146.08 73.2177 146.541C73.6753 147.232 73.4465 147.923 73.6753 149.074C73.904 149.995 74.8192 149.995 74.8192 150.917C75.048 151.838 74.3616 152.298 74.1328 153.219C73.904 154.141 74.8192 154.371 74.8192 155.292C74.8192 155.983 74.1328 156.444 74.3616 157.365C74.5904 158.977 75.048 159.207 74.5904 160.128C74.3616 160.819 73.6753 161.51 72.9889 161.74C71.1587 162.431 67.9557 163.352 64.7528 163.583C51.2546 164.734 50.1107 148.383 63.1513 146.311Z" fill="#5FB6B3"/>
<path fill-rule="evenodd" clip-rule="evenodd" d="M78.251 122.36C79.1661 119.136 80.0812 115.912 80.9964 112.688C82.5978 107.161 97.4687 102.555 103.188 100.943L101.816 112.918L116 106.93L130.185 112.918L128.812 100.943C134.531 102.555 149.402 107.161 151.004 112.688C151.919 115.912 152.834 119.136 153.749 122.36L119.889 129.73C118.059 130.19 116.686 131.342 116 132.723C115.314 131.111 113.941 129.96 112.111 129.73L78.251 122.36Z" fill="#5FB6B3"/>
<path fill-rule="evenodd" clip-rule="evenodd" d="M93.5794 72.387C90.3765 64.7873 90.834 56.9574 96.096 50.2788C101.358 43.8306 109.594 40.6065 117.83 41.0671H118.288C117.83 39.6853 117.602 38.3036 117.83 36.4612C117.83 36.0006 123.092 41.5277 123.321 40.6065C123.55 39.9156 126.295 34.1583 126.524 36.4612C126.982 40.1459 128.126 42.4489 128.812 44.0609L129.041 44.2912C130.871 43.1397 137.048 40.6065 135.675 42.4489C134.074 44.5215 133.388 46.1336 133.159 47.285C134.989 48.8971 136.59 50.7394 137.734 53.0424C141.395 59.2603 141.852 67.0903 138.421 72.8476C138.878 73.0779 139.107 73.3082 139.107 73.7688C139.565 75.6111 139.336 77.2232 138.878 78.605C138.421 79.9867 137.734 81.3685 136.59 82.7502C136.133 83.4411 135.218 83.6714 134.531 83.2108C130.642 92.6529 124.007 101.404 115.314 101.404C106.62 101.404 99.9853 92.8832 96.096 83.2108C95.4097 83.6714 94.4946 83.4411 94.037 82.7502C93.1219 81.5988 92.2067 80.217 91.7492 78.605C91.2916 76.9929 91.2916 75.3809 91.5204 73.7688C92.4355 72.8476 92.8931 72.387 93.5794 72.387ZM134.76 70.5447C130.871 67.5509 128.812 62.4844 126.982 56.7271C123.779 62.945 117.144 67.5509 110.281 69.6235C111.882 66.1691 113.255 61.5632 113.712 59.4906C107.764 66.6297 104.561 70.775 97.2399 70.775C98.6126 81.8291 105.019 98.4102 116 98.4102C126.753 98.4102 133.388 81.5988 134.76 70.5447Z" fill="#5FB6B3"/>
</g>
<defs>
<clipPath id="clip0_855_1672">
<rect width="124" height="149" fill="white" transform="translate(54 36)"/>
</clipPath>
</defs>
</svg>
