<svg width="233" height="233" viewBox="0 0 233 233" fill="none" xmlns="http://www.w3.org/2000/svg">
<path d="M50 1H183C210.062 1 232 22.938 232 50V182.557C232 209.619 210.062 231.557 183 231.557H50C22.938 231.557 1 209.619 1 182.557V50C1 22.9381 22.938 1 50 1Z" fill="white" fill-opacity="0.4" stroke="#A6E7E4" stroke-width="2"/>
<g clip-path="url(#clip0_855_1693)">
<rect x="91.3181" y="75.8621" width="20.7273" height="21.5517" fill="#F4E9A6"/>
<rect x="91.3181" y="103.448" width="20.7273" height="21.5517" fill="#F4E9A6"/>
<rect x="91.3181" y="131.034" width="20.7273" height="21.5517" fill="#F4E9A6"/>
<path fill-rule="evenodd" clip-rule="evenodd" d="M160.82 143.103C159.963 143.339 159.107 142.868 158.873 142.006C158.639 141.144 159.107 140.282 159.963 140.047L172.5 136.442C173.357 136.207 174.213 136.677 174.447 137.539C174.68 138.401 174.213 139.263 173.357 139.498L160.82 143.103ZM134.344 154.859L139.328 155.643C140.885 152.351 139.484 147.257 136.68 145.376L132.631 148.668C133.799 150.392 134.422 152.821 134.344 154.859ZM135.824 144.044C152.021 139.498 161.209 136.991 177.406 132.523C178.34 133.386 179.275 134.248 180.209 135.11C180.832 137.304 181.377 139.498 182 141.693C181.689 143.025 181.299 144.357 180.988 145.69C164.791 150.235 155.602 152.743 139.406 157.21L125.545 155.016C125.156 154.937 124.922 154.624 124.766 154.232C124.689 153.84 124.689 153.37 125 153.135C128.582 150.078 132.242 147.022 135.824 144.044Z" fill="#5FB6B3"/>
<path fill-rule="evenodd" clip-rule="evenodd" d="M94.8647 87.1473C92.7623 85.0313 95.2541 82.5235 97.3566 84.6395L100.939 88.1661L106.389 82.7586C108.492 80.6426 110.984 83.2288 108.881 85.2665C99.8484 94.4357 102.107 94.4357 94.8647 87.1473ZM110.594 78.1348H93.2295V95.6897H110.672V78.1348H110.594ZM92.2172 75.0784H111.607C112.775 75.0784 113.709 76.0188 113.709 77.1944V96.7085C113.709 97.884 112.775 98.8245 111.607 98.8245H92.2172C91.0492 98.8245 90.1147 97.884 90.1147 96.7085V77.1944C90.1147 76.0188 91.0492 75.0784 92.2172 75.0784Z" fill="#5FB6B3"/>
<path fill-rule="evenodd" clip-rule="evenodd" d="M73.2172 72.4138V169.749H159.807V154.467L165.025 152.978V172.414C165.025 173.903 163.857 175.078 162.377 175.078H70.6475C69.168 175.078 68 173.903 68 172.414C68 137.696 68 103.056 68 68.3386C68 67.5549 68.3115 66.8495 68.8566 66.3009L84.1967 50.8621C84.7418 50.3135 85.4426 50 86.2213 50C111.607 50 137.07 50 162.455 50C163.934 50 165.102 51.1755 165.102 52.6646V132.994L159.885 134.483V55.2508H90.2705V69.7492C90.2705 71.2382 89.1025 72.4138 87.623 72.4138H73.2172ZM75.3975 67.163H84.9754V57.4451L75.3975 67.163Z" fill="#5FB6B3"/>
<path fill-rule="evenodd" clip-rule="evenodd" d="M110.594 105.408H93.2295V122.962H110.672V105.408H110.594ZM92.2172 102.351H111.607C112.775 102.351 113.709 103.292 113.709 104.467V123.981C113.709 125.157 112.775 126.097 111.607 126.097H92.2172C91.0492 126.097 90.1147 125.157 90.1147 123.981V104.467C90.1147 103.292 91.0492 102.351 92.2172 102.351Z" fill="#5FB6B3"/>
<path fill-rule="evenodd" clip-rule="evenodd" d="M121.885 129.624H145.635C146.57 129.624 147.348 130.408 147.348 131.348V132.21C147.348 133.15 146.57 133.934 145.635 133.934H121.885C120.951 133.934 120.172 133.15 120.172 132.21V131.348C120.172 130.329 120.951 129.624 121.885 129.624ZM121.885 75.0784H145.635C146.57 75.0784 147.348 75.8621 147.348 76.8025V77.6646C147.348 78.605 146.57 79.3887 145.635 79.3887H121.885C120.951 79.3887 120.172 78.605 120.172 77.6646V76.8025C120.172 75.7837 120.951 75.0784 121.885 75.0784ZM121.885 121.865H145.635C146.57 121.865 147.348 122.649 147.348 123.589V124.451C147.348 125.392 146.57 126.176 145.635 126.176H121.885C120.951 126.176 120.172 125.392 120.172 124.451V123.589C120.172 122.571 120.951 121.865 121.885 121.865ZM121.885 102.351H145.635C146.57 102.351 147.348 103.135 147.348 104.075V104.859C147.348 105.799 146.57 106.583 145.635 106.583H121.885C120.951 106.583 120.172 105.799 120.172 104.859V103.997C120.172 103.056 120.951 102.351 121.885 102.351ZM121.885 112.069H145.635C146.57 112.069 147.348 112.853 147.348 113.793V114.655C147.348 115.596 146.57 116.379 145.635 116.379H121.885C120.951 116.379 120.172 115.596 120.172 114.655V113.793C120.172 112.853 120.951 112.069 121.885 112.069ZM121.885 139.342H141.975C139.639 139.969 137.381 140.596 135.045 141.301L134.5 141.458L134.033 141.85L131.93 143.652H121.885C120.951 143.652 120.172 142.868 120.172 141.928V141.066C120.172 140.125 120.951 139.342 121.885 139.342ZM121.885 149.138H125.389L123.209 151.019C122.43 151.646 122.041 152.508 121.963 153.448C121.029 153.448 120.25 152.665 120.25 151.724V150.862C120.172 149.843 120.951 149.138 121.885 149.138ZM144.623 98.8244H122.898C121.418 98.8244 120.172 97.5705 120.172 96.0815V85.815C120.172 84.326 121.418 83.0721 122.898 83.0721H144.623C146.102 83.0721 147.348 84.326 147.348 85.815V96.0815C147.348 97.5705 146.102 98.8244 144.623 98.8244Z" fill="#5FB6B3"/>
<path fill-rule="evenodd" clip-rule="evenodd" d="M95.9549 141.458C94.1639 139.655 96.3443 137.539 98.1352 139.263L101.172 142.32L105.844 137.696C107.635 135.893 109.738 138.088 108.025 139.89C100.16 147.649 102.107 147.649 95.9549 141.458ZM110.594 132.759H93.2295V150.313H110.672V132.759H110.594ZM92.2172 129.624H111.607C112.775 129.624 113.709 130.564 113.709 131.74V151.254C113.709 152.429 112.775 153.37 111.607 153.37H92.2172C91.0492 153.37 90.1147 152.429 90.1147 151.254V131.74C90.1147 130.564 91.0492 129.624 92.2172 129.624Z" fill="#5FB6B3"/>
</g>
<defs>
<clipPath id="clip0_855_1693">
<rect width="114" height="125" fill="white" transform="translate(68 50)"/>
</clipPath>
</defs>
</svg>
