<svg width="100" height="20" viewBox="0 0 100 20" fill="none" xmlns="http://www.w3.org/2000/svg">
<path d="M89.4 10.4C85 1.4 77.7 0 75 0C72.3 0 65 1.4 60.6 10.4C58.3 15.1 52.7 15.2 50 15.2C47.3 15.2 41.7 15.1 39.4 10.4C35 1.4 27.7 0 25 0C22.3 0 15 1.4 10.6 10.4C8.29998 15.1 2.7 15.2 0 15.2V20C1.5 20 5.49998 20.4 10.1 17.9C15.6 14.9 17.1 4.5 25 4.5C32.8 4.5 34.3 14.9 39.9 17.9C44.5 20.4 48.6 20 50 20C51.5 20 55.5 20.4 60.1 17.9C65.6 14.9 67.1 4.5 75 4.5C82.8 4.5 84.3 14.9 89.9 17.9C94.5 20.4 98.6 20 100 20V15.3C97.3 15.2 91.7 15.1 89.4 10.4Z" fill="#A2E0DC"/>
</svg>
