<svg width="77" height="45" viewBox="0 0 77 45" fill="none" xmlns="http://www.w3.org/2000/svg">
<path d="M41.2119 42.9999H26.7918L11.9158 14.3307H11.6878C11.7638 15.2046 11.8398 16.2686 11.9158 17.5225C11.9918 18.7384 12.0488 19.9733 12.0868 21.2273C12.1627 22.4812 12.2007 23.6211 12.2007 24.6471V42.9999H2.45435V2.30444H16.8175L31.6365 30.5747H31.8075C31.7695 29.7007 31.7125 28.6748 31.6365 27.4969C31.5605 26.319 31.5035 25.122 31.4655 23.9061C31.4276 22.6902 31.4086 21.6263 31.4086 20.7143V2.30444H41.2119V42.9999Z" fill="white"/>
<path d="M74.668 42.9999H63.4967V22.8802C63.4967 22.5002 63.4967 21.8162 63.4967 20.8283C63.4967 19.8404 63.5157 18.7384 63.5537 17.5225C63.5917 16.3066 63.6297 15.2236 63.6677 14.2737C63.1737 14.8437 62.7177 15.3376 62.2998 15.7556C61.9198 16.1736 61.5208 16.5536 61.1028 16.8955L56.4861 20.7143L50.7865 13.7037L64.7506 2.30444H74.668V42.9999Z" fill="white"/>
<path fill-rule="evenodd" clip-rule="evenodd" d="M43.2119 44.9999H25.5764L14.1734 23.024C14.1916 23.5896 14.2007 24.1307 14.2007 24.6471V44.9999H0.454346V0.304443H18.0272L29.4198 22.0381C29.4123 21.5685 29.4086 21.1271 29.4086 20.7143V0.304443H43.2119V44.9999ZM31.5565 26.1142C31.5803 26.578 31.607 27.0389 31.6365 27.4969C31.6607 27.8715 31.683 28.2308 31.7033 28.5747C31.7447 29.2761 31.7782 29.9136 31.8037 30.4871C31.805 30.5165 31.8063 30.5457 31.8075 30.5747H31.6365L16.8175 2.30444H2.45435V42.9999H12.2007V24.6471C12.2007 23.6211 12.1627 22.4812 12.0868 21.2273C12.0621 20.4149 12.0295 19.6106 11.989 18.8142C11.9669 18.3813 11.9425 17.9507 11.9158 17.5225C11.8904 17.1041 11.865 16.7068 11.8397 16.3307C11.7923 15.6279 11.7449 14.999 11.6975 14.4439C11.6943 14.4058 11.691 14.3681 11.6878 14.3307H11.9158L26.7918 42.9999H41.2119V2.30444H31.4086V20.7143C31.4086 21.6263 31.4276 22.6902 31.4655 23.9061C31.4888 24.6492 31.5191 25.3853 31.5565 26.1142ZM76.668 44.9999H61.4967V20.8283C61.4967 20.2996 61.502 19.7408 61.5125 19.1522L56.2066 23.541L47.9755 13.4167L64.0379 0.304443H76.668V44.9999ZM63.5595 17.3376C63.5576 17.3989 63.5556 17.4605 63.5537 17.5225C63.5157 18.7384 63.4967 19.8404 63.4967 20.8283V42.9999H74.668V2.30444H64.7506L50.7865 13.7037L56.4861 20.7143L61.1028 16.8955C61.2669 16.7613 61.4281 16.6211 61.5864 16.4751C61.8312 16.2493 62.069 16.0095 62.2998 15.7556C62.7177 15.3376 63.1737 14.8437 63.6677 14.2737C63.6361 15.062 63.6046 15.9418 63.5731 16.9132C63.5719 16.9504 63.5707 16.9878 63.5695 17.0253C63.5661 17.1284 63.5628 17.2325 63.5595 17.3376Z" fill="#3F3B3A"/>
</svg>
